<?xml version="1.0" standalone="no"?>
 <!DOCTYPE svg PUBLIC "-//W3C//DTD SVG 1.1//EN" 
 "http://www.w3.org/Graphics/SVG/1.1/DTD/svg11.dtd"> 
<svg
  xmlns:svg="http://www.w3.org/2000/svg"
  xmlns="http://www.w3.org/2000/svg"
  xmlns:xlink="http://www.w3.org/1999/xlink"
  version="1.1"
  width="297.0022mm" height="210.0072mm" viewBox="0.0000 0.0000 297.0022 210.0072">
<title>SVG Image created as MotorControllerNode-F_Cu.svg date 2026/03/26 21:14:06 </title>
  <desc>Image generated by PCBNEW </desc>
<g style="fill:#000000; fill-opacity:1.0000;stroke:#000000; stroke-opacity:1.0000;
stroke-linecap:round; stroke-linejoin:round;"
 transform="translate(0 0) scale(1 1)">
<path style="fill:#000000; fill-opacity:1.0000; stroke:none;fill-rule:evenodd;"
d="M 118.1925,121.4400
118.0968,121.4210
118.0157,121.3668
117.9615,121.2857
117.9425,121.1900
117.9425,119.2900
117.9615,119.1943
118.0157,119.1132
118.0968,119.0590
118.1925,119.0400
120.0925,119.0400
120.1882,119.0590
120.2693,119.1132
120.3235,119.1943
120.3425,119.2900
120.3425,121.1900
120.3235,121.2857
120.2693,121.3668
120.1882,121.4210
120.0925,121.4400
Z" /> 
</g>
<g style="fill:#000000; fill-opacity:1.0000; stroke:none;">
<circle cx="119.1425" cy="115.1600" r="1.2000" /> 
</g>
<g style="fill:#000000; fill-opacity:1.0000; stroke:none;">
<circle cx="105.0906" cy="39.2375" r="0.7747" /> 
</g>
<g style="fill:#000000; fill-opacity:1.0000; stroke:none;">
<circle cx="107.3806" cy="39.2375" r="0.7747" /> 
</g>
<g style="fill:#000000; fill-opacity:1.0000; stroke:none;">
<circle cx="109.6706" cy="39.2375" r="0.7747" /> 
</g>
<g style="fill:#000000; fill-opacity:1.0000; stroke:none;">
<circle cx="111.9606" cy="39.2375" r="0.7747" /> 
</g>
<g style="fill:#000000; fill-opacity:1.0000; stroke:none;">
<circle cx="114.2506" cy="39.2375" r="0.7747" /> 
</g>
<g style="fill:#000000; fill-opacity:1.0000; stroke:none;">
<circle cx="103.9456" cy="36.6975" r="0.7747" /> 
</g>
<g style="fill:#000000; fill-opacity:1.0000; stroke:none;">
<circle cx="106.2356" cy="36.6975" r="0.7747" /> 
</g>
<g style="fill:#000000; fill-opacity:1.0000; stroke:none;">
<circle cx="108.5256" cy="36.6975" r="0.7747" /> 
</g>
<g style="fill:#000000; fill-opacity:1.0000; stroke:none;">
<circle cx="110.8156" cy="36.6975" r="0.7747" /> 
</g>
<g style="fill:#000000; fill-opacity:1.0000; stroke:none;">
<circle cx="113.1056" cy="36.6975" r="0.7747" /> 
</g>
<g style="fill:#000000; fill-opacity:1.0000; stroke:none;">
<circle cx="105.0906" cy="34.1576" r="0.7747" /> 
</g>
<g style="fill:#000000; fill-opacity:1.0000; stroke:none;">
<circle cx="107.3806" cy="34.1576" r="0.7747" /> 
</g>
<g style="fill:#000000; fill-opacity:1.0000; stroke:none;">
<circle cx="109.6706" cy="34.1576" r="0.7747" /> 
</g>
<g style="fill:#000000; fill-opacity:1.0000; stroke:none;">
<circle cx="111.9606" cy="34.1576" r="0.7747" /> 
</g>
<g style="fill:#000000; fill-opacity:1.0000; stroke:none;">
<circle cx="114.2506" cy="34.1576" r="0.7747" /> 
<path style="fill:#000000; fill-opacity:1.0000; stroke:none;fill-rule:evenodd;"
d="M 88.2500,74.8500
88.2329,74.9361
88.1841,75.0091
88.1111,75.0579
88.0250,75.0750
87.5750,75.0750
87.4889,75.0579
87.4159,75.0091
87.3671,74.9361
87.3500,74.8500
87.3500,74.3500
87.3671,74.2639
87.4159,74.1909
87.4889,74.1421
87.5750,74.1250
88.0250,74.1250
88.1111,74.1421
88.1841,74.1909
88.2329,74.2639
88.2500,74.3500
Z" /> 
<path style="fill:#000000; fill-opacity:1.0000; stroke:none;fill-rule:evenodd;"
d="M 86.7000,74.8500
86.6829,74.9361
86.6341,75.0091
86.5611,75.0579
86.4750,75.0750
86.0250,75.0750
85.9389,75.0579
85.8659,75.0091
85.8171,74.9361
85.8000,74.8500
85.8000,74.3500
85.8171,74.2639
85.8659,74.1909
85.9389,74.1421
86.0250,74.1250
86.4750,74.1250
86.5611,74.1421
86.6341,74.1909
86.6829,74.2639
86.7000,74.3500
Z" /> 
<path style="fill:#000000; fill-opacity:1.0000; stroke:none;fill-rule:evenodd;"
d="M 34.1500,56.5750
34.1348,56.6515
34.0914,56.7164
34.0265,56.7598
33.9500,56.7750
33.5500,56.7750
33.4735,56.7598
33.4086,56.7164
33.3652,56.6515
33.3500,56.5750
33.3500,56.0250
33.3652,55.9485
33.4086,55.8836
33.4735,55.8402
33.5500,55.8250
33.9500,55.8250
34.0265,55.8402
34.0914,55.8836
34.1348,55.9485
34.1500,56.0250
Z" /> 
<path style="fill:#000000; fill-opacity:1.0000; stroke:none;fill-rule:evenodd;"
d="M 32.5000,56.5750
32.4848,56.6515
32.4414,56.7164
32.3765,56.7598
32.3000,56.7750
31.9000,56.7750
31.8235,56.7598
31.7586,56.7164
31.7152,56.6515
31.7000,56.5750
31.7000,56.0250
31.7152,55.9485
31.7586,55.8836
31.8235,55.8402
31.9000,55.8250
32.3000,55.8250
32.3765,55.8402
32.4414,55.8836
32.4848,55.9485
32.5000,56.0250
Z" /> 
<path style="fill:#000000; fill-opacity:1.0000; stroke:none;fill-rule:evenodd;"
d="M 84.5750,49.6500
84.5921,49.5639
84.6409,49.4909
84.7139,49.4421
84.8000,49.4250
85.2500,49.4250
85.3361,49.4421
85.4091,49.4909
85.4579,49.5639
85.4750,49.6500
85.4750,50.1500
85.4579,50.2361
85.4091,50.3091
85.3361,50.3579
85.2500,50.3750
84.8000,50.3750
84.7139,50.3579
84.6409,50.3091
84.5921,50.2361
84.5750,50.1500
Z" /> 
<path style="fill:#000000; fill-opacity:1.0000; stroke:none;fill-rule:evenodd;"
d="M 86.1250,49.6500
86.1421,49.5639
86.1909,49.4909
86.2639,49.4421
86.3500,49.4250
86.8000,49.4250
86.8861,49.4421
86.9591,49.4909
87.0079,49.5639
87.0250,49.6500
87.0250,50.1500
87.0079,50.2361
86.9591,50.3091
86.8861,50.3579
86.8000,50.3750
86.3500,50.3750
86.2639,50.3579
86.1909,50.3091
86.1421,50.2361
86.1250,50.1500
Z" /> 
<path style="fill:#000000; fill-opacity:1.0000; stroke:none;fill-rule:evenodd;"
d="M 84.5750,48.0500
84.5921,47.9639
84.6409,47.8909
84.7139,47.8421
84.8000,47.8250
85.2500,47.8250
85.3361,47.8421
85.4091,47.8909
85.4579,47.9639
85.4750,48.0500
85.4750,48.5500
85.4579,48.6361
85.4091,48.7091
85.3361,48.7579
85.2500,48.7750
84.8000,48.7750
84.7139,48.7579
84.6409,48.7091
84.5921,48.6361
84.5750,48.5500
Z" /> 
<path style="fill:#000000; fill-opacity:1.0000; stroke:none;fill-rule:evenodd;"
d="M 86.1250,48.0500
86.1421,47.9639
86.1909,47.8909
86.2639,47.8421
86.3500,47.8250
86.8000,47.8250
86.8861,47.8421
86.9591,47.8909
87.0079,47.9639
87.0250,48.0500
87.0250,48.5500
87.0079,48.6361
86.9591,48.7091
86.8861,48.7579
86.8000,48.7750
86.3500,48.7750
86.2639,48.7579
86.1909,48.7091
86.1421,48.6361
86.1250,48.5500
Z" /> 
<path style="fill:#000000; fill-opacity:1.0000; stroke:none;fill-rule:evenodd;"
d="M 118.1925,97.0400
118.0968,97.0210
118.0157,96.9668
117.9615,96.8857
117.9425,96.7900
117.9425,94.8900
117.9615,94.7943
118.0157,94.7132
118.0968,94.6590
118.1925,94.6400
120.0925,94.6400
120.1882,94.6590
120.2693,94.7132
120.3235,94.7943
120.3425,94.8900
120.3425,96.7900
120.3235,96.8857
120.2693,96.9668
120.1882,97.0210
120.0925,97.0400
Z" /> 
</g>
<g style="fill:#000000; fill-opacity:1.0000; stroke:none;">
<circle cx="119.1425" cy="90.7600" r="1.2000" /> 
</g>
<g style="fill:#000000; fill-opacity:1.0000; stroke:none;">
<circle cx="88.9100" cy="96.1100" r="0.7620" /> 
</g>
<g style="fill:#000000; fill-opacity:1.0000; stroke:none;">
<circle cx="96.5300" cy="96.1100" r="0.7620" /> 
</g>
<g style="fill:#000000; fill-opacity:1.0000; stroke:none;">
<circle cx="101.6100" cy="96.1100" r="0.7620" /> 
</g>
<g style="fill:#000000; fill-opacity:1.0000; stroke:none;">
<circle cx="106.6900" cy="96.1100" r="0.7620" /> 
</g>
<g style="fill:#000000; fill-opacity:1.0000; stroke:none;">
<circle cx="106.6900" cy="88.4900" r="0.7620" /> 
</g>
<g style="fill:#000000; fill-opacity:1.0000; stroke:none;">
<circle cx="101.6100" cy="88.4900" r="0.7620" /> 
</g>
<g style="fill:#000000; fill-opacity:1.0000; stroke:none;">
<circle cx="96.5300" cy="88.4900" r="0.7620" /> 
</g>
<g style="fill:#000000; fill-opacity:1.0000; stroke:none;">
<circle cx="88.9100" cy="88.4900" r="0.7620" /> 
<path style="fill:#000000; fill-opacity:1.0000; stroke:none;fill-rule:evenodd;"
d="M 75.0000,61.0500
74.9829,61.1361
74.9341,61.2091
74.8611,61.2579
74.7750,61.2750
74.3250,61.2750
74.2389,61.2579
74.1659,61.2091
74.1171,61.1361
74.1000,61.0500
74.1000,60.5500
74.1171,60.4639
74.1659,60.3909
74.2389,60.3421
74.3250,60.3250
74.7750,60.3250
74.8611,60.3421
74.9341,60.3909
74.9829,60.4639
75.0000,60.5500
Z" /> 
<path style="fill:#000000; fill-opacity:1.0000; stroke:none;fill-rule:evenodd;"
d="M 73.4500,61.0500
73.4329,61.1361
73.3841,61.2091
73.3111,61.2579
73.2250,61.2750
72.7750,61.2750
72.6889,61.2579
72.6159,61.2091
72.5671,61.1361
72.5500,61.0500
72.5500,60.5500
72.5671,60.4639
72.6159,60.3909
72.6889,60.3421
72.7750,60.3250
73.2250,60.3250
73.3111,60.3421
73.3841,60.3909
73.4329,60.4639
73.4500,60.5500
Z" /> 
<path style="fill:#000000; fill-opacity:1.0000; stroke:none;fill-rule:evenodd;"
d="M 81.0125,48.4250
81.0364,48.4298
81.0567,48.4433
81.0702,48.4636
81.0750,48.4875
81.0750,49.2375
81.0702,49.2614
81.0567,49.2817
81.0364,49.2952
81.0125,49.3000
80.8875,49.3000
80.8636,49.2952
80.8433,49.2817
80.8298,49.2614
80.8250,49.2375
80.8250,48.4875
80.8298,48.4636
80.8433,48.4433
80.8636,48.4298
80.8875,48.4250
Z" /> 
<path style="fill:#000000; fill-opacity:1.0000; stroke:none;fill-rule:evenodd;"
d="M 80.5125,48.4250
80.5364,48.4298
80.5567,48.4433
80.5702,48.4636
80.5750,48.4875
80.5750,49.2375
80.5702,49.2614
80.5567,49.2817
80.5364,49.2952
80.5125,49.3000
80.3875,49.3000
80.3636,49.2952
80.3433,49.2817
80.3298,49.2614
80.3250,49.2375
80.3250,48.4875
80.3298,48.4636
80.3433,48.4433
80.3636,48.4298
80.3875,48.4250
Z" /> 
<path style="fill:#000000; fill-opacity:1.0000; stroke:none;fill-rule:evenodd;"
d="M 80.0125,48.4250
80.0364,48.4298
80.0567,48.4433
80.0702,48.4636
80.0750,48.4875
80.0750,49.2375
80.0702,49.2614
80.0567,49.2817
80.0364,49.2952
80.0125,49.3000
79.8875,49.3000
79.8636,49.2952
79.8433,49.2817
79.8298,49.2614
79.8250,49.2375
79.8250,48.4875
79.8298,48.4636
79.8433,48.4433
79.8636,48.4298
79.8875,48.4250
Z" /> 
<path style="fill:#000000; fill-opacity:1.0000; stroke:none;fill-rule:evenodd;"
d="M 79.5125,48.4250
79.5364,48.4298
79.5567,48.4433
79.5702,48.4636
79.5750,48.4875
79.5750,49.2375
79.5702,49.2614
79.5567,49.2817
79.5364,49.2952
79.5125,49.3000
79.3875,49.3000
79.3636,49.2952
79.3433,49.2817
79.3298,49.2614
79.3250,49.2375
79.3250,48.4875
79.3298,48.4636
79.3433,48.4433
79.3636,48.4298
79.3875,48.4250
Z" /> 
<path style="fill:#000000; fill-opacity:1.0000; stroke:none;fill-rule:evenodd;"
d="M 79.1375,49.4250
79.1614,49.4298
79.1817,49.4433
79.1952,49.4636
79.2000,49.4875
79.2000,49.6125
79.1952,49.6364
79.1817,49.6567
79.1614,49.6702
79.1375,49.6750
78.3875,49.6750
78.3636,49.6702
78.3433,49.6567
78.3298,49.6364
78.3250,49.6125
78.3250,49.4875
78.3298,49.4636
78.3433,49.4433
78.3636,49.4298
78.3875,49.4250
Z" /> 
<path style="fill:#000000; fill-opacity:1.0000; stroke:none;fill-rule:evenodd;"
d="M 79.1375,49.9250
79.1614,49.9298
79.1817,49.9433
79.1952,49.9636
79.2000,49.9875
79.2000,50.1125
79.1952,50.1364
79.1817,50.1567
79.1614,50.1702
79.1375,50.1750
78.3875,50.1750
78.3636,50.1702
78.3433,50.1567
78.3298,50.1364
78.3250,50.1125
78.3250,49.9875
78.3298,49.9636
78.3433,49.9433
78.3636,49.9298
78.3875,49.9250
Z" /> 
<path style="fill:#000000; fill-opacity:1.0000; stroke:none;fill-rule:evenodd;"
d="M 79.1375,50.4250
79.1614,50.4298
79.1817,50.4433
79.1952,50.4636
79.2000,50.4875
79.2000,50.6125
79.1952,50.6364
79.1817,50.6567
79.1614,50.6702
79.1375,50.6750
78.3875,50.6750
78.3636,50.6702
78.3433,50.6567
78.3298,50.6364
78.3250,50.6125
78.3250,50.4875
78.3298,50.4636
78.3433,50.4433
78.3636,50.4298
78.3875,50.4250
Z" /> 
<path style="fill:#000000; fill-opacity:1.0000; stroke:none;fill-rule:evenodd;"
d="M 79.1375,50.9250
79.1614,50.9298
79.1817,50.9433
79.1952,50.9636
79.2000,50.9875
79.2000,51.1125
79.1952,51.1364
79.1817,51.1567
79.1614,51.1702
79.1375,51.1750
78.3875,51.1750
78.3636,51.1702
78.3433,51.1567
78.3298,51.1364
78.3250,51.1125
78.3250,50.9875
78.3298,50.9636
78.3433,50.9433
78.3636,50.9298
78.3875,50.9250
Z" /> 
<path style="fill:#000000; fill-opacity:1.0000; stroke:none;fill-rule:evenodd;"
d="M 79.5125,51.3000
79.5364,51.3048
79.5567,51.3183
79.5702,51.3386
79.5750,51.3625
79.5750,52.1125
79.5702,52.1364
79.5567,52.1567
79.5364,52.1702
79.5125,52.1750
79.3875,52.1750
79.3636,52.1702
79.3433,52.1567
79.3298,52.1364
79.3250,52.1125
79.3250,51.3625
79.3298,51.3386
79.3433,51.3183
79.3636,51.3048
79.3875,51.3000
Z" /> 
<path style="fill:#000000; fill-opacity:1.0000; stroke:none;fill-rule:evenodd;"
d="M 80.0125,51.3000
80.0364,51.3048
80.0567,51.3183
80.0702,51.3386
80.0750,51.3625
80.0750,52.1125
80.0702,52.1364
80.0567,52.1567
80.0364,52.1702
80.0125,52.1750
79.8875,52.1750
79.8636,52.1702
79.8433,52.1567
79.8298,52.1364
79.8250,52.1125
79.8250,51.3625
79.8298,51.3386
79.8433,51.3183
79.8636,51.3048
79.8875,51.3000
Z" /> 
<path style="fill:#000000; fill-opacity:1.0000; stroke:none;fill-rule:evenodd;"
d="M 80.5125,51.3000
80.5364,51.3048
80.5567,51.3183
80.5702,51.3386
80.5750,51.3625
80.5750,52.1125
80.5702,52.1364
80.5567,52.1567
80.5364,52.1702
80.5125,52.1750
80.3875,52.1750
80.3636,52.1702
80.3433,52.1567
80.3298,52.1364
80.3250,52.1125
80.3250,51.3625
80.3298,51.3386
80.3433,51.3183
80.3636,51.3048
80.3875,51.3000
Z" /> 
<path style="fill:#000000; fill-opacity:1.0000; stroke:none;fill-rule:evenodd;"
d="M 81.0125,51.3000
81.0364,51.3048
81.0567,51.3183
81.0702,51.3386
81.0750,51.3625
81.0750,52.1125
81.0702,52.1364
81.0567,52.1567
81.0364,52.1702
81.0125,52.1750
80.8875,52.1750
80.8636,52.1702
80.8433,52.1567
80.8298,52.1364
80.8250,52.1125
80.8250,51.3625
80.8298,51.3386
80.8433,51.3183
80.8636,51.3048
80.8875,51.3000
Z" /> 
<path style="fill:#000000; fill-opacity:1.0000; stroke:none;fill-rule:evenodd;"
d="M 82.0125,50.9250
82.0364,50.9298
82.0567,50.9433
82.0702,50.9636
82.0750,50.9875
82.0750,51.1125
82.0702,51.1364
82.0567,51.1567
82.0364,51.1702
82.0125,51.1750
81.2625,51.1750
81.2386,51.1702
81.2183,51.1567
81.2048,51.1364
81.2000,51.1125
81.2000,50.9875
81.2048,50.9636
81.2183,50.9433
81.2386,50.9298
81.2625,50.9250
Z" /> 
<path style="fill:#000000; fill-opacity:1.0000; stroke:none;fill-rule:evenodd;"
d="M 82.0125,50.4250
82.0364,50.4298
82.0567,50.4433
82.0702,50.4636
82.0750,50.4875
82.0750,50.6125
82.0702,50.6364
82.0567,50.6567
82.0364,50.6702
82.0125,50.6750
81.2625,50.6750
81.2386,50.6702
81.2183,50.6567
81.2048,50.6364
81.2000,50.6125
81.2000,50.4875
81.2048,50.4636
81.2183,50.4433
81.2386,50.4298
81.2625,50.4250
Z" /> 
<path style="fill:#000000; fill-opacity:1.0000; stroke:none;fill-rule:evenodd;"
d="M 82.0125,49.9250
82.0364,49.9298
82.0567,49.9433
82.0702,49.9636
82.0750,49.9875
82.0750,50.1125
82.0702,50.1364
82.0567,50.1567
82.0364,50.1702
82.0125,50.1750
81.2625,50.1750
81.2386,50.1702
81.2183,50.1567
81.2048,50.1364
81.2000,50.1125
81.2000,49.9875
81.2048,49.9636
81.2183,49.9433
81.2386,49.9298
81.2625,49.9250
Z" /> 
<path style="fill:#000000; fill-opacity:1.0000; stroke:none;fill-rule:evenodd;"
d="M 82.0125,49.4250
82.0364,49.4298
82.0567,49.4433
82.0702,49.4636
82.0750,49.4875
82.0750,49.6125
82.0702,49.6364
82.0567,49.6567
82.0364,49.6702
82.0125,49.6750
81.2625,49.6750
81.2386,49.6702
81.2183,49.6567
81.2048,49.6364
81.2000,49.6125
81.2000,49.4875
81.2048,49.4636
81.2183,49.4433
81.2386,49.4298
81.2625,49.4250
Z" /> 
<path style="fill:#000000; fill-opacity:1.0000; stroke:none;fill-rule:evenodd;"
d="M 79.8000,49.9000
80.6000,49.9000
80.6000,50.7000
79.8000,50.7000
Z" /> 
</g>
<g style="fill:#000000; fill-opacity:1.0000; stroke:none;">
<circle cx="111.8607" cy="52.8600" r="0.7493" /> 
</g>
<g style="fill:#000000; fill-opacity:1.0000; stroke:none;">
<circle cx="111.8607" cy="55.6300" r="0.7493" /> 
</g>
<g style="fill:#000000; fill-opacity:1.0000; stroke:none;">
<circle cx="111.8607" cy="58.4000" r="0.7493" /> 
</g>
<g style="fill:#000000; fill-opacity:1.0000; stroke:none;">
<circle cx="111.8607" cy="61.1700" r="0.7493" /> 
</g>
<g style="fill:#000000; fill-opacity:1.0000; stroke:none;">
<circle cx="111.8607" cy="63.9400" r="0.7493" /> 
</g>
<g style="fill:#000000; fill-opacity:1.0000; stroke:none;">
<circle cx="114.4007" cy="54.2450" r="0.7493" /> 
</g>
<g style="fill:#000000; fill-opacity:1.0000; stroke:none;">
<circle cx="114.4007" cy="57.0150" r="0.7493" /> 
</g>
<g style="fill:#000000; fill-opacity:1.0000; stroke:none;">
<circle cx="114.4007" cy="59.7850" r="0.7493" /> 
</g>
<g style="fill:#000000; fill-opacity:1.0000; stroke:none;">
<circle cx="114.4007" cy="62.5550" r="0.7493" /> 
<path style="fill:#000000; fill-opacity:1.0000; stroke:none;fill-rule:evenodd;"
d="M 88.4000,61.0500
88.3829,61.1361
88.3341,61.2091
88.2611,61.2579
88.1750,61.2750
87.7250,61.2750
87.6389,61.2579
87.5659,61.2091
87.5171,61.1361
87.5000,61.0500
87.5000,60.5500
87.5171,60.4639
87.5659,60.3909
87.6389,60.3421
87.7250,60.3250
88.1750,60.3250
88.2611,60.3421
88.3341,60.3909
88.3829,60.4639
88.4000,60.5500
Z" /> 
<path style="fill:#000000; fill-opacity:1.0000; stroke:none;fill-rule:evenodd;"
d="M 86.8500,61.0500
86.8329,61.1361
86.7841,61.2091
86.7111,61.2579
86.6250,61.2750
86.1750,61.2750
86.0889,61.2579
86.0159,61.2091
85.9671,61.1361
85.9500,61.0500
85.9500,60.5500
85.9671,60.4639
86.0159,60.3909
86.0889,60.3421
86.1750,60.3250
86.6250,60.3250
86.7111,60.3421
86.7841,60.3909
86.8329,60.4639
86.8500,60.5500
Z" /> 
<path style="fill:#000000; fill-opacity:1.0000; stroke:none;fill-rule:evenodd;"
d="M 73.7000,49.9250
73.6235,49.9098
73.5586,49.8664
73.5152,49.8015
73.5000,49.7250
73.5000,49.3250
73.5152,49.2485
73.5586,49.1836
73.6235,49.1402
73.7000,49.1250
74.2500,49.1250
74.3265,49.1402
74.3914,49.1836
74.4348,49.2485
74.4500,49.3250
74.4500,49.7250
74.4348,49.8015
74.3914,49.8664
74.3265,49.9098
74.2500,49.9250
Z" /> 
<path style="fill:#000000; fill-opacity:1.0000; stroke:none;fill-rule:evenodd;"
d="M 73.7000,48.2750
73.6235,48.2598
73.5586,48.2164
73.5152,48.1515
73.5000,48.0750
73.5000,47.6750
73.5152,47.5985
73.5586,47.5336
73.6235,47.4902
73.7000,47.4750
74.2500,47.4750
74.3265,47.4902
74.3914,47.5336
74.4348,47.5985
74.4500,47.6750
74.4500,48.0750
74.4348,48.1515
74.3914,48.2164
74.3265,48.2598
74.2500,48.2750
Z" /> 
<path style="fill:#000000; fill-opacity:1.0000; stroke:none;fill-rule:evenodd;"
d="M 44.4660,41.0560
46.4660,41.0560
46.4660,42.2560
44.4660,42.2560
Z" /> 
</g>
<g style="fill:none; 
stroke:#000000; stroke-width:1.2000; stroke-opacity:1; 
stroke-linecap:round; stroke-linejoin:round;">
<path d="M45.8660 44.1960
L45.0660 44.1960
" />
<path d="M45.8660 46.7360
L45.0660 46.7360
" />
<path d="M45.8660 49.2760
L45.0660 49.2760
" />
<path d="M45.8660 51.8160
L45.0660 51.8160
" />
<path d="M45.8660 54.3560
L45.0660 54.3560
" />
<path d="M45.8660 56.8960
L45.0660 56.8960
" />
<path d="M45.8660 59.4360
L45.0660 59.4360
" />
<path d="M45.8660 61.9760
L45.0660 61.9760
" />
<path d="M45.8660 64.5160
L45.0660 64.5160
" />
<path d="M45.8660 67.0560
L45.0660 67.0560
" />
<path d="M45.8660 69.5960
L45.0660 69.5960
" />
<path d="M45.8660 72.1360
L45.0660 72.1360
" />
<path d="M45.8660 74.6760
L45.0660 74.6760
" />
<path d="M45.8660 77.2160
L45.0660 77.2160
" />
<path d="M45.8660 79.7560
L45.0660 79.7560
" />
<path d="M45.8660 82.2960
L45.0660 82.2960
" />
<path d="M45.8660 84.8360
L45.0660 84.8360
" />
<path d="M45.8660 87.3760
L45.0660 87.3760
" />
<path d="M45.8623 89.9133
L45.0623 89.9133
" />
<path d="M45.8623 92.4533
L45.0623 92.4533
" />
<path d="M45.8623 94.9933
L45.0623 94.9933
" />
<path d="M68.7260 94.9960
L67.9260 94.9960
" />
<path d="M68.7260 92.4560
L67.9260 92.4560
" />
<path d="M68.7260 89.9160
L67.9260 89.9160
" />
<path d="M68.7260 87.3760
L67.9260 87.3760
" />
<path d="M68.7260 84.8360
L67.9260 84.8360
" />
<path d="M68.7260 82.2960
L67.9260 82.2960
" />
<path d="M68.7260 79.7560
L67.9260 79.7560
" />
<path d="M68.7260 77.2160
L67.9260 77.2160
" />
<path d="M68.7260 74.6760
L67.9260 74.6760
" />
<path d="M68.7260 72.1360
L67.9260 72.1360
" />
<path d="M68.7260 69.5960
L67.9260 69.5960
" />
<path d="M68.7260 67.0560
L67.9260 67.0560
" />
<path d="M68.7260 64.5160
L67.9260 64.5160
" />
<path d="M68.7260 61.9760
L67.9260 61.9760
" />
<path d="M68.7260 59.4360
L67.9260 59.4360
" />
<path d="M68.7260 56.8960
L67.9260 56.8960
" />
<path d="M68.7260 54.3560
L67.9260 54.3560
" />
<path d="M68.7260 51.8160
L67.9260 51.8160
" />
<path d="M68.7260 49.2760
L67.9260 49.2760
" />
<path d="M68.7260 46.7360
L67.9260 46.7360
" />
<path d="M68.7260 44.1960
L67.9260 44.1960
" />
<path d="M68.7260 41.6560
L67.9260 41.6560
" />
</g>
<g style="fill:#000000; fill-opacity:1.0000; stroke:none;">
<circle cx="37.7700" cy="80.5350" r="0.7493" /> 
</g>
<g style="fill:#000000; fill-opacity:1.0000; stroke:none;">
<circle cx="37.7700" cy="77.7650" r="0.7493" /> 
</g>
<g style="fill:#000000; fill-opacity:1.0000; stroke:none;">
<circle cx="37.7700" cy="74.9950" r="0.7493" /> 
</g>
<g style="fill:#000000; fill-opacity:1.0000; stroke:none;">
<circle cx="37.7700" cy="72.2250" r="0.7493" /> 
</g>
<g style="fill:#000000; fill-opacity:1.0000; stroke:none;">
<circle cx="37.7700" cy="69.4550" r="0.7493" /> 
</g>
<g style="fill:#000000; fill-opacity:1.0000; stroke:none;">
<circle cx="35.2300" cy="79.1500" r="0.7493" /> 
</g>
<g style="fill:#000000; fill-opacity:1.0000; stroke:none;">
<circle cx="35.2300" cy="76.3800" r="0.7493" /> 
</g>
<g style="fill:#000000; fill-opacity:1.0000; stroke:none;">
<circle cx="35.2300" cy="73.6100" r="0.7493" /> 
</g>
<g style="fill:#000000; fill-opacity:1.0000; stroke:none;">
<circle cx="35.2300" cy="70.8400" r="0.7493" /> 
<path style="fill:#000000; fill-opacity:1.0000; stroke:none;fill-rule:evenodd;"
d="M 118.1925,109.2400
118.0968,109.2210
118.0157,109.1668
117.9615,109.0857
117.9425,108.9900
117.9425,107.0900
117.9615,106.9943
118.0157,106.9132
118.0968,106.8590
118.1925,106.8400
120.0925,106.8400
120.1882,106.8590
120.2693,106.9132
120.3235,106.9943
120.3425,107.0900
120.3425,108.9900
120.3235,109.0857
120.2693,109.1668
120.1882,109.2210
120.0925,109.2400
Z" /> 
</g>
<g style="fill:#000000; fill-opacity:1.0000; stroke:none;">
<circle cx="119.1425" cy="102.9600" r="1.2000" /> 
<path style="fill:#000000; fill-opacity:1.0000; stroke:none;fill-rule:evenodd;"
d="M 37.4860,52.8550
37.4746,52.9124
37.4421,52.9611
37.3934,52.9936
37.3360,53.0050
35.6860,53.0050
35.6286,52.9936
35.5799,52.9611
35.5474,52.9124
35.5360,52.8550
35.5360,52.5550
35.5474,52.4976
35.5799,52.4489
35.6286,52.4164
35.6860,52.4050
37.3360,52.4050
37.3934,52.4164
37.4421,52.4489
37.4746,52.4976
37.4860,52.5550
Z" /> 
<path style="fill:#000000; fill-opacity:1.0000; stroke:none;fill-rule:evenodd;"
d="M 37.4860,51.5850
37.4746,51.6424
37.4421,51.6911
37.3934,51.7236
37.3360,51.7350
35.6860,51.7350
35.6286,51.7236
35.5799,51.6911
35.5474,51.6424
35.5360,51.5850
35.5360,51.2850
35.5474,51.2276
35.5799,51.1789
35.6286,51.1464
35.6860,51.1350
37.3360,51.1350
37.3934,51.1464
37.4421,51.1789
37.4746,51.2276
37.4860,51.2850
Z" /> 
<path style="fill:#000000; fill-opacity:1.0000; stroke:none;fill-rule:evenodd;"
d="M 37.4860,50.3150
37.4746,50.3724
37.4421,50.4211
37.3934,50.4536
37.3360,50.4650
35.6860,50.4650
35.6286,50.4536
35.5799,50.4211
35.5474,50.3724
35.5360,50.3150
35.5360,50.0150
35.5474,49.9576
35.5799,49.9089
35.6286,49.8764
35.6860,49.8650
37.3360,49.8650
37.3934,49.8764
37.4421,49.9089
37.4746,49.9576
37.4860,50.0150
Z" /> 
<path style="fill:#000000; fill-opacity:1.0000; stroke:none;fill-rule:evenodd;"
d="M 37.4860,49.0450
37.4746,49.1024
37.4421,49.1511
37.3934,49.1836
37.3360,49.1950
35.6860,49.1950
35.6286,49.1836
35.5799,49.1511
35.5474,49.1024
35.5360,49.0450
35.5360,48.7450
35.5474,48.6876
35.5799,48.6389
35.6286,48.6064
35.6860,48.5950
37.3360,48.5950
37.3934,48.6064
37.4421,48.6389
37.4746,48.6876
37.4860,48.7450
Z" /> 
<path style="fill:#000000; fill-opacity:1.0000; stroke:none;fill-rule:evenodd;"
d="M 32.5360,49.0450
32.5246,49.1024
32.4921,49.1511
32.4434,49.1836
32.3860,49.1950
30.7360,49.1950
30.6786,49.1836
30.6299,49.1511
30.5974,49.1024
30.5860,49.0450
30.5860,48.7450
30.5974,48.6876
30.6299,48.6389
30.6786,48.6064
30.7360,48.5950
32.3860,48.5950
32.4434,48.6064
32.4921,48.6389
32.5246,48.6876
32.5360,48.7450
Z" /> 
<path style="fill:#000000; fill-opacity:1.0000; stroke:none;fill-rule:evenodd;"
d="M 32.5360,50.3150
32.5246,50.3724
32.4921,50.4211
32.4434,50.4536
32.3860,50.4650
30.7360,50.4650
30.6786,50.4536
30.6299,50.4211
30.5974,50.3724
30.5860,50.3150
30.5860,50.0150
30.5974,49.9576
30.6299,49.9089
30.6786,49.8764
30.7360,49.8650
32.3860,49.8650
32.4434,49.8764
32.4921,49.9089
32.5246,49.9576
32.5360,50.0150
Z" /> 
<path style="fill:#000000; fill-opacity:1.0000; stroke:none;fill-rule:evenodd;"
d="M 32.5360,51.5850
32.5246,51.6424
32.4921,51.6911
32.4434,51.7236
32.3860,51.7350
30.7360,51.7350
30.6786,51.7236
30.6299,51.6911
30.5974,51.6424
30.5860,51.5850
30.5860,51.2850
30.5974,51.2276
30.6299,51.1789
30.6786,51.1464
30.7360,51.1350
32.3860,51.1350
32.4434,51.1464
32.4921,51.1789
32.5246,51.2276
32.5360,51.2850
Z" /> 
<path style="fill:#000000; fill-opacity:1.0000; stroke:none;fill-rule:evenodd;"
d="M 32.5360,52.8550
32.5246,52.9124
32.4921,52.9611
32.4434,52.9936
32.3860,53.0050
30.7360,53.0050
30.6786,52.9936
30.6299,52.9611
30.5974,52.9124
30.5860,52.8550
30.5860,52.5550
30.5974,52.4976
30.6299,52.4489
30.6786,52.4164
30.7360,52.4050
32.3860,52.4050
32.4434,52.4164
32.4921,52.4489
32.5246,52.4976
32.5360,52.5550
Z" /> 
</g>
<g style="fill:#000000; fill-opacity:1.0000; stroke:none;">
<circle cx="82.7800" cy="28.5000" r="0.8001" /> 
</g>
<g style="fill:#000000; fill-opacity:1.0000; stroke:none;">
<circle cx="85.3200" cy="28.5000" r="0.8001" /> 
</g>
<g style="fill:#000000; fill-opacity:1.0000; stroke:none;">
<circle cx="87.8600" cy="28.5000" r="0.8001" /> 
</g>
<g style="fill:#000000; fill-opacity:1.0000; stroke:none;">
<circle cx="90.4000" cy="28.5000" r="0.8001" /> 
<path style="fill:#000000; fill-opacity:1.0000; stroke:none;fill-rule:evenodd;"
d="M 87.0250,51.7500
87.0079,51.8361
86.9591,51.9091
86.8861,51.9579
86.8000,51.9750
86.3500,51.9750
86.2639,51.9579
86.1909,51.9091
86.1421,51.8361
86.1250,51.7500
86.1250,51.2500
86.1421,51.1639
86.1909,51.0909
86.2639,51.0421
86.3500,51.0250
86.8000,51.0250
86.8861,51.0421
86.9591,51.0909
87.0079,51.1639
87.0250,51.2500
Z" /> 
<path style="fill:#000000; fill-opacity:1.0000; stroke:none;fill-rule:evenodd;"
d="M 85.4750,51.7500
85.4579,51.8361
85.4091,51.9091
85.3361,51.9579
85.2500,51.9750
84.8000,51.9750
84.7139,51.9579
84.6409,51.9091
84.5921,51.8361
84.5750,51.7500
84.5750,51.2500
84.5921,51.1639
84.6409,51.0909
84.7139,51.0421
84.8000,51.0250
85.2500,51.0250
85.3361,51.0421
85.4091,51.0909
85.4579,51.1639
85.4750,51.2500
Z" /> 
<path style="fill:#000000; fill-opacity:1.0000; stroke:none;fill-rule:evenodd;"
d="M 74.3500,75.2500
74.3329,75.3361
74.2841,75.4091
74.2111,75.4579
74.1250,75.4750
73.6750,75.4750
73.5889,75.4579
73.5159,75.4091
73.4671,75.3361
73.4500,75.2500
73.4500,74.7500
73.4671,74.6639
73.5159,74.5909
73.5889,74.5421
73.6750,74.5250
74.1250,74.5250
74.2111,74.5421
74.2841,74.5909
74.3329,74.6639
74.3500,74.7500
Z" /> 
<path style="fill:#000000; fill-opacity:1.0000; stroke:none;fill-rule:evenodd;"
d="M 72.8000,75.2500
72.7829,75.3361
72.7341,75.4091
72.6611,75.4579
72.5750,75.4750
72.1250,75.4750
72.0389,75.4579
71.9659,75.4091
71.9171,75.3361
71.9000,75.2500
71.9000,74.7500
71.9171,74.6639
71.9659,74.5909
72.0389,74.5421
72.1250,74.5250
72.5750,74.5250
72.6611,74.5421
72.7341,74.5909
72.7829,74.6639
72.8000,74.7500
Z" /> 
<path style="fill:#000000; fill-opacity:1.0000; stroke:none;fill-rule:evenodd;"
d="M 76.3250,47.1000
76.2485,47.0848
76.1836,47.0414
76.1402,46.9765
76.1250,46.9000
76.1250,46.5000
76.1402,46.4235
76.1836,46.3586
76.2485,46.3152
76.3250,46.3000
76.8750,46.3000
76.9515,46.3152
77.0164,46.3586
77.0598,46.4235
77.0750,46.5000
77.0750,46.9000
77.0598,46.9765
77.0164,47.0414
76.9515,47.0848
76.8750,47.1000
Z" /> 
<path style="fill:#000000; fill-opacity:1.0000; stroke:none;fill-rule:evenodd;"
d="M 76.3250,45.4500
76.2485,45.4348
76.1836,45.3914
76.1402,45.3265
76.1250,45.2500
76.1250,44.8500
76.1402,44.7735
76.1836,44.7086
76.2485,44.6652
76.3250,44.6500
76.8750,44.6500
76.9515,44.6652
77.0164,44.7086
77.0598,44.7735
77.0750,44.8500
77.0750,45.2500
77.0598,45.3265
77.0164,45.3914
76.9515,45.4348
76.8750,45.4500
Z" /> 
<path style="fill:#000000; fill-opacity:1.0000; stroke:none;fill-rule:evenodd;"
d="M 78.1870,60.4000
76.7120,60.4000
76.7120,59.9500
78.1870,59.9500
Z" /> 
<path style="fill:#000000; fill-opacity:1.0000; stroke:none;fill-rule:evenodd;"
d="M 78.1870,61.0500
76.7120,61.0500
76.7120,60.6000
78.1870,60.6000
Z" /> 
<path style="fill:#000000; fill-opacity:1.0000; stroke:none;fill-rule:evenodd;"
d="M 78.1870,61.7000
76.7120,61.7000
76.7120,61.2500
78.1870,61.2500
Z" /> 
<path style="fill:#000000; fill-opacity:1.0000; stroke:none;fill-rule:evenodd;"
d="M 78.1870,62.3500
76.7120,62.3500
76.7120,61.9000
78.1870,61.9000
Z" /> 
<path style="fill:#000000; fill-opacity:1.0000; stroke:none;fill-rule:evenodd;"
d="M 78.1870,63.0000
76.7120,63.0000
76.7120,62.5500
78.1870,62.5500
Z" /> 
<path style="fill:#000000; fill-opacity:1.0000; stroke:none;fill-rule:evenodd;"
d="M 78.1870,63.6500
76.7120,63.6500
76.7120,63.2000
78.1870,63.2000
Z" /> 
<path style="fill:#000000; fill-opacity:1.0000; stroke:none;fill-rule:evenodd;"
d="M 78.1870,64.3000
76.7120,64.3000
76.7120,63.8500
78.1870,63.8500
Z" /> 
<path style="fill:#000000; fill-opacity:1.0000; stroke:none;fill-rule:evenodd;"
d="M 78.1870,64.9500
76.7120,64.9500
76.7120,64.5000
78.1870,64.5000
Z" /> 
<path style="fill:#000000; fill-opacity:1.0000; stroke:none;fill-rule:evenodd;"
d="M 78.1870,65.6000
76.7120,65.6000
76.7120,65.1500
78.1870,65.1500
Z" /> 
<path style="fill:#000000; fill-opacity:1.0000; stroke:none;fill-rule:evenodd;"
d="M 78.1870,66.2500
76.7120,66.2500
76.7120,65.8000
78.1870,65.8000
Z" /> 
<path style="fill:#000000; fill-opacity:1.0000; stroke:none;fill-rule:evenodd;"
d="M 84.0630,66.2500
82.5880,66.2500
82.5880,65.8000
84.0630,65.8000
Z" /> 
<path style="fill:#000000; fill-opacity:1.0000; stroke:none;fill-rule:evenodd;"
d="M 84.0630,65.6000
82.5880,65.6000
82.5880,65.1500
84.0630,65.1500
Z" /> 
<path style="fill:#000000; fill-opacity:1.0000; stroke:none;fill-rule:evenodd;"
d="M 84.0630,64.9500
82.5880,64.9500
82.5880,64.5000
84.0630,64.5000
Z" /> 
<path style="fill:#000000; fill-opacity:1.0000; stroke:none;fill-rule:evenodd;"
d="M 84.0630,64.3000
82.5880,64.3000
82.5880,63.8500
84.0630,63.8500
Z" /> 
<path style="fill:#000000; fill-opacity:1.0000; stroke:none;fill-rule:evenodd;"
d="M 84.0630,63.6500
82.5880,63.6500
82.5880,63.2000
84.0630,63.2000
Z" /> 
<path style="fill:#000000; fill-opacity:1.0000; stroke:none;fill-rule:evenodd;"
d="M 84.0630,63.0000
82.5880,63.0000
82.5880,62.5500
84.0630,62.5500
Z" /> 
<path style="fill:#000000; fill-opacity:1.0000; stroke:none;fill-rule:evenodd;"
d="M 84.0630,62.3500
82.5880,62.3500
82.5880,61.9000
84.0630,61.9000
Z" /> 
<path style="fill:#000000; fill-opacity:1.0000; stroke:none;fill-rule:evenodd;"
d="M 84.0630,61.7000
82.5880,61.7000
82.5880,61.2500
84.0630,61.2500
Z" /> 
<path style="fill:#000000; fill-opacity:1.0000; stroke:none;fill-rule:evenodd;"
d="M 84.0630,61.0500
82.5880,61.0500
82.5880,60.6000
84.0630,60.6000
Z" /> 
<path style="fill:#000000; fill-opacity:1.0000; stroke:none;fill-rule:evenodd;"
d="M 84.0630,60.4000
82.5880,60.4000
82.5880,59.9500
84.0630,59.9500
Z" /> 
</g>
<g style="fill:#000000; fill-opacity:1.0000; stroke:none;">
<circle cx="35.5320" cy="97.5360" r="0.8000" /> 
</g>
<g style="fill:#000000; fill-opacity:1.0000; stroke:none;">
<circle cx="32.0320" cy="97.5360" r="0.8000" /> 
<path style="fill:#000000; fill-opacity:1.0000; stroke:none;fill-rule:evenodd;"
d="M 73.7250,53.0000
73.6485,52.9848
73.5836,52.9414
73.5402,52.8765
73.5250,52.8000
73.5250,52.4000
73.5402,52.3235
73.5836,52.2586
73.6485,52.2152
73.7250,52.2000
74.2750,52.2000
74.3515,52.2152
74.4164,52.2586
74.4598,52.3235
74.4750,52.4000
74.4750,52.8000
74.4598,52.8765
74.4164,52.9414
74.3515,52.9848
74.2750,53.0000
Z" /> 
<path style="fill:#000000; fill-opacity:1.0000; stroke:none;fill-rule:evenodd;"
d="M 73.7250,51.3500
73.6485,51.3348
73.5836,51.2914
73.5402,51.2265
73.5250,51.1500
73.5250,50.7500
73.5402,50.6735
73.5836,50.6086
73.6485,50.5652
73.7250,50.5500
74.2750,50.5500
74.3515,50.5652
74.4164,50.6086
74.4598,50.6735
74.4750,50.7500
74.4750,51.1500
74.4598,51.2265
74.4164,51.2914
74.3515,51.3348
74.2750,51.3500
Z" /> 
<path style="fill:#000000; fill-opacity:1.0000; stroke:none;fill-rule:evenodd;"
d="M 78.1995,74.1000
76.7245,74.1000
76.7245,73.6500
78.1995,73.6500
Z" /> 
<path style="fill:#000000; fill-opacity:1.0000; stroke:none;fill-rule:evenodd;"
d="M 78.1995,74.7500
76.7245,74.7500
76.7245,74.3000
78.1995,74.3000
Z" /> 
<path style="fill:#000000; fill-opacity:1.0000; stroke:none;fill-rule:evenodd;"
d="M 78.1995,75.4000
76.7245,75.4000
76.7245,74.9500
78.1995,74.9500
Z" /> 
<path style="fill:#000000; fill-opacity:1.0000; stroke:none;fill-rule:evenodd;"
d="M 78.1995,76.0500
76.7245,76.0500
76.7245,75.6000
78.1995,75.6000
Z" /> 
<path style="fill:#000000; fill-opacity:1.0000; stroke:none;fill-rule:evenodd;"
d="M 78.1995,76.7000
76.7245,76.7000
76.7245,76.2500
78.1995,76.2500
Z" /> 
<path style="fill:#000000; fill-opacity:1.0000; stroke:none;fill-rule:evenodd;"
d="M 78.1995,77.3500
76.7245,77.3500
76.7245,76.9000
78.1995,76.9000
Z" /> 
<path style="fill:#000000; fill-opacity:1.0000; stroke:none;fill-rule:evenodd;"
d="M 78.1995,78.0000
76.7245,78.0000
76.7245,77.5500
78.1995,77.5500
Z" /> 
<path style="fill:#000000; fill-opacity:1.0000; stroke:none;fill-rule:evenodd;"
d="M 78.1995,78.6500
76.7245,78.6500
76.7245,78.2000
78.1995,78.2000
Z" /> 
<path style="fill:#000000; fill-opacity:1.0000; stroke:none;fill-rule:evenodd;"
d="M 78.1995,79.3000
76.7245,79.3000
76.7245,78.8500
78.1995,78.8500
Z" /> 
<path style="fill:#000000; fill-opacity:1.0000; stroke:none;fill-rule:evenodd;"
d="M 78.1995,79.9500
76.7245,79.9500
76.7245,79.5000
78.1995,79.5000
Z" /> 
<path style="fill:#000000; fill-opacity:1.0000; stroke:none;fill-rule:evenodd;"
d="M 84.0755,79.9500
82.6005,79.9500
82.6005,79.5000
84.0755,79.5000
Z" /> 
<path style="fill:#000000; fill-opacity:1.0000; stroke:none;fill-rule:evenodd;"
d="M 84.0755,79.3000
82.6005,79.3000
82.6005,78.8500
84.0755,78.8500
Z" /> 
<path style="fill:#000000; fill-opacity:1.0000; stroke:none;fill-rule:evenodd;"
d="M 84.0755,78.6500
82.6005,78.6500
82.6005,78.2000
84.0755,78.2000
Z" /> 
<path style="fill:#000000; fill-opacity:1.0000; stroke:none;fill-rule:evenodd;"
d="M 84.0755,78.0000
82.6005,78.0000
82.6005,77.5500
84.0755,77.5500
Z" /> 
<path style="fill:#000000; fill-opacity:1.0000; stroke:none;fill-rule:evenodd;"
d="M 84.0755,77.3500
82.6005,77.3500
82.6005,76.9000
84.0755,76.9000
Z" /> 
<path style="fill:#000000; fill-opacity:1.0000; stroke:none;fill-rule:evenodd;"
d="M 84.0755,76.7000
82.6005,76.7000
82.6005,76.2500
84.0755,76.2500
Z" /> 
<path style="fill:#000000; fill-opacity:1.0000; stroke:none;fill-rule:evenodd;"
d="M 84.0755,76.0500
82.6005,76.0500
82.6005,75.6000
84.0755,75.6000
Z" /> 
<path style="fill:#000000; fill-opacity:1.0000; stroke:none;fill-rule:evenodd;"
d="M 84.0755,75.4000
82.6005,75.4000
82.6005,74.9500
84.0755,74.9500
Z" /> 
<path style="fill:#000000; fill-opacity:1.0000; stroke:none;fill-rule:evenodd;"
d="M 84.0755,74.7500
82.6005,74.7500
82.6005,74.3000
84.0755,74.3000
Z" /> 
<path style="fill:#000000; fill-opacity:1.0000; stroke:none;fill-rule:evenodd;"
d="M 84.0755,74.1000
82.6005,74.1000
82.6005,73.6500
84.0755,73.6500
Z" /> 
</g>
<g style="fill:#000000; fill-opacity:1.0000; stroke:none;">
<circle cx="121.5000" cy="77.2600" r="0.8001" /> 
</g>
<g style="fill:#000000; fill-opacity:1.0000; stroke:none;">
<circle cx="121.5000" cy="79.8000" r="0.8001" /> 
</g>
<g style="fill:#000000; fill-opacity:1.0000; stroke:none;">
<circle cx="121.5000" cy="82.3400" r="0.8001" /> 
</g>
<g style="fill:#000000; fill-opacity:1.0000; stroke:none;">
<circle cx="121.5000" cy="84.8800" r="0.8001" /> 
<path style="fill:#000000; fill-opacity:1.0000; stroke:none;fill-rule:evenodd;"
d="M 39.0500,45.6000
39.1361,45.6171
39.2091,45.6659
39.2579,45.7389
39.2750,45.8250
39.2750,46.2750
39.2579,46.3611
39.2091,46.4341
39.1361,46.4829
39.0500,46.5000
38.5500,46.5000
38.4639,46.4829
38.3909,46.4341
38.3421,46.3611
38.3250,46.2750
38.3250,45.8250
38.3421,45.7389
38.3909,45.6659
38.4639,45.6171
38.5500,45.6000
Z" /> 
<path style="fill:#000000; fill-opacity:1.0000; stroke:none;fill-rule:evenodd;"
d="M 39.0500,47.1500
39.1361,47.1671
39.2091,47.2159
39.2579,47.2889
39.2750,47.3750
39.2750,47.8250
39.2579,47.9111
39.2091,47.9841
39.1361,48.0329
39.0500,48.0500
38.5500,48.0500
38.4639,48.0329
38.3909,47.9841
38.3421,47.9111
38.3250,47.8250
38.3250,47.3750
38.3421,47.2889
38.3909,47.2159
38.4639,47.1671
38.5500,47.1500
Z" /> 
</g>
<g style="fill:#000000; fill-opacity:1.0000; stroke:none;">
<circle cx="83.1000" cy="48.6000" r="0.3000" /> 
</g>
<g style="fill:#000000; fill-opacity:1.0000; stroke:none;">
<circle cx="86.3000" cy="73.3000" r="0.3000" /> 
</g>
<g style="fill:#000000; fill-opacity:1.0000; stroke:none;">
<circle cx="87.5000" cy="59.4000" r="0.3000" /> 
</g>
<g style="fill:#000000; fill-opacity:1.0000; stroke:none;">
<circle cx="83.7000" cy="50.7000" r="0.3000" /> 
</g>
<g style="fill:#000000; fill-opacity:1.0000; stroke:none;">
<circle cx="73.0000" cy="59.8000" r="0.3000" /> 
</g>
<g style="fill:#000000; fill-opacity:1.0000; stroke:none;">
<circle cx="38.6000" cy="51.4000" r="0.3000" /> 
</g>
<g style="fill:#000000; fill-opacity:1.0000; stroke:none;">
<circle cx="85.2000" cy="67.8000" r="0.3000" /> 
</g>
<g style="fill:#000000; fill-opacity:1.0000; stroke:none;">
<circle cx="34.9000" cy="56.3000" r="0.3000" /> 
</g>
<g style="fill:#000000; fill-opacity:1.0000; stroke:none;">
<circle cx="89.3000" cy="60.7000" r="0.3000" /> 
</g>
<g style="fill:#000000; fill-opacity:1.0000; stroke:none;">
<circle cx="87.6000" cy="51.4000" r="0.3000" /> 
</g>
<g style="fill:#000000; fill-opacity:1.0000; stroke:none;">
<circle cx="76.9000" cy="51.1000" r="0.3000" /> 
</g>
<g style="fill:#000000; fill-opacity:1.0000; stroke:none;">
<circle cx="87.7000" cy="48.3000" r="0.3000" /> 
</g>
<g style="fill:#000000; fill-opacity:1.0000; stroke:none;">
<circle cx="83.4000" cy="82.0000" r="0.3000" /> 
</g>
<g style="fill:#000000; fill-opacity:1.0000; stroke:none;">
<circle cx="82.8000" cy="50.7000" r="0.3000" /> 
</g>
<g style="fill:#000000; fill-opacity:1.0000; stroke:none;">
<circle cx="72.3000" cy="73.8250" r="0.3000" /> 
</g>
<g style="fill:#000000; fill-opacity:1.0000; stroke:none;">
<circle cx="40.1000" cy="46.0500" r="0.3000" /> 
</g>
<g style="fill:#000000; fill-opacity:1.0000; stroke:none;">
<circle cx="87.7000" cy="49.9000" r="0.3000" /> 
</g>
<g style="fill:#000000; fill-opacity:1.0000; stroke:none;">
<circle cx="89.2000" cy="73.5000" r="0.3000" /> 
</g>
<g style="fill:#000000; fill-opacity:1.0000; stroke:none;">
<circle cx="38.6000" cy="50.1650" r="0.3000" /> 
</g>
<g style="fill:#000000; fill-opacity:1.0000; stroke:none;">
<circle cx="75.0000" cy="45.6000" r="0.3000" /> 
</g>
<g style="fill:#000000; fill-opacity:1.0000; stroke:none;">
<circle cx="72.8500" cy="50.8250" r="0.3000" /> 
</g>
<g style="fill:#000000; fill-opacity:1.0000; stroke:none;">
<circle cx="74.5500" cy="74.0250" r="0.3000" /> 
</g>
<g style="fill:#000000; fill-opacity:1.0000; stroke:none;">
<circle cx="74.5000" cy="59.6000" r="0.3000" /> 
</g>
<g style="fill:#000000; fill-opacity:1.0000; stroke:none;">
<circle cx="77.4000" cy="82.0000" r="0.3000" /> 
</g>
<g style="fill:#000000; fill-opacity:1.0000; stroke:none;">
<circle cx="72.7000" cy="47.8750" r="0.3000" /> 
</g>
<g style="fill:#000000; fill-opacity:1.0000; stroke:none;">
<circle cx="76.2000" cy="67.8000" r="0.3000" /> 
</g>
<g style="fill:#000000; fill-opacity:1.0000; stroke:none;">
<circle cx="40.1000" cy="47.6000" r="0.3000" /> 
</g>
<g style="fill:#000000; fill-opacity:1.0000; stroke:none;">
<circle cx="104.8000" cy="52.1000" r="0.3000" /> 
</g>
<g style="fill:#000000; fill-opacity:1.0000; stroke:none;">
<circle cx="110.6000" cy="50.2000" r="0.3000" /> 
</g>
<g style="fill:#000000; fill-opacity:1.0000; stroke:none;">
<circle cx="93.2000" cy="70.4605" r="0.3000" /> 
</g>
<g style="fill:#000000; fill-opacity:1.0000; stroke:none;">
<circle cx="89.4000" cy="66.4000" r="0.3000" /> 
</g>
<g style="fill:#000000; fill-opacity:1.0000; stroke:none;">
<circle cx="91.2000" cy="66.4000" r="0.3000" /> 
</g>
<g style="fill:#000000; fill-opacity:1.0000; stroke:none;">
<circle cx="74.0000" cy="81.4000" r="0.3000" /> 
</g>
<g style="fill:#000000; fill-opacity:1.0000; stroke:none;">
<circle cx="74.8000" cy="81.8000" r="0.3000" /> 
</g>
<g style="fill:none; 
stroke:#000000; stroke-width:0.2500; stroke-opacity:1; 
stroke-linecap:round; stroke-linejoin:round;">
<path d="M86.2500 74.6000
L86.2500 73.3500
" />
</g>
<g style="fill:none; 
stroke:#000000; stroke-width:0.5000; stroke-opacity:1; 
stroke-linecap:round; stroke-linejoin:round;">
<path d="M85.0250 49.9000
L84.5000 49.9000
" />
</g>
<g style="fill:none; 
stroke:#000000; stroke-width:0.2500; stroke-opacity:1; 
stroke-linecap:round; stroke-linejoin:round;">
<path d="M86.4000 60.5000
L87.5000 59.4000
" />
<path d="M83.4740 60.7260
L83.3750 60.8250
" />
<path d="M86.2500 74.6000
L83.4130 74.6000
" />
</g>
<g style="fill:none; 
stroke:#000000; stroke-width:0.5000; stroke-opacity:1; 
stroke-linecap:round; stroke-linejoin:round;">
<path d="M85.0250 48.3000
L83.4000 48.3000
" />
<path d="M83.4000 48.3000
L83.1000 48.6000
" />
</g>
<g style="fill:none; 
stroke:#000000; stroke-width:0.2500; stroke-opacity:1; 
stroke-linecap:round; stroke-linejoin:round;">
<path d="M83.4130 74.6000
L83.3380 74.5250
" />
<path d="M86.4000 60.8000
L86.4000 60.5000
" />
</g>
<g style="fill:none; 
stroke:#000000; stroke-width:0.5000; stroke-opacity:1; 
stroke-linecap:round; stroke-linejoin:round;">
<path d="M84.5000 49.9000
L83.7000 50.7000
" />
</g>
<g style="fill:none; 
stroke:#000000; stroke-width:0.2500; stroke-opacity:1; 
stroke-linecap:round; stroke-linejoin:round;">
<path d="M83.3750 60.8250
L83.2875 60.8250
" />
<path d="M81.6375 50.0500
L84.8750 50.0500
" />
<path d="M86.3750 60.8250
L86.4000 60.8000
" />
<path d="M81.6375 49.5500
L83.7750 49.5500
" />
<path d="M84.8750 50.0500
L85.0250 49.9000
" />
<path d="M83.7750 49.5500
L85.0250 48.3000
" />
<path d="M86.2500 73.3500
L86.3000 73.3000
" />
<path d="M83.3255 60.8250
L86.3750 60.8250
" />
</g>
<g style="fill:none; 
stroke:#000000; stroke-width:0.5000; stroke-opacity:1; 
stroke-linecap:round; stroke-linejoin:round;">
<path d="M38.8000 46.0500
L40.1000 46.0500
" />
</g>
<g style="fill:none; 
stroke:#000000; stroke-width:0.2500; stroke-opacity:1; 
stroke-linecap:round; stroke-linejoin:round;">
<path d="M86.5750 48.3000
L87.7000 48.3000
" />
<path d="M83.2875 66.0250
L85.0625 67.8000
" />
<path d="M83.3000 79.7250
L83.3000 81.9000
" />
<path d="M87.8000 74.6000
L88.1000 74.6000
" />
<path d="M82.6500 50.5500
L82.8000 50.7000
" />
<path d="M88.1000 74.6000
L89.2000 73.5000
" />
<path d="M78.7625 50.5500
L77.4500 50.5500
" />
</g>
<g style="fill:none; 
stroke:#000000; stroke-width:0.5000; stroke-opacity:1; 
stroke-linecap:round; stroke-linejoin:round;">
<path d="M38.5650 51.4350
L38.6000 51.4000
" />
</g>
<g style="fill:none; 
stroke:#000000; stroke-width:0.2500; stroke-opacity:1; 
stroke-linecap:round; stroke-linejoin:round;">
<path d="M83.3000 81.9000
L83.4000 82.0000
" />
<path d="M77.4500 50.5500
L76.9000 51.1000
" />
<path d="M89.2000 60.8000
L89.3000 60.7000
" />
<path d="M72.4000 73.9250
L72.4000 74.9500
" />
</g>
<g style="fill:none; 
stroke:#000000; stroke-width:0.5000; stroke-opacity:1; 
stroke-linecap:round; stroke-linejoin:round;">
<path d="M86.5500 51.4000
L87.6000 51.4000
" />
</g>
<g style="fill:none; 
stroke:#000000; stroke-width:0.2500; stroke-opacity:1; 
stroke-linecap:round; stroke-linejoin:round;">
<path d="M81.6375 50.5500
L82.6500 50.5500
" />
<path d="M72.4000 74.9500
L72.3500 75.0000
" />
<path d="M86.5750 49.9000
L87.7000 49.9000
" />
<path d="M73.0000 60.8000
L73.0000 59.8000
" />
<path d="M87.9500 60.8000
L89.2000 60.8000
" />
<path d="M81.6375 50.5500
L80.4500 50.5500
" />
<path d="M85.0625 67.8000
L85.2000 67.8000
" />
</g>
<g style="fill:none; 
stroke:#000000; stroke-width:0.5000; stroke-opacity:1; 
stroke-linecap:round; stroke-linejoin:round;">
<path d="M36.5110 51.4350
L38.5650 51.4350
" />
</g>
<g style="fill:none; 
stroke:#000000; stroke-width:0.2500; stroke-opacity:1; 
stroke-linecap:round; stroke-linejoin:round;">
<path d="M80.4500 50.5500
L80.2000 50.3000
" />
</g>
<g style="fill:none; 
stroke:#000000; stroke-width:0.5000; stroke-opacity:1; 
stroke-linecap:round; stroke-linejoin:round;">
<path d="M33.7250 56.3000
L34.9000 56.3000
" />
</g>
<g style="fill:none; 
stroke:#000000; stroke-width:0.2500; stroke-opacity:1; 
stroke-linecap:round; stroke-linejoin:round;">
<path d="M72.3000 73.8250
L72.4000 73.9250
" />
<path d="M77.1875 52.6250
L78.7625 51.0500
" />
<path d="M73.1910 51.8160
L74.0000 52.6250
" />
<path d="M68.3260 51.8160
L73.1910 51.8160
" />
<path d="M74.0000 52.6250
L77.1875 52.6250
" />
<path d="M95.8081 53.1000
L109.6706 39.2375
" />
<path d="M80.9500 51.7375
L82.3125 53.1000
" />
<path d="M109.6706 39.2375
L111.9606 39.2375
" />
<path d="M82.3125 53.1000
L95.8081 53.1000
" />
<path d="M80.4500 51.7375
L80.9500 51.7375
" />
<path d="M90.5750 39.2375
L105.0906 39.2375
" />
<path d="M105.0906 39.2375
L107.3806 39.2375
" />
<path d="M80.9500 48.8625
L90.5750 39.2375
" />
<path d="M80.4500 48.8625
L80.9500 48.8625
" />
<path d="M73.7260 49.2760
L73.9750 49.5250
" />
<path d="M73.9750 49.5250
L74.5000 50.0500
" />
<path d="M68.3260 49.2760
L73.7260 49.2760
" />
<path d="M74.5000 50.0500
L78.7625 50.0500
" />
<path d="M72.4000 63.0000
L75.2000 63.0000
" />
<path d="M70.8000 59.6000
L70.8000 61.4000
" />
<path d="M49.3100 58.2000
L69.4000 58.2000
" />
<path d="M76.0000 62.2000
L76.6893 62.2000
" />
<path d="M70.8000 61.4000
L72.4000 63.0000
" />
<path d="M75.2000 63.0000
L76.0000 62.2000
" />
<path d="M45.4660 54.3560
L49.3100 58.2000
" />
<path d="M76.7642 62.1250
L77.4875 62.1250
" />
<path d="M76.6893 62.2000
L76.7642 62.1250
" />
<path d="M69.4000 58.2000
L70.8000 59.6000
" />
<path d="M75.6250 75.1750
L77.5000 75.1750
" />
<path d="M74.8000 76.0000
L75.6250 75.1750
" />
<path d="M45.4660 77.2160
L46.6820 76.0000
" />
<path d="M46.6820 76.0000
L74.8000 76.0000
" />
<path d="M49.0700 73.2000
L76.8250 73.2000
" />
<path d="M45.4660 69.5960
L49.0700 73.2000
" />
<path d="M76.8250 73.2000
L77.5000 73.8750
" />
<path d="M70.8000 53.0000
L77.4157 59.6157
" />
<path d="M49.1900 53.0000
L70.8000 53.0000
" />
<path d="M45.4660 49.2760
L49.1900 53.0000
" />
<path d="M77.4157 59.6157
L77.4157 60.1750
" />
<path d="M114.2506 39.2375
L113.0130 38.0000
" />
<path d="M84.9005 58.6000
L94.8881 58.6000
" />
<path d="M83.3255 60.1750
L84.9005 58.6000
" />
<path d="M113.0130 38.0000
L105.2480 38.0000
" />
<path d="M105.2480 38.0000
L103.9456 36.6975
" />
<path d="M94.8881 58.6000
L114.2506 39.2375
" />
<path d="M71.4000 57.4000
L71.4000 61.0000
" />
<path d="M69.6000 55.6000
L71.4000 57.4000
" />
<path d="M49.2500 55.6000
L69.6000 55.6000
" />
<path d="M45.4660 51.8160
L49.2500 55.6000
" />
<path d="M71.4000 61.0000
L72.6000 62.2000
" />
<path d="M75.2000 62.2000
L75.9250 61.4750
" />
<path d="M75.9250 61.4750
L77.4875 61.4750
" />
<path d="M72.6000 62.2000
L75.2000 62.2000
" />
<path d="M77.4000 79.7870
L77.4620 79.7250
" />
</g>
<g style="fill:none; 
stroke:#000000; stroke-width:0.5000; stroke-opacity:1; 
stroke-linecap:round; stroke-linejoin:round;">
<path d="M72.7000 47.8750
L73.9750 47.8750
" />
</g>
<g style="fill:none; 
stroke:#000000; stroke-width:0.2500; stroke-opacity:1; 
stroke-linecap:round; stroke-linejoin:round;">
<path d="M74.5500 60.8000
L74.5500 59.6500
" />
<path d="M74.5500 74.0250
L75.1250 74.6000
" />
<path d="M77.4000 82.0000
L77.5000 81.9000
" />
<path d="M73.9000 75.0000
L73.9000 74.6750
" />
<path d="M74.9250 60.8250
L77.4157 60.8250
" />
</g>
<g style="fill:none; 
stroke:#000000; stroke-width:0.5000; stroke-opacity:1; 
stroke-linecap:round; stroke-linejoin:round;">
<path d="M36.5110 50.1650
L38.6000 50.1650
" />
</g>
<g style="fill:none; 
stroke:#000000; stroke-width:0.2500; stroke-opacity:1; 
stroke-linecap:round; stroke-linejoin:round;">
<path d="M74.9000 60.8000
L74.9250 60.8250
" />
<path d="M75.1250 74.6000
L77.4250 74.6000
" />
<path d="M74.5500 59.6500
L74.5000 59.6000
" />
</g>
<g style="fill:none; 
stroke:#000000; stroke-width:0.5000; stroke-opacity:1; 
stroke-linecap:round; stroke-linejoin:round;">
<path d="M75.4000 45.2000
L76.4500 45.2000
" />
<path d="M76.4500 45.2000
L76.6000 45.0500
" />
<path d="M73.0000 50.9750
L72.8500 50.8250
" />
</g>
<g style="fill:none; 
stroke:#000000; stroke-width:0.2500; stroke-opacity:1; 
stroke-linecap:round; stroke-linejoin:round;">
<path d="M76.2000 67.2745
L76.2000 67.8000
" />
<path d="M73.9000 74.6750
L74.5500 74.0250
" />
</g>
<g style="fill:none; 
stroke:#000000; stroke-width:0.5000; stroke-opacity:1; 
stroke-linecap:round; stroke-linejoin:round;">
<path d="M40.1000 47.6000
L38.8000 47.6000
" />
<path d="M74.0000 50.9750
L73.0000 50.9750
" />
</g>
<g style="fill:none; 
stroke:#000000; stroke-width:0.2500; stroke-opacity:1; 
stroke-linecap:round; stroke-linejoin:round;">
<path d="M77.4250 74.6000
L77.5000 74.5250
" />
</g>
<g style="fill:none; 
stroke:#000000; stroke-width:0.5000; stroke-opacity:1; 
stroke-linecap:round; stroke-linejoin:round;">
<path d="M75.0000 45.6000
L75.4000 45.2000
" />
</g>
<g style="fill:none; 
stroke:#000000; stroke-width:0.2500; stroke-opacity:1; 
stroke-linecap:round; stroke-linejoin:round;">
<path d="M77.4000 82.0000
L77.4000 79.7870
" />
<path d="M77.4495 66.0250
L76.2000 67.2745
" />
<path d="M95.2990 61.6010
L104.8000 52.1000
" />
<path d="M85.9405 61.6010
L95.2990 61.6010
" />
<path d="M83.3255 61.4750
L85.8145 61.4750
" />
<path d="M85.8145 61.4750
L85.9405 61.6010
" />
<path d="M106.2356 36.6975
L108.5256 36.6975
" />
<path d="M104.0657 63.4250
L111.8607 55.6300
" />
<path d="M83.3255 63.4250
L104.0657 63.4250
" />
<path d="M69.4000 60.8000
L72.4000 63.8000
" />
<path d="M45.4660 56.8960
L49.3700 60.8000
" />
<path d="M49.3700 60.8000
L69.4000 60.8000
" />
<path d="M72.4000 63.8000
L75.2000 63.8000
" />
<path d="M75.2000 63.8000
L76.2250 62.7750
" />
<path d="M76.2250 62.7750
L77.4875 62.7750
" />
<path d="M106.1857 64.0750
L111.8607 58.4000
" />
<path d="M83.3255 64.0750
L106.1857 64.0750
" />
<path d="M72.6000 76.8000
L74.8000 76.8000
" />
<path d="M75.7750 75.8250
L77.5000 75.8250
" />
<path d="M71.0000 78.4000
L72.6000 76.8000
" />
<path d="M46.8220 78.4000
L71.0000 78.4000
" />
<path d="M74.8000 76.8000
L75.7750 75.8250
" />
<path d="M45.4660 79.7560
L46.8220 78.4000
" />
<path d="M101.9457 62.7750
L111.8607 52.8600
" />
<path d="M83.3255 62.7750
L101.9457 62.7750
" />
<path d="M98.6750 62.1250
L110.6000 50.2000
" />
<path d="M110.8156 36.6975
L113.1056 36.6975
" />
<path d="M83.3255 62.1250
L98.6750 62.1250
" />
<path d="M117.5600 78.4000
L121.5000 82.3400
" />
<path d="M83.3380 77.1250
L84.3499 77.1250
" />
<path d="M84.3499 77.1250
L85.6249 78.4000
" />
<path d="M85.6249 78.4000
L117.5600 78.4000
" />
<path d="M84.4142 75.8520
L88.4463 75.8520
" />
<path d="M88.5983 75.7000
L119.9400 75.7000
" />
<path d="M84.3563 75.7942
L84.4142 75.8520
" />
<path d="M119.9400 75.7000
L121.5000 77.2600
" />
<path d="M88.4463 75.8520
L88.5983 75.7000
" />
<path d="M84.3255 75.8250
L84.3563 75.7942
" />
<path d="M83.3380 75.8250
L84.3255 75.8250
" />
<path d="M83.3380 76.4750
L84.3377 76.4750
" />
<path d="M84.3377 76.4750
L84.8627 77.0000
" />
<path d="M84.8627 77.0000
L118.7000 77.0000
" />
<path d="M118.7000 77.0000
L121.5000 79.8000
" />
<path d="M84.3750 75.1750
L84.6010 75.4010
" />
<path d="M83.3380 75.1750
L84.3750 75.1750
" />
<path d="M88.2595 75.4010
L93.2000 70.4605
" />
<path d="M84.6010 75.4010
L88.2595 75.4010
" />
<path d="M86.2871 79.7000
L116.3200 79.7000
" />
<path d="M84.3621 77.7750
L86.2871 79.7000
" />
<path d="M116.3200 79.7000
L121.5000 84.8800
" />
<path d="M83.3380 77.7750
L84.3621 77.7750
" />
<path d="M83.3255 64.7250
L108.3057 64.7250
" />
<path d="M108.3057 64.7250
L111.8607 61.1700
" />
<path d="M88.3750 65.3750
L89.4000 66.4000
" />
<path d="M83.3255 65.3750
L88.3750 65.3750
" />
<path d="M83.7250 73.8750
L91.2000 66.4000
" />
<path d="M83.3380 73.8750
L83.7250 73.8750
" />
<path d="M69.6520 82.6796
L69.6520 82.5480
" />
<path d="M69.6520 82.5480
L73.8000 78.4000
" />
<path d="M68.9780 83.2220
L69.1096 83.2220
" />
<path d="M73.8000 78.4000
L74.8000 78.4000
" />
<path d="M46.7020 83.6000
L68.6000 83.6000
" />
<path d="M68.6000 83.6000
L68.9780 83.2220
" />
<path d="M45.4660 84.8360
L46.7020 83.6000
" />
<path d="M76.0750 77.1250
L77.5000 77.1250
" />
<path d="M74.8000 78.4000
L76.0750 77.1250
" />
<path d="M69.1096 83.2220
L69.6520 82.6796
" />
<path d="M76.4628 65.3750
L77.4875 65.3750
" />
<path d="M71.4000 70.8000
L75.1358 67.0642
" />
<path d="M75.1358 66.7020
L76.4628 65.3750
" />
<path d="M45.4660 67.0560
L49.2100 70.8000
" />
<path d="M75.1358 67.0642
L75.1358 66.7020
" />
<path d="M49.2100 70.8000
L71.4000 70.8000
" />
<path d="M45.4660 64.5160
L49.3500 68.4000
" />
<path d="M49.3500 68.4000
L72.0000 68.4000
" />
<path d="M72.0000 68.4000
L74.1490 66.2510
" />
<path d="M74.9490 66.2510
L76.4750 64.7250
" />
<path d="M76.4750 64.7250
L77.4875 64.7250
" />
<path d="M74.1490 66.2510
L74.9490 66.2510
" />
<path d="M75.9250 76.4750
L77.5000 76.4750
" />
<path d="M46.7620 81.0000
L69.8000 81.0000
" />
<path d="M45.4660 82.2960
L46.7620 81.0000
" />
<path d="M73.2000 77.6000
L74.8000 77.6000
" />
<path d="M74.8000 77.6000
L75.9250 76.4750
" />
<path d="M69.8000 81.0000
L73.2000 77.6000
" />
<path d="M42.1000 58.2940
L42.1000 86.5510
" />
<path d="M36.5110 52.7050
L42.1000 58.2940
" />
<path d="M42.1000 86.5510
L45.4623 89.9133
" />
<path d="M44.1400 55.5490
L44.1400 86.0500
" />
<path d="M39.8950 48.8950
L41.3000 50.3000
" />
<path d="M36.5110 48.8950
L39.8950 48.8950
" />
<path d="M41.3000 50.3000
L41.3000 52.7090
" />
<path d="M41.3000 52.7090
L44.1400 55.5490
" />
<path d="M44.1400 86.0500
L45.4660 87.3760
" />
<path d="M31.5610 52.7050
L32.0750 53.2190
" />
<path d="M32.0750 53.2190
L32.0750 56.3000
" />
<path d="M29.8000 71.2000
L29.8090 71.2090
" />
<path d="M31.5610 50.1650
L30.5860 50.1650
" />
<path d="M29.8000 50.9510
L29.8000 71.2000
" />
<path d="M34.1547 76.8254
L34.7846 77.4553
" />
<path d="M35.8654 77.2654
L36.3650 77.7650
" />
<path d="M30.5860 50.1650
L29.8000 50.9510
" />
<path d="M35.6754 77.4553
L35.8654 77.2654
" />
<path d="M29.8090 71.5968
L34.1547 75.9425
" />
<path d="M36.3650 77.7650
L37.7700 77.7650
" />
<path d="M29.8090 71.2090
L29.8090 71.5968
" />
<path d="M34.7846 77.4553
L35.6754 77.4553
" />
<path d="M34.1547 75.9425
L34.1547 76.8254
" />
<path d="M30.2600 71.4100
L35.2300 76.3800
" />
<path d="M30.5860 51.4350
L30.2600 51.7610
" />
<path d="M31.5610 51.4350
L30.5860 51.4350
" />
<path d="M30.2600 51.7610
L30.2600 71.4100
" />
<path d="M77.5000 77.7750
L76.2250 77.7750
" />
<path d="M76.2250 77.7750
L75.1490 78.8510
" />
<path d="M75.1490 78.8510
L74.7490 78.8510
" />
<path d="M74.7490 78.8510
L74.0000 79.6000
" />
<path d="M74.0000 79.6000
L74.0000 81.4000
" />
<path d="M77.5000 78.4250
L76.3750 78.4250
" />
<path d="M74.8000 80.0000
L74.8000 81.8000
" />
<path d="M76.3750 78.4250
L74.8000 80.0000
" />
<path d="M74.7062 65.8000
L76.4312 64.0750
" />
<path d="M49.2900 65.8000
L74.7062 65.8000
" />
<path d="M76.4312 64.0750
L77.4875 64.0750
" />
<path d="M45.4660 61.9760
L49.2900 65.8000
" />
<path d="M76.7642 63.4250
L76.7582 63.4189
" />
<path d="M75.2000 64.6000
L70.8000 64.6000
" />
<path d="M76.3750 63.4250
L75.2000 64.6000
" />
<path d="M77.4495 63.4250
L76.3750 63.4250
" />
<path d="M49.2300 63.2000
L45.4660 59.4360
" />
<path d="M70.8000 64.6000
L69.4000 63.2000
" />
<path d="M77.4875 63.4250
L76.7642 63.4250
" />
<path d="M69.4000 63.2000
L49.2300 63.2000
" />
<path d="M84.9000 51.5000
L85.0000 51.4000
" />
<path d="M81.6375 51.0500
L82.0875 51.5000
" />
<path d="M82.0875 51.5000
L84.9000 51.5000
" />
<path d="M76.6000 46.7000
L76.6000 47.3875
" />
<path d="M76.6000 47.3875
L78.7625 49.5500
" />
<path d="M84.3255 78.4250
L88.9100 83.0095
" />
<path d="M88.9100 83.0095
L88.9100 88.4900
" />
<path d="M83.3380 78.4250
L84.3255 78.4250
" />
</g>
<g style="fill:none; 
stroke:#000000; stroke-width:1.5000; stroke-opacity:1; 
stroke-linecap:round; stroke-linejoin:round;">
<path d="M111.0825 82.7000
L119.1425 90.7600
" />
<path d="M102.3200 82.7000
L111.0825 82.7000
" />
<path d="M96.5300 88.4900
L102.3200 82.7000
" />
<path d="M96.5300 91.1475
L102.5775 85.1000
" />
<path d="M96.5300 96.1100
L96.5300 91.1475
" />
<path d="M102.5775 85.1000
L108.4025 85.1000
" />
<path d="M108.4025 85.1000
L119.1425 95.8400
" />
<path d="M106.6900 90.5075
L119.1425 102.9600
" />
<path d="M106.6900 88.4900
L106.6900 90.5075
" />
<path d="M119.1425 106.0225
L119.1425 108.0400
" />
<path d="M101.6100 88.4900
L119.1425 106.0225
" />
<path d="M101.6100 102.7075
L119.1425 120.2400
" />
<path d="M101.6100 96.1100
L101.6100 102.7075
" />
<path d="M106.6900 102.7075
L119.1425 115.1600
" />
<path d="M106.6900 96.1100
L106.6900 102.7075
" />
<path style="fill:#000000; fill-opacity:1.0000; stroke:none;fill-rule:evenodd;"
d="M 84.7028,47.8534
84.7072,47.8571
85.0211,48.2932
85.0231,48.3019
85.0211,48.3068
84.7072,48.7429
84.6996,48.7476
84.6939,48.7471
84.1329,48.5527
84.1262,48.5468
84.1250,48.5417
84.1250,48.0583
84.1284,48.0501
84.1329,48.0473
84.6939,47.8529
Z" /> 
<path style="fill:#000000; fill-opacity:1.0000; stroke:none;fill-rule:evenodd;"
d="M 86.9070,49.4551
86.9130,49.4585
87.4690,49.7716
87.4746,49.7787
87.4750,49.7818
87.4750,50.0182
87.4716,50.0264
87.4690,50.0284
86.9070,50.3449
86.8981,50.3459
86.8918,50.3415
86.6650,50.0264
86.5789,49.9068
86.5769,49.8981
86.5789,49.8932
86.6590,49.7818
86.8918,49.4585
86.8994,49.4538
Z" /> 
<path style="fill:#000000; fill-opacity:1.0000; stroke:none;fill-rule:evenodd;"
d="M 84.5856,48.1180
85.0208,48.2973
85.0271,48.3036
85.0274,48.3043
85.1829,48.7646
85.1823,48.7736
85.1763,48.7792
84.4083,49.0977
84.3993,49.0977
84.3955,49.0952
84.2299,48.9295
84.2265,48.9213
84.2275,48.9166
84.5704,48.1242
84.5769,48.1179
Z" /> 
<path style="fill:#000000; fill-opacity:1.0000; stroke:none;fill-rule:evenodd;"
d="M 73.6255,47.4932
73.6282,47.4954
73.7449,47.6227
73.9688,47.8671
73.9718,47.8755
73.9688,47.8829
73.6282,48.2546
73.6201,48.2584
73.6167,48.2580
73.1088,48.1273
73.1016,48.1219
73.1000,48.1159
73.1000,47.6341
73.1034,47.6258
73.1088,47.6227
73.6167,47.4920
Z" /> 
<path style="fill:#000000; fill-opacity:1.0000; stroke:none;fill-rule:evenodd;"
d="M 73.7019,49.1283
73.7037,49.1303
73.9691,49.5149
73.9709,49.5237
73.9661,49.5312
73.9656,49.5315
73.5291,49.8055
73.5202,49.8070
73.5146,49.8039
73.1132,49.4044
73.1097,49.3962
73.1097,49.1622
73.1132,49.1539
73.1209,49.1505
73.6935,49.1253
Z" /> 
<path style="fill:#000000; fill-opacity:1.0000; stroke:none;fill-rule:evenodd;"
d="M 85.9332,74.1585
86.2461,74.5932
86.2481,74.6019
86.2461,74.6068
85.9332,75.0415
85.9256,75.0462
85.9180,75.0449
85.3560,74.7284
85.3504,74.7213
85.3500,74.7182
85.3500,74.4818
85.3534,74.4736
85.3560,74.4716
85.9180,74.1551
85.9269,74.1541
Z" /> 
<path style="fill:#000000; fill-opacity:1.0000; stroke:none;fill-rule:evenodd;"
d="M 86.9070,47.8551
86.9130,47.8585
87.4690,48.1716
87.4746,48.1787
87.4750,48.1818
87.4750,48.4182
87.4716,48.4264
87.4690,48.4284
86.9070,48.7449
86.8981,48.7459
86.8918,48.7415
86.6650,48.4264
86.5789,48.3068
86.5769,48.2981
86.5789,48.2932
86.6590,48.1818
86.8918,47.8585
86.8994,47.8538
Z" /> 
<path style="fill:#000000; fill-opacity:1.0000; stroke:none;fill-rule:evenodd;"
d="M 86.0697,60.3675
86.3959,60.7933
86.3982,60.8019
86.3962,60.8070
86.0948,61.2493
86.0873,61.2542
86.0797,61.2530
86.0252,61.2246
86.0223,61.2225
86.0144,61.2145
86.0144,61.2145
85.9402,61.1717
85.9402,61.1717
85.9083,61.1631
85.9059,61.1622
85.5063,60.9533
85.5005,60.9464
85.5000,60.9429
85.5000,60.7066
85.5034,60.6983
85.5056,60.6966
86.0544,60.3646
86.0632,60.3633
Z" /> 
<path style="fill:#000000; fill-opacity:1.0000; stroke:none;fill-rule:evenodd;"
d="M 37.7756,49.9138
37.7834,49.9182
37.7860,49.9255
37.7860,50.4045
37.7826,50.4128
37.7756,50.4162
37.3387,50.4647
37.3334,50.4641
36.5403,50.1760
36.5337,50.1700
36.5333,50.1610
36.5393,50.1544
36.5403,50.1540
37.3334,49.8659
37.3387,49.8653
Z" /> 
<path style="fill:#000000; fill-opacity:1.0000; stroke:none;fill-rule:evenodd;"
d="M 30.5911,51.3050
31.5523,51.4330
31.5600,51.4375
31.5624,51.4438
31.5835,51.7224
31.5807,51.7309
31.5727,51.7350
31.5718,51.7350
30.4671,51.7355
30.4588,51.7321
30.2945,51.5677
30.2910,51.5595
30.2945,51.5512
30.2952,51.5505
30.5820,51.3077
30.5906,51.3050
Z" /> 
<path style="fill:#000000; fill-opacity:1.0000; stroke:none;fill-rule:evenodd;"
d="M 84.7082,51.0585
85.0211,51.4932
85.0231,51.5019
85.0211,51.5068
84.7082,51.9415
84.7006,51.9462
84.6930,51.9449
84.1310,51.6284
84.1254,51.6213
84.1250,51.6182
84.1250,51.3818
84.1284,51.3736
84.1310,51.3716
84.6930,51.0551
84.7019,51.0541
Z" /> 
<path style="fill:#000000; fill-opacity:1.0000; stroke:none;fill-rule:evenodd;"
d="M 86.8115,59.9251
86.9774,60.0910
86.9808,60.0992
86.9807,60.1011
86.8521,60.9151
86.8474,60.9227
86.8387,60.9248
86.8373,60.9245
86.4043,60.8021
86.3973,60.7966
86.3970,60.7961
86.3292,60.6596
86.1686,60.3366
86.1680,60.3277
86.1728,60.3216
86.7969,59.9235
86.8057,59.9219
Z" /> 
<path style="fill:#000000; fill-opacity:1.0000; stroke:none;fill-rule:evenodd;"
d="M 88.4828,74.0465
88.4838,74.0474
88.6499,74.2135
88.6533,74.2218
88.6515,74.2281
88.2553,74.8441
88.2479,74.8492
88.2397,74.8479
87.8041,74.6034
87.7986,74.5964
87.7983,74.5953
87.7172,74.1373
87.7192,74.1286
87.7267,74.1238
87.7275,74.1237
88.4742,74.0440
Z" /> 
<path style="fill:#000000; fill-opacity:1.0000; stroke:none;fill-rule:evenodd;"
d="M 84.6356,49.5174
85.0190,49.8931
85.0225,49.9014
85.0205,49.9081
84.7188,50.3507
84.7113,50.3556
84.7056,50.3553
84.1332,50.1776
84.1263,50.1718
84.1250,50.1664
84.1250,49.9305
84.1284,49.9222
84.1292,49.9215
84.6200,49.5167
84.6286,49.5141
Z" /> 
<path style="fill:#000000; fill-opacity:1.0000; stroke:none;fill-rule:evenodd;"
d="M 74.4489,49.3837
74.4541,49.3894
74.6819,49.9228
74.6829,49.9274
74.6829,50.1593
74.6794,50.1676
74.6712,50.1710
74.6678,50.1705
73.8536,49.9284
73.8466,49.9228
73.8457,49.9139
73.8458,49.9136
73.9721,49.5308
73.9779,49.5240
73.9798,49.5232
74.4400,49.3828
Z" /> 
<path style="fill:#000000; fill-opacity:1.0000; stroke:none;fill-rule:evenodd;"
d="M 84.5979,49.5762
85.0181,49.8935
85.0226,49.9013
85.0216,49.9079
84.8035,50.3677
84.7968,50.3737
84.7919,50.3743
84.4159,50.3423
84.4086,50.3389
84.0674,49.9977
84.0640,49.9894
84.0674,49.9812
84.0684,49.9803
84.5837,49.5763
84.5923,49.5739
Z" /> 
<path style="fill:#000000; fill-opacity:1.0000; stroke:none;fill-rule:evenodd;"
d="M 73.1262,59.8784
73.1283,59.8813
73.4283,60.4552
73.4291,60.4642
73.4252,60.4699
73.0072,60.7954
72.9986,60.7978
72.9928,60.7954
72.5748,60.4699
72.5704,60.4621
72.5716,60.4552
72.8717,59.8813
72.8786,59.8755
72.8821,59.8750
73.1179,59.8750
Z" /> 
<path style="fill:#000000; fill-opacity:1.0000; stroke:none;fill-rule:evenodd;"
d="M 86.3762,73.6784
86.3783,73.6813
86.6783,74.2552
86.6791,74.2642
86.6752,74.2699
86.2572,74.5954
86.2486,74.5978
86.2428,74.5954
85.8248,74.2699
85.8204,74.2621
85.8216,74.2552
86.1217,73.6813
86.1286,73.6755
86.1321,73.6750
86.3679,73.6750
Z" /> 
<path style="fill:#000000; fill-opacity:1.0000; stroke:none;fill-rule:evenodd;"
d="M 88.2820,60.3551
88.2880,60.3585
88.8440,60.6716
88.8496,60.6787
88.8500,60.6818
88.8500,60.9182
88.8466,60.9264
88.8440,60.9284
88.2820,61.2449
88.2731,61.2459
88.2668,61.2415
88.0400,60.9264
87.9539,60.8068
87.9519,60.7981
87.9539,60.7932
88.0340,60.6818
88.2668,60.3585
88.2744,60.3538
Z" /> 
<path style="fill:#000000; fill-opacity:1.0000; stroke:none;fill-rule:evenodd;"
d="M 74.6762,59.8784
74.6783,59.8813
74.9783,60.4552
74.9791,60.4642
74.9752,60.4699
74.5572,60.7954
74.5486,60.7978
74.5428,60.7954
74.1248,60.4699
74.1204,60.4621
74.1216,60.4552
74.4217,59.8813
74.4286,59.8755
74.4321,59.8750
74.6679,59.8750
Z" /> 
<path style="fill:#000000; fill-opacity:1.0000; stroke:none;fill-rule:evenodd;"
d="M 87.4654,51.1482
87.4729,51.1531
87.4750,51.1597
87.4750,51.6428
87.4716,51.6511
87.4686,51.6532
86.9653,51.9063
86.9563,51.9069
86.9515,51.9038
86.5794,51.5058
86.5763,51.4974
86.5774,51.4928
86.7961,51.0331
86.8028,51.0271
86.8088,51.0266
Z" /> 
<path style="fill:#000000; fill-opacity:1.0000; stroke:none;fill-rule:evenodd;"
d="M 30.5911,50.0350
31.5523,50.1630
31.5600,50.1675
31.5624,50.1738
31.5835,50.4524
31.5807,50.4609
31.5727,50.4650
31.5718,50.4650
30.4671,50.4655
30.4588,50.4621
30.2945,50.2977
30.2910,50.2895
30.2945,50.2812
30.2952,50.2805
30.5820,50.0377
30.5906,50.0350
Z" /> 
<path style="fill:#000000; fill-opacity:1.0000; stroke:none;fill-rule:evenodd;"
d="M 76.1842,44.7212
76.5970,45.0469
76.6014,45.0547
76.6014,45.0551
76.6339,45.4373
76.6312,45.4458
76.6233,45.4500
76.6223,45.4500
75.7367,45.4500
75.7284,45.4466
75.7250,45.4383
75.7250,44.9571
75.7284,44.9489
75.7313,44.9467
76.1715,44.7200
76.1805,44.7193
Z" /> 
<path style="fill:#000000; fill-opacity:1.0000; stroke:none;fill-rule:evenodd;"
d="M 74.8956,60.3646
75.4444,60.6966
75.4497,60.7038
75.4500,60.7066
75.4500,60.9429
75.4466,60.9512
75.4437,60.9533
74.8703,61.2530
74.8614,61.2538
74.8552,61.2493
74.5538,60.8070
74.5519,60.7982
74.5541,60.7933
74.6205,60.7066
74.8803,60.3675
74.8880,60.3630
Z" /> 
<path style="fill:#000000; fill-opacity:1.0000; stroke:none;fill-rule:evenodd;"
d="M 74.2865,74.1252
74.4525,74.2911
74.4559,74.2994
74.4559,74.3009
74.3517,75.1092
74.3473,75.1169
74.3386,75.1193
74.3371,75.1190
73.9043,75.0020
73.8972,74.9966
73.8969,74.9961
73.6602,74.5383
73.6594,74.5294
73.6641,74.5231
74.2718,74.1236
74.2806,74.1220
Z" /> 
<path style="fill:#000000; fill-opacity:1.0000; stroke:none;fill-rule:evenodd;"
d="M 72.5256,74.0784
72.5281,74.0820
72.7792,74.6556
72.7794,74.6645
72.7757,74.6695
72.3572,74.9954
72.3486,74.9978
72.3428,74.9954
71.9258,74.6696
71.9214,74.6618
71.9230,74.6543
72.1900,74.2149
72.2716,74.0806
72.2788,74.0753
72.2816,74.0750
72.5174,74.0750
Z" /> 
<path style="fill:#000000; fill-opacity:1.0000; stroke:none;fill-rule:evenodd;"
d="M 76.6077,46.7062
77.0078,47.0344
77.0121,47.0423
77.0098,47.0504
76.7685,47.3780
76.7673,47.3793
76.6008,47.5458
76.5925,47.5493
76.5842,47.5458
76.5831,47.5445
76.2425,47.0848
76.2403,47.0761
76.2434,47.0697
76.5918,46.7071
76.6000,46.7035
Z" /> 
</g> 
</svg>
