<?xml version="1.0" standalone="no"?>
 <!DOCTYPE svg PUBLIC "-//W3C//DTD SVG 1.1//EN" 
 "http://www.w3.org/Graphics/SVG/1.1/DTD/svg11.dtd"> 
<svg
  xmlns:svg="http://www.w3.org/2000/svg"
  xmlns="http://www.w3.org/2000/svg"
  xmlns:xlink="http://www.w3.org/1999/xlink"
  version="1.1"
  width="297.0022mm" height="210.0072mm" viewBox="0.0000 0.0000 297.0022 210.0072">
<title>SVG Image created as MotorControllerNode-F_Paste.svg date 2026/03/26 21:14:06 </title>
  <desc>Image generated by PCBNEW </desc>
<g style="fill:#000000; fill-opacity:1.0000;stroke:#000000; stroke-opacity:1.0000;
stroke-linecap:round; stroke-linejoin:round;"
 transform="translate(0 0) scale(1 1)">
<path style="fill:#000000; fill-opacity:1.0000; stroke:none;fill-rule:evenodd;"
d="M 88.2500,74.8500
88.2329,74.9361
88.1841,75.0091
88.1111,75.0579
88.0250,75.0750
87.5750,75.0750
87.4889,75.0579
87.4159,75.0091
87.3671,74.9361
87.3500,74.8500
87.3500,74.3500
87.3671,74.2639
87.4159,74.1909
87.4889,74.1421
87.5750,74.1250
88.0250,74.1250
88.1111,74.1421
88.1841,74.1909
88.2329,74.2639
88.2500,74.3500
Z" /> 
<path style="fill:#000000; fill-opacity:1.0000; stroke:none;fill-rule:evenodd;"
d="M 86.7000,74.8500
86.6829,74.9361
86.6341,75.0091
86.5611,75.0579
86.4750,75.0750
86.0250,75.0750
85.9389,75.0579
85.8659,75.0091
85.8171,74.9361
85.8000,74.8500
85.8000,74.3500
85.8171,74.2639
85.8659,74.1909
85.9389,74.1421
86.0250,74.1250
86.4750,74.1250
86.5611,74.1421
86.6341,74.1909
86.6829,74.2639
86.7000,74.3500
Z" /> 
<path style="fill:#000000; fill-opacity:1.0000; stroke:none;fill-rule:evenodd;"
d="M 34.1500,56.5750
34.1348,56.6515
34.0914,56.7164
34.0265,56.7598
33.9500,56.7750
33.5500,56.7750
33.4735,56.7598
33.4086,56.7164
33.3652,56.6515
33.3500,56.5750
33.3500,56.0250
33.3652,55.9485
33.4086,55.8836
33.4735,55.8402
33.5500,55.8250
33.9500,55.8250
34.0265,55.8402
34.0914,55.8836
34.1348,55.9485
34.1500,56.0250
Z" /> 
<path style="fill:#000000; fill-opacity:1.0000; stroke:none;fill-rule:evenodd;"
d="M 32.5000,56.5750
32.4848,56.6515
32.4414,56.7164
32.3765,56.7598
32.3000,56.7750
31.9000,56.7750
31.8235,56.7598
31.7586,56.7164
31.7152,56.6515
31.7000,56.5750
31.7000,56.0250
31.7152,55.9485
31.7586,55.8836
31.8235,55.8402
31.9000,55.8250
32.3000,55.8250
32.3765,55.8402
32.4414,55.8836
32.4848,55.9485
32.5000,56.0250
Z" /> 
<path style="fill:#000000; fill-opacity:1.0000; stroke:none;fill-rule:evenodd;"
d="M 84.5750,49.6500
84.5921,49.5639
84.6409,49.4909
84.7139,49.4421
84.8000,49.4250
85.2500,49.4250
85.3361,49.4421
85.4091,49.4909
85.4579,49.5639
85.4750,49.6500
85.4750,50.1500
85.4579,50.2361
85.4091,50.3091
85.3361,50.3579
85.2500,50.3750
84.8000,50.3750
84.7139,50.3579
84.6409,50.3091
84.5921,50.2361
84.5750,50.1500
Z" /> 
<path style="fill:#000000; fill-opacity:1.0000; stroke:none;fill-rule:evenodd;"
d="M 86.1250,49.6500
86.1421,49.5639
86.1909,49.4909
86.2639,49.4421
86.3500,49.4250
86.8000,49.4250
86.8861,49.4421
86.9591,49.4909
87.0079,49.5639
87.0250,49.6500
87.0250,50.1500
87.0079,50.2361
86.9591,50.3091
86.8861,50.3579
86.8000,50.3750
86.3500,50.3750
86.2639,50.3579
86.1909,50.3091
86.1421,50.2361
86.1250,50.1500
Z" /> 
<path style="fill:#000000; fill-opacity:1.0000; stroke:none;fill-rule:evenodd;"
d="M 84.5750,48.0500
84.5921,47.9639
84.6409,47.8909
84.7139,47.8421
84.8000,47.8250
85.2500,47.8250
85.3361,47.8421
85.4091,47.8909
85.4579,47.9639
85.4750,48.0500
85.4750,48.5500
85.4579,48.6361
85.4091,48.7091
85.3361,48.7579
85.2500,48.7750
84.8000,48.7750
84.7139,48.7579
84.6409,48.7091
84.5921,48.6361
84.5750,48.5500
Z" /> 
<path style="fill:#000000; fill-opacity:1.0000; stroke:none;fill-rule:evenodd;"
d="M 86.1250,48.0500
86.1421,47.9639
86.1909,47.8909
86.2639,47.8421
86.3500,47.8250
86.8000,47.8250
86.8861,47.8421
86.9591,47.8909
87.0079,47.9639
87.0250,48.0500
87.0250,48.5500
87.0079,48.6361
86.9591,48.7091
86.8861,48.7579
86.8000,48.7750
86.3500,48.7750
86.2639,48.7579
86.1909,48.7091
86.1421,48.6361
86.1250,48.5500
Z" /> 
<path style="fill:#000000; fill-opacity:1.0000; stroke:none;fill-rule:evenodd;"
d="M 75.0000,61.0500
74.9829,61.1361
74.9341,61.2091
74.8611,61.2579
74.7750,61.2750
74.3250,61.2750
74.2389,61.2579
74.1659,61.2091
74.1171,61.1361
74.1000,61.0500
74.1000,60.5500
74.1171,60.4639
74.1659,60.3909
74.2389,60.3421
74.3250,60.3250
74.7750,60.3250
74.8611,60.3421
74.9341,60.3909
74.9829,60.4639
75.0000,60.5500
Z" /> 
<path style="fill:#000000; fill-opacity:1.0000; stroke:none;fill-rule:evenodd;"
d="M 73.4500,61.0500
73.4329,61.1361
73.3841,61.2091
73.3111,61.2579
73.2250,61.2750
72.7750,61.2750
72.6889,61.2579
72.6159,61.2091
72.5671,61.1361
72.5500,61.0500
72.5500,60.5500
72.5671,60.4639
72.6159,60.3909
72.6889,60.3421
72.7750,60.3250
73.2250,60.3250
73.3111,60.3421
73.3841,60.3909
73.4329,60.4639
73.4500,60.5500
Z" /> 
<path style="fill:#000000; fill-opacity:1.0000; stroke:none;fill-rule:evenodd;"
d="M 80.4800,49.9400
80.5106,49.9461
80.5366,49.9634
80.5539,49.9894
80.5600,50.0200
80.5600,50.1800
80.5539,50.2106
80.5366,50.2366
80.5106,50.2539
80.4800,50.2600
80.3200,50.2600
80.2894,50.2539
80.2634,50.2366
80.2461,50.2106
80.2400,50.1800
80.2400,50.0200
80.2461,49.9894
80.2634,49.9634
80.2894,49.9461
80.3200,49.9400
Z" /> 
<path style="fill:#000000; fill-opacity:1.0000; stroke:none;fill-rule:evenodd;"
d="M 80.0800,49.9400
80.1106,49.9461
80.1366,49.9634
80.1539,49.9894
80.1600,50.0200
80.1600,50.1800
80.1539,50.2106
80.1366,50.2366
80.1106,50.2539
80.0800,50.2600
79.9200,50.2600
79.8894,50.2539
79.8634,50.2366
79.8461,50.2106
79.8400,50.1800
79.8400,50.0200
79.8461,49.9894
79.8634,49.9634
79.8894,49.9461
79.9200,49.9400
Z" /> 
<path style="fill:#000000; fill-opacity:1.0000; stroke:none;fill-rule:evenodd;"
d="M 80.4800,50.3400
80.5106,50.3461
80.5366,50.3634
80.5539,50.3894
80.5600,50.4200
80.5600,50.5800
80.5539,50.6106
80.5366,50.6366
80.5106,50.6539
80.4800,50.6600
80.3200,50.6600
80.2894,50.6539
80.2634,50.6366
80.2461,50.6106
80.2400,50.5800
80.2400,50.4200
80.2461,50.3894
80.2634,50.3634
80.2894,50.3461
80.3200,50.3400
Z" /> 
<path style="fill:#000000; fill-opacity:1.0000; stroke:none;fill-rule:evenodd;"
d="M 80.0800,50.3400
80.1106,50.3461
80.1366,50.3634
80.1539,50.3894
80.1600,50.4200
80.1600,50.5800
80.1539,50.6106
80.1366,50.6366
80.1106,50.6539
80.0800,50.6600
79.9200,50.6600
79.8894,50.6539
79.8634,50.6366
79.8461,50.6106
79.8400,50.5800
79.8400,50.4200
79.8461,50.3894
79.8634,50.3634
79.8894,50.3461
79.9200,50.3400
Z" /> 
<path style="fill:#000000; fill-opacity:1.0000; stroke:none;fill-rule:evenodd;"
d="M 81.0125,48.4250
81.0364,48.4298
81.0567,48.4433
81.0702,48.4636
81.0750,48.4875
81.0750,49.2375
81.0702,49.2614
81.0567,49.2817
81.0364,49.2952
81.0125,49.3000
80.8875,49.3000
80.8636,49.2952
80.8433,49.2817
80.8298,49.2614
80.8250,49.2375
80.8250,48.4875
80.8298,48.4636
80.8433,48.4433
80.8636,48.4298
80.8875,48.4250
Z" /> 
<path style="fill:#000000; fill-opacity:1.0000; stroke:none;fill-rule:evenodd;"
d="M 80.5125,48.4250
80.5364,48.4298
80.5567,48.4433
80.5702,48.4636
80.5750,48.4875
80.5750,49.2375
80.5702,49.2614
80.5567,49.2817
80.5364,49.2952
80.5125,49.3000
80.3875,49.3000
80.3636,49.2952
80.3433,49.2817
80.3298,49.2614
80.3250,49.2375
80.3250,48.4875
80.3298,48.4636
80.3433,48.4433
80.3636,48.4298
80.3875,48.4250
Z" /> 
<path style="fill:#000000; fill-opacity:1.0000; stroke:none;fill-rule:evenodd;"
d="M 80.0125,48.4250
80.0364,48.4298
80.0567,48.4433
80.0702,48.4636
80.0750,48.4875
80.0750,49.2375
80.0702,49.2614
80.0567,49.2817
80.0364,49.2952
80.0125,49.3000
79.8875,49.3000
79.8636,49.2952
79.8433,49.2817
79.8298,49.2614
79.8250,49.2375
79.8250,48.4875
79.8298,48.4636
79.8433,48.4433
79.8636,48.4298
79.8875,48.4250
Z" /> 
<path style="fill:#000000; fill-opacity:1.0000; stroke:none;fill-rule:evenodd;"
d="M 79.5125,48.4250
79.5364,48.4298
79.5567,48.4433
79.5702,48.4636
79.5750,48.4875
79.5750,49.2375
79.5702,49.2614
79.5567,49.2817
79.5364,49.2952
79.5125,49.3000
79.3875,49.3000
79.3636,49.2952
79.3433,49.2817
79.3298,49.2614
79.3250,49.2375
79.3250,48.4875
79.3298,48.4636
79.3433,48.4433
79.3636,48.4298
79.3875,48.4250
Z" /> 
<path style="fill:#000000; fill-opacity:1.0000; stroke:none;fill-rule:evenodd;"
d="M 79.1375,49.4250
79.1614,49.4298
79.1817,49.4433
79.1952,49.4636
79.2000,49.4875
79.2000,49.6125
79.1952,49.6364
79.1817,49.6567
79.1614,49.6702
79.1375,49.6750
78.3875,49.6750
78.3636,49.6702
78.3433,49.6567
78.3298,49.6364
78.3250,49.6125
78.3250,49.4875
78.3298,49.4636
78.3433,49.4433
78.3636,49.4298
78.3875,49.4250
Z" /> 
<path style="fill:#000000; fill-opacity:1.0000; stroke:none;fill-rule:evenodd;"
d="M 79.1375,49.9250
79.1614,49.9298
79.1817,49.9433
79.1952,49.9636
79.2000,49.9875
79.2000,50.1125
79.1952,50.1364
79.1817,50.1567
79.1614,50.1702
79.1375,50.1750
78.3875,50.1750
78.3636,50.1702
78.3433,50.1567
78.3298,50.1364
78.3250,50.1125
78.3250,49.9875
78.3298,49.9636
78.3433,49.9433
78.3636,49.9298
78.3875,49.9250
Z" /> 
<path style="fill:#000000; fill-opacity:1.0000; stroke:none;fill-rule:evenodd;"
d="M 79.1375,50.4250
79.1614,50.4298
79.1817,50.4433
79.1952,50.4636
79.2000,50.4875
79.2000,50.6125
79.1952,50.6364
79.1817,50.6567
79.1614,50.6702
79.1375,50.6750
78.3875,50.6750
78.3636,50.6702
78.3433,50.6567
78.3298,50.6364
78.3250,50.6125
78.3250,50.4875
78.3298,50.4636
78.3433,50.4433
78.3636,50.4298
78.3875,50.4250
Z" /> 
<path style="fill:#000000; fill-opacity:1.0000; stroke:none;fill-rule:evenodd;"
d="M 79.1375,50.9250
79.1614,50.9298
79.1817,50.9433
79.1952,50.9636
79.2000,50.9875
79.2000,51.1125
79.1952,51.1364
79.1817,51.1567
79.1614,51.1702
79.1375,51.1750
78.3875,51.1750
78.3636,51.1702
78.3433,51.1567
78.3298,51.1364
78.3250,51.1125
78.3250,50.9875
78.3298,50.9636
78.3433,50.9433
78.3636,50.9298
78.3875,50.9250
Z" /> 
<path style="fill:#000000; fill-opacity:1.0000; stroke:none;fill-rule:evenodd;"
d="M 79.5125,51.3000
79.5364,51.3048
79.5567,51.3183
79.5702,51.3386
79.5750,51.3625
79.5750,52.1125
79.5702,52.1364
79.5567,52.1567
79.5364,52.1702
79.5125,52.1750
79.3875,52.1750
79.3636,52.1702
79.3433,52.1567
79.3298,52.1364
79.3250,52.1125
79.3250,51.3625
79.3298,51.3386
79.3433,51.3183
79.3636,51.3048
79.3875,51.3000
Z" /> 
<path style="fill:#000000; fill-opacity:1.0000; stroke:none;fill-rule:evenodd;"
d="M 80.0125,51.3000
80.0364,51.3048
80.0567,51.3183
80.0702,51.3386
80.0750,51.3625
80.0750,52.1125
80.0702,52.1364
80.0567,52.1567
80.0364,52.1702
80.0125,52.1750
79.8875,52.1750
79.8636,52.1702
79.8433,52.1567
79.8298,52.1364
79.8250,52.1125
79.8250,51.3625
79.8298,51.3386
79.8433,51.3183
79.8636,51.3048
79.8875,51.3000
Z" /> 
<path style="fill:#000000; fill-opacity:1.0000; stroke:none;fill-rule:evenodd;"
d="M 80.5125,51.3000
80.5364,51.3048
80.5567,51.3183
80.5702,51.3386
80.5750,51.3625
80.5750,52.1125
80.5702,52.1364
80.5567,52.1567
80.5364,52.1702
80.5125,52.1750
80.3875,52.1750
80.3636,52.1702
80.3433,52.1567
80.3298,52.1364
80.3250,52.1125
80.3250,51.3625
80.3298,51.3386
80.3433,51.3183
80.3636,51.3048
80.3875,51.3000
Z" /> 
<path style="fill:#000000; fill-opacity:1.0000; stroke:none;fill-rule:evenodd;"
d="M 81.0125,51.3000
81.0364,51.3048
81.0567,51.3183
81.0702,51.3386
81.0750,51.3625
81.0750,52.1125
81.0702,52.1364
81.0567,52.1567
81.0364,52.1702
81.0125,52.1750
80.8875,52.1750
80.8636,52.1702
80.8433,52.1567
80.8298,52.1364
80.8250,52.1125
80.8250,51.3625
80.8298,51.3386
80.8433,51.3183
80.8636,51.3048
80.8875,51.3000
Z" /> 
<path style="fill:#000000; fill-opacity:1.0000; stroke:none;fill-rule:evenodd;"
d="M 82.0125,50.9250
82.0364,50.9298
82.0567,50.9433
82.0702,50.9636
82.0750,50.9875
82.0750,51.1125
82.0702,51.1364
82.0567,51.1567
82.0364,51.1702
82.0125,51.1750
81.2625,51.1750
81.2386,51.1702
81.2183,51.1567
81.2048,51.1364
81.2000,51.1125
81.2000,50.9875
81.2048,50.9636
81.2183,50.9433
81.2386,50.9298
81.2625,50.9250
Z" /> 
<path style="fill:#000000; fill-opacity:1.0000; stroke:none;fill-rule:evenodd;"
d="M 82.0125,50.4250
82.0364,50.4298
82.0567,50.4433
82.0702,50.4636
82.0750,50.4875
82.0750,50.6125
82.0702,50.6364
82.0567,50.6567
82.0364,50.6702
82.0125,50.6750
81.2625,50.6750
81.2386,50.6702
81.2183,50.6567
81.2048,50.6364
81.2000,50.6125
81.2000,50.4875
81.2048,50.4636
81.2183,50.4433
81.2386,50.4298
81.2625,50.4250
Z" /> 
<path style="fill:#000000; fill-opacity:1.0000; stroke:none;fill-rule:evenodd;"
d="M 82.0125,49.9250
82.0364,49.9298
82.0567,49.9433
82.0702,49.9636
82.0750,49.9875
82.0750,50.1125
82.0702,50.1364
82.0567,50.1567
82.0364,50.1702
82.0125,50.1750
81.2625,50.1750
81.2386,50.1702
81.2183,50.1567
81.2048,50.1364
81.2000,50.1125
81.2000,49.9875
81.2048,49.9636
81.2183,49.9433
81.2386,49.9298
81.2625,49.9250
Z" /> 
<path style="fill:#000000; fill-opacity:1.0000; stroke:none;fill-rule:evenodd;"
d="M 82.0125,49.4250
82.0364,49.4298
82.0567,49.4433
82.0702,49.4636
82.0750,49.4875
82.0750,49.6125
82.0702,49.6364
82.0567,49.6567
82.0364,49.6702
82.0125,49.6750
81.2625,49.6750
81.2386,49.6702
81.2183,49.6567
81.2048,49.6364
81.2000,49.6125
81.2000,49.4875
81.2048,49.4636
81.2183,49.4433
81.2386,49.4298
81.2625,49.4250
Z" /> 
<path style="fill:#000000; fill-opacity:1.0000; stroke:none;fill-rule:evenodd;"
d="M 88.4000,61.0500
88.3829,61.1361
88.3341,61.2091
88.2611,61.2579
88.1750,61.2750
87.7250,61.2750
87.6389,61.2579
87.5659,61.2091
87.5171,61.1361
87.5000,61.0500
87.5000,60.5500
87.5171,60.4639
87.5659,60.3909
87.6389,60.3421
87.7250,60.3250
88.1750,60.3250
88.2611,60.3421
88.3341,60.3909
88.3829,60.4639
88.4000,60.5500
Z" /> 
<path style="fill:#000000; fill-opacity:1.0000; stroke:none;fill-rule:evenodd;"
d="M 86.8500,61.0500
86.8329,61.1361
86.7841,61.2091
86.7111,61.2579
86.6250,61.2750
86.1750,61.2750
86.0889,61.2579
86.0159,61.2091
85.9671,61.1361
85.9500,61.0500
85.9500,60.5500
85.9671,60.4639
86.0159,60.3909
86.0889,60.3421
86.1750,60.3250
86.6250,60.3250
86.7111,60.3421
86.7841,60.3909
86.8329,60.4639
86.8500,60.5500
Z" /> 
<path style="fill:#000000; fill-opacity:1.0000; stroke:none;fill-rule:evenodd;"
d="M 73.7000,49.9250
73.6235,49.9098
73.5586,49.8664
73.5152,49.8015
73.5000,49.7250
73.5000,49.3250
73.5152,49.2485
73.5586,49.1836
73.6235,49.1402
73.7000,49.1250
74.2500,49.1250
74.3265,49.1402
74.3914,49.1836
74.4348,49.2485
74.4500,49.3250
74.4500,49.7250
74.4348,49.8015
74.3914,49.8664
74.3265,49.9098
74.2500,49.9250
Z" /> 
<path style="fill:#000000; fill-opacity:1.0000; stroke:none;fill-rule:evenodd;"
d="M 73.7000,48.2750
73.6235,48.2598
73.5586,48.2164
73.5152,48.1515
73.5000,48.0750
73.5000,47.6750
73.5152,47.5985
73.5586,47.5336
73.6235,47.4902
73.7000,47.4750
74.2500,47.4750
74.3265,47.4902
74.3914,47.5336
74.4348,47.5985
74.4500,47.6750
74.4500,48.0750
74.4348,48.1515
74.3914,48.2164
74.3265,48.2598
74.2500,48.2750
Z" /> 
<path style="fill:#000000; fill-opacity:1.0000; stroke:none;fill-rule:evenodd;"
d="M 37.4860,52.8550
37.4746,52.9124
37.4421,52.9611
37.3934,52.9936
37.3360,53.0050
35.6860,53.0050
35.6286,52.9936
35.5799,52.9611
35.5474,52.9124
35.5360,52.8550
35.5360,52.5550
35.5474,52.4976
35.5799,52.4489
35.6286,52.4164
35.6860,52.4050
37.3360,52.4050
37.3934,52.4164
37.4421,52.4489
37.4746,52.4976
37.4860,52.5550
Z" /> 
<path style="fill:#000000; fill-opacity:1.0000; stroke:none;fill-rule:evenodd;"
d="M 37.4860,51.5850
37.4746,51.6424
37.4421,51.6911
37.3934,51.7236
37.3360,51.7350
35.6860,51.7350
35.6286,51.7236
35.5799,51.6911
35.5474,51.6424
35.5360,51.5850
35.5360,51.2850
35.5474,51.2276
35.5799,51.1789
35.6286,51.1464
35.6860,51.1350
37.3360,51.1350
37.3934,51.1464
37.4421,51.1789
37.4746,51.2276
37.4860,51.2850
Z" /> 
<path style="fill:#000000; fill-opacity:1.0000; stroke:none;fill-rule:evenodd;"
d="M 37.4860,50.3150
37.4746,50.3724
37.4421,50.4211
37.3934,50.4536
37.3360,50.4650
35.6860,50.4650
35.6286,50.4536
35.5799,50.4211
35.5474,50.3724
35.5360,50.3150
35.5360,50.0150
35.5474,49.9576
35.5799,49.9089
35.6286,49.8764
35.6860,49.8650
37.3360,49.8650
37.3934,49.8764
37.4421,49.9089
37.4746,49.9576
37.4860,50.0150
Z" /> 
<path style="fill:#000000; fill-opacity:1.0000; stroke:none;fill-rule:evenodd;"
d="M 37.4860,49.0450
37.4746,49.1024
37.4421,49.1511
37.3934,49.1836
37.3360,49.1950
35.6860,49.1950
35.6286,49.1836
35.5799,49.1511
35.5474,49.1024
35.5360,49.0450
35.5360,48.7450
35.5474,48.6876
35.5799,48.6389
35.6286,48.6064
35.6860,48.5950
37.3360,48.5950
37.3934,48.6064
37.4421,48.6389
37.4746,48.6876
37.4860,48.7450
Z" /> 
<path style="fill:#000000; fill-opacity:1.0000; stroke:none;fill-rule:evenodd;"
d="M 32.5360,49.0450
32.5246,49.1024
32.4921,49.1511
32.4434,49.1836
32.3860,49.1950
30.7360,49.1950
30.6786,49.1836
30.6299,49.1511
30.5974,49.1024
30.5860,49.0450
30.5860,48.7450
30.5974,48.6876
30.6299,48.6389
30.6786,48.6064
30.7360,48.5950
32.3860,48.5950
32.4434,48.6064
32.4921,48.6389
32.5246,48.6876
32.5360,48.7450
Z" /> 
<path style="fill:#000000; fill-opacity:1.0000; stroke:none;fill-rule:evenodd;"
d="M 32.5360,50.3150
32.5246,50.3724
32.4921,50.4211
32.4434,50.4536
32.3860,50.4650
30.7360,50.4650
30.6786,50.4536
30.6299,50.4211
30.5974,50.3724
30.5860,50.3150
30.5860,50.0150
30.5974,49.9576
30.6299,49.9089
30.6786,49.8764
30.7360,49.8650
32.3860,49.8650
32.4434,49.8764
32.4921,49.9089
32.5246,49.9576
32.5360,50.0150
Z" /> 
<path style="fill:#000000; fill-opacity:1.0000; stroke:none;fill-rule:evenodd;"
d="M 32.5360,51.5850
32.5246,51.6424
32.4921,51.6911
32.4434,51.7236
32.3860,51.7350
30.7360,51.7350
30.6786,51.7236
30.6299,51.6911
30.5974,51.6424
30.5860,51.5850
30.5860,51.2850
30.5974,51.2276
30.6299,51.1789
30.6786,51.1464
30.7360,51.1350
32.3860,51.1350
32.4434,51.1464
32.4921,51.1789
32.5246,51.2276
32.5360,51.2850
Z" /> 
<path style="fill:#000000; fill-opacity:1.0000; stroke:none;fill-rule:evenodd;"
d="M 32.5360,52.8550
32.5246,52.9124
32.4921,52.9611
32.4434,52.9936
32.3860,53.0050
30.7360,53.0050
30.6786,52.9936
30.6299,52.9611
30.5974,52.9124
30.5860,52.8550
30.5860,52.5550
30.5974,52.4976
30.6299,52.4489
30.6786,52.4164
30.7360,52.4050
32.3860,52.4050
32.4434,52.4164
32.4921,52.4489
32.5246,52.4976
32.5360,52.5550
Z" /> 
<path style="fill:#000000; fill-opacity:1.0000; stroke:none;fill-rule:evenodd;"
d="M 87.0250,51.7500
87.0079,51.8361
86.9591,51.9091
86.8861,51.9579
86.8000,51.9750
86.3500,51.9750
86.2639,51.9579
86.1909,51.9091
86.1421,51.8361
86.1250,51.7500
86.1250,51.2500
86.1421,51.1639
86.1909,51.0909
86.2639,51.0421
86.3500,51.0250
86.8000,51.0250
86.8861,51.0421
86.9591,51.0909
87.0079,51.1639
87.0250,51.2500
Z" /> 
<path style="fill:#000000; fill-opacity:1.0000; stroke:none;fill-rule:evenodd;"
d="M 85.4750,51.7500
85.4579,51.8361
85.4091,51.9091
85.3361,51.9579
85.2500,51.9750
84.8000,51.9750
84.7139,51.9579
84.6409,51.9091
84.5921,51.8361
84.5750,51.7500
84.5750,51.2500
84.5921,51.1639
84.6409,51.0909
84.7139,51.0421
84.8000,51.0250
85.2500,51.0250
85.3361,51.0421
85.4091,51.0909
85.4579,51.1639
85.4750,51.2500
Z" /> 
<path style="fill:#000000; fill-opacity:1.0000; stroke:none;fill-rule:evenodd;"
d="M 74.3500,75.2500
74.3329,75.3361
74.2841,75.4091
74.2111,75.4579
74.1250,75.4750
73.6750,75.4750
73.5889,75.4579
73.5159,75.4091
73.4671,75.3361
73.4500,75.2500
73.4500,74.7500
73.4671,74.6639
73.5159,74.5909
73.5889,74.5421
73.6750,74.5250
74.1250,74.5250
74.2111,74.5421
74.2841,74.5909
74.3329,74.6639
74.3500,74.7500
Z" /> 
<path style="fill:#000000; fill-opacity:1.0000; stroke:none;fill-rule:evenodd;"
d="M 72.8000,75.2500
72.7829,75.3361
72.7341,75.4091
72.6611,75.4579
72.5750,75.4750
72.1250,75.4750
72.0389,75.4579
71.9659,75.4091
71.9171,75.3361
71.9000,75.2500
71.9000,74.7500
71.9171,74.6639
71.9659,74.5909
72.0389,74.5421
72.1250,74.5250
72.5750,74.5250
72.6611,74.5421
72.7341,74.5909
72.7829,74.6639
72.8000,74.7500
Z" /> 
<path style="fill:#000000; fill-opacity:1.0000; stroke:none;fill-rule:evenodd;"
d="M 76.3250,47.1000
76.2485,47.0848
76.1836,47.0414
76.1402,46.9765
76.1250,46.9000
76.1250,46.5000
76.1402,46.4235
76.1836,46.3586
76.2485,46.3152
76.3250,46.3000
76.8750,46.3000
76.9515,46.3152
77.0164,46.3586
77.0598,46.4235
77.0750,46.5000
77.0750,46.9000
77.0598,46.9765
77.0164,47.0414
76.9515,47.0848
76.8750,47.1000
Z" /> 
<path style="fill:#000000; fill-opacity:1.0000; stroke:none;fill-rule:evenodd;"
d="M 76.3250,45.4500
76.2485,45.4348
76.1836,45.3914
76.1402,45.3265
76.1250,45.2500
76.1250,44.8500
76.1402,44.7735
76.1836,44.7086
76.2485,44.6652
76.3250,44.6500
76.8750,44.6500
76.9515,44.6652
77.0164,44.7086
77.0598,44.7735
77.0750,44.8500
77.0750,45.2500
77.0598,45.3265
77.0164,45.3914
76.9515,45.4348
76.8750,45.4500
Z" /> 
<path style="fill:#000000; fill-opacity:1.0000; stroke:none;fill-rule:evenodd;"
d="M 78.1870,60.4000
76.7120,60.4000
76.7120,59.9500
78.1870,59.9500
Z" /> 
<path style="fill:#000000; fill-opacity:1.0000; stroke:none;fill-rule:evenodd;"
d="M 78.1870,61.0500
76.7120,61.0500
76.7120,60.6000
78.1870,60.6000
Z" /> 
<path style="fill:#000000; fill-opacity:1.0000; stroke:none;fill-rule:evenodd;"
d="M 78.1870,61.7000
76.7120,61.7000
76.7120,61.2500
78.1870,61.2500
Z" /> 
<path style="fill:#000000; fill-opacity:1.0000; stroke:none;fill-rule:evenodd;"
d="M 78.1870,62.3500
76.7120,62.3500
76.7120,61.9000
78.1870,61.9000
Z" /> 
<path style="fill:#000000; fill-opacity:1.0000; stroke:none;fill-rule:evenodd;"
d="M 78.1870,63.0000
76.7120,63.0000
76.7120,62.5500
78.1870,62.5500
Z" /> 
<path style="fill:#000000; fill-opacity:1.0000; stroke:none;fill-rule:evenodd;"
d="M 78.1870,63.6500
76.7120,63.6500
76.7120,63.2000
78.1870,63.2000
Z" /> 
<path style="fill:#000000; fill-opacity:1.0000; stroke:none;fill-rule:evenodd;"
d="M 78.1870,64.3000
76.7120,64.3000
76.7120,63.8500
78.1870,63.8500
Z" /> 
<path style="fill:#000000; fill-opacity:1.0000; stroke:none;fill-rule:evenodd;"
d="M 78.1870,64.9500
76.7120,64.9500
76.7120,64.5000
78.1870,64.5000
Z" /> 
<path style="fill:#000000; fill-opacity:1.0000; stroke:none;fill-rule:evenodd;"
d="M 78.1870,65.6000
76.7120,65.6000
76.7120,65.1500
78.1870,65.1500
Z" /> 
<path style="fill:#000000; fill-opacity:1.0000; stroke:none;fill-rule:evenodd;"
d="M 78.1870,66.2500
76.7120,66.2500
76.7120,65.8000
78.1870,65.8000
Z" /> 
<path style="fill:#000000; fill-opacity:1.0000; stroke:none;fill-rule:evenodd;"
d="M 84.0630,66.2500
82.5880,66.2500
82.5880,65.8000
84.0630,65.8000
Z" /> 
<path style="fill:#000000; fill-opacity:1.0000; stroke:none;fill-rule:evenodd;"
d="M 84.0630,65.6000
82.5880,65.6000
82.5880,65.1500
84.0630,65.1500
Z" /> 
<path style="fill:#000000; fill-opacity:1.0000; stroke:none;fill-rule:evenodd;"
d="M 84.0630,64.9500
82.5880,64.9500
82.5880,64.5000
84.0630,64.5000
Z" /> 
<path style="fill:#000000; fill-opacity:1.0000; stroke:none;fill-rule:evenodd;"
d="M 84.0630,64.3000
82.5880,64.3000
82.5880,63.8500
84.0630,63.8500
Z" /> 
<path style="fill:#000000; fill-opacity:1.0000; stroke:none;fill-rule:evenodd;"
d="M 84.0630,63.6500
82.5880,63.6500
82.5880,63.2000
84.0630,63.2000
Z" /> 
<path style="fill:#000000; fill-opacity:1.0000; stroke:none;fill-rule:evenodd;"
d="M 84.0630,63.0000
82.5880,63.0000
82.5880,62.5500
84.0630,62.5500
Z" /> 
<path style="fill:#000000; fill-opacity:1.0000; stroke:none;fill-rule:evenodd;"
d="M 84.0630,62.3500
82.5880,62.3500
82.5880,61.9000
84.0630,61.9000
Z" /> 
<path style="fill:#000000; fill-opacity:1.0000; stroke:none;fill-rule:evenodd;"
d="M 84.0630,61.7000
82.5880,61.7000
82.5880,61.2500
84.0630,61.2500
Z" /> 
<path style="fill:#000000; fill-opacity:1.0000; stroke:none;fill-rule:evenodd;"
d="M 84.0630,61.0500
82.5880,61.0500
82.5880,60.6000
84.0630,60.6000
Z" /> 
<path style="fill:#000000; fill-opacity:1.0000; stroke:none;fill-rule:evenodd;"
d="M 84.0630,60.4000
82.5880,60.4000
82.5880,59.9500
84.0630,59.9500
Z" /> 
<path style="fill:#000000; fill-opacity:1.0000; stroke:none;fill-rule:evenodd;"
d="M 73.7250,53.0000
73.6485,52.9848
73.5836,52.9414
73.5402,52.8765
73.5250,52.8000
73.5250,52.4000
73.5402,52.3235
73.5836,52.2586
73.6485,52.2152
73.7250,52.2000
74.2750,52.2000
74.3515,52.2152
74.4164,52.2586
74.4598,52.3235
74.4750,52.4000
74.4750,52.8000
74.4598,52.8765
74.4164,52.9414
74.3515,52.9848
74.2750,53.0000
Z" /> 
<path style="fill:#000000; fill-opacity:1.0000; stroke:none;fill-rule:evenodd;"
d="M 73.7250,51.3500
73.6485,51.3348
73.5836,51.2914
73.5402,51.2265
73.5250,51.1500
73.5250,50.7500
73.5402,50.6735
73.5836,50.6086
73.6485,50.5652
73.7250,50.5500
74.2750,50.5500
74.3515,50.5652
74.4164,50.6086
74.4598,50.6735
74.4750,50.7500
74.4750,51.1500
74.4598,51.2265
74.4164,51.2914
74.3515,51.3348
74.2750,51.3500
Z" /> 
<path style="fill:#000000; fill-opacity:1.0000; stroke:none;fill-rule:evenodd;"
d="M 78.1995,74.1000
76.7245,74.1000
76.7245,73.6500
78.1995,73.6500
Z" /> 
<path style="fill:#000000; fill-opacity:1.0000; stroke:none;fill-rule:evenodd;"
d="M 78.1995,74.7500
76.7245,74.7500
76.7245,74.3000
78.1995,74.3000
Z" /> 
<path style="fill:#000000; fill-opacity:1.0000; stroke:none;fill-rule:evenodd;"
d="M 78.1995,75.4000
76.7245,75.4000
76.7245,74.9500
78.1995,74.9500
Z" /> 
<path style="fill:#000000; fill-opacity:1.0000; stroke:none;fill-rule:evenodd;"
d="M 78.1995,76.0500
76.7245,76.0500
76.7245,75.6000
78.1995,75.6000
Z" /> 
<path style="fill:#000000; fill-opacity:1.0000; stroke:none;fill-rule:evenodd;"
d="M 78.1995,76.7000
76.7245,76.7000
76.7245,76.2500
78.1995,76.2500
Z" /> 
<path style="fill:#000000; fill-opacity:1.0000; stroke:none;fill-rule:evenodd;"
d="M 78.1995,77.3500
76.7245,77.3500
76.7245,76.9000
78.1995,76.9000
Z" /> 
<path style="fill:#000000; fill-opacity:1.0000; stroke:none;fill-rule:evenodd;"
d="M 78.1995,78.0000
76.7245,78.0000
76.7245,77.5500
78.1995,77.5500
Z" /> 
<path style="fill:#000000; fill-opacity:1.0000; stroke:none;fill-rule:evenodd;"
d="M 78.1995,78.6500
76.7245,78.6500
76.7245,78.2000
78.1995,78.2000
Z" /> 
<path style="fill:#000000; fill-opacity:1.0000; stroke:none;fill-rule:evenodd;"
d="M 78.1995,79.3000
76.7245,79.3000
76.7245,78.8500
78.1995,78.8500
Z" /> 
<path style="fill:#000000; fill-opacity:1.0000; stroke:none;fill-rule:evenodd;"
d="M 78.1995,79.9500
76.7245,79.9500
76.7245,79.5000
78.1995,79.5000
Z" /> 
<path style="fill:#000000; fill-opacity:1.0000; stroke:none;fill-rule:evenodd;"
d="M 84.0755,79.9500
82.6005,79.9500
82.6005,79.5000
84.0755,79.5000
Z" /> 
<path style="fill:#000000; fill-opacity:1.0000; stroke:none;fill-rule:evenodd;"
d="M 84.0755,79.3000
82.6005,79.3000
82.6005,78.8500
84.0755,78.8500
Z" /> 
<path style="fill:#000000; fill-opacity:1.0000; stroke:none;fill-rule:evenodd;"
d="M 84.0755,78.6500
82.6005,78.6500
82.6005,78.2000
84.0755,78.2000
Z" /> 
<path style="fill:#000000; fill-opacity:1.0000; stroke:none;fill-rule:evenodd;"
d="M 84.0755,78.0000
82.6005,78.0000
82.6005,77.5500
84.0755,77.5500
Z" /> 
<path style="fill:#000000; fill-opacity:1.0000; stroke:none;fill-rule:evenodd;"
d="M 84.0755,77.3500
82.6005,77.3500
82.6005,76.9000
84.0755,76.9000
Z" /> 
<path style="fill:#000000; fill-opacity:1.0000; stroke:none;fill-rule:evenodd;"
d="M 84.0755,76.7000
82.6005,76.7000
82.6005,76.2500
84.0755,76.2500
Z" /> 
<path style="fill:#000000; fill-opacity:1.0000; stroke:none;fill-rule:evenodd;"
d="M 84.0755,76.0500
82.6005,76.0500
82.6005,75.6000
84.0755,75.6000
Z" /> 
<path style="fill:#000000; fill-opacity:1.0000; stroke:none;fill-rule:evenodd;"
d="M 84.0755,75.4000
82.6005,75.4000
82.6005,74.9500
84.0755,74.9500
Z" /> 
<path style="fill:#000000; fill-opacity:1.0000; stroke:none;fill-rule:evenodd;"
d="M 84.0755,74.7500
82.6005,74.7500
82.6005,74.3000
84.0755,74.3000
Z" /> 
<path style="fill:#000000; fill-opacity:1.0000; stroke:none;fill-rule:evenodd;"
d="M 84.0755,74.1000
82.6005,74.1000
82.6005,73.6500
84.0755,73.6500
Z" /> 
<path style="fill:#000000; fill-opacity:1.0000; stroke:none;fill-rule:evenodd;"
d="M 39.0500,45.6000
39.1361,45.6171
39.2091,45.6659
39.2579,45.7389
39.2750,45.8250
39.2750,46.2750
39.2579,46.3611
39.2091,46.4341
39.1361,46.4829
39.0500,46.5000
38.5500,46.5000
38.4639,46.4829
38.3909,46.4341
38.3421,46.3611
38.3250,46.2750
38.3250,45.8250
38.3421,45.7389
38.3909,45.6659
38.4639,45.6171
38.5500,45.6000
Z" /> 
<path style="fill:#000000; fill-opacity:1.0000; stroke:none;fill-rule:evenodd;"
d="M 39.0500,47.1500
39.1361,47.1671
39.2091,47.2159
39.2579,47.2889
39.2750,47.3750
39.2750,47.8250
39.2579,47.9111
39.2091,47.9841
39.1361,48.0329
39.0500,48.0500
38.5500,48.0500
38.4639,48.0329
38.3909,47.9841
38.3421,47.9111
38.3250,47.8250
38.3250,47.3750
38.3421,47.2889
38.3909,47.2159
38.4639,47.1671
38.5500,47.1500
Z" /> 
</g> 
</svg>
