<?xml version="1.0" standalone="no"?>
 <!DOCTYPE svg PUBLIC "-//W3C//DTD SVG 1.1//EN" 
 "http://www.w3.org/Graphics/SVG/1.1/DTD/svg11.dtd"> 
<svg
  xmlns:svg="http://www.w3.org/2000/svg"
  xmlns="http://www.w3.org/2000/svg"
  xmlns:xlink="http://www.w3.org/1999/xlink"
  version="1.1"
  width="297.0022mm" height="210.0072mm" viewBox="0.0000 0.0000 297.0022 210.0072">
<title>SVG Image created as MotorControllerNode-In2_Cu.svg date 2026/03/26 21:14:06 </title>
  <desc>Image generated by PCBNEW </desc>
<g style="fill:#000000; fill-opacity:1.0000;stroke:#000000; stroke-opacity:1.0000;
stroke-linecap:round; stroke-linejoin:round;"
 transform="translate(0 0) scale(1 1)">
<path style="fill:#000000; fill-opacity:1.0000; stroke:none;fill-rule:evenodd;"
d="M 118.1925,121.4400
118.0968,121.4210
118.0157,121.3668
117.9615,121.2857
117.9425,121.1900
117.9425,119.2900
117.9615,119.1943
118.0157,119.1132
118.0968,119.0590
118.1925,119.0400
120.0925,119.0400
120.1882,119.0590
120.2693,119.1132
120.3235,119.1943
120.3425,119.2900
120.3425,121.1900
120.3235,121.2857
120.2693,121.3668
120.1882,121.4210
120.0925,121.4400
Z" /> 
</g>
<g style="fill:#000000; fill-opacity:1.0000; stroke:none;">
<circle cx="119.1425" cy="115.1600" r="1.2000" /> 
</g>
<g style="fill:#000000; fill-opacity:1.0000; stroke:none;">
<circle cx="105.0906" cy="39.2375" r="0.7747" /> 
</g>
<g style="fill:#000000; fill-opacity:1.0000; stroke:none;">
<circle cx="107.3806" cy="39.2375" r="0.7747" /> 
</g>
<g style="fill:#000000; fill-opacity:1.0000; stroke:none;">
<circle cx="109.6706" cy="39.2375" r="0.7747" /> 
</g>
<g style="fill:#000000; fill-opacity:1.0000; stroke:none;">
<circle cx="111.9606" cy="39.2375" r="0.7747" /> 
</g>
<g style="fill:#000000; fill-opacity:1.0000; stroke:none;">
<circle cx="114.2506" cy="39.2375" r="0.7747" /> 
</g>
<g style="fill:#000000; fill-opacity:1.0000; stroke:none;">
<circle cx="103.9456" cy="36.6975" r="0.7747" /> 
</g>
<g style="fill:#000000; fill-opacity:1.0000; stroke:none;">
<circle cx="106.2356" cy="36.6975" r="0.7747" /> 
</g>
<g style="fill:#000000; fill-opacity:1.0000; stroke:none;">
<circle cx="108.5256" cy="36.6975" r="0.7747" /> 
</g>
<g style="fill:#000000; fill-opacity:1.0000; stroke:none;">
<circle cx="110.8156" cy="36.6975" r="0.7747" /> 
</g>
<g style="fill:#000000; fill-opacity:1.0000; stroke:none;">
<circle cx="113.1056" cy="36.6975" r="0.7747" /> 
</g>
<g style="fill:#000000; fill-opacity:1.0000; stroke:none;">
<circle cx="105.0906" cy="34.1576" r="0.7747" /> 
</g>
<g style="fill:#000000; fill-opacity:1.0000; stroke:none;">
<circle cx="107.3806" cy="34.1576" r="0.7747" /> 
</g>
<g style="fill:#000000; fill-opacity:1.0000; stroke:none;">
<circle cx="109.6706" cy="34.1576" r="0.7747" /> 
</g>
<g style="fill:#000000; fill-opacity:1.0000; stroke:none;">
<circle cx="111.9606" cy="34.1576" r="0.7747" /> 
</g>
<g style="fill:#000000; fill-opacity:1.0000; stroke:none;">
<circle cx="114.2506" cy="34.1576" r="0.7747" /> 
<path style="fill:#000000; fill-opacity:1.0000; stroke:none;fill-rule:evenodd;"
d="M 118.1925,97.0400
118.0968,97.0210
118.0157,96.9668
117.9615,96.8857
117.9425,96.7900
117.9425,94.8900
117.9615,94.7943
118.0157,94.7132
118.0968,94.6590
118.1925,94.6400
120.0925,94.6400
120.1882,94.6590
120.2693,94.7132
120.3235,94.7943
120.3425,94.8900
120.3425,96.7900
120.3235,96.8857
120.2693,96.9668
120.1882,97.0210
120.0925,97.0400
Z" /> 
</g>
<g style="fill:#000000; fill-opacity:1.0000; stroke:none;">
<circle cx="119.1425" cy="90.7600" r="1.2000" /> 
</g>
<g style="fill:#000000; fill-opacity:1.0000; stroke:none;">
<circle cx="88.9100" cy="96.1100" r="0.7620" /> 
</g>
<g style="fill:#000000; fill-opacity:1.0000; stroke:none;">
<circle cx="96.5300" cy="96.1100" r="0.7620" /> 
</g>
<g style="fill:#000000; fill-opacity:1.0000; stroke:none;">
<circle cx="101.6100" cy="96.1100" r="0.7620" /> 
</g>
<g style="fill:#000000; fill-opacity:1.0000; stroke:none;">
<circle cx="106.6900" cy="96.1100" r="0.7620" /> 
</g>
<g style="fill:#000000; fill-opacity:1.0000; stroke:none;">
<circle cx="106.6900" cy="88.4900" r="0.7620" /> 
</g>
<g style="fill:#000000; fill-opacity:1.0000; stroke:none;">
<circle cx="101.6100" cy="88.4900" r="0.7620" /> 
</g>
<g style="fill:#000000; fill-opacity:1.0000; stroke:none;">
<circle cx="96.5300" cy="88.4900" r="0.7620" /> 
</g>
<g style="fill:#000000; fill-opacity:1.0000; stroke:none;">
<circle cx="88.9100" cy="88.4900" r="0.7620" /> 
</g>
<g style="fill:#000000; fill-opacity:1.0000; stroke:none;">
<circle cx="111.8607" cy="52.8600" r="0.7493" /> 
</g>
<g style="fill:#000000; fill-opacity:1.0000; stroke:none;">
<circle cx="111.8607" cy="55.6300" r="0.7493" /> 
</g>
<g style="fill:#000000; fill-opacity:1.0000; stroke:none;">
<circle cx="111.8607" cy="58.4000" r="0.7493" /> 
</g>
<g style="fill:#000000; fill-opacity:1.0000; stroke:none;">
<circle cx="111.8607" cy="61.1700" r="0.7493" /> 
</g>
<g style="fill:#000000; fill-opacity:1.0000; stroke:none;">
<circle cx="111.8607" cy="63.9400" r="0.7493" /> 
</g>
<g style="fill:#000000; fill-opacity:1.0000; stroke:none;">
<circle cx="114.4007" cy="54.2450" r="0.7493" /> 
</g>
<g style="fill:#000000; fill-opacity:1.0000; stroke:none;">
<circle cx="114.4007" cy="57.0150" r="0.7493" /> 
</g>
<g style="fill:#000000; fill-opacity:1.0000; stroke:none;">
<circle cx="114.4007" cy="59.7850" r="0.7493" /> 
</g>
<g style="fill:#000000; fill-opacity:1.0000; stroke:none;">
<circle cx="114.4007" cy="62.5550" r="0.7493" /> 
<path style="fill:#000000; fill-opacity:1.0000; stroke:none;fill-rule:evenodd;"
d="M 44.4660,41.0560
46.4660,41.0560
46.4660,42.2560
44.4660,42.2560
Z" /> 
</g>
<g style="fill:none; 
stroke:#000000; stroke-width:1.2000; stroke-opacity:1; 
stroke-linecap:round; stroke-linejoin:round;">
<path d="M45.8660 44.1960
L45.0660 44.1960
" />
<path d="M45.8660 46.7360
L45.0660 46.7360
" />
<path d="M45.8660 49.2760
L45.0660 49.2760
" />
<path d="M45.8660 51.8160
L45.0660 51.8160
" />
<path d="M45.8660 54.3560
L45.0660 54.3560
" />
<path d="M45.8660 56.8960
L45.0660 56.8960
" />
<path d="M45.8660 59.4360
L45.0660 59.4360
" />
<path d="M45.8660 61.9760
L45.0660 61.9760
" />
<path d="M45.8660 64.5160
L45.0660 64.5160
" />
<path d="M45.8660 67.0560
L45.0660 67.0560
" />
<path d="M45.8660 69.5960
L45.0660 69.5960
" />
<path d="M45.8660 72.1360
L45.0660 72.1360
" />
<path d="M45.8660 74.6760
L45.0660 74.6760
" />
<path d="M45.8660 77.2160
L45.0660 77.2160
" />
<path d="M45.8660 79.7560
L45.0660 79.7560
" />
<path d="M45.8660 82.2960
L45.0660 82.2960
" />
<path d="M45.8660 84.8360
L45.0660 84.8360
" />
<path d="M45.8660 87.3760
L45.0660 87.3760
" />
<path d="M45.8623 89.9133
L45.0623 89.9133
" />
<path d="M45.8623 92.4533
L45.0623 92.4533
" />
<path d="M45.8623 94.9933
L45.0623 94.9933
" />
<path d="M68.7260 94.9960
L67.9260 94.9960
" />
<path d="M68.7260 92.4560
L67.9260 92.4560
" />
<path d="M68.7260 89.9160
L67.9260 89.9160
" />
<path d="M68.7260 87.3760
L67.9260 87.3760
" />
<path d="M68.7260 84.8360
L67.9260 84.8360
" />
<path d="M68.7260 82.2960
L67.9260 82.2960
" />
<path d="M68.7260 79.7560
L67.9260 79.7560
" />
<path d="M68.7260 77.2160
L67.9260 77.2160
" />
<path d="M68.7260 74.6760
L67.9260 74.6760
" />
<path d="M68.7260 72.1360
L67.9260 72.1360
" />
<path d="M68.7260 69.5960
L67.9260 69.5960
" />
<path d="M68.7260 67.0560
L67.9260 67.0560
" />
<path d="M68.7260 64.5160
L67.9260 64.5160
" />
<path d="M68.7260 61.9760
L67.9260 61.9760
" />
<path d="M68.7260 59.4360
L67.9260 59.4360
" />
<path d="M68.7260 56.8960
L67.9260 56.8960
" />
<path d="M68.7260 54.3560
L67.9260 54.3560
" />
<path d="M68.7260 51.8160
L67.9260 51.8160
" />
<path d="M68.7260 49.2760
L67.9260 49.2760
" />
<path d="M68.7260 46.7360
L67.9260 46.7360
" />
<path d="M68.7260 44.1960
L67.9260 44.1960
" />
<path d="M68.7260 41.6560
L67.9260 41.6560
" />
</g>
<g style="fill:#000000; fill-opacity:1.0000; stroke:none;">
<circle cx="37.7700" cy="80.5350" r="0.7493" /> 
</g>
<g style="fill:#000000; fill-opacity:1.0000; stroke:none;">
<circle cx="37.7700" cy="77.7650" r="0.7493" /> 
</g>
<g style="fill:#000000; fill-opacity:1.0000; stroke:none;">
<circle cx="37.7700" cy="74.9950" r="0.7493" /> 
</g>
<g style="fill:#000000; fill-opacity:1.0000; stroke:none;">
<circle cx="37.7700" cy="72.2250" r="0.7493" /> 
</g>
<g style="fill:#000000; fill-opacity:1.0000; stroke:none;">
<circle cx="37.7700" cy="69.4550" r="0.7493" /> 
</g>
<g style="fill:#000000; fill-opacity:1.0000; stroke:none;">
<circle cx="35.2300" cy="79.1500" r="0.7493" /> 
</g>
<g style="fill:#000000; fill-opacity:1.0000; stroke:none;">
<circle cx="35.2300" cy="76.3800" r="0.7493" /> 
</g>
<g style="fill:#000000; fill-opacity:1.0000; stroke:none;">
<circle cx="35.2300" cy="73.6100" r="0.7493" /> 
</g>
<g style="fill:#000000; fill-opacity:1.0000; stroke:none;">
<circle cx="35.2300" cy="70.8400" r="0.7493" /> 
<path style="fill:#000000; fill-opacity:1.0000; stroke:none;fill-rule:evenodd;"
d="M 118.1925,109.2400
118.0968,109.2210
118.0157,109.1668
117.9615,109.0857
117.9425,108.9900
117.9425,107.0900
117.9615,106.9943
118.0157,106.9132
118.0968,106.8590
118.1925,106.8400
120.0925,106.8400
120.1882,106.8590
120.2693,106.9132
120.3235,106.9943
120.3425,107.0900
120.3425,108.9900
120.3235,109.0857
120.2693,109.1668
120.1882,109.2210
120.0925,109.2400
Z" /> 
</g>
<g style="fill:#000000; fill-opacity:1.0000; stroke:none;">
<circle cx="119.1425" cy="102.9600" r="1.2000" /> 
</g>
<g style="fill:#000000; fill-opacity:1.0000; stroke:none;">
<circle cx="82.7800" cy="28.5000" r="0.8001" /> 
</g>
<g style="fill:#000000; fill-opacity:1.0000; stroke:none;">
<circle cx="85.3200" cy="28.5000" r="0.8001" /> 
</g>
<g style="fill:#000000; fill-opacity:1.0000; stroke:none;">
<circle cx="87.8600" cy="28.5000" r="0.8001" /> 
</g>
<g style="fill:#000000; fill-opacity:1.0000; stroke:none;">
<circle cx="90.4000" cy="28.5000" r="0.8001" /> 
</g>
<g style="fill:#000000; fill-opacity:1.0000; stroke:none;">
<circle cx="35.5320" cy="97.5360" r="0.8000" /> 
</g>
<g style="fill:#000000; fill-opacity:1.0000; stroke:none;">
<circle cx="32.0320" cy="97.5360" r="0.8000" /> 
</g>
<g style="fill:#000000; fill-opacity:1.0000; stroke:none;">
<circle cx="121.5000" cy="77.2600" r="0.8001" /> 
</g>
<g style="fill:#000000; fill-opacity:1.0000; stroke:none;">
<circle cx="121.5000" cy="79.8000" r="0.8001" /> 
</g>
<g style="fill:#000000; fill-opacity:1.0000; stroke:none;">
<circle cx="121.5000" cy="82.3400" r="0.8001" /> 
</g>
<g style="fill:#000000; fill-opacity:1.0000; stroke:none;">
<circle cx="121.5000" cy="84.8800" r="0.8001" /> 
</g>
<g style="fill:#000000; fill-opacity:1.0000; stroke:none;">
<circle cx="83.1000" cy="48.6000" r="0.3000" /> 
</g>
<g style="fill:#000000; fill-opacity:1.0000; stroke:none;">
<circle cx="86.3000" cy="73.3000" r="0.3000" /> 
</g>
<g style="fill:#000000; fill-opacity:1.0000; stroke:none;">
<circle cx="87.5000" cy="59.4000" r="0.3000" /> 
</g>
<g style="fill:#000000; fill-opacity:1.0000; stroke:none;">
<circle cx="83.7000" cy="50.7000" r="0.3000" /> 
</g>
<g style="fill:#000000; fill-opacity:1.0000; stroke:none;">
<circle cx="73.0000" cy="59.8000" r="0.3000" /> 
</g>
<g style="fill:#000000; fill-opacity:1.0000; stroke:none;">
<circle cx="38.6000" cy="51.4000" r="0.3000" /> 
</g>
<g style="fill:#000000; fill-opacity:1.0000; stroke:none;">
<circle cx="85.2000" cy="67.8000" r="0.3000" /> 
</g>
<g style="fill:#000000; fill-opacity:1.0000; stroke:none;">
<circle cx="34.9000" cy="56.3000" r="0.3000" /> 
</g>
<g style="fill:#000000; fill-opacity:1.0000; stroke:none;">
<circle cx="89.3000" cy="60.7000" r="0.3000" /> 
</g>
<g style="fill:#000000; fill-opacity:1.0000; stroke:none;">
<circle cx="87.6000" cy="51.4000" r="0.3000" /> 
</g>
<g style="fill:#000000; fill-opacity:1.0000; stroke:none;">
<circle cx="76.9000" cy="51.1000" r="0.3000" /> 
</g>
<g style="fill:#000000; fill-opacity:1.0000; stroke:none;">
<circle cx="87.7000" cy="48.3000" r="0.3000" /> 
</g>
<g style="fill:#000000; fill-opacity:1.0000; stroke:none;">
<circle cx="83.4000" cy="82.0000" r="0.3000" /> 
</g>
<g style="fill:#000000; fill-opacity:1.0000; stroke:none;">
<circle cx="82.8000" cy="50.7000" r="0.3000" /> 
</g>
<g style="fill:#000000; fill-opacity:1.0000; stroke:none;">
<circle cx="72.3000" cy="73.8250" r="0.3000" /> 
</g>
<g style="fill:#000000; fill-opacity:1.0000; stroke:none;">
<circle cx="40.1000" cy="46.0500" r="0.3000" /> 
</g>
<g style="fill:#000000; fill-opacity:1.0000; stroke:none;">
<circle cx="87.7000" cy="49.9000" r="0.3000" /> 
</g>
<g style="fill:#000000; fill-opacity:1.0000; stroke:none;">
<circle cx="89.2000" cy="73.5000" r="0.3000" /> 
</g>
<g style="fill:#000000; fill-opacity:1.0000; stroke:none;">
<circle cx="38.6000" cy="50.1650" r="0.3000" /> 
</g>
<g style="fill:#000000; fill-opacity:1.0000; stroke:none;">
<circle cx="75.0000" cy="45.6000" r="0.3000" /> 
</g>
<g style="fill:#000000; fill-opacity:1.0000; stroke:none;">
<circle cx="72.8500" cy="50.8250" r="0.3000" /> 
</g>
<g style="fill:#000000; fill-opacity:1.0000; stroke:none;">
<circle cx="74.5500" cy="74.0250" r="0.3000" /> 
</g>
<g style="fill:#000000; fill-opacity:1.0000; stroke:none;">
<circle cx="74.5000" cy="59.6000" r="0.3000" /> 
</g>
<g style="fill:#000000; fill-opacity:1.0000; stroke:none;">
<circle cx="77.4000" cy="82.0000" r="0.3000" /> 
</g>
<g style="fill:#000000; fill-opacity:1.0000; stroke:none;">
<circle cx="72.7000" cy="47.8750" r="0.3000" /> 
</g>
<g style="fill:#000000; fill-opacity:1.0000; stroke:none;">
<circle cx="76.2000" cy="67.8000" r="0.3000" /> 
</g>
<g style="fill:#000000; fill-opacity:1.0000; stroke:none;">
<circle cx="40.1000" cy="47.6000" r="0.3000" /> 
</g>
<g style="fill:#000000; fill-opacity:1.0000; stroke:none;">
<circle cx="104.8000" cy="52.1000" r="0.3000" /> 
</g>
<g style="fill:#000000; fill-opacity:1.0000; stroke:none;">
<circle cx="110.6000" cy="50.2000" r="0.3000" /> 
</g>
<g style="fill:#000000; fill-opacity:1.0000; stroke:none;">
<circle cx="93.2000" cy="70.4605" r="0.3000" /> 
</g>
<g style="fill:#000000; fill-opacity:1.0000; stroke:none;">
<circle cx="89.4000" cy="66.4000" r="0.3000" /> 
</g>
<g style="fill:#000000; fill-opacity:1.0000; stroke:none;">
<circle cx="91.2000" cy="66.4000" r="0.3000" /> 
</g>
<g style="fill:#000000; fill-opacity:1.0000; stroke:none;">
<circle cx="74.0000" cy="81.4000" r="0.3000" /> 
</g>
<g style="fill:#000000; fill-opacity:1.0000; stroke:none;">
<circle cx="74.8000" cy="81.8000" r="0.3000" /> 
</g>
<g style="fill:none; 
stroke:#000000; stroke-width:0.7500; stroke-opacity:1; 
stroke-linecap:round; stroke-linejoin:round;">
<path d="M83.7000 49.2000
L83.7000 50.7000
" />
<path d="M83.1000 48.6000
L83.7000 49.2000
" />
<path d="M88.9100 96.1100
L77.6900 96.1100
" />
<path d="M87.5000 53.8000
L86.8000 53.8000
" />
<path d="M45.4623 92.4533
L50.4090 97.4000
" />
<path d="M86.3000 60.6000
L87.5000 59.4000
" />
<path d="M87.5000 59.4000
L87.5000 53.8000
" />
<path d="M86.3000 73.3000
L86.3000 60.6000
" />
<path d="M86.8000 53.8000
L83.7000 50.7000
" />
</g>
<g style="fill:none; 
stroke:#000000; stroke-width:1.0000; stroke-opacity:1; 
stroke-linecap:round; stroke-linejoin:round;">
<path d="M37.1147 92.4533
L45.4623 92.4533
" />
</g>
<g style="fill:none; 
stroke:#000000; stroke-width:0.7500; stroke-opacity:1; 
stroke-linecap:round; stroke-linejoin:round;">
<path d="M50.4090 97.4000
L76.4000 97.4000
" />
</g>
<g style="fill:none; 
stroke:#000000; stroke-width:1.0000; stroke-opacity:1; 
stroke-linecap:round; stroke-linejoin:round;">
<path d="M32.0320 74.0380
L32.0320 97.5360
" />
</g>
<g style="fill:none; 
stroke:#000000; stroke-width:0.7500; stroke-opacity:1; 
stroke-linecap:round; stroke-linejoin:round;">
<path d="M77.6900 96.1100
L88.9000 84.9000
" />
<path d="M88.9000 84.9000
L88.9000 75.9000
" />
<path d="M88.9000 75.9000
L86.3000 73.3000
" />
</g>
<g style="fill:none; 
stroke:#000000; stroke-width:1.0000; stroke-opacity:1; 
stroke-linecap:round; stroke-linejoin:round;">
<path d="M32.0320 97.5360
L37.1147 92.4533
" />
</g>
<g style="fill:none; 
stroke:#000000; stroke-width:0.7500; stroke-opacity:1; 
stroke-linecap:round; stroke-linejoin:round;">
<path d="M76.4000 97.4000
L77.6900 96.1100
" />
</g>
<g style="fill:none; 
stroke:#000000; stroke-width:1.0000; stroke-opacity:1; 
stroke-linecap:round; stroke-linejoin:round;">
<path d="M35.2300 70.8400
L32.0320 74.0380
" />
</g>
<g style="fill:none; 
stroke:#000000; stroke-width:0.5000; stroke-opacity:1; 
stroke-linecap:round; stroke-linejoin:round;">
<path d="M69.9000 47.8750
L72.7000 47.8750
" />
<path d="M77.4000 82.0000
L74.5500 79.1500
" />
<path d="M38.6000 50.1650
L40.0350 50.1650
" />
<path d="M74.5500 79.1500
L74.5500 74.0250
" />
<path d="M72.7250 47.8750
L72.7000 47.8750
" />
<path d="M42.6000 47.6000
L45.4660 44.7340
" />
<path d="M72.8500 50.8250
L69.9000 47.8750
" />
<path d="M45.4660 44.1960
L45.4660 41.6560
" />
<path d="M49.1450 47.8750
L69.9000 47.8750
" />
<path d="M74.5500 59.6500
L74.5000 59.6000
" />
<path d="M74.5500 69.4000
L76.1500 67.8000
" />
<path d="M74.5500 69.4000
L74.5500 59.6500
" />
<path d="M40.1000 47.6000
L42.6000 47.6000
" />
<path d="M45.4660 44.1960
L49.1450 47.8750
" />
<path d="M74.5500 74.0250
L74.5500 69.4000
" />
<path d="M45.4660 44.7340
L45.4660 44.1960
" />
<path d="M74.0000 51.9750
L74.0000 59.1000
" />
<path d="M74.0000 59.1000
L74.5000 59.6000
" />
<path d="M75.0000 45.6000
L72.7250 47.8750
" />
<path d="M40.0350 50.1650
L42.6000 47.6000
" />
<path d="M76.1500 67.8000
L76.2000 67.8000
" />
<path d="M72.8500 50.8250
L74.0000 51.9750
" />
<path style="fill:#000000; fill-opacity:1.0000; stroke:none;fill-rule:evenodd;"
d="M 46.4401,44.3282
46.4478,44.3327
46.4498,44.3367
46.6328,45.0045
46.6317,45.0134
46.6298,45.0158
46.2872,45.3585
46.2789,45.3619
46.2734,45.3605
45.6003,45.0007
45.2268,44.8010
45.2211,44.7941
45.2215,44.7862
45.4618,44.2036
45.4682,44.1973
45.4742,44.1965
Z" /> 
<path style="fill:#000000; fill-opacity:1.0000; stroke:none;fill-rule:evenodd;"
d="M 32.5307,95.9548
32.5339,95.9608
32.8143,97.3685
32.8126,97.3772
32.8052,97.3822
32.0343,97.5365
32.0297,97.5365
31.2588,97.3822
31.2514,97.3772
31.2497,97.3685
31.5301,95.9608
31.5351,95.9533
31.5416,95.9514
32.5224,95.9514
Z" /> 
<path style="fill:#000000; fill-opacity:1.0000; stroke:none;fill-rule:evenodd;"
d="M 45.4722,44.2039
45.8402,44.7875
45.8418,44.7964
45.8380,44.8026
45.1647,45.3899
45.1563,45.3927
45.1488,45.3893
44.8047,45.0452
44.8021,45.0412
44.6232,44.5916
44.6233,44.5827
44.6292,44.5767
45.4574,44.1995
45.4664,44.1992
Z" /> 
<path style="fill:#000000; fill-opacity:1.0000; stroke:none;fill-rule:evenodd;"
d="M 45.7173,42.9994
45.7193,43.0021
46.0617,43.6339
46.0626,43.6428
46.0593,43.6481
45.4739,44.1896
45.4655,44.1928
45.4581,44.1896
44.8727,43.6481
44.8689,43.6399
44.8703,43.6339
45.2127,43.0021
45.2196,42.9965
45.2230,42.9960
45.7090,42.9960
Z" /> 
<path style="fill:#000000; fill-opacity:1.0000; stroke:none;fill-rule:evenodd;"
d="M 32.8057,96.0687
33.4993,96.7623
33.5027,96.7705
33.5007,96.7770
32.7037,97.9707
32.6962,97.9757
32.6874,97.9740
32.0332,97.5380
32.0300,97.5348
31.5940,96.8806
31.5923,96.8718
31.5973,96.8643
31.7501,96.7623
32.7910,96.0673
32.7997,96.0655
Z" /> 
<path style="fill:#000000; fill-opacity:1.0000; stroke:none;fill-rule:evenodd;"
d="M 34.6165,70.4300
35.2288,70.8380
35.2320,70.8412
35.6400,71.4535
35.6417,71.4623
35.6369,71.4696
34.5421,72.2374
34.5334,72.2393
34.5271,72.2361
33.8339,71.5429
33.8305,71.5346
33.8326,71.5279
33.8781,71.4630
34.6004,70.4331
34.6080,70.4283
Z" /> 
</g> 
</svg>
