%TF.GenerationSoftware,KiCad,Pcbnew,9.0.7*%
%TF.CreationDate,2026-03-26T21:13:27+11:00*%
%TF.ProjectId,MotorControllerNode,4d6f746f-7243-46f6-9e74-726f6c6c6572,rev?*%
%TF.SameCoordinates,Original*%
%TF.FileFunction,Copper,L1,Top*%
%TF.FilePolarity,Positive*%
%FSLAX46Y46*%
G04 Gerber Fmt 4.6, Leading zero omitted, Abs format (unit mm)*
G04 Created by KiCad (PCBNEW 9.0.7) date 2026-03-26 21:13:27*
%MOMM*%
%LPD*%
G01*
G04 APERTURE LIST*
G04 Aperture macros list*
%AMRoundRect*
0 Rectangle with rounded corners*
0 $1 Rounding radius*
0 $2 $3 $4 $5 $6 $7 $8 $9 X,Y pos of 4 corners*
0 Add a 4 corners polygon primitive as box body*
4,1,4,$2,$3,$4,$5,$6,$7,$8,$9,$2,$3,0*
0 Add four circle primitives for the rounded corners*
1,1,$1+$1,$2,$3*
1,1,$1+$1,$4,$5*
1,1,$1+$1,$6,$7*
1,1,$1+$1,$8,$9*
0 Add four rect primitives between the rounded corners*
20,1,$1+$1,$2,$3,$4,$5,0*
20,1,$1+$1,$4,$5,$6,$7,0*
20,1,$1+$1,$6,$7,$8,$9,0*
20,1,$1+$1,$8,$9,$2,$3,0*%
G04 Aperture macros list end*
%TA.AperFunction,ComponentPad*%
%ADD10RoundRect,0.250001X0.949999X-0.949999X0.949999X0.949999X-0.949999X0.949999X-0.949999X-0.949999X0*%
%TD*%
%TA.AperFunction,ComponentPad*%
%ADD11C,2.400000*%
%TD*%
%TA.AperFunction,ComponentPad*%
%ADD12C,1.549400*%
%TD*%
%TA.AperFunction,SMDPad,CuDef*%
%ADD13RoundRect,0.225000X0.225000X0.250000X-0.225000X0.250000X-0.225000X-0.250000X0.225000X-0.250000X0*%
%TD*%
%TA.AperFunction,SMDPad,CuDef*%
%ADD14RoundRect,0.200000X0.200000X0.275000X-0.200000X0.275000X-0.200000X-0.275000X0.200000X-0.275000X0*%
%TD*%
%TA.AperFunction,SMDPad,CuDef*%
%ADD15RoundRect,0.225000X-0.225000X-0.250000X0.225000X-0.250000X0.225000X0.250000X-0.225000X0.250000X0*%
%TD*%
%TA.AperFunction,ComponentPad*%
%ADD16C,1.524000*%
%TD*%
%TA.AperFunction,SMDPad,CuDef*%
%ADD17RoundRect,0.062500X-0.062500X0.375000X-0.062500X-0.375000X0.062500X-0.375000X0.062500X0.375000X0*%
%TD*%
%TA.AperFunction,SMDPad,CuDef*%
%ADD18RoundRect,0.062500X-0.375000X0.062500X-0.375000X-0.062500X0.375000X-0.062500X0.375000X0.062500X0*%
%TD*%
%TA.AperFunction,HeatsinkPad*%
%ADD19R,0.800000X0.800000*%
%TD*%
%TA.AperFunction,ComponentPad*%
%ADD20C,1.498600*%
%TD*%
%TA.AperFunction,SMDPad,CuDef*%
%ADD21RoundRect,0.200000X0.275000X-0.200000X0.275000X0.200000X-0.275000X0.200000X-0.275000X-0.200000X0*%
%TD*%
%TA.AperFunction,ComponentPad*%
%ADD22R,2.000000X1.200000*%
%TD*%
%TA.AperFunction,ComponentPad*%
%ADD23O,2.000000X1.200000*%
%TD*%
%TA.AperFunction,SMDPad,CuDef*%
%ADD24RoundRect,0.150000X0.825000X0.150000X-0.825000X0.150000X-0.825000X-0.150000X0.825000X-0.150000X0*%
%TD*%
%TA.AperFunction,ComponentPad*%
%ADD25C,1.600200*%
%TD*%
%TA.AperFunction,SMDPad,CuDef*%
%ADD26R,1.475000X0.450000*%
%TD*%
%TA.AperFunction,ComponentPad*%
%ADD27C,1.600000*%
%TD*%
%TA.AperFunction,SMDPad,CuDef*%
%ADD28RoundRect,0.225000X-0.250000X0.225000X-0.250000X-0.225000X0.250000X-0.225000X0.250000X0.225000X0*%
%TD*%
%TA.AperFunction,ViaPad*%
%ADD29C,0.600000*%
%TD*%
%TA.AperFunction,Conductor*%
%ADD30C,0.250000*%
%TD*%
%TA.AperFunction,Conductor*%
%ADD31C,0.500000*%
%TD*%
%TA.AperFunction,Conductor*%
%ADD32C,1.500000*%
%TD*%
G04 APERTURE END LIST*
D10*
%TO.P,J8,1,Pin_1*%
%TO.N,Net-(J8-Pin_1)*%
X119142500Y-120240000D03*
D11*
%TO.P,J8,2,Pin_2*%
%TO.N,Net-(J8-Pin_2)*%
X119142500Y-115160000D03*
%TD*%
D12*
%TO.P,J9,1,1*%
%TO.N,/J2-5*%
X105090601Y-39237550D03*
%TO.P,J9,2,2*%
X107380602Y-39237550D03*
%TO.P,J9,3,3*%
%TO.N,/J2-6*%
X109670599Y-39237550D03*
%TO.P,J9,4,4*%
X111960600Y-39237550D03*
%TO.P,J9,5,5*%
%TO.N,/J2-8*%
X114250600Y-39237550D03*
%TO.P,J9,6,6*%
X103945599Y-36697550D03*
%TO.P,J9,7,7*%
%TO.N,/J2-9*%
X106235600Y-36697550D03*
%TO.P,J9,8,8*%
X108525600Y-36697550D03*
%TO.P,J9,9,9*%
%TO.N,/J2-10*%
X110815601Y-36697550D03*
%TO.P,J9,10,10*%
X113105599Y-36697550D03*
%TO.P,J9,11,11*%
%TO.N,GND*%
X105090601Y-34157550D03*
%TO.P,J9,12,12*%
X107380602Y-34157550D03*
%TO.P,J9,13,13*%
X109670599Y-34157550D03*
%TO.P,J9,14,14*%
X111960600Y-34157550D03*
%TO.P,J9,15,15*%
%TO.N,unconnected-(J9-Pad15)*%
X114250600Y-34157550D03*
%TD*%
D13*
%TO.P,C8,1*%
%TO.N,GND*%
X87800000Y-74600000D03*
%TO.P,C8,2*%
%TO.N,+5V*%
X86250000Y-74600000D03*
%TD*%
D14*
%TO.P,R4,1*%
%TO.N,GND*%
X33750000Y-56300000D03*
%TO.P,R4,2*%
%TO.N,Net-(U2-Rs)*%
X32100000Y-56300000D03*
%TD*%
D15*
%TO.P,C3,1*%
%TO.N,+5V*%
X85025000Y-49900000D03*
%TO.P,C3,2*%
%TO.N,GND*%
X86575000Y-49900000D03*
%TD*%
%TO.P,C2,1*%
%TO.N,+5V*%
X85025000Y-48300000D03*
%TO.P,C2,2*%
%TO.N,GND*%
X86575000Y-48300000D03*
%TD*%
D10*
%TO.P,J6,1,Pin_1*%
%TO.N,Net-(J6-Pin_1)*%
X119142500Y-95840000D03*
D11*
%TO.P,J6,2,Pin_2*%
%TO.N,Net-(J6-Pin_2)*%
X119142500Y-90760000D03*
%TD*%
D16*
%TO.P,U3,1,1*%
%TO.N,+5V*%
X88910000Y-96110000D03*
%TO.P,U3,2,2*%
%TO.N,Net-(J6-Pin_1)*%
X96530000Y-96110000D03*
%TO.P,U3,3,3*%
%TO.N,Net-(J8-Pin_1)*%
X101610000Y-96110000D03*
%TO.P,U3,4,4*%
%TO.N,Net-(J8-Pin_2)*%
X106690000Y-96110000D03*
%TO.P,U3,5,5*%
%TO.N,Net-(J7-Pin_2)*%
X106690000Y-88490000D03*
%TO.P,U3,6,6*%
%TO.N,Net-(J7-Pin_1)*%
X101610000Y-88490000D03*
%TO.P,U3,7,7*%
%TO.N,Net-(J6-Pin_2)*%
X96530000Y-88490000D03*
%TO.P,U3,8,8*%
%TO.N,/GPIO47 Reversing Contactor*%
X88910000Y-88490000D03*
%TD*%
D13*
%TO.P,C5,1*%
%TO.N,+3V3*%
X74550000Y-60800000D03*
%TO.P,C5,2*%
%TO.N,GND*%
X73000000Y-60800000D03*
%TD*%
D17*
%TO.P,IC1,1,FB0*%
%TO.N,/J2-5*%
X80950000Y-48862500D03*
%TO.P,IC1,2,OUT0*%
X80450000Y-48862500D03*
%TO.P,IC1,3,NC_1*%
%TO.N,unconnected-(IC1-NC_1-Pad3)*%
X79950000Y-48862500D03*
%TO.P,IC1,4,NC_2*%
%TO.N,unconnected-(IC1-NC_2-Pad4)*%
X79450000Y-48862500D03*
D18*
%TO.P,IC1,5,GPIO/SDO*%
%TO.N,Net-(IC1-GPIO{slash}SDO)*%
X78762500Y-49550000D03*
%TO.P,IC1,6,SCL/~{SYNC}*%
%TO.N,/DAC_SCL*%
X78762500Y-50050000D03*
%TO.P,IC1,7,A0/SDI*%
%TO.N,GND*%
X78762500Y-50550000D03*
%TO.P,IC1,8,SDA/SCLK*%
%TO.N,/DAC_SDA*%
X78762500Y-51050000D03*
D17*
%TO.P,IC1,9,NC_3*%
%TO.N,unconnected-(IC1-NC_3-Pad9)*%
X79450000Y-51737500D03*
%TO.P,IC1,10,NC_4*%
%TO.N,unconnected-(IC1-NC_4-Pad10)*%
X79950000Y-51737500D03*
%TO.P,IC1,11,OUT1*%
%TO.N,/J2-6*%
X80450000Y-51737500D03*
%TO.P,IC1,12,FB1*%
X80950000Y-51737500D03*
D18*
%TO.P,IC1,13,CAP*%
%TO.N,Net-(IC1-CAP)*%
X81637500Y-51050000D03*
%TO.P,IC1,14,AGND*%
%TO.N,GND*%
X81637500Y-50550000D03*
%TO.P,IC1,15,VDD*%
%TO.N,+5V*%
X81637500Y-50050000D03*
%TO.P,IC1,16,VREF*%
X81637500Y-49550000D03*
D19*
%TO.P,IC1,17,GND*%
%TO.N,GND*%
X80200000Y-50300000D03*
%TD*%
D20*
%TO.P,J2,1,1*%
%TO.N,/J1-M1-6*%
X111860700Y-52860001D03*
%TO.P,J2,2,2*%
%TO.N,/J1-M2-6*%
X111860700Y-55630001D03*
%TO.P,J2,3,3*%
%TO.N,/J1-M1-14*%
X111860700Y-58400000D03*
%TO.P,J2,4,4*%
%TO.N,/J1-M2-14*%
X111860700Y-61170000D03*
%TO.P,J2,5,5*%
%TO.N,GND*%
X111860700Y-63939999D03*
%TO.P,J2,6,6*%
X114400700Y-54244999D03*
%TO.P,J2,7,7*%
X114400700Y-57014999D03*
%TO.P,J2,8,8*%
X114400700Y-59784999D03*
%TO.P,J2,9,9*%
%TO.N,unconnected-(J2-Pad9)*%
X114400700Y-62554998D03*
%TD*%
D13*
%TO.P,C6,1*%
%TO.N,GND*%
X87950000Y-60800000D03*
%TO.P,C6,2*%
%TO.N,+5V*%
X86400000Y-60800000D03*
%TD*%
D21*
%TO.P,R2,1*%
%TO.N,/DAC_SCL*%
X73975000Y-49525000D03*
%TO.P,R2,2*%
%TO.N,+3V3*%
X73975000Y-47875000D03*
%TD*%
D22*
%TO.P,U1,1,3V3*%
%TO.N,+3V3*%
X45466000Y-41656000D03*
D23*
%TO.P,U1,2,3V3*%
X45466000Y-44196000D03*
%TO.P,U1,3,CHIP_PU*%
%TO.N,unconnected-(U1-CHIP_PU-Pad3)*%
X45466000Y-46736000D03*
%TO.P,U1,4,GPIO4/ADC1_CH3*%
%TO.N,/GPIO4*%
X45466000Y-49276000D03*
%TO.P,U1,5,GPIO5/ADC1_CH4*%
%TO.N,/GPIO5*%
X45466000Y-51816000D03*
%TO.P,U1,6,GPIO6/ADC1_CH5*%
%TO.N,/GPIO6*%
X45466000Y-54356000D03*
%TO.P,U1,7,GPIO7/ADC1_CH6*%
%TO.N,/GPIO7*%
X45466000Y-56896000D03*
%TO.P,U1,8,GPIO15/ADC2_CH4/32K_P*%
%TO.N,/GPIO15*%
X45466000Y-59436000D03*
%TO.P,U1,9,GPIO16/ADC2_CH5/32K_N*%
%TO.N,/GPIO16*%
X45466000Y-61976000D03*
%TO.P,U1,10,GPIO17/ADC2_CH6*%
%TO.N,/GPIO17*%
X45466000Y-64516000D03*
%TO.P,U1,11,GPIO18/ADC2_CH7*%
%TO.N,/GPIO18*%
X45466000Y-67056000D03*
%TO.P,U1,12,GPIO8/ADC1_CH7*%
%TO.N,/GPIO8*%
X45466000Y-69596000D03*
%TO.P,U1,13,GPIO3/ADC1_CH2*%
%TO.N,unconnected-(U1-GPIO3{slash}ADC1_CH2-Pad13)*%
X45466000Y-72136000D03*
%TO.P,U1,14,GPIO46*%
%TO.N,unconnected-(U1-GPIO46-Pad14)*%
X45466000Y-74676000D03*
%TO.P,U1,15,GPIO9/ADC1_CH8*%
%TO.N,/GPIO9*%
X45466000Y-77216000D03*
%TO.P,U1,16,GPIO10/ADC1_CH9*%
%TO.N,/GPIO10*%
X45466000Y-79756000D03*
%TO.P,U1,17,GPIO11/ADC2_CH0*%
%TO.N,/GPIO11*%
X45466000Y-82296000D03*
%TO.P,U1,18,GPIO12/ADC2_CH1*%
%TO.N,/GPIO12*%
X45466000Y-84836000D03*
%TO.P,U1,19,GPIO13/ADC2_CH2*%
%TO.N,/CANRX*%
X45466000Y-87376000D03*
%TO.P,U1,20,GPIO14/ADC2_CH3*%
%TO.N,/CANTX*%
X45462320Y-89913280D03*
%TO.P,U1,21,5V*%
%TO.N,+5V*%
X45462320Y-92453280D03*
%TO.P,U1,22,GND*%
%TO.N,GND*%
X45462320Y-94993280D03*
%TO.P,U1,23,GND*%
X68326000Y-94996000D03*
%TO.P,U1,24,GND*%
X68326000Y-92456000D03*
%TO.P,U1,25,GPIO19/USB_D-*%
%TO.N,unconnected-(U1-GPIO19{slash}USB_D--Pad25)*%
X68326000Y-89916000D03*
%TO.P,U1,26,GPIO20/USB_D+*%
%TO.N,unconnected-(U1-GPIO20{slash}USB_D+-Pad26)*%
X68326000Y-87376000D03*
%TO.P,U1,27,GPIO21*%
%TO.N,unconnected-(U1-GPIO21-Pad27)*%
X68326000Y-84836000D03*
%TO.P,U1,28,GPIO47*%
%TO.N,/GPIO47*%
X68326000Y-82296000D03*
%TO.P,U1,29,GPIO48*%
%TO.N,/GPIO48*%
X68326000Y-79756000D03*
%TO.P,U1,30,GPIO45*%
%TO.N,unconnected-(U1-GPIO45-Pad30)*%
X68326000Y-77216000D03*
%TO.P,U1,31,GPIO0*%
%TO.N,unconnected-(U1-GPIO0-Pad31)*%
X68326000Y-74676000D03*
%TO.P,U1,32,GPIO35*%
%TO.N,unconnected-(U1-GPIO35-Pad32)*%
X68326000Y-72136000D03*
%TO.P,U1,33,GPIO36*%
%TO.N,unconnected-(U1-GPIO36-Pad33)*%
X68326000Y-69596000D03*
%TO.P,U1,34,GPIO37*%
%TO.N,unconnected-(U1-GPIO37-Pad34)*%
X68326000Y-67056000D03*
%TO.P,U1,35,GPIO38*%
%TO.N,unconnected-(U1-GPIO38-Pad35)*%
X68326000Y-64516000D03*
%TO.P,U1,36,GPIO39/MTCK*%
%TO.N,unconnected-(U1-GPIO39{slash}MTCK-Pad36)*%
X68326000Y-61976000D03*
%TO.P,U1,37,GPIO40/MTDO*%
%TO.N,unconnected-(U1-GPIO40{slash}MTDO-Pad37)*%
X68326000Y-59436000D03*
%TO.P,U1,38,GPIO41/MTDI*%
%TO.N,unconnected-(U1-GPIO41{slash}MTDI-Pad38)*%
X68326000Y-56896000D03*
%TO.P,U1,39,GPIO42/MTMS*%
%TO.N,unconnected-(U1-GPIO42{slash}MTMS-Pad39)*%
X68326000Y-54356000D03*
%TO.P,U1,40,GPIO2/ADC1_CH1*%
%TO.N,/DAC_SDA*%
X68326000Y-51816000D03*
%TO.P,U1,41,GPIO1/ADC1_CH0*%
%TO.N,/DAC_SCL*%
X68326000Y-49276000D03*
%TO.P,U1,42,GPIO44/U0RXD*%
%TO.N,unconnected-(U1-GPIO44{slash}U0RXD-Pad42)*%
X68326000Y-46736000D03*
%TO.P,U1,43,GPIO43/U0TXD*%
%TO.N,unconnected-(U1-GPIO43{slash}U0TXD-Pad43)*%
X68326000Y-44196000D03*
%TO.P,U1,44,GND*%
%TO.N,GND*%
X68326000Y-41656000D03*
%TD*%
D20*
%TO.P,J5,1,1*%
%TO.N,unconnected-(J5-Pad1)*%
X37770000Y-80534999D03*
%TO.P,J5,2,2*%
%TO.N,/CANL*%
X37770000Y-77764999D03*
%TO.P,J5,3,3*%
%TO.N,GND*%
X37770000Y-74995000D03*
%TO.P,J5,4,4*%
%TO.N,unconnected-(J5-Pad4)*%
X37770000Y-72225000D03*
%TO.P,J5,5,5*%
%TO.N,unconnected-(J5-Pad5)*%
X37770000Y-69455001D03*
%TO.P,J5,6,6*%
%TO.N,unconnected-(J5-Pad6)*%
X35230000Y-79150001D03*
%TO.P,J5,7,7*%
%TO.N,/CANH*%
X35230000Y-76380001D03*
%TO.P,J5,8,8*%
%TO.N,unconnected-(J5-Pad8)*%
X35230000Y-73610001D03*
%TO.P,J5,9,9*%
%TO.N,+5V*%
X35230000Y-70840002D03*
%TD*%
D10*
%TO.P,J7,1,Pin_1*%
%TO.N,Net-(J7-Pin_1)*%
X119142500Y-108040000D03*
D11*
%TO.P,J7,2,Pin_2*%
%TO.N,Net-(J7-Pin_2)*%
X119142500Y-102960000D03*
%TD*%
D24*
%TO.P,U2,1,D*%
%TO.N,/CANTX*%
X36511000Y-52705000D03*
%TO.P,U2,2,GND*%
%TO.N,GND*%
X36511000Y-51435000D03*
%TO.P,U2,3,VCC*%
%TO.N,+3V3*%
X36511000Y-50165000D03*
%TO.P,U2,4,R*%
%TO.N,/CANRX*%
X36511000Y-48895000D03*
%TO.P,U2,5,Vref*%
%TO.N,unconnected-(U2-Vref-Pad5)*%
X31561000Y-48895000D03*
%TO.P,U2,6,CANL*%
%TO.N,/CANL*%
X31561000Y-50165000D03*
%TO.P,U2,7,CANH*%
%TO.N,/CANH*%
X31561000Y-51435000D03*
%TO.P,U2,8,Rs*%
%TO.N,Net-(U2-Rs)*%
X31561000Y-52705000D03*
%TD*%
D25*
%TO.P,J3,1,1*%
%TO.N,/A*%
X82780000Y-28500000D03*
%TO.P,J3,2,2*%
%TO.N,/B*%
X85320000Y-28500000D03*
%TO.P,J3,3,3*%
%TO.N,/Z*%
X87860000Y-28500000D03*
%TO.P,J3,4,4*%
%TO.N,GND*%
X90400000Y-28500000D03*
%TD*%
D13*
%TO.P,C4,1*%
%TO.N,GND*%
X86575000Y-51500000D03*
%TO.P,C4,2*%
%TO.N,Net-(IC1-CAP)*%
X85025000Y-51500000D03*
%TD*%
%TO.P,C7,1*%
%TO.N,+3V3*%
X73900000Y-75000000D03*
%TO.P,C7,2*%
%TO.N,GND*%
X72350000Y-75000000D03*
%TD*%
D21*
%TO.P,R1,1*%
%TO.N,Net-(IC1-GPIO{slash}SDO)*%
X76600000Y-46700000D03*
%TO.P,R1,2*%
%TO.N,+3V3*%
X76600000Y-45050000D03*
%TD*%
D26*
%TO.P,IC2,1,A1*%
%TO.N,/GPIO4*%
X77449500Y-60175000D03*
%TO.P,IC2,2,VCCA*%
%TO.N,+3V3*%
X77449500Y-60825000D03*
%TO.P,IC2,3,A2*%
%TO.N,/GPIO5*%
X77449500Y-61475000D03*
%TO.P,IC2,4,A3*%
%TO.N,/GPIO6*%
X77449500Y-62125000D03*
%TO.P,IC2,5,A4*%
%TO.N,/GPIO7*%
X77449500Y-62775000D03*
%TO.P,IC2,6,A5*%
%TO.N,/GPIO15*%
X77449500Y-63425000D03*
%TO.P,IC2,7,A6*%
%TO.N,/GPIO16*%
X77449500Y-64075000D03*
%TO.P,IC2,8,A7*%
%TO.N,/GPIO17*%
X77449500Y-64725000D03*
%TO.P,IC2,9,A8*%
%TO.N,/GPIO18*%
X77449500Y-65375000D03*
%TO.P,IC2,10,OE*%
%TO.N,+3V3*%
X77449500Y-66025000D03*
%TO.P,IC2,11,GND*%
%TO.N,GND*%
X83325500Y-66025000D03*
%TO.P,IC2,12,B8*%
%TO.N,/A*%
X83325500Y-65375000D03*
%TO.P,IC2,13,B7*%
%TO.N,/J1-M2-14*%
X83325500Y-64725000D03*
%TO.P,IC2,14,B6*%
%TO.N,/J1-M1-14*%
X83325500Y-64075000D03*
%TO.P,IC2,15,B5*%
%TO.N,/J1-M2-6*%
X83325500Y-63425000D03*
%TO.P,IC2,16,B4*%
%TO.N,/J1-M1-6*%
X83325500Y-62775000D03*
%TO.P,IC2,17,B3*%
%TO.N,/J2-10*%
X83325500Y-62125000D03*
%TO.P,IC2,18,B2*%
%TO.N,/J2-9*%
X83325500Y-61475000D03*
%TO.P,IC2,19,VCCB*%
%TO.N,+5V*%
X83325500Y-60825000D03*
%TO.P,IC2,20,B1*%
%TO.N,/J2-8*%
X83325500Y-60175000D03*
%TD*%
D27*
%TO.P,C1,1*%
%TO.N,GND*%
X35532000Y-97536000D03*
%TO.P,C1,2*%
%TO.N,+5V*%
X32032000Y-97536000D03*
%TD*%
D21*
%TO.P,R3,1*%
%TO.N,/DAC_SDA*%
X74000000Y-52600000D03*
%TO.P,R3,2*%
%TO.N,+3V3*%
X74000000Y-50950000D03*
%TD*%
D26*
%TO.P,IC3,1,A1*%
%TO.N,/GPIO8*%
X77462000Y-73875000D03*
%TO.P,IC3,2,VCCA*%
%TO.N,+3V3*%
X77462000Y-74525000D03*
%TO.P,IC3,3,A2*%
%TO.N,/GPIO9*%
X77462000Y-75175000D03*
%TO.P,IC3,4,A3*%
%TO.N,/GPIO10*%
X77462000Y-75825000D03*
%TO.P,IC3,5,A4*%
%TO.N,/GPIO11*%
X77462000Y-76475000D03*
%TO.P,IC3,6,A5*%
%TO.N,/GPIO12*%
X77462000Y-77125000D03*
%TO.P,IC3,7,A6*%
%TO.N,/GPIO48*%
X77462000Y-77775000D03*
%TO.P,IC3,8,A7*%
%TO.N,/GPIO47*%
X77462000Y-78425000D03*
%TO.P,IC3,9,A8*%
%TO.N,unconnected-(IC3-A8-Pad9)*%
X77462000Y-79075000D03*
%TO.P,IC3,10,OE*%
%TO.N,+3V3*%
X77462000Y-79725000D03*
%TO.P,IC3,11,GND*%
%TO.N,GND*%
X83338000Y-79725000D03*
%TO.P,IC3,12,B8*%
%TO.N,unconnected-(IC3-B8-Pad12)*%
X83338000Y-79075000D03*
%TO.P,IC3,13,B7*%
%TO.N,/GPIO47 Reversing Contactor*%
X83338000Y-78425000D03*
%TO.P,IC3,14,B6*%
%TO.N,/GPIO48 5V*%
X83338000Y-77775000D03*
%TO.P,IC3,15,B5*%
%TO.N,/GPIO12 5V*%
X83338000Y-77125000D03*
%TO.P,IC3,16,B4*%
%TO.N,/GPIO11 5V*%
X83338000Y-76475000D03*
%TO.P,IC3,17,B3*%
%TO.N,/GPIO10 5V*%
X83338000Y-75825000D03*
%TO.P,IC3,18,B2*%
%TO.N,/Z*%
X83338000Y-75175000D03*
%TO.P,IC3,19,VCCB*%
%TO.N,+5V*%
X83338000Y-74525000D03*
%TO.P,IC3,20,B1*%
%TO.N,/B*%
X83338000Y-73875000D03*
%TD*%
D25*
%TO.P,J4,1,1*%
%TO.N,/GPIO10 5V*%
X121500000Y-77260000D03*
%TO.P,J4,2,2*%
%TO.N,/GPIO11 5V*%
X121500000Y-79800000D03*
%TO.P,J4,3,3*%
%TO.N,/GPIO12 5V*%
X121500000Y-82340000D03*
%TO.P,J4,4,4*%
%TO.N,/GPIO48 5V*%
X121500000Y-84880000D03*
%TD*%
D28*
%TO.P,C9,1*%
%TO.N,GND*%
X38800000Y-46050000D03*
%TO.P,C9,2*%
%TO.N,+3V3*%
X38800000Y-47600000D03*
%TD*%
D29*
%TO.N,+5V*%
X83100000Y-48600000D03*
X86300000Y-73300000D03*
X87500000Y-59400000D03*
X83700000Y-50700000D03*
%TO.N,GND*%
X73000000Y-59800000D03*
X38600000Y-51400000D03*
X85200000Y-67800000D03*
X34900000Y-56300000D03*
X89300000Y-60700000D03*
X87600000Y-51400000D03*
X76900000Y-51100000D03*
X87700000Y-48300000D03*
X83400000Y-82000000D03*
X82800000Y-50700000D03*
X72300000Y-73825000D03*
X40100000Y-46050000D03*
X87700000Y-49900000D03*
X89200000Y-73500000D03*
%TO.N,+3V3*%
X38600000Y-50165000D03*
X75000000Y-45600000D03*
X72850000Y-50825000D03*
X74550000Y-74025000D03*
X74500000Y-59600000D03*
X77400000Y-82000000D03*
X72700000Y-47875000D03*
X76200000Y-67800000D03*
X40100000Y-47600000D03*
%TO.N,/J2-9*%
X104800000Y-52100000D03*
%TO.N,/J2-10*%
X110600000Y-50200000D03*
%TO.N,/Z*%
X93200000Y-70460466D03*
%TO.N,/A*%
X89400000Y-66400000D03*
%TO.N,/B*%
X91200000Y-66400000D03*
%TO.N,/GPIO48*%
X74000000Y-81400000D03*
%TO.N,/GPIO47*%
X74800000Y-81800000D03*
%TD*%
D30*
%TO.N,+5V*%
X86250000Y-74600000D02*
X86250000Y-73350000D01*
D31*
X85025000Y-49900000D02*
X84500000Y-49900000D01*
D30*
X86400000Y-60500000D02*
X87500000Y-59400000D01*
X83474000Y-60726000D02*
X83375000Y-60825000D01*
X86250000Y-74600000D02*
X83413000Y-74600000D01*
D31*
X85025000Y-48300000D02*
X83400000Y-48300000D01*
X83400000Y-48300000D02*
X83100000Y-48600000D01*
D30*
X83413000Y-74600000D02*
X83338000Y-74525000D01*
X86400000Y-60800000D02*
X86400000Y-60500000D01*
D31*
X84500000Y-49900000D02*
X83700000Y-50700000D01*
D30*
X83375000Y-60825000D02*
X83287500Y-60825000D01*
X81637500Y-50050000D02*
X84875000Y-50050000D01*
X86375000Y-60825000D02*
X86400000Y-60800000D01*
X81637500Y-49550000D02*
X83775000Y-49550000D01*
X84875000Y-50050000D02*
X85025000Y-49900000D01*
X83775000Y-49550000D02*
X85025000Y-48300000D01*
X86250000Y-73350000D02*
X86300000Y-73300000D01*
X83325500Y-60825000D02*
X86375000Y-60825000D01*
D31*
%TO.N,GND*%
X38800000Y-46050000D02*
X40100000Y-46050000D01*
D30*
X86575000Y-48300000D02*
X87700000Y-48300000D01*
X83287500Y-66025000D02*
X85062500Y-67800000D01*
X83300000Y-79725000D02*
X83300000Y-81900000D01*
X87800000Y-74600000D02*
X88100000Y-74600000D01*
X82650000Y-50550000D02*
X82800000Y-50700000D01*
X88100000Y-74600000D02*
X89200000Y-73500000D01*
X78762500Y-50550000D02*
X77450000Y-50550000D01*
D31*
X38565000Y-51435000D02*
X38600000Y-51400000D01*
D30*
X83300000Y-81900000D02*
X83400000Y-82000000D01*
X77450000Y-50550000D02*
X76900000Y-51100000D01*
X89200000Y-60800000D02*
X89300000Y-60700000D01*
X72400000Y-73925000D02*
X72400000Y-74950000D01*
D31*
X86550000Y-51400000D02*
X87600000Y-51400000D01*
D30*
X81637500Y-50550000D02*
X82650000Y-50550000D01*
X72400000Y-74950000D02*
X72350000Y-75000000D01*
X86575000Y-49900000D02*
X87700000Y-49900000D01*
X73000000Y-60800000D02*
X73000000Y-59800000D01*
X87950000Y-60800000D02*
X89200000Y-60800000D01*
X81637500Y-50550000D02*
X80450000Y-50550000D01*
X85062500Y-67800000D02*
X85200000Y-67800000D01*
D31*
X36511000Y-51435000D02*
X38565000Y-51435000D01*
D30*
X80450000Y-50550000D02*
X80200000Y-50300000D01*
D31*
X33725000Y-56300000D02*
X34900000Y-56300000D01*
D30*
X72300000Y-73825000D02*
X72400000Y-73925000D01*
%TO.N,/DAC_SDA*%
X77187500Y-52625000D02*
X78762500Y-51050000D01*
X73191000Y-51816000D02*
X74000000Y-52625000D01*
X68326000Y-51816000D02*
X73191000Y-51816000D01*
X74000000Y-52625000D02*
X77187500Y-52625000D01*
%TO.N,/J2-6*%
X95808149Y-53100000D02*
X109670599Y-39237550D01*
X80950000Y-51737500D02*
X82312500Y-53100000D01*
X109670599Y-39237550D02*
X111960600Y-39237550D01*
X82312500Y-53100000D02*
X95808149Y-53100000D01*
X80450000Y-51737500D02*
X80950000Y-51737500D01*
%TO.N,/J2-5*%
X90574950Y-39237550D02*
X105090601Y-39237550D01*
X105090601Y-39237550D02*
X107380602Y-39237550D01*
X80950000Y-48862500D02*
X90574950Y-39237550D01*
X80450000Y-48862500D02*
X80950000Y-48862500D01*
%TO.N,/DAC_SCL*%
X73726000Y-49276000D02*
X73975000Y-49525000D01*
X73975000Y-49525000D02*
X74500000Y-50050000D01*
X68326000Y-49276000D02*
X73726000Y-49276000D01*
X74500000Y-50050000D02*
X78762500Y-50050000D01*
%TO.N,/GPIO6*%
X72400000Y-63000000D02*
X75200000Y-63000000D01*
X70800000Y-59600000D02*
X70800000Y-61400000D01*
X49310000Y-58200000D02*
X69400000Y-58200000D01*
X76000000Y-62200000D02*
X76689250Y-62200000D01*
X70800000Y-61400000D02*
X72400000Y-63000000D01*
X75200000Y-63000000D02*
X76000000Y-62200000D01*
X45466000Y-54356000D02*
X49310000Y-58200000D01*
X76764250Y-62125000D02*
X77487500Y-62125000D01*
X76689250Y-62200000D02*
X76764250Y-62125000D01*
X69400000Y-58200000D02*
X70800000Y-59600000D01*
%TO.N,/GPIO9*%
X75625000Y-75175000D02*
X77500000Y-75175000D01*
X74800000Y-76000000D02*
X75625000Y-75175000D01*
X45466000Y-77216000D02*
X46682000Y-76000000D01*
X46682000Y-76000000D02*
X74800000Y-76000000D01*
%TO.N,/GPIO8*%
X49070000Y-73200000D02*
X76825000Y-73200000D01*
X45466000Y-69596000D02*
X49070000Y-73200000D01*
X76825000Y-73200000D02*
X77500000Y-73875000D01*
%TO.N,/GPIO4*%
X70800000Y-53000000D02*
X77415700Y-59615700D01*
X49190000Y-53000000D02*
X70800000Y-53000000D01*
X45466000Y-49276000D02*
X49190000Y-53000000D01*
X77415700Y-59615700D02*
X77415700Y-60175000D01*
%TO.N,/J2-8*%
X114250600Y-39237550D02*
X113013050Y-38000000D01*
X84900500Y-58600000D02*
X94888150Y-58600000D01*
X83325500Y-60175000D02*
X84900500Y-58600000D01*
X113013050Y-38000000D02*
X105248049Y-38000000D01*
X105248049Y-38000000D02*
X103945599Y-36697550D01*
X94888150Y-58600000D02*
X114250600Y-39237550D01*
%TO.N,/GPIO5*%
X71400000Y-57400000D02*
X71400000Y-61000000D01*
X69600000Y-55600000D02*
X71400000Y-57400000D01*
X49250000Y-55600000D02*
X69600000Y-55600000D01*
X45466000Y-51816000D02*
X49250000Y-55600000D01*
X71400000Y-61000000D02*
X72600000Y-62200000D01*
X75200000Y-62200000D02*
X75925000Y-61475000D01*
X75925000Y-61475000D02*
X77487500Y-61475000D01*
X72600000Y-62200000D02*
X75200000Y-62200000D01*
%TO.N,+3V3*%
X77400000Y-79787000D02*
X77462000Y-79725000D01*
D31*
X72700000Y-47875000D02*
X73975000Y-47875000D01*
D30*
X74550000Y-60800000D02*
X74550000Y-59650000D01*
X74550000Y-74025000D02*
X75125000Y-74600000D01*
X77400000Y-82000000D02*
X77500000Y-81900000D01*
X73900000Y-75000000D02*
X73900000Y-74675000D01*
X74925000Y-60825000D02*
X77415700Y-60825001D01*
D31*
X36511000Y-50165000D02*
X38600000Y-50165000D01*
D30*
X74900000Y-60800000D02*
X74925000Y-60825000D01*
X75125000Y-74600000D02*
X77425000Y-74600000D01*
X74550000Y-59650000D02*
X74500000Y-59600000D01*
D31*
X75400000Y-45200000D02*
X76450000Y-45200000D01*
X76450000Y-45200000D02*
X76600000Y-45050000D01*
X73000000Y-50975000D02*
X72850000Y-50825000D01*
D30*
X76200000Y-67274500D02*
X76200000Y-67800000D01*
X73900000Y-74675000D02*
X74550000Y-74025000D01*
D31*
X40100000Y-47600000D02*
X38800000Y-47600000D01*
X74000000Y-50975000D02*
X73000000Y-50975000D01*
D30*
X77425000Y-74600000D02*
X77500000Y-74525000D01*
D31*
X75000000Y-45600000D02*
X75400000Y-45200000D01*
D30*
X77400000Y-82000000D02*
X77400000Y-79787000D01*
X77449500Y-66025000D02*
X76200000Y-67274500D01*
%TO.N,/J2-9*%
X95299000Y-61601000D02*
X104800000Y-52100000D01*
X85940534Y-61601000D02*
X95299000Y-61601000D01*
X83325500Y-61475000D02*
X85814534Y-61475000D01*
X85814534Y-61475000D02*
X85940534Y-61601000D01*
X106235600Y-36697550D02*
X108525600Y-36697550D01*
%TO.N,/J1-M2-6*%
X104065701Y-63425000D02*
X111860700Y-55630001D01*
X83325500Y-63425000D02*
X104065701Y-63425000D01*
%TO.N,/GPIO7*%
X69400000Y-60800000D02*
X72400000Y-63800000D01*
X45466000Y-56896000D02*
X49370000Y-60800000D01*
X49370000Y-60800000D02*
X69400000Y-60800000D01*
X72400000Y-63800000D02*
X75200000Y-63800000D01*
X75200000Y-63800000D02*
X76225000Y-62775000D01*
X76225000Y-62775000D02*
X77487500Y-62775000D01*
%TO.N,/J1-M1-14*%
X106185700Y-64075000D02*
X111860700Y-58400000D01*
X83325500Y-64075000D02*
X106185700Y-64075000D01*
%TO.N,/GPIO10*%
X72600000Y-76800000D02*
X74800000Y-76800000D01*
X75775000Y-75825000D02*
X77500000Y-75825000D01*
X71000000Y-78400000D02*
X72600000Y-76800000D01*
X46822000Y-78400000D02*
X71000000Y-78400000D01*
X74800000Y-76800000D02*
X75775000Y-75825000D01*
X45466000Y-79756000D02*
X46822000Y-78400000D01*
%TO.N,/J1-M1-6*%
X101945701Y-62775000D02*
X111860700Y-52860001D01*
X83325500Y-62775000D02*
X101945701Y-62775000D01*
%TO.N,/J2-10*%
X98675000Y-62125000D02*
X110600000Y-50200000D01*
X110815601Y-36697550D02*
X113105599Y-36697550D01*
X83325500Y-62125000D02*
X98675000Y-62125000D01*
%TO.N,/GPIO12 5V*%
X117560000Y-78400000D02*
X121500000Y-82340000D01*
X83338000Y-77125000D02*
X84349880Y-77125000D01*
X84349880Y-77125000D02*
X85624880Y-78400000D01*
X85624880Y-78400000D02*
X117560000Y-78400000D01*
%TO.N,/GPIO10 5V*%
X84414190Y-75852000D02*
X88446276Y-75852000D01*
X88598276Y-75700000D02*
X119940000Y-75700000D01*
X84356345Y-75794155D02*
X84414190Y-75852000D01*
X119940000Y-75700000D02*
X121500000Y-77260000D01*
X88446276Y-75852000D02*
X88598276Y-75700000D01*
X84325500Y-75825000D02*
X84356345Y-75794155D01*
X83338000Y-75825000D02*
X84325500Y-75825000D01*
%TO.N,/GPIO11 5V*%
X83338000Y-76475000D02*
X84337690Y-76475000D01*
X84337690Y-76475000D02*
X84862690Y-77000000D01*
X84862690Y-77000000D02*
X118700000Y-77000000D01*
X118700000Y-77000000D02*
X121500000Y-79800000D01*
%TO.N,/Z*%
X84375000Y-75175000D02*
X84601000Y-75401000D01*
X83338000Y-75175000D02*
X84375000Y-75175000D01*
X88259466Y-75401000D02*
X93200000Y-70460466D01*
X84601000Y-75401000D02*
X88259466Y-75401000D01*
%TO.N,/GPIO48 5V*%
X86287070Y-79700000D02*
X116320000Y-79700000D01*
X84362070Y-77775000D02*
X86287070Y-79700000D01*
X116320000Y-79700000D02*
X121500000Y-84880000D01*
X83338000Y-77775000D02*
X84362070Y-77775000D01*
%TO.N,/J1-M2-14*%
X83325500Y-64725000D02*
X108305700Y-64725000D01*
X108305700Y-64725000D02*
X111860700Y-61170000D01*
%TO.N,/A*%
X88375000Y-65375000D02*
X89400000Y-66400000D01*
X83325500Y-65375000D02*
X88375000Y-65375000D01*
%TO.N,/B*%
X83725000Y-73875000D02*
X91200000Y-66400000D01*
X83338000Y-73875000D02*
X83725000Y-73875000D01*
%TO.N,/GPIO12*%
X69652000Y-82679562D02*
X69652000Y-82548000D01*
X69652000Y-82548000D02*
X73800000Y-78400000D01*
X68978000Y-83222000D02*
X69109562Y-83222000D01*
X73800000Y-78400000D02*
X74800000Y-78400000D01*
X46702000Y-83600000D02*
X68600000Y-83600000D01*
X68600000Y-83600000D02*
X68978000Y-83222000D01*
X45466000Y-84836000D02*
X46702000Y-83600000D01*
X76075000Y-77125000D02*
X77500000Y-77125000D01*
X74800000Y-78400000D02*
X76075000Y-77125000D01*
X69109562Y-83222000D02*
X69652000Y-82679562D01*
%TO.N,/GPIO18*%
X76462810Y-65375000D02*
X77487500Y-65375000D01*
X71400000Y-70800000D02*
X75135810Y-67064190D01*
X75135810Y-66702000D02*
X76462810Y-65375000D01*
X45466000Y-67056000D02*
X49210000Y-70800000D01*
X75135810Y-67064190D02*
X75135810Y-66702000D01*
X49210000Y-70800000D02*
X71400000Y-70800000D01*
%TO.N,/GPIO17*%
X45466000Y-64516000D02*
X49350000Y-68400000D01*
X49350000Y-68400000D02*
X72000000Y-68400000D01*
X72000000Y-68400000D02*
X74149000Y-66251000D01*
X74949000Y-66251000D02*
X76475000Y-64725000D01*
X76475000Y-64725000D02*
X77487500Y-64725000D01*
X74149000Y-66251000D02*
X74949000Y-66251000D01*
%TO.N,/GPIO11*%
X75925000Y-76475000D02*
X77500000Y-76475000D01*
X46762000Y-81000000D02*
X69800000Y-81000000D01*
X45466000Y-82296000D02*
X46762000Y-81000000D01*
X73200000Y-77600000D02*
X74800000Y-77600000D01*
X74800000Y-77600000D02*
X75925000Y-76475000D01*
X69800000Y-81000000D02*
X73200000Y-77600000D01*
%TO.N,/CANTX*%
X42100000Y-58294000D02*
X42100000Y-86550960D01*
X36511000Y-52705000D02*
X42100000Y-58294000D01*
X42100000Y-86550960D02*
X45462320Y-89913280D01*
%TO.N,/CANRX*%
X44140000Y-55549001D02*
X44140000Y-86050000D01*
X39895000Y-48895000D02*
X41300000Y-50300000D01*
X36511000Y-48895000D02*
X39895000Y-48895000D01*
X41300000Y-50300000D02*
X41300000Y-52709001D01*
X41300000Y-52709001D02*
X44140000Y-55549001D01*
X44140000Y-86050000D02*
X45466000Y-87376000D01*
%TO.N,Net-(U2-Rs)*%
X31561000Y-52705000D02*
X32075000Y-53219000D01*
X32075000Y-53219000D02*
X32075000Y-56300000D01*
%TO.N,/CANL*%
X29800000Y-71200000D02*
X29809000Y-71209000D01*
X31561000Y-50165000D02*
X30586001Y-50165000D01*
X29800000Y-50951001D02*
X29800000Y-71200000D01*
X34154700Y-76825405D02*
X34784596Y-77455301D01*
X35865353Y-77265353D02*
X36364999Y-77764999D01*
X30586001Y-50165000D02*
X29800000Y-50951001D01*
X35675404Y-77455301D02*
X35865353Y-77265353D01*
X29809000Y-71596811D02*
X34154700Y-75942511D01*
X36364999Y-77764999D02*
X37770000Y-77764999D01*
X29809000Y-71209000D02*
X29809000Y-71596811D01*
X34784596Y-77455301D02*
X35675404Y-77455301D01*
X34154700Y-75942511D02*
X34154700Y-76825405D01*
%TO.N,/CANH*%
X30260000Y-71410001D02*
X35230000Y-76380001D01*
X30586001Y-51435000D02*
X30260000Y-51761001D01*
X31561000Y-51435000D02*
X30586001Y-51435000D01*
X30260000Y-51761001D02*
X30260000Y-71410001D01*
%TO.N,/GPIO48*%
X77500000Y-77775000D02*
X76225000Y-77775000D01*
X76225000Y-77775000D02*
X75149000Y-78851000D01*
X75149000Y-78851000D02*
X74749000Y-78851000D01*
X74749000Y-78851000D02*
X74000000Y-79600000D01*
X74000000Y-79600000D02*
X74000000Y-81400000D01*
%TO.N,/GPIO47*%
X77500000Y-78425000D02*
X76375000Y-78425000D01*
X74800000Y-80000000D02*
X74800000Y-81800000D01*
X76375000Y-78425000D02*
X74800000Y-80000000D01*
%TO.N,/GPIO16*%
X74706250Y-65800000D02*
X76431250Y-64075000D01*
X49290000Y-65800000D02*
X74706250Y-65800000D01*
X76431250Y-64075000D02*
X77487500Y-64075000D01*
X45466000Y-61976000D02*
X49290000Y-65800000D01*
%TO.N,/GPIO15*%
X76764250Y-63425000D02*
X76758155Y-63418905D01*
X75200000Y-64600000D02*
X70800000Y-64600000D01*
X76375000Y-63425000D02*
X75200000Y-64600000D01*
X77449500Y-63425000D02*
X76375000Y-63425000D01*
X49230000Y-63200000D02*
X45466000Y-59436000D01*
X70800000Y-64600000D02*
X69400000Y-63200000D01*
X77487500Y-63425000D02*
X76764250Y-63425000D01*
X69400000Y-63200000D02*
X49230000Y-63200000D01*
%TO.N,Net-(IC1-CAP)*%
X84900000Y-51500000D02*
X85000000Y-51400000D01*
X81637500Y-51050000D02*
X82087500Y-51500000D01*
X82087500Y-51500000D02*
X84900000Y-51500000D01*
%TO.N,Net-(IC1-GPIO{slash}SDO)*%
X76600000Y-46700000D02*
X76600000Y-47387500D01*
X76600000Y-47387500D02*
X78762500Y-49550000D01*
%TO.N,/GPIO47 Reversing Contactor*%
X84325500Y-78425000D02*
X88910000Y-83009500D01*
X88910000Y-83009500D02*
X88910000Y-88490000D01*
X83338000Y-78425000D02*
X84325500Y-78425000D01*
D32*
%TO.N,Net-(J6-Pin_2)*%
X111082500Y-82700000D02*
X119142500Y-90760000D01*
X102320000Y-82700000D02*
X111082500Y-82700000D01*
X96530000Y-88490000D02*
X102320000Y-82700000D01*
%TO.N,Net-(J6-Pin_1)*%
X96530000Y-91147452D02*
X102577452Y-85100000D01*
X96530000Y-96110000D02*
X96530000Y-91147452D01*
X102577452Y-85100000D02*
X108402500Y-85100000D01*
X108402500Y-85100000D02*
X119142500Y-95840000D01*
%TO.N,Net-(J7-Pin_2)*%
X106690000Y-90507500D02*
X119142500Y-102960000D01*
X106690000Y-88490000D02*
X106690000Y-90507500D01*
%TO.N,Net-(J7-Pin_1)*%
X119142500Y-106022500D02*
X119142500Y-108040000D01*
X101610000Y-88490000D02*
X119142500Y-106022500D01*
%TO.N,Net-(J8-Pin_1)*%
X101610000Y-102707500D02*
X119142500Y-120240000D01*
X101610000Y-96110000D02*
X101610000Y-102707500D01*
%TO.N,Net-(J8-Pin_2)*%
X106690000Y-102707500D02*
X119142500Y-115160000D01*
X106690000Y-96110000D02*
X106690000Y-102707500D01*
%TD*%
%TA.AperFunction,Conductor*%
%TO.N,+5V*%
G36*
X84702816Y-47853383D02*
G01*
X84707204Y-47857074D01*
X85021080Y-48293165D01*
X85023132Y-48301882D01*
X85021080Y-48306835D01*
X84707204Y-48742925D01*
X84699590Y-48747638D01*
X84693877Y-48747145D01*
X84132869Y-48552727D01*
X84126174Y-48546780D01*
X84125000Y-48541672D01*
X84125000Y-48058327D01*
X84128427Y-48050054D01*
X84132865Y-48047274D01*
X84693877Y-47852854D01*
X84702816Y-47853383D01*
G37*
%TD.AperFunction*%
%TD*%
%TA.AperFunction,Conductor*%
%TO.N,GND*%
G36*
X86907006Y-49455135D02*
G01*
X86912974Y-49458496D01*
X87469041Y-49771644D01*
X87474568Y-49778690D01*
X87475000Y-49781839D01*
X87475000Y-50018160D01*
X87471573Y-50026433D01*
X87469041Y-50028355D01*
X86907008Y-50344863D01*
X86898118Y-50345936D01*
X86891771Y-50341503D01*
X86665000Y-50026433D01*
X86578918Y-49906834D01*
X86576867Y-49898118D01*
X86578919Y-49893165D01*
X86659046Y-49781839D01*
X86891772Y-49458494D01*
X86899385Y-49453783D01*
X86907006Y-49455135D01*
G37*
%TD.AperFunction*%
%TD*%
%TA.AperFunction,Conductor*%
%TO.N,+5V*%
G36*
X84585628Y-48117982D02*
G01*
X85020783Y-48297264D01*
X85027127Y-48303584D01*
X85027411Y-48304338D01*
X85182896Y-48764639D01*
X85182297Y-48773573D01*
X85176293Y-48779190D01*
X84408302Y-49097702D01*
X84399347Y-49097706D01*
X84395547Y-49095168D01*
X84229924Y-48929545D01*
X84226497Y-48921272D01*
X84227459Y-48916625D01*
X84570434Y-48124154D01*
X84576865Y-48117922D01*
X84585628Y-48117982D01*
G37*
%TD.AperFunction*%
%TD*%
%TA.AperFunction,Conductor*%
%TO.N,+3V3*%
G36*
X73625528Y-47493229D02*
G01*
X73628203Y-47495397D01*
X73744874Y-47622738D01*
X73968758Y-47867096D01*
X73971820Y-47875511D01*
X73968758Y-47882904D01*
X73628206Y-48254599D01*
X73620090Y-48258384D01*
X73616662Y-48258025D01*
X73108783Y-48127261D01*
X73101625Y-48121880D01*
X73100000Y-48115931D01*
X73100000Y-47634068D01*
X73103427Y-47625795D01*
X73108780Y-47622739D01*
X73616664Y-47491974D01*
X73625528Y-47493229D01*
G37*
%TD.AperFunction*%
%TD*%
%TA.AperFunction,Conductor*%
%TO.N,/DAC_SCL*%
G36*
X73701947Y-49128344D02*
G01*
X73703676Y-49130328D01*
X73969059Y-49514941D01*
X73970937Y-49523697D01*
X73966074Y-49531216D01*
X73965649Y-49531496D01*
X73529067Y-49805517D01*
X73520238Y-49807012D01*
X73514594Y-49803900D01*
X73113194Y-49404430D01*
X73109747Y-49396165D01*
X73109747Y-49162196D01*
X73113174Y-49153923D01*
X73120931Y-49150507D01*
X73693533Y-49125284D01*
X73701947Y-49128344D01*
G37*
%TD.AperFunction*%
%TD*%
%TA.AperFunction,Conductor*%
%TO.N,+5V*%
G36*
X85933228Y-74158496D02*
G01*
X86246080Y-74593165D01*
X86248132Y-74601882D01*
X86246080Y-74606835D01*
X85933228Y-75041503D01*
X85925614Y-75046216D01*
X85917991Y-75044863D01*
X85355959Y-74728355D01*
X85350432Y-74721309D01*
X85350000Y-74718160D01*
X85350000Y-74481839D01*
X85353427Y-74473566D01*
X85355959Y-74471644D01*
X85917993Y-74155135D01*
X85926881Y-74154063D01*
X85933228Y-74158496D01*
G37*
%TD.AperFunction*%
%TD*%
%TA.AperFunction,Conductor*%
%TO.N,GND*%
G36*
X86907006Y-47855135D02*
G01*
X86912974Y-47858496D01*
X87469041Y-48171644D01*
X87474568Y-48178690D01*
X87475000Y-48181839D01*
X87475000Y-48418160D01*
X87471573Y-48426433D01*
X87469041Y-48428355D01*
X86907008Y-48744863D01*
X86898118Y-48745936D01*
X86891771Y-48741503D01*
X86665000Y-48426433D01*
X86578918Y-48306834D01*
X86576867Y-48298118D01*
X86578919Y-48293165D01*
X86659046Y-48181839D01*
X86891772Y-47858494D01*
X86899385Y-47853783D01*
X86907006Y-47855135D01*
G37*
%TD.AperFunction*%
%TD*%
%TA.AperFunction,Conductor*%
%TO.N,+5V*%
G36*
X86069725Y-60367517D02*
G01*
X86395855Y-60793284D01*
X86398166Y-60801936D01*
X86396235Y-60806989D01*
X86094759Y-61249270D01*
X86087267Y-61254176D01*
X86079670Y-61253049D01*
X86025178Y-61224561D01*
X86022326Y-61222465D01*
X86014397Y-61214536D01*
X86014392Y-61214532D01*
X85940175Y-61171682D01*
X85940171Y-61171680D01*
X85908310Y-61163144D01*
X85905917Y-61162212D01*
X85506279Y-60953282D01*
X85500535Y-60946412D01*
X85500000Y-60942913D01*
X85500000Y-60706596D01*
X85503427Y-60698323D01*
X85505640Y-60696587D01*
X86054382Y-60364620D01*
X86063233Y-60363271D01*
X86069725Y-60367517D01*
G37*
%TD.AperFunction*%
%TD*%
%TA.AperFunction,Conductor*%
%TO.N,+3V3*%
G36*
X37775593Y-49913843D02*
G01*
X37783436Y-49918162D01*
X37786000Y-49925471D01*
X37786000Y-50404528D01*
X37782573Y-50412801D01*
X37775592Y-50416156D01*
X37338717Y-50464698D01*
X37333431Y-50464067D01*
X36540278Y-50175997D01*
X36533672Y-50169952D01*
X36533275Y-50161006D01*
X36539320Y-50154400D01*
X36540278Y-50154003D01*
X37333435Y-49865931D01*
X37338713Y-49865301D01*
X37775593Y-49913843D01*
G37*
%TD.AperFunction*%
%TD*%
%TA.AperFunction,Conductor*%
%TO.N,/CANH*%
G36*
X30591105Y-51305023D02*
G01*
X31552300Y-51433040D01*
X31560048Y-51437529D01*
X31562422Y-51443757D01*
X31583475Y-51722424D01*
X31580681Y-51730931D01*
X31572689Y-51734972D01*
X31571813Y-51735005D01*
X30467105Y-51735518D01*
X30458831Y-51732095D01*
X30294469Y-51567733D01*
X30291042Y-51559460D01*
X30294469Y-51551187D01*
X30295169Y-51550541D01*
X30582041Y-51307694D01*
X30590567Y-51304966D01*
X30591105Y-51305023D01*
G37*
%TD.AperFunction*%
%TD*%
%TA.AperFunction,Conductor*%
%TO.N,Net-(IC1-CAP)*%
G36*
X84708228Y-51058496D02*
G01*
X85021080Y-51493165D01*
X85023132Y-51501882D01*
X85021080Y-51506835D01*
X84708228Y-51941503D01*
X84700614Y-51946216D01*
X84692991Y-51944863D01*
X84130959Y-51628355D01*
X84125432Y-51621309D01*
X84125000Y-51618160D01*
X84125000Y-51381839D01*
X84128427Y-51373566D01*
X84130959Y-51371644D01*
X84692993Y-51055135D01*
X84701881Y-51054063D01*
X84708228Y-51058496D01*
G37*
%TD.AperFunction*%
%TD*%
%TA.AperFunction,Conductor*%
%TO.N,+5V*%
G36*
X86811452Y-59925057D02*
G01*
X86977372Y-60090977D01*
X86980799Y-60099250D01*
X86980656Y-60101076D01*
X86852056Y-60915105D01*
X86847380Y-60922742D01*
X86838673Y-60924836D01*
X86837316Y-60924538D01*
X86404280Y-60802116D01*
X86397251Y-60796567D01*
X86396986Y-60796066D01*
X86329159Y-60659637D01*
X86168569Y-60336624D01*
X86167956Y-60327692D01*
X86172753Y-60321555D01*
X86796888Y-59923465D01*
X86805705Y-59921906D01*
X86811452Y-59925057D01*
G37*
%TD.AperFunction*%
%TD*%
%TA.AperFunction,Conductor*%
%TO.N,GND*%
G36*
X88482839Y-74046537D02*
G01*
X88483763Y-74047368D01*
X88649916Y-74213521D01*
X88653343Y-74221794D01*
X88651483Y-74228123D01*
X88255297Y-74844063D01*
X88247939Y-74849168D01*
X88239730Y-74847937D01*
X87804121Y-74603417D01*
X87798584Y-74596379D01*
X87798327Y-74595254D01*
X87717244Y-74137342D01*
X87719176Y-74128600D01*
X87726725Y-74123783D01*
X87727518Y-74123670D01*
X88474249Y-74044007D01*
X88482839Y-74046537D01*
G37*
%TD.AperFunction*%
%TD*%
%TA.AperFunction,Conductor*%
%TO.N,+5V*%
G36*
X84635622Y-49517412D02*
G01*
X85019005Y-49893145D01*
X85022515Y-49901383D01*
X85020484Y-49908091D01*
X84718769Y-50350722D01*
X84711277Y-50355628D01*
X84705631Y-50355306D01*
X84133230Y-50177555D01*
X84126346Y-50171828D01*
X84125000Y-50166381D01*
X84125000Y-49930516D01*
X84128427Y-49922243D01*
X84129248Y-49921495D01*
X84619990Y-49516741D01*
X84628551Y-49514122D01*
X84635622Y-49517412D01*
G37*
%TD.AperFunction*%
%TD*%
%TA.AperFunction,Conductor*%
%TO.N,/DAC_SCL*%
G36*
X74448865Y-49383707D02*
G01*
X74454126Y-49389439D01*
X74681924Y-49922799D01*
X74682864Y-49927394D01*
X74682864Y-50159315D01*
X74679437Y-50167588D01*
X74671164Y-50171015D01*
X74667830Y-50170530D01*
X73853559Y-49928435D01*
X73846605Y-49922792D01*
X73845678Y-49913886D01*
X73845763Y-49913614D01*
X73972100Y-49530754D01*
X73977947Y-49523973D01*
X73979792Y-49523232D01*
X74439953Y-49382843D01*
X74448865Y-49383707D01*
G37*
%TD.AperFunction*%
%TD*%
%TA.AperFunction,Conductor*%
%TO.N,+5V*%
G36*
X84597945Y-49576191D02*
G01*
X85018103Y-49893550D01*
X85022639Y-49901271D01*
X85021622Y-49907901D01*
X84803478Y-50367668D01*
X84796835Y-50373674D01*
X84791915Y-50374311D01*
X84415870Y-50342303D01*
X84408589Y-50338918D01*
X84067394Y-49997723D01*
X84063967Y-49989450D01*
X84067394Y-49981177D01*
X84068435Y-49980253D01*
X84583674Y-49576318D01*
X84592300Y-49573912D01*
X84597945Y-49576191D01*
G37*
%TD.AperFunction*%
%TD*%
%TA.AperFunction,Conductor*%
%TO.N,GND*%
G36*
X73126187Y-59878427D02*
G01*
X73128283Y-59881279D01*
X73428349Y-60455243D01*
X73429145Y-60464163D01*
X73425169Y-60469895D01*
X73007189Y-60795401D01*
X72998556Y-60797781D01*
X72992811Y-60795401D01*
X72574830Y-60469895D01*
X72570408Y-60462108D01*
X72571649Y-60455245D01*
X72871717Y-59881278D01*
X72878587Y-59875535D01*
X72882086Y-59875000D01*
X73117914Y-59875000D01*
X73126187Y-59878427D01*
G37*
%TD.AperFunction*%
%TD*%
%TA.AperFunction,Conductor*%
%TO.N,+5V*%
G36*
X86376187Y-73678427D02*
G01*
X86378283Y-73681279D01*
X86678349Y-74255243D01*
X86679145Y-74264163D01*
X86675169Y-74269895D01*
X86257189Y-74595401D01*
X86248556Y-74597781D01*
X86242811Y-74595401D01*
X85824830Y-74269895D01*
X85820408Y-74262108D01*
X85821649Y-74255245D01*
X86121717Y-73681278D01*
X86128587Y-73675535D01*
X86132086Y-73675000D01*
X86367914Y-73675000D01*
X86376187Y-73678427D01*
G37*
%TD.AperFunction*%
%TD*%
%TA.AperFunction,Conductor*%
%TO.N,GND*%
G36*
X88282006Y-60355135D02*
G01*
X88287974Y-60358496D01*
X88844041Y-60671644D01*
X88849568Y-60678690D01*
X88850000Y-60681839D01*
X88850000Y-60918160D01*
X88846573Y-60926433D01*
X88844041Y-60928355D01*
X88282008Y-61244863D01*
X88273118Y-61245936D01*
X88266771Y-61241503D01*
X88040000Y-60926433D01*
X87953918Y-60806834D01*
X87951867Y-60798118D01*
X87953919Y-60793165D01*
X88034046Y-60681839D01*
X88266772Y-60358494D01*
X88274385Y-60353783D01*
X88282006Y-60355135D01*
G37*
%TD.AperFunction*%
%TD*%
%TA.AperFunction,Conductor*%
%TO.N,+3V3*%
G36*
X74676187Y-59878427D02*
G01*
X74678283Y-59881279D01*
X74978349Y-60455243D01*
X74979145Y-60464163D01*
X74975169Y-60469895D01*
X74557189Y-60795401D01*
X74548556Y-60797781D01*
X74542811Y-60795401D01*
X74124830Y-60469895D01*
X74120408Y-60462108D01*
X74121649Y-60455245D01*
X74421717Y-59881278D01*
X74428587Y-59875535D01*
X74432086Y-59875000D01*
X74667914Y-59875000D01*
X74676187Y-59878427D01*
G37*
%TD.AperFunction*%
%TD*%
%TA.AperFunction,Conductor*%
%TO.N,GND*%
G36*
X87465431Y-51148228D02*
G01*
X87472941Y-51153103D01*
X87475000Y-51159731D01*
X87475000Y-51642787D01*
X87471573Y-51651060D01*
X87468555Y-51653240D01*
X86965265Y-51906272D01*
X86956335Y-51906927D01*
X86951463Y-51903809D01*
X86579441Y-51505821D01*
X86576295Y-51497437D01*
X86577422Y-51492807D01*
X86796140Y-51033111D01*
X86802788Y-51027115D01*
X86808834Y-51026636D01*
X87465431Y-51148228D01*
G37*
%TD.AperFunction*%
%TD*%
%TA.AperFunction,Conductor*%
%TO.N,/CANL*%
G36*
X30591105Y-50035023D02*
G01*
X31552300Y-50163040D01*
X31560048Y-50167529D01*
X31562422Y-50173757D01*
X31583475Y-50452424D01*
X31580681Y-50460931D01*
X31572689Y-50464972D01*
X31571813Y-50465005D01*
X30467105Y-50465518D01*
X30458831Y-50462095D01*
X30294469Y-50297733D01*
X30291042Y-50289460D01*
X30294469Y-50281187D01*
X30295169Y-50280541D01*
X30582041Y-50037694D01*
X30590567Y-50034966D01*
X30591105Y-50035023D01*
G37*
%TD.AperFunction*%
%TD*%
%TA.AperFunction,Conductor*%
%TO.N,+3V3*%
G36*
X76184150Y-44721229D02*
G01*
X76597016Y-45046858D01*
X76601390Y-45054672D01*
X76601429Y-45055054D01*
X76633922Y-45437309D01*
X76631208Y-45445843D01*
X76623255Y-45449958D01*
X76622264Y-45450000D01*
X75736700Y-45450000D01*
X75728427Y-45446573D01*
X75725000Y-45438300D01*
X75725000Y-44957135D01*
X75728427Y-44948862D01*
X75731343Y-44946733D01*
X76171549Y-44720013D01*
X76180472Y-44719273D01*
X76184150Y-44721229D01*
G37*
%TD.AperFunction*%
%TD*%
%TA.AperFunction,Conductor*%
%TO.N,+3V3*%
G36*
X74895618Y-60364621D02*
G01*
X75444355Y-60696586D01*
X75449660Y-60703801D01*
X75449999Y-60706597D01*
X75449999Y-60942913D01*
X75446572Y-60951186D01*
X75443720Y-60953282D01*
X74870329Y-61253049D01*
X74861409Y-61253845D01*
X74855240Y-61249270D01*
X74553765Y-60806989D01*
X74551937Y-60798223D01*
X74554145Y-60793284D01*
X74620546Y-60706597D01*
X74880274Y-60367516D01*
X74888025Y-60363033D01*
X74895618Y-60364621D01*
G37*
%TD.AperFunction*%
%TD*%
%TA.AperFunction,Conductor*%
%TO.N,+3V3*%
G36*
X74286546Y-74125151D02*
G01*
X74452520Y-74291125D01*
X74455947Y-74299398D01*
X74455851Y-74300893D01*
X74351713Y-75109182D01*
X74347257Y-75116949D01*
X74338614Y-75119291D01*
X74337057Y-75118982D01*
X73904267Y-75002050D01*
X73897174Y-74996584D01*
X73896926Y-74996129D01*
X73660160Y-74538275D01*
X73659404Y-74529352D01*
X73664124Y-74523125D01*
X74271848Y-74123646D01*
X74280642Y-74121966D01*
X74286546Y-74125151D01*
G37*
%TD.AperFunction*%
%TD*%
%TA.AperFunction,Conductor*%
%TO.N,GND*%
G36*
X72525624Y-74078427D02*
G01*
X72528068Y-74082007D01*
X72779223Y-74655561D01*
X72779403Y-74664514D01*
X72775695Y-74669485D01*
X72357200Y-74995392D01*
X72348567Y-74997772D01*
X72342808Y-74995381D01*
X71925781Y-74669616D01*
X71921371Y-74661823D01*
X71922984Y-74654322D01*
X72189970Y-74214934D01*
X72271583Y-74080624D01*
X72278808Y-74075334D01*
X72281582Y-74075000D01*
X72517351Y-74075000D01*
X72525624Y-74078427D01*
G37*
%TD.AperFunction*%
%TD*%
%TA.AperFunction,Conductor*%
%TO.N,Net-(IC1-GPIO{slash}SDO)*%
G36*
X76607656Y-46706152D02*
G01*
X77007833Y-47034377D01*
X77012056Y-47042273D01*
X77009832Y-47050363D01*
X76768460Y-47377951D01*
X76767314Y-47379284D01*
X76600757Y-47545841D01*
X76592484Y-47549268D01*
X76584211Y-47545841D01*
X76583086Y-47544537D01*
X76242462Y-47084776D01*
X76240291Y-47076089D01*
X76243425Y-47069708D01*
X76591801Y-46707091D01*
X76600002Y-46703500D01*
X76607656Y-46706152D01*
G37*
%TD.AperFunction*%
%TD*%
M02*
