<?xml version="1.0" standalone="no"?>
 <!DOCTYPE svg PUBLIC "-//W3C//DTD SVG 1.1//EN" 
 "http://www.w3.org/Graphics/SVG/1.1/DTD/svg11.dtd"> 
<svg
  xmlns:svg="http://www.w3.org/2000/svg"
  xmlns="http://www.w3.org/2000/svg"
  xmlns:xlink="http://www.w3.org/1999/xlink"
  version="1.1"
  width="297.0022mm" height="210.0072mm" viewBox="0.0000 0.0000 297.0022 210.0072">
<title>SVG Image created as MotorControllerNode-B_Cu.svg date 2026/03/26 21:14:06 </title>
  <desc>Image generated by PCBNEW </desc>
<g style="fill:#000000; fill-opacity:1.0000;stroke:#000000; stroke-opacity:1.0000;
stroke-linecap:round; stroke-linejoin:round;"
 transform="translate(0 0) scale(1 1)">
<path style="fill:#000000; fill-opacity:1.0000; stroke:none;fill-rule:evenodd;"
d="M 118.1925,121.4400
118.0968,121.4210
118.0157,121.3668
117.9615,121.2857
117.9425,121.1900
117.9425,119.2900
117.9615,119.1943
118.0157,119.1132
118.0968,119.0590
118.1925,119.0400
120.0925,119.0400
120.1882,119.0590
120.2693,119.1132
120.3235,119.1943
120.3425,119.2900
120.3425,121.1900
120.3235,121.2857
120.2693,121.3668
120.1882,121.4210
120.0925,121.4400
Z" /> 
</g>
<g style="fill:#000000; fill-opacity:1.0000; stroke:none;">
<circle cx="119.1425" cy="115.1600" r="1.2000" /> 
</g>
<g style="fill:#000000; fill-opacity:1.0000; stroke:none;">
<circle cx="105.0906" cy="39.2375" r="0.7747" /> 
</g>
<g style="fill:#000000; fill-opacity:1.0000; stroke:none;">
<circle cx="107.3806" cy="39.2375" r="0.7747" /> 
</g>
<g style="fill:#000000; fill-opacity:1.0000; stroke:none;">
<circle cx="109.6706" cy="39.2375" r="0.7747" /> 
</g>
<g style="fill:#000000; fill-opacity:1.0000; stroke:none;">
<circle cx="111.9606" cy="39.2375" r="0.7747" /> 
</g>
<g style="fill:#000000; fill-opacity:1.0000; stroke:none;">
<circle cx="114.2506" cy="39.2375" r="0.7747" /> 
</g>
<g style="fill:#000000; fill-opacity:1.0000; stroke:none;">
<circle cx="103.9456" cy="36.6975" r="0.7747" /> 
</g>
<g style="fill:#000000; fill-opacity:1.0000; stroke:none;">
<circle cx="106.2356" cy="36.6975" r="0.7747" /> 
</g>
<g style="fill:#000000; fill-opacity:1.0000; stroke:none;">
<circle cx="108.5256" cy="36.6975" r="0.7747" /> 
</g>
<g style="fill:#000000; fill-opacity:1.0000; stroke:none;">
<circle cx="110.8156" cy="36.6975" r="0.7747" /> 
</g>
<g style="fill:#000000; fill-opacity:1.0000; stroke:none;">
<circle cx="113.1056" cy="36.6975" r="0.7747" /> 
</g>
<g style="fill:#000000; fill-opacity:1.0000; stroke:none;">
<circle cx="105.0906" cy="34.1576" r="0.7747" /> 
</g>
<g style="fill:#000000; fill-opacity:1.0000; stroke:none;">
<circle cx="107.3806" cy="34.1576" r="0.7747" /> 
</g>
<g style="fill:#000000; fill-opacity:1.0000; stroke:none;">
<circle cx="109.6706" cy="34.1576" r="0.7747" /> 
</g>
<g style="fill:#000000; fill-opacity:1.0000; stroke:none;">
<circle cx="111.9606" cy="34.1576" r="0.7747" /> 
</g>
<g style="fill:#000000; fill-opacity:1.0000; stroke:none;">
<circle cx="114.2506" cy="34.1576" r="0.7747" /> 
<path style="fill:#000000; fill-opacity:1.0000; stroke:none;fill-rule:evenodd;"
d="M 118.1925,97.0400
118.0968,97.0210
118.0157,96.9668
117.9615,96.8857
117.9425,96.7900
117.9425,94.8900
117.9615,94.7943
118.0157,94.7132
118.0968,94.6590
118.1925,94.6400
120.0925,94.6400
120.1882,94.6590
120.2693,94.7132
120.3235,94.7943
120.3425,94.8900
120.3425,96.7900
120.3235,96.8857
120.2693,96.9668
120.1882,97.0210
120.0925,97.0400
Z" /> 
</g>
<g style="fill:#000000; fill-opacity:1.0000; stroke:none;">
<circle cx="119.1425" cy="90.7600" r="1.2000" /> 
</g>
<g style="fill:#000000; fill-opacity:1.0000; stroke:none;">
<circle cx="88.9100" cy="96.1100" r="0.7620" /> 
</g>
<g style="fill:#000000; fill-opacity:1.0000; stroke:none;">
<circle cx="96.5300" cy="96.1100" r="0.7620" /> 
</g>
<g style="fill:#000000; fill-opacity:1.0000; stroke:none;">
<circle cx="101.6100" cy="96.1100" r="0.7620" /> 
</g>
<g style="fill:#000000; fill-opacity:1.0000; stroke:none;">
<circle cx="106.6900" cy="96.1100" r="0.7620" /> 
</g>
<g style="fill:#000000; fill-opacity:1.0000; stroke:none;">
<circle cx="106.6900" cy="88.4900" r="0.7620" /> 
</g>
<g style="fill:#000000; fill-opacity:1.0000; stroke:none;">
<circle cx="101.6100" cy="88.4900" r="0.7620" /> 
</g>
<g style="fill:#000000; fill-opacity:1.0000; stroke:none;">
<circle cx="96.5300" cy="88.4900" r="0.7620" /> 
</g>
<g style="fill:#000000; fill-opacity:1.0000; stroke:none;">
<circle cx="88.9100" cy="88.4900" r="0.7620" /> 
</g>
<g style="fill:#000000; fill-opacity:1.0000; stroke:none;">
<circle cx="111.8607" cy="52.8600" r="0.7493" /> 
</g>
<g style="fill:#000000; fill-opacity:1.0000; stroke:none;">
<circle cx="111.8607" cy="55.6300" r="0.7493" /> 
</g>
<g style="fill:#000000; fill-opacity:1.0000; stroke:none;">
<circle cx="111.8607" cy="58.4000" r="0.7493" /> 
</g>
<g style="fill:#000000; fill-opacity:1.0000; stroke:none;">
<circle cx="111.8607" cy="61.1700" r="0.7493" /> 
</g>
<g style="fill:#000000; fill-opacity:1.0000; stroke:none;">
<circle cx="111.8607" cy="63.9400" r="0.7493" /> 
</g>
<g style="fill:#000000; fill-opacity:1.0000; stroke:none;">
<circle cx="114.4007" cy="54.2450" r="0.7493" /> 
</g>
<g style="fill:#000000; fill-opacity:1.0000; stroke:none;">
<circle cx="114.4007" cy="57.0150" r="0.7493" /> 
</g>
<g style="fill:#000000; fill-opacity:1.0000; stroke:none;">
<circle cx="114.4007" cy="59.7850" r="0.7493" /> 
</g>
<g style="fill:#000000; fill-opacity:1.0000; stroke:none;">
<circle cx="114.4007" cy="62.5550" r="0.7493" /> 
<path style="fill:#000000; fill-opacity:1.0000; stroke:none;fill-rule:evenodd;"
d="M 44.4660,41.0560
46.4660,41.0560
46.4660,42.2560
44.4660,42.2560
Z" /> 
</g>
<g style="fill:none; 
stroke:#000000; stroke-width:1.2000; stroke-opacity:1; 
stroke-linecap:round; stroke-linejoin:round;">
<path d="M45.8660 44.1960
L45.0660 44.1960
" />
<path d="M45.8660 46.7360
L45.0660 46.7360
" />
<path d="M45.8660 49.2760
L45.0660 49.2760
" />
<path d="M45.8660 51.8160
L45.0660 51.8160
" />
<path d="M45.8660 54.3560
L45.0660 54.3560
" />
<path d="M45.8660 56.8960
L45.0660 56.8960
" />
<path d="M45.8660 59.4360
L45.0660 59.4360
" />
<path d="M45.8660 61.9760
L45.0660 61.9760
" />
<path d="M45.8660 64.5160
L45.0660 64.5160
" />
<path d="M45.8660 67.0560
L45.0660 67.0560
" />
<path d="M45.8660 69.5960
L45.0660 69.5960
" />
<path d="M45.8660 72.1360
L45.0660 72.1360
" />
<path d="M45.8660 74.6760
L45.0660 74.6760
" />
<path d="M45.8660 77.2160
L45.0660 77.2160
" />
<path d="M45.8660 79.7560
L45.0660 79.7560
" />
<path d="M45.8660 82.2960
L45.0660 82.2960
" />
<path d="M45.8660 84.8360
L45.0660 84.8360
" />
<path d="M45.8660 87.3760
L45.0660 87.3760
" />
<path d="M45.8623 89.9133
L45.0623 89.9133
" />
<path d="M45.8623 92.4533
L45.0623 92.4533
" />
<path d="M45.8623 94.9933
L45.0623 94.9933
" />
<path d="M68.7260 94.9960
L67.9260 94.9960
" />
<path d="M68.7260 92.4560
L67.9260 92.4560
" />
<path d="M68.7260 89.9160
L67.9260 89.9160
" />
<path d="M68.7260 87.3760
L67.9260 87.3760
" />
<path d="M68.7260 84.8360
L67.9260 84.8360
" />
<path d="M68.7260 82.2960
L67.9260 82.2960
" />
<path d="M68.7260 79.7560
L67.9260 79.7560
" />
<path d="M68.7260 77.2160
L67.9260 77.2160
" />
<path d="M68.7260 74.6760
L67.9260 74.6760
" />
<path d="M68.7260 72.1360
L67.9260 72.1360
" />
<path d="M68.7260 69.5960
L67.9260 69.5960
" />
<path d="M68.7260 67.0560
L67.9260 67.0560
" />
<path d="M68.7260 64.5160
L67.9260 64.5160
" />
<path d="M68.7260 61.9760
L67.9260 61.9760
" />
<path d="M68.7260 59.4360
L67.9260 59.4360
" />
<path d="M68.7260 56.8960
L67.9260 56.8960
" />
<path d="M68.7260 54.3560
L67.9260 54.3560
" />
<path d="M68.7260 51.8160
L67.9260 51.8160
" />
<path d="M68.7260 49.2760
L67.9260 49.2760
" />
<path d="M68.7260 46.7360
L67.9260 46.7360
" />
<path d="M68.7260 44.1960
L67.9260 44.1960
" />
<path d="M68.7260 41.6560
L67.9260 41.6560
" />
</g>
<g style="fill:#000000; fill-opacity:1.0000; stroke:none;">
<circle cx="37.7700" cy="80.5350" r="0.7493" /> 
</g>
<g style="fill:#000000; fill-opacity:1.0000; stroke:none;">
<circle cx="37.7700" cy="77.7650" r="0.7493" /> 
</g>
<g style="fill:#000000; fill-opacity:1.0000; stroke:none;">
<circle cx="37.7700" cy="74.9950" r="0.7493" /> 
</g>
<g style="fill:#000000; fill-opacity:1.0000; stroke:none;">
<circle cx="37.7700" cy="72.2250" r="0.7493" /> 
</g>
<g style="fill:#000000; fill-opacity:1.0000; stroke:none;">
<circle cx="37.7700" cy="69.4550" r="0.7493" /> 
</g>
<g style="fill:#000000; fill-opacity:1.0000; stroke:none;">
<circle cx="35.2300" cy="79.1500" r="0.7493" /> 
</g>
<g style="fill:#000000; fill-opacity:1.0000; stroke:none;">
<circle cx="35.2300" cy="76.3800" r="0.7493" /> 
</g>
<g style="fill:#000000; fill-opacity:1.0000; stroke:none;">
<circle cx="35.2300" cy="73.6100" r="0.7493" /> 
</g>
<g style="fill:#000000; fill-opacity:1.0000; stroke:none;">
<circle cx="35.2300" cy="70.8400" r="0.7493" /> 
<path style="fill:#000000; fill-opacity:1.0000; stroke:none;fill-rule:evenodd;"
d="M 118.1925,109.2400
118.0968,109.2210
118.0157,109.1668
117.9615,109.0857
117.9425,108.9900
117.9425,107.0900
117.9615,106.9943
118.0157,106.9132
118.0968,106.8590
118.1925,106.8400
120.0925,106.8400
120.1882,106.8590
120.2693,106.9132
120.3235,106.9943
120.3425,107.0900
120.3425,108.9900
120.3235,109.0857
120.2693,109.1668
120.1882,109.2210
120.0925,109.2400
Z" /> 
</g>
<g style="fill:#000000; fill-opacity:1.0000; stroke:none;">
<circle cx="119.1425" cy="102.9600" r="1.2000" /> 
</g>
<g style="fill:#000000; fill-opacity:1.0000; stroke:none;">
<circle cx="82.7800" cy="28.5000" r="0.8001" /> 
</g>
<g style="fill:#000000; fill-opacity:1.0000; stroke:none;">
<circle cx="85.3200" cy="28.5000" r="0.8001" /> 
</g>
<g style="fill:#000000; fill-opacity:1.0000; stroke:none;">
<circle cx="87.8600" cy="28.5000" r="0.8001" /> 
</g>
<g style="fill:#000000; fill-opacity:1.0000; stroke:none;">
<circle cx="90.4000" cy="28.5000" r="0.8001" /> 
</g>
<g style="fill:#000000; fill-opacity:1.0000; stroke:none;">
<circle cx="35.5320" cy="97.5360" r="0.8000" /> 
</g>
<g style="fill:#000000; fill-opacity:1.0000; stroke:none;">
<circle cx="32.0320" cy="97.5360" r="0.8000" /> 
</g>
<g style="fill:#000000; fill-opacity:1.0000; stroke:none;">
<circle cx="121.5000" cy="77.2600" r="0.8001" /> 
</g>
<g style="fill:#000000; fill-opacity:1.0000; stroke:none;">
<circle cx="121.5000" cy="79.8000" r="0.8001" /> 
</g>
<g style="fill:#000000; fill-opacity:1.0000; stroke:none;">
<circle cx="121.5000" cy="82.3400" r="0.8001" /> 
</g>
<g style="fill:#000000; fill-opacity:1.0000; stroke:none;">
<circle cx="121.5000" cy="84.8800" r="0.8001" /> 
</g>
<g style="fill:#000000; fill-opacity:1.0000; stroke:none;">
<circle cx="83.1000" cy="48.6000" r="0.3000" /> 
</g>
<g style="fill:#000000; fill-opacity:1.0000; stroke:none;">
<circle cx="86.3000" cy="73.3000" r="0.3000" /> 
</g>
<g style="fill:#000000; fill-opacity:1.0000; stroke:none;">
<circle cx="87.5000" cy="59.4000" r="0.3000" /> 
</g>
<g style="fill:#000000; fill-opacity:1.0000; stroke:none;">
<circle cx="83.7000" cy="50.7000" r="0.3000" /> 
</g>
<g style="fill:#000000; fill-opacity:1.0000; stroke:none;">
<circle cx="73.0000" cy="59.8000" r="0.3000" /> 
</g>
<g style="fill:#000000; fill-opacity:1.0000; stroke:none;">
<circle cx="38.6000" cy="51.4000" r="0.3000" /> 
</g>
<g style="fill:#000000; fill-opacity:1.0000; stroke:none;">
<circle cx="85.2000" cy="67.8000" r="0.3000" /> 
</g>
<g style="fill:#000000; fill-opacity:1.0000; stroke:none;">
<circle cx="34.9000" cy="56.3000" r="0.3000" /> 
</g>
<g style="fill:#000000; fill-opacity:1.0000; stroke:none;">
<circle cx="89.3000" cy="60.7000" r="0.3000" /> 
</g>
<g style="fill:#000000; fill-opacity:1.0000; stroke:none;">
<circle cx="87.6000" cy="51.4000" r="0.3000" /> 
</g>
<g style="fill:#000000; fill-opacity:1.0000; stroke:none;">
<circle cx="76.9000" cy="51.1000" r="0.3000" /> 
</g>
<g style="fill:#000000; fill-opacity:1.0000; stroke:none;">
<circle cx="87.7000" cy="48.3000" r="0.3000" /> 
</g>
<g style="fill:#000000; fill-opacity:1.0000; stroke:none;">
<circle cx="83.4000" cy="82.0000" r="0.3000" /> 
</g>
<g style="fill:#000000; fill-opacity:1.0000; stroke:none;">
<circle cx="82.8000" cy="50.7000" r="0.3000" /> 
</g>
<g style="fill:#000000; fill-opacity:1.0000; stroke:none;">
<circle cx="72.3000" cy="73.8250" r="0.3000" /> 
</g>
<g style="fill:#000000; fill-opacity:1.0000; stroke:none;">
<circle cx="40.1000" cy="46.0500" r="0.3000" /> 
</g>
<g style="fill:#000000; fill-opacity:1.0000; stroke:none;">
<circle cx="87.7000" cy="49.9000" r="0.3000" /> 
</g>
<g style="fill:#000000; fill-opacity:1.0000; stroke:none;">
<circle cx="89.2000" cy="73.5000" r="0.3000" /> 
</g>
<g style="fill:#000000; fill-opacity:1.0000; stroke:none;">
<circle cx="38.6000" cy="50.1650" r="0.3000" /> 
</g>
<g style="fill:#000000; fill-opacity:1.0000; stroke:none;">
<circle cx="75.0000" cy="45.6000" r="0.3000" /> 
</g>
<g style="fill:#000000; fill-opacity:1.0000; stroke:none;">
<circle cx="72.8500" cy="50.8250" r="0.3000" /> 
</g>
<g style="fill:#000000; fill-opacity:1.0000; stroke:none;">
<circle cx="74.5500" cy="74.0250" r="0.3000" /> 
</g>
<g style="fill:#000000; fill-opacity:1.0000; stroke:none;">
<circle cx="74.5000" cy="59.6000" r="0.3000" /> 
</g>
<g style="fill:#000000; fill-opacity:1.0000; stroke:none;">
<circle cx="77.4000" cy="82.0000" r="0.3000" /> 
</g>
<g style="fill:#000000; fill-opacity:1.0000; stroke:none;">
<circle cx="72.7000" cy="47.8750" r="0.3000" /> 
</g>
<g style="fill:#000000; fill-opacity:1.0000; stroke:none;">
<circle cx="76.2000" cy="67.8000" r="0.3000" /> 
</g>
<g style="fill:#000000; fill-opacity:1.0000; stroke:none;">
<circle cx="40.1000" cy="47.6000" r="0.3000" /> 
</g>
<g style="fill:#000000; fill-opacity:1.0000; stroke:none;">
<circle cx="104.8000" cy="52.1000" r="0.3000" /> 
</g>
<g style="fill:#000000; fill-opacity:1.0000; stroke:none;">
<circle cx="110.6000" cy="50.2000" r="0.3000" /> 
</g>
<g style="fill:#000000; fill-opacity:1.0000; stroke:none;">
<circle cx="93.2000" cy="70.4605" r="0.3000" /> 
</g>
<g style="fill:#000000; fill-opacity:1.0000; stroke:none;">
<circle cx="89.4000" cy="66.4000" r="0.3000" /> 
</g>
<g style="fill:#000000; fill-opacity:1.0000; stroke:none;">
<circle cx="91.2000" cy="66.4000" r="0.3000" /> 
</g>
<g style="fill:#000000; fill-opacity:1.0000; stroke:none;">
<circle cx="74.0000" cy="81.4000" r="0.3000" /> 
</g>
<g style="fill:#000000; fill-opacity:1.0000; stroke:none;">
<circle cx="74.8000" cy="81.8000" r="0.3000" /> 
</g>
<g style="fill:none; 
stroke:#000000; stroke-width:0.2500; stroke-opacity:1; 
stroke-linecap:round; stroke-linejoin:round;">
<path d="M104.8000 52.1000
L106.2356 50.6644
" />
<path d="M106.2356 50.6644
L106.2356 36.6975
" />
<path d="M110.8156 49.9844
L110.8156 36.6975
" />
<path d="M110.6000 50.2000
L110.8156 49.9844
" />
<path d="M94.1000 69.5605
L94.1000 34.7400
" />
<path d="M94.1000 34.7400
L87.8600 28.5000
" />
<path d="M93.2000 70.4605
L94.1000 69.5605
" />
<path d="M90.5000 36.2200
L82.7800 28.5000
" />
<path d="M89.4000 66.4000
L90.5000 65.3000
" />
<path d="M90.5000 65.3000
L90.5000 36.2200
" />
<path d="M92.2000 35.3800
L85.3200 28.5000
" />
<path d="M91.2000 66.4000
L92.2000 65.4000
" />
<path d="M92.2000 65.4000
L92.2000 35.3800
" />
<path d="M68.3260 79.7560
L72.3560 79.7560
" />
<path d="M72.3560 79.7560
L74.0000 81.4000
" />
<path d="M74.3040 82.2960
L74.8000 81.8000
" />
<path d="M68.3260 82.2960
L74.3040 82.2960
" />
</g> 
</svg>
