M48
; DRILL file {KiCad 9.0.4} date 2025-08-26T16:37:07+1000
; FORMAT={-:-/ absolute / metric / decimal}
; #@! TF.CreationDate,2025-08-26T16:37:07+10:00
; #@! TF.GenerationSoftware,Kicad,Pcbnew,9.0.4
; #@! TF.FileFunction,Plated,1,2,PTH
FMAT,2
METRIC
; #@! TA.AperFunction,Plated,PTH,ViaDrill
T1C0.300
; #@! TA.AperFunction,Plated,PTH,ComponentDrill
T2C0.750
; #@! TA.AperFunction,Plated,PTH,ComponentDrill
T3C0.800
; #@! TA.AperFunction,Plated,PTH,ComponentDrill
T4C0.900
; #@! TA.AperFunction,Plated,PTH,ComponentDrill
T5C1.000
; #@! TA.AperFunction,Plated,PTH,ComponentDrill
T6C1.100
%
G90
G05
T1
X111.0Y-106.0
X112.0Y-97.0
X124.5Y-93.0
X126.0Y-93.0
X130.0Y-96.0
X142.0Y-94.5
X171.0Y-110.5
X173.0Y-112.5
X177.5Y-100.0
T2
X115.73Y-97.0
X115.96Y-105.5
X117.0Y-97.0
X117.23Y-105.5
X118.27Y-97.0
X118.5Y-105.5
T3
X122.039Y-83.356
X122.039Y-94.356
X122.19Y-89.0
X129.659Y-83.356
X129.659Y-94.356
X129.81Y-89.0
X136.3Y-78.097
X136.3Y-80.637
X136.3Y-83.177
X136.3Y-85.717
X136.3Y-88.257
X136.3Y-90.797
X136.3Y-93.337
X136.3Y-95.877
X136.3Y-98.417
X136.3Y-100.957
X136.3Y-103.497
X136.3Y-106.037
X136.3Y-108.577
X136.3Y-111.117
X136.3Y-113.657
X136.3Y-116.197
X136.3Y-118.737
X136.3Y-121.277
X136.3Y-123.817
X161.696Y-121.274
X161.696Y-123.814
X161.7Y-78.097
X161.7Y-80.637
X161.7Y-83.177
X161.7Y-85.717
X161.7Y-88.257
X161.7Y-90.797
X161.7Y-93.337
X161.7Y-95.877
X161.7Y-98.417
X161.7Y-100.957
X161.7Y-103.497
X161.7Y-106.037
X161.7Y-108.577
X161.7Y-111.117
X161.7Y-113.657
X161.7Y-116.197
X161.7Y-118.737
X169.19Y-94.853
X169.19Y-114.525
X176.81Y-94.853
X176.81Y-114.525
T4
X123.96Y-102.5
X126.5Y-102.5
T5
X107.0Y-74.0
X107.0Y-76.54
X107.0Y-79.08
X107.0Y-81.62
X107.0Y-94.96
X107.0Y-97.5
X107.0Y-100.04
X107.0Y-115.46
X107.0Y-118.0
X107.0Y-120.54
X120.225Y-124.5
X122.735Y-74.0
X122.765Y-124.5
X125.275Y-74.0
X171.46Y-83.0
X174.0Y-83.0
T6
X123.25Y-111.25
X123.25Y-115.75
X129.75Y-111.25
X129.75Y-115.75
M30
