G04 #@! TF.GenerationSoftware,KiCad,Pcbnew,9.0.4*
G04 #@! TF.CreationDate,2025-08-26T16:41:35+10:00*
G04 #@! TF.ProjectId,BrakeControllerDesign,4272616b-6543-46f6-9e74-726f6c6c6572,rev?*
G04 #@! TF.SameCoordinates,Original*
G04 #@! TF.FileFunction,Copper,L2,Bot*
G04 #@! TF.FilePolarity,Positive*
%FSLAX46Y46*%
G04 Gerber Fmt 4.6, Leading zero omitted, Abs format (unit mm)*
G04 Created by KiCad (PCBNEW 9.0.4) date 2025-08-26 16:41:35*
%MOMM*%
%LPD*%
G01*
G04 APERTURE LIST*
G04 #@! TA.AperFunction,ComponentPad*
%ADD10R,1.700000X1.700000*%
G04 #@! TD*
G04 #@! TA.AperFunction,ComponentPad*
%ADD11C,1.700000*%
G04 #@! TD*
G04 #@! TA.AperFunction,ComponentPad*
%ADD12R,1.050000X1.500000*%
G04 #@! TD*
G04 #@! TA.AperFunction,ComponentPad*
%ADD13O,1.050000X1.500000*%
G04 #@! TD*
G04 #@! TA.AperFunction,ComponentPad*
%ADD14C,2.000000*%
G04 #@! TD*
G04 #@! TA.AperFunction,ComponentPad*
%ADD15C,1.600000*%
G04 #@! TD*
G04 #@! TA.AperFunction,ComponentPad*
%ADD16R,1.800000X1.800000*%
G04 #@! TD*
G04 #@! TA.AperFunction,ComponentPad*
%ADD17C,1.800000*%
G04 #@! TD*
G04 #@! TA.AperFunction,ComponentPad*
%ADD18R,2.000000X1.200000*%
G04 #@! TD*
G04 #@! TA.AperFunction,ComponentPad*
%ADD19O,2.000000X1.200000*%
G04 #@! TD*
G04 #@! TA.AperFunction,ViaPad*
%ADD20C,0.600000*%
G04 #@! TD*
G04 #@! TA.AperFunction,Conductor*
%ADD21C,0.200000*%
G04 #@! TD*
G04 #@! TA.AperFunction,Conductor*
%ADD22C,0.400000*%
G04 #@! TD*
G04 APERTURE END LIST*
D10*
X107000000Y-120540000D03*
D11*
X107000000Y-118000000D03*
X107000000Y-115460000D03*
D10*
X174000000Y-83000000D03*
D11*
X171460000Y-83000000D03*
D12*
X115960000Y-105500000D03*
D13*
X117230000Y-105500000D03*
X118500000Y-105500000D03*
D10*
X125275000Y-74000000D03*
D11*
X122735000Y-74000000D03*
D14*
X123250000Y-111250000D03*
X129750000Y-111250000D03*
X123250000Y-115750000D03*
X129750000Y-115750000D03*
D10*
X120225000Y-124500000D03*
D11*
X122765000Y-124500000D03*
D15*
X169190000Y-94853000D03*
X176810000Y-94853000D03*
X129659000Y-94356000D03*
X122039000Y-94356000D03*
D16*
X123960000Y-102500000D03*
D17*
X126500000Y-102500000D03*
D12*
X115730000Y-97000000D03*
D13*
X117000000Y-97000000D03*
X118270000Y-97000000D03*
D15*
X169190000Y-114525000D03*
X176810000Y-114525000D03*
D10*
X107000000Y-100040000D03*
D11*
X107000000Y-97500000D03*
X107000000Y-94960000D03*
D18*
X136300000Y-78096560D03*
D19*
X136300000Y-80636560D03*
X136300000Y-83176560D03*
X136300000Y-85716560D03*
X136300000Y-88256560D03*
X136300000Y-90796560D03*
X136300000Y-93336560D03*
X136300000Y-95876560D03*
X136300000Y-98416560D03*
X136300000Y-100956560D03*
X136300000Y-103496560D03*
X136300000Y-106036560D03*
X136300000Y-108576560D03*
X136300000Y-111116560D03*
X136300000Y-113656560D03*
X136300000Y-116196560D03*
X136300000Y-118736560D03*
X136300000Y-121276560D03*
X136300000Y-123816560D03*
X161696320Y-123813840D03*
X161696320Y-121273840D03*
X161700000Y-118736560D03*
X161700000Y-116196560D03*
X161700000Y-113656560D03*
X161700000Y-111116560D03*
X161700000Y-108576560D03*
X161700000Y-106036560D03*
X161700000Y-103496560D03*
X161700000Y-100956560D03*
X161700000Y-98416560D03*
X161700000Y-95876560D03*
X161700000Y-93336560D03*
X161700000Y-90796560D03*
X161700000Y-88256560D03*
X161700000Y-85716560D03*
X161700000Y-83176560D03*
X161700000Y-80636560D03*
X161700000Y-78096560D03*
D15*
X129659000Y-83356000D03*
X122039000Y-83356000D03*
D10*
X107000000Y-81620000D03*
D11*
X107000000Y-79080000D03*
X107000000Y-76540000D03*
X107000000Y-74000000D03*
D15*
X129810000Y-89000000D03*
X122190000Y-89000000D03*
D20*
X112000000Y-97000000D03*
X111000000Y-106000000D03*
X142000000Y-94500000D03*
X173000000Y-112500000D03*
X130000000Y-96000000D03*
X124500000Y-93000000D03*
X126000000Y-93000000D03*
X177500000Y-100000000D03*
X171000000Y-110500000D03*
D21*
X122000000Y-94395000D02*
X122039000Y-94356000D01*
X122000000Y-98000000D02*
X122000000Y-94395000D01*
X126500000Y-102500000D02*
X122000000Y-98000000D01*
D22*
X110000000Y-118000000D02*
X107000000Y-118000000D01*
X111000000Y-119000000D02*
X110000000Y-118000000D01*
X122765000Y-124500000D02*
X120265000Y-122000000D01*
X120265000Y-122000000D02*
X113949000Y-122000000D01*
X136300000Y-123816560D02*
X123448440Y-123816560D01*
X111000000Y-119051000D02*
X111000000Y-119000000D01*
X123448440Y-123816560D02*
X122765000Y-124500000D01*
X113949000Y-122000000D02*
X111000000Y-119051000D01*
D21*
X115960000Y-103920000D02*
X115960000Y-105500000D01*
X107000000Y-94960000D02*
X115960000Y-103920000D01*
X176810000Y-93310000D02*
X166500000Y-83000000D01*
X166500000Y-78000000D02*
X162500000Y-74000000D01*
X151000000Y-74000000D02*
X125275000Y-74000000D01*
X162500000Y-74000000D02*
X152000000Y-74000000D01*
X176810000Y-94853000D02*
X176810000Y-93310000D01*
X166500000Y-83000000D02*
X166500000Y-78000000D01*
X152000000Y-74000000D02*
X151000000Y-74000000D01*
X174000000Y-83000000D02*
X162500000Y-71500000D01*
X125235000Y-71500000D02*
X122735000Y-74000000D01*
X162500000Y-71500000D02*
X125235000Y-71500000D01*
X112000000Y-97000000D02*
X115730000Y-97000000D01*
X107000000Y-115460000D02*
X111000000Y-111460000D01*
X111000000Y-111460000D02*
X111000000Y-106000000D01*
D22*
X118270000Y-85529767D02*
X125703207Y-78096560D01*
X118500000Y-105500000D02*
X118500000Y-97230000D01*
X125703207Y-78096560D02*
X136300000Y-78096560D01*
X173000000Y-112500000D02*
X160000000Y-112500000D01*
X118500000Y-97230000D02*
X118270000Y-97000000D01*
X160000000Y-112500000D02*
X142000000Y-94500000D01*
X118270000Y-97000000D02*
X118270000Y-85529767D01*
D21*
X160872000Y-82348560D02*
X161700000Y-83176560D01*
X129659000Y-83356000D02*
X130666440Y-82348560D01*
X130666440Y-82348560D02*
X160872000Y-82348560D01*
X130000000Y-96000000D02*
X135203440Y-90796560D01*
X123250000Y-111250000D02*
X129750000Y-111250000D01*
X135203440Y-90796560D02*
X136300000Y-90796560D01*
X124500000Y-97500000D02*
X130496560Y-103496560D01*
X124500000Y-93000000D02*
X124500000Y-97500000D01*
X130496560Y-103496560D02*
X136300000Y-103496560D01*
X130456560Y-100956560D02*
X136300000Y-100956560D01*
X126000000Y-93000000D02*
X126000000Y-96500000D01*
X126000000Y-96500000D02*
X130456560Y-100956560D01*
X175500000Y-98000000D02*
X163823440Y-98000000D01*
X163823440Y-98000000D02*
X161700000Y-95876560D01*
X177500000Y-100000000D02*
X175500000Y-98000000D01*
X164000000Y-103500000D02*
X164000000Y-100000000D01*
X164000000Y-100000000D02*
X162416560Y-98416560D01*
X171000000Y-110500000D02*
X164000000Y-103500000D01*
X162416560Y-98416560D02*
X161700000Y-98416560D01*
G04 #@! TA.AperFunction,Conductor*
G36*
X179442539Y-70520185D02*
G01*
X179488294Y-70572989D01*
X179499500Y-70624500D01*
X179499500Y-126375500D01*
X179479815Y-126442539D01*
X179427011Y-126488294D01*
X179375500Y-126499500D01*
X103624500Y-126499500D01*
X103557461Y-126479815D01*
X103511706Y-126427011D01*
X103500500Y-126375500D01*
X103500500Y-115353713D01*
X105649500Y-115353713D01*
X105649500Y-115566286D01*
X105678597Y-115750001D01*
X105682754Y-115776243D01*
X105745614Y-115969706D01*
X105748444Y-115978414D01*
X105844951Y-116167820D01*
X105969890Y-116339786D01*
X106120213Y-116490109D01*
X106292182Y-116615050D01*
X106300946Y-116619516D01*
X106351742Y-116667491D01*
X106368536Y-116735312D01*
X106345998Y-116801447D01*
X106300946Y-116840484D01*
X106292182Y-116844949D01*
X106120213Y-116969890D01*
X105969890Y-117120213D01*
X105844951Y-117292179D01*
X105748444Y-117481585D01*
X105682753Y-117683760D01*
X105661141Y-117820212D01*
X105649500Y-117893713D01*
X105649500Y-118106287D01*
X105682754Y-118316243D01*
X105735592Y-118478862D01*
X105748444Y-118518414D01*
X105844951Y-118707820D01*
X105969890Y-118879786D01*
X106083818Y-118993714D01*
X106117303Y-119055037D01*
X106112319Y-119124729D01*
X106070447Y-119180662D01*
X106039471Y-119197577D01*
X105907912Y-119246646D01*
X105907906Y-119246649D01*
X105792812Y-119332809D01*
X105792809Y-119332812D01*
X105706649Y-119447906D01*
X105706645Y-119447913D01*
X105656403Y-119582620D01*
X105656401Y-119582627D01*
X105650000Y-119642155D01*
X105650000Y-120290000D01*
X106566988Y-120290000D01*
X106534075Y-120347007D01*
X106500000Y-120474174D01*
X106500000Y-120605826D01*
X106534075Y-120732993D01*
X106566988Y-120790000D01*
X105650000Y-120790000D01*
X105650000Y-121437844D01*
X105656401Y-121497372D01*
X105656403Y-121497379D01*
X105706645Y-121632086D01*
X105706649Y-121632093D01*
X105792809Y-121747187D01*
X105792812Y-121747190D01*
X105907906Y-121833350D01*
X105907913Y-121833354D01*
X106042620Y-121883596D01*
X106042627Y-121883598D01*
X106102155Y-121889999D01*
X106102172Y-121890000D01*
X106750000Y-121890000D01*
X106750000Y-120973012D01*
X106807007Y-121005925D01*
X106934174Y-121040000D01*
X107065826Y-121040000D01*
X107192993Y-121005925D01*
X107250000Y-120973012D01*
X107250000Y-121890000D01*
X107897828Y-121890000D01*
X107897844Y-121889999D01*
X107957372Y-121883598D01*
X107957379Y-121883596D01*
X108092086Y-121833354D01*
X108092093Y-121833350D01*
X108207187Y-121747190D01*
X108207190Y-121747187D01*
X108293350Y-121632093D01*
X108293354Y-121632086D01*
X108343596Y-121497379D01*
X108343598Y-121497372D01*
X108349999Y-121437844D01*
X108350000Y-121437827D01*
X108350000Y-120790000D01*
X107433012Y-120790000D01*
X107465925Y-120732993D01*
X107500000Y-120605826D01*
X107500000Y-120474174D01*
X107465925Y-120347007D01*
X107433012Y-120290000D01*
X108350000Y-120290000D01*
X108350000Y-119642172D01*
X108349999Y-119642155D01*
X108343598Y-119582627D01*
X108343596Y-119582620D01*
X108293354Y-119447913D01*
X108293350Y-119447906D01*
X108207190Y-119332812D01*
X108207187Y-119332809D01*
X108092093Y-119246649D01*
X108092088Y-119246646D01*
X107960528Y-119197577D01*
X107904595Y-119155705D01*
X107880178Y-119090241D01*
X107895030Y-119021968D01*
X107916175Y-118993720D01*
X108030104Y-118879792D01*
X108123229Y-118751614D01*
X108178558Y-118708949D01*
X108223547Y-118700500D01*
X109658481Y-118700500D01*
X109725520Y-118720185D01*
X109746162Y-118736819D01*
X110352641Y-119343298D01*
X110375691Y-119377791D01*
X110376353Y-119377438D01*
X110379222Y-119382806D01*
X110455887Y-119497545D01*
X113502454Y-122544112D01*
X113617192Y-122620777D01*
X113744667Y-122673578D01*
X113744672Y-122673580D01*
X113744676Y-122673580D01*
X113744677Y-122673581D01*
X113880003Y-122700500D01*
X113880006Y-122700500D01*
X113880007Y-122700500D01*
X119923481Y-122700500D01*
X119990520Y-122720185D01*
X120011162Y-122736819D01*
X120438681Y-123164338D01*
X120472166Y-123225661D01*
X120475000Y-123252019D01*
X120475000Y-124066988D01*
X120417993Y-124034075D01*
X120290826Y-124000000D01*
X120159174Y-124000000D01*
X120032007Y-124034075D01*
X119975000Y-124066988D01*
X119975000Y-123150000D01*
X119327155Y-123150000D01*
X119267627Y-123156401D01*
X119267620Y-123156403D01*
X119132913Y-123206645D01*
X119132906Y-123206649D01*
X119017812Y-123292809D01*
X119017809Y-123292812D01*
X118931649Y-123407906D01*
X118931645Y-123407913D01*
X118881403Y-123542620D01*
X118881401Y-123542627D01*
X118875000Y-123602155D01*
X118875000Y-124250000D01*
X119791988Y-124250000D01*
X119759075Y-124307007D01*
X119725000Y-124434174D01*
X119725000Y-124565826D01*
X119759075Y-124692993D01*
X119791988Y-124750000D01*
X118875000Y-124750000D01*
X118875000Y-125397844D01*
X118881401Y-125457372D01*
X118881403Y-125457379D01*
X118931645Y-125592086D01*
X118931649Y-125592093D01*
X119017809Y-125707187D01*
X119017812Y-125707190D01*
X119132906Y-125793350D01*
X119132913Y-125793354D01*
X119267620Y-125843596D01*
X119267627Y-125843598D01*
X119327155Y-125849999D01*
X119327172Y-125850000D01*
X119975000Y-125850000D01*
X119975000Y-124933012D01*
X120032007Y-124965925D01*
X120159174Y-125000000D01*
X120290826Y-125000000D01*
X120417993Y-124965925D01*
X120475000Y-124933012D01*
X120475000Y-125850000D01*
X121122828Y-125850000D01*
X121122844Y-125849999D01*
X121182372Y-125843598D01*
X121182379Y-125843596D01*
X121317086Y-125793354D01*
X121317093Y-125793350D01*
X121432187Y-125707190D01*
X121432190Y-125707187D01*
X121518350Y-125592093D01*
X121518354Y-125592086D01*
X121567422Y-125460529D01*
X121609293Y-125404595D01*
X121674757Y-125380178D01*
X121743030Y-125395030D01*
X121771285Y-125416181D01*
X121885213Y-125530109D01*
X122057179Y-125655048D01*
X122057181Y-125655049D01*
X122057184Y-125655051D01*
X122246588Y-125751557D01*
X122448757Y-125817246D01*
X122658713Y-125850500D01*
X122658714Y-125850500D01*
X122871286Y-125850500D01*
X122871287Y-125850500D01*
X123081243Y-125817246D01*
X123283412Y-125751557D01*
X123472816Y-125655051D01*
X123559471Y-125592093D01*
X123644786Y-125530109D01*
X123644788Y-125530106D01*
X123644792Y-125530104D01*
X123795104Y-125379792D01*
X123795106Y-125379788D01*
X123795109Y-125379786D01*
X123920048Y-125207820D01*
X123920047Y-125207820D01*
X123920051Y-125207816D01*
X124016557Y-125018412D01*
X124082246Y-124816243D01*
X124113065Y-124621662D01*
X124142994Y-124558527D01*
X124202306Y-124521596D01*
X124235538Y-124517060D01*
X134992795Y-124517060D01*
X135059834Y-124536745D01*
X135080476Y-124553378D01*
X135183072Y-124655974D01*
X135323212Y-124757792D01*
X135477555Y-124836433D01*
X135642299Y-124889962D01*
X135813389Y-124917060D01*
X135813390Y-124917060D01*
X136786610Y-124917060D01*
X136786611Y-124917060D01*
X136957701Y-124889962D01*
X137122445Y-124836433D01*
X137276788Y-124757792D01*
X137416928Y-124655974D01*
X137539414Y-124533488D01*
X137641232Y-124393348D01*
X137719873Y-124239005D01*
X137773402Y-124074261D01*
X137800500Y-123903171D01*
X137800500Y-123729949D01*
X137800069Y-123727229D01*
X160195820Y-123727229D01*
X160195820Y-123900451D01*
X160222918Y-124071541D01*
X160276447Y-124236285D01*
X160355088Y-124390628D01*
X160456906Y-124530768D01*
X160579392Y-124653254D01*
X160719532Y-124755072D01*
X160873875Y-124833713D01*
X161038619Y-124887242D01*
X161209709Y-124914340D01*
X161209710Y-124914340D01*
X162182930Y-124914340D01*
X162182931Y-124914340D01*
X162354021Y-124887242D01*
X162518765Y-124833713D01*
X162673108Y-124755072D01*
X162813248Y-124653254D01*
X162935734Y-124530768D01*
X163037552Y-124390628D01*
X163116193Y-124236285D01*
X163169722Y-124071541D01*
X163196820Y-123900451D01*
X163196820Y-123727229D01*
X163169722Y-123556139D01*
X163116193Y-123391395D01*
X163037552Y-123237052D01*
X162935734Y-123096912D01*
X162813248Y-122974426D01*
X162673108Y-122872608D01*
X162518765Y-122793967D01*
X162354021Y-122740438D01*
X162354019Y-122740437D01*
X162354018Y-122740437D01*
X162200104Y-122716060D01*
X162182931Y-122713340D01*
X161209709Y-122713340D01*
X161192536Y-122716060D01*
X161038622Y-122740437D01*
X160873872Y-122793968D01*
X160719531Y-122872608D01*
X160639576Y-122930699D01*
X160579392Y-122974426D01*
X160579390Y-122974428D01*
X160579389Y-122974428D01*
X160456908Y-123096909D01*
X160456908Y-123096910D01*
X160456906Y-123096912D01*
X160418335Y-123150000D01*
X160355088Y-123237051D01*
X160276448Y-123391392D01*
X160222917Y-123556142D01*
X160205958Y-123663222D01*
X160195820Y-123727229D01*
X137800069Y-123727229D01*
X137773402Y-123558859D01*
X137719873Y-123394115D01*
X137641232Y-123239772D01*
X137539414Y-123099632D01*
X137416928Y-122977146D01*
X137276788Y-122875328D01*
X137122445Y-122796687D01*
X136957701Y-122743158D01*
X136957699Y-122743157D01*
X136957698Y-122743157D01*
X136812655Y-122720185D01*
X136786611Y-122716060D01*
X135813389Y-122716060D01*
X135787345Y-122720185D01*
X135642302Y-122743157D01*
X135477552Y-122796688D01*
X135323211Y-122875328D01*
X135183073Y-122977145D01*
X135080476Y-123079742D01*
X135019153Y-123113226D01*
X134992795Y-123116060D01*
X123379445Y-123116060D01*
X123244118Y-123142978D01*
X123244115Y-123142979D01*
X123244113Y-123142979D01*
X123244112Y-123142980D01*
X123160780Y-123177496D01*
X123091313Y-123184964D01*
X123084389Y-123183509D01*
X123081243Y-123182753D01*
X122899993Y-123154046D01*
X122871287Y-123149500D01*
X122658713Y-123149500D01*
X122502227Y-123174284D01*
X122432934Y-123165329D01*
X122395149Y-123139492D01*
X120711546Y-121455888D01*
X120711545Y-121455887D01*
X120596807Y-121379222D01*
X120469332Y-121326421D01*
X120469322Y-121326418D01*
X120370162Y-121306694D01*
X120333996Y-121299500D01*
X120333994Y-121299500D01*
X120333993Y-121299500D01*
X114290519Y-121299500D01*
X114223480Y-121279815D01*
X114202838Y-121263181D01*
X114129606Y-121189949D01*
X134799500Y-121189949D01*
X134799500Y-121363170D01*
X134826166Y-121531537D01*
X134826598Y-121534261D01*
X134880127Y-121699005D01*
X134958768Y-121853348D01*
X135060586Y-121993488D01*
X135183072Y-122115974D01*
X135323212Y-122217792D01*
X135477555Y-122296433D01*
X135642299Y-122349962D01*
X135813389Y-122377060D01*
X135813390Y-122377060D01*
X136786610Y-122377060D01*
X136786611Y-122377060D01*
X136957701Y-122349962D01*
X137122445Y-122296433D01*
X137276788Y-122217792D01*
X137416928Y-122115974D01*
X137539414Y-121993488D01*
X137641232Y-121853348D01*
X137719873Y-121699005D01*
X137773402Y-121534261D01*
X137800500Y-121363171D01*
X137800500Y-121189949D01*
X137800069Y-121187229D01*
X160195820Y-121187229D01*
X160195820Y-121360450D01*
X160210935Y-121455887D01*
X160222918Y-121531541D01*
X160276447Y-121696285D01*
X160355088Y-121850628D01*
X160456906Y-121990768D01*
X160579392Y-122113254D01*
X160719532Y-122215072D01*
X160873875Y-122293713D01*
X161038619Y-122347242D01*
X161209709Y-122374340D01*
X161209710Y-122374340D01*
X162182930Y-122374340D01*
X162182931Y-122374340D01*
X162354021Y-122347242D01*
X162518765Y-122293713D01*
X162673108Y-122215072D01*
X162813248Y-122113254D01*
X162935734Y-121990768D01*
X163017148Y-121878711D01*
X172149500Y-121878711D01*
X172149500Y-122121288D01*
X172181161Y-122361785D01*
X172243947Y-122596104D01*
X172327032Y-122796688D01*
X172336776Y-122820212D01*
X172458064Y-123030289D01*
X172458066Y-123030292D01*
X172458067Y-123030293D01*
X172605733Y-123222736D01*
X172605739Y-123222743D01*
X172777256Y-123394260D01*
X172777262Y-123394265D01*
X172969711Y-123541936D01*
X173179788Y-123663224D01*
X173403900Y-123756054D01*
X173638211Y-123818838D01*
X173818586Y-123842584D01*
X173878711Y-123850500D01*
X173878712Y-123850500D01*
X174121289Y-123850500D01*
X174169388Y-123844167D01*
X174361789Y-123818838D01*
X174596100Y-123756054D01*
X174820212Y-123663224D01*
X175030289Y-123541936D01*
X175222738Y-123394265D01*
X175394265Y-123222738D01*
X175541936Y-123030289D01*
X175663224Y-122820212D01*
X175756054Y-122596100D01*
X175818838Y-122361789D01*
X175850500Y-122121288D01*
X175850500Y-121878712D01*
X175846802Y-121850626D01*
X175826842Y-121699007D01*
X175818838Y-121638211D01*
X175756054Y-121403900D01*
X175663224Y-121179788D01*
X175541936Y-120969711D01*
X175394265Y-120777262D01*
X175394260Y-120777256D01*
X175222743Y-120605739D01*
X175222736Y-120605733D01*
X175030293Y-120458067D01*
X175030292Y-120458066D01*
X175030289Y-120458064D01*
X174820212Y-120336776D01*
X174810150Y-120332608D01*
X174596104Y-120243947D01*
X174361785Y-120181161D01*
X174121289Y-120149500D01*
X174121288Y-120149500D01*
X173878712Y-120149500D01*
X173878711Y-120149500D01*
X173638214Y-120181161D01*
X173403895Y-120243947D01*
X173179794Y-120336773D01*
X173179785Y-120336777D01*
X172969706Y-120458067D01*
X172777263Y-120605733D01*
X172777256Y-120605739D01*
X172605739Y-120777256D01*
X172605733Y-120777263D01*
X172458067Y-120969706D01*
X172336777Y-121179785D01*
X172336773Y-121179794D01*
X172243947Y-121403895D01*
X172181161Y-121638214D01*
X172149500Y-121878711D01*
X163017148Y-121878711D01*
X163037552Y-121850628D01*
X163038648Y-121848476D01*
X163053994Y-121818359D01*
X163053994Y-121818358D01*
X163116193Y-121696285D01*
X163169722Y-121531541D01*
X163196820Y-121360451D01*
X163196820Y-121187229D01*
X163169722Y-121016139D01*
X163116193Y-120851395D01*
X163037552Y-120697052D01*
X162935734Y-120556912D01*
X162813248Y-120434426D01*
X162673108Y-120332608D01*
X162518765Y-120253967D01*
X162354021Y-120200438D01*
X162354019Y-120200437D01*
X162354018Y-120200437D01*
X162200104Y-120176060D01*
X162182931Y-120173340D01*
X161209709Y-120173340D01*
X161192536Y-120176060D01*
X161038622Y-120200437D01*
X160873872Y-120253968D01*
X160719531Y-120332608D01*
X160639576Y-120390699D01*
X160579392Y-120434426D01*
X160579390Y-120434428D01*
X160579389Y-120434428D01*
X160456908Y-120556909D01*
X160456908Y-120556910D01*
X160456906Y-120556912D01*
X160454930Y-120559632D01*
X160355088Y-120697051D01*
X160276448Y-120851392D01*
X160222917Y-121016142D01*
X160195820Y-121187229D01*
X137800069Y-121187229D01*
X137773402Y-121018859D01*
X137719873Y-120854115D01*
X137641232Y-120699772D01*
X137539414Y-120559632D01*
X137416928Y-120437146D01*
X137276788Y-120335328D01*
X137122445Y-120256687D01*
X136957701Y-120203158D01*
X136957699Y-120203157D01*
X136957698Y-120203157D01*
X136818817Y-120181161D01*
X136786611Y-120176060D01*
X135813389Y-120176060D01*
X135781183Y-120181161D01*
X135642302Y-120203157D01*
X135477552Y-120256688D01*
X135323211Y-120335328D01*
X135243256Y-120393419D01*
X135183072Y-120437146D01*
X135183070Y-120437148D01*
X135183069Y-120437148D01*
X135060588Y-120559629D01*
X135060588Y-120559630D01*
X135060586Y-120559632D01*
X135027092Y-120605733D01*
X134958768Y-120699771D01*
X134880128Y-120854112D01*
X134826597Y-121018862D01*
X134799500Y-121189949D01*
X114129606Y-121189949D01*
X111647358Y-118707701D01*
X111624308Y-118673205D01*
X111623645Y-118673560D01*
X111620777Y-118668196D01*
X111620775Y-118668189D01*
X111544114Y-118553457D01*
X111544112Y-118553454D01*
X110446545Y-117455887D01*
X110331807Y-117379222D01*
X110204332Y-117326421D01*
X110204322Y-117326418D01*
X110068996Y-117299500D01*
X110068994Y-117299500D01*
X110068993Y-117299500D01*
X108223547Y-117299500D01*
X108156508Y-117279815D01*
X108123230Y-117248385D01*
X108044558Y-117140102D01*
X108030107Y-117120211D01*
X107881345Y-116971449D01*
X107879792Y-116969896D01*
X107754286Y-116878711D01*
X114149500Y-116878711D01*
X114149500Y-117121288D01*
X114181161Y-117361785D01*
X114243947Y-117596104D01*
X114293895Y-117716688D01*
X114336776Y-117820212D01*
X114458064Y-118030289D01*
X114458066Y-118030292D01*
X114458067Y-118030293D01*
X114605733Y-118222736D01*
X114605739Y-118222743D01*
X114777256Y-118394260D01*
X114777262Y-118394265D01*
X114969711Y-118541936D01*
X115179788Y-118663224D01*
X115403900Y-118756054D01*
X115638211Y-118818838D01*
X115818586Y-118842584D01*
X115878711Y-118850500D01*
X115878712Y-118850500D01*
X116121289Y-118850500D01*
X116169388Y-118844167D01*
X116361789Y-118818838D01*
X116596100Y-118756054D01*
X116820212Y-118663224D01*
X116843205Y-118649949D01*
X134799500Y-118649949D01*
X134799500Y-118823171D01*
X134826598Y-118994261D01*
X134880127Y-119159005D01*
X134958768Y-119313348D01*
X135060586Y-119453488D01*
X135183072Y-119575974D01*
X135323212Y-119677792D01*
X135477555Y-119756433D01*
X135642299Y-119809962D01*
X135813389Y-119837060D01*
X135813390Y-119837060D01*
X136786610Y-119837060D01*
X136786611Y-119837060D01*
X136957701Y-119809962D01*
X137122445Y-119756433D01*
X137276788Y-119677792D01*
X137416928Y-119575974D01*
X137539414Y-119453488D01*
X137641232Y-119313348D01*
X137719873Y-119159005D01*
X137773402Y-118994261D01*
X137800500Y-118823171D01*
X137800500Y-118649949D01*
X160199500Y-118649949D01*
X160199500Y-118823171D01*
X160226598Y-118994261D01*
X160280127Y-119159005D01*
X160358768Y-119313348D01*
X160460586Y-119453488D01*
X160583072Y-119575974D01*
X160723212Y-119677792D01*
X160877555Y-119756433D01*
X161042299Y-119809962D01*
X161213389Y-119837060D01*
X161213390Y-119837060D01*
X162186610Y-119837060D01*
X162186611Y-119837060D01*
X162357701Y-119809962D01*
X162522445Y-119756433D01*
X162676788Y-119677792D01*
X162816928Y-119575974D01*
X162939414Y-119453488D01*
X163041232Y-119313348D01*
X163119873Y-119159005D01*
X163173402Y-118994261D01*
X163200500Y-118823171D01*
X163200500Y-118649949D01*
X163173402Y-118478859D01*
X163119873Y-118314115D01*
X163041232Y-118159772D01*
X162939414Y-118019632D01*
X162816928Y-117897146D01*
X162676788Y-117795328D01*
X162522445Y-117716687D01*
X162357701Y-117663158D01*
X162357699Y-117663157D01*
X162357698Y-117663157D01*
X162226271Y-117642341D01*
X162186611Y-117636060D01*
X161213389Y-117636060D01*
X161173728Y-117642341D01*
X161042302Y-117663157D01*
X160877552Y-117716688D01*
X160723211Y-117795328D01*
X160688962Y-117820212D01*
X160583072Y-117897146D01*
X160583070Y-117897148D01*
X160583069Y-117897148D01*
X160460588Y-118019629D01*
X160460588Y-118019630D01*
X160460586Y-118019632D01*
X160416859Y-118079816D01*
X160358768Y-118159771D01*
X160280128Y-118314112D01*
X160226597Y-118478862D01*
X160216607Y-118541938D01*
X160199500Y-118649949D01*
X137800500Y-118649949D01*
X137773402Y-118478859D01*
X137719873Y-118314115D01*
X137641232Y-118159772D01*
X137539414Y-118019632D01*
X137416928Y-117897146D01*
X137276788Y-117795328D01*
X137122445Y-117716687D01*
X136957701Y-117663158D01*
X136957699Y-117663157D01*
X136957698Y-117663157D01*
X136826271Y-117642341D01*
X136786611Y-117636060D01*
X135813389Y-117636060D01*
X135773728Y-117642341D01*
X135642302Y-117663157D01*
X135477552Y-117716688D01*
X135323211Y-117795328D01*
X135288962Y-117820212D01*
X135183072Y-117897146D01*
X135183070Y-117897148D01*
X135183069Y-117897148D01*
X135060588Y-118019629D01*
X135060588Y-118019630D01*
X135060586Y-118019632D01*
X135016859Y-118079816D01*
X134958768Y-118159771D01*
X134880128Y-118314112D01*
X134826597Y-118478862D01*
X134816607Y-118541938D01*
X134799500Y-118649949D01*
X116843205Y-118649949D01*
X117030289Y-118541936D01*
X117222738Y-118394265D01*
X117394265Y-118222738D01*
X117541936Y-118030289D01*
X117663224Y-117820212D01*
X117756054Y-117596100D01*
X117818838Y-117361789D01*
X117850500Y-117121288D01*
X117850500Y-116878712D01*
X117818838Y-116638211D01*
X117756054Y-116403900D01*
X117663224Y-116179788D01*
X117541936Y-115969711D01*
X117481018Y-115890321D01*
X117394266Y-115777263D01*
X117394260Y-115777256D01*
X117248951Y-115631947D01*
X121750000Y-115631947D01*
X121750000Y-115868052D01*
X121786934Y-116101247D01*
X121859897Y-116325802D01*
X121967087Y-116536174D01*
X122027338Y-116619104D01*
X122027340Y-116619105D01*
X122726212Y-115920233D01*
X122737482Y-115962292D01*
X122809890Y-116087708D01*
X122912292Y-116190110D01*
X123037708Y-116262518D01*
X123079765Y-116273787D01*
X122380893Y-116972658D01*
X122463828Y-117032914D01*
X122674197Y-117140102D01*
X122898752Y-117213065D01*
X122898751Y-117213065D01*
X123131948Y-117250000D01*
X123368052Y-117250000D01*
X123601247Y-117213065D01*
X123825802Y-117140102D01*
X124036163Y-117032918D01*
X124036169Y-117032914D01*
X124119104Y-116972658D01*
X124119105Y-116972658D01*
X123420233Y-116273787D01*
X123462292Y-116262518D01*
X123587708Y-116190110D01*
X123690110Y-116087708D01*
X123762518Y-115962292D01*
X123773787Y-115920234D01*
X124472658Y-116619105D01*
X124472658Y-116619104D01*
X124532914Y-116536169D01*
X124532918Y-116536163D01*
X124640102Y-116325802D01*
X124713065Y-116101247D01*
X124750000Y-115868052D01*
X124750000Y-115631947D01*
X128250000Y-115631947D01*
X128250000Y-115868052D01*
X128286934Y-116101247D01*
X128359897Y-116325802D01*
X128467087Y-116536174D01*
X128527338Y-116619104D01*
X128527340Y-116619105D01*
X129226212Y-115920233D01*
X129237482Y-115962292D01*
X129309890Y-116087708D01*
X129412292Y-116190110D01*
X129537708Y-116262518D01*
X129579765Y-116273787D01*
X128880893Y-116972658D01*
X128963828Y-117032914D01*
X129174197Y-117140102D01*
X129398752Y-117213065D01*
X129398751Y-117213065D01*
X129631948Y-117250000D01*
X129868052Y-117250000D01*
X130101247Y-117213065D01*
X130325802Y-117140102D01*
X130536163Y-117032918D01*
X130536169Y-117032914D01*
X130619104Y-116972658D01*
X130619105Y-116972658D01*
X129920233Y-116273787D01*
X129962292Y-116262518D01*
X130087708Y-116190110D01*
X130190110Y-116087708D01*
X130262518Y-115962292D01*
X130273787Y-115920234D01*
X130972658Y-116619105D01*
X130972658Y-116619104D01*
X131032914Y-116536169D01*
X131032918Y-116536163D01*
X131140102Y-116325802D01*
X131210238Y-116109949D01*
X134799500Y-116109949D01*
X134799500Y-116283171D01*
X134806252Y-116325802D01*
X134818621Y-116403900D01*
X134826598Y-116454261D01*
X134878842Y-116615051D01*
X134880128Y-116619007D01*
X134896868Y-116651861D01*
X134958768Y-116773348D01*
X135060586Y-116913488D01*
X135183072Y-117035974D01*
X135323212Y-117137792D01*
X135477555Y-117216433D01*
X135642299Y-117269962D01*
X135813389Y-117297060D01*
X135813390Y-117297060D01*
X136786610Y-117297060D01*
X136786611Y-117297060D01*
X136957701Y-117269962D01*
X137122445Y-117216433D01*
X137276788Y-117137792D01*
X137416928Y-117035974D01*
X137539414Y-116913488D01*
X137641232Y-116773348D01*
X137719873Y-116619005D01*
X137773402Y-116454261D01*
X137800500Y-116283171D01*
X137800500Y-116109949D01*
X160199500Y-116109949D01*
X160199500Y-116283171D01*
X160206252Y-116325802D01*
X160218621Y-116403900D01*
X160226598Y-116454261D01*
X160278842Y-116615051D01*
X160280128Y-116619007D01*
X160296868Y-116651861D01*
X160358768Y-116773348D01*
X160460586Y-116913488D01*
X160583072Y-117035974D01*
X160723212Y-117137792D01*
X160877555Y-117216433D01*
X161042299Y-117269962D01*
X161213389Y-117297060D01*
X161213390Y-117297060D01*
X162186610Y-117297060D01*
X162186611Y-117297060D01*
X162357701Y-117269962D01*
X162522445Y-117216433D01*
X162676788Y-117137792D01*
X162816928Y-117035974D01*
X162939414Y-116913488D01*
X163041232Y-116773348D01*
X163119873Y-116619005D01*
X163173402Y-116454261D01*
X163200500Y-116283171D01*
X163200500Y-116109949D01*
X163173402Y-115938859D01*
X163119873Y-115774115D01*
X163041232Y-115619772D01*
X162939414Y-115479632D01*
X162816928Y-115357146D01*
X162676788Y-115255328D01*
X162522445Y-115176687D01*
X162357701Y-115123158D01*
X162357699Y-115123157D01*
X162357698Y-115123157D01*
X162220806Y-115101476D01*
X162186611Y-115096060D01*
X161213389Y-115096060D01*
X161179194Y-115101476D01*
X161042302Y-115123157D01*
X160877552Y-115176688D01*
X160723211Y-115255328D01*
X160648114Y-115309890D01*
X160583072Y-115357146D01*
X160583070Y-115357148D01*
X160583069Y-115357148D01*
X160460588Y-115479629D01*
X160460588Y-115479630D01*
X160460586Y-115479632D01*
X160433458Y-115516971D01*
X160358768Y-115619771D01*
X160280128Y-115774112D01*
X160226597Y-115938862D01*
X160203023Y-116087708D01*
X160199500Y-116109949D01*
X137800500Y-116109949D01*
X137773402Y-115938859D01*
X137719873Y-115774115D01*
X137641232Y-115619772D01*
X137539414Y-115479632D01*
X137416928Y-115357146D01*
X137276788Y-115255328D01*
X137122445Y-115176687D01*
X136957701Y-115123158D01*
X136957699Y-115123157D01*
X136957698Y-115123157D01*
X136820806Y-115101476D01*
X136786611Y-115096060D01*
X135813389Y-115096060D01*
X135779194Y-115101476D01*
X135642302Y-115123157D01*
X135477552Y-115176688D01*
X135323211Y-115255328D01*
X135248114Y-115309890D01*
X135183072Y-115357146D01*
X135183070Y-115357148D01*
X135183069Y-115357148D01*
X135060588Y-115479629D01*
X135060588Y-115479630D01*
X135060586Y-115479632D01*
X135033458Y-115516971D01*
X134958768Y-115619771D01*
X134880128Y-115774112D01*
X134826597Y-115938862D01*
X134803023Y-116087708D01*
X134799500Y-116109949D01*
X131210238Y-116109949D01*
X131213064Y-116101251D01*
X131215530Y-116085682D01*
X131215531Y-116085679D01*
X131250000Y-115868052D01*
X131250000Y-115631947D01*
X131213065Y-115398752D01*
X131140102Y-115174197D01*
X131032914Y-114963828D01*
X130972658Y-114880894D01*
X130972658Y-114880893D01*
X130273787Y-115579765D01*
X130262518Y-115537708D01*
X130190110Y-115412292D01*
X130087708Y-115309890D01*
X129962292Y-115237482D01*
X129920234Y-115226212D01*
X130619105Y-114527340D01*
X130619104Y-114527338D01*
X130536174Y-114467087D01*
X130325802Y-114359897D01*
X130101247Y-114286934D01*
X130101248Y-114286934D01*
X129868052Y-114250000D01*
X129631948Y-114250000D01*
X129398752Y-114286934D01*
X129174197Y-114359897D01*
X128963830Y-114467084D01*
X128880894Y-114527340D01*
X129579766Y-115226212D01*
X129537708Y-115237482D01*
X129412292Y-115309890D01*
X129309890Y-115412292D01*
X129237482Y-115537708D01*
X129226212Y-115579766D01*
X128527340Y-114880894D01*
X128467084Y-114963830D01*
X128359897Y-115174197D01*
X128286934Y-115398752D01*
X128250000Y-115631947D01*
X124750000Y-115631947D01*
X124713065Y-115398752D01*
X124640102Y-115174197D01*
X124532914Y-114963828D01*
X124472658Y-114880894D01*
X124472658Y-114880893D01*
X123773787Y-115579765D01*
X123762518Y-115537708D01*
X123690110Y-115412292D01*
X123587708Y-115309890D01*
X123462292Y-115237482D01*
X123420234Y-115226212D01*
X124119105Y-114527340D01*
X124119104Y-114527339D01*
X124036174Y-114467087D01*
X123825802Y-114359897D01*
X123601247Y-114286934D01*
X123601248Y-114286934D01*
X123368052Y-114250000D01*
X123131948Y-114250000D01*
X122898752Y-114286934D01*
X122674197Y-114359897D01*
X122463830Y-114467084D01*
X122380894Y-114527340D01*
X123079766Y-115226212D01*
X123037708Y-115237482D01*
X122912292Y-115309890D01*
X122809890Y-115412292D01*
X122737482Y-115537708D01*
X122726212Y-115579766D01*
X122027340Y-114880894D01*
X121967084Y-114963830D01*
X121859897Y-115174197D01*
X121786934Y-115398752D01*
X121750000Y-115631947D01*
X117248951Y-115631947D01*
X117222743Y-115605739D01*
X117222736Y-115605733D01*
X117030293Y-115458067D01*
X117030292Y-115458066D01*
X117030289Y-115458064D01*
X116820212Y-115336776D01*
X116820205Y-115336773D01*
X116596104Y-115243947D01*
X116361785Y-115181161D01*
X116121289Y-115149500D01*
X116121288Y-115149500D01*
X115878712Y-115149500D01*
X115878711Y-115149500D01*
X115638214Y-115181161D01*
X115403895Y-115243947D01*
X115179794Y-115336773D01*
X115179785Y-115336777D01*
X114969706Y-115458067D01*
X114777263Y-115605733D01*
X114777256Y-115605739D01*
X114605739Y-115777256D01*
X114605733Y-115777263D01*
X114458067Y-115969706D01*
X114458064Y-115969710D01*
X114458064Y-115969711D01*
X114453039Y-115978414D01*
X114336777Y-116179785D01*
X114336773Y-116179794D01*
X114243947Y-116403895D01*
X114181161Y-116638214D01*
X114149500Y-116878711D01*
X107754286Y-116878711D01*
X107707816Y-116844949D01*
X107690978Y-116836369D01*
X107683591Y-116831128D01*
X107667335Y-116810528D01*
X107648259Y-116792512D01*
X107646036Y-116783536D01*
X107640309Y-116776279D01*
X107637771Y-116750163D01*
X107631463Y-116724692D01*
X107634445Y-116715939D01*
X107633551Y-116706737D01*
X107645534Y-116683395D01*
X107653999Y-116658556D01*
X107661725Y-116651861D01*
X107665463Y-116644581D01*
X107679548Y-116636417D01*
X107699054Y-116619515D01*
X107707816Y-116615051D01*
X107816397Y-116536163D01*
X107879786Y-116490109D01*
X107879788Y-116490106D01*
X107879792Y-116490104D01*
X108030104Y-116339792D01*
X108030106Y-116339788D01*
X108030109Y-116339786D01*
X108139086Y-116189789D01*
X108155051Y-116167816D01*
X108251557Y-115978412D01*
X108317246Y-115776243D01*
X108350500Y-115566287D01*
X108350500Y-115353713D01*
X108317246Y-115143757D01*
X108303506Y-115101473D01*
X108301512Y-115031635D01*
X108333755Y-114975478D01*
X109739284Y-113569949D01*
X134799500Y-113569949D01*
X134799500Y-113743170D01*
X134815372Y-113843386D01*
X134826598Y-113914261D01*
X134880127Y-114079005D01*
X134958768Y-114233348D01*
X135060586Y-114373488D01*
X135183072Y-114495974D01*
X135323212Y-114597792D01*
X135477555Y-114676433D01*
X135642299Y-114729962D01*
X135813389Y-114757060D01*
X135813390Y-114757060D01*
X136786610Y-114757060D01*
X136786611Y-114757060D01*
X136957701Y-114729962D01*
X137122445Y-114676433D01*
X137276788Y-114597792D01*
X137416928Y-114495974D01*
X137539414Y-114373488D01*
X137641232Y-114233348D01*
X137719873Y-114079005D01*
X137773402Y-113914261D01*
X137800500Y-113743171D01*
X137800500Y-113569949D01*
X137773402Y-113398859D01*
X137719873Y-113234115D01*
X137641232Y-113079772D01*
X137539414Y-112939632D01*
X137416928Y-112817146D01*
X137276788Y-112715328D01*
X137122445Y-112636687D01*
X136957701Y-112583158D01*
X136957699Y-112583157D01*
X136957698Y-112583157D01*
X136826271Y-112562341D01*
X136786611Y-112556060D01*
X135813389Y-112556060D01*
X135773728Y-112562341D01*
X135642302Y-112583157D01*
X135477552Y-112636688D01*
X135323211Y-112715328D01*
X135274802Y-112750500D01*
X135183072Y-112817146D01*
X135183070Y-112817148D01*
X135183069Y-112817148D01*
X135060588Y-112939629D01*
X135060588Y-112939630D01*
X135060586Y-112939632D01*
X135016859Y-112999816D01*
X134958768Y-113079771D01*
X134880128Y-113234112D01*
X134826597Y-113398862D01*
X134799500Y-113569949D01*
X109739284Y-113569949D01*
X111358506Y-111950728D01*
X111358511Y-111950724D01*
X111368714Y-111940520D01*
X111368716Y-111940520D01*
X111480520Y-111828716D01*
X111537361Y-111730263D01*
X111559577Y-111691785D01*
X111600500Y-111539058D01*
X111600500Y-111380943D01*
X111600500Y-111131902D01*
X121749500Y-111131902D01*
X121749500Y-111368097D01*
X121786446Y-111601368D01*
X121859433Y-111825996D01*
X121917787Y-111940521D01*
X121966657Y-112036433D01*
X122105483Y-112227510D01*
X122272490Y-112394517D01*
X122463567Y-112533343D01*
X122508152Y-112556060D01*
X122674003Y-112640566D01*
X122674005Y-112640566D01*
X122674008Y-112640568D01*
X122794412Y-112679689D01*
X122898631Y-112713553D01*
X123131903Y-112750500D01*
X123131908Y-112750500D01*
X123368097Y-112750500D01*
X123601368Y-112713553D01*
X123825992Y-112640568D01*
X124036433Y-112533343D01*
X124227510Y-112394517D01*
X124394517Y-112227510D01*
X124533343Y-112036433D01*
X124593583Y-111918204D01*
X124641558Y-111867409D01*
X124704068Y-111850500D01*
X128295932Y-111850500D01*
X128362971Y-111870185D01*
X128406416Y-111918203D01*
X128466657Y-112036433D01*
X128605483Y-112227510D01*
X128772490Y-112394517D01*
X128963567Y-112533343D01*
X129008152Y-112556060D01*
X129174003Y-112640566D01*
X129174005Y-112640566D01*
X129174008Y-112640568D01*
X129294412Y-112679689D01*
X129398631Y-112713553D01*
X129631903Y-112750500D01*
X129631908Y-112750500D01*
X129868097Y-112750500D01*
X130101368Y-112713553D01*
X130325992Y-112640568D01*
X130536433Y-112533343D01*
X130727510Y-112394517D01*
X130894517Y-112227510D01*
X131033343Y-112036433D01*
X131140568Y-111825992D01*
X131213553Y-111601368D01*
X131223430Y-111539005D01*
X131250500Y-111368097D01*
X131250500Y-111131902D01*
X131231237Y-111010288D01*
X131213553Y-110898632D01*
X131207232Y-110879179D01*
X131203132Y-110866559D01*
X134825884Y-110866559D01*
X134825885Y-110866560D01*
X135984314Y-110866560D01*
X135979920Y-110870954D01*
X135927259Y-110962166D01*
X135900000Y-111063899D01*
X135900000Y-111169221D01*
X135927259Y-111270954D01*
X135979920Y-111362166D01*
X135984314Y-111366560D01*
X134825885Y-111366560D01*
X134827085Y-111374144D01*
X134880591Y-111538815D01*
X134959195Y-111693084D01*
X135060967Y-111833162D01*
X135183397Y-111955592D01*
X135323475Y-112057364D01*
X135477742Y-112135968D01*
X135642415Y-112189474D01*
X135813429Y-112216560D01*
X136050000Y-112216560D01*
X136050000Y-111432246D01*
X136054394Y-111436640D01*
X136145606Y-111489301D01*
X136247339Y-111516560D01*
X136352661Y-111516560D01*
X136454394Y-111489301D01*
X136545606Y-111436640D01*
X136550000Y-111432246D01*
X136550000Y-112216560D01*
X136786571Y-112216560D01*
X136957584Y-112189474D01*
X137122257Y-112135968D01*
X137276524Y-112057364D01*
X137416602Y-111955592D01*
X137539032Y-111833162D01*
X137640804Y-111693084D01*
X137719408Y-111538815D01*
X137772914Y-111374144D01*
X137774115Y-111366560D01*
X136615686Y-111366560D01*
X136620080Y-111362166D01*
X136672741Y-111270954D01*
X136700000Y-111169221D01*
X136700000Y-111063899D01*
X136672741Y-110962166D01*
X136620080Y-110870954D01*
X136615686Y-110866560D01*
X137774115Y-110866560D01*
X137774115Y-110866559D01*
X137772914Y-110858975D01*
X137719408Y-110694304D01*
X137640804Y-110540035D01*
X137539032Y-110399957D01*
X137416602Y-110277527D01*
X137276524Y-110175755D01*
X137122257Y-110097151D01*
X136957584Y-110043645D01*
X136786571Y-110016560D01*
X136550000Y-110016560D01*
X136550000Y-110800874D01*
X136545606Y-110796480D01*
X136454394Y-110743819D01*
X136352661Y-110716560D01*
X136247339Y-110716560D01*
X136145606Y-110743819D01*
X136054394Y-110796480D01*
X136050000Y-110800874D01*
X136050000Y-110016560D01*
X135813429Y-110016560D01*
X135642415Y-110043645D01*
X135477742Y-110097151D01*
X135323475Y-110175755D01*
X135183397Y-110277527D01*
X135060967Y-110399957D01*
X134959195Y-110540035D01*
X134880591Y-110694304D01*
X134827085Y-110858975D01*
X134825884Y-110866559D01*
X131203132Y-110866559D01*
X131163251Y-110743819D01*
X131140568Y-110674008D01*
X131140566Y-110674005D01*
X131140566Y-110674003D01*
X131033342Y-110463566D01*
X130894517Y-110272490D01*
X130727510Y-110105483D01*
X130536433Y-109966657D01*
X130325996Y-109859433D01*
X130101368Y-109786446D01*
X129868097Y-109749500D01*
X129868092Y-109749500D01*
X129631908Y-109749500D01*
X129631903Y-109749500D01*
X129398631Y-109786446D01*
X129174003Y-109859433D01*
X128963566Y-109966657D01*
X128858274Y-110043157D01*
X128772490Y-110105483D01*
X128772488Y-110105485D01*
X128772487Y-110105485D01*
X128605485Y-110272487D01*
X128605485Y-110272488D01*
X128605483Y-110272490D01*
X128545862Y-110354550D01*
X128466657Y-110463566D01*
X128440624Y-110514660D01*
X128407920Y-110578846D01*
X128406417Y-110581795D01*
X128358442Y-110632591D01*
X128295932Y-110649500D01*
X124704068Y-110649500D01*
X124637029Y-110629815D01*
X124593583Y-110581795D01*
X124533343Y-110463567D01*
X124394517Y-110272490D01*
X124227510Y-110105483D01*
X124036433Y-109966657D01*
X123825996Y-109859433D01*
X123601368Y-109786446D01*
X123368097Y-109749500D01*
X123368092Y-109749500D01*
X123131908Y-109749500D01*
X123131903Y-109749500D01*
X122898631Y-109786446D01*
X122674003Y-109859433D01*
X122463566Y-109966657D01*
X122358274Y-110043157D01*
X122272490Y-110105483D01*
X122272488Y-110105485D01*
X122272487Y-110105485D01*
X122105485Y-110272487D01*
X122105485Y-110272488D01*
X122105483Y-110272490D01*
X122045862Y-110354550D01*
X121966657Y-110463566D01*
X121859433Y-110674003D01*
X121786446Y-110898631D01*
X121749500Y-111131902D01*
X111600500Y-111131902D01*
X111600500Y-108489949D01*
X134799500Y-108489949D01*
X134799500Y-108663171D01*
X134826598Y-108834261D01*
X134880127Y-108999005D01*
X134958768Y-109153348D01*
X135060586Y-109293488D01*
X135183072Y-109415974D01*
X135323212Y-109517792D01*
X135477555Y-109596433D01*
X135642299Y-109649962D01*
X135813389Y-109677060D01*
X135813390Y-109677060D01*
X136786610Y-109677060D01*
X136786611Y-109677060D01*
X136957701Y-109649962D01*
X137122445Y-109596433D01*
X137276788Y-109517792D01*
X137416928Y-109415974D01*
X137539414Y-109293488D01*
X137641232Y-109153348D01*
X137719873Y-108999005D01*
X137773402Y-108834261D01*
X137800500Y-108663171D01*
X137800500Y-108489949D01*
X137773402Y-108318859D01*
X137719873Y-108154115D01*
X137641232Y-107999772D01*
X137539414Y-107859632D01*
X137416928Y-107737146D01*
X137276788Y-107635328D01*
X137122445Y-107556687D01*
X136957701Y-107503158D01*
X136957699Y-107503157D01*
X136957698Y-107503157D01*
X136826271Y-107482341D01*
X136786611Y-107476060D01*
X135813389Y-107476060D01*
X135773728Y-107482341D01*
X135642302Y-107503157D01*
X135477552Y-107556688D01*
X135323211Y-107635328D01*
X135243256Y-107693419D01*
X135183072Y-107737146D01*
X135183070Y-107737148D01*
X135183069Y-107737148D01*
X135060588Y-107859629D01*
X135060588Y-107859630D01*
X135060586Y-107859632D01*
X135016859Y-107919816D01*
X134958768Y-107999771D01*
X134880128Y-108154112D01*
X134826597Y-108318862D01*
X134799500Y-108489949D01*
X111600500Y-108489949D01*
X111600500Y-106579765D01*
X111620185Y-106512726D01*
X111621398Y-106510874D01*
X111709390Y-106379185D01*
X111709390Y-106379184D01*
X111709394Y-106379179D01*
X111769737Y-106233497D01*
X111800500Y-106078842D01*
X111800500Y-105921158D01*
X111800500Y-105921155D01*
X111800499Y-105921153D01*
X111781573Y-105826006D01*
X111769737Y-105766503D01*
X111769735Y-105766498D01*
X111709397Y-105620827D01*
X111709390Y-105620814D01*
X111621789Y-105489711D01*
X111621786Y-105489707D01*
X111510292Y-105378213D01*
X111510288Y-105378210D01*
X111379185Y-105290609D01*
X111379172Y-105290602D01*
X111233501Y-105230264D01*
X111233489Y-105230261D01*
X111078845Y-105199500D01*
X111078842Y-105199500D01*
X110921158Y-105199500D01*
X110921155Y-105199500D01*
X110766510Y-105230261D01*
X110766498Y-105230264D01*
X110620827Y-105290602D01*
X110620814Y-105290609D01*
X110489711Y-105378210D01*
X110489707Y-105378213D01*
X110378213Y-105489707D01*
X110378210Y-105489711D01*
X110290609Y-105620814D01*
X110290602Y-105620827D01*
X110230264Y-105766498D01*
X110230261Y-105766510D01*
X110199500Y-105921153D01*
X110199500Y-106078846D01*
X110230261Y-106233489D01*
X110230264Y-106233501D01*
X110290602Y-106379172D01*
X110290609Y-106379185D01*
X110378602Y-106510874D01*
X110399480Y-106577551D01*
X110399500Y-106579765D01*
X110399500Y-111159902D01*
X110379815Y-111226941D01*
X110363181Y-111247583D01*
X107484522Y-114126241D01*
X107423199Y-114159726D01*
X107358523Y-114156491D01*
X107316245Y-114142754D01*
X107176272Y-114120584D01*
X107106287Y-114109500D01*
X106893713Y-114109500D01*
X106845042Y-114117208D01*
X106683760Y-114142753D01*
X106481585Y-114208444D01*
X106292179Y-114304951D01*
X106120213Y-114429890D01*
X105969890Y-114580213D01*
X105844951Y-114752179D01*
X105748444Y-114941585D01*
X105682753Y-115143760D01*
X105649500Y-115353713D01*
X103500500Y-115353713D01*
X103500500Y-94853713D01*
X105649500Y-94853713D01*
X105649500Y-95066286D01*
X105682753Y-95276239D01*
X105682753Y-95276241D01*
X105682754Y-95276243D01*
X105745153Y-95468287D01*
X105748444Y-95478414D01*
X105844951Y-95667820D01*
X105969890Y-95839786D01*
X106120213Y-95990109D01*
X106292182Y-96115050D01*
X106300946Y-96119516D01*
X106351742Y-96167491D01*
X106368536Y-96235312D01*
X106345998Y-96301447D01*
X106300946Y-96340484D01*
X106292182Y-96344949D01*
X106120213Y-96469890D01*
X105969890Y-96620213D01*
X105844951Y-96792179D01*
X105748444Y-96981585D01*
X105682753Y-97183760D01*
X105651803Y-97379172D01*
X105649500Y-97393713D01*
X105649500Y-97606287D01*
X105659534Y-97669644D01*
X105680260Y-97800500D01*
X105682754Y-97816243D01*
X105740548Y-97994115D01*
X105748444Y-98018414D01*
X105844951Y-98207820D01*
X105969890Y-98379786D01*
X106083818Y-98493714D01*
X106117303Y-98555037D01*
X106112319Y-98624729D01*
X106070447Y-98680662D01*
X106039471Y-98697577D01*
X105907912Y-98746646D01*
X105907906Y-98746649D01*
X105792812Y-98832809D01*
X105792809Y-98832812D01*
X105706649Y-98947906D01*
X105706645Y-98947913D01*
X105656403Y-99082620D01*
X105656401Y-99082627D01*
X105650000Y-99142155D01*
X105650000Y-99790000D01*
X106566988Y-99790000D01*
X106534075Y-99847007D01*
X106500000Y-99974174D01*
X106500000Y-100105826D01*
X106534075Y-100232993D01*
X106566988Y-100290000D01*
X105650000Y-100290000D01*
X105650000Y-100937844D01*
X105656401Y-100997372D01*
X105656403Y-100997379D01*
X105706645Y-101132086D01*
X105706649Y-101132093D01*
X105792809Y-101247187D01*
X105792812Y-101247190D01*
X105907906Y-101333350D01*
X105907913Y-101333354D01*
X106042620Y-101383596D01*
X106042627Y-101383598D01*
X106102155Y-101389999D01*
X106102172Y-101390000D01*
X106750000Y-101390000D01*
X106750000Y-100473012D01*
X106807007Y-100505925D01*
X106934174Y-100540000D01*
X107065826Y-100540000D01*
X107192993Y-100505925D01*
X107250000Y-100473012D01*
X107250000Y-101390000D01*
X107897828Y-101390000D01*
X107897844Y-101389999D01*
X107957372Y-101383598D01*
X107957379Y-101383596D01*
X108092086Y-101333354D01*
X108092093Y-101333350D01*
X108207187Y-101247190D01*
X108207190Y-101247187D01*
X108293350Y-101132093D01*
X108293354Y-101132086D01*
X108343596Y-100997379D01*
X108343598Y-100997372D01*
X108349999Y-100937844D01*
X108350000Y-100937827D01*
X108350000Y-100290000D01*
X107433012Y-100290000D01*
X107465925Y-100232993D01*
X107500000Y-100105826D01*
X107500000Y-99974174D01*
X107465925Y-99847007D01*
X107433012Y-99790000D01*
X108350000Y-99790000D01*
X108350000Y-99142172D01*
X108349999Y-99142155D01*
X108343598Y-99082627D01*
X108343596Y-99082620D01*
X108293354Y-98947913D01*
X108293350Y-98947906D01*
X108207190Y-98832812D01*
X108207187Y-98832809D01*
X108092093Y-98746649D01*
X108092088Y-98746646D01*
X107960528Y-98697577D01*
X107904595Y-98655705D01*
X107880178Y-98590241D01*
X107895030Y-98521968D01*
X107916175Y-98493720D01*
X108030104Y-98379792D01*
X108155051Y-98207816D01*
X108251557Y-98018412D01*
X108317246Y-97816243D01*
X108350500Y-97606287D01*
X108350500Y-97459097D01*
X108370185Y-97392058D01*
X108422989Y-97346303D01*
X108492147Y-97336359D01*
X108555703Y-97365384D01*
X108562181Y-97371416D01*
X115277868Y-104087103D01*
X115311353Y-104148426D01*
X115306369Y-104218118D01*
X115264497Y-104274051D01*
X115233522Y-104290965D01*
X115192674Y-104306201D01*
X115192664Y-104306206D01*
X115077455Y-104392452D01*
X115077452Y-104392455D01*
X114991206Y-104507664D01*
X114991202Y-104507671D01*
X114940908Y-104642517D01*
X114934501Y-104702116D01*
X114934500Y-104702135D01*
X114934500Y-106297870D01*
X114934501Y-106297876D01*
X114940908Y-106357483D01*
X114991202Y-106492328D01*
X114991206Y-106492335D01*
X115077452Y-106607544D01*
X115077455Y-106607547D01*
X115192664Y-106693793D01*
X115192671Y-106693797D01*
X115327517Y-106744091D01*
X115327516Y-106744091D01*
X115334444Y-106744835D01*
X115387127Y-106750500D01*
X116532872Y-106750499D01*
X116592483Y-106744091D01*
X116727331Y-106693796D01*
X116728430Y-106692972D01*
X116729717Y-106692492D01*
X116735112Y-106689547D01*
X116735535Y-106690322D01*
X116793887Y-106668552D01*
X116850198Y-106677673D01*
X116930873Y-106711091D01*
X117096777Y-106744091D01*
X117128992Y-106750499D01*
X117128996Y-106750500D01*
X117128997Y-106750500D01*
X117331004Y-106750500D01*
X117331005Y-106750499D01*
X117529127Y-106711091D01*
X117715756Y-106633786D01*
X117796110Y-106580094D01*
X117862786Y-106559217D01*
X117930166Y-106577701D01*
X117933865Y-106580078D01*
X118014244Y-106633786D01*
X118200873Y-106711091D01*
X118366777Y-106744091D01*
X118398992Y-106750499D01*
X118398996Y-106750500D01*
X118398997Y-106750500D01*
X118601004Y-106750500D01*
X118601005Y-106750499D01*
X118799127Y-106711091D01*
X118985756Y-106633786D01*
X119153718Y-106521558D01*
X119296558Y-106378718D01*
X119408786Y-106210756D01*
X119486091Y-106024127D01*
X119500846Y-105949949D01*
X134799500Y-105949949D01*
X134799500Y-106123170D01*
X134816974Y-106233501D01*
X134826598Y-106294261D01*
X134880127Y-106459005D01*
X134958768Y-106613348D01*
X135060586Y-106753488D01*
X135183072Y-106875974D01*
X135323212Y-106977792D01*
X135477555Y-107056433D01*
X135642299Y-107109962D01*
X135813389Y-107137060D01*
X135813390Y-107137060D01*
X136786610Y-107137060D01*
X136786611Y-107137060D01*
X136957701Y-107109962D01*
X137122445Y-107056433D01*
X137276788Y-106977792D01*
X137416928Y-106875974D01*
X137539414Y-106753488D01*
X137641232Y-106613348D01*
X137719873Y-106459005D01*
X137773402Y-106294261D01*
X137800500Y-106123171D01*
X137800500Y-105949949D01*
X137773402Y-105778859D01*
X137719873Y-105614115D01*
X137641232Y-105459772D01*
X137539414Y-105319632D01*
X137416928Y-105197146D01*
X137276788Y-105095328D01*
X137122445Y-105016687D01*
X136957701Y-104963158D01*
X136957699Y-104963157D01*
X136957698Y-104963157D01*
X136826271Y-104942341D01*
X136786611Y-104936060D01*
X135813389Y-104936060D01*
X135773728Y-104942341D01*
X135642302Y-104963157D01*
X135477552Y-105016688D01*
X135323211Y-105095328D01*
X135243256Y-105153419D01*
X135183072Y-105197146D01*
X135183070Y-105197148D01*
X135183069Y-105197148D01*
X135060588Y-105319629D01*
X135060588Y-105319630D01*
X135060586Y-105319632D01*
X135018026Y-105378210D01*
X134958768Y-105459771D01*
X134880128Y-105614112D01*
X134826597Y-105778862D01*
X134799500Y-105949949D01*
X119500846Y-105949949D01*
X119525500Y-105826003D01*
X119525500Y-105173997D01*
X119486091Y-104975873D01*
X119408786Y-104789244D01*
X119408784Y-104789241D01*
X119408782Y-104789237D01*
X119296558Y-104621281D01*
X119236819Y-104561542D01*
X119203334Y-104500219D01*
X119200500Y-104473861D01*
X119200500Y-97682999D01*
X119209939Y-97635546D01*
X119211704Y-97631286D01*
X119256091Y-97524127D01*
X119295500Y-97326003D01*
X119295500Y-96673997D01*
X119256091Y-96475873D01*
X119178786Y-96289244D01*
X119178784Y-96289241D01*
X119178782Y-96289237D01*
X119066558Y-96121281D01*
X119006819Y-96061542D01*
X118973334Y-96000219D01*
X118970500Y-95973861D01*
X118970500Y-94253648D01*
X120738500Y-94253648D01*
X120738500Y-94458351D01*
X120770522Y-94660534D01*
X120833781Y-94855223D01*
X120926715Y-95037613D01*
X121047028Y-95203213D01*
X121047034Y-95203219D01*
X121191781Y-95347966D01*
X121348385Y-95461745D01*
X121391051Y-95517074D01*
X121399500Y-95562063D01*
X121399500Y-97913330D01*
X121399499Y-97913348D01*
X121399499Y-98079054D01*
X121399498Y-98079054D01*
X121440423Y-98231786D01*
X121440424Y-98231787D01*
X121466608Y-98277139D01*
X121519480Y-98368716D01*
X121519482Y-98368718D01*
X121638349Y-98487585D01*
X121638355Y-98487590D01*
X124173681Y-101022916D01*
X124207166Y-101084239D01*
X124210000Y-101110597D01*
X124210000Y-102124722D01*
X124133694Y-102080667D01*
X124019244Y-102050000D01*
X123900756Y-102050000D01*
X123786306Y-102080667D01*
X123710000Y-102124722D01*
X123710000Y-101100000D01*
X123012155Y-101100000D01*
X122952627Y-101106401D01*
X122952620Y-101106403D01*
X122817913Y-101156645D01*
X122817906Y-101156649D01*
X122702812Y-101242809D01*
X122702809Y-101242812D01*
X122616649Y-101357906D01*
X122616645Y-101357913D01*
X122566403Y-101492620D01*
X122566401Y-101492627D01*
X122560000Y-101552155D01*
X122560000Y-102250000D01*
X123584722Y-102250000D01*
X123540667Y-102326306D01*
X123510000Y-102440756D01*
X123510000Y-102559244D01*
X123540667Y-102673694D01*
X123584722Y-102750000D01*
X122560000Y-102750000D01*
X122560000Y-103447844D01*
X122566401Y-103507372D01*
X122566403Y-103507379D01*
X122616645Y-103642086D01*
X122616649Y-103642093D01*
X122702809Y-103757187D01*
X122702812Y-103757190D01*
X122817906Y-103843350D01*
X122817913Y-103843354D01*
X122952620Y-103893596D01*
X122952627Y-103893598D01*
X123012155Y-103899999D01*
X123012172Y-103900000D01*
X123710000Y-103900000D01*
X123710000Y-102875277D01*
X123786306Y-102919333D01*
X123900756Y-102950000D01*
X124019244Y-102950000D01*
X124133694Y-102919333D01*
X124210000Y-102875277D01*
X124210000Y-103900000D01*
X124907828Y-103900000D01*
X124907844Y-103899999D01*
X124967372Y-103893598D01*
X124967379Y-103893596D01*
X125102086Y-103843354D01*
X125102093Y-103843350D01*
X125217187Y-103757190D01*
X125217190Y-103757187D01*
X125303350Y-103642093D01*
X125303354Y-103642086D01*
X125333213Y-103562031D01*
X125375084Y-103506097D01*
X125440548Y-103481680D01*
X125508821Y-103496531D01*
X125537076Y-103517683D01*
X125587636Y-103568243D01*
X125587641Y-103568247D01*
X125710307Y-103657368D01*
X125765978Y-103697815D01*
X125882501Y-103757187D01*
X125962393Y-103797895D01*
X125962396Y-103797896D01*
X126067221Y-103831955D01*
X126172049Y-103866015D01*
X126389778Y-103900500D01*
X126389779Y-103900500D01*
X126610221Y-103900500D01*
X126610222Y-103900500D01*
X126827951Y-103866015D01*
X127037606Y-103797895D01*
X127234022Y-103697815D01*
X127412365Y-103568242D01*
X127568242Y-103412365D01*
X127697815Y-103234022D01*
X127797895Y-103037606D01*
X127866015Y-102827951D01*
X127900500Y-102610222D01*
X127900500Y-102389778D01*
X127866015Y-102172049D01*
X127805763Y-101986609D01*
X127803768Y-101916767D01*
X127839849Y-101856935D01*
X127902550Y-101826107D01*
X127971964Y-101834072D01*
X128011375Y-101860610D01*
X130011699Y-103860934D01*
X130011709Y-103860945D01*
X130016039Y-103865275D01*
X130016040Y-103865276D01*
X130127844Y-103977080D01*
X130127846Y-103977081D01*
X130127850Y-103977084D01*
X130183235Y-104009060D01*
X130264776Y-104056137D01*
X130376579Y-104086094D01*
X130417502Y-104097060D01*
X130417503Y-104097060D01*
X134912815Y-104097060D01*
X134979854Y-104116745D01*
X135013131Y-104148172D01*
X135060586Y-104213488D01*
X135183072Y-104335974D01*
X135323212Y-104437792D01*
X135477555Y-104516433D01*
X135642299Y-104569962D01*
X135813389Y-104597060D01*
X135813390Y-104597060D01*
X136786610Y-104597060D01*
X136786611Y-104597060D01*
X136957701Y-104569962D01*
X137122445Y-104516433D01*
X137276788Y-104437792D01*
X137416928Y-104335974D01*
X137539414Y-104213488D01*
X137641232Y-104073348D01*
X137719873Y-103919005D01*
X137773402Y-103754261D01*
X137800500Y-103583171D01*
X137800500Y-103409949D01*
X137773402Y-103238859D01*
X137719873Y-103074115D01*
X137641232Y-102919772D01*
X137539414Y-102779632D01*
X137416928Y-102657146D01*
X137276788Y-102555328D01*
X137122445Y-102476687D01*
X136957701Y-102423158D01*
X136957699Y-102423157D01*
X136957698Y-102423157D01*
X136826271Y-102402341D01*
X136786611Y-102396060D01*
X135813389Y-102396060D01*
X135773728Y-102402341D01*
X135642302Y-102423157D01*
X135477552Y-102476688D01*
X135323211Y-102555328D01*
X135247657Y-102610222D01*
X135183072Y-102657146D01*
X135183070Y-102657148D01*
X135183069Y-102657148D01*
X135060588Y-102779629D01*
X135060588Y-102779630D01*
X135060586Y-102779632D01*
X135013133Y-102844946D01*
X134957803Y-102887611D01*
X134912815Y-102896060D01*
X130796657Y-102896060D01*
X130729618Y-102876375D01*
X130708976Y-102859741D01*
X125136819Y-97287584D01*
X125103334Y-97226261D01*
X125100500Y-97199903D01*
X125100500Y-93579765D01*
X125105828Y-93561619D01*
X125106166Y-93542711D01*
X125119665Y-93514495D01*
X125120185Y-93512726D01*
X125121398Y-93510874D01*
X125146898Y-93472711D01*
X125200511Y-93427906D01*
X125269836Y-93419199D01*
X125332863Y-93449354D01*
X125353102Y-93472711D01*
X125378602Y-93510874D01*
X125399480Y-93577551D01*
X125399500Y-93579765D01*
X125399500Y-96413330D01*
X125399499Y-96413348D01*
X125399499Y-96579054D01*
X125399498Y-96579054D01*
X125399499Y-96579057D01*
X125440423Y-96731785D01*
X125440424Y-96731787D01*
X125440423Y-96731787D01*
X125446583Y-96742455D01*
X125446584Y-96742456D01*
X125519477Y-96868712D01*
X125519481Y-96868717D01*
X125638349Y-96987585D01*
X125638354Y-96987589D01*
X130087844Y-101437080D01*
X130087846Y-101437081D01*
X130087850Y-101437084D01*
X130184043Y-101492620D01*
X130224776Y-101516137D01*
X130377503Y-101557061D01*
X130377505Y-101557061D01*
X130543214Y-101557061D01*
X130543230Y-101557060D01*
X134912815Y-101557060D01*
X134979854Y-101576745D01*
X135013131Y-101608172D01*
X135060586Y-101673488D01*
X135183072Y-101795974D01*
X135323212Y-101897792D01*
X135477555Y-101976433D01*
X135642299Y-102029962D01*
X135813389Y-102057060D01*
X135813390Y-102057060D01*
X136786610Y-102057060D01*
X136786611Y-102057060D01*
X136957701Y-102029962D01*
X137122445Y-101976433D01*
X137276788Y-101897792D01*
X137416928Y-101795974D01*
X137539414Y-101673488D01*
X137641232Y-101533348D01*
X137719873Y-101379005D01*
X137773402Y-101214261D01*
X137800500Y-101043171D01*
X137800500Y-100869949D01*
X137773402Y-100698859D01*
X137719873Y-100534115D01*
X137641232Y-100379772D01*
X137539414Y-100239632D01*
X137416928Y-100117146D01*
X137276788Y-100015328D01*
X137122445Y-99936687D01*
X136957701Y-99883158D01*
X136957699Y-99883157D01*
X136957698Y-99883157D01*
X136826271Y-99862341D01*
X136786611Y-99856060D01*
X135813389Y-99856060D01*
X135773728Y-99862341D01*
X135642302Y-99883157D01*
X135477552Y-99936688D01*
X135323211Y-100015328D01*
X135277231Y-100048735D01*
X135183072Y-100117146D01*
X135183070Y-100117148D01*
X135183069Y-100117148D01*
X135060588Y-100239629D01*
X135060588Y-100239630D01*
X135060586Y-100239632D01*
X135016656Y-100300097D01*
X135013133Y-100304946D01*
X134957803Y-100347611D01*
X134912815Y-100356060D01*
X130756658Y-100356060D01*
X130689619Y-100336375D01*
X130668977Y-100319741D01*
X128679185Y-98329949D01*
X134799500Y-98329949D01*
X134799500Y-98503170D01*
X134824883Y-98663438D01*
X134826598Y-98674261D01*
X134880127Y-98839005D01*
X134958768Y-98993348D01*
X135060586Y-99133488D01*
X135183072Y-99255974D01*
X135323212Y-99357792D01*
X135477555Y-99436433D01*
X135642299Y-99489962D01*
X135813389Y-99517060D01*
X135813390Y-99517060D01*
X136786610Y-99517060D01*
X136786611Y-99517060D01*
X136957701Y-99489962D01*
X137122445Y-99436433D01*
X137276788Y-99357792D01*
X137416928Y-99255974D01*
X137539414Y-99133488D01*
X137641232Y-98993348D01*
X137719873Y-98839005D01*
X137773402Y-98674261D01*
X137800500Y-98503171D01*
X137800500Y-98329949D01*
X137773402Y-98158859D01*
X137719873Y-97994115D01*
X137641232Y-97839772D01*
X137539414Y-97699632D01*
X137416928Y-97577146D01*
X137276788Y-97475328D01*
X137208282Y-97440423D01*
X137122447Y-97396688D01*
X137122446Y-97396687D01*
X137122445Y-97396687D01*
X136957701Y-97343158D01*
X136957699Y-97343157D01*
X136957698Y-97343157D01*
X136826271Y-97322341D01*
X136786611Y-97316060D01*
X135813389Y-97316060D01*
X135773728Y-97322341D01*
X135642302Y-97343157D01*
X135642299Y-97343158D01*
X135491802Y-97392058D01*
X135477552Y-97396688D01*
X135323211Y-97475328D01*
X135262442Y-97519480D01*
X135183072Y-97577146D01*
X135183070Y-97577148D01*
X135183069Y-97577148D01*
X135060588Y-97699629D01*
X135060588Y-97699630D01*
X135060586Y-97699632D01*
X135037222Y-97731790D01*
X134958768Y-97839771D01*
X134880128Y-97994112D01*
X134826597Y-98158862D01*
X134799500Y-98329949D01*
X128679185Y-98329949D01*
X126636819Y-96287583D01*
X126603334Y-96226260D01*
X126600500Y-96199902D01*
X126600500Y-94253648D01*
X128358500Y-94253648D01*
X128358500Y-94458351D01*
X128390522Y-94660534D01*
X128453781Y-94855223D01*
X128546715Y-95037613D01*
X128667028Y-95203213D01*
X128811786Y-95347971D01*
X128944680Y-95444522D01*
X128977390Y-95468287D01*
X129073140Y-95517074D01*
X129159780Y-95561220D01*
X129159786Y-95561222D01*
X129169268Y-95564303D01*
X129226944Y-95603739D01*
X129254143Y-95668098D01*
X129245513Y-95729685D01*
X129230263Y-95766502D01*
X129230261Y-95766510D01*
X129199500Y-95921153D01*
X129199500Y-96078846D01*
X129230261Y-96233489D01*
X129230264Y-96233501D01*
X129290602Y-96379172D01*
X129290609Y-96379185D01*
X129378210Y-96510288D01*
X129378213Y-96510292D01*
X129489707Y-96621786D01*
X129489711Y-96621789D01*
X129620814Y-96709390D01*
X129620827Y-96709397D01*
X129700640Y-96742456D01*
X129766503Y-96769737D01*
X129879326Y-96792179D01*
X129921153Y-96800499D01*
X129921156Y-96800500D01*
X129921158Y-96800500D01*
X130078844Y-96800500D01*
X130078845Y-96800499D01*
X130233497Y-96769737D01*
X130379179Y-96709394D01*
X130510289Y-96621789D01*
X130621789Y-96510289D01*
X130709394Y-96379179D01*
X130769737Y-96233497D01*
X130793298Y-96115050D01*
X130800638Y-96078150D01*
X130833023Y-96016239D01*
X130834519Y-96014715D01*
X131059285Y-95789949D01*
X134799500Y-95789949D01*
X134799500Y-95963170D01*
X134824262Y-96119516D01*
X134826598Y-96134261D01*
X134880127Y-96299005D01*
X134958768Y-96453348D01*
X135060586Y-96593488D01*
X135183072Y-96715974D01*
X135323212Y-96817792D01*
X135477555Y-96896433D01*
X135642299Y-96949962D01*
X135813389Y-96977060D01*
X135813390Y-96977060D01*
X136786610Y-96977060D01*
X136786611Y-96977060D01*
X136957701Y-96949962D01*
X137122445Y-96896433D01*
X137276788Y-96817792D01*
X137416928Y-96715974D01*
X137539414Y-96593488D01*
X137641232Y-96453348D01*
X137719873Y-96299005D01*
X137773402Y-96134261D01*
X137800500Y-95963171D01*
X137800500Y-95789949D01*
X137773402Y-95618859D01*
X137719873Y-95454115D01*
X137641232Y-95299772D01*
X137539414Y-95159632D01*
X137416928Y-95037146D01*
X137276788Y-94935328D01*
X137122445Y-94856687D01*
X136957701Y-94803158D01*
X136957699Y-94803157D01*
X136957698Y-94803157D01*
X136826271Y-94782341D01*
X136786611Y-94776060D01*
X135813389Y-94776060D01*
X135773728Y-94782341D01*
X135642302Y-94803157D01*
X135477552Y-94856688D01*
X135323211Y-94935328D01*
X135295651Y-94955352D01*
X135183072Y-95037146D01*
X135183070Y-95037148D01*
X135183069Y-95037148D01*
X135060588Y-95159629D01*
X135060588Y-95159630D01*
X135060586Y-95159632D01*
X135016859Y-95219816D01*
X134958768Y-95299771D01*
X134880128Y-95454112D01*
X134826597Y-95618862D01*
X134799500Y-95789949D01*
X131059285Y-95789949D01*
X133599284Y-93249949D01*
X134799500Y-93249949D01*
X134799500Y-93423170D01*
X134825055Y-93584523D01*
X134826598Y-93594261D01*
X134880127Y-93759005D01*
X134958768Y-93913348D01*
X135060586Y-94053488D01*
X135183072Y-94175974D01*
X135323212Y-94277792D01*
X135477555Y-94356433D01*
X135642299Y-94409962D01*
X135813389Y-94437060D01*
X135813390Y-94437060D01*
X136786610Y-94437060D01*
X136786611Y-94437060D01*
X136887044Y-94421153D01*
X141199500Y-94421153D01*
X141199500Y-94578846D01*
X141230261Y-94733489D01*
X141230264Y-94733501D01*
X141290602Y-94879172D01*
X141290609Y-94879185D01*
X141378210Y-95010288D01*
X141378213Y-95010292D01*
X141489707Y-95121786D01*
X141489711Y-95121789D01*
X141620814Y-95209390D01*
X141620827Y-95209397D01*
X141765185Y-95269191D01*
X141805414Y-95296071D01*
X159553453Y-113044111D01*
X159553454Y-113044112D01*
X159668192Y-113120777D01*
X159795667Y-113173578D01*
X159795672Y-113173580D01*
X159795676Y-113173580D01*
X159795677Y-113173581D01*
X159931004Y-113200500D01*
X159931007Y-113200500D01*
X160120378Y-113200500D01*
X160187417Y-113220185D01*
X160233172Y-113272989D01*
X160243116Y-113342147D01*
X160238311Y-113362810D01*
X160226598Y-113398859D01*
X160226597Y-113398862D01*
X160226597Y-113398864D01*
X160199500Y-113569949D01*
X160199500Y-113743170D01*
X160215372Y-113843386D01*
X160226598Y-113914261D01*
X160280127Y-114079005D01*
X160358768Y-114233348D01*
X160460586Y-114373488D01*
X160583072Y-114495974D01*
X160723212Y-114597792D01*
X160877555Y-114676433D01*
X161042299Y-114729962D01*
X161213389Y-114757060D01*
X161213390Y-114757060D01*
X162186610Y-114757060D01*
X162186611Y-114757060D01*
X162357701Y-114729962D01*
X162522445Y-114676433D01*
X162676788Y-114597792D01*
X162816928Y-114495974D01*
X162939414Y-114373488D01*
X163041232Y-114233348D01*
X163119873Y-114079005D01*
X163173402Y-113914261D01*
X163200500Y-113743171D01*
X163200500Y-113569949D01*
X163173402Y-113398859D01*
X163161690Y-113362816D01*
X163159696Y-113292978D01*
X163195776Y-113233145D01*
X163258477Y-113202316D01*
X163279622Y-113200500D01*
X168418843Y-113200500D01*
X168485882Y-113220185D01*
X168531637Y-113272989D01*
X168541581Y-113342147D01*
X168512556Y-113405703D01*
X168491730Y-113424816D01*
X168463231Y-113445523D01*
X168342780Y-113533034D01*
X168198028Y-113677786D01*
X168077715Y-113843386D01*
X167984781Y-114025776D01*
X167921522Y-114220465D01*
X167889500Y-114422648D01*
X167889500Y-114627351D01*
X167921522Y-114829534D01*
X167984781Y-115024223D01*
X168035192Y-115123158D01*
X168077585Y-115206359D01*
X168077715Y-115206613D01*
X168198028Y-115372213D01*
X168342786Y-115516971D01*
X168484281Y-115619771D01*
X168508390Y-115637287D01*
X168624607Y-115696503D01*
X168690776Y-115730218D01*
X168690778Y-115730218D01*
X168690781Y-115730220D01*
X168751658Y-115750000D01*
X168885465Y-115793477D01*
X168986557Y-115809488D01*
X169087648Y-115825500D01*
X169087649Y-115825500D01*
X169292351Y-115825500D01*
X169292352Y-115825500D01*
X169494534Y-115793477D01*
X169689219Y-115730220D01*
X169871610Y-115637287D01*
X170008670Y-115537708D01*
X170037213Y-115516971D01*
X170037215Y-115516968D01*
X170037219Y-115516966D01*
X170181966Y-115372219D01*
X170181968Y-115372215D01*
X170181971Y-115372213D01*
X170234732Y-115299590D01*
X170302287Y-115206610D01*
X170395220Y-115024219D01*
X170458477Y-114829534D01*
X170490500Y-114627352D01*
X170490500Y-114422682D01*
X175510000Y-114422682D01*
X175510000Y-114627317D01*
X175542009Y-114829417D01*
X175605244Y-115024031D01*
X175698141Y-115206350D01*
X175698147Y-115206359D01*
X175730523Y-115250921D01*
X175730524Y-115250922D01*
X176410000Y-114571446D01*
X176410000Y-114577661D01*
X176437259Y-114679394D01*
X176489920Y-114770606D01*
X176564394Y-114845080D01*
X176655606Y-114897741D01*
X176757339Y-114925000D01*
X176763553Y-114925000D01*
X176084076Y-115604474D01*
X176128650Y-115636859D01*
X176310968Y-115729755D01*
X176505582Y-115792990D01*
X176707683Y-115825000D01*
X176912317Y-115825000D01*
X177114417Y-115792990D01*
X177309031Y-115729755D01*
X177491349Y-115636859D01*
X177535921Y-115604474D01*
X176856447Y-114925000D01*
X176862661Y-114925000D01*
X176964394Y-114897741D01*
X177055606Y-114845080D01*
X177130080Y-114770606D01*
X177182741Y-114679394D01*
X177210000Y-114577661D01*
X177210000Y-114571448D01*
X177889474Y-115250922D01*
X177889474Y-115250921D01*
X177921859Y-115206349D01*
X178014755Y-115024031D01*
X178077990Y-114829417D01*
X178110000Y-114627317D01*
X178110000Y-114422682D01*
X178077990Y-114220582D01*
X178014755Y-114025968D01*
X177921859Y-113843650D01*
X177889474Y-113799077D01*
X177889474Y-113799076D01*
X177210000Y-114478551D01*
X177210000Y-114472339D01*
X177182741Y-114370606D01*
X177130080Y-114279394D01*
X177055606Y-114204920D01*
X176964394Y-114152259D01*
X176862661Y-114125000D01*
X176856446Y-114125000D01*
X177535922Y-113445524D01*
X177535921Y-113445523D01*
X177491359Y-113413147D01*
X177491350Y-113413141D01*
X177309031Y-113320244D01*
X177114417Y-113257009D01*
X176912317Y-113225000D01*
X176707683Y-113225000D01*
X176505582Y-113257009D01*
X176310968Y-113320244D01*
X176128644Y-113413143D01*
X176084077Y-113445523D01*
X176084077Y-113445524D01*
X176763554Y-114125000D01*
X176757339Y-114125000D01*
X176655606Y-114152259D01*
X176564394Y-114204920D01*
X176489920Y-114279394D01*
X176437259Y-114370606D01*
X176410000Y-114472339D01*
X176410000Y-114478553D01*
X175730524Y-113799077D01*
X175730523Y-113799077D01*
X175698143Y-113843644D01*
X175605244Y-114025968D01*
X175542009Y-114220582D01*
X175510000Y-114422682D01*
X170490500Y-114422682D01*
X170490500Y-114422648D01*
X170469005Y-114286934D01*
X170458477Y-114220465D01*
X170412514Y-114079007D01*
X170395220Y-114025781D01*
X170395218Y-114025778D01*
X170395218Y-114025776D01*
X170361503Y-113959607D01*
X170302287Y-113843390D01*
X170270092Y-113799077D01*
X170181971Y-113677786D01*
X170037219Y-113533034D01*
X169888271Y-113424817D01*
X169845606Y-113369489D01*
X169839627Y-113299875D01*
X169872232Y-113238080D01*
X169933071Y-113203723D01*
X169961157Y-113200500D01*
X172574684Y-113200500D01*
X172622136Y-113209939D01*
X172766498Y-113269735D01*
X172766503Y-113269737D01*
X172883343Y-113292978D01*
X172921153Y-113300499D01*
X172921156Y-113300500D01*
X172921158Y-113300500D01*
X173078844Y-113300500D01*
X173078845Y-113300499D01*
X173233497Y-113269737D01*
X173379179Y-113209394D01*
X173510289Y-113121789D01*
X173621789Y-113010289D01*
X173709394Y-112879179D01*
X173769737Y-112733497D01*
X173800500Y-112578842D01*
X173800500Y-112421158D01*
X173800500Y-112421155D01*
X173800499Y-112421153D01*
X173769738Y-112266510D01*
X173769737Y-112266503D01*
X173737831Y-112189474D01*
X173709397Y-112120827D01*
X173709390Y-112120814D01*
X173621789Y-111989711D01*
X173621786Y-111989707D01*
X173510292Y-111878213D01*
X173510288Y-111878210D01*
X173379185Y-111790609D01*
X173379172Y-111790602D01*
X173233501Y-111730264D01*
X173233489Y-111730261D01*
X173078845Y-111699500D01*
X173078842Y-111699500D01*
X172921158Y-111699500D01*
X172921155Y-111699500D01*
X172766510Y-111730261D01*
X172766498Y-111730264D01*
X172622136Y-111790061D01*
X172574684Y-111799500D01*
X163189494Y-111799500D01*
X163122455Y-111779815D01*
X163076700Y-111727011D01*
X163066756Y-111657853D01*
X163079009Y-111619205D01*
X163119873Y-111539005D01*
X163173402Y-111374261D01*
X163200500Y-111203171D01*
X163200500Y-111029949D01*
X163173402Y-110858859D01*
X163119873Y-110694115D01*
X163041232Y-110539772D01*
X162939414Y-110399632D01*
X162816928Y-110277146D01*
X162676788Y-110175328D01*
X162522445Y-110096687D01*
X162357701Y-110043158D01*
X162357699Y-110043157D01*
X162357698Y-110043157D01*
X162226271Y-110022341D01*
X162186611Y-110016060D01*
X161213389Y-110016060D01*
X161173728Y-110022341D01*
X161042302Y-110043157D01*
X160877552Y-110096688D01*
X160723211Y-110175328D01*
X160643256Y-110233419D01*
X160583072Y-110277146D01*
X160583070Y-110277148D01*
X160583069Y-110277148D01*
X160460588Y-110399629D01*
X160460588Y-110399630D01*
X160460586Y-110399632D01*
X160416859Y-110459816D01*
X160358768Y-110539771D01*
X160280128Y-110694112D01*
X160226597Y-110858862D01*
X160199500Y-111029949D01*
X160199500Y-111203170D01*
X160226597Y-111374258D01*
X160241071Y-111418803D01*
X160243066Y-111488644D01*
X160206986Y-111548477D01*
X160144285Y-111579305D01*
X160074871Y-111571340D01*
X160035459Y-111544802D01*
X156980606Y-108489949D01*
X160199500Y-108489949D01*
X160199500Y-108663171D01*
X160226598Y-108834261D01*
X160280127Y-108999005D01*
X160358768Y-109153348D01*
X160460586Y-109293488D01*
X160583072Y-109415974D01*
X160723212Y-109517792D01*
X160877555Y-109596433D01*
X161042299Y-109649962D01*
X161213389Y-109677060D01*
X161213390Y-109677060D01*
X162186610Y-109677060D01*
X162186611Y-109677060D01*
X162357701Y-109649962D01*
X162522445Y-109596433D01*
X162676788Y-109517792D01*
X162816928Y-109415974D01*
X162939414Y-109293488D01*
X163041232Y-109153348D01*
X163119873Y-108999005D01*
X163173402Y-108834261D01*
X163200500Y-108663171D01*
X163200500Y-108489949D01*
X163173402Y-108318859D01*
X163119873Y-108154115D01*
X163041232Y-107999772D01*
X162939414Y-107859632D01*
X162816928Y-107737146D01*
X162676788Y-107635328D01*
X162522445Y-107556687D01*
X162357701Y-107503158D01*
X162357699Y-107503157D01*
X162357698Y-107503157D01*
X162226271Y-107482341D01*
X162186611Y-107476060D01*
X161213389Y-107476060D01*
X161173728Y-107482341D01*
X161042302Y-107503157D01*
X160877552Y-107556688D01*
X160723211Y-107635328D01*
X160643256Y-107693419D01*
X160583072Y-107737146D01*
X160583070Y-107737148D01*
X160583069Y-107737148D01*
X160460588Y-107859629D01*
X160460588Y-107859630D01*
X160460586Y-107859632D01*
X160416859Y-107919816D01*
X160358768Y-107999771D01*
X160280128Y-108154112D01*
X160226597Y-108318862D01*
X160199500Y-108489949D01*
X156980606Y-108489949D01*
X154440606Y-105949949D01*
X160199500Y-105949949D01*
X160199500Y-106123170D01*
X160216974Y-106233501D01*
X160226598Y-106294261D01*
X160280127Y-106459005D01*
X160358768Y-106613348D01*
X160460586Y-106753488D01*
X160583072Y-106875974D01*
X160723212Y-106977792D01*
X160877555Y-107056433D01*
X161042299Y-107109962D01*
X161213389Y-107137060D01*
X161213390Y-107137060D01*
X162186610Y-107137060D01*
X162186611Y-107137060D01*
X162357701Y-107109962D01*
X162522445Y-107056433D01*
X162676788Y-106977792D01*
X162816928Y-106875974D01*
X162939414Y-106753488D01*
X163041232Y-106613348D01*
X163119873Y-106459005D01*
X163173402Y-106294261D01*
X163200500Y-106123171D01*
X163200500Y-105949949D01*
X163173402Y-105778859D01*
X163119873Y-105614115D01*
X163041232Y-105459772D01*
X162939414Y-105319632D01*
X162816928Y-105197146D01*
X162676788Y-105095328D01*
X162522445Y-105016687D01*
X162357701Y-104963158D01*
X162357699Y-104963157D01*
X162357698Y-104963157D01*
X162226271Y-104942341D01*
X162186611Y-104936060D01*
X161213389Y-104936060D01*
X161173728Y-104942341D01*
X161042302Y-104963157D01*
X160877552Y-105016688D01*
X160723211Y-105095328D01*
X160643256Y-105153419D01*
X160583072Y-105197146D01*
X160583070Y-105197148D01*
X160583069Y-105197148D01*
X160460588Y-105319629D01*
X160460588Y-105319630D01*
X160460586Y-105319632D01*
X160418026Y-105378210D01*
X160358768Y-105459771D01*
X160280128Y-105614112D01*
X160226597Y-105778862D01*
X160199500Y-105949949D01*
X154440606Y-105949949D01*
X144280606Y-95789949D01*
X160199500Y-95789949D01*
X160199500Y-95963170D01*
X160224262Y-96119516D01*
X160226598Y-96134261D01*
X160280127Y-96299005D01*
X160358768Y-96453348D01*
X160460586Y-96593488D01*
X160583072Y-96715974D01*
X160723212Y-96817792D01*
X160877555Y-96896433D01*
X161042299Y-96949962D01*
X161213389Y-96977060D01*
X161899903Y-96977060D01*
X161929343Y-96985704D01*
X161959330Y-96992228D01*
X161964345Y-96995982D01*
X161966942Y-96996745D01*
X161987584Y-97013379D01*
X162078584Y-97104379D01*
X162112069Y-97165702D01*
X162107085Y-97235394D01*
X162065213Y-97291327D01*
X161999749Y-97315744D01*
X161990903Y-97316060D01*
X161213389Y-97316060D01*
X161173728Y-97322341D01*
X161042302Y-97343157D01*
X161042299Y-97343158D01*
X160891802Y-97392058D01*
X160877552Y-97396688D01*
X160723211Y-97475328D01*
X160662442Y-97519480D01*
X160583072Y-97577146D01*
X160583070Y-97577148D01*
X160583069Y-97577148D01*
X160460588Y-97699629D01*
X160460588Y-97699630D01*
X160460586Y-97699632D01*
X160437222Y-97731790D01*
X160358768Y-97839771D01*
X160280128Y-97994112D01*
X160226597Y-98158862D01*
X160199500Y-98329949D01*
X160199500Y-98503170D01*
X160224883Y-98663438D01*
X160226598Y-98674261D01*
X160280127Y-98839005D01*
X160358768Y-98993348D01*
X160460586Y-99133488D01*
X160583072Y-99255974D01*
X160723212Y-99357792D01*
X160877555Y-99436433D01*
X161042299Y-99489962D01*
X161213389Y-99517060D01*
X161213390Y-99517060D01*
X162186610Y-99517060D01*
X162186611Y-99517060D01*
X162357701Y-99489962D01*
X162499051Y-99444033D01*
X162568891Y-99442039D01*
X162625049Y-99474284D01*
X163363181Y-100212416D01*
X163396666Y-100273739D01*
X163399500Y-100300097D01*
X163399500Y-100611813D01*
X163379815Y-100678852D01*
X163327011Y-100724607D01*
X163257853Y-100734551D01*
X163194297Y-100705526D01*
X163157569Y-100650131D01*
X163148359Y-100621786D01*
X163119873Y-100534115D01*
X163041232Y-100379772D01*
X162939414Y-100239632D01*
X162816928Y-100117146D01*
X162676788Y-100015328D01*
X162522445Y-99936687D01*
X162357701Y-99883158D01*
X162357699Y-99883157D01*
X162357698Y-99883157D01*
X162226271Y-99862341D01*
X162186611Y-99856060D01*
X161213389Y-99856060D01*
X161173728Y-99862341D01*
X161042302Y-99883157D01*
X160877552Y-99936688D01*
X160723211Y-100015328D01*
X160677231Y-100048735D01*
X160583072Y-100117146D01*
X160583070Y-100117148D01*
X160583069Y-100117148D01*
X160460588Y-100239629D01*
X160460588Y-100239630D01*
X160460586Y-100239632D01*
X160435806Y-100273739D01*
X160358768Y-100379771D01*
X160280128Y-100534112D01*
X160226597Y-100698862D01*
X160199500Y-100869949D01*
X160199500Y-101043170D01*
X160225180Y-101205312D01*
X160226598Y-101214261D01*
X160280127Y-101379005D01*
X160358768Y-101533348D01*
X160460586Y-101673488D01*
X160583072Y-101795974D01*
X160723212Y-101897792D01*
X160877555Y-101976433D01*
X161042299Y-102029962D01*
X161213389Y-102057060D01*
X161213390Y-102057060D01*
X162186610Y-102057060D01*
X162186611Y-102057060D01*
X162357701Y-102029962D01*
X162522445Y-101976433D01*
X162676788Y-101897792D01*
X162816928Y-101795974D01*
X162939414Y-101673488D01*
X163041232Y-101533348D01*
X163119873Y-101379005D01*
X163157569Y-101262986D01*
X163197007Y-101205312D01*
X163261365Y-101178114D01*
X163330212Y-101190029D01*
X163381687Y-101237273D01*
X163399500Y-101301306D01*
X163399500Y-103151813D01*
X163379815Y-103218852D01*
X163327011Y-103264607D01*
X163257853Y-103274551D01*
X163194297Y-103245526D01*
X163157569Y-103190131D01*
X163119873Y-103074115D01*
X163041232Y-102919772D01*
X162939414Y-102779632D01*
X162816928Y-102657146D01*
X162676788Y-102555328D01*
X162522445Y-102476687D01*
X162357701Y-102423158D01*
X162357699Y-102423157D01*
X162357698Y-102423157D01*
X162226271Y-102402341D01*
X162186611Y-102396060D01*
X161213389Y-102396060D01*
X161173728Y-102402341D01*
X161042302Y-102423157D01*
X160877552Y-102476688D01*
X160723211Y-102555328D01*
X160647657Y-102610222D01*
X160583072Y-102657146D01*
X160583070Y-102657148D01*
X160583069Y-102657148D01*
X160460588Y-102779629D01*
X160460588Y-102779630D01*
X160460586Y-102779632D01*
X160425480Y-102827951D01*
X160358768Y-102919771D01*
X160280128Y-103074112D01*
X160226597Y-103238862D01*
X160199500Y-103409949D01*
X160199500Y-103583171D01*
X160226598Y-103754261D01*
X160280127Y-103919005D01*
X160358768Y-104073348D01*
X160460586Y-104213488D01*
X160583072Y-104335974D01*
X160723212Y-104437792D01*
X160877555Y-104516433D01*
X161042299Y-104569962D01*
X161213389Y-104597060D01*
X161213390Y-104597060D01*
X162186610Y-104597060D01*
X162186611Y-104597060D01*
X162357701Y-104569962D01*
X162522445Y-104516433D01*
X162676788Y-104437792D01*
X162816928Y-104335974D01*
X162939414Y-104213488D01*
X163041232Y-104073348D01*
X163119873Y-103919005D01*
X163173402Y-103754261D01*
X163183579Y-103690002D01*
X163184132Y-103688837D01*
X163183992Y-103687550D01*
X163199049Y-103657368D01*
X163213506Y-103626873D01*
X163214605Y-103626188D01*
X163215184Y-103625029D01*
X163244183Y-103607770D01*
X163272817Y-103589941D01*
X163274111Y-103589959D01*
X163275225Y-103589297D01*
X163308926Y-103590455D01*
X163342679Y-103590937D01*
X163343759Y-103591653D01*
X163345053Y-103591698D01*
X163372777Y-103610892D01*
X163400913Y-103629546D01*
X163401781Y-103630972D01*
X163402499Y-103631469D01*
X163404613Y-103635623D01*
X163420549Y-103661799D01*
X163423702Y-103669382D01*
X163440423Y-103731785D01*
X163469360Y-103781904D01*
X163514993Y-103860945D01*
X163519479Y-103868714D01*
X163519481Y-103868717D01*
X163638349Y-103987585D01*
X163638355Y-103987590D01*
X170165425Y-110514660D01*
X170198910Y-110575983D01*
X170199361Y-110578149D01*
X170230261Y-110733491D01*
X170230264Y-110733501D01*
X170290602Y-110879172D01*
X170290609Y-110879185D01*
X170378210Y-111010288D01*
X170378213Y-111010292D01*
X170489707Y-111121786D01*
X170489711Y-111121789D01*
X170620814Y-111209390D01*
X170620827Y-111209397D01*
X170713018Y-111247583D01*
X170766503Y-111269737D01*
X170921153Y-111300499D01*
X170921156Y-111300500D01*
X170921158Y-111300500D01*
X171078844Y-111300500D01*
X171078845Y-111300499D01*
X171233497Y-111269737D01*
X171379179Y-111209394D01*
X171510289Y-111121789D01*
X171621789Y-111010289D01*
X171709394Y-110879179D01*
X171769737Y-110733497D01*
X171800500Y-110578842D01*
X171800500Y-110421158D01*
X171800500Y-110421155D01*
X171800499Y-110421153D01*
X171796218Y-110399629D01*
X171769737Y-110266503D01*
X171769735Y-110266498D01*
X171709397Y-110120827D01*
X171709390Y-110120814D01*
X171621789Y-109989711D01*
X171621786Y-109989707D01*
X171510292Y-109878213D01*
X171510288Y-109878210D01*
X171379185Y-109790609D01*
X171379172Y-109790602D01*
X171233501Y-109730264D01*
X171233491Y-109730261D01*
X171078149Y-109699361D01*
X171016238Y-109666976D01*
X171014660Y-109665425D01*
X164636819Y-103287584D01*
X164603334Y-103226261D01*
X164600500Y-103199903D01*
X164600500Y-99920945D01*
X164600500Y-99920943D01*
X164559577Y-99768216D01*
X164559577Y-99768215D01*
X164559577Y-99768214D01*
X164530639Y-99718095D01*
X164530637Y-99718092D01*
X164480520Y-99631284D01*
X164368716Y-99519480D01*
X164368715Y-99519479D01*
X164364385Y-99515149D01*
X164364374Y-99515139D01*
X163661417Y-98812182D01*
X163650805Y-98792748D01*
X163636304Y-98776013D01*
X163634386Y-98762680D01*
X163627932Y-98750859D01*
X163629511Y-98728772D01*
X163626360Y-98706855D01*
X163631955Y-98694603D01*
X163632916Y-98681167D01*
X163646187Y-98663438D01*
X163655385Y-98643299D01*
X163666715Y-98636016D01*
X163674788Y-98625234D01*
X163695533Y-98617496D01*
X163714162Y-98605524D01*
X163736081Y-98602372D01*
X163740252Y-98600817D01*
X163749097Y-98600501D01*
X163902498Y-98600501D01*
X163902501Y-98600500D01*
X163910109Y-98600500D01*
X175199903Y-98600500D01*
X175266942Y-98620185D01*
X175287584Y-98636819D01*
X176665425Y-100014660D01*
X176698910Y-100075983D01*
X176699361Y-100078149D01*
X176730261Y-100233491D01*
X176730264Y-100233501D01*
X176790602Y-100379172D01*
X176790609Y-100379185D01*
X176878210Y-100510288D01*
X176878213Y-100510292D01*
X176989707Y-100621786D01*
X176989711Y-100621789D01*
X177120814Y-100709390D01*
X177120827Y-100709397D01*
X177266498Y-100769735D01*
X177266503Y-100769737D01*
X177421153Y-100800499D01*
X177421156Y-100800500D01*
X177421158Y-100800500D01*
X177578844Y-100800500D01*
X177578845Y-100800499D01*
X177733497Y-100769737D01*
X177879179Y-100709394D01*
X178010289Y-100621789D01*
X178121789Y-100510289D01*
X178209394Y-100379179D01*
X178269737Y-100233497D01*
X178300500Y-100078842D01*
X178300500Y-99921158D01*
X178300500Y-99921155D01*
X178300499Y-99921153D01*
X178274411Y-99790000D01*
X178269737Y-99766503D01*
X178249685Y-99718092D01*
X178209397Y-99620827D01*
X178209390Y-99620814D01*
X178121789Y-99489711D01*
X178121786Y-99489707D01*
X178010292Y-99378213D01*
X178010288Y-99378210D01*
X177879185Y-99290609D01*
X177879172Y-99290602D01*
X177733501Y-99230264D01*
X177733491Y-99230261D01*
X177578149Y-99199361D01*
X177516238Y-99166976D01*
X177514660Y-99165425D01*
X175987590Y-97638355D01*
X175987588Y-97638352D01*
X175868717Y-97519481D01*
X175868716Y-97519480D01*
X175781904Y-97469360D01*
X175781904Y-97469359D01*
X175781900Y-97469358D01*
X175731785Y-97440423D01*
X175579057Y-97399499D01*
X175420943Y-97399499D01*
X175413347Y-97399499D01*
X175413331Y-97399500D01*
X164123538Y-97399500D01*
X164056499Y-97379815D01*
X164035857Y-97363181D01*
X163133556Y-96460880D01*
X163100071Y-96399557D01*
X163105055Y-96329865D01*
X163110753Y-96316904D01*
X163111328Y-96315774D01*
X163119873Y-96299005D01*
X163173402Y-96134261D01*
X163200500Y-95963171D01*
X163200500Y-95789949D01*
X163173402Y-95618859D01*
X163119873Y-95454115D01*
X163041232Y-95299772D01*
X162939414Y-95159632D01*
X162816928Y-95037146D01*
X162676788Y-94935328D01*
X162522446Y-94856687D01*
X162436743Y-94828840D01*
X162357701Y-94803158D01*
X162357699Y-94803157D01*
X162357698Y-94803157D01*
X162226271Y-94782341D01*
X162186611Y-94776060D01*
X161213389Y-94776060D01*
X161173728Y-94782341D01*
X161042302Y-94803157D01*
X160877552Y-94856688D01*
X160723211Y-94935328D01*
X160695651Y-94955352D01*
X160583072Y-95037146D01*
X160583070Y-95037148D01*
X160583069Y-95037148D01*
X160460588Y-95159629D01*
X160460588Y-95159630D01*
X160460586Y-95159632D01*
X160416859Y-95219816D01*
X160358768Y-95299771D01*
X160280128Y-95454112D01*
X160226597Y-95618862D01*
X160199500Y-95789949D01*
X144280606Y-95789949D01*
X143241305Y-94750648D01*
X167889500Y-94750648D01*
X167889500Y-94955351D01*
X167921522Y-95157534D01*
X167984781Y-95352223D01*
X168040586Y-95461744D01*
X168075102Y-95529486D01*
X168077715Y-95534613D01*
X168198028Y-95700213D01*
X168342786Y-95844971D01*
X168497749Y-95957556D01*
X168508390Y-95965287D01*
X168605290Y-96014660D01*
X168690776Y-96058218D01*
X168690778Y-96058218D01*
X168690781Y-96058220D01*
X168795137Y-96092127D01*
X168885465Y-96121477D01*
X168986557Y-96137488D01*
X169087648Y-96153500D01*
X169087649Y-96153500D01*
X169292351Y-96153500D01*
X169292352Y-96153500D01*
X169494534Y-96121477D01*
X169689219Y-96058220D01*
X169871610Y-95965287D01*
X169964590Y-95897732D01*
X170037213Y-95844971D01*
X170037215Y-95844968D01*
X170037219Y-95844966D01*
X170181966Y-95700219D01*
X170181968Y-95700215D01*
X170181971Y-95700213D01*
X170234732Y-95627590D01*
X170302287Y-95534610D01*
X170395220Y-95352219D01*
X170458477Y-95157534D01*
X170490500Y-94955352D01*
X170490500Y-94750648D01*
X170458477Y-94548466D01*
X170395220Y-94353781D01*
X170395218Y-94353778D01*
X170395218Y-94353776D01*
X170356501Y-94277791D01*
X170302287Y-94171390D01*
X170236044Y-94080213D01*
X170181971Y-94005786D01*
X170037213Y-93861028D01*
X169871613Y-93740715D01*
X169871612Y-93740714D01*
X169871610Y-93740713D01*
X169790725Y-93699500D01*
X169689223Y-93647781D01*
X169494534Y-93584522D01*
X169319995Y-93556878D01*
X169292352Y-93552500D01*
X169087648Y-93552500D01*
X169063329Y-93556351D01*
X168885465Y-93584522D01*
X168690776Y-93647781D01*
X168508386Y-93740715D01*
X168342786Y-93861028D01*
X168198028Y-94005786D01*
X168077715Y-94171386D01*
X167984781Y-94353776D01*
X167921522Y-94548465D01*
X167889500Y-94750648D01*
X143241305Y-94750648D01*
X142796071Y-94305414D01*
X142769191Y-94265185D01*
X142709397Y-94120827D01*
X142709390Y-94120814D01*
X142621789Y-93989711D01*
X142621786Y-93989707D01*
X142510292Y-93878213D01*
X142510288Y-93878210D01*
X142379185Y-93790609D01*
X142379172Y-93790602D01*
X142233501Y-93730264D01*
X142233489Y-93730261D01*
X142078845Y-93699500D01*
X142078842Y-93699500D01*
X141921158Y-93699500D01*
X141921155Y-93699500D01*
X141766510Y-93730261D01*
X141766498Y-93730264D01*
X141620827Y-93790602D01*
X141620814Y-93790609D01*
X141489711Y-93878210D01*
X141489707Y-93878213D01*
X141378213Y-93989707D01*
X141378210Y-93989711D01*
X141290609Y-94120814D01*
X141290602Y-94120827D01*
X141230264Y-94266498D01*
X141230261Y-94266510D01*
X141199500Y-94421153D01*
X136887044Y-94421153D01*
X136957701Y-94409962D01*
X137122445Y-94356433D01*
X137276788Y-94277792D01*
X137416928Y-94175974D01*
X137539414Y-94053488D01*
X137641232Y-93913348D01*
X137719873Y-93759005D01*
X137773402Y-93594261D01*
X137800500Y-93423171D01*
X137800500Y-93249949D01*
X137797490Y-93230943D01*
X137783565Y-93143022D01*
X137783565Y-93143020D01*
X137776929Y-93101133D01*
X137774621Y-93086559D01*
X160225884Y-93086559D01*
X160225885Y-93086560D01*
X161384314Y-93086560D01*
X161379920Y-93090954D01*
X161327259Y-93182166D01*
X161300000Y-93283899D01*
X161300000Y-93389221D01*
X161327259Y-93490954D01*
X161379920Y-93582166D01*
X161384314Y-93586560D01*
X160225885Y-93586560D01*
X160227085Y-93594144D01*
X160280591Y-93758815D01*
X160359195Y-93913084D01*
X160460967Y-94053162D01*
X160583397Y-94175592D01*
X160723475Y-94277364D01*
X160877742Y-94355968D01*
X161042415Y-94409474D01*
X161213429Y-94436560D01*
X161450000Y-94436560D01*
X161450000Y-93652246D01*
X161454394Y-93656640D01*
X161545606Y-93709301D01*
X161647339Y-93736560D01*
X161752661Y-93736560D01*
X161854394Y-93709301D01*
X161945606Y-93656640D01*
X161950000Y-93652246D01*
X161950000Y-94436560D01*
X162186571Y-94436560D01*
X162357584Y-94409474D01*
X162522257Y-94355968D01*
X162676524Y-94277364D01*
X162816602Y-94175592D01*
X162939032Y-94053162D01*
X163040804Y-93913084D01*
X163119408Y-93758815D01*
X163172914Y-93594144D01*
X163174115Y-93586560D01*
X162015686Y-93586560D01*
X162020080Y-93582166D01*
X162072741Y-93490954D01*
X162100000Y-93389221D01*
X162100000Y-93283899D01*
X162072741Y-93182166D01*
X162020080Y-93090954D01*
X162015686Y-93086560D01*
X163174115Y-93086560D01*
X163174115Y-93086559D01*
X163172914Y-93078975D01*
X163119408Y-92914304D01*
X163040804Y-92760035D01*
X162939032Y-92619957D01*
X162816602Y-92497527D01*
X162676524Y-92395755D01*
X162522257Y-92317151D01*
X162357584Y-92263645D01*
X162186571Y-92236560D01*
X161950000Y-92236560D01*
X161950000Y-93020874D01*
X161945606Y-93016480D01*
X161854394Y-92963819D01*
X161752661Y-92936560D01*
X161647339Y-92936560D01*
X161545606Y-92963819D01*
X161454394Y-93016480D01*
X161450000Y-93020874D01*
X161450000Y-92236560D01*
X161213429Y-92236560D01*
X161042415Y-92263645D01*
X160877742Y-92317151D01*
X160723475Y-92395755D01*
X160583397Y-92497527D01*
X160460967Y-92619957D01*
X160359195Y-92760035D01*
X160280591Y-92914304D01*
X160227085Y-93078975D01*
X160225884Y-93086559D01*
X137774621Y-93086559D01*
X137773402Y-93078859D01*
X137719873Y-92914115D01*
X137641232Y-92759772D01*
X137539414Y-92619632D01*
X137416928Y-92497146D01*
X137276788Y-92395328D01*
X137122445Y-92316687D01*
X136957701Y-92263158D01*
X136957699Y-92263157D01*
X136957698Y-92263157D01*
X136826271Y-92242341D01*
X136786611Y-92236060D01*
X135813389Y-92236060D01*
X135773728Y-92242341D01*
X135642302Y-92263157D01*
X135477552Y-92316688D01*
X135323211Y-92395328D01*
X135243256Y-92453419D01*
X135183072Y-92497146D01*
X135183070Y-92497148D01*
X135183069Y-92497148D01*
X135060588Y-92619629D01*
X135060588Y-92619630D01*
X135060586Y-92619632D01*
X135059718Y-92620827D01*
X134958768Y-92759771D01*
X134880128Y-92914112D01*
X134826597Y-93078862D01*
X134799500Y-93249949D01*
X133599284Y-93249949D01*
X135125671Y-91723562D01*
X135186992Y-91690079D01*
X135256684Y-91695063D01*
X135286235Y-91710926D01*
X135323212Y-91737792D01*
X135477555Y-91816433D01*
X135642299Y-91869962D01*
X135813389Y-91897060D01*
X135813390Y-91897060D01*
X136786610Y-91897060D01*
X136786611Y-91897060D01*
X136957701Y-91869962D01*
X137122445Y-91816433D01*
X137276788Y-91737792D01*
X137416928Y-91635974D01*
X137539414Y-91513488D01*
X137641232Y-91373348D01*
X137719873Y-91219005D01*
X137773402Y-91054261D01*
X137800500Y-90883171D01*
X137800500Y-90709949D01*
X160199500Y-90709949D01*
X160199500Y-90883171D01*
X160226598Y-91054261D01*
X160280127Y-91219005D01*
X160358768Y-91373348D01*
X160460586Y-91513488D01*
X160583072Y-91635974D01*
X160723212Y-91737792D01*
X160877555Y-91816433D01*
X161042299Y-91869962D01*
X161213389Y-91897060D01*
X161213390Y-91897060D01*
X162186610Y-91897060D01*
X162186611Y-91897060D01*
X162357701Y-91869962D01*
X162522445Y-91816433D01*
X162676788Y-91737792D01*
X162816928Y-91635974D01*
X162939414Y-91513488D01*
X163041232Y-91373348D01*
X163119873Y-91219005D01*
X163173402Y-91054261D01*
X163200500Y-90883171D01*
X163200500Y-90709949D01*
X163173402Y-90538859D01*
X163119873Y-90374115D01*
X163041232Y-90219772D01*
X162939414Y-90079632D01*
X162816928Y-89957146D01*
X162676788Y-89855328D01*
X162522445Y-89776687D01*
X162357701Y-89723158D01*
X162357699Y-89723157D01*
X162357698Y-89723157D01*
X162226271Y-89702341D01*
X162186611Y-89696060D01*
X161213389Y-89696060D01*
X161173728Y-89702341D01*
X161042302Y-89723157D01*
X161042299Y-89723158D01*
X160941063Y-89756052D01*
X160877552Y-89776688D01*
X160723211Y-89855328D01*
X160643256Y-89913419D01*
X160583072Y-89957146D01*
X160583070Y-89957148D01*
X160583069Y-89957148D01*
X160460588Y-90079629D01*
X160460588Y-90079630D01*
X160460586Y-90079632D01*
X160460584Y-90079635D01*
X160358768Y-90219771D01*
X160280128Y-90374112D01*
X160226597Y-90538862D01*
X160199500Y-90709949D01*
X137800500Y-90709949D01*
X137773402Y-90538859D01*
X137719873Y-90374115D01*
X137641232Y-90219772D01*
X137539414Y-90079632D01*
X137416928Y-89957146D01*
X137276788Y-89855328D01*
X137122445Y-89776687D01*
X136957701Y-89723158D01*
X136957699Y-89723157D01*
X136957698Y-89723157D01*
X136826271Y-89702341D01*
X136786611Y-89696060D01*
X135813389Y-89696060D01*
X135773728Y-89702341D01*
X135642302Y-89723157D01*
X135642299Y-89723158D01*
X135541063Y-89756052D01*
X135477552Y-89776688D01*
X135323211Y-89855328D01*
X135243256Y-89913419D01*
X135183072Y-89957146D01*
X135183070Y-89957148D01*
X135183069Y-89957148D01*
X135060588Y-90079629D01*
X135060583Y-90079635D01*
X134958770Y-90219769D01*
X134958764Y-90219778D01*
X134957640Y-90221985D01*
X134956992Y-90222670D01*
X134956221Y-90223929D01*
X134955956Y-90223766D01*
X134909658Y-90272774D01*
X134909165Y-90273060D01*
X134834727Y-90316038D01*
X134834721Y-90316042D01*
X134722918Y-90427846D01*
X131112696Y-94038067D01*
X131051373Y-94071552D01*
X130981681Y-94066568D01*
X130925748Y-94024696D01*
X130907084Y-93988704D01*
X130864220Y-93856781D01*
X130771287Y-93674390D01*
X130724576Y-93610097D01*
X130650971Y-93508786D01*
X130506213Y-93364028D01*
X130340613Y-93243715D01*
X130340612Y-93243714D01*
X130340610Y-93243713D01*
X130283653Y-93214691D01*
X130158223Y-93150781D01*
X129963534Y-93087522D01*
X129788995Y-93059878D01*
X129761352Y-93055500D01*
X129556648Y-93055500D01*
X129532329Y-93059351D01*
X129354465Y-93087522D01*
X129159776Y-93150781D01*
X128977386Y-93243715D01*
X128811786Y-93364028D01*
X128667028Y-93508786D01*
X128546715Y-93674386D01*
X128453781Y-93856776D01*
X128390522Y-94051465D01*
X128358500Y-94253648D01*
X126600500Y-94253648D01*
X126600500Y-93579765D01*
X126620185Y-93512726D01*
X126621398Y-93510874D01*
X126662505Y-93449354D01*
X126709394Y-93379179D01*
X126769737Y-93233497D01*
X126800500Y-93078842D01*
X126800500Y-92921158D01*
X126800500Y-92921155D01*
X126800499Y-92921153D01*
X126782264Y-92829480D01*
X126769737Y-92766503D01*
X126750000Y-92718853D01*
X126709397Y-92620827D01*
X126709390Y-92620814D01*
X126621789Y-92489711D01*
X126621786Y-92489707D01*
X126510292Y-92378213D01*
X126510288Y-92378210D01*
X126379185Y-92290609D01*
X126379172Y-92290602D01*
X126233501Y-92230264D01*
X126233489Y-92230261D01*
X126078845Y-92199500D01*
X126078842Y-92199500D01*
X125921158Y-92199500D01*
X125921155Y-92199500D01*
X125766510Y-92230261D01*
X125766498Y-92230264D01*
X125620827Y-92290602D01*
X125620814Y-92290609D01*
X125489711Y-92378210D01*
X125489707Y-92378213D01*
X125378213Y-92489707D01*
X125353102Y-92527289D01*
X125299489Y-92572093D01*
X125230164Y-92580800D01*
X125167137Y-92550645D01*
X125146898Y-92527289D01*
X125121786Y-92489707D01*
X125010292Y-92378213D01*
X125010288Y-92378210D01*
X124879185Y-92290609D01*
X124879172Y-92290602D01*
X124733501Y-92230264D01*
X124733489Y-92230261D01*
X124578845Y-92199500D01*
X124578842Y-92199500D01*
X124421158Y-92199500D01*
X124421155Y-92199500D01*
X124266510Y-92230261D01*
X124266498Y-92230264D01*
X124120827Y-92290602D01*
X124120814Y-92290609D01*
X123989711Y-92378210D01*
X123989707Y-92378213D01*
X123878213Y-92489707D01*
X123878210Y-92489711D01*
X123790609Y-92620814D01*
X123790602Y-92620827D01*
X123730264Y-92766498D01*
X123730261Y-92766510D01*
X123699500Y-92921153D01*
X123699500Y-93078846D01*
X123730261Y-93233489D01*
X123730264Y-93233501D01*
X123790602Y-93379172D01*
X123790609Y-93379185D01*
X123878602Y-93510874D01*
X123899480Y-93577551D01*
X123899500Y-93579765D01*
X123899500Y-97413330D01*
X123899499Y-97413348D01*
X123899499Y-97579054D01*
X123899498Y-97579054D01*
X123940424Y-97731789D01*
X123940425Y-97731790D01*
X123961455Y-97768214D01*
X123961456Y-97768216D01*
X124019475Y-97868709D01*
X124019481Y-97868717D01*
X124138349Y-97987585D01*
X124138355Y-97987590D01*
X127139389Y-100988624D01*
X127172874Y-101049947D01*
X127167890Y-101119639D01*
X127126018Y-101175572D01*
X127060554Y-101199989D01*
X127013391Y-101194236D01*
X126827953Y-101133985D01*
X126827954Y-101133985D01*
X126664654Y-101108121D01*
X126610222Y-101099500D01*
X126389778Y-101099500D01*
X126346232Y-101106397D01*
X126172045Y-101133985D01*
X126101794Y-101156811D01*
X126031953Y-101158806D01*
X125975796Y-101126561D01*
X122636819Y-97787584D01*
X122603334Y-97726261D01*
X122600500Y-97699903D01*
X122600500Y-95605473D01*
X122620185Y-95538434D01*
X122668206Y-95494988D01*
X122678500Y-95489743D01*
X122720610Y-95468287D01*
X122837725Y-95383199D01*
X122886213Y-95347971D01*
X122886215Y-95347968D01*
X122886219Y-95347966D01*
X123030966Y-95203219D01*
X123030968Y-95203215D01*
X123030971Y-95203213D01*
X123130452Y-95066287D01*
X123151287Y-95037610D01*
X123244220Y-94855219D01*
X123307477Y-94660534D01*
X123339500Y-94458352D01*
X123339500Y-94253648D01*
X123330970Y-94199794D01*
X123307477Y-94051465D01*
X123278127Y-93961137D01*
X123244220Y-93856781D01*
X123244218Y-93856778D01*
X123244218Y-93856776D01*
X123210500Y-93790602D01*
X123151287Y-93674390D01*
X123104576Y-93610097D01*
X123030971Y-93508786D01*
X122886213Y-93364028D01*
X122720613Y-93243715D01*
X122720612Y-93243714D01*
X122720610Y-93243713D01*
X122663653Y-93214691D01*
X122538223Y-93150781D01*
X122343534Y-93087522D01*
X122168995Y-93059878D01*
X122141352Y-93055500D01*
X121936648Y-93055500D01*
X121912329Y-93059351D01*
X121734465Y-93087522D01*
X121539776Y-93150781D01*
X121357386Y-93243715D01*
X121191786Y-93364028D01*
X121047028Y-93508786D01*
X120926715Y-93674386D01*
X120833781Y-93856776D01*
X120770522Y-94051465D01*
X120738500Y-94253648D01*
X118970500Y-94253648D01*
X118970500Y-88897648D01*
X120889500Y-88897648D01*
X120889500Y-89102351D01*
X120921522Y-89304534D01*
X120984781Y-89499223D01*
X121077715Y-89681613D01*
X121198028Y-89847213D01*
X121342786Y-89991971D01*
X121463448Y-90079635D01*
X121508390Y-90112287D01*
X121624607Y-90171503D01*
X121690776Y-90205218D01*
X121690778Y-90205218D01*
X121690781Y-90205220D01*
X121795137Y-90239127D01*
X121885465Y-90268477D01*
X121914401Y-90273060D01*
X122087648Y-90300500D01*
X122087649Y-90300500D01*
X122292351Y-90300500D01*
X122292352Y-90300500D01*
X122494534Y-90268477D01*
X122689219Y-90205220D01*
X122871610Y-90112287D01*
X122964590Y-90044732D01*
X123037213Y-89991971D01*
X123037215Y-89991968D01*
X123037219Y-89991966D01*
X123181966Y-89847219D01*
X123181968Y-89847215D01*
X123181971Y-89847213D01*
X123248202Y-89756052D01*
X123302287Y-89681610D01*
X123395220Y-89499219D01*
X123458477Y-89304534D01*
X123490500Y-89102352D01*
X123490500Y-88897648D01*
X128509500Y-88897648D01*
X128509500Y-89102351D01*
X128541522Y-89304534D01*
X128604781Y-89499223D01*
X128697715Y-89681613D01*
X128818028Y-89847213D01*
X128962786Y-89991971D01*
X129083448Y-90079635D01*
X129128390Y-90112287D01*
X129244607Y-90171503D01*
X129310776Y-90205218D01*
X129310778Y-90205218D01*
X129310781Y-90205220D01*
X129415137Y-90239127D01*
X129505465Y-90268477D01*
X129534401Y-90273060D01*
X129707648Y-90300500D01*
X129707649Y-90300500D01*
X129912351Y-90300500D01*
X129912352Y-90300500D01*
X130114534Y-90268477D01*
X130309219Y-90205220D01*
X130491610Y-90112287D01*
X130584590Y-90044732D01*
X130657213Y-89991971D01*
X130657215Y-89991968D01*
X130657219Y-89991966D01*
X130801966Y-89847219D01*
X130801968Y-89847215D01*
X130801971Y-89847213D01*
X130868202Y-89756052D01*
X130922287Y-89681610D01*
X131015220Y-89499219D01*
X131078477Y-89304534D01*
X131110500Y-89102352D01*
X131110500Y-88897648D01*
X131100316Y-88833348D01*
X131078477Y-88695465D01*
X131019600Y-88514261D01*
X131015220Y-88500781D01*
X131015218Y-88500778D01*
X131015218Y-88500776D01*
X130981503Y-88434607D01*
X130922287Y-88318390D01*
X130916686Y-88310680D01*
X130863854Y-88237962D01*
X130814440Y-88169949D01*
X134799500Y-88169949D01*
X134799500Y-88343171D01*
X134826598Y-88514261D01*
X134880127Y-88679005D01*
X134958768Y-88833348D01*
X135060586Y-88973488D01*
X135183072Y-89095974D01*
X135323212Y-89197792D01*
X135477555Y-89276433D01*
X135642299Y-89329962D01*
X135813389Y-89357060D01*
X135813390Y-89357060D01*
X136786610Y-89357060D01*
X136786611Y-89357060D01*
X136957701Y-89329962D01*
X137122445Y-89276433D01*
X137276788Y-89197792D01*
X137416928Y-89095974D01*
X137539414Y-88973488D01*
X137641232Y-88833348D01*
X137719873Y-88679005D01*
X137773402Y-88514261D01*
X137800500Y-88343171D01*
X137800500Y-88169949D01*
X160199500Y-88169949D01*
X160199500Y-88343171D01*
X160226598Y-88514261D01*
X160280127Y-88679005D01*
X160358768Y-88833348D01*
X160460586Y-88973488D01*
X160583072Y-89095974D01*
X160723212Y-89197792D01*
X160877555Y-89276433D01*
X161042299Y-89329962D01*
X161213389Y-89357060D01*
X161213390Y-89357060D01*
X162186610Y-89357060D01*
X162186611Y-89357060D01*
X162357701Y-89329962D01*
X162522445Y-89276433D01*
X162676788Y-89197792D01*
X162816928Y-89095974D01*
X162939414Y-88973488D01*
X163041232Y-88833348D01*
X163119873Y-88679005D01*
X163173402Y-88514261D01*
X163200500Y-88343171D01*
X163200500Y-88169949D01*
X163173402Y-87998859D01*
X163119873Y-87834115D01*
X163041232Y-87679772D01*
X162939414Y-87539632D01*
X162816928Y-87417146D01*
X162676788Y-87315328D01*
X162522445Y-87236687D01*
X162357701Y-87183158D01*
X162357699Y-87183157D01*
X162357698Y-87183157D01*
X162226271Y-87162341D01*
X162186611Y-87156060D01*
X161213389Y-87156060D01*
X161173728Y-87162341D01*
X161042302Y-87183157D01*
X160877552Y-87236688D01*
X160723211Y-87315328D01*
X160643256Y-87373419D01*
X160583072Y-87417146D01*
X160583070Y-87417148D01*
X160583069Y-87417148D01*
X160460588Y-87539629D01*
X160460588Y-87539630D01*
X160460586Y-87539632D01*
X160416859Y-87599816D01*
X160358768Y-87679771D01*
X160280128Y-87834112D01*
X160226597Y-87998862D01*
X160207207Y-88121288D01*
X160199500Y-88169949D01*
X137800500Y-88169949D01*
X137773402Y-87998859D01*
X137719873Y-87834115D01*
X137641232Y-87679772D01*
X137539414Y-87539632D01*
X137416928Y-87417146D01*
X137276788Y-87315328D01*
X137122445Y-87236687D01*
X136957701Y-87183158D01*
X136957699Y-87183157D01*
X136957698Y-87183157D01*
X136826271Y-87162341D01*
X136786611Y-87156060D01*
X135813389Y-87156060D01*
X135773728Y-87162341D01*
X135642302Y-87183157D01*
X135477552Y-87236688D01*
X135323211Y-87315328D01*
X135243256Y-87373419D01*
X135183072Y-87417146D01*
X135183070Y-87417148D01*
X135183069Y-87417148D01*
X135060588Y-87539629D01*
X135060588Y-87539630D01*
X135060586Y-87539632D01*
X135016859Y-87599816D01*
X134958768Y-87679771D01*
X134880128Y-87834112D01*
X134826597Y-87998862D01*
X134807207Y-88121288D01*
X134799500Y-88169949D01*
X130814440Y-88169949D01*
X130801971Y-88152786D01*
X130657213Y-88008028D01*
X130491613Y-87887715D01*
X130491612Y-87887714D01*
X130491610Y-87887713D01*
X130434653Y-87858691D01*
X130309223Y-87794781D01*
X130114534Y-87731522D01*
X129939995Y-87703878D01*
X129912352Y-87699500D01*
X129707648Y-87699500D01*
X129683329Y-87703351D01*
X129505465Y-87731522D01*
X129310776Y-87794781D01*
X129128386Y-87887715D01*
X128962786Y-88008028D01*
X128818028Y-88152786D01*
X128697715Y-88318386D01*
X128604781Y-88500776D01*
X128541522Y-88695465D01*
X128509500Y-88897648D01*
X123490500Y-88897648D01*
X123480316Y-88833348D01*
X123458477Y-88695465D01*
X123399600Y-88514261D01*
X123395220Y-88500781D01*
X123395218Y-88500778D01*
X123395218Y-88500776D01*
X123361503Y-88434607D01*
X123302287Y-88318390D01*
X123294556Y-88307749D01*
X123181971Y-88152786D01*
X123037213Y-88008028D01*
X122871613Y-87887715D01*
X122871612Y-87887714D01*
X122871610Y-87887713D01*
X122814653Y-87858691D01*
X122689223Y-87794781D01*
X122494534Y-87731522D01*
X122319995Y-87703878D01*
X122292352Y-87699500D01*
X122087648Y-87699500D01*
X122063329Y-87703351D01*
X121885465Y-87731522D01*
X121690776Y-87794781D01*
X121508386Y-87887715D01*
X121342786Y-88008028D01*
X121198028Y-88152786D01*
X121077715Y-88318386D01*
X120984781Y-88500776D01*
X120921522Y-88695465D01*
X120889500Y-88897648D01*
X118970500Y-88897648D01*
X118970500Y-85871285D01*
X118990185Y-85804246D01*
X119006814Y-85783609D01*
X119160474Y-85629949D01*
X134799500Y-85629949D01*
X134799500Y-85803171D01*
X134826598Y-85974261D01*
X134880127Y-86139005D01*
X134958768Y-86293348D01*
X135060586Y-86433488D01*
X135183072Y-86555974D01*
X135323212Y-86657792D01*
X135477555Y-86736433D01*
X135642299Y-86789962D01*
X135813389Y-86817060D01*
X135813390Y-86817060D01*
X136786610Y-86817060D01*
X136786611Y-86817060D01*
X136957701Y-86789962D01*
X137122445Y-86736433D01*
X137276788Y-86657792D01*
X137416928Y-86555974D01*
X137539414Y-86433488D01*
X137641232Y-86293348D01*
X137719873Y-86139005D01*
X137773402Y-85974261D01*
X137800500Y-85803171D01*
X137800500Y-85629949D01*
X160199500Y-85629949D01*
X160199500Y-85803171D01*
X160226598Y-85974261D01*
X160280127Y-86139005D01*
X160358768Y-86293348D01*
X160460586Y-86433488D01*
X160583072Y-86555974D01*
X160723212Y-86657792D01*
X160877555Y-86736433D01*
X161042299Y-86789962D01*
X161213389Y-86817060D01*
X161213390Y-86817060D01*
X162186610Y-86817060D01*
X162186611Y-86817060D01*
X162357701Y-86789962D01*
X162522445Y-86736433D01*
X162676788Y-86657792D01*
X162816928Y-86555974D01*
X162939414Y-86433488D01*
X163041232Y-86293348D01*
X163119873Y-86139005D01*
X163173402Y-85974261D01*
X163200500Y-85803171D01*
X163200500Y-85629949D01*
X163173402Y-85458859D01*
X163119873Y-85294115D01*
X163041232Y-85139772D01*
X162939414Y-84999632D01*
X162816928Y-84877146D01*
X162676788Y-84775328D01*
X162522445Y-84696687D01*
X162357701Y-84643158D01*
X162357699Y-84643157D01*
X162357698Y-84643157D01*
X162226271Y-84622341D01*
X162186611Y-84616060D01*
X161213389Y-84616060D01*
X161173728Y-84622341D01*
X161042302Y-84643157D01*
X160877552Y-84696688D01*
X160723211Y-84775328D01*
X160643256Y-84833419D01*
X160583072Y-84877146D01*
X160583070Y-84877148D01*
X160583069Y-84877148D01*
X160460588Y-84999629D01*
X160460588Y-84999630D01*
X160460586Y-84999632D01*
X160416859Y-85059816D01*
X160358768Y-85139771D01*
X160280128Y-85294112D01*
X160226597Y-85458862D01*
X160226294Y-85460778D01*
X160199500Y-85629949D01*
X137800500Y-85629949D01*
X137773402Y-85458859D01*
X137719873Y-85294115D01*
X137641232Y-85139772D01*
X137539414Y-84999632D01*
X137416928Y-84877146D01*
X137276788Y-84775328D01*
X137122445Y-84696687D01*
X136957701Y-84643158D01*
X136957699Y-84643157D01*
X136957698Y-84643157D01*
X136826271Y-84622341D01*
X136786611Y-84616060D01*
X135813389Y-84616060D01*
X135773728Y-84622341D01*
X135642302Y-84643157D01*
X135477552Y-84696688D01*
X135323211Y-84775328D01*
X135243256Y-84833419D01*
X135183072Y-84877146D01*
X135183070Y-84877148D01*
X135183069Y-84877148D01*
X135060588Y-84999629D01*
X135060588Y-84999630D01*
X135060586Y-84999632D01*
X135016859Y-85059816D01*
X134958768Y-85139771D01*
X134880128Y-85294112D01*
X134826597Y-85458862D01*
X134826294Y-85460778D01*
X134799500Y-85629949D01*
X119160474Y-85629949D01*
X120750875Y-84039547D01*
X120812196Y-84006064D01*
X120881888Y-84011048D01*
X120937821Y-84052920D01*
X120938827Y-84054284D01*
X120966468Y-84092328D01*
X121047030Y-84203215D01*
X121191786Y-84347971D01*
X121346749Y-84460556D01*
X121357390Y-84468287D01*
X121473607Y-84527503D01*
X121539776Y-84561218D01*
X121539778Y-84561218D01*
X121539781Y-84561220D01*
X121644137Y-84595127D01*
X121734465Y-84624477D01*
X121835557Y-84640488D01*
X121936648Y-84656500D01*
X121936649Y-84656500D01*
X122141351Y-84656500D01*
X122141352Y-84656500D01*
X122343534Y-84624477D01*
X122538219Y-84561220D01*
X122720610Y-84468287D01*
X122813590Y-84400732D01*
X122886213Y-84347971D01*
X122886215Y-84347968D01*
X122886219Y-84347966D01*
X123030966Y-84203219D01*
X123030968Y-84203215D01*
X123030971Y-84203213D01*
X123093032Y-84117792D01*
X123151287Y-84037610D01*
X123244220Y-83855219D01*
X123307477Y-83660534D01*
X123339500Y-83458352D01*
X123339500Y-83253648D01*
X128358500Y-83253648D01*
X128358500Y-83458351D01*
X128390522Y-83660534D01*
X128453781Y-83855223D01*
X128505886Y-83957483D01*
X128542888Y-84030104D01*
X128546715Y-84037613D01*
X128667028Y-84203213D01*
X128811786Y-84347971D01*
X128966749Y-84460556D01*
X128977390Y-84468287D01*
X129093607Y-84527503D01*
X129159776Y-84561218D01*
X129159778Y-84561218D01*
X129159781Y-84561220D01*
X129264137Y-84595127D01*
X129354465Y-84624477D01*
X129455557Y-84640488D01*
X129556648Y-84656500D01*
X129556649Y-84656500D01*
X129761351Y-84656500D01*
X129761352Y-84656500D01*
X129963534Y-84624477D01*
X130158219Y-84561220D01*
X130340610Y-84468287D01*
X130433590Y-84400732D01*
X130506213Y-84347971D01*
X130506215Y-84347968D01*
X130506219Y-84347966D01*
X130650966Y-84203219D01*
X130650968Y-84203215D01*
X130650971Y-84203213D01*
X130713032Y-84117792D01*
X130771287Y-84037610D01*
X130864220Y-83855219D01*
X130927477Y-83660534D01*
X130959500Y-83458352D01*
X130959500Y-83253648D01*
X130933970Y-83092458D01*
X130942925Y-83023164D01*
X130987921Y-82969712D01*
X131054672Y-82949073D01*
X131056443Y-82949060D01*
X134676630Y-82949060D01*
X134743669Y-82968745D01*
X134789424Y-83021549D01*
X134798546Y-83084992D01*
X134799882Y-83085098D01*
X134799500Y-83089948D01*
X134799500Y-83089949D01*
X134799500Y-83263171D01*
X134826598Y-83434261D01*
X134880127Y-83599005D01*
X134958768Y-83753348D01*
X135060586Y-83893488D01*
X135183072Y-84015974D01*
X135323212Y-84117792D01*
X135477555Y-84196433D01*
X135642299Y-84249962D01*
X135813389Y-84277060D01*
X135813390Y-84277060D01*
X136786610Y-84277060D01*
X136786611Y-84277060D01*
X136957701Y-84249962D01*
X137122445Y-84196433D01*
X137276788Y-84117792D01*
X137416928Y-84015974D01*
X137539414Y-83893488D01*
X137641232Y-83753348D01*
X137719873Y-83599005D01*
X137773402Y-83434261D01*
X137800500Y-83263171D01*
X137800500Y-83089949D01*
X137800500Y-83089948D01*
X137800118Y-83085098D01*
X137801868Y-83084960D01*
X137809846Y-83023176D01*
X137854837Y-82969719D01*
X137921587Y-82949073D01*
X137923370Y-82949060D01*
X160076630Y-82949060D01*
X160143669Y-82968745D01*
X160189424Y-83021549D01*
X160198546Y-83084992D01*
X160199882Y-83085098D01*
X160199500Y-83089948D01*
X160199500Y-83089949D01*
X160199500Y-83263171D01*
X160226598Y-83434261D01*
X160280127Y-83599005D01*
X160358768Y-83753348D01*
X160460586Y-83893488D01*
X160583072Y-84015974D01*
X160723212Y-84117792D01*
X160877555Y-84196433D01*
X161042299Y-84249962D01*
X161213389Y-84277060D01*
X161213390Y-84277060D01*
X162186610Y-84277060D01*
X162186611Y-84277060D01*
X162357701Y-84249962D01*
X162522445Y-84196433D01*
X162676788Y-84117792D01*
X162816928Y-84015974D01*
X162939414Y-83893488D01*
X163041232Y-83753348D01*
X163119873Y-83599005D01*
X163173402Y-83434261D01*
X163200500Y-83263171D01*
X163200500Y-83089949D01*
X163173402Y-82918859D01*
X163119873Y-82754115D01*
X163041232Y-82599772D01*
X162939414Y-82459632D01*
X162816928Y-82337146D01*
X162676788Y-82235328D01*
X162522445Y-82156687D01*
X162357701Y-82103158D01*
X162357699Y-82103157D01*
X162357698Y-82103157D01*
X162226271Y-82082341D01*
X162186611Y-82076060D01*
X162186610Y-82076060D01*
X161500097Y-82076060D01*
X161470656Y-82067415D01*
X161440670Y-82060892D01*
X161435654Y-82057137D01*
X161433058Y-82056375D01*
X161412416Y-82039741D01*
X161359590Y-81986915D01*
X161359588Y-81986912D01*
X161321417Y-81948741D01*
X161287932Y-81887418D01*
X161292916Y-81817726D01*
X161334788Y-81761793D01*
X161400252Y-81737376D01*
X161409098Y-81737060D01*
X162186610Y-81737060D01*
X162186611Y-81737060D01*
X162357701Y-81709962D01*
X162522445Y-81656433D01*
X162676788Y-81577792D01*
X162816928Y-81475974D01*
X162939414Y-81353488D01*
X163041232Y-81213348D01*
X163119873Y-81059005D01*
X163173402Y-80894261D01*
X163200500Y-80723171D01*
X163200500Y-80549949D01*
X163173402Y-80378859D01*
X163119873Y-80214115D01*
X163041232Y-80059772D01*
X162939414Y-79919632D01*
X162816928Y-79797146D01*
X162676788Y-79695328D01*
X162522445Y-79616687D01*
X162357701Y-79563158D01*
X162357699Y-79563157D01*
X162357698Y-79563157D01*
X162226271Y-79542341D01*
X162186611Y-79536060D01*
X161213389Y-79536060D01*
X161173728Y-79542341D01*
X161042302Y-79563157D01*
X160877552Y-79616688D01*
X160723211Y-79695328D01*
X160643256Y-79753419D01*
X160583072Y-79797146D01*
X160583070Y-79797148D01*
X160583069Y-79797148D01*
X160460588Y-79919629D01*
X160460588Y-79919630D01*
X160460586Y-79919632D01*
X160416859Y-79979816D01*
X160358768Y-80059771D01*
X160280128Y-80214112D01*
X160226597Y-80378862D01*
X160221220Y-80412812D01*
X160199500Y-80549949D01*
X160199500Y-80723171D01*
X160226598Y-80894261D01*
X160280127Y-81059005D01*
X160358768Y-81213348D01*
X160460586Y-81353488D01*
X160583072Y-81475974D01*
X160614960Y-81499142D01*
X160648819Y-81523742D01*
X160691484Y-81579073D01*
X160697463Y-81648686D01*
X160664857Y-81710481D01*
X160604018Y-81744838D01*
X160575933Y-81748060D01*
X137424067Y-81748060D01*
X137357028Y-81728375D01*
X137311273Y-81675571D01*
X137301329Y-81606413D01*
X137330354Y-81542857D01*
X137351181Y-81523742D01*
X137416928Y-81475974D01*
X137539414Y-81353488D01*
X137641232Y-81213348D01*
X137719873Y-81059005D01*
X137773402Y-80894261D01*
X137800500Y-80723171D01*
X137800500Y-80549949D01*
X137773402Y-80378859D01*
X137719873Y-80214115D01*
X137641232Y-80059772D01*
X137539414Y-79919632D01*
X137416928Y-79797146D01*
X137276788Y-79695328D01*
X137122445Y-79616687D01*
X136957701Y-79563158D01*
X136957699Y-79563157D01*
X136957698Y-79563157D01*
X136826271Y-79542341D01*
X136786611Y-79536060D01*
X135813389Y-79536060D01*
X135773728Y-79542341D01*
X135642302Y-79563157D01*
X135477552Y-79616688D01*
X135323211Y-79695328D01*
X135243256Y-79753419D01*
X135183072Y-79797146D01*
X135183070Y-79797148D01*
X135183069Y-79797148D01*
X135060588Y-79919629D01*
X135060588Y-79919630D01*
X135060586Y-79919632D01*
X135016859Y-79979816D01*
X134958768Y-80059771D01*
X134880128Y-80214112D01*
X134826597Y-80378862D01*
X134821220Y-80412812D01*
X134799500Y-80549949D01*
X134799500Y-80723171D01*
X134826598Y-80894261D01*
X134880127Y-81059005D01*
X134958768Y-81213348D01*
X135060586Y-81353488D01*
X135183072Y-81475974D01*
X135214960Y-81499142D01*
X135248819Y-81523742D01*
X135291484Y-81579073D01*
X135297463Y-81648686D01*
X135264857Y-81710481D01*
X135204018Y-81744838D01*
X135175933Y-81748060D01*
X130745497Y-81748060D01*
X130587382Y-81748060D01*
X130434655Y-81788983D01*
X130434654Y-81788983D01*
X130434652Y-81788984D01*
X130434649Y-81788985D01*
X130384536Y-81817919D01*
X130384535Y-81817920D01*
X130341129Y-81842980D01*
X130297725Y-81868039D01*
X130297722Y-81868041D01*
X130185920Y-81979843D01*
X130185920Y-81979844D01*
X130185918Y-81979846D01*
X130126023Y-82039741D01*
X130103842Y-82061922D01*
X130042518Y-82095406D01*
X129977848Y-82092173D01*
X129963534Y-82087522D01*
X129766876Y-82056375D01*
X129761352Y-82055500D01*
X129556648Y-82055500D01*
X129551124Y-82056375D01*
X129354465Y-82087522D01*
X129159776Y-82150781D01*
X128977386Y-82243715D01*
X128811786Y-82364028D01*
X128667028Y-82508786D01*
X128546715Y-82674386D01*
X128453781Y-82856776D01*
X128390522Y-83051465D01*
X128358500Y-83253648D01*
X123339500Y-83253648D01*
X123307477Y-83051466D01*
X123297756Y-83021549D01*
X123274203Y-82949060D01*
X123244220Y-82856781D01*
X123244218Y-82856778D01*
X123244218Y-82856776D01*
X123190457Y-82751265D01*
X123151287Y-82674390D01*
X123143556Y-82663749D01*
X123030971Y-82508786D01*
X122886215Y-82364030D01*
X122787318Y-82292179D01*
X122737344Y-82255871D01*
X122694679Y-82200543D01*
X122688700Y-82130930D01*
X122721305Y-82069135D01*
X122722477Y-82067945D01*
X125957045Y-78833379D01*
X126018368Y-78799894D01*
X126044726Y-78797060D01*
X134717209Y-78797060D01*
X134784248Y-78816745D01*
X134830003Y-78869549D01*
X134833391Y-78877727D01*
X134856202Y-78938888D01*
X134856206Y-78938895D01*
X134942452Y-79054104D01*
X134942455Y-79054107D01*
X135057664Y-79140353D01*
X135057671Y-79140357D01*
X135192517Y-79190651D01*
X135192516Y-79190651D01*
X135199444Y-79191395D01*
X135252127Y-79197060D01*
X137347872Y-79197059D01*
X137407483Y-79190651D01*
X137542331Y-79140356D01*
X137657546Y-79054106D01*
X137743796Y-78938891D01*
X137794091Y-78804043D01*
X137800500Y-78744433D01*
X137800499Y-77846559D01*
X160225884Y-77846559D01*
X160225885Y-77846560D01*
X161384314Y-77846560D01*
X161379920Y-77850954D01*
X161327259Y-77942166D01*
X161300000Y-78043899D01*
X161300000Y-78149221D01*
X161327259Y-78250954D01*
X161379920Y-78342166D01*
X161384314Y-78346560D01*
X160225885Y-78346560D01*
X160227085Y-78354144D01*
X160280591Y-78518815D01*
X160359195Y-78673084D01*
X160460967Y-78813162D01*
X160583397Y-78935592D01*
X160723475Y-79037364D01*
X160877742Y-79115968D01*
X161042415Y-79169474D01*
X161213429Y-79196560D01*
X161450000Y-79196560D01*
X161450000Y-78412246D01*
X161454394Y-78416640D01*
X161545606Y-78469301D01*
X161647339Y-78496560D01*
X161752661Y-78496560D01*
X161854394Y-78469301D01*
X161945606Y-78416640D01*
X161950000Y-78412246D01*
X161950000Y-79196560D01*
X162186571Y-79196560D01*
X162357584Y-79169474D01*
X162522257Y-79115968D01*
X162676524Y-79037364D01*
X162816602Y-78935592D01*
X162939032Y-78813162D01*
X163040804Y-78673084D01*
X163119408Y-78518815D01*
X163172914Y-78354144D01*
X163174115Y-78346560D01*
X162015686Y-78346560D01*
X162020080Y-78342166D01*
X162072741Y-78250954D01*
X162100000Y-78149221D01*
X162100000Y-78043899D01*
X162072741Y-77942166D01*
X162020080Y-77850954D01*
X162015686Y-77846560D01*
X163174115Y-77846560D01*
X163174115Y-77846559D01*
X163172914Y-77838975D01*
X163119408Y-77674304D01*
X163040804Y-77520035D01*
X162939032Y-77379957D01*
X162816602Y-77257527D01*
X162676524Y-77155755D01*
X162522257Y-77077151D01*
X162357584Y-77023645D01*
X162186571Y-76996560D01*
X161950000Y-76996560D01*
X161950000Y-77780874D01*
X161945606Y-77776480D01*
X161854394Y-77723819D01*
X161752661Y-77696560D01*
X161647339Y-77696560D01*
X161545606Y-77723819D01*
X161454394Y-77776480D01*
X161450000Y-77780874D01*
X161450000Y-76996560D01*
X161213429Y-76996560D01*
X161042415Y-77023645D01*
X160877742Y-77077151D01*
X160723475Y-77155755D01*
X160583397Y-77257527D01*
X160460967Y-77379957D01*
X160359195Y-77520035D01*
X160280591Y-77674304D01*
X160227085Y-77838975D01*
X160225884Y-77846559D01*
X137800499Y-77846559D01*
X137800499Y-77448688D01*
X137794091Y-77389077D01*
X137790689Y-77379957D01*
X137743797Y-77254231D01*
X137743793Y-77254224D01*
X137657547Y-77139015D01*
X137657544Y-77139012D01*
X137542335Y-77052766D01*
X137542328Y-77052762D01*
X137407482Y-77002468D01*
X137407483Y-77002468D01*
X137347883Y-76996061D01*
X137347881Y-76996060D01*
X137347873Y-76996060D01*
X137347864Y-76996060D01*
X135252129Y-76996060D01*
X135252123Y-76996061D01*
X135192516Y-77002468D01*
X135057671Y-77052762D01*
X135057664Y-77052766D01*
X134942455Y-77139012D01*
X134942452Y-77139015D01*
X134856206Y-77254224D01*
X134856202Y-77254231D01*
X134833391Y-77315393D01*
X134791520Y-77371327D01*
X134726056Y-77395744D01*
X134717209Y-77396060D01*
X125634210Y-77396060D01*
X125525797Y-77417625D01*
X125525796Y-77417625D01*
X125498878Y-77422980D01*
X125371397Y-77475784D01*
X125256661Y-77552447D01*
X117725887Y-85083221D01*
X117649222Y-85197959D01*
X117596421Y-85325434D01*
X117596418Y-85325446D01*
X117570870Y-85453886D01*
X117570869Y-85453893D01*
X117569501Y-85460768D01*
X117569500Y-85460778D01*
X117569500Y-95715322D01*
X117549815Y-95782361D01*
X117497011Y-95828116D01*
X117427853Y-95838060D01*
X117398047Y-95829883D01*
X117299127Y-95788909D01*
X117299119Y-95788907D01*
X117101007Y-95749500D01*
X117101003Y-95749500D01*
X116898997Y-95749500D01*
X116898992Y-95749500D01*
X116700880Y-95788907D01*
X116700868Y-95788910D01*
X116620198Y-95822325D01*
X116550729Y-95829794D01*
X116505342Y-95810036D01*
X116505114Y-95810454D01*
X116500447Y-95807905D01*
X116498432Y-95807028D01*
X116497331Y-95806204D01*
X116497330Y-95806203D01*
X116497328Y-95806202D01*
X116362482Y-95755908D01*
X116362483Y-95755908D01*
X116302883Y-95749501D01*
X116302881Y-95749500D01*
X116302873Y-95749500D01*
X116302864Y-95749500D01*
X115157129Y-95749500D01*
X115157123Y-95749501D01*
X115097516Y-95755908D01*
X114962671Y-95806202D01*
X114962664Y-95806206D01*
X114847455Y-95892452D01*
X114847452Y-95892455D01*
X114761206Y-96007664D01*
X114761202Y-96007671D01*
X114710908Y-96142517D01*
X114704501Y-96202116D01*
X114704500Y-96202135D01*
X114704500Y-96275500D01*
X114684815Y-96342539D01*
X114632011Y-96388294D01*
X114580500Y-96399500D01*
X112579766Y-96399500D01*
X112512727Y-96379815D01*
X112510875Y-96378602D01*
X112379185Y-96290609D01*
X112379172Y-96290602D01*
X112233501Y-96230264D01*
X112233489Y-96230261D01*
X112078845Y-96199500D01*
X112078842Y-96199500D01*
X111921158Y-96199500D01*
X111921155Y-96199500D01*
X111766510Y-96230261D01*
X111766498Y-96230264D01*
X111620827Y-96290602D01*
X111620814Y-96290609D01*
X111489711Y-96378210D01*
X111489707Y-96378213D01*
X111378213Y-96489707D01*
X111378210Y-96489711D01*
X111290609Y-96620814D01*
X111290602Y-96620827D01*
X111230264Y-96766498D01*
X111230261Y-96766510D01*
X111199500Y-96921153D01*
X111199500Y-97078846D01*
X111230261Y-97233489D01*
X111230264Y-97233501D01*
X111290602Y-97379172D01*
X111290609Y-97379185D01*
X111378210Y-97510288D01*
X111378213Y-97510292D01*
X111489707Y-97621786D01*
X111489711Y-97621789D01*
X111620814Y-97709390D01*
X111620827Y-97709397D01*
X111762831Y-97768216D01*
X111766503Y-97769737D01*
X111921153Y-97800499D01*
X111921156Y-97800500D01*
X111921158Y-97800500D01*
X112078844Y-97800500D01*
X112078845Y-97800499D01*
X112233497Y-97769737D01*
X112379179Y-97709394D01*
X112455596Y-97658334D01*
X112510875Y-97621398D01*
X112577553Y-97600520D01*
X112579766Y-97600500D01*
X114580501Y-97600500D01*
X114647540Y-97620185D01*
X114693295Y-97672989D01*
X114704501Y-97724500D01*
X114704501Y-97797876D01*
X114710908Y-97857483D01*
X114761202Y-97992328D01*
X114761206Y-97992335D01*
X114847452Y-98107544D01*
X114847455Y-98107547D01*
X114962664Y-98193793D01*
X114962671Y-98193797D01*
X115097517Y-98244091D01*
X115097516Y-98244091D01*
X115104444Y-98244835D01*
X115157127Y-98250500D01*
X116302872Y-98250499D01*
X116362483Y-98244091D01*
X116497331Y-98193796D01*
X116498430Y-98192972D01*
X116499717Y-98192492D01*
X116505112Y-98189547D01*
X116505535Y-98190322D01*
X116563887Y-98168552D01*
X116620198Y-98177673D01*
X116700873Y-98211091D01*
X116866777Y-98244091D01*
X116898992Y-98250499D01*
X116898996Y-98250500D01*
X116898997Y-98250500D01*
X117101004Y-98250500D01*
X117101005Y-98250499D01*
X117299127Y-98211091D01*
X117485756Y-98133786D01*
X117566112Y-98080093D01*
X117585186Y-98074120D01*
X117602192Y-98063616D01*
X117617844Y-98063895D01*
X117632785Y-98059217D01*
X117652063Y-98064505D01*
X117672050Y-98064862D01*
X117697167Y-98076878D01*
X117700165Y-98077701D01*
X117703888Y-98080094D01*
X117718088Y-98089581D01*
X117744390Y-98107156D01*
X117789195Y-98160766D01*
X117799500Y-98210258D01*
X117799500Y-104215322D01*
X117779815Y-104282361D01*
X117727011Y-104328116D01*
X117657853Y-104338060D01*
X117628047Y-104329883D01*
X117529127Y-104288909D01*
X117529119Y-104288907D01*
X117331007Y-104249500D01*
X117331003Y-104249500D01*
X117128997Y-104249500D01*
X117128992Y-104249500D01*
X116930880Y-104288907D01*
X116930868Y-104288910D01*
X116850198Y-104322325D01*
X116780729Y-104329794D01*
X116754551Y-104322015D01*
X116740578Y-104316120D01*
X116727331Y-104306204D01*
X116638731Y-104273158D01*
X116636305Y-104272135D01*
X116611185Y-104251622D01*
X116585233Y-104232194D01*
X116584286Y-104229656D01*
X116582187Y-104227942D01*
X116572145Y-104197104D01*
X116560816Y-104166730D01*
X116560638Y-104161769D01*
X116560553Y-104161506D01*
X116560620Y-104161249D01*
X116560500Y-104157884D01*
X116560500Y-104009060D01*
X116560501Y-104009047D01*
X116560501Y-103840944D01*
X116537273Y-103754257D01*
X116519577Y-103688216D01*
X116519573Y-103688209D01*
X116440524Y-103551290D01*
X116440518Y-103551282D01*
X112404375Y-99515139D01*
X108333756Y-95444521D01*
X108300272Y-95383199D01*
X108303507Y-95318523D01*
X108317246Y-95276243D01*
X108350500Y-95066287D01*
X108350500Y-94853713D01*
X108317246Y-94643757D01*
X108251557Y-94441588D01*
X108155051Y-94252184D01*
X108155049Y-94252181D01*
X108155048Y-94252179D01*
X108030109Y-94080213D01*
X107879786Y-93929890D01*
X107707820Y-93804951D01*
X107518414Y-93708444D01*
X107518413Y-93708443D01*
X107518412Y-93708443D01*
X107316243Y-93642754D01*
X107316241Y-93642753D01*
X107316240Y-93642753D01*
X107154957Y-93617208D01*
X107106287Y-93609500D01*
X106893713Y-93609500D01*
X106845042Y-93617208D01*
X106683760Y-93642753D01*
X106481585Y-93708444D01*
X106292179Y-93804951D01*
X106120213Y-93929890D01*
X105969890Y-94080213D01*
X105844951Y-94252179D01*
X105748444Y-94441585D01*
X105682753Y-94643760D01*
X105649500Y-94853713D01*
X103500500Y-94853713D01*
X103500500Y-87878711D01*
X109149500Y-87878711D01*
X109149500Y-88121288D01*
X109181161Y-88361785D01*
X109243947Y-88596104D01*
X109336773Y-88820205D01*
X109336776Y-88820212D01*
X109458064Y-89030289D01*
X109458066Y-89030292D01*
X109458067Y-89030293D01*
X109605733Y-89222736D01*
X109605739Y-89222743D01*
X109777256Y-89394260D01*
X109777262Y-89394265D01*
X109969711Y-89541936D01*
X110179788Y-89663224D01*
X110403900Y-89756054D01*
X110638211Y-89818838D01*
X110818586Y-89842584D01*
X110878711Y-89850500D01*
X110878712Y-89850500D01*
X111121289Y-89850500D01*
X111169388Y-89844167D01*
X111361789Y-89818838D01*
X111596100Y-89756054D01*
X111820212Y-89663224D01*
X112030289Y-89541936D01*
X112222738Y-89394265D01*
X112394265Y-89222738D01*
X112541936Y-89030289D01*
X112663224Y-88820212D01*
X112756054Y-88596100D01*
X112818838Y-88361789D01*
X112850500Y-88121288D01*
X112850500Y-87878712D01*
X112818838Y-87638211D01*
X112756054Y-87403900D01*
X112663224Y-87179788D01*
X112541936Y-86969711D01*
X112394265Y-86777262D01*
X112394260Y-86777256D01*
X112222743Y-86605739D01*
X112222736Y-86605733D01*
X112030293Y-86458067D01*
X112030292Y-86458066D01*
X112030289Y-86458064D01*
X111820212Y-86336776D01*
X111820205Y-86336773D01*
X111596104Y-86243947D01*
X111361785Y-86181161D01*
X111121289Y-86149500D01*
X111121288Y-86149500D01*
X110878712Y-86149500D01*
X110878711Y-86149500D01*
X110638214Y-86181161D01*
X110403895Y-86243947D01*
X110179794Y-86336773D01*
X110179785Y-86336777D01*
X109969706Y-86458067D01*
X109777263Y-86605733D01*
X109777256Y-86605739D01*
X109605739Y-86777256D01*
X109605733Y-86777263D01*
X109458067Y-86969706D01*
X109336777Y-87179785D01*
X109336773Y-87179794D01*
X109243947Y-87403895D01*
X109181161Y-87638214D01*
X109149500Y-87878711D01*
X103500500Y-87878711D01*
X103500500Y-73893713D01*
X105649500Y-73893713D01*
X105649500Y-74106286D01*
X105682753Y-74316239D01*
X105748444Y-74518414D01*
X105844951Y-74707820D01*
X105969890Y-74879786D01*
X106120213Y-75030109D01*
X106292182Y-75155050D01*
X106300946Y-75159516D01*
X106351742Y-75207491D01*
X106368536Y-75275312D01*
X106345998Y-75341447D01*
X106300946Y-75380484D01*
X106292182Y-75384949D01*
X106120213Y-75509890D01*
X105969890Y-75660213D01*
X105844951Y-75832179D01*
X105748444Y-76021585D01*
X105682753Y-76223760D01*
X105649500Y-76433713D01*
X105649500Y-76646286D01*
X105676829Y-76818838D01*
X105682754Y-76856243D01*
X105746608Y-77052766D01*
X105748444Y-77058414D01*
X105844951Y-77247820D01*
X105969890Y-77419786D01*
X106120213Y-77570109D01*
X106292179Y-77695048D01*
X106292181Y-77695049D01*
X106292184Y-77695051D01*
X106301493Y-77699794D01*
X106352290Y-77747766D01*
X106369087Y-77815587D01*
X106346552Y-77881722D01*
X106301505Y-77920760D01*
X106292446Y-77925376D01*
X106292440Y-77925380D01*
X106238282Y-77964727D01*
X106238282Y-77964728D01*
X106870591Y-78597037D01*
X106807007Y-78614075D01*
X106692993Y-78679901D01*
X106599901Y-78772993D01*
X106534075Y-78887007D01*
X106517037Y-78950591D01*
X105884728Y-78318282D01*
X105884727Y-78318282D01*
X105845380Y-78372439D01*
X105748904Y-78561782D01*
X105683242Y-78763869D01*
X105683242Y-78763872D01*
X105650000Y-78973753D01*
X105650000Y-79186246D01*
X105683242Y-79396127D01*
X105683242Y-79396130D01*
X105748904Y-79598217D01*
X105845375Y-79787550D01*
X105884728Y-79841716D01*
X106517037Y-79209408D01*
X106534075Y-79272993D01*
X106599901Y-79387007D01*
X106692993Y-79480099D01*
X106807007Y-79545925D01*
X106870590Y-79562962D01*
X106201195Y-80232356D01*
X106139872Y-80265841D01*
X106125167Y-80264924D01*
X106125444Y-80267497D01*
X106042626Y-80276401D01*
X106042619Y-80276403D01*
X105907913Y-80326645D01*
X105907906Y-80326649D01*
X105792812Y-80412809D01*
X105792809Y-80412812D01*
X105706649Y-80527906D01*
X105706645Y-80527913D01*
X105656403Y-80662620D01*
X105656401Y-80662627D01*
X105650000Y-80722155D01*
X105650000Y-81370000D01*
X106566988Y-81370000D01*
X106534075Y-81427007D01*
X106500000Y-81554174D01*
X106500000Y-81685826D01*
X106534075Y-81812993D01*
X106566988Y-81870000D01*
X105650000Y-81870000D01*
X105650000Y-82517844D01*
X105656401Y-82577372D01*
X105656403Y-82577379D01*
X105706645Y-82712086D01*
X105706649Y-82712093D01*
X105792809Y-82827187D01*
X105792812Y-82827190D01*
X105907906Y-82913350D01*
X105907913Y-82913354D01*
X106042620Y-82963596D01*
X106042627Y-82963598D01*
X106102155Y-82969999D01*
X106102172Y-82970000D01*
X106750000Y-82970000D01*
X106750000Y-82053012D01*
X106807007Y-82085925D01*
X106934174Y-82120000D01*
X107065826Y-82120000D01*
X107192993Y-82085925D01*
X107250000Y-82053012D01*
X107250000Y-82970000D01*
X107897828Y-82970000D01*
X107897844Y-82969999D01*
X107957372Y-82963598D01*
X107957379Y-82963596D01*
X108092086Y-82913354D01*
X108092093Y-82913350D01*
X108207187Y-82827190D01*
X108207190Y-82827187D01*
X108293350Y-82712093D01*
X108293354Y-82712086D01*
X108343596Y-82577379D01*
X108343598Y-82577372D01*
X108349999Y-82517844D01*
X108350000Y-82517827D01*
X108350000Y-81870000D01*
X107433012Y-81870000D01*
X107465925Y-81812993D01*
X107500000Y-81685826D01*
X107500000Y-81554174D01*
X107465925Y-81427007D01*
X107433012Y-81370000D01*
X108350000Y-81370000D01*
X108350000Y-80722172D01*
X108349999Y-80722155D01*
X108343598Y-80662627D01*
X108343596Y-80662620D01*
X108293354Y-80527913D01*
X108293350Y-80527906D01*
X108207190Y-80412812D01*
X108207187Y-80412809D01*
X108092093Y-80326649D01*
X108092086Y-80326645D01*
X107957380Y-80276403D01*
X107957373Y-80276401D01*
X107874555Y-80267497D01*
X107874884Y-80264431D01*
X107857875Y-80265330D01*
X107798803Y-80232356D01*
X107129408Y-79562962D01*
X107192993Y-79545925D01*
X107307007Y-79480099D01*
X107400099Y-79387007D01*
X107465925Y-79272993D01*
X107482962Y-79209409D01*
X108115270Y-79841717D01*
X108115270Y-79841716D01*
X108154622Y-79787554D01*
X108251095Y-79598217D01*
X108316757Y-79396130D01*
X108316757Y-79396127D01*
X108350000Y-79186246D01*
X108350000Y-78973753D01*
X108316757Y-78763872D01*
X108316757Y-78763869D01*
X108251095Y-78561782D01*
X108154624Y-78372449D01*
X108115270Y-78318282D01*
X108115269Y-78318282D01*
X107482962Y-78950590D01*
X107465925Y-78887007D01*
X107400099Y-78772993D01*
X107307007Y-78679901D01*
X107192993Y-78614075D01*
X107129409Y-78597037D01*
X107761716Y-77964728D01*
X107707547Y-77925373D01*
X107707547Y-77925372D01*
X107698500Y-77920763D01*
X107647706Y-77872788D01*
X107630912Y-77804966D01*
X107653451Y-77738832D01*
X107698508Y-77699793D01*
X107707816Y-77695051D01*
X107795584Y-77631284D01*
X107879786Y-77570109D01*
X107879788Y-77570106D01*
X107879792Y-77570104D01*
X108030104Y-77419792D01*
X108030106Y-77419788D01*
X108030109Y-77419786D01*
X108155048Y-77247820D01*
X108155047Y-77247820D01*
X108155051Y-77247816D01*
X108251557Y-77058412D01*
X108317246Y-76856243D01*
X108350500Y-76646287D01*
X108350500Y-76433713D01*
X108317246Y-76223757D01*
X108251557Y-76021588D01*
X108155051Y-75832184D01*
X108155049Y-75832181D01*
X108155048Y-75832179D01*
X108030109Y-75660213D01*
X107879786Y-75509890D01*
X107707820Y-75384951D01*
X107707115Y-75384591D01*
X107699054Y-75380485D01*
X107648259Y-75332512D01*
X107631463Y-75264692D01*
X107653999Y-75198556D01*
X107699054Y-75159515D01*
X107707816Y-75155051D01*
X107794138Y-75092335D01*
X107879786Y-75030109D01*
X107879788Y-75030106D01*
X107879792Y-75030104D01*
X108030104Y-74879792D01*
X108030106Y-74879788D01*
X108030109Y-74879786D01*
X108155048Y-74707820D01*
X108155047Y-74707820D01*
X108155051Y-74707816D01*
X108251557Y-74518412D01*
X108317246Y-74316243D01*
X108350500Y-74106287D01*
X108350500Y-73893713D01*
X121384500Y-73893713D01*
X121384500Y-74106286D01*
X121417753Y-74316239D01*
X121483444Y-74518414D01*
X121579951Y-74707820D01*
X121704890Y-74879786D01*
X121855213Y-75030109D01*
X122027179Y-75155048D01*
X122027181Y-75155049D01*
X122027184Y-75155051D01*
X122216588Y-75251557D01*
X122418757Y-75317246D01*
X122628713Y-75350500D01*
X122628714Y-75350500D01*
X122841286Y-75350500D01*
X122841287Y-75350500D01*
X123051243Y-75317246D01*
X123253412Y-75251557D01*
X123442816Y-75155051D01*
X123614792Y-75030104D01*
X123728329Y-74916566D01*
X123789648Y-74883084D01*
X123859340Y-74888068D01*
X123915274Y-74929939D01*
X123932189Y-74960917D01*
X123981202Y-75092328D01*
X123981206Y-75092335D01*
X124067452Y-75207544D01*
X124067455Y-75207547D01*
X124182664Y-75293793D01*
X124182671Y-75293797D01*
X124317517Y-75344091D01*
X124317516Y-75344091D01*
X124324444Y-75344835D01*
X124377127Y-75350500D01*
X126172872Y-75350499D01*
X126232483Y-75344091D01*
X126367331Y-75293796D01*
X126482546Y-75207546D01*
X126568796Y-75092331D01*
X126619091Y-74957483D01*
X126625500Y-74897873D01*
X126625500Y-74724500D01*
X126645185Y-74657461D01*
X126697989Y-74611706D01*
X126749500Y-74600500D01*
X150920943Y-74600500D01*
X151920943Y-74600500D01*
X162199903Y-74600500D01*
X162266942Y-74620185D01*
X162287584Y-74636819D01*
X165863181Y-78212416D01*
X165896666Y-78273739D01*
X165899500Y-78300097D01*
X165899500Y-82913330D01*
X165899499Y-82913348D01*
X165899499Y-83079054D01*
X165899498Y-83079054D01*
X165940423Y-83231786D01*
X165953044Y-83253644D01*
X165953045Y-83253649D01*
X165953047Y-83253649D01*
X165958544Y-83263171D01*
X166019479Y-83368714D01*
X166019481Y-83368717D01*
X166138349Y-83487585D01*
X166138355Y-83487590D01*
X176173181Y-93522416D01*
X176187884Y-93549343D01*
X176204477Y-93575162D01*
X176205368Y-93581362D01*
X176206666Y-93583739D01*
X176209500Y-93610097D01*
X176209500Y-93623397D01*
X176189815Y-93690436D01*
X176141800Y-93733879D01*
X176128389Y-93740712D01*
X175962786Y-93861028D01*
X175818028Y-94005786D01*
X175697715Y-94171386D01*
X175604781Y-94353776D01*
X175541522Y-94548465D01*
X175509500Y-94750648D01*
X175509500Y-94955351D01*
X175541522Y-95157534D01*
X175604781Y-95352223D01*
X175660586Y-95461744D01*
X175695102Y-95529486D01*
X175697715Y-95534613D01*
X175818028Y-95700213D01*
X175962786Y-95844971D01*
X176117749Y-95957556D01*
X176128390Y-95965287D01*
X176225290Y-96014660D01*
X176310776Y-96058218D01*
X176310778Y-96058218D01*
X176310781Y-96058220D01*
X176415137Y-96092127D01*
X176505465Y-96121477D01*
X176606557Y-96137488D01*
X176707648Y-96153500D01*
X176707649Y-96153500D01*
X176912351Y-96153500D01*
X176912352Y-96153500D01*
X177114534Y-96121477D01*
X177309219Y-96058220D01*
X177491610Y-95965287D01*
X177584590Y-95897732D01*
X177657213Y-95844971D01*
X177657215Y-95844968D01*
X177657219Y-95844966D01*
X177801966Y-95700219D01*
X177801968Y-95700215D01*
X177801971Y-95700213D01*
X177854732Y-95627590D01*
X177922287Y-95534610D01*
X178015220Y-95352219D01*
X178078477Y-95157534D01*
X178110500Y-94955352D01*
X178110500Y-94750648D01*
X178078477Y-94548466D01*
X178015220Y-94353781D01*
X178015218Y-94353778D01*
X178015218Y-94353776D01*
X177976501Y-94277791D01*
X177922287Y-94171390D01*
X177856044Y-94080213D01*
X177801971Y-94005786D01*
X177657213Y-93861028D01*
X177491610Y-93740712D01*
X177478200Y-93733879D01*
X177467138Y-93723431D01*
X177453297Y-93717110D01*
X177442255Y-93699928D01*
X177427406Y-93685903D01*
X177423165Y-93670223D01*
X177415523Y-93658332D01*
X177410500Y-93623397D01*
X177410500Y-93399059D01*
X177410501Y-93399046D01*
X177410501Y-93230945D01*
X177410501Y-93230943D01*
X177369577Y-93078215D01*
X177340639Y-93028095D01*
X177290520Y-92941284D01*
X177178716Y-92829480D01*
X177178715Y-92829479D01*
X177174385Y-92825149D01*
X177174374Y-92825139D01*
X167136819Y-82787584D01*
X167103334Y-82726261D01*
X167100500Y-82699903D01*
X167100500Y-77920946D01*
X167100500Y-77920943D01*
X167083433Y-77857246D01*
X167059577Y-77768215D01*
X167030639Y-77718095D01*
X166980520Y-77631284D01*
X166868716Y-77519480D01*
X166868715Y-77519479D01*
X166864385Y-77515149D01*
X166864374Y-77515139D01*
X162987590Y-73638355D01*
X162987588Y-73638352D01*
X162868717Y-73519481D01*
X162868716Y-73519480D01*
X162781904Y-73469360D01*
X162781904Y-73469359D01*
X162781900Y-73469358D01*
X162731785Y-73440423D01*
X162579057Y-73399499D01*
X162420943Y-73399499D01*
X162413347Y-73399499D01*
X162413331Y-73399500D01*
X126749499Y-73399500D01*
X126682460Y-73379815D01*
X126636705Y-73327011D01*
X126625499Y-73275500D01*
X126625499Y-73102129D01*
X126625498Y-73102123D01*
X126619091Y-73042516D01*
X126568797Y-72907671D01*
X126568793Y-72907664D01*
X126482547Y-72792455D01*
X126482544Y-72792452D01*
X126367335Y-72706206D01*
X126367328Y-72706202D01*
X126232482Y-72655908D01*
X126232483Y-72655908D01*
X126172883Y-72649501D01*
X126172881Y-72649500D01*
X126172873Y-72649500D01*
X126172865Y-72649500D01*
X125234096Y-72649500D01*
X125167057Y-72629815D01*
X125121302Y-72577011D01*
X125111358Y-72507853D01*
X125140383Y-72444297D01*
X125146415Y-72437819D01*
X125447416Y-72136819D01*
X125508739Y-72103334D01*
X125535097Y-72100500D01*
X162199903Y-72100500D01*
X162266942Y-72120185D01*
X162287584Y-72136819D01*
X171588584Y-81437819D01*
X171622069Y-81499142D01*
X171617085Y-81568834D01*
X171575213Y-81624767D01*
X171509749Y-81649184D01*
X171500903Y-81649500D01*
X171353713Y-81649500D01*
X171309953Y-81656431D01*
X171143760Y-81682753D01*
X170941585Y-81748444D01*
X170752179Y-81844951D01*
X170580213Y-81969890D01*
X170429890Y-82120213D01*
X170304951Y-82292179D01*
X170208444Y-82481585D01*
X170142753Y-82683760D01*
X170131610Y-82754115D01*
X170109500Y-82893713D01*
X170109500Y-83106287D01*
X170142754Y-83316243D01*
X170198428Y-83487590D01*
X170208444Y-83518414D01*
X170304951Y-83707820D01*
X170429890Y-83879786D01*
X170580213Y-84030109D01*
X170752179Y-84155048D01*
X170752181Y-84155049D01*
X170752184Y-84155051D01*
X170941588Y-84251557D01*
X171143757Y-84317246D01*
X171353713Y-84350500D01*
X171353714Y-84350500D01*
X171566286Y-84350500D01*
X171566287Y-84350500D01*
X171776243Y-84317246D01*
X171978412Y-84251557D01*
X172167816Y-84155051D01*
X172339792Y-84030104D01*
X172453329Y-83916566D01*
X172514648Y-83883084D01*
X172584340Y-83888068D01*
X172640274Y-83929939D01*
X172657189Y-83960917D01*
X172706202Y-84092328D01*
X172706206Y-84092335D01*
X172792452Y-84207544D01*
X172792455Y-84207547D01*
X172907664Y-84293793D01*
X172907671Y-84293797D01*
X173042517Y-84344091D01*
X173042516Y-84344091D01*
X173049444Y-84344835D01*
X173102127Y-84350500D01*
X174897872Y-84350499D01*
X174957483Y-84344091D01*
X175092331Y-84293796D01*
X175207546Y-84207546D01*
X175293796Y-84092331D01*
X175344091Y-83957483D01*
X175350500Y-83897873D01*
X175350499Y-82102128D01*
X175344091Y-82042517D01*
X175320716Y-81979846D01*
X175293797Y-81907671D01*
X175293793Y-81907664D01*
X175207547Y-81792455D01*
X175207544Y-81792452D01*
X175092335Y-81706206D01*
X175092328Y-81706202D01*
X174957482Y-81655908D01*
X174957483Y-81655908D01*
X174897883Y-81649501D01*
X174897881Y-81649500D01*
X174897873Y-81649500D01*
X174897865Y-81649500D01*
X173550097Y-81649500D01*
X173483058Y-81629815D01*
X173462416Y-81613181D01*
X166727946Y-74878711D01*
X172149500Y-74878711D01*
X172149500Y-75121288D01*
X172181161Y-75361785D01*
X172243947Y-75596104D01*
X172270500Y-75660208D01*
X172336776Y-75820212D01*
X172458064Y-76030289D01*
X172458066Y-76030292D01*
X172458067Y-76030293D01*
X172605733Y-76222736D01*
X172605739Y-76222743D01*
X172777256Y-76394260D01*
X172777262Y-76394265D01*
X172969711Y-76541936D01*
X173179788Y-76663224D01*
X173403900Y-76756054D01*
X173638211Y-76818838D01*
X173818586Y-76842584D01*
X173878711Y-76850500D01*
X173878712Y-76850500D01*
X174121289Y-76850500D01*
X174169388Y-76844167D01*
X174361789Y-76818838D01*
X174596100Y-76756054D01*
X174820212Y-76663224D01*
X175030289Y-76541936D01*
X175222738Y-76394265D01*
X175394265Y-76222738D01*
X175541936Y-76030289D01*
X175663224Y-75820212D01*
X175756054Y-75596100D01*
X175818838Y-75361789D01*
X175850500Y-75121288D01*
X175850500Y-74878712D01*
X175818838Y-74638211D01*
X175756054Y-74403900D01*
X175663224Y-74179788D01*
X175541936Y-73969711D01*
X175394265Y-73777262D01*
X175394260Y-73777256D01*
X175222743Y-73605739D01*
X175222736Y-73605733D01*
X175030293Y-73458067D01*
X175030292Y-73458066D01*
X175030289Y-73458064D01*
X174820212Y-73336776D01*
X174820205Y-73336773D01*
X174596104Y-73243947D01*
X174361785Y-73181161D01*
X174121289Y-73149500D01*
X174121288Y-73149500D01*
X173878712Y-73149500D01*
X173878711Y-73149500D01*
X173638214Y-73181161D01*
X173403895Y-73243947D01*
X173179794Y-73336773D01*
X173179785Y-73336777D01*
X172969706Y-73458067D01*
X172777263Y-73605733D01*
X172777256Y-73605739D01*
X172605739Y-73777256D01*
X172605733Y-73777263D01*
X172458067Y-73969706D01*
X172336777Y-74179785D01*
X172336773Y-74179794D01*
X172243947Y-74403895D01*
X172181161Y-74638214D01*
X172149500Y-74878711D01*
X166727946Y-74878711D01*
X162987590Y-71138355D01*
X162987588Y-71138352D01*
X162868717Y-71019481D01*
X162868716Y-71019480D01*
X162781904Y-70969360D01*
X162781904Y-70969359D01*
X162781900Y-70969358D01*
X162731785Y-70940423D01*
X162579057Y-70899499D01*
X162420943Y-70899499D01*
X162413347Y-70899499D01*
X162413331Y-70899500D01*
X125321669Y-70899500D01*
X125321653Y-70899499D01*
X125314057Y-70899499D01*
X125155943Y-70899499D01*
X125048587Y-70928265D01*
X125003210Y-70940424D01*
X125003209Y-70940425D01*
X124953096Y-70969359D01*
X124953095Y-70969360D01*
X124909689Y-70994420D01*
X124866285Y-71019479D01*
X124866282Y-71019481D01*
X124754478Y-71131286D01*
X123219522Y-72666241D01*
X123158199Y-72699726D01*
X123093523Y-72696491D01*
X123051245Y-72682754D01*
X122911272Y-72660584D01*
X122841287Y-72649500D01*
X122628713Y-72649500D01*
X122580042Y-72657208D01*
X122418760Y-72682753D01*
X122216585Y-72748444D01*
X122027179Y-72844951D01*
X121855213Y-72969890D01*
X121704890Y-73120213D01*
X121579951Y-73292179D01*
X121483444Y-73481585D01*
X121417753Y-73683760D01*
X121384500Y-73893713D01*
X108350500Y-73893713D01*
X108317246Y-73683757D01*
X108251557Y-73481588D01*
X108155051Y-73292184D01*
X108155049Y-73292181D01*
X108155048Y-73292179D01*
X108030109Y-73120213D01*
X107879786Y-72969890D01*
X107707820Y-72844951D01*
X107518414Y-72748444D01*
X107518413Y-72748443D01*
X107518412Y-72748443D01*
X107316243Y-72682754D01*
X107316241Y-72682753D01*
X107316240Y-72682753D01*
X107154957Y-72657208D01*
X107106287Y-72649500D01*
X106893713Y-72649500D01*
X106845042Y-72657208D01*
X106683760Y-72682753D01*
X106481585Y-72748444D01*
X106292179Y-72844951D01*
X106120213Y-72969890D01*
X105969890Y-73120213D01*
X105844951Y-73292179D01*
X105748444Y-73481585D01*
X105682753Y-73683760D01*
X105649500Y-73893713D01*
X103500500Y-73893713D01*
X103500500Y-70624500D01*
X103520185Y-70557461D01*
X103572989Y-70511706D01*
X103624500Y-70500500D01*
X179375500Y-70500500D01*
X179442539Y-70520185D01*
G37*
G04 #@! TD.AperFunction*
M02*
