G04 #@! TF.GenerationSoftware,KiCad,Pcbnew,9.0.4*
G04 #@! TF.CreationDate,2025-08-26T16:41:35+10:00*
G04 #@! TF.ProjectId,BrakeControllerDesign,4272616b-6543-46f6-9e74-726f6c6c6572,rev?*
G04 #@! TF.SameCoordinates,Original*
G04 #@! TF.FileFunction,Legend,Top*
G04 #@! TF.FilePolarity,Positive*
%FSLAX46Y46*%
G04 Gerber Fmt 4.6, Leading zero omitted, Abs format (unit mm)*
G04 Created by KiCad (PCBNEW 9.0.4) date 2025-08-26 16:41:35*
%MOMM*%
%LPD*%
G01*
G04 APERTURE LIST*
G04 Aperture macros list*
%AMRoundRect*
0 Rectangle with rounded corners*
0 $1 Rounding radius*
0 $2 $3 $4 $5 $6 $7 $8 $9 X,Y pos of 4 corners*
0 Add a 4 corners polygon primitive as box body*
4,1,4,$2,$3,$4,$5,$6,$7,$8,$9,$2,$3,0*
0 Add four circle primitives for the rounded corners*
1,1,$1+$1,$2,$3*
1,1,$1+$1,$4,$5*
1,1,$1+$1,$6,$7*
1,1,$1+$1,$8,$9*
0 Add four rect primitives between the rounded corners*
20,1,$1+$1,$2,$3,$4,$5,0*
20,1,$1+$1,$4,$5,$6,$7,0*
20,1,$1+$1,$6,$7,$8,$9,0*
20,1,$1+$1,$8,$9,$2,$3,0*%
G04 Aperture macros list end*
%ADD10C,0.152400*%
%ADD11C,0.150000*%
%ADD12C,0.120000*%
%ADD13R,1.700000X1.700000*%
%ADD14C,1.700000*%
%ADD15R,1.050000X1.500000*%
%ADD16O,1.050000X1.500000*%
%ADD17C,2.000000*%
%ADD18C,3.200000*%
%ADD19C,1.600000*%
%ADD20R,1.800000X1.800000*%
%ADD21C,1.800000*%
%ADD22RoundRect,0.150000X0.150000X-0.825000X0.150000X0.825000X-0.150000X0.825000X-0.150000X-0.825000X0*%
%ADD23R,2.000000X1.200000*%
%ADD24O,2.000000X1.200000*%
G04 APERTURE END LIST*
D10*
X176853899Y-107744917D02*
X176892603Y-107628803D01*
X176892603Y-107628803D02*
X176892603Y-107435279D01*
X176892603Y-107435279D02*
X176853899Y-107357870D01*
X176853899Y-107357870D02*
X176815194Y-107319165D01*
X176815194Y-107319165D02*
X176737784Y-107280460D01*
X176737784Y-107280460D02*
X176660375Y-107280460D01*
X176660375Y-107280460D02*
X176582965Y-107319165D01*
X176582965Y-107319165D02*
X176544260Y-107357870D01*
X176544260Y-107357870D02*
X176505556Y-107435279D01*
X176505556Y-107435279D02*
X176466851Y-107590098D01*
X176466851Y-107590098D02*
X176428146Y-107667508D01*
X176428146Y-107667508D02*
X176389441Y-107706213D01*
X176389441Y-107706213D02*
X176312032Y-107744917D01*
X176312032Y-107744917D02*
X176234622Y-107744917D01*
X176234622Y-107744917D02*
X176157213Y-107706213D01*
X176157213Y-107706213D02*
X176118508Y-107667508D01*
X176118508Y-107667508D02*
X176079803Y-107590098D01*
X176079803Y-107590098D02*
X176079803Y-107396575D01*
X176079803Y-107396575D02*
X176118508Y-107280460D01*
X176892603Y-106932118D02*
X176079803Y-106932118D01*
X176079803Y-106932118D02*
X176892603Y-106467661D01*
X176892603Y-106467661D02*
X176079803Y-106467661D01*
X176079803Y-105732270D02*
X176079803Y-105887089D01*
X176079803Y-105887089D02*
X176118508Y-105964498D01*
X176118508Y-105964498D02*
X176157213Y-106003203D01*
X176157213Y-106003203D02*
X176273327Y-106080613D01*
X176273327Y-106080613D02*
X176428146Y-106119317D01*
X176428146Y-106119317D02*
X176737784Y-106119317D01*
X176737784Y-106119317D02*
X176815194Y-106080613D01*
X176815194Y-106080613D02*
X176853899Y-106041908D01*
X176853899Y-106041908D02*
X176892603Y-105964498D01*
X176892603Y-105964498D02*
X176892603Y-105809679D01*
X176892603Y-105809679D02*
X176853899Y-105732270D01*
X176853899Y-105732270D02*
X176815194Y-105693565D01*
X176815194Y-105693565D02*
X176737784Y-105654860D01*
X176737784Y-105654860D02*
X176544260Y-105654860D01*
X176544260Y-105654860D02*
X176466851Y-105693565D01*
X176466851Y-105693565D02*
X176428146Y-105732270D01*
X176428146Y-105732270D02*
X176389441Y-105809679D01*
X176389441Y-105809679D02*
X176389441Y-105964498D01*
X176389441Y-105964498D02*
X176428146Y-106041908D01*
X176428146Y-106041908D02*
X176466851Y-106080613D01*
X176466851Y-106080613D02*
X176544260Y-106119317D01*
X176079803Y-104919470D02*
X176079803Y-105306518D01*
X176079803Y-105306518D02*
X176466851Y-105345222D01*
X176466851Y-105345222D02*
X176428146Y-105306518D01*
X176428146Y-105306518D02*
X176389441Y-105229108D01*
X176389441Y-105229108D02*
X176389441Y-105035584D01*
X176389441Y-105035584D02*
X176428146Y-104958175D01*
X176428146Y-104958175D02*
X176466851Y-104919470D01*
X176466851Y-104919470D02*
X176544260Y-104880765D01*
X176544260Y-104880765D02*
X176737784Y-104880765D01*
X176737784Y-104880765D02*
X176815194Y-104919470D01*
X176815194Y-104919470D02*
X176853899Y-104958175D01*
X176853899Y-104958175D02*
X176892603Y-105035584D01*
X176892603Y-105035584D02*
X176892603Y-105229108D01*
X176892603Y-105229108D02*
X176853899Y-105306518D01*
X176853899Y-105306518D02*
X176815194Y-105345222D01*
X176892603Y-104532423D02*
X176079803Y-104532423D01*
X176466851Y-104532423D02*
X176466851Y-104067966D01*
X176892603Y-104067966D02*
X176079803Y-104067966D01*
X176079803Y-103797032D02*
X176892603Y-103526099D01*
X176892603Y-103526099D02*
X176079803Y-103255165D01*
X176892603Y-102984232D02*
X176079803Y-102984232D01*
X176079803Y-102984232D02*
X176079803Y-102790708D01*
X176079803Y-102790708D02*
X176118508Y-102674594D01*
X176118508Y-102674594D02*
X176195918Y-102597184D01*
X176195918Y-102597184D02*
X176273327Y-102558479D01*
X176273327Y-102558479D02*
X176428146Y-102519775D01*
X176428146Y-102519775D02*
X176544260Y-102519775D01*
X176544260Y-102519775D02*
X176699079Y-102558479D01*
X176699079Y-102558479D02*
X176776489Y-102597184D01*
X176776489Y-102597184D02*
X176853899Y-102674594D01*
X176853899Y-102674594D02*
X176892603Y-102790708D01*
X176892603Y-102790708D02*
X176892603Y-102984232D01*
X176157213Y-102210136D02*
X176118508Y-102171432D01*
X176118508Y-102171432D02*
X176079803Y-102094022D01*
X176079803Y-102094022D02*
X176079803Y-101900498D01*
X176079803Y-101900498D02*
X176118508Y-101823089D01*
X176118508Y-101823089D02*
X176157213Y-101784384D01*
X176157213Y-101784384D02*
X176234622Y-101745679D01*
X176234622Y-101745679D02*
X176312032Y-101745679D01*
X176312032Y-101745679D02*
X176428146Y-101784384D01*
X176428146Y-101784384D02*
X176892603Y-102248841D01*
X176892603Y-102248841D02*
X176892603Y-101745679D01*
X176079803Y-101474746D02*
X176079803Y-100971584D01*
X176079803Y-100971584D02*
X176389441Y-101242518D01*
X176389441Y-101242518D02*
X176389441Y-101126403D01*
X176389441Y-101126403D02*
X176428146Y-101048994D01*
X176428146Y-101048994D02*
X176466851Y-101010289D01*
X176466851Y-101010289D02*
X176544260Y-100971584D01*
X176544260Y-100971584D02*
X176737784Y-100971584D01*
X176737784Y-100971584D02*
X176815194Y-101010289D01*
X176815194Y-101010289D02*
X176853899Y-101048994D01*
X176853899Y-101048994D02*
X176892603Y-101126403D01*
X176892603Y-101126403D02*
X176892603Y-101358632D01*
X176892603Y-101358632D02*
X176853899Y-101436041D01*
X176853899Y-101436041D02*
X176815194Y-101474746D01*
X176079803Y-100468423D02*
X176079803Y-100391013D01*
X176079803Y-100391013D02*
X176118508Y-100313604D01*
X176118508Y-100313604D02*
X176157213Y-100274899D01*
X176157213Y-100274899D02*
X176234622Y-100236194D01*
X176234622Y-100236194D02*
X176389441Y-100197489D01*
X176389441Y-100197489D02*
X176582965Y-100197489D01*
X176582965Y-100197489D02*
X176737784Y-100236194D01*
X176737784Y-100236194D02*
X176815194Y-100274899D01*
X176815194Y-100274899D02*
X176853899Y-100313604D01*
X176853899Y-100313604D02*
X176892603Y-100391013D01*
X176892603Y-100391013D02*
X176892603Y-100468423D01*
X176892603Y-100468423D02*
X176853899Y-100545832D01*
X176853899Y-100545832D02*
X176815194Y-100584537D01*
X176815194Y-100584537D02*
X176737784Y-100623242D01*
X176737784Y-100623242D02*
X176582965Y-100661946D01*
X176582965Y-100661946D02*
X176389441Y-100661946D01*
X176389441Y-100661946D02*
X176234622Y-100623242D01*
X176234622Y-100623242D02*
X176157213Y-100584537D01*
X176157213Y-100584537D02*
X176118508Y-100545832D01*
X176118508Y-100545832D02*
X176079803Y-100468423D01*
X124955082Y-82957213D02*
X124993786Y-82918508D01*
X124993786Y-82918508D02*
X125071196Y-82879803D01*
X125071196Y-82879803D02*
X125264720Y-82879803D01*
X125264720Y-82879803D02*
X125342129Y-82918508D01*
X125342129Y-82918508D02*
X125380834Y-82957213D01*
X125380834Y-82957213D02*
X125419539Y-83034622D01*
X125419539Y-83034622D02*
X125419539Y-83112032D01*
X125419539Y-83112032D02*
X125380834Y-83228146D01*
X125380834Y-83228146D02*
X124916377Y-83692603D01*
X124916377Y-83692603D02*
X125419539Y-83692603D01*
X125729177Y-82957213D02*
X125767881Y-82918508D01*
X125767881Y-82918508D02*
X125845291Y-82879803D01*
X125845291Y-82879803D02*
X126038815Y-82879803D01*
X126038815Y-82879803D02*
X126116224Y-82918508D01*
X126116224Y-82918508D02*
X126154929Y-82957213D01*
X126154929Y-82957213D02*
X126193634Y-83034622D01*
X126193634Y-83034622D02*
X126193634Y-83112032D01*
X126193634Y-83112032D02*
X126154929Y-83228146D01*
X126154929Y-83228146D02*
X125690472Y-83692603D01*
X125690472Y-83692603D02*
X126193634Y-83692603D01*
X126696795Y-82879803D02*
X126774205Y-82879803D01*
X126774205Y-82879803D02*
X126851614Y-82918508D01*
X126851614Y-82918508D02*
X126890319Y-82957213D01*
X126890319Y-82957213D02*
X126929024Y-83034622D01*
X126929024Y-83034622D02*
X126967729Y-83189441D01*
X126967729Y-83189441D02*
X126967729Y-83382965D01*
X126967729Y-83382965D02*
X126929024Y-83537784D01*
X126929024Y-83537784D02*
X126890319Y-83615194D01*
X126890319Y-83615194D02*
X126851614Y-83653899D01*
X126851614Y-83653899D02*
X126774205Y-83692603D01*
X126774205Y-83692603D02*
X126696795Y-83692603D01*
X126696795Y-83692603D02*
X126619386Y-83653899D01*
X126619386Y-83653899D02*
X126580681Y-83615194D01*
X126580681Y-83615194D02*
X126541976Y-83537784D01*
X126541976Y-83537784D02*
X126503272Y-83382965D01*
X126503272Y-83382965D02*
X126503272Y-83189441D01*
X126503272Y-83189441D02*
X126541976Y-83034622D01*
X126541976Y-83034622D02*
X126580681Y-82957213D01*
X126580681Y-82957213D02*
X126619386Y-82918508D01*
X126619386Y-82918508D02*
X126696795Y-82879803D01*
X124865082Y-93967213D02*
X124903786Y-93928508D01*
X124903786Y-93928508D02*
X124981196Y-93889803D01*
X124981196Y-93889803D02*
X125174720Y-93889803D01*
X125174720Y-93889803D02*
X125252129Y-93928508D01*
X125252129Y-93928508D02*
X125290834Y-93967213D01*
X125290834Y-93967213D02*
X125329539Y-94044622D01*
X125329539Y-94044622D02*
X125329539Y-94122032D01*
X125329539Y-94122032D02*
X125290834Y-94238146D01*
X125290834Y-94238146D02*
X124826377Y-94702603D01*
X124826377Y-94702603D02*
X125329539Y-94702603D01*
X125639177Y-93967213D02*
X125677881Y-93928508D01*
X125677881Y-93928508D02*
X125755291Y-93889803D01*
X125755291Y-93889803D02*
X125948815Y-93889803D01*
X125948815Y-93889803D02*
X126026224Y-93928508D01*
X126026224Y-93928508D02*
X126064929Y-93967213D01*
X126064929Y-93967213D02*
X126103634Y-94044622D01*
X126103634Y-94044622D02*
X126103634Y-94122032D01*
X126103634Y-94122032D02*
X126064929Y-94238146D01*
X126064929Y-94238146D02*
X125600472Y-94702603D01*
X125600472Y-94702603D02*
X126103634Y-94702603D01*
X126606795Y-93889803D02*
X126684205Y-93889803D01*
X126684205Y-93889803D02*
X126761614Y-93928508D01*
X126761614Y-93928508D02*
X126800319Y-93967213D01*
X126800319Y-93967213D02*
X126839024Y-94044622D01*
X126839024Y-94044622D02*
X126877729Y-94199441D01*
X126877729Y-94199441D02*
X126877729Y-94392965D01*
X126877729Y-94392965D02*
X126839024Y-94547784D01*
X126839024Y-94547784D02*
X126800319Y-94625194D01*
X126800319Y-94625194D02*
X126761614Y-94663899D01*
X126761614Y-94663899D02*
X126684205Y-94702603D01*
X126684205Y-94702603D02*
X126606795Y-94702603D01*
X126606795Y-94702603D02*
X126529386Y-94663899D01*
X126529386Y-94663899D02*
X126490681Y-94625194D01*
X126490681Y-94625194D02*
X126451976Y-94547784D01*
X126451976Y-94547784D02*
X126413272Y-94392965D01*
X126413272Y-94392965D02*
X126413272Y-94199441D01*
X126413272Y-94199441D02*
X126451976Y-94044622D01*
X126451976Y-94044622D02*
X126490681Y-93967213D01*
X126490681Y-93967213D02*
X126529386Y-93928508D01*
X126529386Y-93928508D02*
X126606795Y-93889803D01*
X172719539Y-95217603D02*
X172255082Y-95217603D01*
X172487310Y-95217603D02*
X172487310Y-94404803D01*
X172487310Y-94404803D02*
X172409901Y-94520918D01*
X172409901Y-94520918D02*
X172332491Y-94598327D01*
X172332491Y-94598327D02*
X172255082Y-94637032D01*
X173029177Y-94482213D02*
X173067881Y-94443508D01*
X173067881Y-94443508D02*
X173145291Y-94404803D01*
X173145291Y-94404803D02*
X173338815Y-94404803D01*
X173338815Y-94404803D02*
X173416224Y-94443508D01*
X173416224Y-94443508D02*
X173454929Y-94482213D01*
X173454929Y-94482213D02*
X173493634Y-94559622D01*
X173493634Y-94559622D02*
X173493634Y-94637032D01*
X173493634Y-94637032D02*
X173454929Y-94753146D01*
X173454929Y-94753146D02*
X172990472Y-95217603D01*
X172990472Y-95217603D02*
X173493634Y-95217603D01*
X173996795Y-94404803D02*
X174074205Y-94404803D01*
X174074205Y-94404803D02*
X174151614Y-94443508D01*
X174151614Y-94443508D02*
X174190319Y-94482213D01*
X174190319Y-94482213D02*
X174229024Y-94559622D01*
X174229024Y-94559622D02*
X174267729Y-94714441D01*
X174267729Y-94714441D02*
X174267729Y-94907965D01*
X174267729Y-94907965D02*
X174229024Y-95062784D01*
X174229024Y-95062784D02*
X174190319Y-95140194D01*
X174190319Y-95140194D02*
X174151614Y-95178899D01*
X174151614Y-95178899D02*
X174074205Y-95217603D01*
X174074205Y-95217603D02*
X173996795Y-95217603D01*
X173996795Y-95217603D02*
X173919386Y-95178899D01*
X173919386Y-95178899D02*
X173880681Y-95140194D01*
X173880681Y-95140194D02*
X173841976Y-95062784D01*
X173841976Y-95062784D02*
X173803272Y-94907965D01*
X173803272Y-94907965D02*
X173803272Y-94714441D01*
X173803272Y-94714441D02*
X173841976Y-94559622D01*
X173841976Y-94559622D02*
X173880681Y-94482213D01*
X173880681Y-94482213D02*
X173919386Y-94443508D01*
X173919386Y-94443508D02*
X173996795Y-94404803D01*
X124955082Y-88657213D02*
X124993786Y-88618508D01*
X124993786Y-88618508D02*
X125071196Y-88579803D01*
X125071196Y-88579803D02*
X125264720Y-88579803D01*
X125264720Y-88579803D02*
X125342129Y-88618508D01*
X125342129Y-88618508D02*
X125380834Y-88657213D01*
X125380834Y-88657213D02*
X125419539Y-88734622D01*
X125419539Y-88734622D02*
X125419539Y-88812032D01*
X125419539Y-88812032D02*
X125380834Y-88928146D01*
X125380834Y-88928146D02*
X124916377Y-89392603D01*
X124916377Y-89392603D02*
X125419539Y-89392603D01*
X125729177Y-88657213D02*
X125767881Y-88618508D01*
X125767881Y-88618508D02*
X125845291Y-88579803D01*
X125845291Y-88579803D02*
X126038815Y-88579803D01*
X126038815Y-88579803D02*
X126116224Y-88618508D01*
X126116224Y-88618508D02*
X126154929Y-88657213D01*
X126154929Y-88657213D02*
X126193634Y-88734622D01*
X126193634Y-88734622D02*
X126193634Y-88812032D01*
X126193634Y-88812032D02*
X126154929Y-88928146D01*
X126154929Y-88928146D02*
X125690472Y-89392603D01*
X125690472Y-89392603D02*
X126193634Y-89392603D01*
X126696795Y-88579803D02*
X126774205Y-88579803D01*
X126774205Y-88579803D02*
X126851614Y-88618508D01*
X126851614Y-88618508D02*
X126890319Y-88657213D01*
X126890319Y-88657213D02*
X126929024Y-88734622D01*
X126929024Y-88734622D02*
X126967729Y-88889441D01*
X126967729Y-88889441D02*
X126967729Y-89082965D01*
X126967729Y-89082965D02*
X126929024Y-89237784D01*
X126929024Y-89237784D02*
X126890319Y-89315194D01*
X126890319Y-89315194D02*
X126851614Y-89353899D01*
X126851614Y-89353899D02*
X126774205Y-89392603D01*
X126774205Y-89392603D02*
X126696795Y-89392603D01*
X126696795Y-89392603D02*
X126619386Y-89353899D01*
X126619386Y-89353899D02*
X126580681Y-89315194D01*
X126580681Y-89315194D02*
X126541976Y-89237784D01*
X126541976Y-89237784D02*
X126503272Y-89082965D01*
X126503272Y-89082965D02*
X126503272Y-88889441D01*
X126503272Y-88889441D02*
X126541976Y-88734622D01*
X126541976Y-88734622D02*
X126580681Y-88657213D01*
X126580681Y-88657213D02*
X126619386Y-88618508D01*
X126619386Y-88618508D02*
X126696795Y-88579803D01*
D11*
X145622493Y-121869819D02*
X145622493Y-122584104D01*
X145622493Y-122584104D02*
X145574874Y-122726961D01*
X145574874Y-122726961D02*
X145479636Y-122822200D01*
X145479636Y-122822200D02*
X145336779Y-122869819D01*
X145336779Y-122869819D02*
X145241541Y-122869819D01*
X146574874Y-122869819D02*
X146098684Y-122869819D01*
X146098684Y-122869819D02*
X146098684Y-121869819D01*
X147479636Y-122774580D02*
X147432017Y-122822200D01*
X147432017Y-122822200D02*
X147289160Y-122869819D01*
X147289160Y-122869819D02*
X147193922Y-122869819D01*
X147193922Y-122869819D02*
X147051065Y-122822200D01*
X147051065Y-122822200D02*
X146955827Y-122726961D01*
X146955827Y-122726961D02*
X146908208Y-122631723D01*
X146908208Y-122631723D02*
X146860589Y-122441247D01*
X146860589Y-122441247D02*
X146860589Y-122298390D01*
X146860589Y-122298390D02*
X146908208Y-122107914D01*
X146908208Y-122107914D02*
X146955827Y-122012676D01*
X146955827Y-122012676D02*
X147051065Y-121917438D01*
X147051065Y-121917438D02*
X147193922Y-121869819D01*
X147193922Y-121869819D02*
X147289160Y-121869819D01*
X147289160Y-121869819D02*
X147432017Y-121917438D01*
X147432017Y-121917438D02*
X147479636Y-121965057D01*
X148193922Y-121869819D02*
X148193922Y-122584104D01*
X148193922Y-122584104D02*
X148146303Y-122726961D01*
X148146303Y-122726961D02*
X148051065Y-122822200D01*
X148051065Y-122822200D02*
X147908208Y-122869819D01*
X147908208Y-122869819D02*
X147812970Y-122869819D01*
X149146303Y-122869819D02*
X148670113Y-122869819D01*
X148670113Y-122869819D02*
X148670113Y-121869819D01*
X150051065Y-122774580D02*
X150003446Y-122822200D01*
X150003446Y-122822200D02*
X149860589Y-122869819D01*
X149860589Y-122869819D02*
X149765351Y-122869819D01*
X149765351Y-122869819D02*
X149622494Y-122822200D01*
X149622494Y-122822200D02*
X149527256Y-122726961D01*
X149527256Y-122726961D02*
X149479637Y-122631723D01*
X149479637Y-122631723D02*
X149432018Y-122441247D01*
X149432018Y-122441247D02*
X149432018Y-122298390D01*
X149432018Y-122298390D02*
X149479637Y-122107914D01*
X149479637Y-122107914D02*
X149527256Y-122012676D01*
X149527256Y-122012676D02*
X149622494Y-121917438D01*
X149622494Y-121917438D02*
X149765351Y-121869819D01*
X149765351Y-121869819D02*
X149860589Y-121869819D01*
X149860589Y-121869819D02*
X150003446Y-121917438D01*
X150003446Y-121917438D02*
X150051065Y-121965057D01*
X150765351Y-121869819D02*
X150765351Y-122584104D01*
X150765351Y-122584104D02*
X150717732Y-122726961D01*
X150717732Y-122726961D02*
X150622494Y-122822200D01*
X150622494Y-122822200D02*
X150479637Y-122869819D01*
X150479637Y-122869819D02*
X150384399Y-122869819D01*
X151717732Y-122869819D02*
X151241542Y-122869819D01*
X151241542Y-122869819D02*
X151241542Y-121869819D01*
X152622494Y-122774580D02*
X152574875Y-122822200D01*
X152574875Y-122822200D02*
X152432018Y-122869819D01*
X152432018Y-122869819D02*
X152336780Y-122869819D01*
X152336780Y-122869819D02*
X152193923Y-122822200D01*
X152193923Y-122822200D02*
X152098685Y-122726961D01*
X152098685Y-122726961D02*
X152051066Y-122631723D01*
X152051066Y-122631723D02*
X152003447Y-122441247D01*
X152003447Y-122441247D02*
X152003447Y-122298390D01*
X152003447Y-122298390D02*
X152051066Y-122107914D01*
X152051066Y-122107914D02*
X152098685Y-122012676D01*
X152098685Y-122012676D02*
X152193923Y-121917438D01*
X152193923Y-121917438D02*
X152336780Y-121869819D01*
X152336780Y-121869819D02*
X152432018Y-121869819D01*
X152432018Y-121869819D02*
X152574875Y-121917438D01*
X152574875Y-121917438D02*
X152622494Y-121965057D01*
X153336780Y-121869819D02*
X153336780Y-122584104D01*
X153336780Y-122584104D02*
X153289161Y-122726961D01*
X153289161Y-122726961D02*
X153193923Y-122822200D01*
X153193923Y-122822200D02*
X153051066Y-122869819D01*
X153051066Y-122869819D02*
X152955828Y-122869819D01*
X154289161Y-122869819D02*
X153812971Y-122869819D01*
X153812971Y-122869819D02*
X153812971Y-121869819D01*
X155193923Y-122774580D02*
X155146304Y-122822200D01*
X155146304Y-122822200D02*
X155003447Y-122869819D01*
X155003447Y-122869819D02*
X154908209Y-122869819D01*
X154908209Y-122869819D02*
X154765352Y-122822200D01*
X154765352Y-122822200D02*
X154670114Y-122726961D01*
X154670114Y-122726961D02*
X154622495Y-122631723D01*
X154622495Y-122631723D02*
X154574876Y-122441247D01*
X154574876Y-122441247D02*
X154574876Y-122298390D01*
X154574876Y-122298390D02*
X154622495Y-122107914D01*
X154622495Y-122107914D02*
X154670114Y-122012676D01*
X154670114Y-122012676D02*
X154765352Y-121917438D01*
X154765352Y-121917438D02*
X154908209Y-121869819D01*
X154908209Y-121869819D02*
X155003447Y-121869819D01*
X155003447Y-121869819D02*
X155146304Y-121917438D01*
X155146304Y-121917438D02*
X155193923Y-121965057D01*
D10*
X172719539Y-114892603D02*
X172255082Y-114892603D01*
X172487310Y-114892603D02*
X172487310Y-114079803D01*
X172487310Y-114079803D02*
X172409901Y-114195918D01*
X172409901Y-114195918D02*
X172332491Y-114273327D01*
X172332491Y-114273327D02*
X172255082Y-114312032D01*
X173222700Y-114079803D02*
X173300110Y-114079803D01*
X173300110Y-114079803D02*
X173377519Y-114118508D01*
X173377519Y-114118508D02*
X173416224Y-114157213D01*
X173416224Y-114157213D02*
X173454929Y-114234622D01*
X173454929Y-114234622D02*
X173493634Y-114389441D01*
X173493634Y-114389441D02*
X173493634Y-114582965D01*
X173493634Y-114582965D02*
X173454929Y-114737784D01*
X173454929Y-114737784D02*
X173416224Y-114815194D01*
X173416224Y-114815194D02*
X173377519Y-114853899D01*
X173377519Y-114853899D02*
X173300110Y-114892603D01*
X173300110Y-114892603D02*
X173222700Y-114892603D01*
X173222700Y-114892603D02*
X173145291Y-114853899D01*
X173145291Y-114853899D02*
X173106586Y-114815194D01*
X173106586Y-114815194D02*
X173067881Y-114737784D01*
X173067881Y-114737784D02*
X173029177Y-114582965D01*
X173029177Y-114582965D02*
X173029177Y-114389441D01*
X173029177Y-114389441D02*
X173067881Y-114234622D01*
X173067881Y-114234622D02*
X173106586Y-114157213D01*
X173106586Y-114157213D02*
X173145291Y-114118508D01*
X173145291Y-114118508D02*
X173222700Y-114079803D01*
X173841976Y-114892603D02*
X173841976Y-114079803D01*
X174306433Y-114892603D02*
X173958091Y-114428146D01*
X174306433Y-114079803D02*
X173841976Y-114544260D01*
D11*
X106666666Y-122374819D02*
X106666666Y-123089104D01*
X106666666Y-123089104D02*
X106619047Y-123231961D01*
X106619047Y-123231961D02*
X106523809Y-123327200D01*
X106523809Y-123327200D02*
X106380952Y-123374819D01*
X106380952Y-123374819D02*
X106285714Y-123374819D01*
X107571428Y-122708152D02*
X107571428Y-123374819D01*
X107333333Y-122327200D02*
X107095238Y-123041485D01*
X107095238Y-123041485D02*
X107714285Y-123041485D01*
X171626666Y-79454819D02*
X171626666Y-80169104D01*
X171626666Y-80169104D02*
X171579047Y-80311961D01*
X171579047Y-80311961D02*
X171483809Y-80407200D01*
X171483809Y-80407200D02*
X171340952Y-80454819D01*
X171340952Y-80454819D02*
X171245714Y-80454819D01*
X172102857Y-80454819D02*
X172102857Y-79454819D01*
X172102857Y-79454819D02*
X172483809Y-79454819D01*
X172483809Y-79454819D02*
X172579047Y-79502438D01*
X172579047Y-79502438D02*
X172626666Y-79550057D01*
X172626666Y-79550057D02*
X172674285Y-79645295D01*
X172674285Y-79645295D02*
X172674285Y-79788152D01*
X172674285Y-79788152D02*
X172626666Y-79883390D01*
X172626666Y-79883390D02*
X172579047Y-79931009D01*
X172579047Y-79931009D02*
X172483809Y-79978628D01*
X172483809Y-79978628D02*
X172102857Y-79978628D01*
X173626666Y-80454819D02*
X173055238Y-80454819D01*
X173340952Y-80454819D02*
X173340952Y-79454819D01*
X173340952Y-79454819D02*
X173245714Y-79597676D01*
X173245714Y-79597676D02*
X173150476Y-79692914D01*
X173150476Y-79692914D02*
X173055238Y-79740533D01*
X117134761Y-102490057D02*
X117039523Y-102442438D01*
X117039523Y-102442438D02*
X116944285Y-102347200D01*
X116944285Y-102347200D02*
X116801428Y-102204342D01*
X116801428Y-102204342D02*
X116706190Y-102156723D01*
X116706190Y-102156723D02*
X116610952Y-102156723D01*
X116658571Y-102394819D02*
X116563333Y-102347200D01*
X116563333Y-102347200D02*
X116468095Y-102251961D01*
X116468095Y-102251961D02*
X116420476Y-102061485D01*
X116420476Y-102061485D02*
X116420476Y-101728152D01*
X116420476Y-101728152D02*
X116468095Y-101537676D01*
X116468095Y-101537676D02*
X116563333Y-101442438D01*
X116563333Y-101442438D02*
X116658571Y-101394819D01*
X116658571Y-101394819D02*
X116849047Y-101394819D01*
X116849047Y-101394819D02*
X116944285Y-101442438D01*
X116944285Y-101442438D02*
X117039523Y-101537676D01*
X117039523Y-101537676D02*
X117087142Y-101728152D01*
X117087142Y-101728152D02*
X117087142Y-102061485D01*
X117087142Y-102061485D02*
X117039523Y-102251961D01*
X117039523Y-102251961D02*
X116944285Y-102347200D01*
X116944285Y-102347200D02*
X116849047Y-102394819D01*
X116849047Y-102394819D02*
X116658571Y-102394819D01*
X118039523Y-102394819D02*
X117468095Y-102394819D01*
X117753809Y-102394819D02*
X117753809Y-101394819D01*
X117753809Y-101394819D02*
X117658571Y-101537676D01*
X117658571Y-101537676D02*
X117563333Y-101632914D01*
X117563333Y-101632914D02*
X117468095Y-101680533D01*
X123941666Y-76454819D02*
X123941666Y-77169104D01*
X123941666Y-77169104D02*
X123894047Y-77311961D01*
X123894047Y-77311961D02*
X123798809Y-77407200D01*
X123798809Y-77407200D02*
X123655952Y-77454819D01*
X123655952Y-77454819D02*
X123560714Y-77454819D01*
X124370238Y-76550057D02*
X124417857Y-76502438D01*
X124417857Y-76502438D02*
X124513095Y-76454819D01*
X124513095Y-76454819D02*
X124751190Y-76454819D01*
X124751190Y-76454819D02*
X124846428Y-76502438D01*
X124846428Y-76502438D02*
X124894047Y-76550057D01*
X124894047Y-76550057D02*
X124941666Y-76645295D01*
X124941666Y-76645295D02*
X124941666Y-76740533D01*
X124941666Y-76740533D02*
X124894047Y-76883390D01*
X124894047Y-76883390D02*
X124322619Y-77454819D01*
X124322619Y-77454819D02*
X124941666Y-77454819D01*
X125166667Y-108827200D02*
X125309524Y-108874819D01*
X125309524Y-108874819D02*
X125547619Y-108874819D01*
X125547619Y-108874819D02*
X125642857Y-108827200D01*
X125642857Y-108827200D02*
X125690476Y-108779580D01*
X125690476Y-108779580D02*
X125738095Y-108684342D01*
X125738095Y-108684342D02*
X125738095Y-108589104D01*
X125738095Y-108589104D02*
X125690476Y-108493866D01*
X125690476Y-108493866D02*
X125642857Y-108446247D01*
X125642857Y-108446247D02*
X125547619Y-108398628D01*
X125547619Y-108398628D02*
X125357143Y-108351009D01*
X125357143Y-108351009D02*
X125261905Y-108303390D01*
X125261905Y-108303390D02*
X125214286Y-108255771D01*
X125214286Y-108255771D02*
X125166667Y-108160533D01*
X125166667Y-108160533D02*
X125166667Y-108065295D01*
X125166667Y-108065295D02*
X125214286Y-107970057D01*
X125214286Y-107970057D02*
X125261905Y-107922438D01*
X125261905Y-107922438D02*
X125357143Y-107874819D01*
X125357143Y-107874819D02*
X125595238Y-107874819D01*
X125595238Y-107874819D02*
X125738095Y-107922438D01*
X126071429Y-107874819D02*
X126309524Y-108874819D01*
X126309524Y-108874819D02*
X126500000Y-108160533D01*
X126500000Y-108160533D02*
X126690476Y-108874819D01*
X126690476Y-108874819D02*
X126928572Y-107874819D01*
X127833333Y-108874819D02*
X127261905Y-108874819D01*
X127547619Y-108874819D02*
X127547619Y-107874819D01*
X127547619Y-107874819D02*
X127452381Y-108017676D01*
X127452381Y-108017676D02*
X127357143Y-108112914D01*
X127357143Y-108112914D02*
X127261905Y-108160533D01*
X117299819Y-124833333D02*
X118014104Y-124833333D01*
X118014104Y-124833333D02*
X118156961Y-124880952D01*
X118156961Y-124880952D02*
X118252200Y-124976190D01*
X118252200Y-124976190D02*
X118299819Y-125119047D01*
X118299819Y-125119047D02*
X118299819Y-125214285D01*
X117299819Y-123880952D02*
X117299819Y-124357142D01*
X117299819Y-124357142D02*
X117776009Y-124404761D01*
X117776009Y-124404761D02*
X117728390Y-124357142D01*
X117728390Y-124357142D02*
X117680771Y-124261904D01*
X117680771Y-124261904D02*
X117680771Y-124023809D01*
X117680771Y-124023809D02*
X117728390Y-123928571D01*
X117728390Y-123928571D02*
X117776009Y-123880952D01*
X117776009Y-123880952D02*
X117871247Y-123833333D01*
X117871247Y-123833333D02*
X118109342Y-123833333D01*
X118109342Y-123833333D02*
X118204580Y-123880952D01*
X118204580Y-123880952D02*
X118252200Y-123928571D01*
X118252200Y-123928571D02*
X118299819Y-124023809D01*
X118299819Y-124023809D02*
X118299819Y-124261904D01*
X118299819Y-124261904D02*
X118252200Y-124357142D01*
X118252200Y-124357142D02*
X118204580Y-124404761D01*
X172333333Y-92807819D02*
X172000000Y-92331628D01*
X171761905Y-92807819D02*
X171761905Y-91807819D01*
X171761905Y-91807819D02*
X172142857Y-91807819D01*
X172142857Y-91807819D02*
X172238095Y-91855438D01*
X172238095Y-91855438D02*
X172285714Y-91903057D01*
X172285714Y-91903057D02*
X172333333Y-91998295D01*
X172333333Y-91998295D02*
X172333333Y-92141152D01*
X172333333Y-92141152D02*
X172285714Y-92236390D01*
X172285714Y-92236390D02*
X172238095Y-92284009D01*
X172238095Y-92284009D02*
X172142857Y-92331628D01*
X172142857Y-92331628D02*
X171761905Y-92331628D01*
X173238095Y-91807819D02*
X172761905Y-91807819D01*
X172761905Y-91807819D02*
X172714286Y-92284009D01*
X172714286Y-92284009D02*
X172761905Y-92236390D01*
X172761905Y-92236390D02*
X172857143Y-92188771D01*
X172857143Y-92188771D02*
X173095238Y-92188771D01*
X173095238Y-92188771D02*
X173190476Y-92236390D01*
X173190476Y-92236390D02*
X173238095Y-92284009D01*
X173238095Y-92284009D02*
X173285714Y-92379247D01*
X173285714Y-92379247D02*
X173285714Y-92617342D01*
X173285714Y-92617342D02*
X173238095Y-92712580D01*
X173238095Y-92712580D02*
X173190476Y-92760200D01*
X173190476Y-92760200D02*
X173095238Y-92807819D01*
X173095238Y-92807819D02*
X172857143Y-92807819D01*
X172857143Y-92807819D02*
X172761905Y-92760200D01*
X172761905Y-92760200D02*
X172714286Y-92712580D01*
X125682333Y-97180819D02*
X125349000Y-96704628D01*
X125110905Y-97180819D02*
X125110905Y-96180819D01*
X125110905Y-96180819D02*
X125491857Y-96180819D01*
X125491857Y-96180819D02*
X125587095Y-96228438D01*
X125587095Y-96228438D02*
X125634714Y-96276057D01*
X125634714Y-96276057D02*
X125682333Y-96371295D01*
X125682333Y-96371295D02*
X125682333Y-96514152D01*
X125682333Y-96514152D02*
X125634714Y-96609390D01*
X125634714Y-96609390D02*
X125587095Y-96657009D01*
X125587095Y-96657009D02*
X125491857Y-96704628D01*
X125491857Y-96704628D02*
X125110905Y-96704628D01*
X126634714Y-97180819D02*
X126063286Y-97180819D01*
X126349000Y-97180819D02*
X126349000Y-96180819D01*
X126349000Y-96180819D02*
X126253762Y-96323676D01*
X126253762Y-96323676D02*
X126158524Y-96418914D01*
X126158524Y-96418914D02*
X126063286Y-96466533D01*
X124491905Y-98994819D02*
X124491905Y-97994819D01*
X124491905Y-97994819D02*
X124730000Y-97994819D01*
X124730000Y-97994819D02*
X124872857Y-98042438D01*
X124872857Y-98042438D02*
X124968095Y-98137676D01*
X124968095Y-98137676D02*
X125015714Y-98232914D01*
X125015714Y-98232914D02*
X125063333Y-98423390D01*
X125063333Y-98423390D02*
X125063333Y-98566247D01*
X125063333Y-98566247D02*
X125015714Y-98756723D01*
X125015714Y-98756723D02*
X124968095Y-98851961D01*
X124968095Y-98851961D02*
X124872857Y-98947200D01*
X124872857Y-98947200D02*
X124730000Y-98994819D01*
X124730000Y-98994819D02*
X124491905Y-98994819D01*
X126015714Y-98994819D02*
X125444286Y-98994819D01*
X125730000Y-98994819D02*
X125730000Y-97994819D01*
X125730000Y-97994819D02*
X125634762Y-98137676D01*
X125634762Y-98137676D02*
X125539524Y-98232914D01*
X125539524Y-98232914D02*
X125444286Y-98280533D01*
X116904761Y-93990057D02*
X116809523Y-93942438D01*
X116809523Y-93942438D02*
X116714285Y-93847200D01*
X116714285Y-93847200D02*
X116571428Y-93704342D01*
X116571428Y-93704342D02*
X116476190Y-93656723D01*
X116476190Y-93656723D02*
X116380952Y-93656723D01*
X116428571Y-93894819D02*
X116333333Y-93847200D01*
X116333333Y-93847200D02*
X116238095Y-93751961D01*
X116238095Y-93751961D02*
X116190476Y-93561485D01*
X116190476Y-93561485D02*
X116190476Y-93228152D01*
X116190476Y-93228152D02*
X116238095Y-93037676D01*
X116238095Y-93037676D02*
X116333333Y-92942438D01*
X116333333Y-92942438D02*
X116428571Y-92894819D01*
X116428571Y-92894819D02*
X116619047Y-92894819D01*
X116619047Y-92894819D02*
X116714285Y-92942438D01*
X116714285Y-92942438D02*
X116809523Y-93037676D01*
X116809523Y-93037676D02*
X116857142Y-93228152D01*
X116857142Y-93228152D02*
X116857142Y-93561485D01*
X116857142Y-93561485D02*
X116809523Y-93751961D01*
X116809523Y-93751961D02*
X116714285Y-93847200D01*
X116714285Y-93847200D02*
X116619047Y-93894819D01*
X116619047Y-93894819D02*
X116428571Y-93894819D01*
X117238095Y-92990057D02*
X117285714Y-92942438D01*
X117285714Y-92942438D02*
X117380952Y-92894819D01*
X117380952Y-92894819D02*
X117619047Y-92894819D01*
X117619047Y-92894819D02*
X117714285Y-92942438D01*
X117714285Y-92942438D02*
X117761904Y-92990057D01*
X117761904Y-92990057D02*
X117809523Y-93085295D01*
X117809523Y-93085295D02*
X117809523Y-93180533D01*
X117809523Y-93180533D02*
X117761904Y-93323390D01*
X117761904Y-93323390D02*
X117190476Y-93894819D01*
X117190476Y-93894819D02*
X117809523Y-93894819D01*
X106666666Y-101874819D02*
X106666666Y-102589104D01*
X106666666Y-102589104D02*
X106619047Y-102731961D01*
X106619047Y-102731961D02*
X106523809Y-102827200D01*
X106523809Y-102827200D02*
X106380952Y-102874819D01*
X106380952Y-102874819D02*
X106285714Y-102874819D01*
X107666666Y-102874819D02*
X107095238Y-102874819D01*
X107380952Y-102874819D02*
X107380952Y-101874819D01*
X107380952Y-101874819D02*
X107285714Y-102017676D01*
X107285714Y-102017676D02*
X107190476Y-102112914D01*
X107190476Y-102112914D02*
X107095238Y-102160533D01*
X172454819Y-104761904D02*
X173264342Y-104761904D01*
X173264342Y-104761904D02*
X173359580Y-104714285D01*
X173359580Y-104714285D02*
X173407200Y-104666666D01*
X173407200Y-104666666D02*
X173454819Y-104571428D01*
X173454819Y-104571428D02*
X173454819Y-104380952D01*
X173454819Y-104380952D02*
X173407200Y-104285714D01*
X173407200Y-104285714D02*
X173359580Y-104238095D01*
X173359580Y-104238095D02*
X173264342Y-104190476D01*
X173264342Y-104190476D02*
X172454819Y-104190476D01*
X172550057Y-103761904D02*
X172502438Y-103714285D01*
X172502438Y-103714285D02*
X172454819Y-103619047D01*
X172454819Y-103619047D02*
X172454819Y-103380952D01*
X172454819Y-103380952D02*
X172502438Y-103285714D01*
X172502438Y-103285714D02*
X172550057Y-103238095D01*
X172550057Y-103238095D02*
X172645295Y-103190476D01*
X172645295Y-103190476D02*
X172740533Y-103190476D01*
X172740533Y-103190476D02*
X172883390Y-103238095D01*
X172883390Y-103238095D02*
X173454819Y-103809523D01*
X173454819Y-103809523D02*
X173454819Y-103190476D01*
X148238095Y-75451379D02*
X148238095Y-76260902D01*
X148238095Y-76260902D02*
X148285714Y-76356140D01*
X148285714Y-76356140D02*
X148333333Y-76403760D01*
X148333333Y-76403760D02*
X148428571Y-76451379D01*
X148428571Y-76451379D02*
X148619047Y-76451379D01*
X148619047Y-76451379D02*
X148714285Y-76403760D01*
X148714285Y-76403760D02*
X148761904Y-76356140D01*
X148761904Y-76356140D02*
X148809523Y-76260902D01*
X148809523Y-76260902D02*
X148809523Y-75451379D01*
X149809523Y-76451379D02*
X149238095Y-76451379D01*
X149523809Y-76451379D02*
X149523809Y-75451379D01*
X149523809Y-75451379D02*
X149428571Y-75594236D01*
X149428571Y-75594236D02*
X149333333Y-75689474D01*
X149333333Y-75689474D02*
X149238095Y-75737093D01*
X148931009Y-107821797D02*
X148931009Y-107488464D01*
X149454819Y-107345607D02*
X149454819Y-107821797D01*
X149454819Y-107821797D02*
X148454819Y-107821797D01*
X148454819Y-107821797D02*
X148454819Y-107345607D01*
X149407200Y-106964654D02*
X149454819Y-106821797D01*
X149454819Y-106821797D02*
X149454819Y-106583702D01*
X149454819Y-106583702D02*
X149407200Y-106488464D01*
X149407200Y-106488464D02*
X149359580Y-106440845D01*
X149359580Y-106440845D02*
X149264342Y-106393226D01*
X149264342Y-106393226D02*
X149169104Y-106393226D01*
X149169104Y-106393226D02*
X149073866Y-106440845D01*
X149073866Y-106440845D02*
X149026247Y-106488464D01*
X149026247Y-106488464D02*
X148978628Y-106583702D01*
X148978628Y-106583702D02*
X148931009Y-106774178D01*
X148931009Y-106774178D02*
X148883390Y-106869416D01*
X148883390Y-106869416D02*
X148835771Y-106917035D01*
X148835771Y-106917035D02*
X148740533Y-106964654D01*
X148740533Y-106964654D02*
X148645295Y-106964654D01*
X148645295Y-106964654D02*
X148550057Y-106917035D01*
X148550057Y-106917035D02*
X148502438Y-106869416D01*
X148502438Y-106869416D02*
X148454819Y-106774178D01*
X148454819Y-106774178D02*
X148454819Y-106536083D01*
X148454819Y-106536083D02*
X148502438Y-106393226D01*
X149454819Y-105964654D02*
X148454819Y-105964654D01*
X148454819Y-105964654D02*
X148454819Y-105583702D01*
X148454819Y-105583702D02*
X148502438Y-105488464D01*
X148502438Y-105488464D02*
X148550057Y-105440845D01*
X148550057Y-105440845D02*
X148645295Y-105393226D01*
X148645295Y-105393226D02*
X148788152Y-105393226D01*
X148788152Y-105393226D02*
X148883390Y-105440845D01*
X148883390Y-105440845D02*
X148931009Y-105488464D01*
X148931009Y-105488464D02*
X148978628Y-105583702D01*
X148978628Y-105583702D02*
X148978628Y-105964654D01*
X148454819Y-105059892D02*
X148454819Y-104440845D01*
X148454819Y-104440845D02*
X148835771Y-104774178D01*
X148835771Y-104774178D02*
X148835771Y-104631321D01*
X148835771Y-104631321D02*
X148883390Y-104536083D01*
X148883390Y-104536083D02*
X148931009Y-104488464D01*
X148931009Y-104488464D02*
X149026247Y-104440845D01*
X149026247Y-104440845D02*
X149264342Y-104440845D01*
X149264342Y-104440845D02*
X149359580Y-104488464D01*
X149359580Y-104488464D02*
X149407200Y-104536083D01*
X149407200Y-104536083D02*
X149454819Y-104631321D01*
X149454819Y-104631321D02*
X149454819Y-104917035D01*
X149454819Y-104917035D02*
X149407200Y-105012273D01*
X149407200Y-105012273D02*
X149359580Y-105059892D01*
X148550057Y-104059892D02*
X148502438Y-104012273D01*
X148502438Y-104012273D02*
X148454819Y-103917035D01*
X148454819Y-103917035D02*
X148454819Y-103678940D01*
X148454819Y-103678940D02*
X148502438Y-103583702D01*
X148502438Y-103583702D02*
X148550057Y-103536083D01*
X148550057Y-103536083D02*
X148645295Y-103488464D01*
X148645295Y-103488464D02*
X148740533Y-103488464D01*
X148740533Y-103488464D02*
X148883390Y-103536083D01*
X148883390Y-103536083D02*
X149454819Y-104107511D01*
X149454819Y-104107511D02*
X149454819Y-103488464D01*
X149073866Y-103059892D02*
X149073866Y-102297988D01*
X149454819Y-101821797D02*
X148454819Y-101821797D01*
X148454819Y-101821797D02*
X148454819Y-101583702D01*
X148454819Y-101583702D02*
X148502438Y-101440845D01*
X148502438Y-101440845D02*
X148597676Y-101345607D01*
X148597676Y-101345607D02*
X148692914Y-101297988D01*
X148692914Y-101297988D02*
X148883390Y-101250369D01*
X148883390Y-101250369D02*
X149026247Y-101250369D01*
X149026247Y-101250369D02*
X149216723Y-101297988D01*
X149216723Y-101297988D02*
X149311961Y-101345607D01*
X149311961Y-101345607D02*
X149407200Y-101440845D01*
X149407200Y-101440845D02*
X149454819Y-101583702D01*
X149454819Y-101583702D02*
X149454819Y-101821797D01*
X149407200Y-100440845D02*
X149454819Y-100536083D01*
X149454819Y-100536083D02*
X149454819Y-100726559D01*
X149454819Y-100726559D02*
X149407200Y-100821797D01*
X149407200Y-100821797D02*
X149311961Y-100869416D01*
X149311961Y-100869416D02*
X148931009Y-100869416D01*
X148931009Y-100869416D02*
X148835771Y-100821797D01*
X148835771Y-100821797D02*
X148788152Y-100726559D01*
X148788152Y-100726559D02*
X148788152Y-100536083D01*
X148788152Y-100536083D02*
X148835771Y-100440845D01*
X148835771Y-100440845D02*
X148931009Y-100393226D01*
X148931009Y-100393226D02*
X149026247Y-100393226D01*
X149026247Y-100393226D02*
X149121485Y-100869416D01*
X148788152Y-100059892D02*
X149454819Y-99821797D01*
X149454819Y-99821797D02*
X148788152Y-99583702D01*
X149454819Y-99202749D02*
X148454819Y-99202749D01*
X149454819Y-98631321D02*
X148883390Y-99059892D01*
X148454819Y-98631321D02*
X149026247Y-99202749D01*
X149454819Y-98202749D02*
X148788152Y-98202749D01*
X148454819Y-98202749D02*
X148502438Y-98250368D01*
X148502438Y-98250368D02*
X148550057Y-98202749D01*
X148550057Y-98202749D02*
X148502438Y-98155130D01*
X148502438Y-98155130D02*
X148454819Y-98202749D01*
X148454819Y-98202749D02*
X148550057Y-98202749D01*
X148788152Y-97869416D02*
X148788152Y-97488464D01*
X148454819Y-97726559D02*
X149311961Y-97726559D01*
X149311961Y-97726559D02*
X149407200Y-97678940D01*
X149407200Y-97678940D02*
X149454819Y-97583702D01*
X149454819Y-97583702D02*
X149454819Y-97488464D01*
X149359580Y-96583702D02*
X149407200Y-96631321D01*
X149407200Y-96631321D02*
X149454819Y-96774178D01*
X149454819Y-96774178D02*
X149454819Y-96869416D01*
X149454819Y-96869416D02*
X149407200Y-97012273D01*
X149407200Y-97012273D02*
X149311961Y-97107511D01*
X149311961Y-97107511D02*
X149216723Y-97155130D01*
X149216723Y-97155130D02*
X149026247Y-97202749D01*
X149026247Y-97202749D02*
X148883390Y-97202749D01*
X148883390Y-97202749D02*
X148692914Y-97155130D01*
X148692914Y-97155130D02*
X148597676Y-97107511D01*
X148597676Y-97107511D02*
X148502438Y-97012273D01*
X148502438Y-97012273D02*
X148454819Y-96869416D01*
X148454819Y-96869416D02*
X148454819Y-96774178D01*
X148454819Y-96774178D02*
X148502438Y-96631321D01*
X148502438Y-96631321D02*
X148550057Y-96583702D01*
X137735350Y-82631379D02*
X137968684Y-83631379D01*
X137968684Y-83631379D02*
X138202017Y-82631379D01*
X138435350Y-83631379D02*
X138435350Y-82631379D01*
X138435350Y-82631379D02*
X138702017Y-82631379D01*
X138702017Y-82631379D02*
X138768684Y-82678998D01*
X138768684Y-82678998D02*
X138802017Y-82726617D01*
X138802017Y-82726617D02*
X138835350Y-82821855D01*
X138835350Y-82821855D02*
X138835350Y-82964712D01*
X138835350Y-82964712D02*
X138802017Y-83059950D01*
X138802017Y-83059950D02*
X138768684Y-83107569D01*
X138768684Y-83107569D02*
X138702017Y-83155188D01*
X138702017Y-83155188D02*
X138435350Y-83155188D01*
X139635350Y-82583760D02*
X139035350Y-83869474D01*
X140235350Y-82678998D02*
X140168683Y-82631379D01*
X140168683Y-82631379D02*
X140068683Y-82631379D01*
X140068683Y-82631379D02*
X139968683Y-82678998D01*
X139968683Y-82678998D02*
X139902017Y-82774236D01*
X139902017Y-82774236D02*
X139868683Y-82869474D01*
X139868683Y-82869474D02*
X139835350Y-83059950D01*
X139835350Y-83059950D02*
X139835350Y-83202807D01*
X139835350Y-83202807D02*
X139868683Y-83393283D01*
X139868683Y-83393283D02*
X139902017Y-83488521D01*
X139902017Y-83488521D02*
X139968683Y-83583760D01*
X139968683Y-83583760D02*
X140068683Y-83631379D01*
X140068683Y-83631379D02*
X140135350Y-83631379D01*
X140135350Y-83631379D02*
X140235350Y-83583760D01*
X140235350Y-83583760D02*
X140268683Y-83536140D01*
X140268683Y-83536140D02*
X140268683Y-83202807D01*
X140268683Y-83202807D02*
X140135350Y-83202807D01*
X140568683Y-83631379D02*
X140568683Y-82631379D01*
X140568683Y-82631379D02*
X140835350Y-82631379D01*
X140835350Y-82631379D02*
X140902017Y-82678998D01*
X140902017Y-82678998D02*
X140935350Y-82726617D01*
X140935350Y-82726617D02*
X140968683Y-82821855D01*
X140968683Y-82821855D02*
X140968683Y-82964712D01*
X140968683Y-82964712D02*
X140935350Y-83059950D01*
X140935350Y-83059950D02*
X140902017Y-83107569D01*
X140902017Y-83107569D02*
X140835350Y-83155188D01*
X140835350Y-83155188D02*
X140568683Y-83155188D01*
X141268683Y-83631379D02*
X141268683Y-82631379D01*
X141735350Y-82631379D02*
X141868683Y-82631379D01*
X141868683Y-82631379D02*
X141935350Y-82678998D01*
X141935350Y-82678998D02*
X142002016Y-82774236D01*
X142002016Y-82774236D02*
X142035350Y-82964712D01*
X142035350Y-82964712D02*
X142035350Y-83298045D01*
X142035350Y-83298045D02*
X142002016Y-83488521D01*
X142002016Y-83488521D02*
X141935350Y-83583760D01*
X141935350Y-83583760D02*
X141868683Y-83631379D01*
X141868683Y-83631379D02*
X141735350Y-83631379D01*
X141735350Y-83631379D02*
X141668683Y-83583760D01*
X141668683Y-83583760D02*
X141602016Y-83488521D01*
X141602016Y-83488521D02*
X141568683Y-83298045D01*
X141568683Y-83298045D02*
X141568683Y-82964712D01*
X141568683Y-82964712D02*
X141602016Y-82774236D01*
X141602016Y-82774236D02*
X141668683Y-82678998D01*
X141668683Y-82678998D02*
X141735350Y-82631379D01*
X142268683Y-82631379D02*
X142702016Y-82631379D01*
X142702016Y-82631379D02*
X142468683Y-83012331D01*
X142468683Y-83012331D02*
X142568683Y-83012331D01*
X142568683Y-83012331D02*
X142635349Y-83059950D01*
X142635349Y-83059950D02*
X142668683Y-83107569D01*
X142668683Y-83107569D02*
X142702016Y-83202807D01*
X142702016Y-83202807D02*
X142702016Y-83440902D01*
X142702016Y-83440902D02*
X142668683Y-83536140D01*
X142668683Y-83536140D02*
X142635349Y-83583760D01*
X142635349Y-83583760D02*
X142568683Y-83631379D01*
X142568683Y-83631379D02*
X142368683Y-83631379D01*
X142368683Y-83631379D02*
X142302016Y-83583760D01*
X142302016Y-83583760D02*
X142268683Y-83536140D01*
X143302016Y-82631379D02*
X143168683Y-82631379D01*
X143168683Y-82631379D02*
X143102016Y-82678998D01*
X143102016Y-82678998D02*
X143068683Y-82726617D01*
X143068683Y-82726617D02*
X143002016Y-82869474D01*
X143002016Y-82869474D02*
X142968683Y-83059950D01*
X142968683Y-83059950D02*
X142968683Y-83440902D01*
X142968683Y-83440902D02*
X143002016Y-83536140D01*
X143002016Y-83536140D02*
X143035350Y-83583760D01*
X143035350Y-83583760D02*
X143102016Y-83631379D01*
X143102016Y-83631379D02*
X143235350Y-83631379D01*
X143235350Y-83631379D02*
X143302016Y-83583760D01*
X143302016Y-83583760D02*
X143335350Y-83536140D01*
X143335350Y-83536140D02*
X143368683Y-83440902D01*
X143368683Y-83440902D02*
X143368683Y-83202807D01*
X143368683Y-83202807D02*
X143335350Y-83107569D01*
X143335350Y-83107569D02*
X143302016Y-83059950D01*
X143302016Y-83059950D02*
X143235350Y-83012331D01*
X143235350Y-83012331D02*
X143102016Y-83012331D01*
X143102016Y-83012331D02*
X143035350Y-83059950D01*
X143035350Y-83059950D02*
X143002016Y-83107569D01*
X143002016Y-83107569D02*
X142968683Y-83202807D01*
X157064649Y-102998998D02*
X156997982Y-102951379D01*
X156997982Y-102951379D02*
X156897982Y-102951379D01*
X156897982Y-102951379D02*
X156797982Y-102998998D01*
X156797982Y-102998998D02*
X156731316Y-103094236D01*
X156731316Y-103094236D02*
X156697982Y-103189474D01*
X156697982Y-103189474D02*
X156664649Y-103379950D01*
X156664649Y-103379950D02*
X156664649Y-103522807D01*
X156664649Y-103522807D02*
X156697982Y-103713283D01*
X156697982Y-103713283D02*
X156731316Y-103808521D01*
X156731316Y-103808521D02*
X156797982Y-103903760D01*
X156797982Y-103903760D02*
X156897982Y-103951379D01*
X156897982Y-103951379D02*
X156964649Y-103951379D01*
X156964649Y-103951379D02*
X157064649Y-103903760D01*
X157064649Y-103903760D02*
X157097982Y-103856140D01*
X157097982Y-103856140D02*
X157097982Y-103522807D01*
X157097982Y-103522807D02*
X156964649Y-103522807D01*
X157397982Y-103951379D02*
X157397982Y-102951379D01*
X157397982Y-102951379D02*
X157664649Y-102951379D01*
X157664649Y-102951379D02*
X157731316Y-102998998D01*
X157731316Y-102998998D02*
X157764649Y-103046617D01*
X157764649Y-103046617D02*
X157797982Y-103141855D01*
X157797982Y-103141855D02*
X157797982Y-103284712D01*
X157797982Y-103284712D02*
X157764649Y-103379950D01*
X157764649Y-103379950D02*
X157731316Y-103427569D01*
X157731316Y-103427569D02*
X157664649Y-103475188D01*
X157664649Y-103475188D02*
X157397982Y-103475188D01*
X158097982Y-103951379D02*
X158097982Y-102951379D01*
X158564649Y-102951379D02*
X158697982Y-102951379D01*
X158697982Y-102951379D02*
X158764649Y-102998998D01*
X158764649Y-102998998D02*
X158831315Y-103094236D01*
X158831315Y-103094236D02*
X158864649Y-103284712D01*
X158864649Y-103284712D02*
X158864649Y-103618045D01*
X158864649Y-103618045D02*
X158831315Y-103808521D01*
X158831315Y-103808521D02*
X158764649Y-103903760D01*
X158764649Y-103903760D02*
X158697982Y-103951379D01*
X158697982Y-103951379D02*
X158564649Y-103951379D01*
X158564649Y-103951379D02*
X158497982Y-103903760D01*
X158497982Y-103903760D02*
X158431315Y-103808521D01*
X158431315Y-103808521D02*
X158397982Y-103618045D01*
X158397982Y-103618045D02*
X158397982Y-103284712D01*
X158397982Y-103284712D02*
X158431315Y-103094236D01*
X158431315Y-103094236D02*
X158497982Y-102998998D01*
X158497982Y-102998998D02*
X158564649Y-102951379D01*
X159531315Y-103951379D02*
X159131315Y-103951379D01*
X159331315Y-103951379D02*
X159331315Y-102951379D01*
X159331315Y-102951379D02*
X159264648Y-103094236D01*
X159264648Y-103094236D02*
X159197982Y-103189474D01*
X159197982Y-103189474D02*
X159131315Y-103237093D01*
X159764649Y-102951379D02*
X160231315Y-102951379D01*
X160231315Y-102951379D02*
X159931315Y-103951379D01*
X157731316Y-100458998D02*
X157664649Y-100411379D01*
X157664649Y-100411379D02*
X157564649Y-100411379D01*
X157564649Y-100411379D02*
X157464649Y-100458998D01*
X157464649Y-100458998D02*
X157397983Y-100554236D01*
X157397983Y-100554236D02*
X157364649Y-100649474D01*
X157364649Y-100649474D02*
X157331316Y-100839950D01*
X157331316Y-100839950D02*
X157331316Y-100982807D01*
X157331316Y-100982807D02*
X157364649Y-101173283D01*
X157364649Y-101173283D02*
X157397983Y-101268521D01*
X157397983Y-101268521D02*
X157464649Y-101363760D01*
X157464649Y-101363760D02*
X157564649Y-101411379D01*
X157564649Y-101411379D02*
X157631316Y-101411379D01*
X157631316Y-101411379D02*
X157731316Y-101363760D01*
X157731316Y-101363760D02*
X157764649Y-101316140D01*
X157764649Y-101316140D02*
X157764649Y-100982807D01*
X157764649Y-100982807D02*
X157631316Y-100982807D01*
X158064649Y-101411379D02*
X158064649Y-100411379D01*
X158064649Y-100411379D02*
X158331316Y-100411379D01*
X158331316Y-100411379D02*
X158397983Y-100458998D01*
X158397983Y-100458998D02*
X158431316Y-100506617D01*
X158431316Y-100506617D02*
X158464649Y-100601855D01*
X158464649Y-100601855D02*
X158464649Y-100744712D01*
X158464649Y-100744712D02*
X158431316Y-100839950D01*
X158431316Y-100839950D02*
X158397983Y-100887569D01*
X158397983Y-100887569D02*
X158331316Y-100935188D01*
X158331316Y-100935188D02*
X158064649Y-100935188D01*
X158764649Y-101411379D02*
X158764649Y-100411379D01*
X159231316Y-100411379D02*
X159364649Y-100411379D01*
X159364649Y-100411379D02*
X159431316Y-100458998D01*
X159431316Y-100458998D02*
X159497982Y-100554236D01*
X159497982Y-100554236D02*
X159531316Y-100744712D01*
X159531316Y-100744712D02*
X159531316Y-101078045D01*
X159531316Y-101078045D02*
X159497982Y-101268521D01*
X159497982Y-101268521D02*
X159431316Y-101363760D01*
X159431316Y-101363760D02*
X159364649Y-101411379D01*
X159364649Y-101411379D02*
X159231316Y-101411379D01*
X159231316Y-101411379D02*
X159164649Y-101363760D01*
X159164649Y-101363760D02*
X159097982Y-101268521D01*
X159097982Y-101268521D02*
X159064649Y-101078045D01*
X159064649Y-101078045D02*
X159064649Y-100744712D01*
X159064649Y-100744712D02*
X159097982Y-100554236D01*
X159097982Y-100554236D02*
X159164649Y-100458998D01*
X159164649Y-100458998D02*
X159231316Y-100411379D01*
X160164649Y-100411379D02*
X159831315Y-100411379D01*
X159831315Y-100411379D02*
X159797982Y-100887569D01*
X159797982Y-100887569D02*
X159831315Y-100839950D01*
X159831315Y-100839950D02*
X159897982Y-100792331D01*
X159897982Y-100792331D02*
X160064649Y-100792331D01*
X160064649Y-100792331D02*
X160131315Y-100839950D01*
X160131315Y-100839950D02*
X160164649Y-100887569D01*
X160164649Y-100887569D02*
X160197982Y-100982807D01*
X160197982Y-100982807D02*
X160197982Y-101220902D01*
X160197982Y-101220902D02*
X160164649Y-101316140D01*
X160164649Y-101316140D02*
X160131315Y-101363760D01*
X160131315Y-101363760D02*
X160064649Y-101411379D01*
X160064649Y-101411379D02*
X159897982Y-101411379D01*
X159897982Y-101411379D02*
X159831315Y-101363760D01*
X159831315Y-101363760D02*
X159797982Y-101316140D01*
X137811541Y-77551379D02*
X138430588Y-77551379D01*
X138430588Y-77551379D02*
X138097255Y-77932331D01*
X138097255Y-77932331D02*
X138240112Y-77932331D01*
X138240112Y-77932331D02*
X138335350Y-77979950D01*
X138335350Y-77979950D02*
X138382969Y-78027569D01*
X138382969Y-78027569D02*
X138430588Y-78122807D01*
X138430588Y-78122807D02*
X138430588Y-78360902D01*
X138430588Y-78360902D02*
X138382969Y-78456140D01*
X138382969Y-78456140D02*
X138335350Y-78503760D01*
X138335350Y-78503760D02*
X138240112Y-78551379D01*
X138240112Y-78551379D02*
X137954398Y-78551379D01*
X137954398Y-78551379D02*
X137859160Y-78503760D01*
X137859160Y-78503760D02*
X137811541Y-78456140D01*
X138716303Y-77551379D02*
X139049636Y-78551379D01*
X139049636Y-78551379D02*
X139382969Y-77551379D01*
X139621065Y-77551379D02*
X140240112Y-77551379D01*
X140240112Y-77551379D02*
X139906779Y-77932331D01*
X139906779Y-77932331D02*
X140049636Y-77932331D01*
X140049636Y-77932331D02*
X140144874Y-77979950D01*
X140144874Y-77979950D02*
X140192493Y-78027569D01*
X140192493Y-78027569D02*
X140240112Y-78122807D01*
X140240112Y-78122807D02*
X140240112Y-78360902D01*
X140240112Y-78360902D02*
X140192493Y-78456140D01*
X140192493Y-78456140D02*
X140144874Y-78503760D01*
X140144874Y-78503760D02*
X140049636Y-78551379D01*
X140049636Y-78551379D02*
X139763922Y-78551379D01*
X139763922Y-78551379D02*
X139668684Y-78503760D01*
X139668684Y-78503760D02*
X139621065Y-78456140D01*
X157064649Y-97918998D02*
X156997982Y-97871379D01*
X156997982Y-97871379D02*
X156897982Y-97871379D01*
X156897982Y-97871379D02*
X156797982Y-97918998D01*
X156797982Y-97918998D02*
X156731316Y-98014236D01*
X156731316Y-98014236D02*
X156697982Y-98109474D01*
X156697982Y-98109474D02*
X156664649Y-98299950D01*
X156664649Y-98299950D02*
X156664649Y-98442807D01*
X156664649Y-98442807D02*
X156697982Y-98633283D01*
X156697982Y-98633283D02*
X156731316Y-98728521D01*
X156731316Y-98728521D02*
X156797982Y-98823760D01*
X156797982Y-98823760D02*
X156897982Y-98871379D01*
X156897982Y-98871379D02*
X156964649Y-98871379D01*
X156964649Y-98871379D02*
X157064649Y-98823760D01*
X157064649Y-98823760D02*
X157097982Y-98776140D01*
X157097982Y-98776140D02*
X157097982Y-98442807D01*
X157097982Y-98442807D02*
X156964649Y-98442807D01*
X157397982Y-98871379D02*
X157397982Y-97871379D01*
X157397982Y-97871379D02*
X157664649Y-97871379D01*
X157664649Y-97871379D02*
X157731316Y-97918998D01*
X157731316Y-97918998D02*
X157764649Y-97966617D01*
X157764649Y-97966617D02*
X157797982Y-98061855D01*
X157797982Y-98061855D02*
X157797982Y-98204712D01*
X157797982Y-98204712D02*
X157764649Y-98299950D01*
X157764649Y-98299950D02*
X157731316Y-98347569D01*
X157731316Y-98347569D02*
X157664649Y-98395188D01*
X157664649Y-98395188D02*
X157397982Y-98395188D01*
X158097982Y-98871379D02*
X158097982Y-97871379D01*
X158564649Y-97871379D02*
X158697982Y-97871379D01*
X158697982Y-97871379D02*
X158764649Y-97918998D01*
X158764649Y-97918998D02*
X158831315Y-98014236D01*
X158831315Y-98014236D02*
X158864649Y-98204712D01*
X158864649Y-98204712D02*
X158864649Y-98538045D01*
X158864649Y-98538045D02*
X158831315Y-98728521D01*
X158831315Y-98728521D02*
X158764649Y-98823760D01*
X158764649Y-98823760D02*
X158697982Y-98871379D01*
X158697982Y-98871379D02*
X158564649Y-98871379D01*
X158564649Y-98871379D02*
X158497982Y-98823760D01*
X158497982Y-98823760D02*
X158431315Y-98728521D01*
X158431315Y-98728521D02*
X158397982Y-98538045D01*
X158397982Y-98538045D02*
X158397982Y-98204712D01*
X158397982Y-98204712D02*
X158431315Y-98014236D01*
X158431315Y-98014236D02*
X158497982Y-97918998D01*
X158497982Y-97918998D02*
X158564649Y-97871379D01*
X159531315Y-98871379D02*
X159131315Y-98871379D01*
X159331315Y-98871379D02*
X159331315Y-97871379D01*
X159331315Y-97871379D02*
X159264648Y-98014236D01*
X159264648Y-98014236D02*
X159197982Y-98109474D01*
X159197982Y-98109474D02*
X159131315Y-98157093D01*
X159931315Y-98299950D02*
X159864649Y-98252331D01*
X159864649Y-98252331D02*
X159831315Y-98204712D01*
X159831315Y-98204712D02*
X159797982Y-98109474D01*
X159797982Y-98109474D02*
X159797982Y-98061855D01*
X159797982Y-98061855D02*
X159831315Y-97966617D01*
X159831315Y-97966617D02*
X159864649Y-97918998D01*
X159864649Y-97918998D02*
X159931315Y-97871379D01*
X159931315Y-97871379D02*
X160064649Y-97871379D01*
X160064649Y-97871379D02*
X160131315Y-97918998D01*
X160131315Y-97918998D02*
X160164649Y-97966617D01*
X160164649Y-97966617D02*
X160197982Y-98061855D01*
X160197982Y-98061855D02*
X160197982Y-98109474D01*
X160197982Y-98109474D02*
X160164649Y-98204712D01*
X160164649Y-98204712D02*
X160131315Y-98252331D01*
X160131315Y-98252331D02*
X160064649Y-98299950D01*
X160064649Y-98299950D02*
X159931315Y-98299950D01*
X159931315Y-98299950D02*
X159864649Y-98347569D01*
X159864649Y-98347569D02*
X159831315Y-98395188D01*
X159831315Y-98395188D02*
X159797982Y-98490426D01*
X159797982Y-98490426D02*
X159797982Y-98680902D01*
X159797982Y-98680902D02*
X159831315Y-98776140D01*
X159831315Y-98776140D02*
X159864649Y-98823760D01*
X159864649Y-98823760D02*
X159931315Y-98871379D01*
X159931315Y-98871379D02*
X160064649Y-98871379D01*
X160064649Y-98871379D02*
X160131315Y-98823760D01*
X160131315Y-98823760D02*
X160164649Y-98776140D01*
X160164649Y-98776140D02*
X160197982Y-98680902D01*
X160197982Y-98680902D02*
X160197982Y-98490426D01*
X160197982Y-98490426D02*
X160164649Y-98395188D01*
X160164649Y-98395188D02*
X160131315Y-98347569D01*
X160131315Y-98347569D02*
X160064649Y-98299950D01*
X138202017Y-97918998D02*
X138135350Y-97871379D01*
X138135350Y-97871379D02*
X138035350Y-97871379D01*
X138035350Y-97871379D02*
X137935350Y-97918998D01*
X137935350Y-97918998D02*
X137868684Y-98014236D01*
X137868684Y-98014236D02*
X137835350Y-98109474D01*
X137835350Y-98109474D02*
X137802017Y-98299950D01*
X137802017Y-98299950D02*
X137802017Y-98442807D01*
X137802017Y-98442807D02*
X137835350Y-98633283D01*
X137835350Y-98633283D02*
X137868684Y-98728521D01*
X137868684Y-98728521D02*
X137935350Y-98823760D01*
X137935350Y-98823760D02*
X138035350Y-98871379D01*
X138035350Y-98871379D02*
X138102017Y-98871379D01*
X138102017Y-98871379D02*
X138202017Y-98823760D01*
X138202017Y-98823760D02*
X138235350Y-98776140D01*
X138235350Y-98776140D02*
X138235350Y-98442807D01*
X138235350Y-98442807D02*
X138102017Y-98442807D01*
X138535350Y-98871379D02*
X138535350Y-97871379D01*
X138535350Y-97871379D02*
X138802017Y-97871379D01*
X138802017Y-97871379D02*
X138868684Y-97918998D01*
X138868684Y-97918998D02*
X138902017Y-97966617D01*
X138902017Y-97966617D02*
X138935350Y-98061855D01*
X138935350Y-98061855D02*
X138935350Y-98204712D01*
X138935350Y-98204712D02*
X138902017Y-98299950D01*
X138902017Y-98299950D02*
X138868684Y-98347569D01*
X138868684Y-98347569D02*
X138802017Y-98395188D01*
X138802017Y-98395188D02*
X138535350Y-98395188D01*
X139235350Y-98871379D02*
X139235350Y-97871379D01*
X139702017Y-97871379D02*
X139835350Y-97871379D01*
X139835350Y-97871379D02*
X139902017Y-97918998D01*
X139902017Y-97918998D02*
X139968683Y-98014236D01*
X139968683Y-98014236D02*
X140002017Y-98204712D01*
X140002017Y-98204712D02*
X140002017Y-98538045D01*
X140002017Y-98538045D02*
X139968683Y-98728521D01*
X139968683Y-98728521D02*
X139902017Y-98823760D01*
X139902017Y-98823760D02*
X139835350Y-98871379D01*
X139835350Y-98871379D02*
X139702017Y-98871379D01*
X139702017Y-98871379D02*
X139635350Y-98823760D01*
X139635350Y-98823760D02*
X139568683Y-98728521D01*
X139568683Y-98728521D02*
X139535350Y-98538045D01*
X139535350Y-98538045D02*
X139535350Y-98204712D01*
X139535350Y-98204712D02*
X139568683Y-98014236D01*
X139568683Y-98014236D02*
X139635350Y-97918998D01*
X139635350Y-97918998D02*
X139702017Y-97871379D01*
X140268683Y-97966617D02*
X140302016Y-97918998D01*
X140302016Y-97918998D02*
X140368683Y-97871379D01*
X140368683Y-97871379D02*
X140535350Y-97871379D01*
X140535350Y-97871379D02*
X140602016Y-97918998D01*
X140602016Y-97918998D02*
X140635350Y-97966617D01*
X140635350Y-97966617D02*
X140668683Y-98061855D01*
X140668683Y-98061855D02*
X140668683Y-98157093D01*
X140668683Y-98157093D02*
X140635350Y-98299950D01*
X140635350Y-98299950D02*
X140235350Y-98871379D01*
X140235350Y-98871379D02*
X140668683Y-98871379D01*
X141302017Y-97871379D02*
X140968683Y-97871379D01*
X140968683Y-97871379D02*
X140935350Y-98347569D01*
X140935350Y-98347569D02*
X140968683Y-98299950D01*
X140968683Y-98299950D02*
X141035350Y-98252331D01*
X141035350Y-98252331D02*
X141202017Y-98252331D01*
X141202017Y-98252331D02*
X141268683Y-98299950D01*
X141268683Y-98299950D02*
X141302017Y-98347569D01*
X141302017Y-98347569D02*
X141335350Y-98442807D01*
X141335350Y-98442807D02*
X141335350Y-98680902D01*
X141335350Y-98680902D02*
X141302017Y-98776140D01*
X141302017Y-98776140D02*
X141268683Y-98823760D01*
X141268683Y-98823760D02*
X141202017Y-98871379D01*
X141202017Y-98871379D02*
X141035350Y-98871379D01*
X141035350Y-98871379D02*
X140968683Y-98823760D01*
X140968683Y-98823760D02*
X140935350Y-98776140D01*
X137735350Y-85171379D02*
X137968684Y-86171379D01*
X137968684Y-86171379D02*
X138202017Y-85171379D01*
X138435350Y-86171379D02*
X138435350Y-85171379D01*
X138435350Y-85171379D02*
X138835350Y-86171379D01*
X138835350Y-86171379D02*
X138835350Y-85171379D01*
X139668683Y-85123760D02*
X139068683Y-86409474D01*
X140268683Y-85218998D02*
X140202016Y-85171379D01*
X140202016Y-85171379D02*
X140102016Y-85171379D01*
X140102016Y-85171379D02*
X140002016Y-85218998D01*
X140002016Y-85218998D02*
X139935350Y-85314236D01*
X139935350Y-85314236D02*
X139902016Y-85409474D01*
X139902016Y-85409474D02*
X139868683Y-85599950D01*
X139868683Y-85599950D02*
X139868683Y-85742807D01*
X139868683Y-85742807D02*
X139902016Y-85933283D01*
X139902016Y-85933283D02*
X139935350Y-86028521D01*
X139935350Y-86028521D02*
X140002016Y-86123760D01*
X140002016Y-86123760D02*
X140102016Y-86171379D01*
X140102016Y-86171379D02*
X140168683Y-86171379D01*
X140168683Y-86171379D02*
X140268683Y-86123760D01*
X140268683Y-86123760D02*
X140302016Y-86076140D01*
X140302016Y-86076140D02*
X140302016Y-85742807D01*
X140302016Y-85742807D02*
X140168683Y-85742807D01*
X140602016Y-86171379D02*
X140602016Y-85171379D01*
X140602016Y-85171379D02*
X140868683Y-85171379D01*
X140868683Y-85171379D02*
X140935350Y-85218998D01*
X140935350Y-85218998D02*
X140968683Y-85266617D01*
X140968683Y-85266617D02*
X141002016Y-85361855D01*
X141002016Y-85361855D02*
X141002016Y-85504712D01*
X141002016Y-85504712D02*
X140968683Y-85599950D01*
X140968683Y-85599950D02*
X140935350Y-85647569D01*
X140935350Y-85647569D02*
X140868683Y-85695188D01*
X140868683Y-85695188D02*
X140602016Y-85695188D01*
X141302016Y-86171379D02*
X141302016Y-85171379D01*
X141768683Y-85171379D02*
X141902016Y-85171379D01*
X141902016Y-85171379D02*
X141968683Y-85218998D01*
X141968683Y-85218998D02*
X142035349Y-85314236D01*
X142035349Y-85314236D02*
X142068683Y-85504712D01*
X142068683Y-85504712D02*
X142068683Y-85838045D01*
X142068683Y-85838045D02*
X142035349Y-86028521D01*
X142035349Y-86028521D02*
X141968683Y-86123760D01*
X141968683Y-86123760D02*
X141902016Y-86171379D01*
X141902016Y-86171379D02*
X141768683Y-86171379D01*
X141768683Y-86171379D02*
X141702016Y-86123760D01*
X141702016Y-86123760D02*
X141635349Y-86028521D01*
X141635349Y-86028521D02*
X141602016Y-85838045D01*
X141602016Y-85838045D02*
X141602016Y-85504712D01*
X141602016Y-85504712D02*
X141635349Y-85314236D01*
X141635349Y-85314236D02*
X141702016Y-85218998D01*
X141702016Y-85218998D02*
X141768683Y-85171379D01*
X142302016Y-85171379D02*
X142735349Y-85171379D01*
X142735349Y-85171379D02*
X142502016Y-85552331D01*
X142502016Y-85552331D02*
X142602016Y-85552331D01*
X142602016Y-85552331D02*
X142668682Y-85599950D01*
X142668682Y-85599950D02*
X142702016Y-85647569D01*
X142702016Y-85647569D02*
X142735349Y-85742807D01*
X142735349Y-85742807D02*
X142735349Y-85980902D01*
X142735349Y-85980902D02*
X142702016Y-86076140D01*
X142702016Y-86076140D02*
X142668682Y-86123760D01*
X142668682Y-86123760D02*
X142602016Y-86171379D01*
X142602016Y-86171379D02*
X142402016Y-86171379D01*
X142402016Y-86171379D02*
X142335349Y-86123760D01*
X142335349Y-86123760D02*
X142302016Y-86076140D01*
X143068683Y-86171379D02*
X143202016Y-86171379D01*
X143202016Y-86171379D02*
X143268683Y-86123760D01*
X143268683Y-86123760D02*
X143302016Y-86076140D01*
X143302016Y-86076140D02*
X143368683Y-85933283D01*
X143368683Y-85933283D02*
X143402016Y-85742807D01*
X143402016Y-85742807D02*
X143402016Y-85361855D01*
X143402016Y-85361855D02*
X143368683Y-85266617D01*
X143368683Y-85266617D02*
X143335349Y-85218998D01*
X143335349Y-85218998D02*
X143268683Y-85171379D01*
X143268683Y-85171379D02*
X143135349Y-85171379D01*
X143135349Y-85171379D02*
X143068683Y-85218998D01*
X143068683Y-85218998D02*
X143035349Y-85266617D01*
X143035349Y-85266617D02*
X143002016Y-85361855D01*
X143002016Y-85361855D02*
X143002016Y-85599950D01*
X143002016Y-85599950D02*
X143035349Y-85695188D01*
X143035349Y-85695188D02*
X143068683Y-85742807D01*
X143068683Y-85742807D02*
X143135349Y-85790426D01*
X143135349Y-85790426D02*
X143268683Y-85790426D01*
X143268683Y-85790426D02*
X143335349Y-85742807D01*
X143335349Y-85742807D02*
X143368683Y-85695188D01*
X143368683Y-85695188D02*
X143402016Y-85599950D01*
X138202017Y-105538998D02*
X138135350Y-105491379D01*
X138135350Y-105491379D02*
X138035350Y-105491379D01*
X138035350Y-105491379D02*
X137935350Y-105538998D01*
X137935350Y-105538998D02*
X137868684Y-105634236D01*
X137868684Y-105634236D02*
X137835350Y-105729474D01*
X137835350Y-105729474D02*
X137802017Y-105919950D01*
X137802017Y-105919950D02*
X137802017Y-106062807D01*
X137802017Y-106062807D02*
X137835350Y-106253283D01*
X137835350Y-106253283D02*
X137868684Y-106348521D01*
X137868684Y-106348521D02*
X137935350Y-106443760D01*
X137935350Y-106443760D02*
X138035350Y-106491379D01*
X138035350Y-106491379D02*
X138102017Y-106491379D01*
X138102017Y-106491379D02*
X138202017Y-106443760D01*
X138202017Y-106443760D02*
X138235350Y-106396140D01*
X138235350Y-106396140D02*
X138235350Y-106062807D01*
X138235350Y-106062807D02*
X138102017Y-106062807D01*
X138535350Y-106491379D02*
X138535350Y-105491379D01*
X138535350Y-105491379D02*
X138802017Y-105491379D01*
X138802017Y-105491379D02*
X138868684Y-105538998D01*
X138868684Y-105538998D02*
X138902017Y-105586617D01*
X138902017Y-105586617D02*
X138935350Y-105681855D01*
X138935350Y-105681855D02*
X138935350Y-105824712D01*
X138935350Y-105824712D02*
X138902017Y-105919950D01*
X138902017Y-105919950D02*
X138868684Y-105967569D01*
X138868684Y-105967569D02*
X138802017Y-106015188D01*
X138802017Y-106015188D02*
X138535350Y-106015188D01*
X139235350Y-106491379D02*
X139235350Y-105491379D01*
X139702017Y-105491379D02*
X139835350Y-105491379D01*
X139835350Y-105491379D02*
X139902017Y-105538998D01*
X139902017Y-105538998D02*
X139968683Y-105634236D01*
X139968683Y-105634236D02*
X140002017Y-105824712D01*
X140002017Y-105824712D02*
X140002017Y-106158045D01*
X140002017Y-106158045D02*
X139968683Y-106348521D01*
X139968683Y-106348521D02*
X139902017Y-106443760D01*
X139902017Y-106443760D02*
X139835350Y-106491379D01*
X139835350Y-106491379D02*
X139702017Y-106491379D01*
X139702017Y-106491379D02*
X139635350Y-106443760D01*
X139635350Y-106443760D02*
X139568683Y-106348521D01*
X139568683Y-106348521D02*
X139535350Y-106158045D01*
X139535350Y-106158045D02*
X139535350Y-105824712D01*
X139535350Y-105824712D02*
X139568683Y-105634236D01*
X139568683Y-105634236D02*
X139635350Y-105538998D01*
X139635350Y-105538998D02*
X139702017Y-105491379D01*
X140668683Y-106491379D02*
X140268683Y-106491379D01*
X140468683Y-106491379D02*
X140468683Y-105491379D01*
X140468683Y-105491379D02*
X140402016Y-105634236D01*
X140402016Y-105634236D02*
X140335350Y-105729474D01*
X140335350Y-105729474D02*
X140268683Y-105777093D01*
X141268683Y-105824712D02*
X141268683Y-106491379D01*
X141102017Y-105443760D02*
X140935350Y-106158045D01*
X140935350Y-106158045D02*
X141368683Y-106158045D01*
X142135350Y-105443760D02*
X141535350Y-106729474D01*
X142368683Y-106491379D02*
X142368683Y-105491379D01*
X142368683Y-105491379D02*
X142602017Y-106205664D01*
X142602017Y-106205664D02*
X142835350Y-105491379D01*
X142835350Y-105491379D02*
X142835350Y-106491379D01*
X143068683Y-105491379D02*
X143468683Y-105491379D01*
X143268683Y-106491379D02*
X143268683Y-105491379D01*
X143702016Y-106491379D02*
X143702016Y-105491379D01*
X143702016Y-105491379D02*
X143935350Y-106205664D01*
X143935350Y-106205664D02*
X144168683Y-105491379D01*
X144168683Y-105491379D02*
X144168683Y-106491379D01*
X144468683Y-106443760D02*
X144568683Y-106491379D01*
X144568683Y-106491379D02*
X144735350Y-106491379D01*
X144735350Y-106491379D02*
X144802016Y-106443760D01*
X144802016Y-106443760D02*
X144835350Y-106396140D01*
X144835350Y-106396140D02*
X144868683Y-106300902D01*
X144868683Y-106300902D02*
X144868683Y-106205664D01*
X144868683Y-106205664D02*
X144835350Y-106110426D01*
X144835350Y-106110426D02*
X144802016Y-106062807D01*
X144802016Y-106062807D02*
X144735350Y-106015188D01*
X144735350Y-106015188D02*
X144602016Y-105967569D01*
X144602016Y-105967569D02*
X144535350Y-105919950D01*
X144535350Y-105919950D02*
X144502016Y-105872331D01*
X144502016Y-105872331D02*
X144468683Y-105777093D01*
X144468683Y-105777093D02*
X144468683Y-105681855D01*
X144468683Y-105681855D02*
X144502016Y-105586617D01*
X144502016Y-105586617D02*
X144535350Y-105538998D01*
X144535350Y-105538998D02*
X144602016Y-105491379D01*
X144602016Y-105491379D02*
X144768683Y-105491379D01*
X144768683Y-105491379D02*
X144868683Y-105538998D01*
X137835350Y-116651379D02*
X137835350Y-115651379D01*
X137835350Y-115651379D02*
X138002017Y-115651379D01*
X138002017Y-115651379D02*
X138102017Y-115698998D01*
X138102017Y-115698998D02*
X138168684Y-115794236D01*
X138168684Y-115794236D02*
X138202017Y-115889474D01*
X138202017Y-115889474D02*
X138235350Y-116079950D01*
X138235350Y-116079950D02*
X138235350Y-116222807D01*
X138235350Y-116222807D02*
X138202017Y-116413283D01*
X138202017Y-116413283D02*
X138168684Y-116508521D01*
X138168684Y-116508521D02*
X138102017Y-116603760D01*
X138102017Y-116603760D02*
X138002017Y-116651379D01*
X138002017Y-116651379D02*
X137835350Y-116651379D01*
X138502017Y-115746617D02*
X138535350Y-115698998D01*
X138535350Y-115698998D02*
X138602017Y-115651379D01*
X138602017Y-115651379D02*
X138768684Y-115651379D01*
X138768684Y-115651379D02*
X138835350Y-115698998D01*
X138835350Y-115698998D02*
X138868684Y-115746617D01*
X138868684Y-115746617D02*
X138902017Y-115841855D01*
X138902017Y-115841855D02*
X138902017Y-115937093D01*
X138902017Y-115937093D02*
X138868684Y-116079950D01*
X138868684Y-116079950D02*
X138468684Y-116651379D01*
X138468684Y-116651379D02*
X138902017Y-116651379D01*
X153531316Y-87758998D02*
X153464649Y-87711379D01*
X153464649Y-87711379D02*
X153364649Y-87711379D01*
X153364649Y-87711379D02*
X153264649Y-87758998D01*
X153264649Y-87758998D02*
X153197983Y-87854236D01*
X153197983Y-87854236D02*
X153164649Y-87949474D01*
X153164649Y-87949474D02*
X153131316Y-88139950D01*
X153131316Y-88139950D02*
X153131316Y-88282807D01*
X153131316Y-88282807D02*
X153164649Y-88473283D01*
X153164649Y-88473283D02*
X153197983Y-88568521D01*
X153197983Y-88568521D02*
X153264649Y-88663760D01*
X153264649Y-88663760D02*
X153364649Y-88711379D01*
X153364649Y-88711379D02*
X153431316Y-88711379D01*
X153431316Y-88711379D02*
X153531316Y-88663760D01*
X153531316Y-88663760D02*
X153564649Y-88616140D01*
X153564649Y-88616140D02*
X153564649Y-88282807D01*
X153564649Y-88282807D02*
X153431316Y-88282807D01*
X153864649Y-88711379D02*
X153864649Y-87711379D01*
X153864649Y-87711379D02*
X154131316Y-87711379D01*
X154131316Y-87711379D02*
X154197983Y-87758998D01*
X154197983Y-87758998D02*
X154231316Y-87806617D01*
X154231316Y-87806617D02*
X154264649Y-87901855D01*
X154264649Y-87901855D02*
X154264649Y-88044712D01*
X154264649Y-88044712D02*
X154231316Y-88139950D01*
X154231316Y-88139950D02*
X154197983Y-88187569D01*
X154197983Y-88187569D02*
X154131316Y-88235188D01*
X154131316Y-88235188D02*
X153864649Y-88235188D01*
X154564649Y-88711379D02*
X154564649Y-87711379D01*
X155031316Y-87711379D02*
X155164649Y-87711379D01*
X155164649Y-87711379D02*
X155231316Y-87758998D01*
X155231316Y-87758998D02*
X155297982Y-87854236D01*
X155297982Y-87854236D02*
X155331316Y-88044712D01*
X155331316Y-88044712D02*
X155331316Y-88378045D01*
X155331316Y-88378045D02*
X155297982Y-88568521D01*
X155297982Y-88568521D02*
X155231316Y-88663760D01*
X155231316Y-88663760D02*
X155164649Y-88711379D01*
X155164649Y-88711379D02*
X155031316Y-88711379D01*
X155031316Y-88711379D02*
X154964649Y-88663760D01*
X154964649Y-88663760D02*
X154897982Y-88568521D01*
X154897982Y-88568521D02*
X154864649Y-88378045D01*
X154864649Y-88378045D02*
X154864649Y-88044712D01*
X154864649Y-88044712D02*
X154897982Y-87854236D01*
X154897982Y-87854236D02*
X154964649Y-87758998D01*
X154964649Y-87758998D02*
X155031316Y-87711379D01*
X155564649Y-87711379D02*
X155997982Y-87711379D01*
X155997982Y-87711379D02*
X155764649Y-88092331D01*
X155764649Y-88092331D02*
X155864649Y-88092331D01*
X155864649Y-88092331D02*
X155931315Y-88139950D01*
X155931315Y-88139950D02*
X155964649Y-88187569D01*
X155964649Y-88187569D02*
X155997982Y-88282807D01*
X155997982Y-88282807D02*
X155997982Y-88520902D01*
X155997982Y-88520902D02*
X155964649Y-88616140D01*
X155964649Y-88616140D02*
X155931315Y-88663760D01*
X155931315Y-88663760D02*
X155864649Y-88711379D01*
X155864649Y-88711379D02*
X155664649Y-88711379D01*
X155664649Y-88711379D02*
X155597982Y-88663760D01*
X155597982Y-88663760D02*
X155564649Y-88616140D01*
X156797982Y-87663760D02*
X156197982Y-88949474D01*
X157031315Y-87711379D02*
X157031315Y-88520902D01*
X157031315Y-88520902D02*
X157064649Y-88616140D01*
X157064649Y-88616140D02*
X157097982Y-88663760D01*
X157097982Y-88663760D02*
X157164649Y-88711379D01*
X157164649Y-88711379D02*
X157297982Y-88711379D01*
X157297982Y-88711379D02*
X157364649Y-88663760D01*
X157364649Y-88663760D02*
X157397982Y-88616140D01*
X157397982Y-88616140D02*
X157431315Y-88520902D01*
X157431315Y-88520902D02*
X157431315Y-87711379D01*
X157897982Y-87711379D02*
X157964648Y-87711379D01*
X157964648Y-87711379D02*
X158031315Y-87758998D01*
X158031315Y-87758998D02*
X158064648Y-87806617D01*
X158064648Y-87806617D02*
X158097982Y-87901855D01*
X158097982Y-87901855D02*
X158131315Y-88092331D01*
X158131315Y-88092331D02*
X158131315Y-88330426D01*
X158131315Y-88330426D02*
X158097982Y-88520902D01*
X158097982Y-88520902D02*
X158064648Y-88616140D01*
X158064648Y-88616140D02*
X158031315Y-88663760D01*
X158031315Y-88663760D02*
X157964648Y-88711379D01*
X157964648Y-88711379D02*
X157897982Y-88711379D01*
X157897982Y-88711379D02*
X157831315Y-88663760D01*
X157831315Y-88663760D02*
X157797982Y-88616140D01*
X157797982Y-88616140D02*
X157764648Y-88520902D01*
X157764648Y-88520902D02*
X157731315Y-88330426D01*
X157731315Y-88330426D02*
X157731315Y-88092331D01*
X157731315Y-88092331D02*
X157764648Y-87901855D01*
X157764648Y-87901855D02*
X157797982Y-87806617D01*
X157797982Y-87806617D02*
X157831315Y-87758998D01*
X157831315Y-87758998D02*
X157897982Y-87711379D01*
X158831315Y-88711379D02*
X158597982Y-88235188D01*
X158431315Y-88711379D02*
X158431315Y-87711379D01*
X158431315Y-87711379D02*
X158697982Y-87711379D01*
X158697982Y-87711379D02*
X158764649Y-87758998D01*
X158764649Y-87758998D02*
X158797982Y-87806617D01*
X158797982Y-87806617D02*
X158831315Y-87901855D01*
X158831315Y-87901855D02*
X158831315Y-88044712D01*
X158831315Y-88044712D02*
X158797982Y-88139950D01*
X158797982Y-88139950D02*
X158764649Y-88187569D01*
X158764649Y-88187569D02*
X158697982Y-88235188D01*
X158697982Y-88235188D02*
X158431315Y-88235188D01*
X159064649Y-87711379D02*
X159531315Y-88711379D01*
X159531315Y-87711379D02*
X159064649Y-88711379D01*
X159797982Y-88711379D02*
X159797982Y-87711379D01*
X159797982Y-87711379D02*
X159964649Y-87711379D01*
X159964649Y-87711379D02*
X160064649Y-87758998D01*
X160064649Y-87758998D02*
X160131316Y-87854236D01*
X160131316Y-87854236D02*
X160164649Y-87949474D01*
X160164649Y-87949474D02*
X160197982Y-88139950D01*
X160197982Y-88139950D02*
X160197982Y-88282807D01*
X160197982Y-88282807D02*
X160164649Y-88473283D01*
X160164649Y-88473283D02*
X160131316Y-88568521D01*
X160131316Y-88568521D02*
X160064649Y-88663760D01*
X160064649Y-88663760D02*
X159964649Y-88711379D01*
X159964649Y-88711379D02*
X159797982Y-88711379D01*
X138379289Y-123522659D02*
X137903099Y-123522659D01*
X137903099Y-123522659D02*
X137855480Y-123998849D01*
X137855480Y-123998849D02*
X137903099Y-123951230D01*
X137903099Y-123951230D02*
X137998337Y-123903611D01*
X137998337Y-123903611D02*
X138236432Y-123903611D01*
X138236432Y-123903611D02*
X138331670Y-123951230D01*
X138331670Y-123951230D02*
X138379289Y-123998849D01*
X138379289Y-123998849D02*
X138426908Y-124094087D01*
X138426908Y-124094087D02*
X138426908Y-124332182D01*
X138426908Y-124332182D02*
X138379289Y-124427420D01*
X138379289Y-124427420D02*
X138331670Y-124475040D01*
X138331670Y-124475040D02*
X138236432Y-124522659D01*
X138236432Y-124522659D02*
X137998337Y-124522659D01*
X137998337Y-124522659D02*
X137903099Y-124475040D01*
X137903099Y-124475040D02*
X137855480Y-124427420D01*
X138712623Y-123522659D02*
X139045956Y-124522659D01*
X139045956Y-124522659D02*
X139379289Y-123522659D01*
X138202017Y-90298998D02*
X138135350Y-90251379D01*
X138135350Y-90251379D02*
X138035350Y-90251379D01*
X138035350Y-90251379D02*
X137935350Y-90298998D01*
X137935350Y-90298998D02*
X137868684Y-90394236D01*
X137868684Y-90394236D02*
X137835350Y-90489474D01*
X137835350Y-90489474D02*
X137802017Y-90679950D01*
X137802017Y-90679950D02*
X137802017Y-90822807D01*
X137802017Y-90822807D02*
X137835350Y-91013283D01*
X137835350Y-91013283D02*
X137868684Y-91108521D01*
X137868684Y-91108521D02*
X137935350Y-91203760D01*
X137935350Y-91203760D02*
X138035350Y-91251379D01*
X138035350Y-91251379D02*
X138102017Y-91251379D01*
X138102017Y-91251379D02*
X138202017Y-91203760D01*
X138202017Y-91203760D02*
X138235350Y-91156140D01*
X138235350Y-91156140D02*
X138235350Y-90822807D01*
X138235350Y-90822807D02*
X138102017Y-90822807D01*
X138535350Y-91251379D02*
X138535350Y-90251379D01*
X138535350Y-90251379D02*
X138802017Y-90251379D01*
X138802017Y-90251379D02*
X138868684Y-90298998D01*
X138868684Y-90298998D02*
X138902017Y-90346617D01*
X138902017Y-90346617D02*
X138935350Y-90441855D01*
X138935350Y-90441855D02*
X138935350Y-90584712D01*
X138935350Y-90584712D02*
X138902017Y-90679950D01*
X138902017Y-90679950D02*
X138868684Y-90727569D01*
X138868684Y-90727569D02*
X138802017Y-90775188D01*
X138802017Y-90775188D02*
X138535350Y-90775188D01*
X139235350Y-91251379D02*
X139235350Y-90251379D01*
X139702017Y-90251379D02*
X139835350Y-90251379D01*
X139835350Y-90251379D02*
X139902017Y-90298998D01*
X139902017Y-90298998D02*
X139968683Y-90394236D01*
X139968683Y-90394236D02*
X140002017Y-90584712D01*
X140002017Y-90584712D02*
X140002017Y-90918045D01*
X140002017Y-90918045D02*
X139968683Y-91108521D01*
X139968683Y-91108521D02*
X139902017Y-91203760D01*
X139902017Y-91203760D02*
X139835350Y-91251379D01*
X139835350Y-91251379D02*
X139702017Y-91251379D01*
X139702017Y-91251379D02*
X139635350Y-91203760D01*
X139635350Y-91203760D02*
X139568683Y-91108521D01*
X139568683Y-91108521D02*
X139535350Y-90918045D01*
X139535350Y-90918045D02*
X139535350Y-90584712D01*
X139535350Y-90584712D02*
X139568683Y-90394236D01*
X139568683Y-90394236D02*
X139635350Y-90298998D01*
X139635350Y-90298998D02*
X139702017Y-90251379D01*
X140235350Y-90251379D02*
X140668683Y-90251379D01*
X140668683Y-90251379D02*
X140435350Y-90632331D01*
X140435350Y-90632331D02*
X140535350Y-90632331D01*
X140535350Y-90632331D02*
X140602016Y-90679950D01*
X140602016Y-90679950D02*
X140635350Y-90727569D01*
X140635350Y-90727569D02*
X140668683Y-90822807D01*
X140668683Y-90822807D02*
X140668683Y-91060902D01*
X140668683Y-91060902D02*
X140635350Y-91156140D01*
X140635350Y-91156140D02*
X140602016Y-91203760D01*
X140602016Y-91203760D02*
X140535350Y-91251379D01*
X140535350Y-91251379D02*
X140335350Y-91251379D01*
X140335350Y-91251379D02*
X140268683Y-91203760D01*
X140268683Y-91203760D02*
X140235350Y-91156140D01*
X141302017Y-90251379D02*
X140968683Y-90251379D01*
X140968683Y-90251379D02*
X140935350Y-90727569D01*
X140935350Y-90727569D02*
X140968683Y-90679950D01*
X140968683Y-90679950D02*
X141035350Y-90632331D01*
X141035350Y-90632331D02*
X141202017Y-90632331D01*
X141202017Y-90632331D02*
X141268683Y-90679950D01*
X141268683Y-90679950D02*
X141302017Y-90727569D01*
X141302017Y-90727569D02*
X141335350Y-90822807D01*
X141335350Y-90822807D02*
X141335350Y-91060902D01*
X141335350Y-91060902D02*
X141302017Y-91156140D01*
X141302017Y-91156140D02*
X141268683Y-91203760D01*
X141268683Y-91203760D02*
X141202017Y-91251379D01*
X141202017Y-91251379D02*
X141035350Y-91251379D01*
X141035350Y-91251379D02*
X140968683Y-91203760D01*
X140968683Y-91203760D02*
X140935350Y-91156140D01*
X138202017Y-113158998D02*
X138135350Y-113111379D01*
X138135350Y-113111379D02*
X138035350Y-113111379D01*
X138035350Y-113111379D02*
X137935350Y-113158998D01*
X137935350Y-113158998D02*
X137868684Y-113254236D01*
X137868684Y-113254236D02*
X137835350Y-113349474D01*
X137835350Y-113349474D02*
X137802017Y-113539950D01*
X137802017Y-113539950D02*
X137802017Y-113682807D01*
X137802017Y-113682807D02*
X137835350Y-113873283D01*
X137835350Y-113873283D02*
X137868684Y-113968521D01*
X137868684Y-113968521D02*
X137935350Y-114063760D01*
X137935350Y-114063760D02*
X138035350Y-114111379D01*
X138035350Y-114111379D02*
X138102017Y-114111379D01*
X138102017Y-114111379D02*
X138202017Y-114063760D01*
X138202017Y-114063760D02*
X138235350Y-114016140D01*
X138235350Y-114016140D02*
X138235350Y-113682807D01*
X138235350Y-113682807D02*
X138102017Y-113682807D01*
X138535350Y-114111379D02*
X138535350Y-113111379D01*
X138535350Y-113111379D02*
X138802017Y-113111379D01*
X138802017Y-113111379D02*
X138868684Y-113158998D01*
X138868684Y-113158998D02*
X138902017Y-113206617D01*
X138902017Y-113206617D02*
X138935350Y-113301855D01*
X138935350Y-113301855D02*
X138935350Y-113444712D01*
X138935350Y-113444712D02*
X138902017Y-113539950D01*
X138902017Y-113539950D02*
X138868684Y-113587569D01*
X138868684Y-113587569D02*
X138802017Y-113635188D01*
X138802017Y-113635188D02*
X138535350Y-113635188D01*
X139235350Y-114111379D02*
X139235350Y-113111379D01*
X139702017Y-113111379D02*
X139835350Y-113111379D01*
X139835350Y-113111379D02*
X139902017Y-113158998D01*
X139902017Y-113158998D02*
X139968683Y-113254236D01*
X139968683Y-113254236D02*
X140002017Y-113444712D01*
X140002017Y-113444712D02*
X140002017Y-113778045D01*
X140002017Y-113778045D02*
X139968683Y-113968521D01*
X139968683Y-113968521D02*
X139902017Y-114063760D01*
X139902017Y-114063760D02*
X139835350Y-114111379D01*
X139835350Y-114111379D02*
X139702017Y-114111379D01*
X139702017Y-114111379D02*
X139635350Y-114063760D01*
X139635350Y-114063760D02*
X139568683Y-113968521D01*
X139568683Y-113968521D02*
X139535350Y-113778045D01*
X139535350Y-113778045D02*
X139535350Y-113444712D01*
X139535350Y-113444712D02*
X139568683Y-113254236D01*
X139568683Y-113254236D02*
X139635350Y-113158998D01*
X139635350Y-113158998D02*
X139702017Y-113111379D01*
X140668683Y-114111379D02*
X140268683Y-114111379D01*
X140468683Y-114111379D02*
X140468683Y-113111379D01*
X140468683Y-113111379D02*
X140402016Y-113254236D01*
X140402016Y-113254236D02*
X140335350Y-113349474D01*
X140335350Y-113349474D02*
X140268683Y-113397093D01*
X140902017Y-113111379D02*
X141335350Y-113111379D01*
X141335350Y-113111379D02*
X141102017Y-113492331D01*
X141102017Y-113492331D02*
X141202017Y-113492331D01*
X141202017Y-113492331D02*
X141268683Y-113539950D01*
X141268683Y-113539950D02*
X141302017Y-113587569D01*
X141302017Y-113587569D02*
X141335350Y-113682807D01*
X141335350Y-113682807D02*
X141335350Y-113920902D01*
X141335350Y-113920902D02*
X141302017Y-114016140D01*
X141302017Y-114016140D02*
X141268683Y-114063760D01*
X141268683Y-114063760D02*
X141202017Y-114111379D01*
X141202017Y-114111379D02*
X141002017Y-114111379D01*
X141002017Y-114111379D02*
X140935350Y-114063760D01*
X140935350Y-114063760D02*
X140902017Y-114016140D01*
X142135350Y-113063760D02*
X141535350Y-114349474D01*
X142368683Y-114111379D02*
X142368683Y-113111379D01*
X142368683Y-113111379D02*
X142602017Y-113825664D01*
X142602017Y-113825664D02*
X142835350Y-113111379D01*
X142835350Y-113111379D02*
X142835350Y-114111379D01*
X143068683Y-113111379D02*
X143468683Y-113111379D01*
X143268683Y-114111379D02*
X143268683Y-113111379D01*
X144102016Y-114016140D02*
X144068683Y-114063760D01*
X144068683Y-114063760D02*
X143968683Y-114111379D01*
X143968683Y-114111379D02*
X143902016Y-114111379D01*
X143902016Y-114111379D02*
X143802016Y-114063760D01*
X143802016Y-114063760D02*
X143735350Y-113968521D01*
X143735350Y-113968521D02*
X143702016Y-113873283D01*
X143702016Y-113873283D02*
X143668683Y-113682807D01*
X143668683Y-113682807D02*
X143668683Y-113539950D01*
X143668683Y-113539950D02*
X143702016Y-113349474D01*
X143702016Y-113349474D02*
X143735350Y-113254236D01*
X143735350Y-113254236D02*
X143802016Y-113158998D01*
X143802016Y-113158998D02*
X143902016Y-113111379D01*
X143902016Y-113111379D02*
X143968683Y-113111379D01*
X143968683Y-113111379D02*
X144068683Y-113158998D01*
X144068683Y-113158998D02*
X144102016Y-113206617D01*
X144402016Y-114111379D02*
X144402016Y-113111379D01*
X144802016Y-114111379D02*
X144502016Y-113539950D01*
X144802016Y-113111379D02*
X144402016Y-113682807D01*
X157064649Y-82678998D02*
X156997982Y-82631379D01*
X156997982Y-82631379D02*
X156897982Y-82631379D01*
X156897982Y-82631379D02*
X156797982Y-82678998D01*
X156797982Y-82678998D02*
X156731316Y-82774236D01*
X156731316Y-82774236D02*
X156697982Y-82869474D01*
X156697982Y-82869474D02*
X156664649Y-83059950D01*
X156664649Y-83059950D02*
X156664649Y-83202807D01*
X156664649Y-83202807D02*
X156697982Y-83393283D01*
X156697982Y-83393283D02*
X156731316Y-83488521D01*
X156731316Y-83488521D02*
X156797982Y-83583760D01*
X156797982Y-83583760D02*
X156897982Y-83631379D01*
X156897982Y-83631379D02*
X156964649Y-83631379D01*
X156964649Y-83631379D02*
X157064649Y-83583760D01*
X157064649Y-83583760D02*
X157097982Y-83536140D01*
X157097982Y-83536140D02*
X157097982Y-83202807D01*
X157097982Y-83202807D02*
X156964649Y-83202807D01*
X157397982Y-83631379D02*
X157397982Y-82631379D01*
X157397982Y-82631379D02*
X157664649Y-82631379D01*
X157664649Y-82631379D02*
X157731316Y-82678998D01*
X157731316Y-82678998D02*
X157764649Y-82726617D01*
X157764649Y-82726617D02*
X157797982Y-82821855D01*
X157797982Y-82821855D02*
X157797982Y-82964712D01*
X157797982Y-82964712D02*
X157764649Y-83059950D01*
X157764649Y-83059950D02*
X157731316Y-83107569D01*
X157731316Y-83107569D02*
X157664649Y-83155188D01*
X157664649Y-83155188D02*
X157397982Y-83155188D01*
X158097982Y-83631379D02*
X158097982Y-82631379D01*
X158564649Y-82631379D02*
X158697982Y-82631379D01*
X158697982Y-82631379D02*
X158764649Y-82678998D01*
X158764649Y-82678998D02*
X158831315Y-82774236D01*
X158831315Y-82774236D02*
X158864649Y-82964712D01*
X158864649Y-82964712D02*
X158864649Y-83298045D01*
X158864649Y-83298045D02*
X158831315Y-83488521D01*
X158831315Y-83488521D02*
X158764649Y-83583760D01*
X158764649Y-83583760D02*
X158697982Y-83631379D01*
X158697982Y-83631379D02*
X158564649Y-83631379D01*
X158564649Y-83631379D02*
X158497982Y-83583760D01*
X158497982Y-83583760D02*
X158431315Y-83488521D01*
X158431315Y-83488521D02*
X158397982Y-83298045D01*
X158397982Y-83298045D02*
X158397982Y-82964712D01*
X158397982Y-82964712D02*
X158431315Y-82774236D01*
X158431315Y-82774236D02*
X158497982Y-82678998D01*
X158497982Y-82678998D02*
X158564649Y-82631379D01*
X159131315Y-82726617D02*
X159164648Y-82678998D01*
X159164648Y-82678998D02*
X159231315Y-82631379D01*
X159231315Y-82631379D02*
X159397982Y-82631379D01*
X159397982Y-82631379D02*
X159464648Y-82678998D01*
X159464648Y-82678998D02*
X159497982Y-82726617D01*
X159497982Y-82726617D02*
X159531315Y-82821855D01*
X159531315Y-82821855D02*
X159531315Y-82917093D01*
X159531315Y-82917093D02*
X159497982Y-83059950D01*
X159497982Y-83059950D02*
X159097982Y-83631379D01*
X159097982Y-83631379D02*
X159531315Y-83631379D01*
X159797982Y-82726617D02*
X159831315Y-82678998D01*
X159831315Y-82678998D02*
X159897982Y-82631379D01*
X159897982Y-82631379D02*
X160064649Y-82631379D01*
X160064649Y-82631379D02*
X160131315Y-82678998D01*
X160131315Y-82678998D02*
X160164649Y-82726617D01*
X160164649Y-82726617D02*
X160197982Y-82821855D01*
X160197982Y-82821855D02*
X160197982Y-82917093D01*
X160197982Y-82917093D02*
X160164649Y-83059950D01*
X160164649Y-83059950D02*
X159764649Y-83631379D01*
X159764649Y-83631379D02*
X160197982Y-83631379D01*
X157731316Y-108078998D02*
X157664649Y-108031379D01*
X157664649Y-108031379D02*
X157564649Y-108031379D01*
X157564649Y-108031379D02*
X157464649Y-108078998D01*
X157464649Y-108078998D02*
X157397983Y-108174236D01*
X157397983Y-108174236D02*
X157364649Y-108269474D01*
X157364649Y-108269474D02*
X157331316Y-108459950D01*
X157331316Y-108459950D02*
X157331316Y-108602807D01*
X157331316Y-108602807D02*
X157364649Y-108793283D01*
X157364649Y-108793283D02*
X157397983Y-108888521D01*
X157397983Y-108888521D02*
X157464649Y-108983760D01*
X157464649Y-108983760D02*
X157564649Y-109031379D01*
X157564649Y-109031379D02*
X157631316Y-109031379D01*
X157631316Y-109031379D02*
X157731316Y-108983760D01*
X157731316Y-108983760D02*
X157764649Y-108936140D01*
X157764649Y-108936140D02*
X157764649Y-108602807D01*
X157764649Y-108602807D02*
X157631316Y-108602807D01*
X158064649Y-109031379D02*
X158064649Y-108031379D01*
X158064649Y-108031379D02*
X158331316Y-108031379D01*
X158331316Y-108031379D02*
X158397983Y-108078998D01*
X158397983Y-108078998D02*
X158431316Y-108126617D01*
X158431316Y-108126617D02*
X158464649Y-108221855D01*
X158464649Y-108221855D02*
X158464649Y-108364712D01*
X158464649Y-108364712D02*
X158431316Y-108459950D01*
X158431316Y-108459950D02*
X158397983Y-108507569D01*
X158397983Y-108507569D02*
X158331316Y-108555188D01*
X158331316Y-108555188D02*
X158064649Y-108555188D01*
X158764649Y-109031379D02*
X158764649Y-108031379D01*
X159231316Y-108031379D02*
X159364649Y-108031379D01*
X159364649Y-108031379D02*
X159431316Y-108078998D01*
X159431316Y-108078998D02*
X159497982Y-108174236D01*
X159497982Y-108174236D02*
X159531316Y-108364712D01*
X159531316Y-108364712D02*
X159531316Y-108698045D01*
X159531316Y-108698045D02*
X159497982Y-108888521D01*
X159497982Y-108888521D02*
X159431316Y-108983760D01*
X159431316Y-108983760D02*
X159364649Y-109031379D01*
X159364649Y-109031379D02*
X159231316Y-109031379D01*
X159231316Y-109031379D02*
X159164649Y-108983760D01*
X159164649Y-108983760D02*
X159097982Y-108888521D01*
X159097982Y-108888521D02*
X159064649Y-108698045D01*
X159064649Y-108698045D02*
X159064649Y-108364712D01*
X159064649Y-108364712D02*
X159097982Y-108174236D01*
X159097982Y-108174236D02*
X159164649Y-108078998D01*
X159164649Y-108078998D02*
X159231316Y-108031379D01*
X160131315Y-108364712D02*
X160131315Y-109031379D01*
X159964649Y-107983760D02*
X159797982Y-108698045D01*
X159797982Y-108698045D02*
X160231315Y-108698045D01*
X138202017Y-92838998D02*
X138135350Y-92791379D01*
X138135350Y-92791379D02*
X138035350Y-92791379D01*
X138035350Y-92791379D02*
X137935350Y-92838998D01*
X137935350Y-92838998D02*
X137868684Y-92934236D01*
X137868684Y-92934236D02*
X137835350Y-93029474D01*
X137835350Y-93029474D02*
X137802017Y-93219950D01*
X137802017Y-93219950D02*
X137802017Y-93362807D01*
X137802017Y-93362807D02*
X137835350Y-93553283D01*
X137835350Y-93553283D02*
X137868684Y-93648521D01*
X137868684Y-93648521D02*
X137935350Y-93743760D01*
X137935350Y-93743760D02*
X138035350Y-93791379D01*
X138035350Y-93791379D02*
X138102017Y-93791379D01*
X138102017Y-93791379D02*
X138202017Y-93743760D01*
X138202017Y-93743760D02*
X138235350Y-93696140D01*
X138235350Y-93696140D02*
X138235350Y-93362807D01*
X138235350Y-93362807D02*
X138102017Y-93362807D01*
X138535350Y-93791379D02*
X138535350Y-92791379D01*
X138535350Y-92791379D02*
X138802017Y-92791379D01*
X138802017Y-92791379D02*
X138868684Y-92838998D01*
X138868684Y-92838998D02*
X138902017Y-92886617D01*
X138902017Y-92886617D02*
X138935350Y-92981855D01*
X138935350Y-92981855D02*
X138935350Y-93124712D01*
X138935350Y-93124712D02*
X138902017Y-93219950D01*
X138902017Y-93219950D02*
X138868684Y-93267569D01*
X138868684Y-93267569D02*
X138802017Y-93315188D01*
X138802017Y-93315188D02*
X138535350Y-93315188D01*
X139235350Y-93791379D02*
X139235350Y-92791379D01*
X139702017Y-92791379D02*
X139835350Y-92791379D01*
X139835350Y-92791379D02*
X139902017Y-92838998D01*
X139902017Y-92838998D02*
X139968683Y-92934236D01*
X139968683Y-92934236D02*
X140002017Y-93124712D01*
X140002017Y-93124712D02*
X140002017Y-93458045D01*
X140002017Y-93458045D02*
X139968683Y-93648521D01*
X139968683Y-93648521D02*
X139902017Y-93743760D01*
X139902017Y-93743760D02*
X139835350Y-93791379D01*
X139835350Y-93791379D02*
X139702017Y-93791379D01*
X139702017Y-93791379D02*
X139635350Y-93743760D01*
X139635350Y-93743760D02*
X139568683Y-93648521D01*
X139568683Y-93648521D02*
X139535350Y-93458045D01*
X139535350Y-93458045D02*
X139535350Y-93124712D01*
X139535350Y-93124712D02*
X139568683Y-92934236D01*
X139568683Y-92934236D02*
X139635350Y-92838998D01*
X139635350Y-92838998D02*
X139702017Y-92791379D01*
X140235350Y-92791379D02*
X140668683Y-92791379D01*
X140668683Y-92791379D02*
X140435350Y-93172331D01*
X140435350Y-93172331D02*
X140535350Y-93172331D01*
X140535350Y-93172331D02*
X140602016Y-93219950D01*
X140602016Y-93219950D02*
X140635350Y-93267569D01*
X140635350Y-93267569D02*
X140668683Y-93362807D01*
X140668683Y-93362807D02*
X140668683Y-93600902D01*
X140668683Y-93600902D02*
X140635350Y-93696140D01*
X140635350Y-93696140D02*
X140602016Y-93743760D01*
X140602016Y-93743760D02*
X140535350Y-93791379D01*
X140535350Y-93791379D02*
X140335350Y-93791379D01*
X140335350Y-93791379D02*
X140268683Y-93743760D01*
X140268683Y-93743760D02*
X140235350Y-93696140D01*
X140935350Y-92886617D02*
X140968683Y-92838998D01*
X140968683Y-92838998D02*
X141035350Y-92791379D01*
X141035350Y-92791379D02*
X141202017Y-92791379D01*
X141202017Y-92791379D02*
X141268683Y-92838998D01*
X141268683Y-92838998D02*
X141302017Y-92886617D01*
X141302017Y-92886617D02*
X141335350Y-92981855D01*
X141335350Y-92981855D02*
X141335350Y-93077093D01*
X141335350Y-93077093D02*
X141302017Y-93219950D01*
X141302017Y-93219950D02*
X140902017Y-93791379D01*
X140902017Y-93791379D02*
X141335350Y-93791379D01*
X137801921Y-80564849D02*
X138135254Y-80564849D01*
X138278111Y-81088659D02*
X137801921Y-81088659D01*
X137801921Y-81088659D02*
X137801921Y-80088659D01*
X137801921Y-80088659D02*
X138278111Y-80088659D01*
X138706683Y-81088659D02*
X138706683Y-80088659D01*
X138706683Y-80088659D02*
X139278111Y-81088659D01*
X139278111Y-81088659D02*
X139278111Y-80088659D01*
X140468587Y-80041040D02*
X139611445Y-81326754D01*
X141373349Y-81088659D02*
X141040016Y-80612468D01*
X140801921Y-81088659D02*
X140801921Y-80088659D01*
X140801921Y-80088659D02*
X141182873Y-80088659D01*
X141182873Y-80088659D02*
X141278111Y-80136278D01*
X141278111Y-80136278D02*
X141325730Y-80183897D01*
X141325730Y-80183897D02*
X141373349Y-80279135D01*
X141373349Y-80279135D02*
X141373349Y-80421992D01*
X141373349Y-80421992D02*
X141325730Y-80517230D01*
X141325730Y-80517230D02*
X141278111Y-80564849D01*
X141278111Y-80564849D02*
X141182873Y-80612468D01*
X141182873Y-80612468D02*
X140801921Y-80612468D01*
X141801921Y-80564849D02*
X142135254Y-80564849D01*
X142278111Y-81088659D02*
X141801921Y-81088659D01*
X141801921Y-81088659D02*
X141801921Y-80088659D01*
X141801921Y-80088659D02*
X142278111Y-80088659D01*
X142659064Y-81041040D02*
X142801921Y-81088659D01*
X142801921Y-81088659D02*
X143040016Y-81088659D01*
X143040016Y-81088659D02*
X143135254Y-81041040D01*
X143135254Y-81041040D02*
X143182873Y-80993420D01*
X143182873Y-80993420D02*
X143230492Y-80898182D01*
X143230492Y-80898182D02*
X143230492Y-80802944D01*
X143230492Y-80802944D02*
X143182873Y-80707706D01*
X143182873Y-80707706D02*
X143135254Y-80660087D01*
X143135254Y-80660087D02*
X143040016Y-80612468D01*
X143040016Y-80612468D02*
X142849540Y-80564849D01*
X142849540Y-80564849D02*
X142754302Y-80517230D01*
X142754302Y-80517230D02*
X142706683Y-80469611D01*
X142706683Y-80469611D02*
X142659064Y-80374373D01*
X142659064Y-80374373D02*
X142659064Y-80279135D01*
X142659064Y-80279135D02*
X142706683Y-80183897D01*
X142706683Y-80183897D02*
X142754302Y-80136278D01*
X142754302Y-80136278D02*
X142849540Y-80088659D01*
X142849540Y-80088659D02*
X143087635Y-80088659D01*
X143087635Y-80088659D02*
X143230492Y-80136278D01*
X143659064Y-80564849D02*
X143992397Y-80564849D01*
X144135254Y-81088659D02*
X143659064Y-81088659D01*
X143659064Y-81088659D02*
X143659064Y-80088659D01*
X143659064Y-80088659D02*
X144135254Y-80088659D01*
X144420969Y-80088659D02*
X144992397Y-80088659D01*
X144706683Y-81088659D02*
X144706683Y-80088659D01*
X138202017Y-100458998D02*
X138135350Y-100411379D01*
X138135350Y-100411379D02*
X138035350Y-100411379D01*
X138035350Y-100411379D02*
X137935350Y-100458998D01*
X137935350Y-100458998D02*
X137868684Y-100554236D01*
X137868684Y-100554236D02*
X137835350Y-100649474D01*
X137835350Y-100649474D02*
X137802017Y-100839950D01*
X137802017Y-100839950D02*
X137802017Y-100982807D01*
X137802017Y-100982807D02*
X137835350Y-101173283D01*
X137835350Y-101173283D02*
X137868684Y-101268521D01*
X137868684Y-101268521D02*
X137935350Y-101363760D01*
X137935350Y-101363760D02*
X138035350Y-101411379D01*
X138035350Y-101411379D02*
X138102017Y-101411379D01*
X138102017Y-101411379D02*
X138202017Y-101363760D01*
X138202017Y-101363760D02*
X138235350Y-101316140D01*
X138235350Y-101316140D02*
X138235350Y-100982807D01*
X138235350Y-100982807D02*
X138102017Y-100982807D01*
X138535350Y-101411379D02*
X138535350Y-100411379D01*
X138535350Y-100411379D02*
X138802017Y-100411379D01*
X138802017Y-100411379D02*
X138868684Y-100458998D01*
X138868684Y-100458998D02*
X138902017Y-100506617D01*
X138902017Y-100506617D02*
X138935350Y-100601855D01*
X138935350Y-100601855D02*
X138935350Y-100744712D01*
X138935350Y-100744712D02*
X138902017Y-100839950D01*
X138902017Y-100839950D02*
X138868684Y-100887569D01*
X138868684Y-100887569D02*
X138802017Y-100935188D01*
X138802017Y-100935188D02*
X138535350Y-100935188D01*
X139235350Y-101411379D02*
X139235350Y-100411379D01*
X139702017Y-100411379D02*
X139835350Y-100411379D01*
X139835350Y-100411379D02*
X139902017Y-100458998D01*
X139902017Y-100458998D02*
X139968683Y-100554236D01*
X139968683Y-100554236D02*
X140002017Y-100744712D01*
X140002017Y-100744712D02*
X140002017Y-101078045D01*
X140002017Y-101078045D02*
X139968683Y-101268521D01*
X139968683Y-101268521D02*
X139902017Y-101363760D01*
X139902017Y-101363760D02*
X139835350Y-101411379D01*
X139835350Y-101411379D02*
X139702017Y-101411379D01*
X139702017Y-101411379D02*
X139635350Y-101363760D01*
X139635350Y-101363760D02*
X139568683Y-101268521D01*
X139568683Y-101268521D02*
X139535350Y-101078045D01*
X139535350Y-101078045D02*
X139535350Y-100744712D01*
X139535350Y-100744712D02*
X139568683Y-100554236D01*
X139568683Y-100554236D02*
X139635350Y-100458998D01*
X139635350Y-100458998D02*
X139702017Y-100411379D01*
X140268683Y-100506617D02*
X140302016Y-100458998D01*
X140302016Y-100458998D02*
X140368683Y-100411379D01*
X140368683Y-100411379D02*
X140535350Y-100411379D01*
X140535350Y-100411379D02*
X140602016Y-100458998D01*
X140602016Y-100458998D02*
X140635350Y-100506617D01*
X140635350Y-100506617D02*
X140668683Y-100601855D01*
X140668683Y-100601855D02*
X140668683Y-100697093D01*
X140668683Y-100697093D02*
X140635350Y-100839950D01*
X140635350Y-100839950D02*
X140235350Y-101411379D01*
X140235350Y-101411379D02*
X140668683Y-101411379D01*
X141268683Y-100411379D02*
X141135350Y-100411379D01*
X141135350Y-100411379D02*
X141068683Y-100458998D01*
X141068683Y-100458998D02*
X141035350Y-100506617D01*
X141035350Y-100506617D02*
X140968683Y-100649474D01*
X140968683Y-100649474D02*
X140935350Y-100839950D01*
X140935350Y-100839950D02*
X140935350Y-101220902D01*
X140935350Y-101220902D02*
X140968683Y-101316140D01*
X140968683Y-101316140D02*
X141002017Y-101363760D01*
X141002017Y-101363760D02*
X141068683Y-101411379D01*
X141068683Y-101411379D02*
X141202017Y-101411379D01*
X141202017Y-101411379D02*
X141268683Y-101363760D01*
X141268683Y-101363760D02*
X141302017Y-101316140D01*
X141302017Y-101316140D02*
X141335350Y-101220902D01*
X141335350Y-101220902D02*
X141335350Y-100982807D01*
X141335350Y-100982807D02*
X141302017Y-100887569D01*
X141302017Y-100887569D02*
X141268683Y-100839950D01*
X141268683Y-100839950D02*
X141202017Y-100792331D01*
X141202017Y-100792331D02*
X141068683Y-100792331D01*
X141068683Y-100792331D02*
X141002017Y-100839950D01*
X141002017Y-100839950D02*
X140968683Y-100887569D01*
X140968683Y-100887569D02*
X140935350Y-100982807D01*
X157064649Y-90298998D02*
X156997982Y-90251379D01*
X156997982Y-90251379D02*
X156897982Y-90251379D01*
X156897982Y-90251379D02*
X156797982Y-90298998D01*
X156797982Y-90298998D02*
X156731316Y-90394236D01*
X156731316Y-90394236D02*
X156697982Y-90489474D01*
X156697982Y-90489474D02*
X156664649Y-90679950D01*
X156664649Y-90679950D02*
X156664649Y-90822807D01*
X156664649Y-90822807D02*
X156697982Y-91013283D01*
X156697982Y-91013283D02*
X156731316Y-91108521D01*
X156731316Y-91108521D02*
X156797982Y-91203760D01*
X156797982Y-91203760D02*
X156897982Y-91251379D01*
X156897982Y-91251379D02*
X156964649Y-91251379D01*
X156964649Y-91251379D02*
X157064649Y-91203760D01*
X157064649Y-91203760D02*
X157097982Y-91156140D01*
X157097982Y-91156140D02*
X157097982Y-90822807D01*
X157097982Y-90822807D02*
X156964649Y-90822807D01*
X157397982Y-91251379D02*
X157397982Y-90251379D01*
X157397982Y-90251379D02*
X157664649Y-90251379D01*
X157664649Y-90251379D02*
X157731316Y-90298998D01*
X157731316Y-90298998D02*
X157764649Y-90346617D01*
X157764649Y-90346617D02*
X157797982Y-90441855D01*
X157797982Y-90441855D02*
X157797982Y-90584712D01*
X157797982Y-90584712D02*
X157764649Y-90679950D01*
X157764649Y-90679950D02*
X157731316Y-90727569D01*
X157731316Y-90727569D02*
X157664649Y-90775188D01*
X157664649Y-90775188D02*
X157397982Y-90775188D01*
X158097982Y-91251379D02*
X158097982Y-90251379D01*
X158564649Y-90251379D02*
X158697982Y-90251379D01*
X158697982Y-90251379D02*
X158764649Y-90298998D01*
X158764649Y-90298998D02*
X158831315Y-90394236D01*
X158831315Y-90394236D02*
X158864649Y-90584712D01*
X158864649Y-90584712D02*
X158864649Y-90918045D01*
X158864649Y-90918045D02*
X158831315Y-91108521D01*
X158831315Y-91108521D02*
X158764649Y-91203760D01*
X158764649Y-91203760D02*
X158697982Y-91251379D01*
X158697982Y-91251379D02*
X158564649Y-91251379D01*
X158564649Y-91251379D02*
X158497982Y-91203760D01*
X158497982Y-91203760D02*
X158431315Y-91108521D01*
X158431315Y-91108521D02*
X158397982Y-90918045D01*
X158397982Y-90918045D02*
X158397982Y-90584712D01*
X158397982Y-90584712D02*
X158431315Y-90394236D01*
X158431315Y-90394236D02*
X158497982Y-90298998D01*
X158497982Y-90298998D02*
X158564649Y-90251379D01*
X159131315Y-90346617D02*
X159164648Y-90298998D01*
X159164648Y-90298998D02*
X159231315Y-90251379D01*
X159231315Y-90251379D02*
X159397982Y-90251379D01*
X159397982Y-90251379D02*
X159464648Y-90298998D01*
X159464648Y-90298998D02*
X159497982Y-90346617D01*
X159497982Y-90346617D02*
X159531315Y-90441855D01*
X159531315Y-90441855D02*
X159531315Y-90537093D01*
X159531315Y-90537093D02*
X159497982Y-90679950D01*
X159497982Y-90679950D02*
X159097982Y-91251379D01*
X159097982Y-91251379D02*
X159531315Y-91251379D01*
X160197982Y-91251379D02*
X159797982Y-91251379D01*
X159997982Y-91251379D02*
X159997982Y-90251379D01*
X159997982Y-90251379D02*
X159931315Y-90394236D01*
X159931315Y-90394236D02*
X159864649Y-90489474D01*
X159864649Y-90489474D02*
X159797982Y-90537093D01*
X158045601Y-92838998D02*
X157950363Y-92791379D01*
X157950363Y-92791379D02*
X157807506Y-92791379D01*
X157807506Y-92791379D02*
X157664649Y-92838998D01*
X157664649Y-92838998D02*
X157569411Y-92934236D01*
X157569411Y-92934236D02*
X157521792Y-93029474D01*
X157521792Y-93029474D02*
X157474173Y-93219950D01*
X157474173Y-93219950D02*
X157474173Y-93362807D01*
X157474173Y-93362807D02*
X157521792Y-93553283D01*
X157521792Y-93553283D02*
X157569411Y-93648521D01*
X157569411Y-93648521D02*
X157664649Y-93743760D01*
X157664649Y-93743760D02*
X157807506Y-93791379D01*
X157807506Y-93791379D02*
X157902744Y-93791379D01*
X157902744Y-93791379D02*
X158045601Y-93743760D01*
X158045601Y-93743760D02*
X158093220Y-93696140D01*
X158093220Y-93696140D02*
X158093220Y-93362807D01*
X158093220Y-93362807D02*
X157902744Y-93362807D01*
X158521792Y-93791379D02*
X158521792Y-92791379D01*
X158521792Y-92791379D02*
X159093220Y-93791379D01*
X159093220Y-93791379D02*
X159093220Y-92791379D01*
X159569411Y-93791379D02*
X159569411Y-92791379D01*
X159569411Y-92791379D02*
X159807506Y-92791379D01*
X159807506Y-92791379D02*
X159950363Y-92838998D01*
X159950363Y-92838998D02*
X160045601Y-92934236D01*
X160045601Y-92934236D02*
X160093220Y-93029474D01*
X160093220Y-93029474D02*
X160140839Y-93219950D01*
X160140839Y-93219950D02*
X160140839Y-93362807D01*
X160140839Y-93362807D02*
X160093220Y-93553283D01*
X160093220Y-93553283D02*
X160045601Y-93648521D01*
X160045601Y-93648521D02*
X159950363Y-93743760D01*
X159950363Y-93743760D02*
X159807506Y-93791379D01*
X159807506Y-93791379D02*
X159569411Y-93791379D01*
X157064649Y-95378998D02*
X156997982Y-95331379D01*
X156997982Y-95331379D02*
X156897982Y-95331379D01*
X156897982Y-95331379D02*
X156797982Y-95378998D01*
X156797982Y-95378998D02*
X156731316Y-95474236D01*
X156731316Y-95474236D02*
X156697982Y-95569474D01*
X156697982Y-95569474D02*
X156664649Y-95759950D01*
X156664649Y-95759950D02*
X156664649Y-95902807D01*
X156664649Y-95902807D02*
X156697982Y-96093283D01*
X156697982Y-96093283D02*
X156731316Y-96188521D01*
X156731316Y-96188521D02*
X156797982Y-96283760D01*
X156797982Y-96283760D02*
X156897982Y-96331379D01*
X156897982Y-96331379D02*
X156964649Y-96331379D01*
X156964649Y-96331379D02*
X157064649Y-96283760D01*
X157064649Y-96283760D02*
X157097982Y-96236140D01*
X157097982Y-96236140D02*
X157097982Y-95902807D01*
X157097982Y-95902807D02*
X156964649Y-95902807D01*
X157397982Y-96331379D02*
X157397982Y-95331379D01*
X157397982Y-95331379D02*
X157664649Y-95331379D01*
X157664649Y-95331379D02*
X157731316Y-95378998D01*
X157731316Y-95378998D02*
X157764649Y-95426617D01*
X157764649Y-95426617D02*
X157797982Y-95521855D01*
X157797982Y-95521855D02*
X157797982Y-95664712D01*
X157797982Y-95664712D02*
X157764649Y-95759950D01*
X157764649Y-95759950D02*
X157731316Y-95807569D01*
X157731316Y-95807569D02*
X157664649Y-95855188D01*
X157664649Y-95855188D02*
X157397982Y-95855188D01*
X158097982Y-96331379D02*
X158097982Y-95331379D01*
X158564649Y-95331379D02*
X158697982Y-95331379D01*
X158697982Y-95331379D02*
X158764649Y-95378998D01*
X158764649Y-95378998D02*
X158831315Y-95474236D01*
X158831315Y-95474236D02*
X158864649Y-95664712D01*
X158864649Y-95664712D02*
X158864649Y-95998045D01*
X158864649Y-95998045D02*
X158831315Y-96188521D01*
X158831315Y-96188521D02*
X158764649Y-96283760D01*
X158764649Y-96283760D02*
X158697982Y-96331379D01*
X158697982Y-96331379D02*
X158564649Y-96331379D01*
X158564649Y-96331379D02*
X158497982Y-96283760D01*
X158497982Y-96283760D02*
X158431315Y-96188521D01*
X158431315Y-96188521D02*
X158397982Y-95998045D01*
X158397982Y-95998045D02*
X158397982Y-95664712D01*
X158397982Y-95664712D02*
X158431315Y-95474236D01*
X158431315Y-95474236D02*
X158497982Y-95378998D01*
X158497982Y-95378998D02*
X158564649Y-95331379D01*
X159531315Y-96331379D02*
X159131315Y-96331379D01*
X159331315Y-96331379D02*
X159331315Y-95331379D01*
X159331315Y-95331379D02*
X159264648Y-95474236D01*
X159264648Y-95474236D02*
X159197982Y-95569474D01*
X159197982Y-95569474D02*
X159131315Y-95617093D01*
X159864649Y-96331379D02*
X159997982Y-96331379D01*
X159997982Y-96331379D02*
X160064649Y-96283760D01*
X160064649Y-96283760D02*
X160097982Y-96236140D01*
X160097982Y-96236140D02*
X160164649Y-96093283D01*
X160164649Y-96093283D02*
X160197982Y-95902807D01*
X160197982Y-95902807D02*
X160197982Y-95521855D01*
X160197982Y-95521855D02*
X160164649Y-95426617D01*
X160164649Y-95426617D02*
X160131315Y-95378998D01*
X160131315Y-95378998D02*
X160064649Y-95331379D01*
X160064649Y-95331379D02*
X159931315Y-95331379D01*
X159931315Y-95331379D02*
X159864649Y-95378998D01*
X159864649Y-95378998D02*
X159831315Y-95426617D01*
X159831315Y-95426617D02*
X159797982Y-95521855D01*
X159797982Y-95521855D02*
X159797982Y-95759950D01*
X159797982Y-95759950D02*
X159831315Y-95855188D01*
X159831315Y-95855188D02*
X159864649Y-95902807D01*
X159864649Y-95902807D02*
X159931315Y-95950426D01*
X159931315Y-95950426D02*
X160064649Y-95950426D01*
X160064649Y-95950426D02*
X160131315Y-95902807D01*
X160131315Y-95902807D02*
X160164649Y-95855188D01*
X160164649Y-95855188D02*
X160197982Y-95759950D01*
X159131315Y-121731379D02*
X159131315Y-120731379D01*
X159131315Y-120731379D02*
X159297982Y-120731379D01*
X159297982Y-120731379D02*
X159397982Y-120778998D01*
X159397982Y-120778998D02*
X159464649Y-120874236D01*
X159464649Y-120874236D02*
X159497982Y-120969474D01*
X159497982Y-120969474D02*
X159531315Y-121159950D01*
X159531315Y-121159950D02*
X159531315Y-121302807D01*
X159531315Y-121302807D02*
X159497982Y-121493283D01*
X159497982Y-121493283D02*
X159464649Y-121588521D01*
X159464649Y-121588521D02*
X159397982Y-121683760D01*
X159397982Y-121683760D02*
X159297982Y-121731379D01*
X159297982Y-121731379D02*
X159131315Y-121731379D01*
X159964649Y-120731379D02*
X160031315Y-120731379D01*
X160031315Y-120731379D02*
X160097982Y-120778998D01*
X160097982Y-120778998D02*
X160131315Y-120826617D01*
X160131315Y-120826617D02*
X160164649Y-120921855D01*
X160164649Y-120921855D02*
X160197982Y-121112331D01*
X160197982Y-121112331D02*
X160197982Y-121350426D01*
X160197982Y-121350426D02*
X160164649Y-121540902D01*
X160164649Y-121540902D02*
X160131315Y-121636140D01*
X160131315Y-121636140D02*
X160097982Y-121683760D01*
X160097982Y-121683760D02*
X160031315Y-121731379D01*
X160031315Y-121731379D02*
X159964649Y-121731379D01*
X159964649Y-121731379D02*
X159897982Y-121683760D01*
X159897982Y-121683760D02*
X159864649Y-121636140D01*
X159864649Y-121636140D02*
X159831315Y-121540902D01*
X159831315Y-121540902D02*
X159797982Y-121350426D01*
X159797982Y-121350426D02*
X159797982Y-121112331D01*
X159797982Y-121112331D02*
X159831315Y-120921855D01*
X159831315Y-120921855D02*
X159864649Y-120826617D01*
X159864649Y-120826617D02*
X159897982Y-120778998D01*
X159897982Y-120778998D02*
X159964649Y-120731379D01*
X158045601Y-77598998D02*
X157950363Y-77551379D01*
X157950363Y-77551379D02*
X157807506Y-77551379D01*
X157807506Y-77551379D02*
X157664649Y-77598998D01*
X157664649Y-77598998D02*
X157569411Y-77694236D01*
X157569411Y-77694236D02*
X157521792Y-77789474D01*
X157521792Y-77789474D02*
X157474173Y-77979950D01*
X157474173Y-77979950D02*
X157474173Y-78122807D01*
X157474173Y-78122807D02*
X157521792Y-78313283D01*
X157521792Y-78313283D02*
X157569411Y-78408521D01*
X157569411Y-78408521D02*
X157664649Y-78503760D01*
X157664649Y-78503760D02*
X157807506Y-78551379D01*
X157807506Y-78551379D02*
X157902744Y-78551379D01*
X157902744Y-78551379D02*
X158045601Y-78503760D01*
X158045601Y-78503760D02*
X158093220Y-78456140D01*
X158093220Y-78456140D02*
X158093220Y-78122807D01*
X158093220Y-78122807D02*
X157902744Y-78122807D01*
X158521792Y-78551379D02*
X158521792Y-77551379D01*
X158521792Y-77551379D02*
X159093220Y-78551379D01*
X159093220Y-78551379D02*
X159093220Y-77551379D01*
X159569411Y-78551379D02*
X159569411Y-77551379D01*
X159569411Y-77551379D02*
X159807506Y-77551379D01*
X159807506Y-77551379D02*
X159950363Y-77598998D01*
X159950363Y-77598998D02*
X160045601Y-77694236D01*
X160045601Y-77694236D02*
X160093220Y-77789474D01*
X160093220Y-77789474D02*
X160140839Y-77979950D01*
X160140839Y-77979950D02*
X160140839Y-78122807D01*
X160140839Y-78122807D02*
X160093220Y-78313283D01*
X160093220Y-78313283D02*
X160045601Y-78408521D01*
X160045601Y-78408521D02*
X159950363Y-78503760D01*
X159950363Y-78503760D02*
X159807506Y-78551379D01*
X159807506Y-78551379D02*
X159569411Y-78551379D01*
X157731316Y-113158998D02*
X157664649Y-113111379D01*
X157664649Y-113111379D02*
X157564649Y-113111379D01*
X157564649Y-113111379D02*
X157464649Y-113158998D01*
X157464649Y-113158998D02*
X157397983Y-113254236D01*
X157397983Y-113254236D02*
X157364649Y-113349474D01*
X157364649Y-113349474D02*
X157331316Y-113539950D01*
X157331316Y-113539950D02*
X157331316Y-113682807D01*
X157331316Y-113682807D02*
X157364649Y-113873283D01*
X157364649Y-113873283D02*
X157397983Y-113968521D01*
X157397983Y-113968521D02*
X157464649Y-114063760D01*
X157464649Y-114063760D02*
X157564649Y-114111379D01*
X157564649Y-114111379D02*
X157631316Y-114111379D01*
X157631316Y-114111379D02*
X157731316Y-114063760D01*
X157731316Y-114063760D02*
X157764649Y-114016140D01*
X157764649Y-114016140D02*
X157764649Y-113682807D01*
X157764649Y-113682807D02*
X157631316Y-113682807D01*
X158064649Y-114111379D02*
X158064649Y-113111379D01*
X158064649Y-113111379D02*
X158331316Y-113111379D01*
X158331316Y-113111379D02*
X158397983Y-113158998D01*
X158397983Y-113158998D02*
X158431316Y-113206617D01*
X158431316Y-113206617D02*
X158464649Y-113301855D01*
X158464649Y-113301855D02*
X158464649Y-113444712D01*
X158464649Y-113444712D02*
X158431316Y-113539950D01*
X158431316Y-113539950D02*
X158397983Y-113587569D01*
X158397983Y-113587569D02*
X158331316Y-113635188D01*
X158331316Y-113635188D02*
X158064649Y-113635188D01*
X158764649Y-114111379D02*
X158764649Y-113111379D01*
X159231316Y-113111379D02*
X159364649Y-113111379D01*
X159364649Y-113111379D02*
X159431316Y-113158998D01*
X159431316Y-113158998D02*
X159497982Y-113254236D01*
X159497982Y-113254236D02*
X159531316Y-113444712D01*
X159531316Y-113444712D02*
X159531316Y-113778045D01*
X159531316Y-113778045D02*
X159497982Y-113968521D01*
X159497982Y-113968521D02*
X159431316Y-114063760D01*
X159431316Y-114063760D02*
X159364649Y-114111379D01*
X159364649Y-114111379D02*
X159231316Y-114111379D01*
X159231316Y-114111379D02*
X159164649Y-114063760D01*
X159164649Y-114063760D02*
X159097982Y-113968521D01*
X159097982Y-113968521D02*
X159064649Y-113778045D01*
X159064649Y-113778045D02*
X159064649Y-113444712D01*
X159064649Y-113444712D02*
X159097982Y-113254236D01*
X159097982Y-113254236D02*
X159164649Y-113158998D01*
X159164649Y-113158998D02*
X159231316Y-113111379D01*
X159797982Y-113206617D02*
X159831315Y-113158998D01*
X159831315Y-113158998D02*
X159897982Y-113111379D01*
X159897982Y-113111379D02*
X160064649Y-113111379D01*
X160064649Y-113111379D02*
X160131315Y-113158998D01*
X160131315Y-113158998D02*
X160164649Y-113206617D01*
X160164649Y-113206617D02*
X160197982Y-113301855D01*
X160197982Y-113301855D02*
X160197982Y-113397093D01*
X160197982Y-113397093D02*
X160164649Y-113539950D01*
X160164649Y-113539950D02*
X159764649Y-114111379D01*
X159764649Y-114111379D02*
X160197982Y-114111379D01*
X157731316Y-110618998D02*
X157664649Y-110571379D01*
X157664649Y-110571379D02*
X157564649Y-110571379D01*
X157564649Y-110571379D02*
X157464649Y-110618998D01*
X157464649Y-110618998D02*
X157397983Y-110714236D01*
X157397983Y-110714236D02*
X157364649Y-110809474D01*
X157364649Y-110809474D02*
X157331316Y-110999950D01*
X157331316Y-110999950D02*
X157331316Y-111142807D01*
X157331316Y-111142807D02*
X157364649Y-111333283D01*
X157364649Y-111333283D02*
X157397983Y-111428521D01*
X157397983Y-111428521D02*
X157464649Y-111523760D01*
X157464649Y-111523760D02*
X157564649Y-111571379D01*
X157564649Y-111571379D02*
X157631316Y-111571379D01*
X157631316Y-111571379D02*
X157731316Y-111523760D01*
X157731316Y-111523760D02*
X157764649Y-111476140D01*
X157764649Y-111476140D02*
X157764649Y-111142807D01*
X157764649Y-111142807D02*
X157631316Y-111142807D01*
X158064649Y-111571379D02*
X158064649Y-110571379D01*
X158064649Y-110571379D02*
X158331316Y-110571379D01*
X158331316Y-110571379D02*
X158397983Y-110618998D01*
X158397983Y-110618998D02*
X158431316Y-110666617D01*
X158431316Y-110666617D02*
X158464649Y-110761855D01*
X158464649Y-110761855D02*
X158464649Y-110904712D01*
X158464649Y-110904712D02*
X158431316Y-110999950D01*
X158431316Y-110999950D02*
X158397983Y-111047569D01*
X158397983Y-111047569D02*
X158331316Y-111095188D01*
X158331316Y-111095188D02*
X158064649Y-111095188D01*
X158764649Y-111571379D02*
X158764649Y-110571379D01*
X159231316Y-110571379D02*
X159364649Y-110571379D01*
X159364649Y-110571379D02*
X159431316Y-110618998D01*
X159431316Y-110618998D02*
X159497982Y-110714236D01*
X159497982Y-110714236D02*
X159531316Y-110904712D01*
X159531316Y-110904712D02*
X159531316Y-111238045D01*
X159531316Y-111238045D02*
X159497982Y-111428521D01*
X159497982Y-111428521D02*
X159431316Y-111523760D01*
X159431316Y-111523760D02*
X159364649Y-111571379D01*
X159364649Y-111571379D02*
X159231316Y-111571379D01*
X159231316Y-111571379D02*
X159164649Y-111523760D01*
X159164649Y-111523760D02*
X159097982Y-111428521D01*
X159097982Y-111428521D02*
X159064649Y-111238045D01*
X159064649Y-111238045D02*
X159064649Y-110904712D01*
X159064649Y-110904712D02*
X159097982Y-110714236D01*
X159097982Y-110714236D02*
X159164649Y-110618998D01*
X159164649Y-110618998D02*
X159231316Y-110571379D01*
X159964649Y-110571379D02*
X160031315Y-110571379D01*
X160031315Y-110571379D02*
X160097982Y-110618998D01*
X160097982Y-110618998D02*
X160131315Y-110666617D01*
X160131315Y-110666617D02*
X160164649Y-110761855D01*
X160164649Y-110761855D02*
X160197982Y-110952331D01*
X160197982Y-110952331D02*
X160197982Y-111190426D01*
X160197982Y-111190426D02*
X160164649Y-111380902D01*
X160164649Y-111380902D02*
X160131315Y-111476140D01*
X160131315Y-111476140D02*
X160097982Y-111523760D01*
X160097982Y-111523760D02*
X160031315Y-111571379D01*
X160031315Y-111571379D02*
X159964649Y-111571379D01*
X159964649Y-111571379D02*
X159897982Y-111523760D01*
X159897982Y-111523760D02*
X159864649Y-111476140D01*
X159864649Y-111476140D02*
X159831315Y-111380902D01*
X159831315Y-111380902D02*
X159797982Y-111190426D01*
X159797982Y-111190426D02*
X159797982Y-110952331D01*
X159797982Y-110952331D02*
X159831315Y-110761855D01*
X159831315Y-110761855D02*
X159864649Y-110666617D01*
X159864649Y-110666617D02*
X159897982Y-110618998D01*
X159897982Y-110618998D02*
X159964649Y-110571379D01*
X138430588Y-110618998D02*
X138335350Y-110571379D01*
X138335350Y-110571379D02*
X138192493Y-110571379D01*
X138192493Y-110571379D02*
X138049636Y-110618998D01*
X138049636Y-110618998D02*
X137954398Y-110714236D01*
X137954398Y-110714236D02*
X137906779Y-110809474D01*
X137906779Y-110809474D02*
X137859160Y-110999950D01*
X137859160Y-110999950D02*
X137859160Y-111142807D01*
X137859160Y-111142807D02*
X137906779Y-111333283D01*
X137906779Y-111333283D02*
X137954398Y-111428521D01*
X137954398Y-111428521D02*
X138049636Y-111523760D01*
X138049636Y-111523760D02*
X138192493Y-111571379D01*
X138192493Y-111571379D02*
X138287731Y-111571379D01*
X138287731Y-111571379D02*
X138430588Y-111523760D01*
X138430588Y-111523760D02*
X138478207Y-111476140D01*
X138478207Y-111476140D02*
X138478207Y-111142807D01*
X138478207Y-111142807D02*
X138287731Y-111142807D01*
X138906779Y-111571379D02*
X138906779Y-110571379D01*
X138906779Y-110571379D02*
X139478207Y-111571379D01*
X139478207Y-111571379D02*
X139478207Y-110571379D01*
X139954398Y-111571379D02*
X139954398Y-110571379D01*
X139954398Y-110571379D02*
X140192493Y-110571379D01*
X140192493Y-110571379D02*
X140335350Y-110618998D01*
X140335350Y-110618998D02*
X140430588Y-110714236D01*
X140430588Y-110714236D02*
X140478207Y-110809474D01*
X140478207Y-110809474D02*
X140525826Y-110999950D01*
X140525826Y-110999950D02*
X140525826Y-111142807D01*
X140525826Y-111142807D02*
X140478207Y-111333283D01*
X140478207Y-111333283D02*
X140430588Y-111428521D01*
X140430588Y-111428521D02*
X140335350Y-111523760D01*
X140335350Y-111523760D02*
X140192493Y-111571379D01*
X140192493Y-111571379D02*
X139954398Y-111571379D01*
X159131315Y-119191379D02*
X159131315Y-118191379D01*
X159131315Y-118191379D02*
X159297982Y-118191379D01*
X159297982Y-118191379D02*
X159397982Y-118238998D01*
X159397982Y-118238998D02*
X159464649Y-118334236D01*
X159464649Y-118334236D02*
X159497982Y-118429474D01*
X159497982Y-118429474D02*
X159531315Y-118619950D01*
X159531315Y-118619950D02*
X159531315Y-118762807D01*
X159531315Y-118762807D02*
X159497982Y-118953283D01*
X159497982Y-118953283D02*
X159464649Y-119048521D01*
X159464649Y-119048521D02*
X159397982Y-119143760D01*
X159397982Y-119143760D02*
X159297982Y-119191379D01*
X159297982Y-119191379D02*
X159131315Y-119191379D01*
X160197982Y-119191379D02*
X159797982Y-119191379D01*
X159997982Y-119191379D02*
X159997982Y-118191379D01*
X159997982Y-118191379D02*
X159931315Y-118334236D01*
X159931315Y-118334236D02*
X159864649Y-118429474D01*
X159864649Y-118429474D02*
X159797982Y-118477093D01*
X153564650Y-115698998D02*
X153497983Y-115651379D01*
X153497983Y-115651379D02*
X153397983Y-115651379D01*
X153397983Y-115651379D02*
X153297983Y-115698998D01*
X153297983Y-115698998D02*
X153231317Y-115794236D01*
X153231317Y-115794236D02*
X153197983Y-115889474D01*
X153197983Y-115889474D02*
X153164650Y-116079950D01*
X153164650Y-116079950D02*
X153164650Y-116222807D01*
X153164650Y-116222807D02*
X153197983Y-116413283D01*
X153197983Y-116413283D02*
X153231317Y-116508521D01*
X153231317Y-116508521D02*
X153297983Y-116603760D01*
X153297983Y-116603760D02*
X153397983Y-116651379D01*
X153397983Y-116651379D02*
X153464650Y-116651379D01*
X153464650Y-116651379D02*
X153564650Y-116603760D01*
X153564650Y-116603760D02*
X153597983Y-116556140D01*
X153597983Y-116556140D02*
X153597983Y-116222807D01*
X153597983Y-116222807D02*
X153464650Y-116222807D01*
X153897983Y-116651379D02*
X153897983Y-115651379D01*
X153897983Y-115651379D02*
X154164650Y-115651379D01*
X154164650Y-115651379D02*
X154231317Y-115698998D01*
X154231317Y-115698998D02*
X154264650Y-115746617D01*
X154264650Y-115746617D02*
X154297983Y-115841855D01*
X154297983Y-115841855D02*
X154297983Y-115984712D01*
X154297983Y-115984712D02*
X154264650Y-116079950D01*
X154264650Y-116079950D02*
X154231317Y-116127569D01*
X154231317Y-116127569D02*
X154164650Y-116175188D01*
X154164650Y-116175188D02*
X153897983Y-116175188D01*
X154597983Y-116651379D02*
X154597983Y-115651379D01*
X155064650Y-115651379D02*
X155197983Y-115651379D01*
X155197983Y-115651379D02*
X155264650Y-115698998D01*
X155264650Y-115698998D02*
X155331316Y-115794236D01*
X155331316Y-115794236D02*
X155364650Y-115984712D01*
X155364650Y-115984712D02*
X155364650Y-116318045D01*
X155364650Y-116318045D02*
X155331316Y-116508521D01*
X155331316Y-116508521D02*
X155264650Y-116603760D01*
X155264650Y-116603760D02*
X155197983Y-116651379D01*
X155197983Y-116651379D02*
X155064650Y-116651379D01*
X155064650Y-116651379D02*
X154997983Y-116603760D01*
X154997983Y-116603760D02*
X154931316Y-116508521D01*
X154931316Y-116508521D02*
X154897983Y-116318045D01*
X154897983Y-116318045D02*
X154897983Y-115984712D01*
X154897983Y-115984712D02*
X154931316Y-115794236D01*
X154931316Y-115794236D02*
X154997983Y-115698998D01*
X154997983Y-115698998D02*
X155064650Y-115651379D01*
X156031316Y-116651379D02*
X155631316Y-116651379D01*
X155831316Y-116651379D02*
X155831316Y-115651379D01*
X155831316Y-115651379D02*
X155764649Y-115794236D01*
X155764649Y-115794236D02*
X155697983Y-115889474D01*
X155697983Y-115889474D02*
X155631316Y-115937093D01*
X156664650Y-115651379D02*
X156331316Y-115651379D01*
X156331316Y-115651379D02*
X156297983Y-116127569D01*
X156297983Y-116127569D02*
X156331316Y-116079950D01*
X156331316Y-116079950D02*
X156397983Y-116032331D01*
X156397983Y-116032331D02*
X156564650Y-116032331D01*
X156564650Y-116032331D02*
X156631316Y-116079950D01*
X156631316Y-116079950D02*
X156664650Y-116127569D01*
X156664650Y-116127569D02*
X156697983Y-116222807D01*
X156697983Y-116222807D02*
X156697983Y-116460902D01*
X156697983Y-116460902D02*
X156664650Y-116556140D01*
X156664650Y-116556140D02*
X156631316Y-116603760D01*
X156631316Y-116603760D02*
X156564650Y-116651379D01*
X156564650Y-116651379D02*
X156397983Y-116651379D01*
X156397983Y-116651379D02*
X156331316Y-116603760D01*
X156331316Y-116603760D02*
X156297983Y-116556140D01*
X157497983Y-115603760D02*
X156897983Y-116889474D01*
X157731316Y-116651379D02*
X157731316Y-115651379D01*
X157731316Y-115651379D02*
X157964650Y-116365664D01*
X157964650Y-116365664D02*
X158197983Y-115651379D01*
X158197983Y-115651379D02*
X158197983Y-116651379D01*
X158431316Y-115651379D02*
X158831316Y-115651379D01*
X158631316Y-116651379D02*
X158631316Y-115651379D01*
X159064649Y-116651379D02*
X159064649Y-115651379D01*
X159064649Y-115651379D02*
X159231316Y-115651379D01*
X159231316Y-115651379D02*
X159331316Y-115698998D01*
X159331316Y-115698998D02*
X159397983Y-115794236D01*
X159397983Y-115794236D02*
X159431316Y-115889474D01*
X159431316Y-115889474D02*
X159464649Y-116079950D01*
X159464649Y-116079950D02*
X159464649Y-116222807D01*
X159464649Y-116222807D02*
X159431316Y-116413283D01*
X159431316Y-116413283D02*
X159397983Y-116508521D01*
X159397983Y-116508521D02*
X159331316Y-116603760D01*
X159331316Y-116603760D02*
X159231316Y-116651379D01*
X159231316Y-116651379D02*
X159064649Y-116651379D01*
X159897983Y-115651379D02*
X160031316Y-115651379D01*
X160031316Y-115651379D02*
X160097983Y-115698998D01*
X160097983Y-115698998D02*
X160164649Y-115794236D01*
X160164649Y-115794236D02*
X160197983Y-115984712D01*
X160197983Y-115984712D02*
X160197983Y-116318045D01*
X160197983Y-116318045D02*
X160164649Y-116508521D01*
X160164649Y-116508521D02*
X160097983Y-116603760D01*
X160097983Y-116603760D02*
X160031316Y-116651379D01*
X160031316Y-116651379D02*
X159897983Y-116651379D01*
X159897983Y-116651379D02*
X159831316Y-116603760D01*
X159831316Y-116603760D02*
X159764649Y-116508521D01*
X159764649Y-116508521D02*
X159731316Y-116318045D01*
X159731316Y-116318045D02*
X159731316Y-115984712D01*
X159731316Y-115984712D02*
X159764649Y-115794236D01*
X159764649Y-115794236D02*
X159831316Y-115698998D01*
X159831316Y-115698998D02*
X159897983Y-115651379D01*
X138235350Y-121636140D02*
X138202017Y-121683760D01*
X138202017Y-121683760D02*
X138102017Y-121731379D01*
X138102017Y-121731379D02*
X138035350Y-121731379D01*
X138035350Y-121731379D02*
X137935350Y-121683760D01*
X137935350Y-121683760D02*
X137868684Y-121588521D01*
X137868684Y-121588521D02*
X137835350Y-121493283D01*
X137835350Y-121493283D02*
X137802017Y-121302807D01*
X137802017Y-121302807D02*
X137802017Y-121159950D01*
X137802017Y-121159950D02*
X137835350Y-120969474D01*
X137835350Y-120969474D02*
X137868684Y-120874236D01*
X137868684Y-120874236D02*
X137935350Y-120778998D01*
X137935350Y-120778998D02*
X138035350Y-120731379D01*
X138035350Y-120731379D02*
X138102017Y-120731379D01*
X138102017Y-120731379D02*
X138202017Y-120778998D01*
X138202017Y-120778998D02*
X138235350Y-120826617D01*
X138535350Y-121731379D02*
X138535350Y-120731379D01*
X138535350Y-120731379D02*
X138768684Y-121445664D01*
X138768684Y-121445664D02*
X139002017Y-120731379D01*
X139002017Y-120731379D02*
X139002017Y-121731379D01*
X139335350Y-121731379D02*
X139335350Y-120731379D01*
X139335350Y-120731379D02*
X139502017Y-120731379D01*
X139502017Y-120731379D02*
X139602017Y-120778998D01*
X139602017Y-120778998D02*
X139668684Y-120874236D01*
X139668684Y-120874236D02*
X139702017Y-120969474D01*
X139702017Y-120969474D02*
X139735350Y-121159950D01*
X139735350Y-121159950D02*
X139735350Y-121302807D01*
X139735350Y-121302807D02*
X139702017Y-121493283D01*
X139702017Y-121493283D02*
X139668684Y-121588521D01*
X139668684Y-121588521D02*
X139602017Y-121683760D01*
X139602017Y-121683760D02*
X139502017Y-121731379D01*
X139502017Y-121731379D02*
X139335350Y-121731379D01*
X153697983Y-85218998D02*
X153631316Y-85171379D01*
X153631316Y-85171379D02*
X153531316Y-85171379D01*
X153531316Y-85171379D02*
X153431316Y-85218998D01*
X153431316Y-85218998D02*
X153364650Y-85314236D01*
X153364650Y-85314236D02*
X153331316Y-85409474D01*
X153331316Y-85409474D02*
X153297983Y-85599950D01*
X153297983Y-85599950D02*
X153297983Y-85742807D01*
X153297983Y-85742807D02*
X153331316Y-85933283D01*
X153331316Y-85933283D02*
X153364650Y-86028521D01*
X153364650Y-86028521D02*
X153431316Y-86123760D01*
X153431316Y-86123760D02*
X153531316Y-86171379D01*
X153531316Y-86171379D02*
X153597983Y-86171379D01*
X153597983Y-86171379D02*
X153697983Y-86123760D01*
X153697983Y-86123760D02*
X153731316Y-86076140D01*
X153731316Y-86076140D02*
X153731316Y-85742807D01*
X153731316Y-85742807D02*
X153597983Y-85742807D01*
X154031316Y-86171379D02*
X154031316Y-85171379D01*
X154031316Y-85171379D02*
X154297983Y-85171379D01*
X154297983Y-85171379D02*
X154364650Y-85218998D01*
X154364650Y-85218998D02*
X154397983Y-85266617D01*
X154397983Y-85266617D02*
X154431316Y-85361855D01*
X154431316Y-85361855D02*
X154431316Y-85504712D01*
X154431316Y-85504712D02*
X154397983Y-85599950D01*
X154397983Y-85599950D02*
X154364650Y-85647569D01*
X154364650Y-85647569D02*
X154297983Y-85695188D01*
X154297983Y-85695188D02*
X154031316Y-85695188D01*
X154731316Y-86171379D02*
X154731316Y-85171379D01*
X155197983Y-85171379D02*
X155331316Y-85171379D01*
X155331316Y-85171379D02*
X155397983Y-85218998D01*
X155397983Y-85218998D02*
X155464649Y-85314236D01*
X155464649Y-85314236D02*
X155497983Y-85504712D01*
X155497983Y-85504712D02*
X155497983Y-85838045D01*
X155497983Y-85838045D02*
X155464649Y-86028521D01*
X155464649Y-86028521D02*
X155397983Y-86123760D01*
X155397983Y-86123760D02*
X155331316Y-86171379D01*
X155331316Y-86171379D02*
X155197983Y-86171379D01*
X155197983Y-86171379D02*
X155131316Y-86123760D01*
X155131316Y-86123760D02*
X155064649Y-86028521D01*
X155064649Y-86028521D02*
X155031316Y-85838045D01*
X155031316Y-85838045D02*
X155031316Y-85504712D01*
X155031316Y-85504712D02*
X155064649Y-85314236D01*
X155064649Y-85314236D02*
X155131316Y-85218998D01*
X155131316Y-85218998D02*
X155197983Y-85171379D01*
X156164649Y-86171379D02*
X155764649Y-86171379D01*
X155964649Y-86171379D02*
X155964649Y-85171379D01*
X155964649Y-85171379D02*
X155897982Y-85314236D01*
X155897982Y-85314236D02*
X155831316Y-85409474D01*
X155831316Y-85409474D02*
X155764649Y-85457093D01*
X156964649Y-85123760D02*
X156364649Y-86409474D01*
X157197982Y-85171379D02*
X157197982Y-85980902D01*
X157197982Y-85980902D02*
X157231316Y-86076140D01*
X157231316Y-86076140D02*
X157264649Y-86123760D01*
X157264649Y-86123760D02*
X157331316Y-86171379D01*
X157331316Y-86171379D02*
X157464649Y-86171379D01*
X157464649Y-86171379D02*
X157531316Y-86123760D01*
X157531316Y-86123760D02*
X157564649Y-86076140D01*
X157564649Y-86076140D02*
X157597982Y-85980902D01*
X157597982Y-85980902D02*
X157597982Y-85171379D01*
X158064649Y-85171379D02*
X158131315Y-85171379D01*
X158131315Y-85171379D02*
X158197982Y-85218998D01*
X158197982Y-85218998D02*
X158231315Y-85266617D01*
X158231315Y-85266617D02*
X158264649Y-85361855D01*
X158264649Y-85361855D02*
X158297982Y-85552331D01*
X158297982Y-85552331D02*
X158297982Y-85790426D01*
X158297982Y-85790426D02*
X158264649Y-85980902D01*
X158264649Y-85980902D02*
X158231315Y-86076140D01*
X158231315Y-86076140D02*
X158197982Y-86123760D01*
X158197982Y-86123760D02*
X158131315Y-86171379D01*
X158131315Y-86171379D02*
X158064649Y-86171379D01*
X158064649Y-86171379D02*
X157997982Y-86123760D01*
X157997982Y-86123760D02*
X157964649Y-86076140D01*
X157964649Y-86076140D02*
X157931315Y-85980902D01*
X157931315Y-85980902D02*
X157897982Y-85790426D01*
X157897982Y-85790426D02*
X157897982Y-85552331D01*
X157897982Y-85552331D02*
X157931315Y-85361855D01*
X157931315Y-85361855D02*
X157964649Y-85266617D01*
X157964649Y-85266617D02*
X157997982Y-85218998D01*
X157997982Y-85218998D02*
X158064649Y-85171379D01*
X158497982Y-85171379D02*
X158897982Y-85171379D01*
X158697982Y-86171379D02*
X158697982Y-85171379D01*
X159064649Y-85171379D02*
X159531315Y-86171379D01*
X159531315Y-85171379D02*
X159064649Y-86171379D01*
X159797982Y-86171379D02*
X159797982Y-85171379D01*
X159797982Y-85171379D02*
X159964649Y-85171379D01*
X159964649Y-85171379D02*
X160064649Y-85218998D01*
X160064649Y-85218998D02*
X160131316Y-85314236D01*
X160131316Y-85314236D02*
X160164649Y-85409474D01*
X160164649Y-85409474D02*
X160197982Y-85599950D01*
X160197982Y-85599950D02*
X160197982Y-85742807D01*
X160197982Y-85742807D02*
X160164649Y-85933283D01*
X160164649Y-85933283D02*
X160131316Y-86028521D01*
X160131316Y-86028521D02*
X160064649Y-86123760D01*
X160064649Y-86123760D02*
X159964649Y-86171379D01*
X159964649Y-86171379D02*
X159797982Y-86171379D01*
X157064649Y-80138998D02*
X156997982Y-80091379D01*
X156997982Y-80091379D02*
X156897982Y-80091379D01*
X156897982Y-80091379D02*
X156797982Y-80138998D01*
X156797982Y-80138998D02*
X156731316Y-80234236D01*
X156731316Y-80234236D02*
X156697982Y-80329474D01*
X156697982Y-80329474D02*
X156664649Y-80519950D01*
X156664649Y-80519950D02*
X156664649Y-80662807D01*
X156664649Y-80662807D02*
X156697982Y-80853283D01*
X156697982Y-80853283D02*
X156731316Y-80948521D01*
X156731316Y-80948521D02*
X156797982Y-81043760D01*
X156797982Y-81043760D02*
X156897982Y-81091379D01*
X156897982Y-81091379D02*
X156964649Y-81091379D01*
X156964649Y-81091379D02*
X157064649Y-81043760D01*
X157064649Y-81043760D02*
X157097982Y-80996140D01*
X157097982Y-80996140D02*
X157097982Y-80662807D01*
X157097982Y-80662807D02*
X156964649Y-80662807D01*
X157397982Y-81091379D02*
X157397982Y-80091379D01*
X157397982Y-80091379D02*
X157664649Y-80091379D01*
X157664649Y-80091379D02*
X157731316Y-80138998D01*
X157731316Y-80138998D02*
X157764649Y-80186617D01*
X157764649Y-80186617D02*
X157797982Y-80281855D01*
X157797982Y-80281855D02*
X157797982Y-80424712D01*
X157797982Y-80424712D02*
X157764649Y-80519950D01*
X157764649Y-80519950D02*
X157731316Y-80567569D01*
X157731316Y-80567569D02*
X157664649Y-80615188D01*
X157664649Y-80615188D02*
X157397982Y-80615188D01*
X158097982Y-81091379D02*
X158097982Y-80091379D01*
X158564649Y-80091379D02*
X158697982Y-80091379D01*
X158697982Y-80091379D02*
X158764649Y-80138998D01*
X158764649Y-80138998D02*
X158831315Y-80234236D01*
X158831315Y-80234236D02*
X158864649Y-80424712D01*
X158864649Y-80424712D02*
X158864649Y-80758045D01*
X158864649Y-80758045D02*
X158831315Y-80948521D01*
X158831315Y-80948521D02*
X158764649Y-81043760D01*
X158764649Y-81043760D02*
X158697982Y-81091379D01*
X158697982Y-81091379D02*
X158564649Y-81091379D01*
X158564649Y-81091379D02*
X158497982Y-81043760D01*
X158497982Y-81043760D02*
X158431315Y-80948521D01*
X158431315Y-80948521D02*
X158397982Y-80758045D01*
X158397982Y-80758045D02*
X158397982Y-80424712D01*
X158397982Y-80424712D02*
X158431315Y-80234236D01*
X158431315Y-80234236D02*
X158497982Y-80138998D01*
X158497982Y-80138998D02*
X158564649Y-80091379D01*
X159131315Y-80186617D02*
X159164648Y-80138998D01*
X159164648Y-80138998D02*
X159231315Y-80091379D01*
X159231315Y-80091379D02*
X159397982Y-80091379D01*
X159397982Y-80091379D02*
X159464648Y-80138998D01*
X159464648Y-80138998D02*
X159497982Y-80186617D01*
X159497982Y-80186617D02*
X159531315Y-80281855D01*
X159531315Y-80281855D02*
X159531315Y-80377093D01*
X159531315Y-80377093D02*
X159497982Y-80519950D01*
X159497982Y-80519950D02*
X159097982Y-81091379D01*
X159097982Y-81091379D02*
X159531315Y-81091379D01*
X159764649Y-80091379D02*
X160197982Y-80091379D01*
X160197982Y-80091379D02*
X159964649Y-80472331D01*
X159964649Y-80472331D02*
X160064649Y-80472331D01*
X160064649Y-80472331D02*
X160131315Y-80519950D01*
X160131315Y-80519950D02*
X160164649Y-80567569D01*
X160164649Y-80567569D02*
X160197982Y-80662807D01*
X160197982Y-80662807D02*
X160197982Y-80900902D01*
X160197982Y-80900902D02*
X160164649Y-80996140D01*
X160164649Y-80996140D02*
X160131315Y-81043760D01*
X160131315Y-81043760D02*
X160064649Y-81091379D01*
X160064649Y-81091379D02*
X159864649Y-81091379D01*
X159864649Y-81091379D02*
X159797982Y-81043760D01*
X159797982Y-81043760D02*
X159764649Y-80996140D01*
X138202017Y-95378998D02*
X138135350Y-95331379D01*
X138135350Y-95331379D02*
X138035350Y-95331379D01*
X138035350Y-95331379D02*
X137935350Y-95378998D01*
X137935350Y-95378998D02*
X137868684Y-95474236D01*
X137868684Y-95474236D02*
X137835350Y-95569474D01*
X137835350Y-95569474D02*
X137802017Y-95759950D01*
X137802017Y-95759950D02*
X137802017Y-95902807D01*
X137802017Y-95902807D02*
X137835350Y-96093283D01*
X137835350Y-96093283D02*
X137868684Y-96188521D01*
X137868684Y-96188521D02*
X137935350Y-96283760D01*
X137935350Y-96283760D02*
X138035350Y-96331379D01*
X138035350Y-96331379D02*
X138102017Y-96331379D01*
X138102017Y-96331379D02*
X138202017Y-96283760D01*
X138202017Y-96283760D02*
X138235350Y-96236140D01*
X138235350Y-96236140D02*
X138235350Y-95902807D01*
X138235350Y-95902807D02*
X138102017Y-95902807D01*
X138535350Y-96331379D02*
X138535350Y-95331379D01*
X138535350Y-95331379D02*
X138802017Y-95331379D01*
X138802017Y-95331379D02*
X138868684Y-95378998D01*
X138868684Y-95378998D02*
X138902017Y-95426617D01*
X138902017Y-95426617D02*
X138935350Y-95521855D01*
X138935350Y-95521855D02*
X138935350Y-95664712D01*
X138935350Y-95664712D02*
X138902017Y-95759950D01*
X138902017Y-95759950D02*
X138868684Y-95807569D01*
X138868684Y-95807569D02*
X138802017Y-95855188D01*
X138802017Y-95855188D02*
X138535350Y-95855188D01*
X139235350Y-96331379D02*
X139235350Y-95331379D01*
X139702017Y-95331379D02*
X139835350Y-95331379D01*
X139835350Y-95331379D02*
X139902017Y-95378998D01*
X139902017Y-95378998D02*
X139968683Y-95474236D01*
X139968683Y-95474236D02*
X140002017Y-95664712D01*
X140002017Y-95664712D02*
X140002017Y-95998045D01*
X140002017Y-95998045D02*
X139968683Y-96188521D01*
X139968683Y-96188521D02*
X139902017Y-96283760D01*
X139902017Y-96283760D02*
X139835350Y-96331379D01*
X139835350Y-96331379D02*
X139702017Y-96331379D01*
X139702017Y-96331379D02*
X139635350Y-96283760D01*
X139635350Y-96283760D02*
X139568683Y-96188521D01*
X139568683Y-96188521D02*
X139535350Y-95998045D01*
X139535350Y-95998045D02*
X139535350Y-95664712D01*
X139535350Y-95664712D02*
X139568683Y-95474236D01*
X139568683Y-95474236D02*
X139635350Y-95378998D01*
X139635350Y-95378998D02*
X139702017Y-95331379D01*
X140235350Y-95331379D02*
X140668683Y-95331379D01*
X140668683Y-95331379D02*
X140435350Y-95712331D01*
X140435350Y-95712331D02*
X140535350Y-95712331D01*
X140535350Y-95712331D02*
X140602016Y-95759950D01*
X140602016Y-95759950D02*
X140635350Y-95807569D01*
X140635350Y-95807569D02*
X140668683Y-95902807D01*
X140668683Y-95902807D02*
X140668683Y-96140902D01*
X140668683Y-96140902D02*
X140635350Y-96236140D01*
X140635350Y-96236140D02*
X140602016Y-96283760D01*
X140602016Y-96283760D02*
X140535350Y-96331379D01*
X140535350Y-96331379D02*
X140335350Y-96331379D01*
X140335350Y-96331379D02*
X140268683Y-96283760D01*
X140268683Y-96283760D02*
X140235350Y-96236140D01*
X140902017Y-95331379D02*
X141335350Y-95331379D01*
X141335350Y-95331379D02*
X141102017Y-95712331D01*
X141102017Y-95712331D02*
X141202017Y-95712331D01*
X141202017Y-95712331D02*
X141268683Y-95759950D01*
X141268683Y-95759950D02*
X141302017Y-95807569D01*
X141302017Y-95807569D02*
X141335350Y-95902807D01*
X141335350Y-95902807D02*
X141335350Y-96140902D01*
X141335350Y-96140902D02*
X141302017Y-96236140D01*
X141302017Y-96236140D02*
X141268683Y-96283760D01*
X141268683Y-96283760D02*
X141202017Y-96331379D01*
X141202017Y-96331379D02*
X141002017Y-96331379D01*
X141002017Y-96331379D02*
X140935350Y-96283760D01*
X140935350Y-96283760D02*
X140902017Y-96236140D01*
X137835350Y-119191379D02*
X137835350Y-118191379D01*
X137835350Y-118191379D02*
X138002017Y-118191379D01*
X138002017Y-118191379D02*
X138102017Y-118238998D01*
X138102017Y-118238998D02*
X138168684Y-118334236D01*
X138168684Y-118334236D02*
X138202017Y-118429474D01*
X138202017Y-118429474D02*
X138235350Y-118619950D01*
X138235350Y-118619950D02*
X138235350Y-118762807D01*
X138235350Y-118762807D02*
X138202017Y-118953283D01*
X138202017Y-118953283D02*
X138168684Y-119048521D01*
X138168684Y-119048521D02*
X138102017Y-119143760D01*
X138102017Y-119143760D02*
X138002017Y-119191379D01*
X138002017Y-119191379D02*
X137835350Y-119191379D01*
X138468684Y-118191379D02*
X138902017Y-118191379D01*
X138902017Y-118191379D02*
X138668684Y-118572331D01*
X138668684Y-118572331D02*
X138768684Y-118572331D01*
X138768684Y-118572331D02*
X138835350Y-118619950D01*
X138835350Y-118619950D02*
X138868684Y-118667569D01*
X138868684Y-118667569D02*
X138902017Y-118762807D01*
X138902017Y-118762807D02*
X138902017Y-119000902D01*
X138902017Y-119000902D02*
X138868684Y-119096140D01*
X138868684Y-119096140D02*
X138835350Y-119143760D01*
X138835350Y-119143760D02*
X138768684Y-119191379D01*
X138768684Y-119191379D02*
X138568684Y-119191379D01*
X138568684Y-119191379D02*
X138502017Y-119143760D01*
X138502017Y-119143760D02*
X138468684Y-119096140D01*
X138202017Y-108078998D02*
X138135350Y-108031379D01*
X138135350Y-108031379D02*
X138035350Y-108031379D01*
X138035350Y-108031379D02*
X137935350Y-108078998D01*
X137935350Y-108078998D02*
X137868684Y-108174236D01*
X137868684Y-108174236D02*
X137835350Y-108269474D01*
X137835350Y-108269474D02*
X137802017Y-108459950D01*
X137802017Y-108459950D02*
X137802017Y-108602807D01*
X137802017Y-108602807D02*
X137835350Y-108793283D01*
X137835350Y-108793283D02*
X137868684Y-108888521D01*
X137868684Y-108888521D02*
X137935350Y-108983760D01*
X137935350Y-108983760D02*
X138035350Y-109031379D01*
X138035350Y-109031379D02*
X138102017Y-109031379D01*
X138102017Y-109031379D02*
X138202017Y-108983760D01*
X138202017Y-108983760D02*
X138235350Y-108936140D01*
X138235350Y-108936140D02*
X138235350Y-108602807D01*
X138235350Y-108602807D02*
X138102017Y-108602807D01*
X138535350Y-109031379D02*
X138535350Y-108031379D01*
X138535350Y-108031379D02*
X138802017Y-108031379D01*
X138802017Y-108031379D02*
X138868684Y-108078998D01*
X138868684Y-108078998D02*
X138902017Y-108126617D01*
X138902017Y-108126617D02*
X138935350Y-108221855D01*
X138935350Y-108221855D02*
X138935350Y-108364712D01*
X138935350Y-108364712D02*
X138902017Y-108459950D01*
X138902017Y-108459950D02*
X138868684Y-108507569D01*
X138868684Y-108507569D02*
X138802017Y-108555188D01*
X138802017Y-108555188D02*
X138535350Y-108555188D01*
X139235350Y-109031379D02*
X139235350Y-108031379D01*
X139702017Y-108031379D02*
X139835350Y-108031379D01*
X139835350Y-108031379D02*
X139902017Y-108078998D01*
X139902017Y-108078998D02*
X139968683Y-108174236D01*
X139968683Y-108174236D02*
X140002017Y-108364712D01*
X140002017Y-108364712D02*
X140002017Y-108698045D01*
X140002017Y-108698045D02*
X139968683Y-108888521D01*
X139968683Y-108888521D02*
X139902017Y-108983760D01*
X139902017Y-108983760D02*
X139835350Y-109031379D01*
X139835350Y-109031379D02*
X139702017Y-109031379D01*
X139702017Y-109031379D02*
X139635350Y-108983760D01*
X139635350Y-108983760D02*
X139568683Y-108888521D01*
X139568683Y-108888521D02*
X139535350Y-108698045D01*
X139535350Y-108698045D02*
X139535350Y-108364712D01*
X139535350Y-108364712D02*
X139568683Y-108174236D01*
X139568683Y-108174236D02*
X139635350Y-108078998D01*
X139635350Y-108078998D02*
X139702017Y-108031379D01*
X140668683Y-109031379D02*
X140268683Y-109031379D01*
X140468683Y-109031379D02*
X140468683Y-108031379D01*
X140468683Y-108031379D02*
X140402016Y-108174236D01*
X140402016Y-108174236D02*
X140335350Y-108269474D01*
X140335350Y-108269474D02*
X140268683Y-108317093D01*
X140935350Y-108126617D02*
X140968683Y-108078998D01*
X140968683Y-108078998D02*
X141035350Y-108031379D01*
X141035350Y-108031379D02*
X141202017Y-108031379D01*
X141202017Y-108031379D02*
X141268683Y-108078998D01*
X141268683Y-108078998D02*
X141302017Y-108126617D01*
X141302017Y-108126617D02*
X141335350Y-108221855D01*
X141335350Y-108221855D02*
X141335350Y-108317093D01*
X141335350Y-108317093D02*
X141302017Y-108459950D01*
X141302017Y-108459950D02*
X140902017Y-109031379D01*
X140902017Y-109031379D02*
X141335350Y-109031379D01*
X142135350Y-107983760D02*
X141535350Y-109269474D01*
X142368683Y-109031379D02*
X142368683Y-108031379D01*
X142368683Y-108031379D02*
X142602017Y-108745664D01*
X142602017Y-108745664D02*
X142835350Y-108031379D01*
X142835350Y-108031379D02*
X142835350Y-109031379D01*
X143068683Y-108031379D02*
X143468683Y-108031379D01*
X143268683Y-109031379D02*
X143268683Y-108031379D01*
X143702016Y-109031379D02*
X143702016Y-108031379D01*
X143702016Y-108031379D02*
X143868683Y-108031379D01*
X143868683Y-108031379D02*
X143968683Y-108078998D01*
X143968683Y-108078998D02*
X144035350Y-108174236D01*
X144035350Y-108174236D02*
X144068683Y-108269474D01*
X144068683Y-108269474D02*
X144102016Y-108459950D01*
X144102016Y-108459950D02*
X144102016Y-108602807D01*
X144102016Y-108602807D02*
X144068683Y-108793283D01*
X144068683Y-108793283D02*
X144035350Y-108888521D01*
X144035350Y-108888521D02*
X143968683Y-108983760D01*
X143968683Y-108983760D02*
X143868683Y-109031379D01*
X143868683Y-109031379D02*
X143702016Y-109031379D01*
X144402016Y-109031379D02*
X144402016Y-108031379D01*
X138202017Y-102998998D02*
X138135350Y-102951379D01*
X138135350Y-102951379D02*
X138035350Y-102951379D01*
X138035350Y-102951379D02*
X137935350Y-102998998D01*
X137935350Y-102998998D02*
X137868684Y-103094236D01*
X137868684Y-103094236D02*
X137835350Y-103189474D01*
X137835350Y-103189474D02*
X137802017Y-103379950D01*
X137802017Y-103379950D02*
X137802017Y-103522807D01*
X137802017Y-103522807D02*
X137835350Y-103713283D01*
X137835350Y-103713283D02*
X137868684Y-103808521D01*
X137868684Y-103808521D02*
X137935350Y-103903760D01*
X137935350Y-103903760D02*
X138035350Y-103951379D01*
X138035350Y-103951379D02*
X138102017Y-103951379D01*
X138102017Y-103951379D02*
X138202017Y-103903760D01*
X138202017Y-103903760D02*
X138235350Y-103856140D01*
X138235350Y-103856140D02*
X138235350Y-103522807D01*
X138235350Y-103522807D02*
X138102017Y-103522807D01*
X138535350Y-103951379D02*
X138535350Y-102951379D01*
X138535350Y-102951379D02*
X138802017Y-102951379D01*
X138802017Y-102951379D02*
X138868684Y-102998998D01*
X138868684Y-102998998D02*
X138902017Y-103046617D01*
X138902017Y-103046617D02*
X138935350Y-103141855D01*
X138935350Y-103141855D02*
X138935350Y-103284712D01*
X138935350Y-103284712D02*
X138902017Y-103379950D01*
X138902017Y-103379950D02*
X138868684Y-103427569D01*
X138868684Y-103427569D02*
X138802017Y-103475188D01*
X138802017Y-103475188D02*
X138535350Y-103475188D01*
X139235350Y-103951379D02*
X139235350Y-102951379D01*
X139702017Y-102951379D02*
X139835350Y-102951379D01*
X139835350Y-102951379D02*
X139902017Y-102998998D01*
X139902017Y-102998998D02*
X139968683Y-103094236D01*
X139968683Y-103094236D02*
X140002017Y-103284712D01*
X140002017Y-103284712D02*
X140002017Y-103618045D01*
X140002017Y-103618045D02*
X139968683Y-103808521D01*
X139968683Y-103808521D02*
X139902017Y-103903760D01*
X139902017Y-103903760D02*
X139835350Y-103951379D01*
X139835350Y-103951379D02*
X139702017Y-103951379D01*
X139702017Y-103951379D02*
X139635350Y-103903760D01*
X139635350Y-103903760D02*
X139568683Y-103808521D01*
X139568683Y-103808521D02*
X139535350Y-103618045D01*
X139535350Y-103618045D02*
X139535350Y-103284712D01*
X139535350Y-103284712D02*
X139568683Y-103094236D01*
X139568683Y-103094236D02*
X139635350Y-102998998D01*
X139635350Y-102998998D02*
X139702017Y-102951379D01*
X140268683Y-103046617D02*
X140302016Y-102998998D01*
X140302016Y-102998998D02*
X140368683Y-102951379D01*
X140368683Y-102951379D02*
X140535350Y-102951379D01*
X140535350Y-102951379D02*
X140602016Y-102998998D01*
X140602016Y-102998998D02*
X140635350Y-103046617D01*
X140635350Y-103046617D02*
X140668683Y-103141855D01*
X140668683Y-103141855D02*
X140668683Y-103237093D01*
X140668683Y-103237093D02*
X140635350Y-103379950D01*
X140635350Y-103379950D02*
X140235350Y-103951379D01*
X140235350Y-103951379D02*
X140668683Y-103951379D01*
X140902017Y-102951379D02*
X141368683Y-102951379D01*
X141368683Y-102951379D02*
X141068683Y-103951379D01*
X157064649Y-105538998D02*
X156997982Y-105491379D01*
X156997982Y-105491379D02*
X156897982Y-105491379D01*
X156897982Y-105491379D02*
X156797982Y-105538998D01*
X156797982Y-105538998D02*
X156731316Y-105634236D01*
X156731316Y-105634236D02*
X156697982Y-105729474D01*
X156697982Y-105729474D02*
X156664649Y-105919950D01*
X156664649Y-105919950D02*
X156664649Y-106062807D01*
X156664649Y-106062807D02*
X156697982Y-106253283D01*
X156697982Y-106253283D02*
X156731316Y-106348521D01*
X156731316Y-106348521D02*
X156797982Y-106443760D01*
X156797982Y-106443760D02*
X156897982Y-106491379D01*
X156897982Y-106491379D02*
X156964649Y-106491379D01*
X156964649Y-106491379D02*
X157064649Y-106443760D01*
X157064649Y-106443760D02*
X157097982Y-106396140D01*
X157097982Y-106396140D02*
X157097982Y-106062807D01*
X157097982Y-106062807D02*
X156964649Y-106062807D01*
X157397982Y-106491379D02*
X157397982Y-105491379D01*
X157397982Y-105491379D02*
X157664649Y-105491379D01*
X157664649Y-105491379D02*
X157731316Y-105538998D01*
X157731316Y-105538998D02*
X157764649Y-105586617D01*
X157764649Y-105586617D02*
X157797982Y-105681855D01*
X157797982Y-105681855D02*
X157797982Y-105824712D01*
X157797982Y-105824712D02*
X157764649Y-105919950D01*
X157764649Y-105919950D02*
X157731316Y-105967569D01*
X157731316Y-105967569D02*
X157664649Y-106015188D01*
X157664649Y-106015188D02*
X157397982Y-106015188D01*
X158097982Y-106491379D02*
X158097982Y-105491379D01*
X158564649Y-105491379D02*
X158697982Y-105491379D01*
X158697982Y-105491379D02*
X158764649Y-105538998D01*
X158764649Y-105538998D02*
X158831315Y-105634236D01*
X158831315Y-105634236D02*
X158864649Y-105824712D01*
X158864649Y-105824712D02*
X158864649Y-106158045D01*
X158864649Y-106158045D02*
X158831315Y-106348521D01*
X158831315Y-106348521D02*
X158764649Y-106443760D01*
X158764649Y-106443760D02*
X158697982Y-106491379D01*
X158697982Y-106491379D02*
X158564649Y-106491379D01*
X158564649Y-106491379D02*
X158497982Y-106443760D01*
X158497982Y-106443760D02*
X158431315Y-106348521D01*
X158431315Y-106348521D02*
X158397982Y-106158045D01*
X158397982Y-106158045D02*
X158397982Y-105824712D01*
X158397982Y-105824712D02*
X158431315Y-105634236D01*
X158431315Y-105634236D02*
X158497982Y-105538998D01*
X158497982Y-105538998D02*
X158564649Y-105491379D01*
X159531315Y-106491379D02*
X159131315Y-106491379D01*
X159331315Y-106491379D02*
X159331315Y-105491379D01*
X159331315Y-105491379D02*
X159264648Y-105634236D01*
X159264648Y-105634236D02*
X159197982Y-105729474D01*
X159197982Y-105729474D02*
X159131315Y-105777093D01*
X160131315Y-105491379D02*
X159997982Y-105491379D01*
X159997982Y-105491379D02*
X159931315Y-105538998D01*
X159931315Y-105538998D02*
X159897982Y-105586617D01*
X159897982Y-105586617D02*
X159831315Y-105729474D01*
X159831315Y-105729474D02*
X159797982Y-105919950D01*
X159797982Y-105919950D02*
X159797982Y-106300902D01*
X159797982Y-106300902D02*
X159831315Y-106396140D01*
X159831315Y-106396140D02*
X159864649Y-106443760D01*
X159864649Y-106443760D02*
X159931315Y-106491379D01*
X159931315Y-106491379D02*
X160064649Y-106491379D01*
X160064649Y-106491379D02*
X160131315Y-106443760D01*
X160131315Y-106443760D02*
X160164649Y-106396140D01*
X160164649Y-106396140D02*
X160197982Y-106300902D01*
X160197982Y-106300902D02*
X160197982Y-106062807D01*
X160197982Y-106062807D02*
X160164649Y-105967569D01*
X160164649Y-105967569D02*
X160131315Y-105919950D01*
X160131315Y-105919950D02*
X160064649Y-105872331D01*
X160064649Y-105872331D02*
X159931315Y-105872331D01*
X159931315Y-105872331D02*
X159864649Y-105919950D01*
X159864649Y-105919950D02*
X159831315Y-105967569D01*
X159831315Y-105967569D02*
X159797982Y-106062807D01*
X138202017Y-87758998D02*
X138135350Y-87711379D01*
X138135350Y-87711379D02*
X138035350Y-87711379D01*
X138035350Y-87711379D02*
X137935350Y-87758998D01*
X137935350Y-87758998D02*
X137868684Y-87854236D01*
X137868684Y-87854236D02*
X137835350Y-87949474D01*
X137835350Y-87949474D02*
X137802017Y-88139950D01*
X137802017Y-88139950D02*
X137802017Y-88282807D01*
X137802017Y-88282807D02*
X137835350Y-88473283D01*
X137835350Y-88473283D02*
X137868684Y-88568521D01*
X137868684Y-88568521D02*
X137935350Y-88663760D01*
X137935350Y-88663760D02*
X138035350Y-88711379D01*
X138035350Y-88711379D02*
X138102017Y-88711379D01*
X138102017Y-88711379D02*
X138202017Y-88663760D01*
X138202017Y-88663760D02*
X138235350Y-88616140D01*
X138235350Y-88616140D02*
X138235350Y-88282807D01*
X138235350Y-88282807D02*
X138102017Y-88282807D01*
X138535350Y-88711379D02*
X138535350Y-87711379D01*
X138535350Y-87711379D02*
X138802017Y-87711379D01*
X138802017Y-87711379D02*
X138868684Y-87758998D01*
X138868684Y-87758998D02*
X138902017Y-87806617D01*
X138902017Y-87806617D02*
X138935350Y-87901855D01*
X138935350Y-87901855D02*
X138935350Y-88044712D01*
X138935350Y-88044712D02*
X138902017Y-88139950D01*
X138902017Y-88139950D02*
X138868684Y-88187569D01*
X138868684Y-88187569D02*
X138802017Y-88235188D01*
X138802017Y-88235188D02*
X138535350Y-88235188D01*
X139235350Y-88711379D02*
X139235350Y-87711379D01*
X139702017Y-87711379D02*
X139835350Y-87711379D01*
X139835350Y-87711379D02*
X139902017Y-87758998D01*
X139902017Y-87758998D02*
X139968683Y-87854236D01*
X139968683Y-87854236D02*
X140002017Y-88044712D01*
X140002017Y-88044712D02*
X140002017Y-88378045D01*
X140002017Y-88378045D02*
X139968683Y-88568521D01*
X139968683Y-88568521D02*
X139902017Y-88663760D01*
X139902017Y-88663760D02*
X139835350Y-88711379D01*
X139835350Y-88711379D02*
X139702017Y-88711379D01*
X139702017Y-88711379D02*
X139635350Y-88663760D01*
X139635350Y-88663760D02*
X139568683Y-88568521D01*
X139568683Y-88568521D02*
X139535350Y-88378045D01*
X139535350Y-88378045D02*
X139535350Y-88044712D01*
X139535350Y-88044712D02*
X139568683Y-87854236D01*
X139568683Y-87854236D02*
X139635350Y-87758998D01*
X139635350Y-87758998D02*
X139702017Y-87711379D01*
X140235350Y-87711379D02*
X140668683Y-87711379D01*
X140668683Y-87711379D02*
X140435350Y-88092331D01*
X140435350Y-88092331D02*
X140535350Y-88092331D01*
X140535350Y-88092331D02*
X140602016Y-88139950D01*
X140602016Y-88139950D02*
X140635350Y-88187569D01*
X140635350Y-88187569D02*
X140668683Y-88282807D01*
X140668683Y-88282807D02*
X140668683Y-88520902D01*
X140668683Y-88520902D02*
X140635350Y-88616140D01*
X140635350Y-88616140D02*
X140602016Y-88663760D01*
X140602016Y-88663760D02*
X140535350Y-88711379D01*
X140535350Y-88711379D02*
X140335350Y-88711379D01*
X140335350Y-88711379D02*
X140268683Y-88663760D01*
X140268683Y-88663760D02*
X140235350Y-88616140D01*
X141268683Y-88044712D02*
X141268683Y-88711379D01*
X141102017Y-87663760D02*
X140935350Y-88378045D01*
X140935350Y-88378045D02*
X141368683Y-88378045D01*
X158931315Y-124176140D02*
X158897982Y-124223760D01*
X158897982Y-124223760D02*
X158797982Y-124271379D01*
X158797982Y-124271379D02*
X158731315Y-124271379D01*
X158731315Y-124271379D02*
X158631315Y-124223760D01*
X158631315Y-124223760D02*
X158564649Y-124128521D01*
X158564649Y-124128521D02*
X158531315Y-124033283D01*
X158531315Y-124033283D02*
X158497982Y-123842807D01*
X158497982Y-123842807D02*
X158497982Y-123699950D01*
X158497982Y-123699950D02*
X158531315Y-123509474D01*
X158531315Y-123509474D02*
X158564649Y-123414236D01*
X158564649Y-123414236D02*
X158631315Y-123318998D01*
X158631315Y-123318998D02*
X158731315Y-123271379D01*
X158731315Y-123271379D02*
X158797982Y-123271379D01*
X158797982Y-123271379D02*
X158897982Y-123318998D01*
X158897982Y-123318998D02*
X158931315Y-123366617D01*
X159564649Y-124271379D02*
X159231315Y-124271379D01*
X159231315Y-124271379D02*
X159231315Y-123271379D01*
X159797982Y-124271379D02*
X159797982Y-123271379D01*
X160197982Y-124271379D02*
X159897982Y-123699950D01*
X160197982Y-123271379D02*
X159797982Y-123842807D01*
X125682333Y-86180819D02*
X125349000Y-85704628D01*
X125110905Y-86180819D02*
X125110905Y-85180819D01*
X125110905Y-85180819D02*
X125491857Y-85180819D01*
X125491857Y-85180819D02*
X125587095Y-85228438D01*
X125587095Y-85228438D02*
X125634714Y-85276057D01*
X125634714Y-85276057D02*
X125682333Y-85371295D01*
X125682333Y-85371295D02*
X125682333Y-85514152D01*
X125682333Y-85514152D02*
X125634714Y-85609390D01*
X125634714Y-85609390D02*
X125587095Y-85657009D01*
X125587095Y-85657009D02*
X125491857Y-85704628D01*
X125491857Y-85704628D02*
X125110905Y-85704628D01*
X126063286Y-85276057D02*
X126110905Y-85228438D01*
X126110905Y-85228438D02*
X126206143Y-85180819D01*
X126206143Y-85180819D02*
X126444238Y-85180819D01*
X126444238Y-85180819D02*
X126539476Y-85228438D01*
X126539476Y-85228438D02*
X126587095Y-85276057D01*
X126587095Y-85276057D02*
X126634714Y-85371295D01*
X126634714Y-85371295D02*
X126634714Y-85466533D01*
X126634714Y-85466533D02*
X126587095Y-85609390D01*
X126587095Y-85609390D02*
X126015667Y-86180819D01*
X126015667Y-86180819D02*
X126634714Y-86180819D01*
X106454819Y-84873333D02*
X107169104Y-84873333D01*
X107169104Y-84873333D02*
X107311961Y-84920952D01*
X107311961Y-84920952D02*
X107407200Y-85016190D01*
X107407200Y-85016190D02*
X107454819Y-85159047D01*
X107454819Y-85159047D02*
X107454819Y-85254285D01*
X106454819Y-84492380D02*
X106454819Y-83873333D01*
X106454819Y-83873333D02*
X106835771Y-84206666D01*
X106835771Y-84206666D02*
X106835771Y-84063809D01*
X106835771Y-84063809D02*
X106883390Y-83968571D01*
X106883390Y-83968571D02*
X106931009Y-83920952D01*
X106931009Y-83920952D02*
X107026247Y-83873333D01*
X107026247Y-83873333D02*
X107264342Y-83873333D01*
X107264342Y-83873333D02*
X107359580Y-83920952D01*
X107359580Y-83920952D02*
X107407200Y-83968571D01*
X107407200Y-83968571D02*
X107454819Y-84063809D01*
X107454819Y-84063809D02*
X107454819Y-84349523D01*
X107454819Y-84349523D02*
X107407200Y-84444761D01*
X107407200Y-84444761D02*
X107359580Y-84492380D01*
X125833333Y-91824819D02*
X125500000Y-91348628D01*
X125261905Y-91824819D02*
X125261905Y-90824819D01*
X125261905Y-90824819D02*
X125642857Y-90824819D01*
X125642857Y-90824819D02*
X125738095Y-90872438D01*
X125738095Y-90872438D02*
X125785714Y-90920057D01*
X125785714Y-90920057D02*
X125833333Y-91015295D01*
X125833333Y-91015295D02*
X125833333Y-91158152D01*
X125833333Y-91158152D02*
X125785714Y-91253390D01*
X125785714Y-91253390D02*
X125738095Y-91301009D01*
X125738095Y-91301009D02*
X125642857Y-91348628D01*
X125642857Y-91348628D02*
X125261905Y-91348628D01*
X126166667Y-90824819D02*
X126785714Y-90824819D01*
X126785714Y-90824819D02*
X126452381Y-91205771D01*
X126452381Y-91205771D02*
X126595238Y-91205771D01*
X126595238Y-91205771D02*
X126690476Y-91253390D01*
X126690476Y-91253390D02*
X126738095Y-91301009D01*
X126738095Y-91301009D02*
X126785714Y-91396247D01*
X126785714Y-91396247D02*
X126785714Y-91634342D01*
X126785714Y-91634342D02*
X126738095Y-91729580D01*
X126738095Y-91729580D02*
X126690476Y-91777200D01*
X126690476Y-91777200D02*
X126595238Y-91824819D01*
X126595238Y-91824819D02*
X126309524Y-91824819D01*
X126309524Y-91824819D02*
X126214286Y-91777200D01*
X126214286Y-91777200D02*
X126166667Y-91729580D01*
D12*
X105620000Y-119270000D02*
X105620000Y-114080000D01*
X108380000Y-114080000D02*
X105620000Y-114080000D01*
X108380000Y-119270000D02*
X105620000Y-119270000D01*
X108380000Y-119270000D02*
X108380000Y-114080000D01*
X108380000Y-120540000D02*
X108380000Y-121920000D01*
X108380000Y-121920000D02*
X107000000Y-121920000D01*
X170080000Y-81620000D02*
X170080000Y-84380000D01*
X172730000Y-81620000D02*
X170080000Y-81620000D01*
X172730000Y-81620000D02*
X172730000Y-84380000D01*
X172730000Y-84380000D02*
X170080000Y-84380000D01*
X174000000Y-81620000D02*
X175380000Y-81620000D01*
X175380000Y-81620000D02*
X175380000Y-83000000D01*
X115430000Y-107350000D02*
X119030000Y-107350000D01*
X115391522Y-107338478D02*
G75*
G02*
X117230000Y-102899999I1838478J1838478D01*
G01*
X117230000Y-102900000D02*
G75*
G02*
X119068478Y-107338478I0J-2600000D01*
G01*
X121355000Y-72620000D02*
X121355000Y-75380000D01*
X124005000Y-72620000D02*
X121355000Y-72620000D01*
X124005000Y-72620000D02*
X124005000Y-75380000D01*
X124005000Y-75380000D02*
X121355000Y-75380000D01*
X125275000Y-72620000D02*
X126655000Y-72620000D01*
X126655000Y-72620000D02*
X126655000Y-74000000D01*
X123000000Y-112750000D02*
X123000000Y-114250000D01*
X124250000Y-116750000D02*
X128750000Y-116750000D01*
X128750000Y-110250000D02*
X124250000Y-110250000D01*
X130000000Y-114250000D02*
X130000000Y-112750000D01*
X118845000Y-125880000D02*
X118845000Y-124500000D01*
X120225000Y-125880000D02*
X118845000Y-125880000D01*
X121495000Y-123120000D02*
X124145000Y-123120000D01*
X121495000Y-125880000D02*
X121495000Y-123120000D01*
X121495000Y-125880000D02*
X124145000Y-125880000D01*
X124145000Y-125880000D02*
X124145000Y-123120000D01*
X169730000Y-93483000D02*
X176270000Y-93483000D01*
X169730000Y-93813000D02*
X169730000Y-93483000D01*
X169730000Y-95893000D02*
X169730000Y-96223000D01*
X169730000Y-96223000D02*
X176270000Y-96223000D01*
X176270000Y-93483000D02*
X176270000Y-93813000D01*
X176270000Y-96223000D02*
X176270000Y-95893000D01*
X122579000Y-92986000D02*
X122579000Y-93316000D01*
X122579000Y-95726000D02*
X122579000Y-95396000D01*
X129119000Y-92986000D02*
X122579000Y-92986000D01*
X129119000Y-93316000D02*
X129119000Y-92986000D01*
X129119000Y-95396000D02*
X129119000Y-95726000D01*
X129119000Y-95726000D02*
X122579000Y-95726000D01*
X122670000Y-100955000D02*
X122670000Y-104045000D01*
X122670000Y-100955170D02*
G75*
G02*
X128220000Y-102500000I2560000J-1544830D01*
G01*
X128220000Y-102500000D02*
G75*
G02*
X122670000Y-104044830I-2990000J0D01*
G01*
X127730000Y-102500000D02*
G75*
G02*
X122730000Y-102500000I-2500000J0D01*
G01*
X122730000Y-102500000D02*
G75*
G02*
X127730000Y-102500000I2500000J0D01*
G01*
X115200000Y-98850000D02*
X118800000Y-98850000D01*
X115161522Y-98838478D02*
G75*
G02*
X117000000Y-94399999I1838478J1838478D01*
G01*
X117000000Y-94400000D02*
G75*
G02*
X118838478Y-98838478I0J-2600000D01*
G01*
X169730000Y-113155000D02*
X176270000Y-113155000D01*
X169730000Y-113485000D02*
X169730000Y-113155000D01*
X169730000Y-115565000D02*
X169730000Y-115895000D01*
X169730000Y-115895000D02*
X176270000Y-115895000D01*
X176270000Y-113155000D02*
X176270000Y-113485000D01*
X176270000Y-115895000D02*
X176270000Y-115565000D01*
X105620000Y-98770000D02*
X105620000Y-93580000D01*
X108380000Y-93580000D02*
X105620000Y-93580000D01*
X108380000Y-98770000D02*
X105620000Y-98770000D01*
X108380000Y-98770000D02*
X108380000Y-93580000D01*
X108380000Y-100040000D02*
X108380000Y-101420000D01*
X108380000Y-101420000D02*
X107000000Y-101420000D01*
X170440000Y-104000000D02*
X170440000Y-102050000D01*
X170440000Y-104000000D02*
X170440000Y-105950000D01*
X175560000Y-104000000D02*
X175560000Y-102050000D01*
X175560000Y-104000000D02*
X175560000Y-105950000D01*
X170535000Y-106700000D02*
X170205000Y-106940000D01*
X170205000Y-106460000D01*
X170535000Y-106700000D01*
G36*
X170535000Y-106700000D02*
G01*
X170205000Y-106940000D01*
X170205000Y-106460000D01*
X170535000Y-106700000D01*
G37*
X134800000Y-124916560D02*
X163199999Y-124916560D01*
X134800001Y-76996560D02*
X134800000Y-124916560D01*
X140030120Y-71083440D02*
X158013320Y-71083440D01*
X140030120Y-76976240D02*
X140030120Y-71083440D01*
X158013320Y-71083440D02*
X158013320Y-76976240D01*
X163199999Y-124916560D02*
X163200000Y-76996560D01*
X163200000Y-76996560D02*
X134800001Y-76996560D01*
X122579000Y-81986000D02*
X122579000Y-82316000D01*
X122579000Y-84726000D02*
X122579000Y-84396000D01*
X129119000Y-81986000D02*
X122579000Y-81986000D01*
X129119000Y-82316000D02*
X129119000Y-81986000D01*
X129119000Y-84396000D02*
X129119000Y-84726000D01*
X129119000Y-84726000D02*
X122579000Y-84726000D01*
X105620000Y-80350000D02*
X105620000Y-72620000D01*
X108380000Y-72620000D02*
X105620000Y-72620000D01*
X108380000Y-80350000D02*
X105620000Y-80350000D01*
X108380000Y-80350000D02*
X108380000Y-72620000D01*
X108380000Y-81620000D02*
X108380000Y-83000000D01*
X108380000Y-83000000D02*
X107000000Y-83000000D01*
X122730000Y-87630000D02*
X122730000Y-87960000D01*
X122730000Y-90370000D02*
X122730000Y-90040000D01*
X129270000Y-87630000D02*
X122730000Y-87630000D01*
X129270000Y-87960000D02*
X129270000Y-87630000D01*
X129270000Y-90040000D02*
X129270000Y-90370000D01*
X129270000Y-90370000D02*
X122730000Y-90370000D01*
%LPC*%
D13*
X107000000Y-120540000D03*
D14*
X107000000Y-118000000D03*
X107000000Y-115460000D03*
D13*
X174000000Y-83000000D03*
D14*
X171460000Y-83000000D03*
D15*
X115960000Y-105500000D03*
D16*
X117230000Y-105500000D03*
X118500000Y-105500000D03*
D13*
X125275000Y-74000000D03*
D14*
X122735000Y-74000000D03*
D17*
X123250000Y-111250000D03*
X129750000Y-111250000D03*
X123250000Y-115750000D03*
X129750000Y-115750000D03*
D18*
X111000000Y-88000000D03*
D13*
X120225000Y-124500000D03*
D14*
X122765000Y-124500000D03*
D19*
X169190000Y-94853000D03*
X176810000Y-94853000D03*
X129659000Y-94356000D03*
X122039000Y-94356000D03*
D18*
X174000000Y-122000000D03*
D20*
X123960000Y-102500000D03*
D21*
X126500000Y-102500000D03*
D18*
X116000000Y-117000000D03*
D15*
X115730000Y-97000000D03*
D16*
X117000000Y-97000000D03*
X118270000Y-97000000D03*
D19*
X169190000Y-114525000D03*
X176810000Y-114525000D03*
D18*
X174000000Y-75000000D03*
D13*
X107000000Y-100040000D03*
D14*
X107000000Y-97500000D03*
X107000000Y-94960000D03*
D22*
X171095000Y-106475000D03*
X172365000Y-106475000D03*
X173635000Y-106475000D03*
X174905000Y-106475000D03*
X174905000Y-101525000D03*
X173635000Y-101525000D03*
X172365000Y-101525000D03*
X171095000Y-101525000D03*
D23*
X136300000Y-78096560D03*
D24*
X136300000Y-80636560D03*
X136300000Y-83176560D03*
X136300000Y-85716560D03*
X136300000Y-88256560D03*
X136300000Y-90796560D03*
X136300000Y-93336560D03*
X136300000Y-95876560D03*
X136300000Y-98416560D03*
X136300000Y-100956560D03*
X136300000Y-103496560D03*
X136300000Y-106036560D03*
X136300000Y-108576560D03*
X136300000Y-111116560D03*
X136300000Y-113656560D03*
X136300000Y-116196560D03*
X136300000Y-118736560D03*
X136300000Y-121276560D03*
X136300000Y-123816560D03*
X161696320Y-123813840D03*
X161696320Y-121273840D03*
X161700000Y-118736560D03*
X161700000Y-116196560D03*
X161700000Y-113656560D03*
X161700000Y-111116560D03*
X161700000Y-108576560D03*
X161700000Y-106036560D03*
X161700000Y-103496560D03*
X161700000Y-100956560D03*
X161700000Y-98416560D03*
X161700000Y-95876560D03*
X161700000Y-93336560D03*
X161700000Y-90796560D03*
X161700000Y-88256560D03*
X161700000Y-85716560D03*
X161700000Y-83176560D03*
X161700000Y-80636560D03*
X161700000Y-78096560D03*
D19*
X129659000Y-83356000D03*
X122039000Y-83356000D03*
D13*
X107000000Y-81620000D03*
D14*
X107000000Y-79080000D03*
X107000000Y-76540000D03*
X107000000Y-74000000D03*
D19*
X129810000Y-89000000D03*
X122190000Y-89000000D03*
%LPD*%
M02*
