G04 #@! TF.GenerationSoftware,KiCad,Pcbnew,9.0.4*
G04 #@! TF.CreationDate,2025-08-26T16:41:35+10:00*
G04 #@! TF.ProjectId,BrakeControllerDesign,4272616b-6543-46f6-9e74-726f6c6c6572,rev?*
G04 #@! TF.SameCoordinates,Original*
G04 #@! TF.FileFunction,Copper,L1,Top*
G04 #@! TF.FilePolarity,Positive*
%FSLAX46Y46*%
G04 Gerber Fmt 4.6, Leading zero omitted, Abs format (unit mm)*
G04 Created by KiCad (PCBNEW 9.0.4) date 2025-08-26 16:41:35*
%MOMM*%
%LPD*%
G01*
G04 APERTURE LIST*
G04 Aperture macros list*
%AMRoundRect*
0 Rectangle with rounded corners*
0 $1 Rounding radius*
0 $2 $3 $4 $5 $6 $7 $8 $9 X,Y pos of 4 corners*
0 Add a 4 corners polygon primitive as box body*
4,1,4,$2,$3,$4,$5,$6,$7,$8,$9,$2,$3,0*
0 Add four circle primitives for the rounded corners*
1,1,$1+$1,$2,$3*
1,1,$1+$1,$4,$5*
1,1,$1+$1,$6,$7*
1,1,$1+$1,$8,$9*
0 Add four rect primitives between the rounded corners*
20,1,$1+$1,$2,$3,$4,$5,0*
20,1,$1+$1,$4,$5,$6,$7,0*
20,1,$1+$1,$6,$7,$8,$9,0*
20,1,$1+$1,$8,$9,$2,$3,0*%
G04 Aperture macros list end*
G04 #@! TA.AperFunction,ComponentPad*
%ADD10R,1.700000X1.700000*%
G04 #@! TD*
G04 #@! TA.AperFunction,ComponentPad*
%ADD11C,1.700000*%
G04 #@! TD*
G04 #@! TA.AperFunction,ComponentPad*
%ADD12R,1.050000X1.500000*%
G04 #@! TD*
G04 #@! TA.AperFunction,ComponentPad*
%ADD13O,1.050000X1.500000*%
G04 #@! TD*
G04 #@! TA.AperFunction,ComponentPad*
%ADD14C,2.000000*%
G04 #@! TD*
G04 #@! TA.AperFunction,ComponentPad*
%ADD15C,1.600000*%
G04 #@! TD*
G04 #@! TA.AperFunction,ComponentPad*
%ADD16R,1.800000X1.800000*%
G04 #@! TD*
G04 #@! TA.AperFunction,ComponentPad*
%ADD17C,1.800000*%
G04 #@! TD*
G04 #@! TA.AperFunction,SMDPad,CuDef*
%ADD18RoundRect,0.150000X0.150000X-0.825000X0.150000X0.825000X-0.150000X0.825000X-0.150000X-0.825000X0*%
G04 #@! TD*
G04 #@! TA.AperFunction,ComponentPad*
%ADD19R,2.000000X1.200000*%
G04 #@! TD*
G04 #@! TA.AperFunction,ComponentPad*
%ADD20O,2.000000X1.200000*%
G04 #@! TD*
G04 #@! TA.AperFunction,ViaPad*
%ADD21C,0.600000*%
G04 #@! TD*
G04 #@! TA.AperFunction,Conductor*
%ADD22C,0.400000*%
G04 #@! TD*
G04 #@! TA.AperFunction,Conductor*
%ADD23C,0.127000*%
G04 #@! TD*
G04 #@! TA.AperFunction,Conductor*
%ADD24C,0.200000*%
G04 #@! TD*
G04 APERTURE END LIST*
D10*
X107000000Y-120540000D03*
D11*
X107000000Y-118000000D03*
X107000000Y-115460000D03*
D10*
X174000000Y-83000000D03*
D11*
X171460000Y-83000000D03*
D12*
X115960000Y-105500000D03*
D13*
X117230000Y-105500000D03*
X118500000Y-105500000D03*
D10*
X125275000Y-74000000D03*
D11*
X122735000Y-74000000D03*
D14*
X123250000Y-111250000D03*
X129750000Y-111250000D03*
X123250000Y-115750000D03*
X129750000Y-115750000D03*
D10*
X120225000Y-124500000D03*
D11*
X122765000Y-124500000D03*
D15*
X169190000Y-94853000D03*
X176810000Y-94853000D03*
X129659000Y-94356000D03*
X122039000Y-94356000D03*
D16*
X123960000Y-102500000D03*
D17*
X126500000Y-102500000D03*
D12*
X115730000Y-97000000D03*
D13*
X117000000Y-97000000D03*
X118270000Y-97000000D03*
D15*
X169190000Y-114525000D03*
X176810000Y-114525000D03*
D10*
X107000000Y-100040000D03*
D11*
X107000000Y-97500000D03*
X107000000Y-94960000D03*
D18*
X171095000Y-106475000D03*
X172365000Y-106475000D03*
X173635000Y-106475000D03*
X174905000Y-106475000D03*
X174905000Y-101525000D03*
X173635000Y-101525000D03*
X172365000Y-101525000D03*
X171095000Y-101525000D03*
D19*
X136300000Y-78096560D03*
D20*
X136300000Y-80636560D03*
X136300000Y-83176560D03*
X136300000Y-85716560D03*
X136300000Y-88256560D03*
X136300000Y-90796560D03*
X136300000Y-93336560D03*
X136300000Y-95876560D03*
X136300000Y-98416560D03*
X136300000Y-100956560D03*
X136300000Y-103496560D03*
X136300000Y-106036560D03*
X136300000Y-108576560D03*
X136300000Y-111116560D03*
X136300000Y-113656560D03*
X136300000Y-116196560D03*
X136300000Y-118736560D03*
X136300000Y-121276560D03*
X136300000Y-123816560D03*
X161696320Y-123813840D03*
X161696320Y-121273840D03*
X161700000Y-118736560D03*
X161700000Y-116196560D03*
X161700000Y-113656560D03*
X161700000Y-111116560D03*
X161700000Y-108576560D03*
X161700000Y-106036560D03*
X161700000Y-103496560D03*
X161700000Y-100956560D03*
X161700000Y-98416560D03*
X161700000Y-95876560D03*
X161700000Y-93336560D03*
X161700000Y-90796560D03*
X161700000Y-88256560D03*
X161700000Y-85716560D03*
X161700000Y-83176560D03*
X161700000Y-80636560D03*
X161700000Y-78096560D03*
D15*
X129659000Y-83356000D03*
X122039000Y-83356000D03*
D10*
X107000000Y-81620000D03*
D11*
X107000000Y-79080000D03*
X107000000Y-76540000D03*
X107000000Y-74000000D03*
D15*
X129810000Y-89000000D03*
X122190000Y-89000000D03*
D21*
X112000000Y-97000000D03*
X111000000Y-106000000D03*
X142000000Y-94500000D03*
X173000000Y-112500000D03*
X130000000Y-96000000D03*
X124500000Y-93000000D03*
X126000000Y-93000000D03*
X177500000Y-100000000D03*
X171000000Y-110500000D03*
D22*
X108000000Y-97500000D02*
X109500000Y-99000000D01*
X109500000Y-99000000D02*
X109500000Y-115500000D01*
X107000000Y-97500000D02*
X108000000Y-97500000D01*
X109500000Y-115500000D02*
X107000000Y-118000000D01*
D23*
X173635000Y-101525000D02*
X173635000Y-98028000D01*
X173635000Y-98028000D02*
X176810000Y-94853000D01*
X172500000Y-101390000D02*
X172365000Y-101525000D01*
D24*
X172500000Y-84500000D02*
X172500000Y-101390000D01*
X174000000Y-83000000D02*
X172500000Y-84500000D01*
X107460000Y-115460000D02*
X107500000Y-115500000D01*
X107000000Y-115460000D02*
X107460000Y-115460000D01*
X112000000Y-97000000D02*
X111000000Y-98000000D01*
X111000000Y-98000000D02*
X111000000Y-106000000D01*
X117230000Y-104230000D02*
X113500000Y-100500000D01*
X113500000Y-94000000D02*
X122039000Y-85461000D01*
X113500000Y-100500000D02*
X113500000Y-94000000D01*
X122039000Y-85461000D02*
X122039000Y-83356000D01*
X117230000Y-105500000D02*
X117230000Y-104230000D01*
D22*
X173635000Y-111865000D02*
X173000000Y-112500000D01*
X173635000Y-106475000D02*
X173635000Y-111865000D01*
X142000000Y-83796560D02*
X136300000Y-78096560D01*
X142000000Y-94500000D02*
X142000000Y-83796560D01*
D24*
X122190000Y-90810000D02*
X122190000Y-89000000D01*
X117000000Y-97000000D02*
X117000000Y-96000000D01*
X117000000Y-96000000D02*
X122190000Y-90810000D01*
X134779440Y-94356000D02*
X136300000Y-95876560D01*
X129659000Y-94356000D02*
X134779440Y-94356000D01*
X129810000Y-83507000D02*
X129659000Y-83356000D01*
X129810000Y-89000000D02*
X129810000Y-83507000D01*
X171095000Y-101525000D02*
X169190000Y-103430000D01*
X169190000Y-103430000D02*
X169190000Y-114525000D01*
X129750000Y-96250000D02*
X130000000Y-96000000D01*
X123250000Y-111250000D02*
X123000000Y-111000000D01*
X129750000Y-111250000D02*
X129750000Y-96250000D01*
X116676812Y-76540000D02*
X124500000Y-84363188D01*
X107000000Y-76540000D02*
X116676812Y-76540000D01*
X124500000Y-84363188D02*
X124500000Y-93000000D01*
X107000000Y-74000000D02*
X118500000Y-74000000D01*
X126000000Y-81500000D02*
X126000000Y-93000000D01*
X118500000Y-74000000D02*
X126000000Y-81500000D01*
X177500000Y-103880000D02*
X177500000Y-100000000D01*
X174905000Y-106475000D02*
X177500000Y-103880000D01*
X171095000Y-110405000D02*
X171095000Y-106475000D01*
X171000000Y-110500000D02*
X171095000Y-110405000D01*
X169190000Y-85270000D02*
X169190000Y-94853000D01*
X171460000Y-83000000D02*
X169190000Y-85270000D01*
G04 #@! TA.AperFunction,Conductor*
G36*
X179442539Y-70520185D02*
G01*
X179488294Y-70572989D01*
X179499500Y-70624500D01*
X179499500Y-126375500D01*
X179479815Y-126442539D01*
X179427011Y-126488294D01*
X179375500Y-126499500D01*
X103624500Y-126499500D01*
X103557461Y-126479815D01*
X103511706Y-126427011D01*
X103500500Y-126375500D01*
X103500500Y-123602155D01*
X118875000Y-123602155D01*
X118875000Y-124250000D01*
X119791988Y-124250000D01*
X119759075Y-124307007D01*
X119725000Y-124434174D01*
X119725000Y-124565826D01*
X119759075Y-124692993D01*
X119791988Y-124750000D01*
X118875000Y-124750000D01*
X118875000Y-125397844D01*
X118881401Y-125457372D01*
X118881403Y-125457379D01*
X118931645Y-125592086D01*
X118931649Y-125592093D01*
X119017809Y-125707187D01*
X119017812Y-125707190D01*
X119132906Y-125793350D01*
X119132913Y-125793354D01*
X119267620Y-125843596D01*
X119267627Y-125843598D01*
X119327155Y-125849999D01*
X119327172Y-125850000D01*
X119975000Y-125850000D01*
X119975000Y-124933012D01*
X120032007Y-124965925D01*
X120159174Y-125000000D01*
X120290826Y-125000000D01*
X120417993Y-124965925D01*
X120475000Y-124933012D01*
X120475000Y-125850000D01*
X121122828Y-125850000D01*
X121122844Y-125849999D01*
X121182372Y-125843598D01*
X121182379Y-125843596D01*
X121317086Y-125793354D01*
X121317093Y-125793350D01*
X121432187Y-125707190D01*
X121432190Y-125707187D01*
X121518350Y-125592093D01*
X121518354Y-125592086D01*
X121567422Y-125460529D01*
X121609293Y-125404595D01*
X121674757Y-125380178D01*
X121743030Y-125395030D01*
X121771285Y-125416181D01*
X121885213Y-125530109D01*
X122057179Y-125655048D01*
X122057181Y-125655049D01*
X122057184Y-125655051D01*
X122246588Y-125751557D01*
X122448757Y-125817246D01*
X122658713Y-125850500D01*
X122658714Y-125850500D01*
X122871286Y-125850500D01*
X122871287Y-125850500D01*
X123081243Y-125817246D01*
X123283412Y-125751557D01*
X123472816Y-125655051D01*
X123559471Y-125592093D01*
X123644786Y-125530109D01*
X123644788Y-125530106D01*
X123644792Y-125530104D01*
X123795104Y-125379792D01*
X123795106Y-125379788D01*
X123795109Y-125379786D01*
X123920048Y-125207820D01*
X123920047Y-125207820D01*
X123920051Y-125207816D01*
X124016557Y-125018412D01*
X124082246Y-124816243D01*
X124115500Y-124606287D01*
X124115500Y-124393713D01*
X124082246Y-124183757D01*
X124016557Y-123981588D01*
X123920051Y-123792184D01*
X123920045Y-123792175D01*
X123874836Y-123729949D01*
X134799500Y-123729949D01*
X134799500Y-123903170D01*
X134826166Y-124071537D01*
X134826598Y-124074261D01*
X134880127Y-124239005D01*
X134958768Y-124393348D01*
X135060586Y-124533488D01*
X135183072Y-124655974D01*
X135323212Y-124757792D01*
X135477555Y-124836433D01*
X135642299Y-124889962D01*
X135813389Y-124917060D01*
X135813390Y-124917060D01*
X136786610Y-124917060D01*
X136786611Y-124917060D01*
X136957701Y-124889962D01*
X137122445Y-124836433D01*
X137276788Y-124757792D01*
X137416928Y-124655974D01*
X137539414Y-124533488D01*
X137641232Y-124393348D01*
X137719873Y-124239005D01*
X137773402Y-124074261D01*
X137800500Y-123903171D01*
X137800500Y-123729949D01*
X137800069Y-123727229D01*
X160195820Y-123727229D01*
X160195820Y-123900451D01*
X160222918Y-124071541D01*
X160276447Y-124236285D01*
X160355088Y-124390628D01*
X160456906Y-124530768D01*
X160579392Y-124653254D01*
X160719532Y-124755072D01*
X160873875Y-124833713D01*
X161038619Y-124887242D01*
X161209709Y-124914340D01*
X161209710Y-124914340D01*
X162182930Y-124914340D01*
X162182931Y-124914340D01*
X162354021Y-124887242D01*
X162518765Y-124833713D01*
X162673108Y-124755072D01*
X162813248Y-124653254D01*
X162935734Y-124530768D01*
X163037552Y-124390628D01*
X163116193Y-124236285D01*
X163169722Y-124071541D01*
X163196820Y-123900451D01*
X163196820Y-123727229D01*
X163169722Y-123556139D01*
X163116193Y-123391395D01*
X163037552Y-123237052D01*
X162935734Y-123096912D01*
X162813248Y-122974426D01*
X162673108Y-122872608D01*
X162518765Y-122793967D01*
X162354021Y-122740438D01*
X162354019Y-122740437D01*
X162354018Y-122740437D01*
X162200104Y-122716060D01*
X162182931Y-122713340D01*
X161209709Y-122713340D01*
X161192536Y-122716060D01*
X161038622Y-122740437D01*
X160873872Y-122793968D01*
X160719531Y-122872608D01*
X160639576Y-122930699D01*
X160579392Y-122974426D01*
X160579390Y-122974428D01*
X160579389Y-122974428D01*
X160456908Y-123096909D01*
X160456908Y-123096910D01*
X160456906Y-123096912D01*
X160418335Y-123150000D01*
X160355088Y-123237051D01*
X160276448Y-123391392D01*
X160222917Y-123556142D01*
X160205958Y-123663222D01*
X160195820Y-123727229D01*
X137800069Y-123727229D01*
X137773402Y-123558859D01*
X137719873Y-123394115D01*
X137641232Y-123239772D01*
X137539414Y-123099632D01*
X137416928Y-122977146D01*
X137276788Y-122875328D01*
X137122445Y-122796687D01*
X136957701Y-122743158D01*
X136957699Y-122743157D01*
X136957698Y-122743157D01*
X136826271Y-122722341D01*
X136786611Y-122716060D01*
X135813389Y-122716060D01*
X135773728Y-122722341D01*
X135642302Y-122743157D01*
X135477552Y-122796688D01*
X135323211Y-122875328D01*
X135243256Y-122933419D01*
X135183072Y-122977146D01*
X135183070Y-122977148D01*
X135183069Y-122977148D01*
X135060588Y-123099629D01*
X135060588Y-123099630D01*
X135060586Y-123099632D01*
X135024355Y-123149500D01*
X134958768Y-123239771D01*
X134880128Y-123394112D01*
X134826597Y-123558862D01*
X134799500Y-123729949D01*
X123874836Y-123729949D01*
X123795109Y-123620213D01*
X123644786Y-123469890D01*
X123472820Y-123344951D01*
X123283414Y-123248444D01*
X123283413Y-123248443D01*
X123283412Y-123248443D01*
X123081243Y-123182754D01*
X123081241Y-123182753D01*
X123081240Y-123182753D01*
X122919957Y-123157208D01*
X122871287Y-123149500D01*
X122658713Y-123149500D01*
X122610042Y-123157208D01*
X122448760Y-123182753D01*
X122448757Y-123182754D01*
X122273275Y-123239772D01*
X122246585Y-123248444D01*
X122057179Y-123344951D01*
X121885215Y-123469889D01*
X121771285Y-123583819D01*
X121709962Y-123617303D01*
X121640270Y-123612319D01*
X121584337Y-123570447D01*
X121567422Y-123539470D01*
X121518354Y-123407913D01*
X121518350Y-123407906D01*
X121432190Y-123292812D01*
X121432187Y-123292809D01*
X121317093Y-123206649D01*
X121317086Y-123206645D01*
X121182379Y-123156403D01*
X121182372Y-123156401D01*
X121122844Y-123150000D01*
X120475000Y-123150000D01*
X120475000Y-124066988D01*
X120417993Y-124034075D01*
X120290826Y-124000000D01*
X120159174Y-124000000D01*
X120032007Y-124034075D01*
X119975000Y-124066988D01*
X119975000Y-123150000D01*
X119327155Y-123150000D01*
X119267627Y-123156401D01*
X119267620Y-123156403D01*
X119132913Y-123206645D01*
X119132906Y-123206649D01*
X119017812Y-123292809D01*
X119017809Y-123292812D01*
X118931649Y-123407906D01*
X118931645Y-123407913D01*
X118881403Y-123542620D01*
X118881401Y-123542627D01*
X118875000Y-123602155D01*
X103500500Y-123602155D01*
X103500500Y-87878711D01*
X109149500Y-87878711D01*
X109149500Y-88121288D01*
X109181161Y-88361785D01*
X109243947Y-88596104D01*
X109336773Y-88820205D01*
X109336776Y-88820212D01*
X109458064Y-89030289D01*
X109458066Y-89030292D01*
X109458067Y-89030293D01*
X109605733Y-89222736D01*
X109605739Y-89222743D01*
X109777256Y-89394260D01*
X109777262Y-89394265D01*
X109969711Y-89541936D01*
X110179788Y-89663224D01*
X110403900Y-89756054D01*
X110638211Y-89818838D01*
X110818586Y-89842584D01*
X110878711Y-89850500D01*
X110878712Y-89850500D01*
X111121289Y-89850500D01*
X111169388Y-89844167D01*
X111361789Y-89818838D01*
X111596100Y-89756054D01*
X111820212Y-89663224D01*
X112030289Y-89541936D01*
X112222738Y-89394265D01*
X112394265Y-89222738D01*
X112541936Y-89030289D01*
X112663224Y-88820212D01*
X112756054Y-88596100D01*
X112818838Y-88361789D01*
X112850500Y-88121288D01*
X112850500Y-87878712D01*
X112818838Y-87638211D01*
X112756054Y-87403900D01*
X112663224Y-87179788D01*
X112541936Y-86969711D01*
X112394265Y-86777262D01*
X112394260Y-86777256D01*
X112222743Y-86605739D01*
X112222736Y-86605733D01*
X112030293Y-86458067D01*
X112030292Y-86458066D01*
X112030289Y-86458064D01*
X111820212Y-86336776D01*
X111820205Y-86336773D01*
X111596104Y-86243947D01*
X111361785Y-86181161D01*
X111121289Y-86149500D01*
X111121288Y-86149500D01*
X110878712Y-86149500D01*
X110878711Y-86149500D01*
X110638214Y-86181161D01*
X110403895Y-86243947D01*
X110179794Y-86336773D01*
X110179785Y-86336777D01*
X109969706Y-86458067D01*
X109777263Y-86605733D01*
X109777256Y-86605739D01*
X109605739Y-86777256D01*
X109605733Y-86777263D01*
X109458067Y-86969706D01*
X109336777Y-87179785D01*
X109336773Y-87179794D01*
X109243947Y-87403895D01*
X109181161Y-87638214D01*
X109149500Y-87878711D01*
X103500500Y-87878711D01*
X103500500Y-73893713D01*
X105649500Y-73893713D01*
X105649500Y-74106286D01*
X105682753Y-74316239D01*
X105748444Y-74518414D01*
X105844951Y-74707820D01*
X105969890Y-74879786D01*
X106120213Y-75030109D01*
X106292182Y-75155050D01*
X106300946Y-75159516D01*
X106351742Y-75207491D01*
X106368536Y-75275312D01*
X106345998Y-75341447D01*
X106300946Y-75380484D01*
X106292182Y-75384949D01*
X106120213Y-75509890D01*
X105969890Y-75660213D01*
X105844951Y-75832179D01*
X105748444Y-76021585D01*
X105682753Y-76223760D01*
X105649500Y-76433713D01*
X105649500Y-76646286D01*
X105676829Y-76818838D01*
X105682754Y-76856243D01*
X105746608Y-77052766D01*
X105748444Y-77058414D01*
X105844951Y-77247820D01*
X105969890Y-77419786D01*
X106120213Y-77570109D01*
X106292179Y-77695048D01*
X106292181Y-77695049D01*
X106292184Y-77695051D01*
X106301493Y-77699794D01*
X106352290Y-77747766D01*
X106369087Y-77815587D01*
X106346552Y-77881722D01*
X106301505Y-77920760D01*
X106292446Y-77925376D01*
X106292440Y-77925380D01*
X106238282Y-77964727D01*
X106238282Y-77964728D01*
X106870591Y-78597037D01*
X106807007Y-78614075D01*
X106692993Y-78679901D01*
X106599901Y-78772993D01*
X106534075Y-78887007D01*
X106517037Y-78950591D01*
X105884728Y-78318282D01*
X105884727Y-78318282D01*
X105845380Y-78372439D01*
X105748904Y-78561782D01*
X105683242Y-78763869D01*
X105683242Y-78763872D01*
X105650000Y-78973753D01*
X105650000Y-79186246D01*
X105683242Y-79396127D01*
X105683242Y-79396130D01*
X105748904Y-79598217D01*
X105845375Y-79787550D01*
X105884728Y-79841716D01*
X106517037Y-79209408D01*
X106534075Y-79272993D01*
X106599901Y-79387007D01*
X106692993Y-79480099D01*
X106807007Y-79545925D01*
X106870590Y-79562962D01*
X106201195Y-80232356D01*
X106139872Y-80265841D01*
X106125167Y-80264924D01*
X106125444Y-80267497D01*
X106042626Y-80276401D01*
X106042619Y-80276403D01*
X105907913Y-80326645D01*
X105907906Y-80326649D01*
X105792812Y-80412809D01*
X105792809Y-80412812D01*
X105706649Y-80527906D01*
X105706645Y-80527913D01*
X105656403Y-80662620D01*
X105656401Y-80662627D01*
X105650000Y-80722155D01*
X105650000Y-81370000D01*
X106566988Y-81370000D01*
X106534075Y-81427007D01*
X106500000Y-81554174D01*
X106500000Y-81685826D01*
X106534075Y-81812993D01*
X106566988Y-81870000D01*
X105650000Y-81870000D01*
X105650000Y-82517844D01*
X105656401Y-82577372D01*
X105656403Y-82577379D01*
X105706645Y-82712086D01*
X105706649Y-82712093D01*
X105792809Y-82827187D01*
X105792812Y-82827190D01*
X105907906Y-82913350D01*
X105907913Y-82913354D01*
X106042620Y-82963596D01*
X106042627Y-82963598D01*
X106102155Y-82969999D01*
X106102172Y-82970000D01*
X106750000Y-82970000D01*
X106750000Y-82053012D01*
X106807007Y-82085925D01*
X106934174Y-82120000D01*
X107065826Y-82120000D01*
X107192993Y-82085925D01*
X107250000Y-82053012D01*
X107250000Y-82970000D01*
X107897828Y-82970000D01*
X107897844Y-82969999D01*
X107957372Y-82963598D01*
X107957379Y-82963596D01*
X108092086Y-82913354D01*
X108092093Y-82913350D01*
X108207187Y-82827190D01*
X108207190Y-82827187D01*
X108293350Y-82712093D01*
X108293354Y-82712086D01*
X108343596Y-82577379D01*
X108343598Y-82577372D01*
X108349999Y-82517844D01*
X108350000Y-82517827D01*
X108350000Y-81870000D01*
X107433012Y-81870000D01*
X107465925Y-81812993D01*
X107500000Y-81685826D01*
X107500000Y-81554174D01*
X107465925Y-81427007D01*
X107433012Y-81370000D01*
X108350000Y-81370000D01*
X108350000Y-80722172D01*
X108349999Y-80722155D01*
X108343598Y-80662627D01*
X108343596Y-80662620D01*
X108293354Y-80527913D01*
X108293350Y-80527906D01*
X108207190Y-80412812D01*
X108207187Y-80412809D01*
X108092093Y-80326649D01*
X108092086Y-80326645D01*
X107957380Y-80276403D01*
X107957373Y-80276401D01*
X107874555Y-80267497D01*
X107874884Y-80264431D01*
X107857875Y-80265330D01*
X107798803Y-80232356D01*
X107129408Y-79562962D01*
X107192993Y-79545925D01*
X107307007Y-79480099D01*
X107400099Y-79387007D01*
X107465925Y-79272993D01*
X107482962Y-79209409D01*
X108115270Y-79841717D01*
X108115270Y-79841716D01*
X108154622Y-79787554D01*
X108251095Y-79598217D01*
X108316757Y-79396130D01*
X108316757Y-79396127D01*
X108350000Y-79186246D01*
X108350000Y-78973753D01*
X108316757Y-78763872D01*
X108316757Y-78763869D01*
X108251095Y-78561782D01*
X108154624Y-78372449D01*
X108115270Y-78318282D01*
X108115269Y-78318282D01*
X107482962Y-78950590D01*
X107465925Y-78887007D01*
X107400099Y-78772993D01*
X107307007Y-78679901D01*
X107192993Y-78614075D01*
X107129409Y-78597037D01*
X107761716Y-77964728D01*
X107707547Y-77925373D01*
X107707547Y-77925372D01*
X107698500Y-77920763D01*
X107647706Y-77872788D01*
X107630912Y-77804966D01*
X107653451Y-77738832D01*
X107698508Y-77699793D01*
X107707816Y-77695051D01*
X107787007Y-77637515D01*
X107879786Y-77570109D01*
X107879788Y-77570106D01*
X107879792Y-77570104D01*
X108030104Y-77419792D01*
X108030106Y-77419788D01*
X108030109Y-77419786D01*
X108088661Y-77339193D01*
X108155051Y-77247816D01*
X108155349Y-77247230D01*
X108175235Y-77208205D01*
X108223209Y-77157409D01*
X108285719Y-77140500D01*
X116376715Y-77140500D01*
X116443754Y-77160185D01*
X116464396Y-77176819D01*
X121355449Y-82067872D01*
X121388934Y-82129195D01*
X121383950Y-82198887D01*
X121342078Y-82254820D01*
X121340653Y-82255871D01*
X121191787Y-82364028D01*
X121191782Y-82364032D01*
X121047028Y-82508786D01*
X120926715Y-82674386D01*
X120833781Y-82856776D01*
X120770522Y-83051465D01*
X120738500Y-83253648D01*
X120738500Y-83458351D01*
X120770522Y-83660534D01*
X120833781Y-83855223D01*
X120885886Y-83957483D01*
X120915687Y-84015971D01*
X120926715Y-84037613D01*
X121047028Y-84203213D01*
X121047034Y-84203219D01*
X121191781Y-84347966D01*
X121357390Y-84468287D01*
X121370793Y-84475116D01*
X121421589Y-84523088D01*
X121438500Y-84585601D01*
X121438500Y-85160902D01*
X121418815Y-85227941D01*
X121402181Y-85248583D01*
X113019481Y-93631282D01*
X113019479Y-93631284D01*
X113009172Y-93649138D01*
X112994593Y-93674390D01*
X112940423Y-93768215D01*
X112899499Y-93920943D01*
X112899499Y-93920945D01*
X112899499Y-94089046D01*
X112899500Y-94089059D01*
X112899500Y-96496560D01*
X112879815Y-96563599D01*
X112827011Y-96609354D01*
X112757853Y-96619298D01*
X112694297Y-96590273D01*
X112672398Y-96565451D01*
X112621789Y-96489711D01*
X112621786Y-96489707D01*
X112510292Y-96378213D01*
X112510288Y-96378210D01*
X112379185Y-96290609D01*
X112379172Y-96290602D01*
X112233501Y-96230264D01*
X112233489Y-96230261D01*
X112078845Y-96199500D01*
X112078842Y-96199500D01*
X111921158Y-96199500D01*
X111921155Y-96199500D01*
X111766510Y-96230261D01*
X111766498Y-96230264D01*
X111620827Y-96290602D01*
X111620814Y-96290609D01*
X111489711Y-96378210D01*
X111489707Y-96378213D01*
X111378213Y-96489707D01*
X111378210Y-96489711D01*
X111290609Y-96620814D01*
X111290602Y-96620827D01*
X111230264Y-96766498D01*
X111230261Y-96766508D01*
X111199362Y-96921848D01*
X111166977Y-96983759D01*
X111165426Y-96985337D01*
X110631286Y-97519478D01*
X110519481Y-97631282D01*
X110519479Y-97631285D01*
X110474385Y-97709392D01*
X110474384Y-97709393D01*
X110440423Y-97768214D01*
X110440423Y-97768215D01*
X110399499Y-97920943D01*
X110399499Y-97920945D01*
X110399499Y-98089046D01*
X110399500Y-98089059D01*
X110399500Y-98717701D01*
X110379815Y-98784740D01*
X110327011Y-98830495D01*
X110257853Y-98840439D01*
X110194297Y-98811414D01*
X110160939Y-98765153D01*
X110120778Y-98668195D01*
X110120771Y-98668182D01*
X110044115Y-98553459D01*
X110020760Y-98530104D01*
X109946542Y-98455886D01*
X109579702Y-98089046D01*
X108446546Y-96955888D01*
X108446545Y-96955887D01*
X108389177Y-96917555D01*
X108331811Y-96879225D01*
X108204328Y-96826420D01*
X108201728Y-96825343D01*
X108148864Y-96783668D01*
X108030104Y-96620208D01*
X107879792Y-96469896D01*
X107879786Y-96469890D01*
X107707820Y-96344951D01*
X107707115Y-96344591D01*
X107699054Y-96340485D01*
X107648259Y-96292512D01*
X107631463Y-96224692D01*
X107653999Y-96158556D01*
X107699054Y-96119515D01*
X107707816Y-96115051D01*
X107786038Y-96058220D01*
X107879786Y-95990109D01*
X107879788Y-95990106D01*
X107879792Y-95990104D01*
X108030104Y-95839792D01*
X108030106Y-95839788D01*
X108030109Y-95839786D01*
X108155048Y-95667820D01*
X108155047Y-95667820D01*
X108155051Y-95667816D01*
X108251557Y-95478412D01*
X108317246Y-95276243D01*
X108350500Y-95066287D01*
X108350500Y-94853713D01*
X108317246Y-94643757D01*
X108251557Y-94441588D01*
X108155051Y-94252184D01*
X108155049Y-94252181D01*
X108155048Y-94252179D01*
X108030109Y-94080213D01*
X107879786Y-93929890D01*
X107707820Y-93804951D01*
X107518414Y-93708444D01*
X107518413Y-93708443D01*
X107518412Y-93708443D01*
X107316243Y-93642754D01*
X107316241Y-93642753D01*
X107316240Y-93642753D01*
X107154957Y-93617208D01*
X107106287Y-93609500D01*
X106893713Y-93609500D01*
X106845042Y-93617208D01*
X106683760Y-93642753D01*
X106481585Y-93708444D01*
X106292179Y-93804951D01*
X106120213Y-93929890D01*
X105969890Y-94080213D01*
X105844951Y-94252179D01*
X105748444Y-94441585D01*
X105682753Y-94643760D01*
X105649500Y-94853713D01*
X105649500Y-95066286D01*
X105681723Y-95269738D01*
X105682754Y-95276243D01*
X105745153Y-95468287D01*
X105748444Y-95478414D01*
X105844951Y-95667820D01*
X105969890Y-95839786D01*
X106120213Y-95990109D01*
X106292182Y-96115050D01*
X106300946Y-96119516D01*
X106351742Y-96167491D01*
X106368536Y-96235312D01*
X106345998Y-96301447D01*
X106300946Y-96340484D01*
X106292182Y-96344949D01*
X106120213Y-96469890D01*
X105969890Y-96620213D01*
X105844951Y-96792179D01*
X105748444Y-96981585D01*
X105682753Y-97183760D01*
X105649500Y-97393713D01*
X105649500Y-97606286D01*
X105680353Y-97801088D01*
X105682754Y-97816243D01*
X105740548Y-97994115D01*
X105748444Y-98018414D01*
X105844951Y-98207820D01*
X105969890Y-98379786D01*
X106083818Y-98493714D01*
X106117303Y-98555037D01*
X106112319Y-98624729D01*
X106070447Y-98680662D01*
X106039471Y-98697577D01*
X105907912Y-98746646D01*
X105907906Y-98746649D01*
X105792812Y-98832809D01*
X105792809Y-98832812D01*
X105706649Y-98947906D01*
X105706645Y-98947913D01*
X105656403Y-99082620D01*
X105656401Y-99082627D01*
X105650000Y-99142155D01*
X105650000Y-99790000D01*
X106566988Y-99790000D01*
X106534075Y-99847007D01*
X106500000Y-99974174D01*
X106500000Y-100105826D01*
X106534075Y-100232993D01*
X106566988Y-100290000D01*
X105650000Y-100290000D01*
X105650000Y-100937844D01*
X105656401Y-100997372D01*
X105656403Y-100997379D01*
X105706645Y-101132086D01*
X105706649Y-101132093D01*
X105792809Y-101247187D01*
X105792812Y-101247190D01*
X105907906Y-101333350D01*
X105907913Y-101333354D01*
X106042620Y-101383596D01*
X106042627Y-101383598D01*
X106102155Y-101389999D01*
X106102172Y-101390000D01*
X106750000Y-101390000D01*
X106750000Y-100473012D01*
X106807007Y-100505925D01*
X106934174Y-100540000D01*
X107065826Y-100540000D01*
X107192993Y-100505925D01*
X107250000Y-100473012D01*
X107250000Y-101390000D01*
X107897828Y-101390000D01*
X107897844Y-101389999D01*
X107957372Y-101383598D01*
X107957379Y-101383596D01*
X108092086Y-101333354D01*
X108092093Y-101333350D01*
X108207187Y-101247190D01*
X108207190Y-101247187D01*
X108293350Y-101132093D01*
X108293354Y-101132086D01*
X108343596Y-100997379D01*
X108343598Y-100997372D01*
X108349999Y-100937844D01*
X108350000Y-100937827D01*
X108350000Y-100290000D01*
X107433012Y-100290000D01*
X107465925Y-100232993D01*
X107500000Y-100105826D01*
X107500000Y-99974174D01*
X107465925Y-99847007D01*
X107433012Y-99790000D01*
X108350000Y-99790000D01*
X108350000Y-99140018D01*
X108369685Y-99072979D01*
X108422489Y-99027224D01*
X108491647Y-99017280D01*
X108555203Y-99046305D01*
X108561681Y-99052337D01*
X108763181Y-99253837D01*
X108796666Y-99315160D01*
X108799500Y-99341518D01*
X108799500Y-115158480D01*
X108779815Y-115225519D01*
X108763181Y-115246161D01*
X108562181Y-115447161D01*
X108500858Y-115480646D01*
X108431166Y-115475662D01*
X108375233Y-115433790D01*
X108350816Y-115368326D01*
X108350500Y-115359480D01*
X108350500Y-115353713D01*
X108333465Y-115246161D01*
X108317246Y-115143757D01*
X108251557Y-114941588D01*
X108155051Y-114752184D01*
X108155049Y-114752181D01*
X108155048Y-114752179D01*
X108030109Y-114580213D01*
X107879786Y-114429890D01*
X107707820Y-114304951D01*
X107518414Y-114208444D01*
X107518413Y-114208443D01*
X107518412Y-114208443D01*
X107316243Y-114142754D01*
X107316241Y-114142753D01*
X107316240Y-114142753D01*
X107154957Y-114117208D01*
X107106287Y-114109500D01*
X106893713Y-114109500D01*
X106845042Y-114117208D01*
X106683760Y-114142753D01*
X106481585Y-114208444D01*
X106292179Y-114304951D01*
X106120213Y-114429890D01*
X105969890Y-114580213D01*
X105844951Y-114752179D01*
X105748444Y-114941585D01*
X105682753Y-115143760D01*
X105649500Y-115353713D01*
X105649500Y-115566286D01*
X105678597Y-115750001D01*
X105682754Y-115776243D01*
X105745614Y-115969706D01*
X105748444Y-115978414D01*
X105844951Y-116167820D01*
X105969890Y-116339786D01*
X106120213Y-116490109D01*
X106292182Y-116615050D01*
X106300946Y-116619516D01*
X106351742Y-116667491D01*
X106368536Y-116735312D01*
X106345998Y-116801447D01*
X106300946Y-116840484D01*
X106292182Y-116844949D01*
X106120213Y-116969890D01*
X105969890Y-117120213D01*
X105844951Y-117292179D01*
X105748444Y-117481585D01*
X105682753Y-117683760D01*
X105661141Y-117820212D01*
X105649500Y-117893713D01*
X105649500Y-118106287D01*
X105682754Y-118316243D01*
X105735592Y-118478862D01*
X105748444Y-118518414D01*
X105844951Y-118707820D01*
X105969890Y-118879786D01*
X106083818Y-118993714D01*
X106117303Y-119055037D01*
X106112319Y-119124729D01*
X106070447Y-119180662D01*
X106039471Y-119197577D01*
X105907912Y-119246646D01*
X105907906Y-119246649D01*
X105792812Y-119332809D01*
X105792809Y-119332812D01*
X105706649Y-119447906D01*
X105706645Y-119447913D01*
X105656403Y-119582620D01*
X105656401Y-119582627D01*
X105650000Y-119642155D01*
X105650000Y-120290000D01*
X106566988Y-120290000D01*
X106534075Y-120347007D01*
X106500000Y-120474174D01*
X106500000Y-120605826D01*
X106534075Y-120732993D01*
X106566988Y-120790000D01*
X105650000Y-120790000D01*
X105650000Y-121437844D01*
X105656401Y-121497372D01*
X105656403Y-121497379D01*
X105706645Y-121632086D01*
X105706649Y-121632093D01*
X105792809Y-121747187D01*
X105792812Y-121747190D01*
X105907906Y-121833350D01*
X105907913Y-121833354D01*
X106042620Y-121883596D01*
X106042627Y-121883598D01*
X106102155Y-121889999D01*
X106102172Y-121890000D01*
X106750000Y-121890000D01*
X106750000Y-120973012D01*
X106807007Y-121005925D01*
X106934174Y-121040000D01*
X107065826Y-121040000D01*
X107192993Y-121005925D01*
X107250000Y-120973012D01*
X107250000Y-121890000D01*
X107897828Y-121890000D01*
X107897844Y-121889999D01*
X107957372Y-121883598D01*
X107957379Y-121883596D01*
X108092086Y-121833354D01*
X108092093Y-121833350D01*
X108207187Y-121747190D01*
X108207190Y-121747187D01*
X108293350Y-121632093D01*
X108293354Y-121632086D01*
X108343596Y-121497379D01*
X108343598Y-121497372D01*
X108349999Y-121437844D01*
X108350000Y-121437827D01*
X108350000Y-121189949D01*
X134799500Y-121189949D01*
X134799500Y-121363170D01*
X134826166Y-121531537D01*
X134826598Y-121534261D01*
X134880127Y-121699005D01*
X134958768Y-121853348D01*
X135060586Y-121993488D01*
X135183072Y-122115974D01*
X135323212Y-122217792D01*
X135477555Y-122296433D01*
X135642299Y-122349962D01*
X135813389Y-122377060D01*
X135813390Y-122377060D01*
X136786610Y-122377060D01*
X136786611Y-122377060D01*
X136957701Y-122349962D01*
X137122445Y-122296433D01*
X137276788Y-122217792D01*
X137416928Y-122115974D01*
X137539414Y-121993488D01*
X137641232Y-121853348D01*
X137719873Y-121699005D01*
X137773402Y-121534261D01*
X137800500Y-121363171D01*
X137800500Y-121189949D01*
X137800069Y-121187229D01*
X160195820Y-121187229D01*
X160195820Y-121360451D01*
X160222918Y-121531541D01*
X160276447Y-121696285D01*
X160355088Y-121850628D01*
X160456906Y-121990768D01*
X160579392Y-122113254D01*
X160719532Y-122215072D01*
X160873875Y-122293713D01*
X161038619Y-122347242D01*
X161209709Y-122374340D01*
X161209710Y-122374340D01*
X162182930Y-122374340D01*
X162182931Y-122374340D01*
X162354021Y-122347242D01*
X162518765Y-122293713D01*
X162673108Y-122215072D01*
X162813248Y-122113254D01*
X162935734Y-121990768D01*
X163017148Y-121878711D01*
X172149500Y-121878711D01*
X172149500Y-122121288D01*
X172181161Y-122361785D01*
X172243947Y-122596104D01*
X172327032Y-122796688D01*
X172336776Y-122820212D01*
X172458064Y-123030289D01*
X172458066Y-123030292D01*
X172458067Y-123030293D01*
X172605733Y-123222736D01*
X172605739Y-123222743D01*
X172777256Y-123394260D01*
X172777262Y-123394265D01*
X172969711Y-123541936D01*
X173179788Y-123663224D01*
X173403900Y-123756054D01*
X173638211Y-123818838D01*
X173818586Y-123842584D01*
X173878711Y-123850500D01*
X173878712Y-123850500D01*
X174121289Y-123850500D01*
X174169388Y-123844167D01*
X174361789Y-123818838D01*
X174596100Y-123756054D01*
X174820212Y-123663224D01*
X175030289Y-123541936D01*
X175222738Y-123394265D01*
X175394265Y-123222738D01*
X175541936Y-123030289D01*
X175663224Y-122820212D01*
X175756054Y-122596100D01*
X175818838Y-122361789D01*
X175850500Y-122121288D01*
X175850500Y-121878712D01*
X175846802Y-121850626D01*
X175826842Y-121699007D01*
X175818838Y-121638211D01*
X175756054Y-121403900D01*
X175663224Y-121179788D01*
X175541936Y-120969711D01*
X175394265Y-120777262D01*
X175394260Y-120777256D01*
X175222743Y-120605739D01*
X175222736Y-120605733D01*
X175030293Y-120458067D01*
X175030292Y-120458066D01*
X175030289Y-120458064D01*
X174820212Y-120336776D01*
X174810150Y-120332608D01*
X174596104Y-120243947D01*
X174361785Y-120181161D01*
X174121289Y-120149500D01*
X174121288Y-120149500D01*
X173878712Y-120149500D01*
X173878711Y-120149500D01*
X173638214Y-120181161D01*
X173403895Y-120243947D01*
X173179794Y-120336773D01*
X173179785Y-120336777D01*
X172969706Y-120458067D01*
X172777263Y-120605733D01*
X172777256Y-120605739D01*
X172605739Y-120777256D01*
X172605733Y-120777263D01*
X172458067Y-120969706D01*
X172336777Y-121179785D01*
X172336773Y-121179794D01*
X172243947Y-121403895D01*
X172181161Y-121638214D01*
X172149500Y-121878711D01*
X163017148Y-121878711D01*
X163037552Y-121850628D01*
X163038648Y-121848476D01*
X163053994Y-121818359D01*
X163053994Y-121818358D01*
X163116193Y-121696285D01*
X163169722Y-121531541D01*
X163196820Y-121360451D01*
X163196820Y-121187229D01*
X163169722Y-121016139D01*
X163116193Y-120851395D01*
X163037552Y-120697052D01*
X162935734Y-120556912D01*
X162813248Y-120434426D01*
X162673108Y-120332608D01*
X162518765Y-120253967D01*
X162354021Y-120200438D01*
X162354019Y-120200437D01*
X162354018Y-120200437D01*
X162200104Y-120176060D01*
X162182931Y-120173340D01*
X161209709Y-120173340D01*
X161192536Y-120176060D01*
X161038622Y-120200437D01*
X160873872Y-120253968D01*
X160719531Y-120332608D01*
X160639576Y-120390699D01*
X160579392Y-120434426D01*
X160579390Y-120434428D01*
X160579389Y-120434428D01*
X160456908Y-120556909D01*
X160456908Y-120556910D01*
X160456906Y-120556912D01*
X160454930Y-120559632D01*
X160355088Y-120697051D01*
X160276448Y-120851392D01*
X160222917Y-121016142D01*
X160196999Y-121179785D01*
X160195820Y-121187229D01*
X137800069Y-121187229D01*
X137773402Y-121018859D01*
X137719873Y-120854115D01*
X137641232Y-120699772D01*
X137539414Y-120559632D01*
X137416928Y-120437146D01*
X137276788Y-120335328D01*
X137122445Y-120256687D01*
X136957701Y-120203158D01*
X136957699Y-120203157D01*
X136957698Y-120203157D01*
X136818817Y-120181161D01*
X136786611Y-120176060D01*
X135813389Y-120176060D01*
X135781183Y-120181161D01*
X135642302Y-120203157D01*
X135477552Y-120256688D01*
X135323211Y-120335328D01*
X135243256Y-120393419D01*
X135183072Y-120437146D01*
X135183070Y-120437148D01*
X135183069Y-120437148D01*
X135060588Y-120559629D01*
X135060588Y-120559630D01*
X135060586Y-120559632D01*
X135027092Y-120605733D01*
X134958768Y-120699771D01*
X134880128Y-120854112D01*
X134826597Y-121018862D01*
X134799500Y-121189949D01*
X108350000Y-121189949D01*
X108350000Y-120790000D01*
X107433012Y-120790000D01*
X107465925Y-120732993D01*
X107500000Y-120605826D01*
X107500000Y-120474174D01*
X107465925Y-120347007D01*
X107433012Y-120290000D01*
X108350000Y-120290000D01*
X108350000Y-119642172D01*
X108349999Y-119642155D01*
X108343598Y-119582627D01*
X108343596Y-119582620D01*
X108293354Y-119447913D01*
X108293350Y-119447906D01*
X108207190Y-119332812D01*
X108207187Y-119332809D01*
X108092093Y-119246649D01*
X108092088Y-119246646D01*
X107960528Y-119197577D01*
X107904595Y-119155705D01*
X107880178Y-119090241D01*
X107895030Y-119021968D01*
X107916175Y-118993720D01*
X108030104Y-118879792D01*
X108155051Y-118707816D01*
X108251557Y-118518412D01*
X108317246Y-118316243D01*
X108350500Y-118106287D01*
X108350500Y-117893713D01*
X108325715Y-117737227D01*
X108334670Y-117667933D01*
X108360504Y-117630151D01*
X109111945Y-116878711D01*
X114149500Y-116878711D01*
X114149500Y-117121288D01*
X114181161Y-117361785D01*
X114243947Y-117596104D01*
X114326469Y-117795328D01*
X114336776Y-117820212D01*
X114458064Y-118030289D01*
X114458066Y-118030292D01*
X114458067Y-118030293D01*
X114605733Y-118222736D01*
X114605739Y-118222743D01*
X114777256Y-118394260D01*
X114777262Y-118394265D01*
X114969711Y-118541936D01*
X115179788Y-118663224D01*
X115403900Y-118756054D01*
X115638211Y-118818838D01*
X115818586Y-118842584D01*
X115878711Y-118850500D01*
X115878712Y-118850500D01*
X116121289Y-118850500D01*
X116169388Y-118844167D01*
X116361789Y-118818838D01*
X116596100Y-118756054D01*
X116820212Y-118663224D01*
X116843205Y-118649949D01*
X134799500Y-118649949D01*
X134799500Y-118823171D01*
X134826598Y-118994261D01*
X134880127Y-119159005D01*
X134958768Y-119313348D01*
X135060586Y-119453488D01*
X135183072Y-119575974D01*
X135323212Y-119677792D01*
X135477555Y-119756433D01*
X135642299Y-119809962D01*
X135813389Y-119837060D01*
X135813390Y-119837060D01*
X136786610Y-119837060D01*
X136786611Y-119837060D01*
X136957701Y-119809962D01*
X137122445Y-119756433D01*
X137276788Y-119677792D01*
X137416928Y-119575974D01*
X137539414Y-119453488D01*
X137641232Y-119313348D01*
X137719873Y-119159005D01*
X137773402Y-118994261D01*
X137800500Y-118823171D01*
X137800500Y-118649949D01*
X160199500Y-118649949D01*
X160199500Y-118823171D01*
X160226598Y-118994261D01*
X160280127Y-119159005D01*
X160358768Y-119313348D01*
X160460586Y-119453488D01*
X160583072Y-119575974D01*
X160723212Y-119677792D01*
X160877555Y-119756433D01*
X161042299Y-119809962D01*
X161213389Y-119837060D01*
X161213390Y-119837060D01*
X162186610Y-119837060D01*
X162186611Y-119837060D01*
X162357701Y-119809962D01*
X162522445Y-119756433D01*
X162676788Y-119677792D01*
X162816928Y-119575974D01*
X162939414Y-119453488D01*
X163041232Y-119313348D01*
X163119873Y-119159005D01*
X163173402Y-118994261D01*
X163200500Y-118823171D01*
X163200500Y-118649949D01*
X163173402Y-118478859D01*
X163119873Y-118314115D01*
X163041232Y-118159772D01*
X162939414Y-118019632D01*
X162816928Y-117897146D01*
X162676788Y-117795328D01*
X162522445Y-117716687D01*
X162357701Y-117663158D01*
X162357699Y-117663157D01*
X162357698Y-117663157D01*
X162226271Y-117642341D01*
X162186611Y-117636060D01*
X161213389Y-117636060D01*
X161173728Y-117642341D01*
X161042302Y-117663157D01*
X160877552Y-117716688D01*
X160723211Y-117795328D01*
X160688962Y-117820212D01*
X160583072Y-117897146D01*
X160583070Y-117897148D01*
X160583069Y-117897148D01*
X160460588Y-118019629D01*
X160460588Y-118019630D01*
X160460586Y-118019632D01*
X160416859Y-118079816D01*
X160358768Y-118159771D01*
X160280128Y-118314112D01*
X160226597Y-118478862D01*
X160216607Y-118541938D01*
X160199500Y-118649949D01*
X137800500Y-118649949D01*
X137773402Y-118478859D01*
X137719873Y-118314115D01*
X137641232Y-118159772D01*
X137539414Y-118019632D01*
X137416928Y-117897146D01*
X137276788Y-117795328D01*
X137122445Y-117716687D01*
X136957701Y-117663158D01*
X136957699Y-117663157D01*
X136957698Y-117663157D01*
X136826271Y-117642341D01*
X136786611Y-117636060D01*
X135813389Y-117636060D01*
X135773728Y-117642341D01*
X135642302Y-117663157D01*
X135477552Y-117716688D01*
X135323211Y-117795328D01*
X135288962Y-117820212D01*
X135183072Y-117897146D01*
X135183070Y-117897148D01*
X135183069Y-117897148D01*
X135060588Y-118019629D01*
X135060588Y-118019630D01*
X135060586Y-118019632D01*
X135016859Y-118079816D01*
X134958768Y-118159771D01*
X134880128Y-118314112D01*
X134826597Y-118478862D01*
X134816607Y-118541938D01*
X134799500Y-118649949D01*
X116843205Y-118649949D01*
X117030289Y-118541936D01*
X117222738Y-118394265D01*
X117394265Y-118222738D01*
X117541936Y-118030289D01*
X117663224Y-117820212D01*
X117756054Y-117596100D01*
X117818838Y-117361789D01*
X117850500Y-117121288D01*
X117850500Y-116878712D01*
X117818838Y-116638211D01*
X117756054Y-116403900D01*
X117663224Y-116179788D01*
X117541936Y-115969711D01*
X117481018Y-115890321D01*
X117394266Y-115777263D01*
X117394260Y-115777256D01*
X117248951Y-115631947D01*
X121750000Y-115631947D01*
X121750000Y-115868052D01*
X121786934Y-116101247D01*
X121859897Y-116325802D01*
X121967087Y-116536174D01*
X122027338Y-116619104D01*
X122027340Y-116619105D01*
X122726212Y-115920233D01*
X122737482Y-115962292D01*
X122809890Y-116087708D01*
X122912292Y-116190110D01*
X123037708Y-116262518D01*
X123079765Y-116273787D01*
X122380893Y-116972658D01*
X122463828Y-117032914D01*
X122674197Y-117140102D01*
X122898752Y-117213065D01*
X122898751Y-117213065D01*
X123131948Y-117250000D01*
X123368052Y-117250000D01*
X123601247Y-117213065D01*
X123825802Y-117140102D01*
X124036163Y-117032918D01*
X124036169Y-117032914D01*
X124119104Y-116972658D01*
X124119105Y-116972658D01*
X123420233Y-116273787D01*
X123462292Y-116262518D01*
X123587708Y-116190110D01*
X123690110Y-116087708D01*
X123762518Y-115962292D01*
X123773787Y-115920234D01*
X124472658Y-116619105D01*
X124472658Y-116619104D01*
X124532914Y-116536169D01*
X124532918Y-116536163D01*
X124640102Y-116325802D01*
X124713065Y-116101247D01*
X124750000Y-115868052D01*
X124750000Y-115631947D01*
X128250000Y-115631947D01*
X128250000Y-115868052D01*
X128286934Y-116101247D01*
X128359897Y-116325802D01*
X128467087Y-116536174D01*
X128527338Y-116619104D01*
X128527340Y-116619105D01*
X129226212Y-115920233D01*
X129237482Y-115962292D01*
X129309890Y-116087708D01*
X129412292Y-116190110D01*
X129537708Y-116262518D01*
X129579765Y-116273787D01*
X128880893Y-116972658D01*
X128963828Y-117032914D01*
X129174197Y-117140102D01*
X129398752Y-117213065D01*
X129398751Y-117213065D01*
X129631948Y-117250000D01*
X129868052Y-117250000D01*
X130101247Y-117213065D01*
X130325802Y-117140102D01*
X130536163Y-117032918D01*
X130536169Y-117032914D01*
X130619104Y-116972658D01*
X130619105Y-116972658D01*
X129920233Y-116273787D01*
X129962292Y-116262518D01*
X130087708Y-116190110D01*
X130190110Y-116087708D01*
X130262518Y-115962292D01*
X130273787Y-115920234D01*
X130972658Y-116619105D01*
X130972658Y-116619104D01*
X131032914Y-116536169D01*
X131032918Y-116536163D01*
X131140102Y-116325802D01*
X131210238Y-116109949D01*
X134799500Y-116109949D01*
X134799500Y-116283171D01*
X134806252Y-116325802D01*
X134818621Y-116403900D01*
X134826598Y-116454261D01*
X134880127Y-116619005D01*
X134958768Y-116773348D01*
X135060586Y-116913488D01*
X135183072Y-117035974D01*
X135323212Y-117137792D01*
X135477555Y-117216433D01*
X135642299Y-117269962D01*
X135813389Y-117297060D01*
X135813390Y-117297060D01*
X136786610Y-117297060D01*
X136786611Y-117297060D01*
X136957701Y-117269962D01*
X137122445Y-117216433D01*
X137276788Y-117137792D01*
X137416928Y-117035974D01*
X137539414Y-116913488D01*
X137641232Y-116773348D01*
X137719873Y-116619005D01*
X137773402Y-116454261D01*
X137800500Y-116283171D01*
X137800500Y-116109949D01*
X160199500Y-116109949D01*
X160199500Y-116283171D01*
X160206252Y-116325802D01*
X160218621Y-116403900D01*
X160226598Y-116454261D01*
X160280127Y-116619005D01*
X160358768Y-116773348D01*
X160460586Y-116913488D01*
X160583072Y-117035974D01*
X160723212Y-117137792D01*
X160877555Y-117216433D01*
X161042299Y-117269962D01*
X161213389Y-117297060D01*
X161213390Y-117297060D01*
X162186610Y-117297060D01*
X162186611Y-117297060D01*
X162357701Y-117269962D01*
X162522445Y-117216433D01*
X162676788Y-117137792D01*
X162816928Y-117035974D01*
X162939414Y-116913488D01*
X163041232Y-116773348D01*
X163119873Y-116619005D01*
X163173402Y-116454261D01*
X163200500Y-116283171D01*
X163200500Y-116109949D01*
X163173402Y-115938859D01*
X163119873Y-115774115D01*
X163041232Y-115619772D01*
X162939414Y-115479632D01*
X162816928Y-115357146D01*
X162676788Y-115255328D01*
X162522445Y-115176687D01*
X162357701Y-115123158D01*
X162357699Y-115123157D01*
X162357698Y-115123157D01*
X162226271Y-115102341D01*
X162186611Y-115096060D01*
X161213389Y-115096060D01*
X161173728Y-115102341D01*
X161042302Y-115123157D01*
X160877552Y-115176688D01*
X160723211Y-115255328D01*
X160648114Y-115309890D01*
X160583072Y-115357146D01*
X160583070Y-115357148D01*
X160583069Y-115357148D01*
X160460588Y-115479629D01*
X160460588Y-115479630D01*
X160460586Y-115479632D01*
X160433458Y-115516971D01*
X160358768Y-115619771D01*
X160280128Y-115774112D01*
X160226597Y-115938862D01*
X160203023Y-116087708D01*
X160199500Y-116109949D01*
X137800500Y-116109949D01*
X137773402Y-115938859D01*
X137719873Y-115774115D01*
X137641232Y-115619772D01*
X137539414Y-115479632D01*
X137416928Y-115357146D01*
X137276788Y-115255328D01*
X137122445Y-115176687D01*
X136957701Y-115123158D01*
X136957699Y-115123157D01*
X136957698Y-115123157D01*
X136826271Y-115102341D01*
X136786611Y-115096060D01*
X135813389Y-115096060D01*
X135773728Y-115102341D01*
X135642302Y-115123157D01*
X135477552Y-115176688D01*
X135323211Y-115255328D01*
X135248114Y-115309890D01*
X135183072Y-115357146D01*
X135183070Y-115357148D01*
X135183069Y-115357148D01*
X135060588Y-115479629D01*
X135060588Y-115479630D01*
X135060586Y-115479632D01*
X135033458Y-115516971D01*
X134958768Y-115619771D01*
X134880128Y-115774112D01*
X134826597Y-115938862D01*
X134803023Y-116087708D01*
X134799500Y-116109949D01*
X131210238Y-116109949D01*
X131213064Y-116101251D01*
X131215530Y-116085682D01*
X131215531Y-116085679D01*
X131250000Y-115868052D01*
X131250000Y-115631947D01*
X131213065Y-115398752D01*
X131140102Y-115174197D01*
X131032914Y-114963828D01*
X130972658Y-114880894D01*
X130972658Y-114880893D01*
X130273787Y-115579765D01*
X130262518Y-115537708D01*
X130190110Y-115412292D01*
X130087708Y-115309890D01*
X129962292Y-115237482D01*
X129920234Y-115226212D01*
X130619105Y-114527340D01*
X130619104Y-114527338D01*
X130536174Y-114467087D01*
X130325802Y-114359897D01*
X130101247Y-114286934D01*
X130101248Y-114286934D01*
X129868052Y-114250000D01*
X129631948Y-114250000D01*
X129398752Y-114286934D01*
X129174197Y-114359897D01*
X128963830Y-114467084D01*
X128880894Y-114527340D01*
X129579766Y-115226212D01*
X129537708Y-115237482D01*
X129412292Y-115309890D01*
X129309890Y-115412292D01*
X129237482Y-115537708D01*
X129226212Y-115579766D01*
X128527340Y-114880894D01*
X128467084Y-114963830D01*
X128359897Y-115174197D01*
X128286934Y-115398752D01*
X128250000Y-115631947D01*
X124750000Y-115631947D01*
X124713065Y-115398752D01*
X124640102Y-115174197D01*
X124532914Y-114963828D01*
X124472658Y-114880894D01*
X124472658Y-114880893D01*
X123773787Y-115579765D01*
X123762518Y-115537708D01*
X123690110Y-115412292D01*
X123587708Y-115309890D01*
X123462292Y-115237482D01*
X123420234Y-115226212D01*
X124119105Y-114527340D01*
X124119104Y-114527339D01*
X124036174Y-114467087D01*
X123825802Y-114359897D01*
X123601247Y-114286934D01*
X123601248Y-114286934D01*
X123368052Y-114250000D01*
X123131948Y-114250000D01*
X122898752Y-114286934D01*
X122674197Y-114359897D01*
X122463830Y-114467084D01*
X122380894Y-114527340D01*
X123079766Y-115226212D01*
X123037708Y-115237482D01*
X122912292Y-115309890D01*
X122809890Y-115412292D01*
X122737482Y-115537708D01*
X122726212Y-115579766D01*
X122027340Y-114880894D01*
X121967084Y-114963830D01*
X121859897Y-115174197D01*
X121786934Y-115398752D01*
X121750000Y-115631947D01*
X117248951Y-115631947D01*
X117222743Y-115605739D01*
X117222736Y-115605733D01*
X117030293Y-115458067D01*
X117030292Y-115458066D01*
X117030289Y-115458064D01*
X116820212Y-115336776D01*
X116820205Y-115336773D01*
X116596104Y-115243947D01*
X116361785Y-115181161D01*
X116121289Y-115149500D01*
X116121288Y-115149500D01*
X115878712Y-115149500D01*
X115878711Y-115149500D01*
X115638214Y-115181161D01*
X115403895Y-115243947D01*
X115179794Y-115336773D01*
X115179785Y-115336777D01*
X114969706Y-115458067D01*
X114777263Y-115605733D01*
X114777256Y-115605739D01*
X114605739Y-115777256D01*
X114605733Y-115777263D01*
X114458067Y-115969706D01*
X114458064Y-115969710D01*
X114458064Y-115969711D01*
X114453039Y-115978414D01*
X114336777Y-116179785D01*
X114336773Y-116179794D01*
X114243947Y-116403895D01*
X114181161Y-116638214D01*
X114149500Y-116878711D01*
X109111945Y-116878711D01*
X110044114Y-115946543D01*
X110120775Y-115831811D01*
X110123597Y-115825000D01*
X110154662Y-115750000D01*
X110173580Y-115704328D01*
X110182389Y-115660040D01*
X110200500Y-115568996D01*
X110200500Y-113569949D01*
X134799500Y-113569949D01*
X134799500Y-113743170D01*
X134815372Y-113843386D01*
X134826598Y-113914261D01*
X134880127Y-114079005D01*
X134958768Y-114233348D01*
X135060586Y-114373488D01*
X135183072Y-114495974D01*
X135323212Y-114597792D01*
X135477555Y-114676433D01*
X135642299Y-114729962D01*
X135813389Y-114757060D01*
X135813390Y-114757060D01*
X136786610Y-114757060D01*
X136786611Y-114757060D01*
X136957701Y-114729962D01*
X137122445Y-114676433D01*
X137276788Y-114597792D01*
X137416928Y-114495974D01*
X137539414Y-114373488D01*
X137641232Y-114233348D01*
X137719873Y-114079005D01*
X137773402Y-113914261D01*
X137800500Y-113743171D01*
X137800500Y-113569949D01*
X160199500Y-113569949D01*
X160199500Y-113743170D01*
X160215372Y-113843386D01*
X160226598Y-113914261D01*
X160280127Y-114079005D01*
X160358768Y-114233348D01*
X160460586Y-114373488D01*
X160583072Y-114495974D01*
X160723212Y-114597792D01*
X160877555Y-114676433D01*
X161042299Y-114729962D01*
X161213389Y-114757060D01*
X161213390Y-114757060D01*
X162186610Y-114757060D01*
X162186611Y-114757060D01*
X162357701Y-114729962D01*
X162522445Y-114676433D01*
X162676788Y-114597792D01*
X162816928Y-114495974D01*
X162939414Y-114373488D01*
X163041232Y-114233348D01*
X163119873Y-114079005D01*
X163173402Y-113914261D01*
X163200500Y-113743171D01*
X163200500Y-113569949D01*
X163173402Y-113398859D01*
X163119873Y-113234115D01*
X163041232Y-113079772D01*
X162939414Y-112939632D01*
X162816928Y-112817146D01*
X162676788Y-112715328D01*
X162522445Y-112636687D01*
X162357701Y-112583158D01*
X162357699Y-112583157D01*
X162357698Y-112583157D01*
X162226271Y-112562341D01*
X162186611Y-112556060D01*
X161213389Y-112556060D01*
X161173728Y-112562341D01*
X161042302Y-112583157D01*
X160877552Y-112636688D01*
X160723211Y-112715328D01*
X160674802Y-112750500D01*
X160583072Y-112817146D01*
X160583070Y-112817148D01*
X160583069Y-112817148D01*
X160460588Y-112939629D01*
X160460588Y-112939630D01*
X160460586Y-112939632D01*
X160416859Y-112999816D01*
X160358768Y-113079771D01*
X160280128Y-113234112D01*
X160226597Y-113398862D01*
X160199500Y-113569949D01*
X137800500Y-113569949D01*
X137773402Y-113398859D01*
X137719873Y-113234115D01*
X137641232Y-113079772D01*
X137539414Y-112939632D01*
X137416928Y-112817146D01*
X137276788Y-112715328D01*
X137122445Y-112636687D01*
X136957701Y-112583158D01*
X136957699Y-112583157D01*
X136957698Y-112583157D01*
X136826271Y-112562341D01*
X136786611Y-112556060D01*
X135813389Y-112556060D01*
X135773728Y-112562341D01*
X135642302Y-112583157D01*
X135477552Y-112636688D01*
X135323211Y-112715328D01*
X135274802Y-112750500D01*
X135183072Y-112817146D01*
X135183070Y-112817148D01*
X135183069Y-112817148D01*
X135060588Y-112939629D01*
X135060588Y-112939630D01*
X135060586Y-112939632D01*
X135016859Y-112999816D01*
X134958768Y-113079771D01*
X134880128Y-113234112D01*
X134826597Y-113398862D01*
X134799500Y-113569949D01*
X110200500Y-113569949D01*
X110200500Y-111131902D01*
X121749500Y-111131902D01*
X121749500Y-111368097D01*
X121786446Y-111601368D01*
X121859433Y-111825996D01*
X121925661Y-111955974D01*
X121966657Y-112036433D01*
X122105483Y-112227510D01*
X122272490Y-112394517D01*
X122463567Y-112533343D01*
X122508152Y-112556060D01*
X122674003Y-112640566D01*
X122674005Y-112640566D01*
X122674008Y-112640568D01*
X122794412Y-112679689D01*
X122898631Y-112713553D01*
X123131903Y-112750500D01*
X123131908Y-112750500D01*
X123368097Y-112750500D01*
X123601368Y-112713553D01*
X123825992Y-112640568D01*
X124036433Y-112533343D01*
X124227510Y-112394517D01*
X124394517Y-112227510D01*
X124533343Y-112036433D01*
X124640568Y-111825992D01*
X124713553Y-111601368D01*
X124723430Y-111539005D01*
X124750500Y-111368097D01*
X124750500Y-111131902D01*
X128249500Y-111131902D01*
X128249500Y-111368097D01*
X128286446Y-111601368D01*
X128359433Y-111825996D01*
X128425661Y-111955974D01*
X128466657Y-112036433D01*
X128605483Y-112227510D01*
X128772490Y-112394517D01*
X128963567Y-112533343D01*
X129008152Y-112556060D01*
X129174003Y-112640566D01*
X129174005Y-112640566D01*
X129174008Y-112640568D01*
X129294412Y-112679689D01*
X129398631Y-112713553D01*
X129631903Y-112750500D01*
X129631908Y-112750500D01*
X129868097Y-112750500D01*
X130101368Y-112713553D01*
X130325992Y-112640568D01*
X130536433Y-112533343D01*
X130727510Y-112394517D01*
X130894517Y-112227510D01*
X131033343Y-112036433D01*
X131140568Y-111825992D01*
X131213553Y-111601368D01*
X131223430Y-111539005D01*
X131250500Y-111368097D01*
X131250500Y-111131902D01*
X131236653Y-111044476D01*
X131217416Y-110923024D01*
X131213553Y-110898632D01*
X131207232Y-110879179D01*
X131203132Y-110866559D01*
X134825884Y-110866559D01*
X134825885Y-110866560D01*
X135984314Y-110866560D01*
X135979920Y-110870954D01*
X135927259Y-110962166D01*
X135900000Y-111063899D01*
X135900000Y-111169221D01*
X135927259Y-111270954D01*
X135979920Y-111362166D01*
X135984314Y-111366560D01*
X134825885Y-111366560D01*
X134827085Y-111374144D01*
X134880591Y-111538815D01*
X134959195Y-111693084D01*
X135060967Y-111833162D01*
X135183397Y-111955592D01*
X135323475Y-112057364D01*
X135477742Y-112135968D01*
X135642415Y-112189474D01*
X135813429Y-112216560D01*
X136050000Y-112216560D01*
X136050000Y-111432246D01*
X136054394Y-111436640D01*
X136145606Y-111489301D01*
X136247339Y-111516560D01*
X136352661Y-111516560D01*
X136454394Y-111489301D01*
X136545606Y-111436640D01*
X136550000Y-111432246D01*
X136550000Y-112216560D01*
X136786571Y-112216560D01*
X136957584Y-112189474D01*
X137122257Y-112135968D01*
X137276524Y-112057364D01*
X137416602Y-111955592D01*
X137539032Y-111833162D01*
X137640804Y-111693084D01*
X137719408Y-111538815D01*
X137772914Y-111374144D01*
X137774115Y-111366560D01*
X136615686Y-111366560D01*
X136620080Y-111362166D01*
X136672741Y-111270954D01*
X136700000Y-111169221D01*
X136700000Y-111063899D01*
X136690903Y-111029949D01*
X160199500Y-111029949D01*
X160199500Y-111203170D01*
X160225621Y-111368097D01*
X160226598Y-111374261D01*
X160280127Y-111539005D01*
X160358768Y-111693348D01*
X160460586Y-111833488D01*
X160583072Y-111955974D01*
X160723212Y-112057792D01*
X160877555Y-112136433D01*
X161042299Y-112189962D01*
X161213389Y-112217060D01*
X161213390Y-112217060D01*
X162186610Y-112217060D01*
X162186611Y-112217060D01*
X162357701Y-112189962D01*
X162522445Y-112136433D01*
X162676788Y-112057792D01*
X162816928Y-111955974D01*
X162939414Y-111833488D01*
X163041232Y-111693348D01*
X163119873Y-111539005D01*
X163173402Y-111374261D01*
X163200500Y-111203171D01*
X163200500Y-111029949D01*
X163173402Y-110858859D01*
X163119873Y-110694115D01*
X163041232Y-110539772D01*
X162939414Y-110399632D01*
X162816928Y-110277146D01*
X162676788Y-110175328D01*
X162522445Y-110096687D01*
X162357701Y-110043158D01*
X162357699Y-110043157D01*
X162357698Y-110043157D01*
X162226271Y-110022341D01*
X162186611Y-110016060D01*
X161213389Y-110016060D01*
X161173728Y-110022341D01*
X161042302Y-110043157D01*
X160877552Y-110096688D01*
X160723211Y-110175328D01*
X160643256Y-110233419D01*
X160583072Y-110277146D01*
X160583070Y-110277148D01*
X160583069Y-110277148D01*
X160460588Y-110399629D01*
X160460588Y-110399630D01*
X160460586Y-110399632D01*
X160416859Y-110459816D01*
X160358768Y-110539771D01*
X160280128Y-110694112D01*
X160226597Y-110858862D01*
X160199500Y-111029949D01*
X136690903Y-111029949D01*
X136672741Y-110962166D01*
X136620080Y-110870954D01*
X136615686Y-110866560D01*
X137774115Y-110866560D01*
X137774115Y-110866559D01*
X137772914Y-110858975D01*
X137719408Y-110694304D01*
X137640804Y-110540035D01*
X137539032Y-110399957D01*
X137416602Y-110277527D01*
X137276524Y-110175755D01*
X137122257Y-110097151D01*
X136957584Y-110043645D01*
X136786571Y-110016560D01*
X136550000Y-110016560D01*
X136550000Y-110800874D01*
X136545606Y-110796480D01*
X136454394Y-110743819D01*
X136352661Y-110716560D01*
X136247339Y-110716560D01*
X136145606Y-110743819D01*
X136054394Y-110796480D01*
X136050000Y-110800874D01*
X136050000Y-110016560D01*
X135813429Y-110016560D01*
X135642415Y-110043645D01*
X135477742Y-110097151D01*
X135323475Y-110175755D01*
X135183397Y-110277527D01*
X135060967Y-110399957D01*
X134959195Y-110540035D01*
X134880591Y-110694304D01*
X134827085Y-110858975D01*
X134825884Y-110866559D01*
X131203132Y-110866559D01*
X131163251Y-110743819D01*
X131140568Y-110674008D01*
X131140566Y-110674005D01*
X131140566Y-110674003D01*
X131033342Y-110463566D01*
X130894517Y-110272490D01*
X130727510Y-110105483D01*
X130631971Y-110036070D01*
X130536431Y-109966655D01*
X130418204Y-109906415D01*
X130367409Y-109858441D01*
X130350500Y-109795931D01*
X130350500Y-108489949D01*
X134799500Y-108489949D01*
X134799500Y-108663171D01*
X134826598Y-108834261D01*
X134880127Y-108999005D01*
X134958768Y-109153348D01*
X135060586Y-109293488D01*
X135183072Y-109415974D01*
X135323212Y-109517792D01*
X135477555Y-109596433D01*
X135642299Y-109649962D01*
X135813389Y-109677060D01*
X135813390Y-109677060D01*
X136786610Y-109677060D01*
X136786611Y-109677060D01*
X136957701Y-109649962D01*
X137122445Y-109596433D01*
X137276788Y-109517792D01*
X137416928Y-109415974D01*
X137539414Y-109293488D01*
X137641232Y-109153348D01*
X137719873Y-108999005D01*
X137773402Y-108834261D01*
X137800500Y-108663171D01*
X137800500Y-108489949D01*
X160199500Y-108489949D01*
X160199500Y-108663171D01*
X160226598Y-108834261D01*
X160280127Y-108999005D01*
X160358768Y-109153348D01*
X160460586Y-109293488D01*
X160583072Y-109415974D01*
X160723212Y-109517792D01*
X160877555Y-109596433D01*
X161042299Y-109649962D01*
X161213389Y-109677060D01*
X161213390Y-109677060D01*
X162186610Y-109677060D01*
X162186611Y-109677060D01*
X162357701Y-109649962D01*
X162522445Y-109596433D01*
X162676788Y-109517792D01*
X162816928Y-109415974D01*
X162939414Y-109293488D01*
X163041232Y-109153348D01*
X163119873Y-108999005D01*
X163173402Y-108834261D01*
X163200500Y-108663171D01*
X163200500Y-108489949D01*
X163173402Y-108318859D01*
X163119873Y-108154115D01*
X163041232Y-107999772D01*
X162939414Y-107859632D01*
X162816928Y-107737146D01*
X162676788Y-107635328D01*
X162529724Y-107560396D01*
X162522447Y-107556688D01*
X162522446Y-107556687D01*
X162522445Y-107556687D01*
X162357701Y-107503158D01*
X162357699Y-107503157D01*
X162357698Y-107503157D01*
X162226271Y-107482341D01*
X162186611Y-107476060D01*
X161213389Y-107476060D01*
X161173728Y-107482341D01*
X161042302Y-107503157D01*
X160877552Y-107556688D01*
X160723211Y-107635328D01*
X160643256Y-107693419D01*
X160583072Y-107737146D01*
X160583070Y-107737148D01*
X160583069Y-107737148D01*
X160460588Y-107859629D01*
X160460588Y-107859630D01*
X160460586Y-107859632D01*
X160430330Y-107901276D01*
X160358768Y-107999771D01*
X160280128Y-108154112D01*
X160226597Y-108318862D01*
X160199500Y-108489949D01*
X137800500Y-108489949D01*
X137773402Y-108318859D01*
X137719873Y-108154115D01*
X137641232Y-107999772D01*
X137539414Y-107859632D01*
X137416928Y-107737146D01*
X137276788Y-107635328D01*
X137129724Y-107560396D01*
X137122447Y-107556688D01*
X137122446Y-107556687D01*
X137122445Y-107556687D01*
X136957701Y-107503158D01*
X136957699Y-107503157D01*
X136957698Y-107503157D01*
X136826271Y-107482341D01*
X136786611Y-107476060D01*
X135813389Y-107476060D01*
X135773728Y-107482341D01*
X135642302Y-107503157D01*
X135477552Y-107556688D01*
X135323211Y-107635328D01*
X135243256Y-107693419D01*
X135183072Y-107737146D01*
X135183070Y-107737148D01*
X135183069Y-107737148D01*
X135060588Y-107859629D01*
X135060588Y-107859630D01*
X135060586Y-107859632D01*
X135030330Y-107901276D01*
X134958768Y-107999771D01*
X134880128Y-108154112D01*
X134826597Y-108318862D01*
X134799500Y-108489949D01*
X130350500Y-108489949D01*
X130350500Y-105949949D01*
X134799500Y-105949949D01*
X134799500Y-106123170D01*
X134816974Y-106233501D01*
X134826598Y-106294261D01*
X134880127Y-106459005D01*
X134958768Y-106613348D01*
X135060586Y-106753488D01*
X135183072Y-106875974D01*
X135323212Y-106977792D01*
X135477555Y-107056433D01*
X135642299Y-107109962D01*
X135813389Y-107137060D01*
X135813390Y-107137060D01*
X136786610Y-107137060D01*
X136786611Y-107137060D01*
X136957701Y-107109962D01*
X137122445Y-107056433D01*
X137276788Y-106977792D01*
X137416928Y-106875974D01*
X137539414Y-106753488D01*
X137641232Y-106613348D01*
X137719873Y-106459005D01*
X137773402Y-106294261D01*
X137800500Y-106123171D01*
X137800500Y-105949949D01*
X160199500Y-105949949D01*
X160199500Y-106123170D01*
X160216974Y-106233501D01*
X160226598Y-106294261D01*
X160280127Y-106459005D01*
X160358768Y-106613348D01*
X160460586Y-106753488D01*
X160583072Y-106875974D01*
X160723212Y-106977792D01*
X160877555Y-107056433D01*
X161042299Y-107109962D01*
X161213389Y-107137060D01*
X161213390Y-107137060D01*
X162186610Y-107137060D01*
X162186611Y-107137060D01*
X162357701Y-107109962D01*
X162522445Y-107056433D01*
X162676788Y-106977792D01*
X162816928Y-106875974D01*
X162939414Y-106753488D01*
X163041232Y-106613348D01*
X163119873Y-106459005D01*
X163173402Y-106294261D01*
X163200500Y-106123171D01*
X163200500Y-105949949D01*
X163173402Y-105778859D01*
X163119873Y-105614115D01*
X163041232Y-105459772D01*
X162939414Y-105319632D01*
X162816928Y-105197146D01*
X162676788Y-105095328D01*
X162522445Y-105016687D01*
X162357701Y-104963158D01*
X162357699Y-104963157D01*
X162357698Y-104963157D01*
X162226271Y-104942341D01*
X162186611Y-104936060D01*
X161213389Y-104936060D01*
X161173728Y-104942341D01*
X161042302Y-104963157D01*
X160877552Y-105016688D01*
X160723211Y-105095328D01*
X160665722Y-105137097D01*
X160583072Y-105197146D01*
X160583070Y-105197148D01*
X160583069Y-105197148D01*
X160460588Y-105319629D01*
X160460588Y-105319630D01*
X160460586Y-105319632D01*
X160416859Y-105379816D01*
X160358768Y-105459771D01*
X160280128Y-105614112D01*
X160226597Y-105778862D01*
X160199500Y-105949949D01*
X137800500Y-105949949D01*
X137773402Y-105778859D01*
X137719873Y-105614115D01*
X137641232Y-105459772D01*
X137539414Y-105319632D01*
X137416928Y-105197146D01*
X137276788Y-105095328D01*
X137122445Y-105016687D01*
X136957701Y-104963158D01*
X136957699Y-104963157D01*
X136957698Y-104963157D01*
X136826271Y-104942341D01*
X136786611Y-104936060D01*
X135813389Y-104936060D01*
X135773728Y-104942341D01*
X135642302Y-104963157D01*
X135477552Y-105016688D01*
X135323211Y-105095328D01*
X135265722Y-105137097D01*
X135183072Y-105197146D01*
X135183070Y-105197148D01*
X135183069Y-105197148D01*
X135060588Y-105319629D01*
X135060588Y-105319630D01*
X135060586Y-105319632D01*
X135016859Y-105379816D01*
X134958768Y-105459771D01*
X134880128Y-105614112D01*
X134826597Y-105778862D01*
X134799500Y-105949949D01*
X130350500Y-105949949D01*
X130350500Y-103409949D01*
X134799500Y-103409949D01*
X134799500Y-103583170D01*
X134822770Y-103730096D01*
X134826598Y-103754261D01*
X134880127Y-103919005D01*
X134958768Y-104073348D01*
X135060586Y-104213488D01*
X135183072Y-104335974D01*
X135323212Y-104437792D01*
X135477555Y-104516433D01*
X135642299Y-104569962D01*
X135813389Y-104597060D01*
X135813390Y-104597060D01*
X136786610Y-104597060D01*
X136786611Y-104597060D01*
X136957701Y-104569962D01*
X137122445Y-104516433D01*
X137276788Y-104437792D01*
X137416928Y-104335974D01*
X137539414Y-104213488D01*
X137641232Y-104073348D01*
X137719873Y-103919005D01*
X137773402Y-103754261D01*
X137800500Y-103583171D01*
X137800500Y-103409949D01*
X160199500Y-103409949D01*
X160199500Y-103583170D01*
X160222770Y-103730096D01*
X160226598Y-103754261D01*
X160280127Y-103919005D01*
X160358768Y-104073348D01*
X160460586Y-104213488D01*
X160583072Y-104335974D01*
X160723212Y-104437792D01*
X160877555Y-104516433D01*
X161042299Y-104569962D01*
X161213389Y-104597060D01*
X161213390Y-104597060D01*
X162186610Y-104597060D01*
X162186611Y-104597060D01*
X162357701Y-104569962D01*
X162522445Y-104516433D01*
X162676788Y-104437792D01*
X162816928Y-104335974D01*
X162939414Y-104213488D01*
X163041232Y-104073348D01*
X163119873Y-103919005D01*
X163173402Y-103754261D01*
X163200500Y-103583171D01*
X163200500Y-103409949D01*
X163173402Y-103238859D01*
X163119873Y-103074115D01*
X163041232Y-102919772D01*
X162939414Y-102779632D01*
X162816928Y-102657146D01*
X162676788Y-102555328D01*
X162522445Y-102476687D01*
X162357701Y-102423158D01*
X162357699Y-102423157D01*
X162357698Y-102423157D01*
X162226271Y-102402341D01*
X162186611Y-102396060D01*
X161213389Y-102396060D01*
X161173728Y-102402341D01*
X161042302Y-102423157D01*
X160877552Y-102476688D01*
X160723211Y-102555328D01*
X160647657Y-102610222D01*
X160583072Y-102657146D01*
X160583070Y-102657148D01*
X160583069Y-102657148D01*
X160460588Y-102779629D01*
X160460588Y-102779630D01*
X160460586Y-102779632D01*
X160425480Y-102827951D01*
X160358768Y-102919771D01*
X160280128Y-103074112D01*
X160226597Y-103238862D01*
X160199500Y-103409949D01*
X137800500Y-103409949D01*
X137773402Y-103238859D01*
X137719873Y-103074115D01*
X137641232Y-102919772D01*
X137539414Y-102779632D01*
X137416928Y-102657146D01*
X137276788Y-102555328D01*
X137122445Y-102476687D01*
X136957701Y-102423158D01*
X136957699Y-102423157D01*
X136957698Y-102423157D01*
X136826271Y-102402341D01*
X136786611Y-102396060D01*
X135813389Y-102396060D01*
X135773728Y-102402341D01*
X135642302Y-102423157D01*
X135477552Y-102476688D01*
X135323211Y-102555328D01*
X135247657Y-102610222D01*
X135183072Y-102657146D01*
X135183070Y-102657148D01*
X135183069Y-102657148D01*
X135060588Y-102779629D01*
X135060588Y-102779630D01*
X135060586Y-102779632D01*
X135025480Y-102827951D01*
X134958768Y-102919771D01*
X134880128Y-103074112D01*
X134826597Y-103238862D01*
X134799500Y-103409949D01*
X130350500Y-103409949D01*
X130350500Y-100869949D01*
X134799500Y-100869949D01*
X134799500Y-101043170D01*
X134824672Y-101202105D01*
X134826598Y-101214261D01*
X134880127Y-101379005D01*
X134958768Y-101533348D01*
X135060586Y-101673488D01*
X135183072Y-101795974D01*
X135323212Y-101897792D01*
X135477555Y-101976433D01*
X135642299Y-102029962D01*
X135813389Y-102057060D01*
X135813390Y-102057060D01*
X136786610Y-102057060D01*
X136786611Y-102057060D01*
X136957701Y-102029962D01*
X137122445Y-101976433D01*
X137276788Y-101897792D01*
X137416928Y-101795974D01*
X137539414Y-101673488D01*
X137641232Y-101533348D01*
X137719873Y-101379005D01*
X137773402Y-101214261D01*
X137800500Y-101043171D01*
X137800500Y-100869949D01*
X160199500Y-100869949D01*
X160199500Y-101043170D01*
X160224672Y-101202105D01*
X160226598Y-101214261D01*
X160280127Y-101379005D01*
X160358768Y-101533348D01*
X160460586Y-101673488D01*
X160583072Y-101795974D01*
X160723212Y-101897792D01*
X160877555Y-101976433D01*
X161042299Y-102029962D01*
X161213389Y-102057060D01*
X161213390Y-102057060D01*
X162186610Y-102057060D01*
X162186611Y-102057060D01*
X162357701Y-102029962D01*
X162522445Y-101976433D01*
X162676788Y-101897792D01*
X162816928Y-101795974D01*
X162939414Y-101673488D01*
X163041232Y-101533348D01*
X163119873Y-101379005D01*
X163173402Y-101214261D01*
X163200500Y-101043171D01*
X163200500Y-100869949D01*
X163173402Y-100698859D01*
X163119873Y-100534115D01*
X163041232Y-100379772D01*
X162939414Y-100239632D01*
X162816928Y-100117146D01*
X162676788Y-100015328D01*
X162522445Y-99936687D01*
X162357701Y-99883158D01*
X162357699Y-99883157D01*
X162357698Y-99883157D01*
X162226271Y-99862341D01*
X162186611Y-99856060D01*
X161213389Y-99856060D01*
X161173728Y-99862341D01*
X161042302Y-99883157D01*
X160877552Y-99936688D01*
X160723211Y-100015328D01*
X160643256Y-100073419D01*
X160583072Y-100117146D01*
X160583070Y-100117148D01*
X160583069Y-100117148D01*
X160460588Y-100239629D01*
X160460588Y-100239630D01*
X160460586Y-100239632D01*
X160416859Y-100299816D01*
X160358768Y-100379771D01*
X160280128Y-100534112D01*
X160226597Y-100698862D01*
X160199500Y-100869949D01*
X137800500Y-100869949D01*
X137773402Y-100698859D01*
X137719873Y-100534115D01*
X137641232Y-100379772D01*
X137539414Y-100239632D01*
X137416928Y-100117146D01*
X137276788Y-100015328D01*
X137122445Y-99936687D01*
X136957701Y-99883158D01*
X136957699Y-99883157D01*
X136957698Y-99883157D01*
X136826271Y-99862341D01*
X136786611Y-99856060D01*
X135813389Y-99856060D01*
X135773728Y-99862341D01*
X135642302Y-99883157D01*
X135477552Y-99936688D01*
X135323211Y-100015328D01*
X135243256Y-100073419D01*
X135183072Y-100117146D01*
X135183070Y-100117148D01*
X135183069Y-100117148D01*
X135060588Y-100239629D01*
X135060588Y-100239630D01*
X135060586Y-100239632D01*
X135016859Y-100299816D01*
X134958768Y-100379771D01*
X134880128Y-100534112D01*
X134826597Y-100698862D01*
X134799500Y-100869949D01*
X130350500Y-100869949D01*
X130350500Y-98329949D01*
X134799500Y-98329949D01*
X134799500Y-98503171D01*
X134826598Y-98674261D01*
X134880127Y-98839005D01*
X134958768Y-98993348D01*
X135060586Y-99133488D01*
X135183072Y-99255974D01*
X135323212Y-99357792D01*
X135477555Y-99436433D01*
X135642299Y-99489962D01*
X135813389Y-99517060D01*
X135813390Y-99517060D01*
X136786610Y-99517060D01*
X136786611Y-99517060D01*
X136957701Y-99489962D01*
X137122445Y-99436433D01*
X137276788Y-99357792D01*
X137416928Y-99255974D01*
X137539414Y-99133488D01*
X137641232Y-98993348D01*
X137719873Y-98839005D01*
X137773402Y-98674261D01*
X137800500Y-98503171D01*
X137800500Y-98329949D01*
X160199500Y-98329949D01*
X160199500Y-98503171D01*
X160226598Y-98674261D01*
X160280127Y-98839005D01*
X160358768Y-98993348D01*
X160460586Y-99133488D01*
X160583072Y-99255974D01*
X160723212Y-99357792D01*
X160877555Y-99436433D01*
X161042299Y-99489962D01*
X161213389Y-99517060D01*
X161213390Y-99517060D01*
X162186610Y-99517060D01*
X162186611Y-99517060D01*
X162357701Y-99489962D01*
X162522445Y-99436433D01*
X162676788Y-99357792D01*
X162816928Y-99255974D01*
X162939414Y-99133488D01*
X163041232Y-98993348D01*
X163119873Y-98839005D01*
X163173402Y-98674261D01*
X163200500Y-98503171D01*
X163200500Y-98329949D01*
X163173402Y-98158859D01*
X163119873Y-97994115D01*
X163041232Y-97839772D01*
X162939414Y-97699632D01*
X162816928Y-97577146D01*
X162676788Y-97475328D01*
X162522445Y-97396687D01*
X162357701Y-97343158D01*
X162357699Y-97343157D01*
X162357698Y-97343157D01*
X162226271Y-97322341D01*
X162186611Y-97316060D01*
X161213389Y-97316060D01*
X161173728Y-97322341D01*
X161042302Y-97343157D01*
X160877552Y-97396688D01*
X160723211Y-97475328D01*
X160675092Y-97510289D01*
X160583072Y-97577146D01*
X160583070Y-97577148D01*
X160583069Y-97577148D01*
X160460588Y-97699629D01*
X160460588Y-97699630D01*
X160460586Y-97699632D01*
X160452507Y-97710752D01*
X160358768Y-97839771D01*
X160280128Y-97994112D01*
X160226597Y-98158862D01*
X160212083Y-98250500D01*
X160199500Y-98329949D01*
X137800500Y-98329949D01*
X137773402Y-98158859D01*
X137719873Y-97994115D01*
X137641232Y-97839772D01*
X137539414Y-97699632D01*
X137416928Y-97577146D01*
X137276788Y-97475328D01*
X137122445Y-97396687D01*
X136957701Y-97343158D01*
X136957699Y-97343157D01*
X136957698Y-97343157D01*
X136826271Y-97322341D01*
X136786611Y-97316060D01*
X135813389Y-97316060D01*
X135773728Y-97322341D01*
X135642302Y-97343157D01*
X135477552Y-97396688D01*
X135323211Y-97475328D01*
X135275092Y-97510289D01*
X135183072Y-97577146D01*
X135183070Y-97577148D01*
X135183069Y-97577148D01*
X135060588Y-97699629D01*
X135060588Y-97699630D01*
X135060586Y-97699632D01*
X135052507Y-97710752D01*
X134958768Y-97839771D01*
X134880128Y-97994112D01*
X134826597Y-98158862D01*
X134812083Y-98250500D01*
X134799500Y-98329949D01*
X130350500Y-98329949D01*
X130350500Y-96794836D01*
X130370185Y-96727797D01*
X130405609Y-96691734D01*
X130510289Y-96621789D01*
X130621786Y-96510292D01*
X130621789Y-96510289D01*
X130709394Y-96379179D01*
X130769737Y-96233497D01*
X130800500Y-96078842D01*
X130800500Y-95921158D01*
X130800500Y-95921155D01*
X130800499Y-95921153D01*
X130777634Y-95806204D01*
X130769737Y-95766503D01*
X130769735Y-95766498D01*
X130709397Y-95620827D01*
X130709390Y-95620814D01*
X130621789Y-95489711D01*
X130621786Y-95489707D01*
X130580813Y-95448734D01*
X130547328Y-95387411D01*
X130552312Y-95317719D01*
X130580813Y-95273372D01*
X130584450Y-95269735D01*
X130650966Y-95203219D01*
X130650968Y-95203215D01*
X130650971Y-95203213D01*
X130771284Y-95037614D01*
X130771285Y-95037613D01*
X130771287Y-95037610D01*
X130778117Y-95024204D01*
X130826091Y-94973409D01*
X130888602Y-94956500D01*
X134479343Y-94956500D01*
X134546382Y-94976185D01*
X134567024Y-94992819D01*
X134866443Y-95292239D01*
X134899928Y-95353562D01*
X134894944Y-95423254D01*
X134889249Y-95436211D01*
X134880129Y-95454110D01*
X134880126Y-95454117D01*
X134826597Y-95618862D01*
X134799500Y-95789949D01*
X134799500Y-95963170D01*
X134824262Y-96119516D01*
X134826598Y-96134261D01*
X134880127Y-96299005D01*
X134958768Y-96453348D01*
X135060586Y-96593488D01*
X135183072Y-96715974D01*
X135323212Y-96817792D01*
X135477555Y-96896433D01*
X135642299Y-96949962D01*
X135813389Y-96977060D01*
X135813390Y-96977060D01*
X136786610Y-96977060D01*
X136786611Y-96977060D01*
X136957701Y-96949962D01*
X137122445Y-96896433D01*
X137276788Y-96817792D01*
X137416928Y-96715974D01*
X137539414Y-96593488D01*
X137641232Y-96453348D01*
X137719873Y-96299005D01*
X137773402Y-96134261D01*
X137800500Y-95963171D01*
X137800500Y-95789949D01*
X160199500Y-95789949D01*
X160199500Y-95963170D01*
X160224262Y-96119516D01*
X160226598Y-96134261D01*
X160280127Y-96299005D01*
X160358768Y-96453348D01*
X160460586Y-96593488D01*
X160583072Y-96715974D01*
X160723212Y-96817792D01*
X160877555Y-96896433D01*
X161042299Y-96949962D01*
X161213389Y-96977060D01*
X161213390Y-96977060D01*
X162186610Y-96977060D01*
X162186611Y-96977060D01*
X162357701Y-96949962D01*
X162522445Y-96896433D01*
X162676788Y-96817792D01*
X162816928Y-96715974D01*
X162939414Y-96593488D01*
X163041232Y-96453348D01*
X163119873Y-96299005D01*
X163173402Y-96134261D01*
X163200500Y-95963171D01*
X163200500Y-95789949D01*
X163173402Y-95618859D01*
X163119873Y-95454115D01*
X163041232Y-95299772D01*
X162939414Y-95159632D01*
X162816928Y-95037146D01*
X162676788Y-94935328D01*
X162522446Y-94856687D01*
X162436743Y-94828840D01*
X162357701Y-94803158D01*
X162357699Y-94803157D01*
X162357698Y-94803157D01*
X162226271Y-94782341D01*
X162186611Y-94776060D01*
X161213389Y-94776060D01*
X161173728Y-94782341D01*
X161042302Y-94803157D01*
X160877552Y-94856688D01*
X160723211Y-94935328D01*
X160695651Y-94955352D01*
X160583072Y-95037146D01*
X160583070Y-95037148D01*
X160583069Y-95037148D01*
X160460588Y-95159629D01*
X160460588Y-95159630D01*
X160460586Y-95159632D01*
X160423407Y-95210804D01*
X160358768Y-95299771D01*
X160280128Y-95454112D01*
X160226597Y-95618862D01*
X160199500Y-95789949D01*
X137800500Y-95789949D01*
X137773402Y-95618859D01*
X137719873Y-95454115D01*
X137641232Y-95299772D01*
X137539414Y-95159632D01*
X137416928Y-95037146D01*
X137276788Y-94935328D01*
X137122445Y-94856687D01*
X136957701Y-94803158D01*
X136957699Y-94803157D01*
X136957698Y-94803157D01*
X136826271Y-94782341D01*
X136786611Y-94776060D01*
X136786610Y-94776060D01*
X136100098Y-94776060D01*
X136070657Y-94767415D01*
X136040671Y-94760892D01*
X136035655Y-94757137D01*
X136033059Y-94756375D01*
X136012417Y-94739741D01*
X135921417Y-94648741D01*
X135887932Y-94587418D01*
X135892916Y-94517726D01*
X135934788Y-94461793D01*
X136000252Y-94437376D01*
X136009098Y-94437060D01*
X136786610Y-94437060D01*
X136786611Y-94437060D01*
X136957701Y-94409962D01*
X137122445Y-94356433D01*
X137276788Y-94277792D01*
X137416928Y-94175974D01*
X137539414Y-94053488D01*
X137641232Y-93913348D01*
X137719873Y-93759005D01*
X137773402Y-93594261D01*
X137800500Y-93423171D01*
X137800500Y-93249949D01*
X137773402Y-93078859D01*
X137719873Y-92914115D01*
X137641232Y-92759772D01*
X137539414Y-92619632D01*
X137416928Y-92497146D01*
X137276788Y-92395328D01*
X137122445Y-92316687D01*
X136957701Y-92263158D01*
X136957699Y-92263157D01*
X136957698Y-92263157D01*
X136826271Y-92242341D01*
X136786611Y-92236060D01*
X135813389Y-92236060D01*
X135773728Y-92242341D01*
X135642302Y-92263157D01*
X135477552Y-92316688D01*
X135323211Y-92395328D01*
X135243256Y-92453419D01*
X135183072Y-92497146D01*
X135183070Y-92497148D01*
X135183069Y-92497148D01*
X135060588Y-92619629D01*
X135060588Y-92619630D01*
X135060586Y-92619632D01*
X135059718Y-92620827D01*
X134958768Y-92759771D01*
X134880128Y-92914112D01*
X134826597Y-93078862D01*
X134799500Y-93249949D01*
X134799500Y-93423170D01*
X134826597Y-93594258D01*
X134827735Y-93598996D01*
X134826425Y-93599310D01*
X134827051Y-93621303D01*
X134831055Y-93649138D01*
X134828031Y-93655758D01*
X134828239Y-93663035D01*
X134813714Y-93687113D01*
X134802034Y-93712696D01*
X134795909Y-93716632D01*
X134792151Y-93722864D01*
X134766916Y-93735267D01*
X134743258Y-93750474D01*
X134732969Y-93751953D01*
X134729447Y-93753685D01*
X134708324Y-93755499D01*
X134700383Y-93755499D01*
X134700380Y-93755499D01*
X134692779Y-93755500D01*
X134692777Y-93755499D01*
X134692771Y-93755500D01*
X130888602Y-93755500D01*
X130821563Y-93735815D01*
X130778117Y-93687795D01*
X130771287Y-93674390D01*
X130771285Y-93674387D01*
X130771284Y-93674385D01*
X130650971Y-93508786D01*
X130506213Y-93364028D01*
X130340613Y-93243715D01*
X130340612Y-93243714D01*
X130340610Y-93243713D01*
X130283653Y-93214691D01*
X130158223Y-93150781D01*
X129963534Y-93087522D01*
X129788995Y-93059878D01*
X129761352Y-93055500D01*
X129556648Y-93055500D01*
X129532329Y-93059351D01*
X129354465Y-93087522D01*
X129159776Y-93150781D01*
X128977386Y-93243715D01*
X128811786Y-93364028D01*
X128667028Y-93508786D01*
X128546715Y-93674386D01*
X128453781Y-93856776D01*
X128390522Y-94051465D01*
X128358500Y-94253648D01*
X128358500Y-94458351D01*
X128390522Y-94660534D01*
X128453781Y-94855223D01*
X128546715Y-95037613D01*
X128667028Y-95203213D01*
X128811786Y-95347971D01*
X128966749Y-95460556D01*
X128977390Y-95468287D01*
X129077858Y-95519478D01*
X129159780Y-95561220D01*
X129159786Y-95561222D01*
X129169268Y-95564303D01*
X129226944Y-95603739D01*
X129254143Y-95668098D01*
X129245513Y-95729685D01*
X129230263Y-95766502D01*
X129230261Y-95766510D01*
X129199500Y-95921153D01*
X129199500Y-95971636D01*
X129191834Y-96010179D01*
X129192527Y-96010365D01*
X129190424Y-96018213D01*
X129190423Y-96018215D01*
X129149499Y-96170943D01*
X129149499Y-96170945D01*
X129149499Y-96339046D01*
X129149500Y-96339059D01*
X129149500Y-109795931D01*
X129129815Y-109862970D01*
X129081796Y-109906415D01*
X128963568Y-109966655D01*
X128857602Y-110043645D01*
X128772490Y-110105483D01*
X128772488Y-110105485D01*
X128772487Y-110105485D01*
X128605485Y-110272487D01*
X128605485Y-110272488D01*
X128605483Y-110272490D01*
X128545862Y-110354550D01*
X128466657Y-110463566D01*
X128359433Y-110674003D01*
X128286446Y-110898631D01*
X128249500Y-111131902D01*
X124750500Y-111131902D01*
X124713553Y-110898631D01*
X124663251Y-110743819D01*
X124640568Y-110674008D01*
X124640566Y-110674005D01*
X124640566Y-110674003D01*
X124533342Y-110463566D01*
X124394517Y-110272490D01*
X124227510Y-110105483D01*
X124036433Y-109966657D01*
X124036429Y-109966655D01*
X123825996Y-109859433D01*
X123601368Y-109786446D01*
X123368097Y-109749500D01*
X123368092Y-109749500D01*
X123131908Y-109749500D01*
X123131903Y-109749500D01*
X122898631Y-109786446D01*
X122674003Y-109859433D01*
X122463566Y-109966657D01*
X122358274Y-110043157D01*
X122272490Y-110105483D01*
X122272488Y-110105485D01*
X122272487Y-110105485D01*
X122105485Y-110272487D01*
X122105485Y-110272488D01*
X122105483Y-110272490D01*
X122045862Y-110354550D01*
X121966657Y-110463566D01*
X121859433Y-110674003D01*
X121786446Y-110898631D01*
X121749500Y-111131902D01*
X110200500Y-111131902D01*
X110200500Y-106631941D01*
X110220185Y-106564902D01*
X110272989Y-106519147D01*
X110342147Y-106509203D01*
X110405703Y-106538228D01*
X110412181Y-106544260D01*
X110489707Y-106621786D01*
X110489711Y-106621789D01*
X110620814Y-106709390D01*
X110620827Y-106709397D01*
X110727279Y-106753490D01*
X110766503Y-106769737D01*
X110921153Y-106800499D01*
X110921156Y-106800500D01*
X110921158Y-106800500D01*
X111078844Y-106800500D01*
X111078845Y-106800499D01*
X111233497Y-106769737D01*
X111375082Y-106711091D01*
X111379172Y-106709397D01*
X111379172Y-106709396D01*
X111379179Y-106709394D01*
X111510289Y-106621789D01*
X111621789Y-106510289D01*
X111709394Y-106379179D01*
X111769737Y-106233497D01*
X111800500Y-106078842D01*
X111800500Y-105921158D01*
X111800500Y-105921155D01*
X111800499Y-105921153D01*
X111781573Y-105826007D01*
X111769737Y-105766503D01*
X111769735Y-105766498D01*
X111709397Y-105620827D01*
X111709390Y-105620814D01*
X111621398Y-105489125D01*
X111600520Y-105422447D01*
X111600500Y-105420234D01*
X111600500Y-98300097D01*
X111620185Y-98233058D01*
X111636819Y-98212416D01*
X111815171Y-98034064D01*
X112014665Y-97834570D01*
X112075984Y-97801088D01*
X112078151Y-97800637D01*
X112078840Y-97800500D01*
X112078842Y-97800500D01*
X112233497Y-97769737D01*
X112346166Y-97723067D01*
X112379172Y-97709397D01*
X112379172Y-97709396D01*
X112379179Y-97709394D01*
X112510289Y-97621789D01*
X112621789Y-97510289D01*
X112672398Y-97434548D01*
X112726010Y-97389743D01*
X112795335Y-97381036D01*
X112858363Y-97411190D01*
X112895082Y-97470634D01*
X112899500Y-97503439D01*
X112899500Y-100413330D01*
X112899499Y-100413348D01*
X112899499Y-100579054D01*
X112899498Y-100579054D01*
X112940422Y-100731783D01*
X112962334Y-100769735D01*
X112962336Y-100769738D01*
X113019479Y-100868714D01*
X113019481Y-100868717D01*
X113138349Y-100987585D01*
X113138355Y-100987590D01*
X116188583Y-104037819D01*
X116222068Y-104099142D01*
X116217084Y-104168834D01*
X116175212Y-104224767D01*
X116109748Y-104249184D01*
X116100902Y-104249500D01*
X115387129Y-104249500D01*
X115387123Y-104249501D01*
X115327516Y-104255908D01*
X115192671Y-104306202D01*
X115192664Y-104306206D01*
X115077455Y-104392452D01*
X115077452Y-104392455D01*
X114991206Y-104507664D01*
X114991202Y-104507671D01*
X114940908Y-104642517D01*
X114934501Y-104702116D01*
X114934500Y-104702135D01*
X114934500Y-106297870D01*
X114934501Y-106297876D01*
X114940908Y-106357483D01*
X114991202Y-106492328D01*
X114991206Y-106492335D01*
X115077452Y-106607544D01*
X115077455Y-106607547D01*
X115192664Y-106693793D01*
X115192671Y-106693797D01*
X115327517Y-106744091D01*
X115327516Y-106744091D01*
X115334444Y-106744835D01*
X115387127Y-106750500D01*
X116532872Y-106750499D01*
X116592483Y-106744091D01*
X116727331Y-106693796D01*
X116728430Y-106692972D01*
X116729717Y-106692492D01*
X116735112Y-106689547D01*
X116735535Y-106690322D01*
X116793887Y-106668552D01*
X116850198Y-106677673D01*
X116930873Y-106711091D01*
X117096777Y-106744091D01*
X117128992Y-106750499D01*
X117128996Y-106750500D01*
X117128997Y-106750500D01*
X117331004Y-106750500D01*
X117331005Y-106750499D01*
X117529127Y-106711091D01*
X117715756Y-106633786D01*
X117796110Y-106580094D01*
X117862786Y-106559217D01*
X117930166Y-106577701D01*
X117933865Y-106580078D01*
X118014244Y-106633786D01*
X118200873Y-106711091D01*
X118366777Y-106744091D01*
X118398992Y-106750499D01*
X118398996Y-106750500D01*
X118398997Y-106750500D01*
X118601004Y-106750500D01*
X118601005Y-106750499D01*
X118799127Y-106711091D01*
X118985756Y-106633786D01*
X119153718Y-106521558D01*
X119296558Y-106378718D01*
X119408786Y-106210756D01*
X119486091Y-106024127D01*
X119525500Y-105826003D01*
X119525500Y-105173997D01*
X119486091Y-104975873D01*
X119408786Y-104789244D01*
X119408784Y-104789241D01*
X119408782Y-104789237D01*
X119296558Y-104621281D01*
X119153718Y-104478441D01*
X118985762Y-104366217D01*
X118985752Y-104366212D01*
X118799127Y-104288909D01*
X118799119Y-104288907D01*
X118601007Y-104249500D01*
X118601003Y-104249500D01*
X118398997Y-104249500D01*
X118398992Y-104249500D01*
X118200880Y-104288907D01*
X118200872Y-104288909D01*
X118014245Y-104366213D01*
X118012955Y-104366903D01*
X118012201Y-104367059D01*
X118008616Y-104368545D01*
X118008334Y-104367865D01*
X117944553Y-104381145D01*
X117879309Y-104356146D01*
X117837938Y-104299841D01*
X117830501Y-104257545D01*
X117830501Y-104150944D01*
X117830501Y-104150943D01*
X117789577Y-103998216D01*
X117789573Y-103998209D01*
X117710524Y-103861290D01*
X117710518Y-103861282D01*
X115401391Y-101552155D01*
X122560000Y-101552155D01*
X122560000Y-102250000D01*
X123584722Y-102250000D01*
X123540667Y-102326306D01*
X123510000Y-102440756D01*
X123510000Y-102559244D01*
X123540667Y-102673694D01*
X123584722Y-102750000D01*
X122560000Y-102750000D01*
X122560000Y-103447844D01*
X122566401Y-103507372D01*
X122566403Y-103507379D01*
X122616645Y-103642086D01*
X122616649Y-103642093D01*
X122702809Y-103757187D01*
X122702812Y-103757190D01*
X122817906Y-103843350D01*
X122817913Y-103843354D01*
X122952620Y-103893596D01*
X122952627Y-103893598D01*
X123012155Y-103899999D01*
X123012172Y-103900000D01*
X123710000Y-103900000D01*
X123710000Y-102875277D01*
X123786306Y-102919333D01*
X123900756Y-102950000D01*
X124019244Y-102950000D01*
X124133694Y-102919333D01*
X124210000Y-102875277D01*
X124210000Y-103900000D01*
X124907828Y-103900000D01*
X124907844Y-103899999D01*
X124967372Y-103893598D01*
X124967379Y-103893596D01*
X125102086Y-103843354D01*
X125102093Y-103843350D01*
X125217187Y-103757190D01*
X125217190Y-103757187D01*
X125303350Y-103642093D01*
X125303354Y-103642086D01*
X125333213Y-103562031D01*
X125375084Y-103506097D01*
X125440548Y-103481680D01*
X125508821Y-103496531D01*
X125537076Y-103517683D01*
X125587636Y-103568243D01*
X125587641Y-103568247D01*
X125718137Y-103663057D01*
X125765978Y-103697815D01*
X125882501Y-103757187D01*
X125962393Y-103797895D01*
X125962396Y-103797896D01*
X126067221Y-103831955D01*
X126172049Y-103866015D01*
X126389778Y-103900500D01*
X126389779Y-103900500D01*
X126610221Y-103900500D01*
X126610222Y-103900500D01*
X126827951Y-103866015D01*
X127037606Y-103797895D01*
X127234022Y-103697815D01*
X127412365Y-103568242D01*
X127568242Y-103412365D01*
X127697815Y-103234022D01*
X127797895Y-103037606D01*
X127866015Y-102827951D01*
X127900500Y-102610222D01*
X127900500Y-102389778D01*
X127866015Y-102172049D01*
X127828653Y-102057060D01*
X127797896Y-101962396D01*
X127797895Y-101962393D01*
X127763237Y-101894375D01*
X127697815Y-101765978D01*
X127630618Y-101673489D01*
X127568247Y-101587641D01*
X127568243Y-101587636D01*
X127412363Y-101431756D01*
X127412358Y-101431752D01*
X127234025Y-101302187D01*
X127234024Y-101302186D01*
X127234022Y-101302185D01*
X127171096Y-101270122D01*
X127037606Y-101202104D01*
X127037603Y-101202103D01*
X126827952Y-101133985D01*
X126719086Y-101116742D01*
X126610222Y-101099500D01*
X126389778Y-101099500D01*
X126317201Y-101110995D01*
X126172047Y-101133985D01*
X125962396Y-101202103D01*
X125962393Y-101202104D01*
X125765974Y-101302187D01*
X125587641Y-101431752D01*
X125587636Y-101431756D01*
X125537075Y-101482317D01*
X125475752Y-101515801D01*
X125406060Y-101510816D01*
X125350127Y-101468945D01*
X125333213Y-101437968D01*
X125303354Y-101357913D01*
X125303350Y-101357906D01*
X125217190Y-101242812D01*
X125217187Y-101242809D01*
X125102093Y-101156649D01*
X125102086Y-101156645D01*
X124967379Y-101106403D01*
X124967372Y-101106401D01*
X124907844Y-101100000D01*
X124210000Y-101100000D01*
X124210000Y-102124722D01*
X124133694Y-102080667D01*
X124019244Y-102050000D01*
X123900756Y-102050000D01*
X123786306Y-102080667D01*
X123710000Y-102124722D01*
X123710000Y-101100000D01*
X123012155Y-101100000D01*
X122952627Y-101106401D01*
X122952620Y-101106403D01*
X122817913Y-101156645D01*
X122817906Y-101156649D01*
X122702812Y-101242809D01*
X122702809Y-101242812D01*
X122616649Y-101357906D01*
X122616645Y-101357913D01*
X122566403Y-101492620D01*
X122566401Y-101492627D01*
X122560000Y-101552155D01*
X115401391Y-101552155D01*
X114136819Y-100287583D01*
X114103334Y-100226260D01*
X114100500Y-100199902D01*
X114100500Y-96202135D01*
X114704500Y-96202135D01*
X114704500Y-97797870D01*
X114704501Y-97797876D01*
X114710908Y-97857483D01*
X114761202Y-97992328D01*
X114761206Y-97992335D01*
X114847452Y-98107544D01*
X114847455Y-98107547D01*
X114962664Y-98193793D01*
X114962671Y-98193797D01*
X115097517Y-98244091D01*
X115097516Y-98244091D01*
X115104444Y-98244835D01*
X115157127Y-98250500D01*
X116302872Y-98250499D01*
X116362483Y-98244091D01*
X116497331Y-98193796D01*
X116498430Y-98192972D01*
X116499717Y-98192492D01*
X116505112Y-98189547D01*
X116505535Y-98190322D01*
X116563887Y-98168552D01*
X116620198Y-98177673D01*
X116700873Y-98211091D01*
X116866777Y-98244091D01*
X116898992Y-98250499D01*
X116898996Y-98250500D01*
X116898997Y-98250500D01*
X117101004Y-98250500D01*
X117101005Y-98250499D01*
X117299127Y-98211091D01*
X117485756Y-98133786D01*
X117566110Y-98080094D01*
X117632786Y-98059217D01*
X117700166Y-98077701D01*
X117703865Y-98080078D01*
X117784244Y-98133786D01*
X117970873Y-98211091D01*
X118136777Y-98244091D01*
X118168992Y-98250499D01*
X118168996Y-98250500D01*
X118168997Y-98250500D01*
X118371004Y-98250500D01*
X118371005Y-98250499D01*
X118569127Y-98211091D01*
X118755756Y-98133786D01*
X118923718Y-98021558D01*
X119066558Y-97878718D01*
X119178786Y-97710756D01*
X119256091Y-97524127D01*
X119295500Y-97326003D01*
X119295500Y-96673997D01*
X119256091Y-96475873D01*
X119178786Y-96289244D01*
X119178784Y-96289241D01*
X119178782Y-96289237D01*
X119066558Y-96121281D01*
X118923718Y-95978441D01*
X118755762Y-95866217D01*
X118755752Y-95866212D01*
X118569127Y-95788909D01*
X118569119Y-95788907D01*
X118372270Y-95749751D01*
X118310359Y-95717366D01*
X118275785Y-95656650D01*
X118279524Y-95586881D01*
X118308778Y-95540455D01*
X119595585Y-94253648D01*
X120738500Y-94253648D01*
X120738500Y-94458351D01*
X120770522Y-94660534D01*
X120833781Y-94855223D01*
X120926715Y-95037613D01*
X121047028Y-95203213D01*
X121191786Y-95347971D01*
X121346749Y-95460556D01*
X121357390Y-95468287D01*
X121457858Y-95519478D01*
X121539776Y-95561218D01*
X121539778Y-95561218D01*
X121539781Y-95561220D01*
X121644137Y-95595127D01*
X121734465Y-95624477D01*
X121835557Y-95640488D01*
X121936648Y-95656500D01*
X121936649Y-95656500D01*
X122141351Y-95656500D01*
X122141352Y-95656500D01*
X122343534Y-95624477D01*
X122538219Y-95561220D01*
X122720610Y-95468287D01*
X122844590Y-95378211D01*
X122886213Y-95347971D01*
X122886215Y-95347968D01*
X122886219Y-95347966D01*
X123030966Y-95203219D01*
X123030968Y-95203215D01*
X123030971Y-95203213D01*
X123130452Y-95066287D01*
X123151287Y-95037610D01*
X123244220Y-94855219D01*
X123307477Y-94660534D01*
X123339500Y-94458352D01*
X123339500Y-94253648D01*
X123332969Y-94212416D01*
X123307477Y-94051465D01*
X123278127Y-93961137D01*
X123244220Y-93856781D01*
X123244218Y-93856778D01*
X123244218Y-93856776D01*
X123195751Y-93761656D01*
X123151287Y-93674390D01*
X123137750Y-93655758D01*
X123030971Y-93508786D01*
X122886213Y-93364028D01*
X122720613Y-93243715D01*
X122720612Y-93243714D01*
X122720610Y-93243713D01*
X122663653Y-93214691D01*
X122538223Y-93150781D01*
X122343534Y-93087522D01*
X122168995Y-93059878D01*
X122141352Y-93055500D01*
X121936648Y-93055500D01*
X121912329Y-93059351D01*
X121734465Y-93087522D01*
X121539776Y-93150781D01*
X121357386Y-93243715D01*
X121191786Y-93364028D01*
X121047028Y-93508786D01*
X120926715Y-93674386D01*
X120833781Y-93856776D01*
X120770522Y-94051465D01*
X120738500Y-94253648D01*
X119595585Y-94253648D01*
X122548506Y-91300728D01*
X122548511Y-91300724D01*
X122558714Y-91290520D01*
X122558716Y-91290520D01*
X122670520Y-91178716D01*
X122749577Y-91041784D01*
X122790500Y-90889057D01*
X122790500Y-90229601D01*
X122810185Y-90162562D01*
X122858206Y-90119116D01*
X122871610Y-90112287D01*
X123037219Y-89991966D01*
X123181966Y-89847219D01*
X123181968Y-89847215D01*
X123181971Y-89847213D01*
X123248202Y-89756052D01*
X123302287Y-89681610D01*
X123395220Y-89499219D01*
X123458477Y-89304534D01*
X123490500Y-89102352D01*
X123490500Y-88897648D01*
X123480316Y-88833348D01*
X123458477Y-88695465D01*
X123399600Y-88514261D01*
X123395220Y-88500781D01*
X123395218Y-88500778D01*
X123395218Y-88500776D01*
X123361503Y-88434607D01*
X123302287Y-88318390D01*
X123294556Y-88307749D01*
X123181971Y-88152786D01*
X123037213Y-88008028D01*
X122871613Y-87887715D01*
X122871612Y-87887714D01*
X122871610Y-87887713D01*
X122814653Y-87858691D01*
X122689223Y-87794781D01*
X122494534Y-87731522D01*
X122319995Y-87703878D01*
X122292352Y-87699500D01*
X122087648Y-87699500D01*
X122063329Y-87703351D01*
X121885465Y-87731522D01*
X121690776Y-87794781D01*
X121508386Y-87887715D01*
X121342786Y-88008028D01*
X121198028Y-88152786D01*
X121077715Y-88318386D01*
X120984781Y-88500776D01*
X120921522Y-88695465D01*
X120889500Y-88897648D01*
X120889500Y-89102351D01*
X120921522Y-89304534D01*
X120984781Y-89499223D01*
X121077715Y-89681613D01*
X121198028Y-89847213D01*
X121198034Y-89847219D01*
X121342781Y-89991966D01*
X121508390Y-90112287D01*
X121521793Y-90119116D01*
X121572589Y-90167088D01*
X121589500Y-90229601D01*
X121589500Y-90509902D01*
X121569815Y-90576941D01*
X121553181Y-90597583D01*
X116519481Y-95631282D01*
X116519477Y-95631287D01*
X116482925Y-95694598D01*
X116432358Y-95742814D01*
X116363751Y-95756036D01*
X116362358Y-95755895D01*
X116302873Y-95749500D01*
X116302864Y-95749500D01*
X115157129Y-95749500D01*
X115157123Y-95749501D01*
X115097516Y-95755908D01*
X114962671Y-95806202D01*
X114962664Y-95806206D01*
X114847455Y-95892452D01*
X114847452Y-95892455D01*
X114761206Y-96007664D01*
X114761202Y-96007671D01*
X114710908Y-96142517D01*
X114704501Y-96202116D01*
X114704500Y-96202135D01*
X114100500Y-96202135D01*
X114100500Y-94300097D01*
X114120185Y-94233058D01*
X114136819Y-94212416D01*
X118269606Y-90079629D01*
X122519520Y-85829716D01*
X122598577Y-85692784D01*
X122639501Y-85540057D01*
X122639501Y-85381942D01*
X122639501Y-85374347D01*
X122639500Y-85374329D01*
X122639500Y-84585601D01*
X122659185Y-84518562D01*
X122707206Y-84475116D01*
X122720610Y-84468287D01*
X122886219Y-84347966D01*
X123030966Y-84203219D01*
X123139128Y-84054345D01*
X123194456Y-84011680D01*
X123264069Y-84005700D01*
X123325864Y-84038306D01*
X123327126Y-84039550D01*
X123863181Y-84575604D01*
X123896666Y-84636927D01*
X123899500Y-84663285D01*
X123899500Y-92420234D01*
X123879815Y-92487273D01*
X123878602Y-92489125D01*
X123790609Y-92620814D01*
X123790602Y-92620827D01*
X123730264Y-92766498D01*
X123730261Y-92766510D01*
X123699500Y-92921153D01*
X123699500Y-93078846D01*
X123730261Y-93233489D01*
X123730264Y-93233501D01*
X123790602Y-93379172D01*
X123790609Y-93379185D01*
X123878210Y-93510288D01*
X123878213Y-93510292D01*
X123989707Y-93621786D01*
X123989711Y-93621789D01*
X124120814Y-93709390D01*
X124120827Y-93709397D01*
X124266498Y-93769735D01*
X124266503Y-93769737D01*
X124421153Y-93800499D01*
X124421156Y-93800500D01*
X124421158Y-93800500D01*
X124578844Y-93800500D01*
X124578845Y-93800499D01*
X124733497Y-93769737D01*
X124879179Y-93709394D01*
X125010289Y-93621789D01*
X125121789Y-93510289D01*
X125129145Y-93499279D01*
X125146898Y-93472712D01*
X125200510Y-93427906D01*
X125269835Y-93419199D01*
X125332862Y-93449353D01*
X125353102Y-93472712D01*
X125378207Y-93510284D01*
X125378213Y-93510292D01*
X125489707Y-93621786D01*
X125489711Y-93621789D01*
X125620814Y-93709390D01*
X125620827Y-93709397D01*
X125766498Y-93769735D01*
X125766503Y-93769737D01*
X125921153Y-93800499D01*
X125921156Y-93800500D01*
X125921158Y-93800500D01*
X126078844Y-93800500D01*
X126078845Y-93800499D01*
X126233497Y-93769737D01*
X126379179Y-93709394D01*
X126510289Y-93621789D01*
X126621789Y-93510289D01*
X126709394Y-93379179D01*
X126769737Y-93233497D01*
X126800500Y-93078842D01*
X126800500Y-92921158D01*
X126800500Y-92921155D01*
X126800499Y-92921153D01*
X126769738Y-92766510D01*
X126769737Y-92766503D01*
X126750000Y-92718853D01*
X126709397Y-92620827D01*
X126709390Y-92620814D01*
X126621398Y-92489125D01*
X126600520Y-92422447D01*
X126600500Y-92420234D01*
X126600500Y-90709949D01*
X134799500Y-90709949D01*
X134799500Y-90883170D01*
X134824622Y-91041790D01*
X134826598Y-91054261D01*
X134880127Y-91219005D01*
X134958768Y-91373348D01*
X135060586Y-91513488D01*
X135183072Y-91635974D01*
X135323212Y-91737792D01*
X135477555Y-91816433D01*
X135642299Y-91869962D01*
X135813389Y-91897060D01*
X135813390Y-91897060D01*
X136786610Y-91897060D01*
X136786611Y-91897060D01*
X136957701Y-91869962D01*
X137122445Y-91816433D01*
X137276788Y-91737792D01*
X137416928Y-91635974D01*
X137539414Y-91513488D01*
X137641232Y-91373348D01*
X137719873Y-91219005D01*
X137773402Y-91054261D01*
X137800500Y-90883171D01*
X137800500Y-90709949D01*
X137773402Y-90538859D01*
X137719873Y-90374115D01*
X137641232Y-90219772D01*
X137539414Y-90079632D01*
X137416928Y-89957146D01*
X137276788Y-89855328D01*
X137122445Y-89776687D01*
X136957701Y-89723158D01*
X136957699Y-89723157D01*
X136957698Y-89723157D01*
X136826271Y-89702341D01*
X136786611Y-89696060D01*
X135813389Y-89696060D01*
X135773728Y-89702341D01*
X135642302Y-89723157D01*
X135642299Y-89723158D01*
X135541063Y-89756052D01*
X135477552Y-89776688D01*
X135323211Y-89855328D01*
X135243256Y-89913419D01*
X135183072Y-89957146D01*
X135183070Y-89957148D01*
X135183069Y-89957148D01*
X135060588Y-90079629D01*
X135060588Y-90079630D01*
X135060586Y-90079632D01*
X135036863Y-90112284D01*
X134958768Y-90219771D01*
X134880128Y-90374112D01*
X134826597Y-90538862D01*
X134799500Y-90709949D01*
X126600500Y-90709949D01*
X126600500Y-83253648D01*
X128358500Y-83253648D01*
X128358500Y-83458351D01*
X128390522Y-83660534D01*
X128453781Y-83855223D01*
X128505886Y-83957483D01*
X128535687Y-84015971D01*
X128546715Y-84037613D01*
X128667028Y-84203213D01*
X128811786Y-84347971D01*
X128977385Y-84468284D01*
X128977387Y-84468285D01*
X128977390Y-84468287D01*
X129141796Y-84552056D01*
X129192591Y-84600029D01*
X129209500Y-84662540D01*
X129209500Y-87770397D01*
X129189815Y-87837436D01*
X129141800Y-87880879D01*
X129128389Y-87887712D01*
X128962786Y-88008028D01*
X128818028Y-88152786D01*
X128697715Y-88318386D01*
X128604781Y-88500776D01*
X128541522Y-88695465D01*
X128509500Y-88897648D01*
X128509500Y-89102351D01*
X128541522Y-89304534D01*
X128604781Y-89499223D01*
X128697715Y-89681613D01*
X128818028Y-89847213D01*
X128962786Y-89991971D01*
X129117749Y-90104556D01*
X129128390Y-90112287D01*
X129209499Y-90153614D01*
X129310776Y-90205218D01*
X129310778Y-90205218D01*
X129310781Y-90205220D01*
X129385818Y-90229601D01*
X129505465Y-90268477D01*
X129606557Y-90284488D01*
X129707648Y-90300500D01*
X129707649Y-90300500D01*
X129912351Y-90300500D01*
X129912352Y-90300500D01*
X130114534Y-90268477D01*
X130309219Y-90205220D01*
X130491610Y-90112287D01*
X130584590Y-90044732D01*
X130657213Y-89991971D01*
X130657215Y-89991968D01*
X130657219Y-89991966D01*
X130801966Y-89847219D01*
X130801968Y-89847215D01*
X130801971Y-89847213D01*
X130868202Y-89756052D01*
X130922287Y-89681610D01*
X131015220Y-89499219D01*
X131078477Y-89304534D01*
X131110500Y-89102352D01*
X131110500Y-88897648D01*
X131100316Y-88833348D01*
X131078477Y-88695465D01*
X131019600Y-88514261D01*
X131015220Y-88500781D01*
X131015218Y-88500778D01*
X131015218Y-88500776D01*
X130981503Y-88434607D01*
X130922287Y-88318390D01*
X130916686Y-88310680D01*
X130863854Y-88237962D01*
X130814440Y-88169949D01*
X134799500Y-88169949D01*
X134799500Y-88343171D01*
X134826598Y-88514261D01*
X134880127Y-88679005D01*
X134958768Y-88833348D01*
X135060586Y-88973488D01*
X135183072Y-89095974D01*
X135323212Y-89197792D01*
X135477555Y-89276433D01*
X135642299Y-89329962D01*
X135813389Y-89357060D01*
X135813390Y-89357060D01*
X136786610Y-89357060D01*
X136786611Y-89357060D01*
X136957701Y-89329962D01*
X137122445Y-89276433D01*
X137276788Y-89197792D01*
X137416928Y-89095974D01*
X137539414Y-88973488D01*
X137641232Y-88833348D01*
X137719873Y-88679005D01*
X137773402Y-88514261D01*
X137800500Y-88343171D01*
X137800500Y-88169949D01*
X137773402Y-87998859D01*
X137719873Y-87834115D01*
X137641232Y-87679772D01*
X137539414Y-87539632D01*
X137416928Y-87417146D01*
X137276788Y-87315328D01*
X137122445Y-87236687D01*
X136957701Y-87183158D01*
X136957699Y-87183157D01*
X136957698Y-87183157D01*
X136826271Y-87162341D01*
X136786611Y-87156060D01*
X135813389Y-87156060D01*
X135773728Y-87162341D01*
X135642302Y-87183157D01*
X135477552Y-87236688D01*
X135323211Y-87315328D01*
X135243256Y-87373419D01*
X135183072Y-87417146D01*
X135183070Y-87417148D01*
X135183069Y-87417148D01*
X135060588Y-87539629D01*
X135060588Y-87539630D01*
X135060586Y-87539632D01*
X135016859Y-87599816D01*
X134958768Y-87679771D01*
X134880128Y-87834112D01*
X134826597Y-87998862D01*
X134807207Y-88121288D01*
X134799500Y-88169949D01*
X130814440Y-88169949D01*
X130801971Y-88152786D01*
X130657213Y-88008028D01*
X130491610Y-87887712D01*
X130478200Y-87880879D01*
X130427406Y-87832903D01*
X130410500Y-87770397D01*
X130410500Y-85629949D01*
X134799500Y-85629949D01*
X134799500Y-85803171D01*
X134826598Y-85974261D01*
X134880127Y-86139005D01*
X134958768Y-86293348D01*
X135060586Y-86433488D01*
X135183072Y-86555974D01*
X135323212Y-86657792D01*
X135477555Y-86736433D01*
X135642299Y-86789962D01*
X135813389Y-86817060D01*
X135813390Y-86817060D01*
X136786610Y-86817060D01*
X136786611Y-86817060D01*
X136957701Y-86789962D01*
X137122445Y-86736433D01*
X137276788Y-86657792D01*
X137416928Y-86555974D01*
X137539414Y-86433488D01*
X137641232Y-86293348D01*
X137719873Y-86139005D01*
X137773402Y-85974261D01*
X137800500Y-85803171D01*
X137800500Y-85629949D01*
X137773402Y-85458859D01*
X137719873Y-85294115D01*
X137641232Y-85139772D01*
X137539414Y-84999632D01*
X137416928Y-84877146D01*
X137276788Y-84775328D01*
X137122445Y-84696687D01*
X136957701Y-84643158D01*
X136957699Y-84643157D01*
X136957698Y-84643157D01*
X136826271Y-84622341D01*
X136786611Y-84616060D01*
X135813389Y-84616060D01*
X135773728Y-84622341D01*
X135642302Y-84643157D01*
X135477552Y-84696688D01*
X135323211Y-84775328D01*
X135243256Y-84833419D01*
X135183072Y-84877146D01*
X135183070Y-84877148D01*
X135183069Y-84877148D01*
X135060588Y-84999629D01*
X135060588Y-84999630D01*
X135060586Y-84999632D01*
X135032555Y-85038213D01*
X134958768Y-85139771D01*
X134880128Y-85294112D01*
X134826597Y-85458862D01*
X134813738Y-85540055D01*
X134799500Y-85629949D01*
X130410500Y-85629949D01*
X130410500Y-84480690D01*
X130430185Y-84413651D01*
X130461614Y-84380372D01*
X130506219Y-84347966D01*
X130650966Y-84203219D01*
X130650968Y-84203215D01*
X130650971Y-84203213D01*
X130713032Y-84117792D01*
X130771287Y-84037610D01*
X130864220Y-83855219D01*
X130927477Y-83660534D01*
X130959500Y-83458352D01*
X130959500Y-83253648D01*
X130933572Y-83089949D01*
X134799500Y-83089949D01*
X134799500Y-83263170D01*
X134813254Y-83350014D01*
X134826598Y-83434261D01*
X134880127Y-83599005D01*
X134958768Y-83753348D01*
X135060586Y-83893488D01*
X135183072Y-84015974D01*
X135323212Y-84117792D01*
X135477555Y-84196433D01*
X135642299Y-84249962D01*
X135813389Y-84277060D01*
X135813390Y-84277060D01*
X136786610Y-84277060D01*
X136786611Y-84277060D01*
X136957701Y-84249962D01*
X137122445Y-84196433D01*
X137276788Y-84117792D01*
X137416928Y-84015974D01*
X137539414Y-83893488D01*
X137641232Y-83753348D01*
X137719873Y-83599005D01*
X137773402Y-83434261D01*
X137800500Y-83263171D01*
X137800500Y-83089949D01*
X137773402Y-82918859D01*
X137719873Y-82754115D01*
X137641232Y-82599772D01*
X137539414Y-82459632D01*
X137416928Y-82337146D01*
X137276788Y-82235328D01*
X137122445Y-82156687D01*
X136957701Y-82103158D01*
X136957699Y-82103157D01*
X136957698Y-82103157D01*
X136826271Y-82082341D01*
X136786611Y-82076060D01*
X135813389Y-82076060D01*
X135773728Y-82082341D01*
X135642302Y-82103157D01*
X135477552Y-82156688D01*
X135323211Y-82235328D01*
X135244964Y-82292179D01*
X135183072Y-82337146D01*
X135183070Y-82337148D01*
X135183069Y-82337148D01*
X135060588Y-82459629D01*
X135060588Y-82459630D01*
X135060586Y-82459632D01*
X135018305Y-82517827D01*
X134958768Y-82599771D01*
X134880128Y-82754112D01*
X134826597Y-82918862D01*
X134799500Y-83089949D01*
X130933572Y-83089949D01*
X130927477Y-83051466D01*
X130864220Y-82856781D01*
X130864218Y-82856778D01*
X130864218Y-82856776D01*
X130811907Y-82754112D01*
X130771287Y-82674390D01*
X130763556Y-82663749D01*
X130650971Y-82508786D01*
X130506213Y-82364028D01*
X130340613Y-82243715D01*
X130340612Y-82243714D01*
X130340610Y-82243713D01*
X130283653Y-82214691D01*
X130158223Y-82150781D01*
X129963534Y-82087522D01*
X129788995Y-82059878D01*
X129761352Y-82055500D01*
X129556648Y-82055500D01*
X129532329Y-82059351D01*
X129354465Y-82087522D01*
X129159776Y-82150781D01*
X128977386Y-82243715D01*
X128811786Y-82364028D01*
X128667028Y-82508786D01*
X128546715Y-82674386D01*
X128453781Y-82856776D01*
X128390522Y-83051465D01*
X128358500Y-83253648D01*
X126600500Y-83253648D01*
X126600500Y-81589060D01*
X126600501Y-81589047D01*
X126600501Y-81420944D01*
X126600501Y-81420943D01*
X126559577Y-81268216D01*
X126527899Y-81213348D01*
X126480524Y-81131290D01*
X126480518Y-81131282D01*
X124734938Y-79385702D01*
X122797931Y-77448695D01*
X134799500Y-77448695D01*
X134799500Y-78744430D01*
X134799501Y-78744436D01*
X134805908Y-78804043D01*
X134856202Y-78938888D01*
X134856206Y-78938895D01*
X134942452Y-79054104D01*
X134942455Y-79054107D01*
X135057664Y-79140353D01*
X135057671Y-79140357D01*
X135192517Y-79190651D01*
X135192516Y-79190651D01*
X135199444Y-79191395D01*
X135252127Y-79197060D01*
X136358480Y-79197059D01*
X136387920Y-79205703D01*
X136417907Y-79212227D01*
X136422922Y-79215981D01*
X136425519Y-79216744D01*
X136446161Y-79233378D01*
X136537162Y-79324379D01*
X136570647Y-79385702D01*
X136565663Y-79455394D01*
X136523791Y-79511327D01*
X136458327Y-79535744D01*
X136449481Y-79536060D01*
X135813389Y-79536060D01*
X135773728Y-79542341D01*
X135642302Y-79563157D01*
X135477552Y-79616688D01*
X135323211Y-79695328D01*
X135243256Y-79753419D01*
X135183072Y-79797146D01*
X135183070Y-79797148D01*
X135183069Y-79797148D01*
X135060588Y-79919629D01*
X135060588Y-79919630D01*
X135060586Y-79919632D01*
X135016859Y-79979816D01*
X134958768Y-80059771D01*
X134880128Y-80214112D01*
X134826597Y-80378862D01*
X134821220Y-80412812D01*
X134799500Y-80549949D01*
X134799500Y-80723171D01*
X134826598Y-80894261D01*
X134880127Y-81059005D01*
X134958768Y-81213348D01*
X135060586Y-81353488D01*
X135183072Y-81475974D01*
X135323212Y-81577792D01*
X135477555Y-81656433D01*
X135642299Y-81709962D01*
X135813389Y-81737060D01*
X135813390Y-81737060D01*
X136786610Y-81737060D01*
X136786611Y-81737060D01*
X136957701Y-81709962D01*
X137122445Y-81656433D01*
X137276788Y-81577792D01*
X137416928Y-81475974D01*
X137539414Y-81353488D01*
X137641232Y-81213348D01*
X137719873Y-81059005D01*
X137773402Y-80894261D01*
X137780950Y-80846605D01*
X137810879Y-80783470D01*
X137870190Y-80746538D01*
X137940053Y-80747536D01*
X137991104Y-80778321D01*
X141263181Y-84050398D01*
X141296666Y-84111721D01*
X141299500Y-84138079D01*
X141299500Y-94074684D01*
X141290061Y-94122136D01*
X141230264Y-94266498D01*
X141230261Y-94266510D01*
X141199500Y-94421153D01*
X141199500Y-94578846D01*
X141230261Y-94733489D01*
X141230264Y-94733501D01*
X141290602Y-94879172D01*
X141290609Y-94879185D01*
X141378210Y-95010288D01*
X141378213Y-95010292D01*
X141489707Y-95121786D01*
X141489711Y-95121789D01*
X141620814Y-95209390D01*
X141620827Y-95209397D01*
X141766498Y-95269735D01*
X141766503Y-95269737D01*
X141917493Y-95299771D01*
X141921153Y-95300499D01*
X141921156Y-95300500D01*
X141921158Y-95300500D01*
X142078844Y-95300500D01*
X142078845Y-95300499D01*
X142233497Y-95269737D01*
X142379179Y-95209394D01*
X142510289Y-95121789D01*
X142621789Y-95010289D01*
X142709394Y-94879179D01*
X142719319Y-94855219D01*
X142755688Y-94767415D01*
X142762633Y-94750648D01*
X167889500Y-94750648D01*
X167889500Y-94955351D01*
X167921522Y-95157534D01*
X167984781Y-95352223D01*
X168077715Y-95534613D01*
X168198028Y-95700213D01*
X168342786Y-95844971D01*
X168447651Y-95921158D01*
X168508390Y-95965287D01*
X168612267Y-96018215D01*
X168690776Y-96058218D01*
X168690778Y-96058218D01*
X168690781Y-96058220D01*
X168795137Y-96092127D01*
X168885465Y-96121477D01*
X168967171Y-96134418D01*
X169087648Y-96153500D01*
X169087649Y-96153500D01*
X169292351Y-96153500D01*
X169292352Y-96153500D01*
X169494534Y-96121477D01*
X169689219Y-96058220D01*
X169871610Y-95965287D01*
X169964590Y-95897732D01*
X170037213Y-95844971D01*
X170037215Y-95844968D01*
X170037219Y-95844966D01*
X170181966Y-95700219D01*
X170181968Y-95700215D01*
X170181971Y-95700213D01*
X170239647Y-95620827D01*
X170302287Y-95534610D01*
X170395220Y-95352219D01*
X170458477Y-95157534D01*
X170490500Y-94955352D01*
X170490500Y-94750648D01*
X170473570Y-94643757D01*
X170458477Y-94548465D01*
X170422279Y-94437060D01*
X170395220Y-94353781D01*
X170395218Y-94353778D01*
X170395218Y-94353776D01*
X170356501Y-94277791D01*
X170302287Y-94171390D01*
X170294556Y-94160749D01*
X170181971Y-94005786D01*
X170037213Y-93861028D01*
X169871610Y-93740712D01*
X169858200Y-93733879D01*
X169807406Y-93685903D01*
X169790500Y-93623397D01*
X169790500Y-85570096D01*
X169810185Y-85503057D01*
X169826814Y-85482419D01*
X170975478Y-84333755D01*
X171036799Y-84300272D01*
X171101473Y-84303506D01*
X171143757Y-84317246D01*
X171353713Y-84350500D01*
X171353714Y-84350500D01*
X171566286Y-84350500D01*
X171566287Y-84350500D01*
X171756101Y-84320436D01*
X171774639Y-84322831D01*
X171793145Y-84320171D01*
X171808575Y-84327217D01*
X171825394Y-84329391D01*
X171839693Y-84341428D01*
X171856701Y-84349195D01*
X171865872Y-84363465D01*
X171878846Y-84374387D01*
X171884367Y-84392244D01*
X171894476Y-84407973D01*
X171899034Y-84439677D01*
X171899486Y-84441138D01*
X171899499Y-84442908D01*
X171899499Y-84579057D01*
X171899499Y-84579059D01*
X171899500Y-84589053D01*
X171899500Y-100060114D01*
X171879815Y-100127153D01*
X171838622Y-100166845D01*
X171813140Y-100181914D01*
X171806969Y-100186702D01*
X171805072Y-100184256D01*
X171756358Y-100210857D01*
X171686666Y-100205873D01*
X171654296Y-100185069D01*
X171653031Y-100186702D01*
X171646862Y-100181917D01*
X171518198Y-100105826D01*
X171505398Y-100098256D01*
X171505397Y-100098255D01*
X171505396Y-100098255D01*
X171505393Y-100098254D01*
X171347573Y-100052402D01*
X171347567Y-100052401D01*
X171310701Y-100049500D01*
X171310694Y-100049500D01*
X170879306Y-100049500D01*
X170879298Y-100049500D01*
X170842432Y-100052401D01*
X170842426Y-100052402D01*
X170684606Y-100098254D01*
X170684603Y-100098255D01*
X170543137Y-100181917D01*
X170543129Y-100181923D01*
X170426923Y-100298129D01*
X170426917Y-100298137D01*
X170343255Y-100439603D01*
X170343254Y-100439606D01*
X170297402Y-100597426D01*
X170297401Y-100597432D01*
X170294500Y-100634298D01*
X170294500Y-101424902D01*
X170274815Y-101491941D01*
X170258181Y-101512583D01*
X168709481Y-103061282D01*
X168709477Y-103061287D01*
X168683718Y-103105906D01*
X168683717Y-103105908D01*
X168630423Y-103198215D01*
X168589499Y-103350943D01*
X168589499Y-103350945D01*
X168589499Y-103519046D01*
X168589500Y-103519059D01*
X168589500Y-113295397D01*
X168569815Y-113362436D01*
X168521800Y-113405879D01*
X168508389Y-113412712D01*
X168342786Y-113533028D01*
X168198028Y-113677786D01*
X168077715Y-113843386D01*
X167984781Y-114025776D01*
X167921522Y-114220465D01*
X167889500Y-114422648D01*
X167889500Y-114627351D01*
X167921522Y-114829534D01*
X167984781Y-115024223D01*
X168035192Y-115123158D01*
X168077585Y-115206359D01*
X168077715Y-115206613D01*
X168198028Y-115372213D01*
X168342786Y-115516971D01*
X168484281Y-115619771D01*
X168508390Y-115637287D01*
X168624607Y-115696503D01*
X168690776Y-115730218D01*
X168690778Y-115730218D01*
X168690781Y-115730220D01*
X168751658Y-115750000D01*
X168885465Y-115793477D01*
X168986557Y-115809488D01*
X169087648Y-115825500D01*
X169087649Y-115825500D01*
X169292351Y-115825500D01*
X169292352Y-115825500D01*
X169494534Y-115793477D01*
X169689219Y-115730220D01*
X169871610Y-115637287D01*
X170008670Y-115537708D01*
X170037213Y-115516971D01*
X170037215Y-115516968D01*
X170037219Y-115516966D01*
X170181966Y-115372219D01*
X170181968Y-115372215D01*
X170181971Y-115372213D01*
X170234732Y-115299590D01*
X170302287Y-115206610D01*
X170395220Y-115024219D01*
X170458477Y-114829534D01*
X170490500Y-114627352D01*
X170490500Y-114422682D01*
X175510000Y-114422682D01*
X175510000Y-114627317D01*
X175542009Y-114829417D01*
X175605244Y-115024031D01*
X175698141Y-115206350D01*
X175698147Y-115206359D01*
X175730523Y-115250921D01*
X175730524Y-115250922D01*
X176410000Y-114571446D01*
X176410000Y-114577661D01*
X176437259Y-114679394D01*
X176489920Y-114770606D01*
X176564394Y-114845080D01*
X176655606Y-114897741D01*
X176757339Y-114925000D01*
X176763553Y-114925000D01*
X176084076Y-115604474D01*
X176128650Y-115636859D01*
X176310968Y-115729755D01*
X176505582Y-115792990D01*
X176707683Y-115825000D01*
X176912317Y-115825000D01*
X177114417Y-115792990D01*
X177309031Y-115729755D01*
X177491349Y-115636859D01*
X177535921Y-115604474D01*
X176856447Y-114925000D01*
X176862661Y-114925000D01*
X176964394Y-114897741D01*
X177055606Y-114845080D01*
X177130080Y-114770606D01*
X177182741Y-114679394D01*
X177210000Y-114577661D01*
X177210000Y-114571448D01*
X177889474Y-115250922D01*
X177889474Y-115250921D01*
X177921859Y-115206349D01*
X178014755Y-115024031D01*
X178077990Y-114829417D01*
X178110000Y-114627317D01*
X178110000Y-114422682D01*
X178077990Y-114220582D01*
X178014755Y-114025968D01*
X177921859Y-113843650D01*
X177889474Y-113799077D01*
X177889474Y-113799076D01*
X177210000Y-114478551D01*
X177210000Y-114472339D01*
X177182741Y-114370606D01*
X177130080Y-114279394D01*
X177055606Y-114204920D01*
X176964394Y-114152259D01*
X176862661Y-114125000D01*
X176856446Y-114125000D01*
X177535922Y-113445524D01*
X177535921Y-113445523D01*
X177491359Y-113413147D01*
X177491350Y-113413141D01*
X177309031Y-113320244D01*
X177114417Y-113257009D01*
X176912317Y-113225000D01*
X176707683Y-113225000D01*
X176505582Y-113257009D01*
X176310968Y-113320244D01*
X176128644Y-113413143D01*
X176084077Y-113445523D01*
X176084077Y-113445524D01*
X176763554Y-114125000D01*
X176757339Y-114125000D01*
X176655606Y-114152259D01*
X176564394Y-114204920D01*
X176489920Y-114279394D01*
X176437259Y-114370606D01*
X176410000Y-114472339D01*
X176410000Y-114478553D01*
X175730524Y-113799077D01*
X175730523Y-113799077D01*
X175698143Y-113843644D01*
X175605244Y-114025968D01*
X175542009Y-114220582D01*
X175510000Y-114422682D01*
X170490500Y-114422682D01*
X170490500Y-114422648D01*
X170469005Y-114286934D01*
X170458477Y-114220465D01*
X170412514Y-114079007D01*
X170395220Y-114025781D01*
X170395218Y-114025778D01*
X170395218Y-114025776D01*
X170361503Y-113959607D01*
X170302287Y-113843390D01*
X170270092Y-113799077D01*
X170181971Y-113677786D01*
X170037213Y-113533028D01*
X169871610Y-113412712D01*
X169858200Y-113405879D01*
X169807406Y-113357903D01*
X169790500Y-113295397D01*
X169790500Y-112421153D01*
X172199500Y-112421153D01*
X172199500Y-112578846D01*
X172230261Y-112733489D01*
X172230264Y-112733501D01*
X172290602Y-112879172D01*
X172290609Y-112879185D01*
X172378210Y-113010288D01*
X172378213Y-113010292D01*
X172489707Y-113121786D01*
X172489711Y-113121789D01*
X172620814Y-113209390D01*
X172620827Y-113209397D01*
X172766498Y-113269735D01*
X172766503Y-113269737D01*
X172895504Y-113295397D01*
X172921153Y-113300499D01*
X172921156Y-113300500D01*
X172921158Y-113300500D01*
X173078844Y-113300500D01*
X173078845Y-113300499D01*
X173233497Y-113269737D01*
X173379179Y-113209394D01*
X173510289Y-113121789D01*
X173621789Y-113010289D01*
X173709394Y-112879179D01*
X173709395Y-112879176D01*
X173709397Y-112879173D01*
X173769192Y-112734812D01*
X173796067Y-112694588D01*
X174179114Y-112311543D01*
X174255775Y-112196811D01*
X174308580Y-112069328D01*
X174331128Y-111955974D01*
X174335500Y-111933996D01*
X174335500Y-108020673D01*
X174355185Y-107953634D01*
X174407989Y-107907879D01*
X174477147Y-107897935D01*
X174494095Y-107901597D01*
X174652426Y-107947597D01*
X174652429Y-107947597D01*
X174652431Y-107947598D01*
X174689306Y-107950500D01*
X174689314Y-107950500D01*
X175120686Y-107950500D01*
X175120694Y-107950500D01*
X175157569Y-107947598D01*
X175157571Y-107947597D01*
X175157573Y-107947597D01*
X175199191Y-107935505D01*
X175315398Y-107901744D01*
X175456865Y-107818081D01*
X175573081Y-107701865D01*
X175656744Y-107560398D01*
X175702598Y-107402569D01*
X175705500Y-107365694D01*
X175705500Y-106575096D01*
X175725185Y-106508057D01*
X175741814Y-106487420D01*
X177858506Y-104370727D01*
X177858511Y-104370724D01*
X177868714Y-104360520D01*
X177868716Y-104360520D01*
X177980520Y-104248716D01*
X178026640Y-104168834D01*
X178036969Y-104150944D01*
X178036970Y-104150942D01*
X178059574Y-104111790D01*
X178059573Y-104111790D01*
X178059577Y-104111785D01*
X178100500Y-103959058D01*
X178100500Y-103800943D01*
X178100500Y-100579765D01*
X178120185Y-100512726D01*
X178121398Y-100510874D01*
X178168689Y-100440099D01*
X178209394Y-100379179D01*
X178269737Y-100233497D01*
X178300500Y-100078842D01*
X178300500Y-99921158D01*
X178300500Y-99921155D01*
X178300499Y-99921153D01*
X178269738Y-99766510D01*
X178269737Y-99766503D01*
X178255857Y-99732993D01*
X178209397Y-99620827D01*
X178209390Y-99620814D01*
X178121789Y-99489711D01*
X178121786Y-99489707D01*
X178010292Y-99378213D01*
X178010288Y-99378210D01*
X177879185Y-99290609D01*
X177879172Y-99290602D01*
X177733501Y-99230264D01*
X177733489Y-99230261D01*
X177578845Y-99199500D01*
X177578842Y-99199500D01*
X177421158Y-99199500D01*
X177421155Y-99199500D01*
X177266510Y-99230261D01*
X177266498Y-99230264D01*
X177120827Y-99290602D01*
X177120814Y-99290609D01*
X176989711Y-99378210D01*
X176989707Y-99378213D01*
X176878213Y-99489707D01*
X176878210Y-99489711D01*
X176790609Y-99620814D01*
X176790602Y-99620827D01*
X176730264Y-99766498D01*
X176730261Y-99766510D01*
X176699500Y-99921153D01*
X176699500Y-100078846D01*
X176730261Y-100233489D01*
X176730264Y-100233501D01*
X176790602Y-100379172D01*
X176790609Y-100379185D01*
X176878602Y-100510874D01*
X176899480Y-100577551D01*
X176899500Y-100579765D01*
X176899500Y-103579902D01*
X176879815Y-103646941D01*
X176863181Y-103667583D01*
X175488419Y-105042344D01*
X175427096Y-105075829D01*
X175357404Y-105070845D01*
X175337618Y-105061396D01*
X175315400Y-105048256D01*
X175315394Y-105048254D01*
X175157573Y-105002402D01*
X175157567Y-105002401D01*
X175120701Y-104999500D01*
X175120694Y-104999500D01*
X174689306Y-104999500D01*
X174689298Y-104999500D01*
X174652432Y-105002401D01*
X174652426Y-105002402D01*
X174494606Y-105048254D01*
X174494603Y-105048255D01*
X174353137Y-105131917D01*
X174346969Y-105136702D01*
X174345072Y-105134256D01*
X174296358Y-105160857D01*
X174226666Y-105155873D01*
X174194296Y-105135069D01*
X174193031Y-105136702D01*
X174186862Y-105131917D01*
X174083594Y-105070845D01*
X174045398Y-105048256D01*
X174045397Y-105048255D01*
X174045396Y-105048255D01*
X174045393Y-105048254D01*
X173887573Y-105002402D01*
X173887567Y-105002401D01*
X173850701Y-104999500D01*
X173850694Y-104999500D01*
X173419306Y-104999500D01*
X173419298Y-104999500D01*
X173382432Y-105002401D01*
X173382426Y-105002402D01*
X173224606Y-105048254D01*
X173224603Y-105048255D01*
X173083140Y-105131915D01*
X173076974Y-105136699D01*
X173075174Y-105134379D01*
X173025913Y-105161230D01*
X172956225Y-105156193D01*
X172923992Y-105135461D01*
X172922722Y-105137100D01*
X172916552Y-105132314D01*
X172775196Y-105048717D01*
X172775193Y-105048716D01*
X172617494Y-105002900D01*
X172617497Y-105002900D01*
X172615000Y-105002703D01*
X172615000Y-107947295D01*
X172615001Y-107947295D01*
X172617488Y-107947100D01*
X172617494Y-107947099D01*
X172775905Y-107901077D01*
X172845775Y-107901276D01*
X172904445Y-107939218D01*
X172933288Y-108002857D01*
X172934500Y-108020153D01*
X172934500Y-111523479D01*
X172925855Y-111552918D01*
X172919332Y-111582906D01*
X172915577Y-111587921D01*
X172914815Y-111590518D01*
X172898181Y-111611161D01*
X172805411Y-111703930D01*
X172765183Y-111730809D01*
X172620824Y-111790604D01*
X172620814Y-111790609D01*
X172489711Y-111878210D01*
X172489707Y-111878213D01*
X172378213Y-111989707D01*
X172378210Y-111989711D01*
X172290609Y-112120814D01*
X172290602Y-112120827D01*
X172230264Y-112266498D01*
X172230261Y-112266510D01*
X172199500Y-112421153D01*
X169790500Y-112421153D01*
X169790500Y-110421153D01*
X170199500Y-110421153D01*
X170199500Y-110578846D01*
X170230261Y-110733489D01*
X170230264Y-110733501D01*
X170290602Y-110879172D01*
X170290609Y-110879185D01*
X170378210Y-111010288D01*
X170378213Y-111010292D01*
X170489707Y-111121786D01*
X170489711Y-111121789D01*
X170620814Y-111209390D01*
X170620827Y-111209397D01*
X170766498Y-111269735D01*
X170766503Y-111269737D01*
X170921153Y-111300499D01*
X170921156Y-111300500D01*
X170921158Y-111300500D01*
X171078844Y-111300500D01*
X171078845Y-111300499D01*
X171233497Y-111269737D01*
X171379179Y-111209394D01*
X171510289Y-111121789D01*
X171621789Y-111010289D01*
X171709394Y-110879179D01*
X171769737Y-110733497D01*
X171800500Y-110578842D01*
X171800500Y-110421158D01*
X171800500Y-110421155D01*
X171800499Y-110421153D01*
X171796218Y-110399629D01*
X171769737Y-110266503D01*
X171732148Y-110175755D01*
X171707063Y-110115193D01*
X171708256Y-110114698D01*
X171695500Y-110063767D01*
X171695500Y-107965326D01*
X171715185Y-107898287D01*
X171767989Y-107852532D01*
X171837147Y-107842588D01*
X171882621Y-107858594D01*
X171954801Y-107901281D01*
X172112514Y-107947100D01*
X172112511Y-107947100D01*
X172114998Y-107947295D01*
X172115000Y-107947295D01*
X172115000Y-105002703D01*
X172112503Y-105002900D01*
X171954806Y-105048716D01*
X171954803Y-105048717D01*
X171813449Y-105132313D01*
X171807283Y-105137097D01*
X171805389Y-105134655D01*
X171756580Y-105161239D01*
X171686894Y-105156179D01*
X171654227Y-105135159D01*
X171653031Y-105136702D01*
X171646862Y-105131917D01*
X171543594Y-105070845D01*
X171505398Y-105048256D01*
X171505397Y-105048255D01*
X171505396Y-105048255D01*
X171505393Y-105048254D01*
X171347573Y-105002402D01*
X171347567Y-105002401D01*
X171310701Y-104999500D01*
X171310694Y-104999500D01*
X170879306Y-104999500D01*
X170879298Y-104999500D01*
X170842432Y-105002401D01*
X170842426Y-105002402D01*
X170684606Y-105048254D01*
X170684603Y-105048255D01*
X170543137Y-105131917D01*
X170543129Y-105131923D01*
X170426923Y-105248129D01*
X170426917Y-105248137D01*
X170343255Y-105389603D01*
X170343254Y-105389606D01*
X170297402Y-105547426D01*
X170297401Y-105547432D01*
X170294500Y-105584298D01*
X170294500Y-107365701D01*
X170297401Y-107402567D01*
X170297402Y-107402573D01*
X170343254Y-107560393D01*
X170343255Y-107560396D01*
X170426917Y-107701862D01*
X170426923Y-107701870D01*
X170458180Y-107733126D01*
X170491666Y-107794448D01*
X170494500Y-107820808D01*
X170494500Y-109822059D01*
X170474815Y-109889098D01*
X170458181Y-109909740D01*
X170378213Y-109989707D01*
X170378210Y-109989711D01*
X170290609Y-110120814D01*
X170290602Y-110120827D01*
X170230264Y-110266498D01*
X170230261Y-110266510D01*
X170199500Y-110421153D01*
X169790500Y-110421153D01*
X169790500Y-103730096D01*
X169810185Y-103663057D01*
X169826815Y-103642419D01*
X170511581Y-102957652D01*
X170572902Y-102924169D01*
X170642593Y-102929153D01*
X170662379Y-102938602D01*
X170674482Y-102945759D01*
X170684602Y-102951744D01*
X170704944Y-102957654D01*
X170842426Y-102997597D01*
X170842429Y-102997597D01*
X170842431Y-102997598D01*
X170879306Y-103000500D01*
X170879314Y-103000500D01*
X171310686Y-103000500D01*
X171310694Y-103000500D01*
X171347569Y-102997598D01*
X171347571Y-102997597D01*
X171347573Y-102997597D01*
X171389191Y-102985505D01*
X171505398Y-102951744D01*
X171646865Y-102868081D01*
X171646870Y-102868075D01*
X171653031Y-102863298D01*
X171654933Y-102865750D01*
X171703579Y-102839155D01*
X171773274Y-102844104D01*
X171805695Y-102864940D01*
X171806969Y-102863298D01*
X171813132Y-102868078D01*
X171813135Y-102868081D01*
X171954602Y-102951744D01*
X171974944Y-102957654D01*
X172112426Y-102997597D01*
X172112429Y-102997597D01*
X172112431Y-102997598D01*
X172149306Y-103000500D01*
X172149314Y-103000500D01*
X172580686Y-103000500D01*
X172580694Y-103000500D01*
X172617569Y-102997598D01*
X172617571Y-102997597D01*
X172617573Y-102997597D01*
X172659191Y-102985505D01*
X172775398Y-102951744D01*
X172916865Y-102868081D01*
X172916870Y-102868075D01*
X172923031Y-102863298D01*
X172924933Y-102865750D01*
X172973579Y-102839155D01*
X173043274Y-102844104D01*
X173075695Y-102864940D01*
X173076969Y-102863298D01*
X173083132Y-102868078D01*
X173083135Y-102868081D01*
X173224602Y-102951744D01*
X173244944Y-102957654D01*
X173382426Y-102997597D01*
X173382429Y-102997597D01*
X173382431Y-102997598D01*
X173419306Y-103000500D01*
X173419314Y-103000500D01*
X173850686Y-103000500D01*
X173850694Y-103000500D01*
X173887569Y-102997598D01*
X173887571Y-102997597D01*
X173887573Y-102997597D01*
X173929191Y-102985505D01*
X174045398Y-102951744D01*
X174186865Y-102868081D01*
X174186870Y-102868075D01*
X174193031Y-102863298D01*
X174194933Y-102865750D01*
X174243579Y-102839155D01*
X174313274Y-102844104D01*
X174345695Y-102864940D01*
X174346969Y-102863298D01*
X174353132Y-102868078D01*
X174353135Y-102868081D01*
X174494602Y-102951744D01*
X174514944Y-102957654D01*
X174652426Y-102997597D01*
X174652429Y-102997597D01*
X174652431Y-102997598D01*
X174689306Y-103000500D01*
X174689314Y-103000500D01*
X175120686Y-103000500D01*
X175120694Y-103000500D01*
X175157569Y-102997598D01*
X175157571Y-102997597D01*
X175157573Y-102997597D01*
X175199191Y-102985505D01*
X175315398Y-102951744D01*
X175456865Y-102868081D01*
X175573081Y-102751865D01*
X175656744Y-102610398D01*
X175702598Y-102452569D01*
X175705500Y-102415694D01*
X175705500Y-100634306D01*
X175702598Y-100597431D01*
X175696822Y-100577551D01*
X175656745Y-100439606D01*
X175656744Y-100439603D01*
X175656744Y-100439602D01*
X175573081Y-100298135D01*
X175573079Y-100298133D01*
X175573076Y-100298129D01*
X175456870Y-100181923D01*
X175456862Y-100181917D01*
X175328198Y-100105826D01*
X175315398Y-100098256D01*
X175315397Y-100098255D01*
X175315396Y-100098255D01*
X175315393Y-100098254D01*
X175157573Y-100052402D01*
X175157567Y-100052401D01*
X175120701Y-100049500D01*
X175120694Y-100049500D01*
X174689306Y-100049500D01*
X174689298Y-100049500D01*
X174652432Y-100052401D01*
X174652426Y-100052402D01*
X174494606Y-100098254D01*
X174494603Y-100098255D01*
X174386121Y-100162411D01*
X174318397Y-100179594D01*
X174252134Y-100157434D01*
X174208371Y-100102968D01*
X174199000Y-100055679D01*
X174199000Y-98312977D01*
X174218685Y-98245938D01*
X174235314Y-98225301D01*
X176326198Y-96134416D01*
X176387519Y-96100933D01*
X176452194Y-96104167D01*
X176505466Y-96121477D01*
X176707648Y-96153500D01*
X176707649Y-96153500D01*
X176912351Y-96153500D01*
X176912352Y-96153500D01*
X177114534Y-96121477D01*
X177309219Y-96058220D01*
X177491610Y-95965287D01*
X177584590Y-95897732D01*
X177657213Y-95844971D01*
X177657215Y-95844968D01*
X177657219Y-95844966D01*
X177801966Y-95700219D01*
X177801968Y-95700215D01*
X177801971Y-95700213D01*
X177859647Y-95620827D01*
X177922287Y-95534610D01*
X178015220Y-95352219D01*
X178078477Y-95157534D01*
X178110500Y-94955352D01*
X178110500Y-94750648D01*
X178093570Y-94643757D01*
X178078477Y-94548465D01*
X178042279Y-94437060D01*
X178015220Y-94353781D01*
X178015218Y-94353778D01*
X178015218Y-94353776D01*
X177976501Y-94277791D01*
X177922287Y-94171390D01*
X177914556Y-94160749D01*
X177801971Y-94005786D01*
X177657213Y-93861028D01*
X177491613Y-93740715D01*
X177491612Y-93740714D01*
X177491610Y-93740713D01*
X177428277Y-93708443D01*
X177309223Y-93647781D01*
X177114534Y-93584522D01*
X176939995Y-93556878D01*
X176912352Y-93552500D01*
X176707648Y-93552500D01*
X176683329Y-93556351D01*
X176505465Y-93584522D01*
X176310776Y-93647781D01*
X176128386Y-93740715D01*
X175962786Y-93861028D01*
X175818028Y-94005786D01*
X175697715Y-94171386D01*
X175604781Y-94353776D01*
X175541522Y-94548465D01*
X175509500Y-94750648D01*
X175509500Y-94955351D01*
X175541522Y-95157531D01*
X175558831Y-95210804D01*
X175560825Y-95280646D01*
X175528580Y-95336802D01*
X173312181Y-97553202D01*
X173250858Y-97586687D01*
X173181166Y-97581703D01*
X173125233Y-97539831D01*
X173100816Y-97474367D01*
X173100500Y-97465521D01*
X173100500Y-84800096D01*
X173120185Y-84733057D01*
X173136815Y-84712419D01*
X173462416Y-84386817D01*
X173523739Y-84353333D01*
X173550097Y-84350499D01*
X174897871Y-84350499D01*
X174897872Y-84350499D01*
X174957483Y-84344091D01*
X175092331Y-84293796D01*
X175207546Y-84207546D01*
X175293796Y-84092331D01*
X175344091Y-83957483D01*
X175350500Y-83897873D01*
X175350499Y-82102128D01*
X175344091Y-82042517D01*
X175342810Y-82039083D01*
X175293797Y-81907671D01*
X175293793Y-81907664D01*
X175207547Y-81792455D01*
X175207544Y-81792452D01*
X175092335Y-81706206D01*
X175092328Y-81706202D01*
X174957482Y-81655908D01*
X174957483Y-81655908D01*
X174897883Y-81649501D01*
X174897881Y-81649500D01*
X174897873Y-81649500D01*
X174897864Y-81649500D01*
X173102129Y-81649500D01*
X173102123Y-81649501D01*
X173042516Y-81655908D01*
X172907671Y-81706202D01*
X172907664Y-81706206D01*
X172792455Y-81792452D01*
X172792452Y-81792455D01*
X172706206Y-81907664D01*
X172706203Y-81907669D01*
X172657189Y-82039083D01*
X172615317Y-82095016D01*
X172549853Y-82119433D01*
X172481580Y-82104581D01*
X172453326Y-82083430D01*
X172339786Y-81969890D01*
X172167820Y-81844951D01*
X171978414Y-81748444D01*
X171978413Y-81748443D01*
X171978412Y-81748443D01*
X171776243Y-81682754D01*
X171776241Y-81682753D01*
X171776240Y-81682753D01*
X171610047Y-81656431D01*
X171566287Y-81649500D01*
X171353713Y-81649500D01*
X171309953Y-81656431D01*
X171143760Y-81682753D01*
X170941585Y-81748444D01*
X170752179Y-81844951D01*
X170580213Y-81969890D01*
X170429890Y-82120213D01*
X170304951Y-82292179D01*
X170208444Y-82481585D01*
X170142753Y-82683760D01*
X170109500Y-82893713D01*
X170109500Y-83106286D01*
X170142754Y-83316244D01*
X170142754Y-83316247D01*
X170156491Y-83358523D01*
X170158486Y-83428364D01*
X170126241Y-83484522D01*
X168821286Y-84789478D01*
X168709481Y-84901282D01*
X168709479Y-84901284D01*
X168684155Y-84945148D01*
X168673451Y-84963689D01*
X168630423Y-85038215D01*
X168589499Y-85190943D01*
X168589499Y-85190945D01*
X168589499Y-85359046D01*
X168589500Y-85359059D01*
X168589500Y-93623397D01*
X168569815Y-93690436D01*
X168521800Y-93733879D01*
X168508389Y-93740712D01*
X168342786Y-93861028D01*
X168198028Y-94005786D01*
X168077715Y-94171386D01*
X167984781Y-94353776D01*
X167921522Y-94548465D01*
X167889500Y-94750648D01*
X142762633Y-94750648D01*
X142769737Y-94733497D01*
X142800500Y-94578842D01*
X142800500Y-94421158D01*
X142800500Y-94421155D01*
X142800499Y-94421153D01*
X142776419Y-94300097D01*
X142769737Y-94266503D01*
X142709939Y-94122136D01*
X142700500Y-94074684D01*
X142700500Y-93086559D01*
X160225884Y-93086559D01*
X160225885Y-93086560D01*
X161384314Y-93086560D01*
X161379920Y-93090954D01*
X161327259Y-93182166D01*
X161300000Y-93283899D01*
X161300000Y-93389221D01*
X161327259Y-93490954D01*
X161379920Y-93582166D01*
X161384314Y-93586560D01*
X160225885Y-93586560D01*
X160227085Y-93594144D01*
X160280591Y-93758815D01*
X160359195Y-93913084D01*
X160460967Y-94053162D01*
X160583397Y-94175592D01*
X160723475Y-94277364D01*
X160877742Y-94355968D01*
X161042415Y-94409474D01*
X161213429Y-94436560D01*
X161450000Y-94436560D01*
X161450000Y-93652246D01*
X161454394Y-93656640D01*
X161545606Y-93709301D01*
X161647339Y-93736560D01*
X161752661Y-93736560D01*
X161854394Y-93709301D01*
X161945606Y-93656640D01*
X161950000Y-93652246D01*
X161950000Y-94436560D01*
X162186571Y-94436560D01*
X162357584Y-94409474D01*
X162522257Y-94355968D01*
X162676524Y-94277364D01*
X162816602Y-94175592D01*
X162939032Y-94053162D01*
X163040804Y-93913084D01*
X163119408Y-93758815D01*
X163172914Y-93594144D01*
X163174115Y-93586560D01*
X162015686Y-93586560D01*
X162020080Y-93582166D01*
X162072741Y-93490954D01*
X162100000Y-93389221D01*
X162100000Y-93283899D01*
X162072741Y-93182166D01*
X162020080Y-93090954D01*
X162015686Y-93086560D01*
X163174115Y-93086560D01*
X163174115Y-93086559D01*
X163172914Y-93078975D01*
X163119408Y-92914304D01*
X163040804Y-92760035D01*
X162939032Y-92619957D01*
X162816602Y-92497527D01*
X162676524Y-92395755D01*
X162522257Y-92317151D01*
X162357584Y-92263645D01*
X162186571Y-92236560D01*
X161950000Y-92236560D01*
X161950000Y-93020874D01*
X161945606Y-93016480D01*
X161854394Y-92963819D01*
X161752661Y-92936560D01*
X161647339Y-92936560D01*
X161545606Y-92963819D01*
X161454394Y-93016480D01*
X161450000Y-93020874D01*
X161450000Y-92236560D01*
X161213429Y-92236560D01*
X161042415Y-92263645D01*
X160877742Y-92317151D01*
X160723475Y-92395755D01*
X160583397Y-92497527D01*
X160460967Y-92619957D01*
X160359195Y-92760035D01*
X160280591Y-92914304D01*
X160227085Y-93078975D01*
X160225884Y-93086559D01*
X142700500Y-93086559D01*
X142700500Y-90709949D01*
X160199500Y-90709949D01*
X160199500Y-90883170D01*
X160224622Y-91041790D01*
X160226598Y-91054261D01*
X160280127Y-91219005D01*
X160358768Y-91373348D01*
X160460586Y-91513488D01*
X160583072Y-91635974D01*
X160723212Y-91737792D01*
X160877555Y-91816433D01*
X161042299Y-91869962D01*
X161213389Y-91897060D01*
X161213390Y-91897060D01*
X162186610Y-91897060D01*
X162186611Y-91897060D01*
X162357701Y-91869962D01*
X162522445Y-91816433D01*
X162676788Y-91737792D01*
X162816928Y-91635974D01*
X162939414Y-91513488D01*
X163041232Y-91373348D01*
X163119873Y-91219005D01*
X163173402Y-91054261D01*
X163200500Y-90883171D01*
X163200500Y-90709949D01*
X163173402Y-90538859D01*
X163119873Y-90374115D01*
X163041232Y-90219772D01*
X162939414Y-90079632D01*
X162816928Y-89957146D01*
X162676788Y-89855328D01*
X162522445Y-89776687D01*
X162357701Y-89723158D01*
X162357699Y-89723157D01*
X162357698Y-89723157D01*
X162226271Y-89702341D01*
X162186611Y-89696060D01*
X161213389Y-89696060D01*
X161173728Y-89702341D01*
X161042302Y-89723157D01*
X161042299Y-89723158D01*
X160941063Y-89756052D01*
X160877552Y-89776688D01*
X160723211Y-89855328D01*
X160643256Y-89913419D01*
X160583072Y-89957146D01*
X160583070Y-89957148D01*
X160583069Y-89957148D01*
X160460588Y-90079629D01*
X160460588Y-90079630D01*
X160460586Y-90079632D01*
X160436863Y-90112284D01*
X160358768Y-90219771D01*
X160280128Y-90374112D01*
X160226597Y-90538862D01*
X160199500Y-90709949D01*
X142700500Y-90709949D01*
X142700500Y-88169949D01*
X160199500Y-88169949D01*
X160199500Y-88343171D01*
X160226598Y-88514261D01*
X160280127Y-88679005D01*
X160358768Y-88833348D01*
X160460586Y-88973488D01*
X160583072Y-89095974D01*
X160723212Y-89197792D01*
X160877555Y-89276433D01*
X161042299Y-89329962D01*
X161213389Y-89357060D01*
X161213390Y-89357060D01*
X162186610Y-89357060D01*
X162186611Y-89357060D01*
X162357701Y-89329962D01*
X162522445Y-89276433D01*
X162676788Y-89197792D01*
X162816928Y-89095974D01*
X162939414Y-88973488D01*
X163041232Y-88833348D01*
X163119873Y-88679005D01*
X163173402Y-88514261D01*
X163200500Y-88343171D01*
X163200500Y-88169949D01*
X163173402Y-87998859D01*
X163119873Y-87834115D01*
X163041232Y-87679772D01*
X162939414Y-87539632D01*
X162816928Y-87417146D01*
X162676788Y-87315328D01*
X162522445Y-87236687D01*
X162357701Y-87183158D01*
X162357699Y-87183157D01*
X162357698Y-87183157D01*
X162226271Y-87162341D01*
X162186611Y-87156060D01*
X161213389Y-87156060D01*
X161173728Y-87162341D01*
X161042302Y-87183157D01*
X160877552Y-87236688D01*
X160723211Y-87315328D01*
X160643256Y-87373419D01*
X160583072Y-87417146D01*
X160583070Y-87417148D01*
X160583069Y-87417148D01*
X160460588Y-87539629D01*
X160460588Y-87539630D01*
X160460586Y-87539632D01*
X160416859Y-87599816D01*
X160358768Y-87679771D01*
X160280128Y-87834112D01*
X160226597Y-87998862D01*
X160207207Y-88121288D01*
X160199500Y-88169949D01*
X142700500Y-88169949D01*
X142700500Y-85629949D01*
X160199500Y-85629949D01*
X160199500Y-85803171D01*
X160226598Y-85974261D01*
X160280127Y-86139005D01*
X160358768Y-86293348D01*
X160460586Y-86433488D01*
X160583072Y-86555974D01*
X160723212Y-86657792D01*
X160877555Y-86736433D01*
X161042299Y-86789962D01*
X161213389Y-86817060D01*
X161213390Y-86817060D01*
X162186610Y-86817060D01*
X162186611Y-86817060D01*
X162357701Y-86789962D01*
X162522445Y-86736433D01*
X162676788Y-86657792D01*
X162816928Y-86555974D01*
X162939414Y-86433488D01*
X163041232Y-86293348D01*
X163119873Y-86139005D01*
X163173402Y-85974261D01*
X163200500Y-85803171D01*
X163200500Y-85629949D01*
X163173402Y-85458859D01*
X163119873Y-85294115D01*
X163041232Y-85139772D01*
X162939414Y-84999632D01*
X162816928Y-84877146D01*
X162676788Y-84775328D01*
X162522445Y-84696687D01*
X162357701Y-84643158D01*
X162357699Y-84643157D01*
X162357698Y-84643157D01*
X162226271Y-84622341D01*
X162186611Y-84616060D01*
X161213389Y-84616060D01*
X161173728Y-84622341D01*
X161042302Y-84643157D01*
X160877552Y-84696688D01*
X160723211Y-84775328D01*
X160643256Y-84833419D01*
X160583072Y-84877146D01*
X160583070Y-84877148D01*
X160583069Y-84877148D01*
X160460588Y-84999629D01*
X160460588Y-84999630D01*
X160460586Y-84999632D01*
X160432555Y-85038213D01*
X160358768Y-85139771D01*
X160280128Y-85294112D01*
X160226597Y-85458862D01*
X160213738Y-85540055D01*
X160199500Y-85629949D01*
X142700500Y-85629949D01*
X142700500Y-83727564D01*
X142700499Y-83727562D01*
X142673582Y-83592242D01*
X142673581Y-83592241D01*
X142673580Y-83592232D01*
X142671022Y-83586057D01*
X142658113Y-83554892D01*
X142620775Y-83464749D01*
X142556608Y-83368716D01*
X142544114Y-83350017D01*
X142544112Y-83350014D01*
X142284047Y-83089949D01*
X160199500Y-83089949D01*
X160199500Y-83263170D01*
X160213254Y-83350014D01*
X160226598Y-83434261D01*
X160280127Y-83599005D01*
X160358768Y-83753348D01*
X160460586Y-83893488D01*
X160583072Y-84015974D01*
X160723212Y-84117792D01*
X160877555Y-84196433D01*
X161042299Y-84249962D01*
X161213389Y-84277060D01*
X161213390Y-84277060D01*
X162186610Y-84277060D01*
X162186611Y-84277060D01*
X162357701Y-84249962D01*
X162522445Y-84196433D01*
X162676788Y-84117792D01*
X162816928Y-84015974D01*
X162939414Y-83893488D01*
X163041232Y-83753348D01*
X163119873Y-83599005D01*
X163173402Y-83434261D01*
X163200500Y-83263171D01*
X163200500Y-83089949D01*
X163173402Y-82918859D01*
X163119873Y-82754115D01*
X163041232Y-82599772D01*
X162939414Y-82459632D01*
X162816928Y-82337146D01*
X162676788Y-82235328D01*
X162522445Y-82156687D01*
X162357701Y-82103158D01*
X162357699Y-82103157D01*
X162357698Y-82103157D01*
X162226271Y-82082341D01*
X162186611Y-82076060D01*
X161213389Y-82076060D01*
X161173728Y-82082341D01*
X161042302Y-82103157D01*
X160877552Y-82156688D01*
X160723211Y-82235328D01*
X160644964Y-82292179D01*
X160583072Y-82337146D01*
X160583070Y-82337148D01*
X160583069Y-82337148D01*
X160460588Y-82459629D01*
X160460588Y-82459630D01*
X160460586Y-82459632D01*
X160418305Y-82517827D01*
X160358768Y-82599771D01*
X160280128Y-82754112D01*
X160226597Y-82918862D01*
X160199500Y-83089949D01*
X142284047Y-83089949D01*
X139744047Y-80549949D01*
X160199500Y-80549949D01*
X160199500Y-80723171D01*
X160226598Y-80894261D01*
X160280127Y-81059005D01*
X160358768Y-81213348D01*
X160460586Y-81353488D01*
X160583072Y-81475974D01*
X160723212Y-81577792D01*
X160877555Y-81656433D01*
X161042299Y-81709962D01*
X161213389Y-81737060D01*
X161213390Y-81737060D01*
X162186610Y-81737060D01*
X162186611Y-81737060D01*
X162357701Y-81709962D01*
X162522445Y-81656433D01*
X162676788Y-81577792D01*
X162816928Y-81475974D01*
X162939414Y-81353488D01*
X163041232Y-81213348D01*
X163119873Y-81059005D01*
X163173402Y-80894261D01*
X163200500Y-80723171D01*
X163200500Y-80549949D01*
X163173402Y-80378859D01*
X163119873Y-80214115D01*
X163041232Y-80059772D01*
X162939414Y-79919632D01*
X162816928Y-79797146D01*
X162676788Y-79695328D01*
X162522445Y-79616687D01*
X162357701Y-79563158D01*
X162357699Y-79563157D01*
X162357698Y-79563157D01*
X162226271Y-79542341D01*
X162186611Y-79536060D01*
X161213389Y-79536060D01*
X161173728Y-79542341D01*
X161042302Y-79563157D01*
X160877552Y-79616688D01*
X160723211Y-79695328D01*
X160643256Y-79753419D01*
X160583072Y-79797146D01*
X160583070Y-79797148D01*
X160583069Y-79797148D01*
X160460588Y-79919629D01*
X160460588Y-79919630D01*
X160460586Y-79919632D01*
X160416859Y-79979816D01*
X160358768Y-80059771D01*
X160280128Y-80214112D01*
X160226597Y-80378862D01*
X160221220Y-80412812D01*
X160199500Y-80549949D01*
X139744047Y-80549949D01*
X137836818Y-78642720D01*
X137822114Y-78615792D01*
X137805522Y-78589974D01*
X137804630Y-78583773D01*
X137803333Y-78581397D01*
X137800499Y-78555039D01*
X137800499Y-77846559D01*
X160225884Y-77846559D01*
X160225885Y-77846560D01*
X161384314Y-77846560D01*
X161379920Y-77850954D01*
X161327259Y-77942166D01*
X161300000Y-78043899D01*
X161300000Y-78149221D01*
X161327259Y-78250954D01*
X161379920Y-78342166D01*
X161384314Y-78346560D01*
X160225885Y-78346560D01*
X160227085Y-78354144D01*
X160280591Y-78518815D01*
X160359195Y-78673084D01*
X160460967Y-78813162D01*
X160583397Y-78935592D01*
X160723475Y-79037364D01*
X160877742Y-79115968D01*
X161042415Y-79169474D01*
X161213429Y-79196560D01*
X161450000Y-79196560D01*
X161450000Y-78412246D01*
X161454394Y-78416640D01*
X161545606Y-78469301D01*
X161647339Y-78496560D01*
X161752661Y-78496560D01*
X161854394Y-78469301D01*
X161945606Y-78416640D01*
X161950000Y-78412246D01*
X161950000Y-79196560D01*
X162186571Y-79196560D01*
X162357584Y-79169474D01*
X162522257Y-79115968D01*
X162676524Y-79037364D01*
X162816602Y-78935592D01*
X162939032Y-78813162D01*
X163040804Y-78673084D01*
X163119408Y-78518815D01*
X163172914Y-78354144D01*
X163174115Y-78346560D01*
X162015686Y-78346560D01*
X162020080Y-78342166D01*
X162072741Y-78250954D01*
X162100000Y-78149221D01*
X162100000Y-78043899D01*
X162072741Y-77942166D01*
X162020080Y-77850954D01*
X162015686Y-77846560D01*
X163174115Y-77846560D01*
X163174115Y-77846559D01*
X163172914Y-77838975D01*
X163119408Y-77674304D01*
X163040804Y-77520035D01*
X162939032Y-77379957D01*
X162816602Y-77257527D01*
X162676524Y-77155755D01*
X162522257Y-77077151D01*
X162357584Y-77023645D01*
X162186571Y-76996560D01*
X161950000Y-76996560D01*
X161950000Y-77780874D01*
X161945606Y-77776480D01*
X161854394Y-77723819D01*
X161752661Y-77696560D01*
X161647339Y-77696560D01*
X161545606Y-77723819D01*
X161454394Y-77776480D01*
X161450000Y-77780874D01*
X161450000Y-76996560D01*
X161213429Y-76996560D01*
X161042415Y-77023645D01*
X160877742Y-77077151D01*
X160723475Y-77155755D01*
X160583397Y-77257527D01*
X160460967Y-77379957D01*
X160359195Y-77520035D01*
X160280591Y-77674304D01*
X160227085Y-77838975D01*
X160225884Y-77846559D01*
X137800499Y-77846559D01*
X137800499Y-77448689D01*
X137800498Y-77448683D01*
X137800497Y-77448676D01*
X137794091Y-77389077D01*
X137790689Y-77379957D01*
X137743797Y-77254231D01*
X137743793Y-77254224D01*
X137657547Y-77139015D01*
X137657544Y-77139012D01*
X137542335Y-77052766D01*
X137542328Y-77052762D01*
X137407482Y-77002468D01*
X137407483Y-77002468D01*
X137347883Y-76996061D01*
X137347881Y-76996060D01*
X137347873Y-76996060D01*
X137347864Y-76996060D01*
X135252129Y-76996060D01*
X135252123Y-76996061D01*
X135192516Y-77002468D01*
X135057671Y-77052762D01*
X135057664Y-77052766D01*
X134942455Y-77139012D01*
X134942452Y-77139015D01*
X134856206Y-77254224D01*
X134856202Y-77254231D01*
X134805908Y-77389077D01*
X134799501Y-77448676D01*
X134799501Y-77448683D01*
X134799500Y-77448695D01*
X122797931Y-77448695D01*
X119242948Y-73893713D01*
X121384500Y-73893713D01*
X121384500Y-74106286D01*
X121417753Y-74316239D01*
X121483444Y-74518414D01*
X121579951Y-74707820D01*
X121704890Y-74879786D01*
X121855213Y-75030109D01*
X122027179Y-75155048D01*
X122027181Y-75155049D01*
X122027184Y-75155051D01*
X122216588Y-75251557D01*
X122418757Y-75317246D01*
X122628713Y-75350500D01*
X122628714Y-75350500D01*
X122841286Y-75350500D01*
X122841287Y-75350500D01*
X123051243Y-75317246D01*
X123253412Y-75251557D01*
X123442816Y-75155051D01*
X123614792Y-75030104D01*
X123728329Y-74916566D01*
X123789648Y-74883084D01*
X123859340Y-74888068D01*
X123915274Y-74929939D01*
X123932189Y-74960917D01*
X123981202Y-75092328D01*
X123981206Y-75092335D01*
X124067452Y-75207544D01*
X124067455Y-75207547D01*
X124182664Y-75293793D01*
X124182671Y-75293797D01*
X124317517Y-75344091D01*
X124317516Y-75344091D01*
X124324444Y-75344835D01*
X124377127Y-75350500D01*
X126172872Y-75350499D01*
X126232483Y-75344091D01*
X126367331Y-75293796D01*
X126482546Y-75207546D01*
X126568796Y-75092331D01*
X126619091Y-74957483D01*
X126625500Y-74897873D01*
X126625500Y-74878711D01*
X172149500Y-74878711D01*
X172149500Y-75121288D01*
X172181161Y-75361785D01*
X172243947Y-75596104D01*
X172270500Y-75660208D01*
X172336776Y-75820212D01*
X172458064Y-76030289D01*
X172458066Y-76030292D01*
X172458067Y-76030293D01*
X172605733Y-76222736D01*
X172605739Y-76222743D01*
X172777256Y-76394260D01*
X172777262Y-76394265D01*
X172969711Y-76541936D01*
X173179788Y-76663224D01*
X173403900Y-76756054D01*
X173638211Y-76818838D01*
X173818586Y-76842584D01*
X173878711Y-76850500D01*
X173878712Y-76850500D01*
X174121289Y-76850500D01*
X174169388Y-76844167D01*
X174361789Y-76818838D01*
X174596100Y-76756054D01*
X174820212Y-76663224D01*
X175030289Y-76541936D01*
X175222738Y-76394265D01*
X175394265Y-76222738D01*
X175541936Y-76030289D01*
X175663224Y-75820212D01*
X175756054Y-75596100D01*
X175818838Y-75361789D01*
X175850500Y-75121288D01*
X175850500Y-74878712D01*
X175818838Y-74638211D01*
X175756054Y-74403900D01*
X175663224Y-74179788D01*
X175541936Y-73969711D01*
X175394265Y-73777262D01*
X175394260Y-73777256D01*
X175222743Y-73605739D01*
X175222736Y-73605733D01*
X175030293Y-73458067D01*
X175030292Y-73458066D01*
X175030289Y-73458064D01*
X174820212Y-73336776D01*
X174712560Y-73292185D01*
X174596104Y-73243947D01*
X174361785Y-73181161D01*
X174121289Y-73149500D01*
X174121288Y-73149500D01*
X173878712Y-73149500D01*
X173878711Y-73149500D01*
X173638214Y-73181161D01*
X173403895Y-73243947D01*
X173179794Y-73336773D01*
X173179785Y-73336777D01*
X172969706Y-73458067D01*
X172777263Y-73605733D01*
X172777256Y-73605739D01*
X172605739Y-73777256D01*
X172605733Y-73777263D01*
X172458067Y-73969706D01*
X172336777Y-74179785D01*
X172336773Y-74179794D01*
X172243947Y-74403895D01*
X172181161Y-74638214D01*
X172149500Y-74878711D01*
X126625500Y-74878711D01*
X126625499Y-73102128D01*
X126619091Y-73042517D01*
X126617810Y-73039083D01*
X126568797Y-72907671D01*
X126568793Y-72907664D01*
X126482547Y-72792455D01*
X126482544Y-72792452D01*
X126367335Y-72706206D01*
X126367328Y-72706202D01*
X126232482Y-72655908D01*
X126232483Y-72655908D01*
X126172883Y-72649501D01*
X126172881Y-72649500D01*
X126172873Y-72649500D01*
X126172864Y-72649500D01*
X124377129Y-72649500D01*
X124377123Y-72649501D01*
X124317516Y-72655908D01*
X124182671Y-72706202D01*
X124182664Y-72706206D01*
X124067455Y-72792452D01*
X124067452Y-72792455D01*
X123981206Y-72907664D01*
X123981203Y-72907669D01*
X123932189Y-73039083D01*
X123890317Y-73095016D01*
X123824853Y-73119433D01*
X123756580Y-73104581D01*
X123728326Y-73083430D01*
X123614786Y-72969890D01*
X123442820Y-72844951D01*
X123253414Y-72748444D01*
X123253413Y-72748443D01*
X123253412Y-72748443D01*
X123051243Y-72682754D01*
X123051241Y-72682753D01*
X123051240Y-72682753D01*
X122889957Y-72657208D01*
X122841287Y-72649500D01*
X122628713Y-72649500D01*
X122580042Y-72657208D01*
X122418760Y-72682753D01*
X122216585Y-72748444D01*
X122027179Y-72844951D01*
X121855213Y-72969890D01*
X121704890Y-73120213D01*
X121579951Y-73292179D01*
X121483444Y-73481585D01*
X121417753Y-73683760D01*
X121384500Y-73893713D01*
X119242948Y-73893713D01*
X118987589Y-73638354D01*
X118987588Y-73638352D01*
X118868717Y-73519481D01*
X118868716Y-73519480D01*
X118781904Y-73469360D01*
X118781904Y-73469359D01*
X118781900Y-73469358D01*
X118731785Y-73440423D01*
X118579057Y-73399499D01*
X118420943Y-73399499D01*
X118413347Y-73399499D01*
X118413331Y-73399500D01*
X108285719Y-73399500D01*
X108218680Y-73379815D01*
X108175235Y-73331795D01*
X108155052Y-73292185D01*
X108155051Y-73292184D01*
X108030109Y-73120213D01*
X107879786Y-72969890D01*
X107707820Y-72844951D01*
X107518414Y-72748444D01*
X107518413Y-72748443D01*
X107518412Y-72748443D01*
X107316243Y-72682754D01*
X107316241Y-72682753D01*
X107316240Y-72682753D01*
X107154957Y-72657208D01*
X107106287Y-72649500D01*
X106893713Y-72649500D01*
X106845042Y-72657208D01*
X106683760Y-72682753D01*
X106481585Y-72748444D01*
X106292179Y-72844951D01*
X106120213Y-72969890D01*
X105969890Y-73120213D01*
X105844951Y-73292179D01*
X105748444Y-73481585D01*
X105682753Y-73683760D01*
X105649500Y-73893713D01*
X103500500Y-73893713D01*
X103500500Y-70624500D01*
X103520185Y-70557461D01*
X103572989Y-70511706D01*
X103624500Y-70500500D01*
X179375500Y-70500500D01*
X179442539Y-70520185D01*
G37*
G04 #@! TD.AperFunction*
M02*
