%TF.GenerationSoftware,KiCad,Pcbnew,9.0.0*%
%TF.CreationDate,2026-02-16T12:17:51+11:00*%
%TF.ProjectId,Battery_PCB,42617474-6572-4795-9f50-43422e6b6963,rev?*%
%TF.SameCoordinates,Original*%
%TF.FileFunction,Copper,L1,Top*%
%TF.FilePolarity,Positive*%
%FSLAX46Y46*%
G04 Gerber Fmt 4.6, Leading zero omitted, Abs format (unit mm)*
G04 Created by KiCad (PCBNEW 9.0.0) date 2026-02-16 12:17:51*
%MOMM*%
%LPD*%
G01*
G04 APERTURE LIST*
G04 Aperture macros list*
%AMRoundRect*
0 Rectangle with rounded corners*
0 $1 Rounding radius*
0 $2 $3 $4 $5 $6 $7 $8 $9 X,Y pos of 4 corners*
0 Add a 4 corners polygon primitive as box body*
4,1,4,$2,$3,$4,$5,$6,$7,$8,$9,$2,$3,0*
0 Add four circle primitives for the rounded corners*
1,1,$1+$1,$2,$3*
1,1,$1+$1,$4,$5*
1,1,$1+$1,$6,$7*
1,1,$1+$1,$8,$9*
0 Add four rect primitives between the rounded corners*
20,1,$1+$1,$2,$3,$4,$5,0*
20,1,$1+$1,$4,$5,$6,$7,0*
20,1,$1+$1,$6,$7,$8,$9,0*
20,1,$1+$1,$8,$9,$2,$3,0*%
G04 Aperture macros list end*
%TA.AperFunction,SMDPad,CuDef*%
%ADD10RoundRect,0.250000X0.337500X0.475000X-0.337500X0.475000X-0.337500X-0.475000X0.337500X-0.475000X0*%
%TD*%
%TA.AperFunction,SMDPad,CuDef*%
%ADD11RoundRect,0.250000X0.475000X-0.337500X0.475000X0.337500X-0.475000X0.337500X-0.475000X-0.337500X0*%
%TD*%
%TA.AperFunction,ComponentPad*%
%ADD12R,2.000000X1.200000*%
%TD*%
%TA.AperFunction,ComponentPad*%
%ADD13O,2.000000X1.200000*%
%TD*%
%TA.AperFunction,ComponentPad*%
%ADD14C,2.600000*%
%TD*%
%TA.AperFunction,ComponentPad*%
%ADD15RoundRect,0.250000X-1.050000X-1.050000X1.050000X-1.050000X1.050000X1.050000X-1.050000X1.050000X0*%
%TD*%
%TA.AperFunction,SMDPad,CuDef*%
%ADD16R,1.981200X0.558800*%
%TD*%
%TA.AperFunction,SMDPad,CuDef*%
%ADD17RoundRect,0.237500X-0.237500X0.250000X-0.237500X-0.250000X0.237500X-0.250000X0.237500X0.250000X0*%
%TD*%
%TA.AperFunction,ComponentPad*%
%ADD18C,1.498600*%
%TD*%
%TA.AperFunction,SMDPad,CuDef*%
%ADD19RoundRect,0.237500X-0.237500X0.300000X-0.237500X-0.300000X0.237500X-0.300000X0.237500X0.300000X0*%
%TD*%
%TA.AperFunction,ComponentPad*%
%ADD20RoundRect,0.250000X-0.350000X-0.625000X0.350000X-0.625000X0.350000X0.625000X-0.350000X0.625000X0*%
%TD*%
%TA.AperFunction,ComponentPad*%
%ADD21O,1.200000X1.750000*%
%TD*%
%TA.AperFunction,SMDPad,CuDef*%
%ADD22RoundRect,0.237500X0.300000X0.237500X-0.300000X0.237500X-0.300000X-0.237500X0.300000X-0.237500X0*%
%TD*%
%TA.AperFunction,ViaPad*%
%ADD23C,0.800000*%
%TD*%
%TA.AperFunction,Conductor*%
%ADD24C,0.300000*%
%TD*%
%TA.AperFunction,Conductor*%
%ADD25C,0.500000*%
%TD*%
G04 APERTURE END LIST*
D10*
%TO.P,C2,2*%
%TO.N,GND*%
X158500000Y-113000000D03*
%TO.P,C2,1*%
%TO.N,+5V*%
X160575000Y-113000000D03*
%TD*%
D11*
%TO.P,C4,1*%
%TO.N,GND*%
X158706520Y-58900000D03*
%TO.P,C4,2*%
%TO.N,3V3*%
X158706520Y-56825000D03*
%TD*%
D12*
%TO.P,U1,1*%
%TO.N,3V3*%
X168140000Y-55660000D03*
D13*
%TO.P,U1,2*%
X168140000Y-58200000D03*
%TO.P,U1,3*%
%TO.N,N/C*%
X168140000Y-60740000D03*
%TO.P,U1,4*%
%TO.N,Net-(U1-GPIO4)*%
X168140000Y-63280000D03*
%TO.P,U1,5*%
%TO.N,Net-(U1-GPIO5)*%
X168140000Y-65820000D03*
%TO.P,U1,6*%
%TO.N,N/C*%
X168140000Y-68360000D03*
%TO.P,U1,7*%
X168140000Y-70900000D03*
%TO.P,U1,8*%
X168140000Y-73440000D03*
%TO.P,U1,9*%
%TO.N,Net-(J1-Pin_2)*%
X168140000Y-75980000D03*
%TO.P,U1,10*%
%TO.N,Net-(J1-Pin_3)*%
X168140000Y-78520000D03*
%TO.P,U1,11*%
%TO.N,N/C*%
X168140000Y-81060000D03*
%TO.P,U1,12*%
X168140000Y-83600000D03*
%TO.P,U1,13*%
X168140000Y-86140000D03*
%TO.P,U1,14*%
X168140000Y-88680000D03*
%TO.P,U1,15*%
X168140000Y-91220000D03*
%TO.P,U1,16*%
X168140000Y-93760000D03*
%TO.P,U1,17*%
X168140000Y-96300000D03*
%TO.P,U1,18*%
X168140000Y-98840000D03*
%TO.P,U1,19*%
X168140000Y-101380000D03*
%TO.P,U1,20*%
X168136320Y-103917280D03*
%TO.P,U1,21*%
%TO.N,+5V*%
X168136320Y-106457280D03*
%TO.P,U1,22*%
%TO.N,GND*%
X168136320Y-108997280D03*
%TO.P,U1,23*%
X191000000Y-109000000D03*
%TO.P,U1,24*%
X191000000Y-106460000D03*
%TO.P,U1,25*%
%TO.N,N/C*%
X191000000Y-103920000D03*
%TO.P,U1,26*%
X191000000Y-101380000D03*
%TO.P,U1,27*%
X191000000Y-98840000D03*
%TO.P,U1,28*%
X191000000Y-96300000D03*
%TO.P,U1,29*%
X191000000Y-93760000D03*
%TO.P,U1,30*%
X191000000Y-91220000D03*
%TO.P,U1,31*%
X191000000Y-88680000D03*
%TO.P,U1,32*%
X191000000Y-86140000D03*
%TO.P,U1,33*%
X191000000Y-83600000D03*
%TO.P,U1,34*%
X191000000Y-81060000D03*
%TO.P,U1,35*%
X191000000Y-78520000D03*
%TO.P,U1,36*%
X191000000Y-75980000D03*
%TO.P,U1,37*%
X191000000Y-73440000D03*
%TO.P,U1,38*%
X191000000Y-70900000D03*
%TO.P,U1,39*%
X191000000Y-68360000D03*
%TO.P,U1,40*%
X191000000Y-65820000D03*
%TO.P,U1,41*%
X191000000Y-63280000D03*
%TO.P,U1,42*%
X191000000Y-60740000D03*
%TO.P,U1,43*%
X191000000Y-58200000D03*
%TO.P,U1,44*%
%TO.N,GND*%
X191000000Y-55660000D03*
%TD*%
D14*
%TO.P,J5,2,Pin_2*%
%TO.N,GND*%
X160000000Y-122000000D03*
D15*
%TO.P,J5,1,Pin_1*%
%TO.N,+5V*%
X154920000Y-122000000D03*
%TD*%
D16*
%TO.P,U2,8,Rs*%
%TO.N,Net-(U2-Rs)*%
X147061200Y-62000000D03*
%TO.P,U2,7,CANH*%
%TO.N,Net-(U2-CANH)*%
X147061200Y-60730000D03*
%TO.P,U2,6,CANL*%
%TO.N,Net-(U2-CANL)*%
X147061200Y-59460000D03*
%TO.P,U2,5,Vref*%
%TO.N,unconnected-(U2-Vref-Pad5)*%
X147061200Y-58190000D03*
%TO.P,U2,4,R*%
%TO.N,Net-(U1-GPIO4)*%
X151988800Y-58190000D03*
%TO.P,U2,3,VCC*%
%TO.N,3V3*%
X151988800Y-59460000D03*
%TO.P,U2,2,GND*%
%TO.N,GND*%
X151988800Y-60730000D03*
%TO.P,U2,1,D*%
%TO.N,Net-(U1-GPIO5)*%
X151988800Y-62000000D03*
%TD*%
D17*
%TO.P,R1,1*%
%TO.N,Net-(U2-Rs)*%
X144000000Y-63175000D03*
%TO.P,R1,2*%
%TO.N,GND*%
X144000000Y-65000000D03*
%TD*%
D18*
%TO.P,J2,1,1*%
%TO.N,unconnected-(J2-Pad1)*%
X134270000Y-70044999D03*
%TO.P,J2,2,2*%
%TO.N,Net-(U2-CANL)*%
X134270000Y-67274999D03*
%TO.P,J2,3,3*%
%TO.N,unconnected-(J2-Pad3)*%
X134270000Y-64505000D03*
%TO.P,J2,4,4*%
%TO.N,unconnected-(J2-Pad4)*%
X134270000Y-61735000D03*
%TO.P,J2,5,5*%
%TO.N,unconnected-(J2-Pad5)*%
X134270000Y-58965001D03*
%TO.P,J2,6,6*%
%TO.N,unconnected-(J2-Pad6)*%
X131730000Y-68660001D03*
%TO.P,J2,7,7*%
%TO.N,Net-(U2-CANH)*%
X131730000Y-65890001D03*
%TO.P,J2,8,8*%
%TO.N,unconnected-(J2-Pad8)*%
X131730000Y-63120001D03*
%TO.P,J2,9,9*%
%TO.N,unconnected-(J2-Pad9)*%
X131730000Y-60350002D03*
%TD*%
D19*
%TO.P,C3,1*%
%TO.N,3V3*%
X162706520Y-57000000D03*
%TO.P,C3,2*%
%TO.N,GND*%
X162706520Y-58725000D03*
%TD*%
D20*
%TO.P,J1,1,Pin_1*%
%TO.N,unconnected-(J1-Pin_1-Pad1)*%
X155000000Y-41000000D03*
D21*
%TO.P,J1,2,Pin_2*%
%TO.N,Net-(J1-Pin_2)*%
X157000000Y-41000000D03*
%TO.P,J1,3,Pin_3*%
%TO.N,Net-(J1-Pin_3)*%
X159000000Y-41000000D03*
%TO.P,J1,4,Pin_4*%
%TO.N,GND*%
X161000000Y-41000000D03*
%TD*%
D22*
%TO.P,C1,1*%
%TO.N,+5V*%
X160400000Y-108875000D03*
%TO.P,C1,2*%
%TO.N,GND*%
X158675000Y-108875000D03*
%TD*%
D18*
%TO.P,J3,1,1*%
%TO.N,unconnected-(J3-Pad1)*%
X134270000Y-107034999D03*
%TO.P,J3,2,2*%
%TO.N,Net-(U2-CANL)*%
X134270000Y-104264999D03*
%TO.P,J3,3,3*%
%TO.N,unconnected-(J3-Pad3)*%
X134270000Y-101495000D03*
%TO.P,J3,4,4*%
%TO.N,unconnected-(J3-Pad4)*%
X134270000Y-98725000D03*
%TO.P,J3,5,5*%
%TO.N,unconnected-(J3-Pad5)*%
X134270000Y-95955001D03*
%TO.P,J3,6,6*%
%TO.N,unconnected-(J3-Pad6)*%
X131730000Y-105650001D03*
%TO.P,J3,7,7*%
%TO.N,Net-(U2-CANH)*%
X131730000Y-102880001D03*
%TO.P,J3,8,8*%
%TO.N,unconnected-(J3-Pad8)*%
X131730000Y-100110001D03*
%TO.P,J3,9,9*%
%TO.N,unconnected-(J3-Pad9)*%
X131730000Y-97340002D03*
%TD*%
D23*
%TO.N,GND*%
X156925000Y-113000000D03*
X145200000Y-65000000D03*
X157175000Y-108875000D03*
X154000000Y-60800000D03*
X160500000Y-58900000D03*
X164200000Y-58700000D03*
%TD*%
D24*
%TO.N,GND*%
X164175000Y-58725000D02*
X162781520Y-58725000D01*
X164200000Y-58700000D02*
X164175000Y-58725000D01*
X158881520Y-58900000D02*
X160500000Y-58900000D01*
X158706520Y-58725000D02*
X158881520Y-58900000D01*
%TO.N,3V3*%
X165500000Y-55500000D02*
X168000000Y-55500000D01*
X164000000Y-57000000D02*
X165500000Y-55500000D01*
X162706520Y-57000000D02*
X164000000Y-57000000D01*
X151000000Y-57000000D02*
X162506520Y-57000000D01*
X150000000Y-59000000D02*
X150000000Y-58000000D01*
X150460000Y-59460000D02*
X150000000Y-59000000D01*
X152000000Y-59460000D02*
X150460000Y-59460000D01*
X150000000Y-58000000D02*
X151000000Y-57000000D01*
X162506520Y-57000000D02*
X162706520Y-57200000D01*
D25*
%TO.N,+5V*%
X160400000Y-114600000D02*
X160400000Y-112125000D01*
X154920000Y-122000000D02*
X154920000Y-120080000D01*
X154920000Y-120080000D02*
X160400000Y-114600000D01*
D24*
%TO.N,GND*%
X157175000Y-108875000D02*
X158675000Y-108875000D01*
X156925000Y-113000000D02*
X158500000Y-113000000D01*
%TO.N,Net-(J1-Pin_2)*%
X172000000Y-72000000D02*
X168020000Y-75980000D01*
X172000000Y-56000000D02*
X172000000Y-72000000D01*
X167000000Y-51000000D02*
X172000000Y-56000000D01*
X159000000Y-51000000D02*
X167000000Y-51000000D01*
X157000000Y-49000000D02*
X159000000Y-51000000D01*
X157000000Y-41000000D02*
X157000000Y-49000000D01*
%TO.N,Net-(J1-Pin_3)*%
X159000000Y-47000000D02*
X159000000Y-41000000D01*
X160000000Y-48000000D02*
X159000000Y-47000000D01*
X169000000Y-48000000D02*
X160000000Y-48000000D01*
X175000000Y-75000000D02*
X175000000Y-54000000D01*
X171480000Y-78520000D02*
X175000000Y-75000000D01*
X175000000Y-54000000D02*
X169000000Y-48000000D01*
X168480000Y-78520000D02*
X171480000Y-78520000D01*
%TO.N,Net-(U2-CANL)*%
X148024999Y-59460000D02*
X147050000Y-59460000D01*
X149000000Y-60435001D02*
X148024999Y-59460000D01*
X145000000Y-69000000D02*
X149000000Y-65000000D01*
X149000000Y-65000000D02*
X149000000Y-60435001D01*
X137000000Y-69000000D02*
X145000000Y-69000000D01*
%TO.N,Net-(U1-GPIO4)*%
X167140000Y-63280000D02*
X168140000Y-63280000D01*
X158000000Y-61000000D02*
X164860000Y-61000000D01*
X164860000Y-61000000D02*
X167140000Y-63280000D01*
X155190000Y-58190000D02*
X158000000Y-61000000D01*
X152000000Y-58190000D02*
X155190000Y-58190000D01*
D25*
%TO.N,3V3*%
X168140000Y-58200000D02*
X168140000Y-55660000D01*
D24*
%TO.N,Net-(U1-GPIO5)*%
X167140000Y-65820000D02*
X168140000Y-65820000D01*
X166140000Y-64820000D02*
X167140000Y-65820000D01*
D25*
%TO.N,+5V*%
X160400000Y-109000000D02*
X160275000Y-108875000D01*
X160400000Y-108000000D02*
X160400000Y-112000000D01*
X161942720Y-106457280D02*
X160400000Y-108000000D01*
X168136320Y-106457280D02*
X161942720Y-106457280D01*
D24*
%TO.N,3V3*%
X158706520Y-57000000D02*
X160500000Y-57000000D01*
%TO.N,Net-(U2-Rs)*%
X145175000Y-62000000D02*
X144000000Y-63175000D01*
X147050000Y-62000000D02*
X145175000Y-62000000D01*
X146962500Y-62087500D02*
X147050000Y-62000000D01*
%TO.N,GND*%
X152000000Y-60730000D02*
X153930000Y-60730000D01*
X144000000Y-65000000D02*
X145000000Y-65000000D01*
X153930000Y-60730000D02*
X154000000Y-60800000D01*
%TO.N,Net-(U1-GPIO5)*%
X154820000Y-64820000D02*
X166140000Y-64820000D01*
X152000000Y-62000000D02*
X154820000Y-64820000D01*
%TO.N,3V3*%
X162521520Y-57385000D02*
X162706520Y-57200000D01*
%TO.N,Net-(U2-CANH)*%
X131730000Y-65890001D02*
X131730000Y-65414826D01*
X137215049Y-60730000D02*
X134972524Y-62972524D01*
X134172302Y-62972524D02*
X131730000Y-65414826D01*
D25*
X130000000Y-101150001D02*
X131730000Y-102880001D01*
D24*
X134972524Y-62972524D02*
X134172302Y-62972524D01*
D25*
X130000000Y-67620001D02*
X130000000Y-101150001D01*
X131730000Y-65890001D02*
X130000000Y-67620001D01*
D24*
X147050000Y-60730000D02*
X137215049Y-60730000D01*
D25*
%TO.N,Net-(U2-CANL)*%
X135274999Y-67274999D02*
X134270000Y-67274999D01*
X137000000Y-69000000D02*
X137000000Y-102000000D01*
X137000000Y-69000000D02*
X135274999Y-67274999D01*
X137000000Y-102000000D02*
X134735001Y-104264999D01*
X134735001Y-104264999D02*
X134270000Y-104264999D01*
%TD*%
M02*
