%TF.GenerationSoftware,KiCad,Pcbnew,9.0.0*%
%TF.CreationDate,2026-02-16T12:17:51+11:00*%
%TF.ProjectId,Battery_PCB,42617474-6572-4795-9f50-43422e6b6963,rev?*%
%TF.SameCoordinates,Original*%
%TF.FileFunction,Copper,L2,Bot*%
%TF.FilePolarity,Positive*%
%FSLAX46Y46*%
G04 Gerber Fmt 4.6, Leading zero omitted, Abs format (unit mm)*
G04 Created by KiCad (PCBNEW 9.0.0) date 2026-02-16 12:17:51*
%MOMM*%
%LPD*%
G01*
G04 APERTURE LIST*
G04 Aperture macros list*
%AMRoundRect*
0 Rectangle with rounded corners*
0 $1 Rounding radius*
0 $2 $3 $4 $5 $6 $7 $8 $9 X,Y pos of 4 corners*
0 Add a 4 corners polygon primitive as box body*
4,1,4,$2,$3,$4,$5,$6,$7,$8,$9,$2,$3,0*
0 Add four circle primitives for the rounded corners*
1,1,$1+$1,$2,$3*
1,1,$1+$1,$4,$5*
1,1,$1+$1,$6,$7*
1,1,$1+$1,$8,$9*
0 Add four rect primitives between the rounded corners*
20,1,$1+$1,$2,$3,$4,$5,0*
20,1,$1+$1,$4,$5,$6,$7,0*
20,1,$1+$1,$6,$7,$8,$9,0*
20,1,$1+$1,$8,$9,$2,$3,0*%
G04 Aperture macros list end*
%TA.AperFunction,ComponentPad*%
%ADD10R,2.000000X1.200000*%
%TD*%
%TA.AperFunction,ComponentPad*%
%ADD11O,2.000000X1.200000*%
%TD*%
%TA.AperFunction,ComponentPad*%
%ADD12C,2.600000*%
%TD*%
%TA.AperFunction,ComponentPad*%
%ADD13RoundRect,0.250000X-1.050000X-1.050000X1.050000X-1.050000X1.050000X1.050000X-1.050000X1.050000X0*%
%TD*%
%TA.AperFunction,ComponentPad*%
%ADD14C,1.498600*%
%TD*%
%TA.AperFunction,ComponentPad*%
%ADD15RoundRect,0.250000X-0.350000X-0.625000X0.350000X-0.625000X0.350000X0.625000X-0.350000X0.625000X0*%
%TD*%
%TA.AperFunction,ComponentPad*%
%ADD16O,1.200000X1.750000*%
%TD*%
%TA.AperFunction,ViaPad*%
%ADD17C,0.800000*%
%TD*%
G04 APERTURE END LIST*
D10*
%TO.P,U1,1*%
%TO.N,3V3*%
X168140000Y-55660000D03*
D11*
%TO.P,U1,2*%
X168140000Y-58200000D03*
%TO.P,U1,3*%
%TO.N,N/C*%
X168140000Y-60740000D03*
%TO.P,U1,4*%
%TO.N,Net-(U1-GPIO4)*%
X168140000Y-63280000D03*
%TO.P,U1,5*%
%TO.N,Net-(U1-GPIO5)*%
X168140000Y-65820000D03*
%TO.P,U1,6*%
%TO.N,N/C*%
X168140000Y-68360000D03*
%TO.P,U1,7*%
X168140000Y-70900000D03*
%TO.P,U1,8*%
X168140000Y-73440000D03*
%TO.P,U1,9*%
%TO.N,Net-(J1-Pin_2)*%
X168140000Y-75980000D03*
%TO.P,U1,10*%
%TO.N,Net-(J1-Pin_3)*%
X168140000Y-78520000D03*
%TO.P,U1,11*%
%TO.N,N/C*%
X168140000Y-81060000D03*
%TO.P,U1,12*%
X168140000Y-83600000D03*
%TO.P,U1,13*%
X168140000Y-86140000D03*
%TO.P,U1,14*%
X168140000Y-88680000D03*
%TO.P,U1,15*%
X168140000Y-91220000D03*
%TO.P,U1,16*%
X168140000Y-93760000D03*
%TO.P,U1,17*%
X168140000Y-96300000D03*
%TO.P,U1,18*%
X168140000Y-98840000D03*
%TO.P,U1,19*%
X168140000Y-101380000D03*
%TO.P,U1,20*%
X168136320Y-103917280D03*
%TO.P,U1,21*%
%TO.N,+5V*%
X168136320Y-106457280D03*
%TO.P,U1,22*%
%TO.N,GND*%
X168136320Y-108997280D03*
%TO.P,U1,23*%
X191000000Y-109000000D03*
%TO.P,U1,24*%
X191000000Y-106460000D03*
%TO.P,U1,25*%
%TO.N,N/C*%
X191000000Y-103920000D03*
%TO.P,U1,26*%
X191000000Y-101380000D03*
%TO.P,U1,27*%
X191000000Y-98840000D03*
%TO.P,U1,28*%
X191000000Y-96300000D03*
%TO.P,U1,29*%
X191000000Y-93760000D03*
%TO.P,U1,30*%
X191000000Y-91220000D03*
%TO.P,U1,31*%
X191000000Y-88680000D03*
%TO.P,U1,32*%
X191000000Y-86140000D03*
%TO.P,U1,33*%
X191000000Y-83600000D03*
%TO.P,U1,34*%
X191000000Y-81060000D03*
%TO.P,U1,35*%
X191000000Y-78520000D03*
%TO.P,U1,36*%
X191000000Y-75980000D03*
%TO.P,U1,37*%
X191000000Y-73440000D03*
%TO.P,U1,38*%
X191000000Y-70900000D03*
%TO.P,U1,39*%
X191000000Y-68360000D03*
%TO.P,U1,40*%
X191000000Y-65820000D03*
%TO.P,U1,41*%
X191000000Y-63280000D03*
%TO.P,U1,42*%
X191000000Y-60740000D03*
%TO.P,U1,43*%
X191000000Y-58200000D03*
%TO.P,U1,44*%
%TO.N,GND*%
X191000000Y-55660000D03*
%TD*%
D12*
%TO.P,J5,2,Pin_2*%
%TO.N,GND*%
X160000000Y-122000000D03*
D13*
%TO.P,J5,1,Pin_1*%
%TO.N,+5V*%
X154920000Y-122000000D03*
%TD*%
D14*
%TO.P,J2,1,1*%
%TO.N,unconnected-(J2-Pad1)*%
X134270000Y-70044999D03*
%TO.P,J2,2,2*%
%TO.N,Net-(U2-CANL)*%
X134270000Y-67274999D03*
%TO.P,J2,3,3*%
%TO.N,unconnected-(J2-Pad3)*%
X134270000Y-64505000D03*
%TO.P,J2,4,4*%
%TO.N,unconnected-(J2-Pad4)*%
X134270000Y-61735000D03*
%TO.P,J2,5,5*%
%TO.N,unconnected-(J2-Pad5)*%
X134270000Y-58965001D03*
%TO.P,J2,6,6*%
%TO.N,unconnected-(J2-Pad6)*%
X131730000Y-68660001D03*
%TO.P,J2,7,7*%
%TO.N,Net-(U2-CANH)*%
X131730000Y-65890001D03*
%TO.P,J2,8,8*%
%TO.N,unconnected-(J2-Pad8)*%
X131730000Y-63120001D03*
%TO.P,J2,9,9*%
%TO.N,unconnected-(J2-Pad9)*%
X131730000Y-60350002D03*
%TD*%
D15*
%TO.P,J1,1,Pin_1*%
%TO.N,unconnected-(J1-Pin_1-Pad1)*%
X155000000Y-41000000D03*
D16*
%TO.P,J1,2,Pin_2*%
%TO.N,Net-(J1-Pin_2)*%
X157000000Y-41000000D03*
%TO.P,J1,3,Pin_3*%
%TO.N,Net-(J1-Pin_3)*%
X159000000Y-41000000D03*
%TO.P,J1,4,Pin_4*%
%TO.N,GND*%
X161000000Y-41000000D03*
%TD*%
D14*
%TO.P,J3,1,1*%
%TO.N,unconnected-(J3-Pad1)*%
X134270000Y-107034999D03*
%TO.P,J3,2,2*%
%TO.N,Net-(U2-CANL)*%
X134270000Y-104264999D03*
%TO.P,J3,3,3*%
%TO.N,unconnected-(J3-Pad3)*%
X134270000Y-101495000D03*
%TO.P,J3,4,4*%
%TO.N,unconnected-(J3-Pad4)*%
X134270000Y-98725000D03*
%TO.P,J3,5,5*%
%TO.N,unconnected-(J3-Pad5)*%
X134270000Y-95955001D03*
%TO.P,J3,6,6*%
%TO.N,unconnected-(J3-Pad6)*%
X131730000Y-105650001D03*
%TO.P,J3,7,7*%
%TO.N,Net-(U2-CANH)*%
X131730000Y-102880001D03*
%TO.P,J3,8,8*%
%TO.N,unconnected-(J3-Pad8)*%
X131730000Y-100110001D03*
%TO.P,J3,9,9*%
%TO.N,unconnected-(J3-Pad9)*%
X131730000Y-97340002D03*
%TD*%
D17*
%TO.N,GND*%
X156925000Y-113000000D03*
X145200000Y-65000000D03*
X157175000Y-108875000D03*
X154000000Y-60800000D03*
X160500000Y-58900000D03*
X164200000Y-58700000D03*
%TD*%
%TA.AperFunction,Conductor*%
%TO.N,GND*%
G36*
X195915396Y-38004008D02*
G01*
X196260479Y-38087646D01*
X196265888Y-38089088D01*
X196346624Y-38112586D01*
X196350678Y-38113844D01*
X196659555Y-38215714D01*
X196665417Y-38217814D01*
X196738339Y-38246019D01*
X196741805Y-38247421D01*
X197047626Y-38376491D01*
X197053842Y-38379319D01*
X197114134Y-38408809D01*
X197116809Y-38410159D01*
X197421773Y-38568986D01*
X197428326Y-38572655D01*
X197469109Y-38597142D01*
X197471115Y-38598375D01*
X197779308Y-38792000D01*
X197786021Y-38796533D01*
X197793071Y-38801636D01*
X197795835Y-38803637D01*
X197797334Y-38804739D01*
X198111314Y-39039355D01*
X198119070Y-39045655D01*
X198309093Y-39213166D01*
X198420463Y-39311342D01*
X198427702Y-39318263D01*
X198706657Y-39607391D01*
X198713314Y-39614873D01*
X198968027Y-39925573D01*
X198974059Y-39933568D01*
X199025678Y-40008070D01*
X199202689Y-40263551D01*
X199202879Y-40263824D01*
X199208245Y-40272280D01*
X199409655Y-40619907D01*
X199414322Y-40628768D01*
X199582799Y-40982645D01*
X199583593Y-40984346D01*
X199588624Y-40995339D01*
X199591766Y-41002847D01*
X199721154Y-41342930D01*
X199722022Y-41345283D01*
X199738005Y-41389993D01*
X199740318Y-41397137D01*
X199836244Y-41727291D01*
X199837079Y-41730308D01*
X199854140Y-41795089D01*
X199855709Y-41801795D01*
X199922298Y-42126998D01*
X199922995Y-42130688D01*
X199936342Y-42207666D01*
X199937256Y-42213860D01*
X199976566Y-42536661D01*
X199977018Y-42541019D01*
X199984216Y-42624662D01*
X199984572Y-42630286D01*
X199999399Y-42997138D01*
X199999500Y-43002146D01*
X199999500Y-125164011D01*
X199998815Y-125177030D01*
X199963902Y-125507729D01*
X199963028Y-125514313D01*
X199950734Y-125591102D01*
X199949828Y-125596102D01*
X199890999Y-125886706D01*
X199889308Y-125893936D01*
X199870901Y-125963235D01*
X199869726Y-125967370D01*
X199781691Y-126257822D01*
X199779053Y-126265590D01*
X199757935Y-126321615D01*
X199756647Y-126324890D01*
X199636840Y-126617309D01*
X199633134Y-126625495D01*
X199616032Y-126659898D01*
X199614787Y-126662336D01*
X199457932Y-126961138D01*
X199452000Y-126971246D01*
X199251541Y-127278580D01*
X199244681Y-127288084D01*
X199016090Y-127575129D01*
X199008363Y-127583942D01*
X198753701Y-127848114D01*
X198745177Y-127856158D01*
X198466714Y-128095102D01*
X198457469Y-128102305D01*
X198157672Y-128313905D01*
X198147787Y-128320204D01*
X197829372Y-128502539D01*
X197818938Y-128507876D01*
X197511557Y-128647178D01*
X197509052Y-128648280D01*
X197473726Y-128663359D01*
X197465338Y-128666585D01*
X197166453Y-128769275D01*
X197163112Y-128770370D01*
X197105974Y-128788207D01*
X197098064Y-128790392D01*
X196803035Y-128861464D01*
X196798837Y-128862399D01*
X196728552Y-128876772D01*
X196721237Y-128878041D01*
X196427732Y-128919950D01*
X196422690Y-128920565D01*
X196345294Y-128928398D01*
X196338669Y-128928889D01*
X196012137Y-128944339D01*
X196006265Y-128944478D01*
X125002865Y-128938233D01*
X124997149Y-128938101D01*
X124674573Y-128923186D01*
X124668146Y-128922721D01*
X124594852Y-128915502D01*
X124589875Y-128914910D01*
X124307509Y-128875522D01*
X124300448Y-128874328D01*
X124233234Y-128860958D01*
X124229036Y-128860047D01*
X123945734Y-128793415D01*
X123938131Y-128791370D01*
X123881891Y-128774311D01*
X123878478Y-128773222D01*
X123592678Y-128677431D01*
X123584631Y-128674420D01*
X123546120Y-128658468D01*
X123543487Y-128657341D01*
X123251653Y-128528484D01*
X123243289Y-128524410D01*
X123233863Y-128519372D01*
X123231974Y-128518341D01*
X122931799Y-128351144D01*
X122922061Y-128345115D01*
X122631408Y-128146014D01*
X122622268Y-128139111D01*
X122351240Y-127914051D01*
X122342776Y-127906335D01*
X122093664Y-127657223D01*
X122085948Y-127648759D01*
X121860886Y-127377728D01*
X121853985Y-127368591D01*
X121654884Y-127077938D01*
X121648855Y-127068200D01*
X121481657Y-126768024D01*
X121480657Y-126766192D01*
X121475584Y-126756701D01*
X121471514Y-126748345D01*
X121342657Y-126456511D01*
X121341530Y-126453878D01*
X121325578Y-126415367D01*
X121322572Y-126407334D01*
X121226746Y-126121426D01*
X121225705Y-126118165D01*
X121208628Y-126061867D01*
X121206583Y-126054264D01*
X121174595Y-125918261D01*
X121139948Y-125770952D01*
X121139040Y-125766764D01*
X121125665Y-125699524D01*
X121124478Y-125692506D01*
X121085086Y-125410113D01*
X121084496Y-125405146D01*
X121077275Y-125331835D01*
X121076812Y-125325425D01*
X121076720Y-125323436D01*
X121061899Y-125002855D01*
X121061767Y-124997128D01*
X121061767Y-124948561D01*
X121061727Y-124948197D01*
X121060160Y-122851146D01*
X128349500Y-122851146D01*
X128349500Y-123148853D01*
X128382830Y-123444662D01*
X128382831Y-123444671D01*
X128382832Y-123444675D01*
X128399393Y-123517233D01*
X128449076Y-123734912D01*
X128449079Y-123734920D01*
X128547400Y-124015904D01*
X128676563Y-124284114D01*
X128676565Y-124284117D01*
X128834950Y-124536185D01*
X129020562Y-124768934D01*
X129231066Y-124979438D01*
X129463815Y-125165050D01*
X129715883Y-125323435D01*
X129984099Y-125452601D01*
X130195135Y-125526445D01*
X130265079Y-125550920D01*
X130265087Y-125550923D01*
X130265090Y-125550923D01*
X130265091Y-125550924D01*
X130555325Y-125617168D01*
X130851147Y-125650499D01*
X130851148Y-125650500D01*
X130851151Y-125650500D01*
X131148852Y-125650500D01*
X131148852Y-125650499D01*
X131444675Y-125617168D01*
X131734909Y-125550924D01*
X132015901Y-125452601D01*
X132284117Y-125323435D01*
X132536185Y-125165050D01*
X132768934Y-124979438D01*
X132979438Y-124768934D01*
X133165050Y-124536185D01*
X133323435Y-124284117D01*
X133452601Y-124015901D01*
X133550924Y-123734909D01*
X133617168Y-123444675D01*
X133650500Y-123148849D01*
X133650500Y-122851151D01*
X133617168Y-122555325D01*
X133550924Y-122265091D01*
X133452601Y-121984099D01*
X133323435Y-121715883D01*
X133165050Y-121463815D01*
X132979438Y-121231066D01*
X132768934Y-121020562D01*
X132740425Y-120997827D01*
X132735352Y-120993781D01*
X132617752Y-120899998D01*
X132617733Y-120899983D01*
X153119500Y-120899983D01*
X153119500Y-123100001D01*
X153119501Y-123100018D01*
X153130000Y-123202796D01*
X153130001Y-123202799D01*
X153178885Y-123350319D01*
X153185186Y-123369334D01*
X153277288Y-123518656D01*
X153401344Y-123642712D01*
X153550666Y-123734814D01*
X153717203Y-123789999D01*
X153819991Y-123800500D01*
X156020008Y-123800499D01*
X156122797Y-123789999D01*
X156289334Y-123734814D01*
X156438656Y-123642712D01*
X156562712Y-123518656D01*
X156654814Y-123369334D01*
X156709999Y-123202797D01*
X156720500Y-123100009D01*
X156720499Y-121882014D01*
X158200000Y-121882014D01*
X158200000Y-122117985D01*
X158230799Y-122351914D01*
X158291870Y-122579837D01*
X158382160Y-122797819D01*
X158382165Y-122797828D01*
X158500144Y-123002171D01*
X158500145Y-123002172D01*
X158562721Y-123083723D01*
X159398958Y-122247487D01*
X159423978Y-122307890D01*
X159495112Y-122414351D01*
X159585649Y-122504888D01*
X159692110Y-122576022D01*
X159752511Y-122601041D01*
X158916275Y-123437277D01*
X158997827Y-123499854D01*
X158997828Y-123499855D01*
X159202171Y-123617834D01*
X159202180Y-123617839D01*
X159420163Y-123708129D01*
X159420161Y-123708129D01*
X159648085Y-123769200D01*
X159882014Y-123799999D01*
X159882029Y-123800000D01*
X160117971Y-123800000D01*
X160117985Y-123799999D01*
X160351914Y-123769200D01*
X160579837Y-123708129D01*
X160797819Y-123617839D01*
X160797828Y-123617834D01*
X161002181Y-123499850D01*
X161083723Y-123437279D01*
X161083723Y-123437276D01*
X160247487Y-122601041D01*
X160307890Y-122576022D01*
X160414351Y-122504888D01*
X160504888Y-122414351D01*
X160576022Y-122307890D01*
X160601041Y-122247488D01*
X161437276Y-123083723D01*
X161437279Y-123083723D01*
X161499850Y-123002181D01*
X161587051Y-122851146D01*
X189349500Y-122851146D01*
X189349500Y-123148853D01*
X189382830Y-123444662D01*
X189382831Y-123444671D01*
X189382832Y-123444675D01*
X189399393Y-123517233D01*
X189449076Y-123734912D01*
X189449079Y-123734920D01*
X189547400Y-124015904D01*
X189676563Y-124284114D01*
X189676565Y-124284117D01*
X189834950Y-124536185D01*
X190020562Y-124768934D01*
X190231066Y-124979438D01*
X190463815Y-125165050D01*
X190715883Y-125323435D01*
X190984099Y-125452601D01*
X191195135Y-125526445D01*
X191265079Y-125550920D01*
X191265087Y-125550923D01*
X191265090Y-125550923D01*
X191265091Y-125550924D01*
X191555325Y-125617168D01*
X191851147Y-125650499D01*
X191851148Y-125650500D01*
X191851151Y-125650500D01*
X192148852Y-125650500D01*
X192148852Y-125650499D01*
X192444675Y-125617168D01*
X192734909Y-125550924D01*
X193015901Y-125452601D01*
X193284117Y-125323435D01*
X193536185Y-125165050D01*
X193768934Y-124979438D01*
X193979438Y-124768934D01*
X194165050Y-124536185D01*
X194323435Y-124284117D01*
X194452601Y-124015901D01*
X194550924Y-123734909D01*
X194617168Y-123444675D01*
X194650500Y-123148849D01*
X194650500Y-122851151D01*
X194617168Y-122555325D01*
X194550924Y-122265091D01*
X194452601Y-121984099D01*
X194323435Y-121715883D01*
X194165050Y-121463815D01*
X193979438Y-121231066D01*
X193768934Y-121020562D01*
X193536185Y-120834950D01*
X193284117Y-120676565D01*
X193284114Y-120676563D01*
X193015904Y-120547400D01*
X192734920Y-120449079D01*
X192734912Y-120449076D01*
X192517233Y-120399393D01*
X192444675Y-120382832D01*
X192444671Y-120382831D01*
X192444662Y-120382830D01*
X192148853Y-120349500D01*
X192148849Y-120349500D01*
X191851151Y-120349500D01*
X191851146Y-120349500D01*
X191555337Y-120382830D01*
X191555325Y-120382832D01*
X191265087Y-120449076D01*
X191265079Y-120449079D01*
X190984095Y-120547400D01*
X190715885Y-120676563D01*
X190463816Y-120834949D01*
X190231066Y-121020561D01*
X190020561Y-121231066D01*
X189834949Y-121463816D01*
X189676563Y-121715885D01*
X189547400Y-121984095D01*
X189449079Y-122265079D01*
X189449076Y-122265087D01*
X189382832Y-122555325D01*
X189382830Y-122555337D01*
X189349500Y-122851146D01*
X161587051Y-122851146D01*
X161617834Y-122797828D01*
X161617839Y-122797817D01*
X161708129Y-122579837D01*
X161769200Y-122351914D01*
X161799999Y-122117985D01*
X161800000Y-122117971D01*
X161800000Y-121882028D01*
X161799999Y-121882014D01*
X161769200Y-121648085D01*
X161708129Y-121420162D01*
X161617839Y-121202180D01*
X161617834Y-121202171D01*
X161499855Y-120997828D01*
X161499854Y-120997827D01*
X161437277Y-120916275D01*
X160601041Y-121752511D01*
X160576022Y-121692110D01*
X160504888Y-121585649D01*
X160414351Y-121495112D01*
X160307890Y-121423978D01*
X160247488Y-121398958D01*
X161083723Y-120562721D01*
X161002172Y-120500145D01*
X161002171Y-120500144D01*
X160797828Y-120382165D01*
X160797819Y-120382160D01*
X160579836Y-120291870D01*
X160579838Y-120291870D01*
X160351914Y-120230799D01*
X160117985Y-120200000D01*
X159882014Y-120200000D01*
X159648085Y-120230799D01*
X159420162Y-120291870D01*
X159202180Y-120382160D01*
X159202171Y-120382165D01*
X158997828Y-120500144D01*
X158997818Y-120500150D01*
X158916275Y-120562720D01*
X158916275Y-120562721D01*
X159752512Y-121398958D01*
X159692110Y-121423978D01*
X159585649Y-121495112D01*
X159495112Y-121585649D01*
X159423978Y-121692110D01*
X159398958Y-121752511D01*
X158562721Y-120916275D01*
X158562720Y-120916275D01*
X158500150Y-120997818D01*
X158500144Y-120997828D01*
X158382165Y-121202171D01*
X158382160Y-121202180D01*
X158291870Y-121420162D01*
X158230799Y-121648085D01*
X158200000Y-121882014D01*
X156720499Y-121882014D01*
X156720499Y-120899992D01*
X156709999Y-120797203D01*
X156654814Y-120630666D01*
X156562712Y-120481344D01*
X156438656Y-120357288D01*
X156289334Y-120265186D01*
X156122797Y-120210001D01*
X156122795Y-120210000D01*
X156020010Y-120199500D01*
X153819998Y-120199500D01*
X153819981Y-120199501D01*
X153717203Y-120210000D01*
X153717200Y-120210001D01*
X153550668Y-120265185D01*
X153550663Y-120265187D01*
X153401342Y-120357289D01*
X153277289Y-120481342D01*
X153185187Y-120630663D01*
X153185185Y-120630668D01*
X153157349Y-120714670D01*
X153130001Y-120797203D01*
X153130001Y-120797204D01*
X153130000Y-120797204D01*
X153119500Y-120899983D01*
X132617733Y-120899983D01*
X132536185Y-120834950D01*
X132284117Y-120676565D01*
X132284114Y-120676563D01*
X132015904Y-120547400D01*
X131734920Y-120449079D01*
X131734912Y-120449076D01*
X131517233Y-120399393D01*
X131444675Y-120382832D01*
X131444671Y-120382831D01*
X131444662Y-120382830D01*
X131148853Y-120349500D01*
X131148849Y-120349500D01*
X130851151Y-120349500D01*
X130851146Y-120349500D01*
X130555337Y-120382830D01*
X130555325Y-120382832D01*
X130265087Y-120449076D01*
X130265079Y-120449079D01*
X129984095Y-120547400D01*
X129715885Y-120676563D01*
X129463816Y-120834949D01*
X129231066Y-121020561D01*
X129020561Y-121231066D01*
X128834949Y-121463816D01*
X128676563Y-121715885D01*
X128547400Y-121984095D01*
X128449079Y-122265079D01*
X128449076Y-122265087D01*
X128382832Y-122555325D01*
X128382830Y-122555337D01*
X128349500Y-122851146D01*
X121060160Y-122851146D01*
X121053443Y-113860018D01*
X131348500Y-113860018D01*
X131348500Y-114119981D01*
X131389164Y-114376727D01*
X131469496Y-114623960D01*
X131587510Y-114855575D01*
X131740306Y-115065880D01*
X131924120Y-115249694D01*
X132134425Y-115402490D01*
X132243857Y-115458248D01*
X132366039Y-115520503D01*
X132366041Y-115520503D01*
X132366044Y-115520505D01*
X132498564Y-115563563D01*
X132613272Y-115600835D01*
X132870019Y-115641500D01*
X132870024Y-115641500D01*
X133129981Y-115641500D01*
X133386727Y-115600835D01*
X133633956Y-115520505D01*
X133865575Y-115402490D01*
X134075880Y-115249694D01*
X134259694Y-115065880D01*
X134412490Y-114855575D01*
X134530505Y-114623956D01*
X134610835Y-114376727D01*
X134651500Y-114119981D01*
X134651500Y-113860018D01*
X134610835Y-113603272D01*
X134530503Y-113356039D01*
X134412489Y-113124424D01*
X134259694Y-112914120D01*
X134075880Y-112730306D01*
X133865575Y-112577510D01*
X133633960Y-112459496D01*
X133386727Y-112379164D01*
X133129981Y-112338500D01*
X133129976Y-112338500D01*
X132870024Y-112338500D01*
X132870019Y-112338500D01*
X132613272Y-112379164D01*
X132366039Y-112459496D01*
X132134424Y-112577510D01*
X132014438Y-112664685D01*
X131924120Y-112730306D01*
X131924118Y-112730308D01*
X131924117Y-112730308D01*
X131740308Y-112914117D01*
X131740308Y-112914118D01*
X131740306Y-112914120D01*
X131674685Y-113004438D01*
X131587510Y-113124424D01*
X131469496Y-113356039D01*
X131389164Y-113603272D01*
X131348500Y-113860018D01*
X121053443Y-113860018D01*
X121049628Y-108754394D01*
X121049623Y-108747279D01*
X166662204Y-108747279D01*
X166662205Y-108747280D01*
X167820634Y-108747280D01*
X167816240Y-108751674D01*
X167763579Y-108842886D01*
X167736320Y-108944619D01*
X167736320Y-109049941D01*
X167763579Y-109151674D01*
X167816240Y-109242886D01*
X167820634Y-109247280D01*
X166662205Y-109247280D01*
X166663405Y-109254864D01*
X166716911Y-109419535D01*
X166795515Y-109573804D01*
X166897287Y-109713882D01*
X167019717Y-109836312D01*
X167159795Y-109938084D01*
X167314062Y-110016688D01*
X167478735Y-110070194D01*
X167649749Y-110097280D01*
X167886320Y-110097280D01*
X167886320Y-109312966D01*
X167890714Y-109317360D01*
X167981926Y-109370021D01*
X168083659Y-109397280D01*
X168188981Y-109397280D01*
X168290714Y-109370021D01*
X168381926Y-109317360D01*
X168386320Y-109312966D01*
X168386320Y-110097280D01*
X168622891Y-110097280D01*
X168793904Y-110070194D01*
X168958577Y-110016688D01*
X169112844Y-109938084D01*
X169252922Y-109836312D01*
X169375352Y-109713882D01*
X169477124Y-109573804D01*
X169555728Y-109419535D01*
X169609234Y-109254864D01*
X169609234Y-109254863D01*
X169610435Y-109247280D01*
X168452006Y-109247280D01*
X168456400Y-109242886D01*
X168509061Y-109151674D01*
X168536320Y-109049941D01*
X168536320Y-108944619D01*
X168509061Y-108842886D01*
X168456400Y-108751674D01*
X168454725Y-108749999D01*
X189525884Y-108749999D01*
X189525885Y-108750000D01*
X190684314Y-108750000D01*
X190679920Y-108754394D01*
X190627259Y-108845606D01*
X190600000Y-108947339D01*
X190600000Y-109052661D01*
X190627259Y-109154394D01*
X190679920Y-109245606D01*
X190684314Y-109250000D01*
X189525885Y-109250000D01*
X189527085Y-109257584D01*
X189580591Y-109422255D01*
X189659195Y-109576524D01*
X189760967Y-109716602D01*
X189883397Y-109839032D01*
X190023475Y-109940804D01*
X190177742Y-110019408D01*
X190342415Y-110072914D01*
X190513429Y-110100000D01*
X190750000Y-110100000D01*
X190750000Y-109315686D01*
X190754394Y-109320080D01*
X190845606Y-109372741D01*
X190947339Y-109400000D01*
X191052661Y-109400000D01*
X191154394Y-109372741D01*
X191245606Y-109320080D01*
X191250000Y-109315686D01*
X191250000Y-110100000D01*
X191486571Y-110100000D01*
X191657584Y-110072914D01*
X191822257Y-110019408D01*
X191976524Y-109940804D01*
X192116602Y-109839032D01*
X192239032Y-109716602D01*
X192340804Y-109576524D01*
X192419408Y-109422255D01*
X192472914Y-109257584D01*
X192474115Y-109250000D01*
X191315686Y-109250000D01*
X191320080Y-109245606D01*
X191372741Y-109154394D01*
X191400000Y-109052661D01*
X191400000Y-108947339D01*
X191372741Y-108845606D01*
X191320080Y-108754394D01*
X191315686Y-108750000D01*
X192474115Y-108750000D01*
X192474115Y-108749999D01*
X192472914Y-108742415D01*
X192419408Y-108577744D01*
X192340804Y-108423475D01*
X192239032Y-108283397D01*
X192116602Y-108160967D01*
X191976524Y-108059195D01*
X191822257Y-107980591D01*
X191657584Y-107927085D01*
X191486571Y-107900000D01*
X191250000Y-107900000D01*
X191250000Y-108684314D01*
X191245606Y-108679920D01*
X191154394Y-108627259D01*
X191052661Y-108600000D01*
X190947339Y-108600000D01*
X190845606Y-108627259D01*
X190754394Y-108679920D01*
X190750000Y-108684314D01*
X190750000Y-107900000D01*
X190513429Y-107900000D01*
X190342415Y-107927085D01*
X190177742Y-107980591D01*
X190023475Y-108059195D01*
X189883397Y-108160967D01*
X189760967Y-108283397D01*
X189659195Y-108423475D01*
X189580591Y-108577744D01*
X189527085Y-108742415D01*
X189525884Y-108749999D01*
X168454725Y-108749999D01*
X168452006Y-108747280D01*
X169610435Y-108747280D01*
X169610435Y-108747279D01*
X169609234Y-108739695D01*
X169555728Y-108575024D01*
X169477124Y-108420755D01*
X169375352Y-108280677D01*
X169252922Y-108158247D01*
X169112844Y-108056475D01*
X168958577Y-107977871D01*
X168793904Y-107924365D01*
X168622891Y-107897280D01*
X168386320Y-107897280D01*
X168386320Y-108681594D01*
X168381926Y-108677200D01*
X168290714Y-108624539D01*
X168188981Y-108597280D01*
X168083659Y-108597280D01*
X167981926Y-108624539D01*
X167890714Y-108677200D01*
X167886320Y-108681594D01*
X167886320Y-107897280D01*
X167649749Y-107897280D01*
X167478735Y-107924365D01*
X167314062Y-107977871D01*
X167159795Y-108056475D01*
X167019717Y-108158247D01*
X166897287Y-108280677D01*
X166795515Y-108420755D01*
X166716911Y-108575024D01*
X166663405Y-108739695D01*
X166662204Y-108747279D01*
X121049623Y-108747279D01*
X121048270Y-106936632D01*
X133020200Y-106936632D01*
X133020200Y-107133365D01*
X133050973Y-107327661D01*
X133111766Y-107514760D01*
X133201075Y-107690037D01*
X133316706Y-107849189D01*
X133455810Y-107988293D01*
X133614962Y-108103924D01*
X133697774Y-108146119D01*
X133790238Y-108193232D01*
X133790240Y-108193232D01*
X133790243Y-108193234D01*
X133890530Y-108225819D01*
X133977337Y-108254025D01*
X134171634Y-108284799D01*
X134171639Y-108284799D01*
X134368366Y-108284799D01*
X134562662Y-108254025D01*
X134749757Y-108193234D01*
X134925038Y-108103924D01*
X135084190Y-107988293D01*
X135223294Y-107849189D01*
X135338925Y-107690037D01*
X135428235Y-107514756D01*
X135489026Y-107327661D01*
X135493931Y-107296691D01*
X135519800Y-107133365D01*
X135519800Y-106936632D01*
X135489026Y-106742336D01*
X135428233Y-106555237D01*
X135360392Y-106422092D01*
X135360391Y-106422088D01*
X135338928Y-106379965D01*
X135332174Y-106370669D01*
X166635820Y-106370669D01*
X166635820Y-106543891D01*
X166662918Y-106714981D01*
X166716447Y-106879725D01*
X166795088Y-107034068D01*
X166896906Y-107174208D01*
X167019392Y-107296694D01*
X167159532Y-107398512D01*
X167313875Y-107477153D01*
X167478619Y-107530682D01*
X167649709Y-107557780D01*
X167649710Y-107557780D01*
X168622930Y-107557780D01*
X168622931Y-107557780D01*
X168794021Y-107530682D01*
X168958765Y-107477153D01*
X169113108Y-107398512D01*
X169253248Y-107296694D01*
X169375734Y-107174208D01*
X169477552Y-107034068D01*
X169556193Y-106879725D01*
X169609722Y-106714981D01*
X169636820Y-106543891D01*
X169636820Y-106370669D01*
X169611372Y-106209999D01*
X189525884Y-106209999D01*
X189525885Y-106210000D01*
X190684314Y-106210000D01*
X190679920Y-106214394D01*
X190627259Y-106305606D01*
X190600000Y-106407339D01*
X190600000Y-106512661D01*
X190627259Y-106614394D01*
X190679920Y-106705606D01*
X190684314Y-106710000D01*
X189525885Y-106710000D01*
X189527085Y-106717584D01*
X189580591Y-106882255D01*
X189659195Y-107036524D01*
X189760967Y-107176602D01*
X189883397Y-107299032D01*
X190023475Y-107400804D01*
X190177742Y-107479408D01*
X190342415Y-107532914D01*
X190513429Y-107560000D01*
X190750000Y-107560000D01*
X190750000Y-106775686D01*
X190754394Y-106780080D01*
X190845606Y-106832741D01*
X190947339Y-106860000D01*
X191052661Y-106860000D01*
X191154394Y-106832741D01*
X191245606Y-106780080D01*
X191250000Y-106775686D01*
X191250000Y-107560000D01*
X191486571Y-107560000D01*
X191657584Y-107532914D01*
X191822257Y-107479408D01*
X191976524Y-107400804D01*
X192116602Y-107299032D01*
X192239032Y-107176602D01*
X192340804Y-107036524D01*
X192419408Y-106882255D01*
X192472914Y-106717584D01*
X192474115Y-106710000D01*
X191315686Y-106710000D01*
X191320080Y-106705606D01*
X191372741Y-106614394D01*
X191400000Y-106512661D01*
X191400000Y-106407339D01*
X191372741Y-106305606D01*
X191320080Y-106214394D01*
X191315686Y-106210000D01*
X192474115Y-106210000D01*
X192474115Y-106209999D01*
X192472914Y-106202415D01*
X192419408Y-106037744D01*
X192340804Y-105883475D01*
X192239032Y-105743397D01*
X192116602Y-105620967D01*
X191976524Y-105519195D01*
X191822257Y-105440591D01*
X191657584Y-105387085D01*
X191486571Y-105360000D01*
X191250000Y-105360000D01*
X191250000Y-106144314D01*
X191245606Y-106139920D01*
X191154394Y-106087259D01*
X191052661Y-106060000D01*
X190947339Y-106060000D01*
X190845606Y-106087259D01*
X190754394Y-106139920D01*
X190750000Y-106144314D01*
X190750000Y-105360000D01*
X190513429Y-105360000D01*
X190342415Y-105387085D01*
X190177742Y-105440591D01*
X190023475Y-105519195D01*
X189883397Y-105620967D01*
X189760967Y-105743397D01*
X189659195Y-105883475D01*
X189580591Y-106037744D01*
X189527085Y-106202415D01*
X189525884Y-106209999D01*
X169611372Y-106209999D01*
X169609722Y-106199579D01*
X169556193Y-106034835D01*
X169477552Y-105880492D01*
X169375734Y-105740352D01*
X169253248Y-105617866D01*
X169113108Y-105516048D01*
X168958765Y-105437407D01*
X168794021Y-105383878D01*
X168794019Y-105383877D01*
X168794018Y-105383877D01*
X168643261Y-105360000D01*
X168622931Y-105356780D01*
X167649709Y-105356780D01*
X167629379Y-105360000D01*
X167478622Y-105383877D01*
X167313872Y-105437408D01*
X167159531Y-105516048D01*
X167110552Y-105551634D01*
X167019392Y-105617866D01*
X167019390Y-105617868D01*
X167019389Y-105617868D01*
X166896908Y-105740349D01*
X166896908Y-105740350D01*
X166896906Y-105740352D01*
X166891083Y-105748367D01*
X166795088Y-105880491D01*
X166716448Y-106034832D01*
X166662917Y-106199582D01*
X166646215Y-106305039D01*
X166635820Y-106370669D01*
X135332174Y-106370669D01*
X135223294Y-106220809D01*
X135084190Y-106081705D01*
X134925038Y-105966074D01*
X134749761Y-105876765D01*
X134562662Y-105815972D01*
X134368366Y-105785199D01*
X134368361Y-105785199D01*
X134171639Y-105785199D01*
X134171634Y-105785199D01*
X133977337Y-105815972D01*
X133790238Y-105876765D01*
X133614961Y-105966074D01*
X133524159Y-106032046D01*
X133455810Y-106081705D01*
X133455808Y-106081707D01*
X133455807Y-106081707D01*
X133316708Y-106220806D01*
X133316708Y-106220807D01*
X133316706Y-106220809D01*
X133267047Y-106289158D01*
X133201075Y-106379960D01*
X133111766Y-106555237D01*
X133050973Y-106742336D01*
X133020200Y-106936632D01*
X121048270Y-106936632D01*
X121047236Y-105551634D01*
X130480200Y-105551634D01*
X130480200Y-105748367D01*
X130510973Y-105942663D01*
X130571766Y-106129762D01*
X130661075Y-106305039D01*
X130776706Y-106464191D01*
X130915810Y-106603295D01*
X131074962Y-106718926D01*
X131120907Y-106742336D01*
X131250238Y-106808234D01*
X131250240Y-106808234D01*
X131250243Y-106808236D01*
X131350530Y-106840821D01*
X131437337Y-106869027D01*
X131631634Y-106899801D01*
X131631639Y-106899801D01*
X131828366Y-106899801D01*
X132022662Y-106869027D01*
X132050444Y-106860000D01*
X132209757Y-106808236D01*
X132385038Y-106718926D01*
X132544190Y-106603295D01*
X132683294Y-106464191D01*
X132798925Y-106305039D01*
X132888235Y-106129758D01*
X132949026Y-105942663D01*
X132979800Y-105748367D01*
X132979800Y-105551634D01*
X132949026Y-105357338D01*
X132888233Y-105170239D01*
X132841120Y-105077775D01*
X132798925Y-104994963D01*
X132683294Y-104835811D01*
X132544190Y-104696707D01*
X132385038Y-104581076D01*
X132209761Y-104491767D01*
X132022662Y-104430974D01*
X131828366Y-104400201D01*
X131828361Y-104400201D01*
X131631639Y-104400201D01*
X131631634Y-104400201D01*
X131437337Y-104430974D01*
X131250238Y-104491767D01*
X131074961Y-104581076D01*
X130998087Y-104636929D01*
X130915810Y-104696707D01*
X130915808Y-104696709D01*
X130915807Y-104696709D01*
X130776708Y-104835808D01*
X130776708Y-104835809D01*
X130776706Y-104835811D01*
X130758237Y-104861232D01*
X130661075Y-104994962D01*
X130571766Y-105170239D01*
X130510973Y-105357338D01*
X130480200Y-105551634D01*
X121047236Y-105551634D01*
X121047232Y-105546861D01*
X121046201Y-104166632D01*
X133020200Y-104166632D01*
X133020200Y-104363365D01*
X133050973Y-104557661D01*
X133111766Y-104744760D01*
X133169726Y-104858511D01*
X133201075Y-104920037D01*
X133316706Y-105079189D01*
X133455810Y-105218293D01*
X133614962Y-105333924D01*
X133660915Y-105357338D01*
X133790238Y-105423232D01*
X133790240Y-105423232D01*
X133790243Y-105423234D01*
X133890530Y-105455819D01*
X133977337Y-105484025D01*
X134171634Y-105514799D01*
X134171639Y-105514799D01*
X134368366Y-105514799D01*
X134562662Y-105484025D01*
X134749757Y-105423234D01*
X134925038Y-105333924D01*
X135084190Y-105218293D01*
X135223294Y-105079189D01*
X135338925Y-104920037D01*
X135428235Y-104744756D01*
X135489026Y-104557661D01*
X135519800Y-104363365D01*
X135519800Y-104166632D01*
X135494454Y-104006610D01*
X135489026Y-103972337D01*
X135489025Y-103972333D01*
X135489025Y-103972332D01*
X135453863Y-103864115D01*
X135442995Y-103830669D01*
X166635820Y-103830669D01*
X166635820Y-104003890D01*
X166661596Y-104166638D01*
X166662918Y-104174981D01*
X166716447Y-104339725D01*
X166795088Y-104494068D01*
X166896906Y-104634208D01*
X167019392Y-104756694D01*
X167159532Y-104858512D01*
X167313875Y-104937153D01*
X167478619Y-104990682D01*
X167649709Y-105017780D01*
X167649710Y-105017780D01*
X168622930Y-105017780D01*
X168622931Y-105017780D01*
X168794021Y-104990682D01*
X168958765Y-104937153D01*
X169113108Y-104858512D01*
X169253248Y-104756694D01*
X169375734Y-104634208D01*
X169477552Y-104494068D01*
X169556193Y-104339725D01*
X169609722Y-104174981D01*
X169636820Y-104003891D01*
X169636820Y-103833389D01*
X189499500Y-103833389D01*
X189499500Y-104006610D01*
X189526166Y-104174977D01*
X189526598Y-104177701D01*
X189580127Y-104342445D01*
X189658768Y-104496788D01*
X189760586Y-104636928D01*
X189883072Y-104759414D01*
X190023212Y-104861232D01*
X190177555Y-104939873D01*
X190342299Y-104993402D01*
X190513389Y-105020500D01*
X190513390Y-105020500D01*
X191486610Y-105020500D01*
X191486611Y-105020500D01*
X191657701Y-104993402D01*
X191822445Y-104939873D01*
X191976788Y-104861232D01*
X192116928Y-104759414D01*
X192239414Y-104636928D01*
X192341232Y-104496788D01*
X192419873Y-104342445D01*
X192473402Y-104177701D01*
X192500500Y-104006611D01*
X192500500Y-103833389D01*
X192473402Y-103662299D01*
X192419873Y-103497555D01*
X192341232Y-103343212D01*
X192239414Y-103203072D01*
X192116928Y-103080586D01*
X191976788Y-102978768D01*
X191822445Y-102900127D01*
X191657701Y-102846598D01*
X191657699Y-102846597D01*
X191657698Y-102846597D01*
X191526271Y-102825781D01*
X191486611Y-102819500D01*
X190513389Y-102819500D01*
X190473728Y-102825781D01*
X190342302Y-102846597D01*
X190177552Y-102900128D01*
X190023211Y-102978768D01*
X189973069Y-103015199D01*
X189883072Y-103080586D01*
X189883070Y-103080588D01*
X189883069Y-103080588D01*
X189760588Y-103203069D01*
X189760588Y-103203070D01*
X189760586Y-103203072D01*
X189716859Y-103263256D01*
X189658768Y-103343211D01*
X189580128Y-103497552D01*
X189526597Y-103662302D01*
X189499500Y-103833389D01*
X169636820Y-103833389D01*
X169636820Y-103830669D01*
X169609722Y-103659579D01*
X169556193Y-103494835D01*
X169477552Y-103340492D01*
X169375734Y-103200352D01*
X169253248Y-103077866D01*
X169113108Y-102976048D01*
X168958765Y-102897407D01*
X168794021Y-102843878D01*
X168794019Y-102843877D01*
X168794018Y-102843877D01*
X168640104Y-102819500D01*
X168622931Y-102816780D01*
X167649709Y-102816780D01*
X167632536Y-102819500D01*
X167478622Y-102843877D01*
X167313872Y-102897408D01*
X167159531Y-102976048D01*
X167105645Y-103015199D01*
X167019392Y-103077866D01*
X167019390Y-103077868D01*
X167019389Y-103077868D01*
X166896908Y-103200349D01*
X166896908Y-103200350D01*
X166896906Y-103200352D01*
X166894930Y-103203072D01*
X166795088Y-103340491D01*
X166716448Y-103494832D01*
X166662917Y-103659582D01*
X166635820Y-103830669D01*
X135442995Y-103830669D01*
X135428233Y-103785237D01*
X135365594Y-103662302D01*
X135338925Y-103609961D01*
X135223294Y-103450809D01*
X135084190Y-103311705D01*
X134925038Y-103196074D01*
X134749761Y-103106765D01*
X134562662Y-103045972D01*
X134368366Y-103015199D01*
X134368361Y-103015199D01*
X134171639Y-103015199D01*
X134171634Y-103015199D01*
X133977337Y-103045972D01*
X133790238Y-103106765D01*
X133614961Y-103196074D01*
X133524159Y-103262046D01*
X133455810Y-103311705D01*
X133455808Y-103311707D01*
X133455807Y-103311707D01*
X133316708Y-103450806D01*
X133316708Y-103450807D01*
X133316706Y-103450809D01*
X133284719Y-103494835D01*
X133201075Y-103609960D01*
X133111766Y-103785237D01*
X133050973Y-103972336D01*
X133020200Y-104166632D01*
X121046201Y-104166632D01*
X121045167Y-102781634D01*
X130480200Y-102781634D01*
X130480200Y-102978367D01*
X130510973Y-103172663D01*
X130571766Y-103359762D01*
X130640590Y-103494835D01*
X130661075Y-103535039D01*
X130776706Y-103694191D01*
X130915810Y-103833295D01*
X131074962Y-103948926D01*
X131120899Y-103972332D01*
X131250238Y-104038234D01*
X131250240Y-104038234D01*
X131250243Y-104038236D01*
X131350530Y-104070821D01*
X131437337Y-104099027D01*
X131631634Y-104129801D01*
X131631639Y-104129801D01*
X131828366Y-104129801D01*
X132022662Y-104099027D01*
X132209757Y-104038236D01*
X132385038Y-103948926D01*
X132544190Y-103833295D01*
X132683294Y-103694191D01*
X132798925Y-103535039D01*
X132888235Y-103359758D01*
X132949026Y-103172663D01*
X132959463Y-103106765D01*
X132979800Y-102978367D01*
X132979800Y-102781634D01*
X132949026Y-102587338D01*
X132888233Y-102400239D01*
X132798924Y-102224962D01*
X132794891Y-102219411D01*
X132683294Y-102065811D01*
X132544190Y-101926707D01*
X132385038Y-101811076D01*
X132368099Y-101802445D01*
X132209761Y-101721767D01*
X132022662Y-101660974D01*
X131828366Y-101630201D01*
X131828361Y-101630201D01*
X131631639Y-101630201D01*
X131631634Y-101630201D01*
X131437337Y-101660974D01*
X131250238Y-101721767D01*
X131074961Y-101811076D01*
X130984159Y-101877048D01*
X130915810Y-101926707D01*
X130915808Y-101926709D01*
X130915807Y-101926709D01*
X130776708Y-102065808D01*
X130776708Y-102065809D01*
X130776706Y-102065811D01*
X130754097Y-102096930D01*
X130661075Y-102224962D01*
X130571766Y-102400239D01*
X130510973Y-102587338D01*
X130480200Y-102781634D01*
X121045167Y-102781634D01*
X121045163Y-102776861D01*
X121044132Y-101396633D01*
X133020200Y-101396633D01*
X133020200Y-101593366D01*
X133050973Y-101787662D01*
X133111766Y-101974761D01*
X133174015Y-102096930D01*
X133201075Y-102150038D01*
X133316706Y-102309190D01*
X133455810Y-102448294D01*
X133614962Y-102563925D01*
X133660913Y-102587338D01*
X133790238Y-102653233D01*
X133790240Y-102653233D01*
X133790243Y-102653235D01*
X133890530Y-102685820D01*
X133977337Y-102714026D01*
X134171634Y-102744800D01*
X134171639Y-102744800D01*
X134368366Y-102744800D01*
X134562662Y-102714026D01*
X134749757Y-102653235D01*
X134925038Y-102563925D01*
X135084190Y-102448294D01*
X135223294Y-102309190D01*
X135338925Y-102150038D01*
X135428235Y-101974757D01*
X135489026Y-101787662D01*
X135499463Y-101721766D01*
X135519800Y-101593366D01*
X135519800Y-101396633D01*
X135505748Y-101307915D01*
X135503447Y-101293389D01*
X166639500Y-101293389D01*
X166639500Y-101466611D01*
X166666598Y-101637701D01*
X166720127Y-101802445D01*
X166798768Y-101956788D01*
X166900586Y-102096928D01*
X167023072Y-102219414D01*
X167163212Y-102321232D01*
X167317555Y-102399873D01*
X167482299Y-102453402D01*
X167653389Y-102480500D01*
X167653390Y-102480500D01*
X168626610Y-102480500D01*
X168626611Y-102480500D01*
X168797701Y-102453402D01*
X168962445Y-102399873D01*
X169116788Y-102321232D01*
X169256928Y-102219414D01*
X169379414Y-102096928D01*
X169481232Y-101956788D01*
X169559873Y-101802445D01*
X169613402Y-101637701D01*
X169640500Y-101466611D01*
X169640500Y-101293389D01*
X189499500Y-101293389D01*
X189499500Y-101466611D01*
X189526598Y-101637701D01*
X189580127Y-101802445D01*
X189658768Y-101956788D01*
X189760586Y-102096928D01*
X189883072Y-102219414D01*
X190023212Y-102321232D01*
X190177555Y-102399873D01*
X190342299Y-102453402D01*
X190513389Y-102480500D01*
X190513390Y-102480500D01*
X191486610Y-102480500D01*
X191486611Y-102480500D01*
X191657701Y-102453402D01*
X191822445Y-102399873D01*
X191976788Y-102321232D01*
X192116928Y-102219414D01*
X192239414Y-102096928D01*
X192341232Y-101956788D01*
X192419873Y-101802445D01*
X192473402Y-101637701D01*
X192500500Y-101466611D01*
X192500500Y-101293389D01*
X192473402Y-101122299D01*
X192419873Y-100957555D01*
X192341232Y-100803212D01*
X192239414Y-100663072D01*
X192116928Y-100540586D01*
X191976788Y-100438768D01*
X191822445Y-100360127D01*
X191657701Y-100306598D01*
X191657699Y-100306597D01*
X191657698Y-100306597D01*
X191526271Y-100285781D01*
X191486611Y-100279500D01*
X190513389Y-100279500D01*
X190473728Y-100285781D01*
X190342302Y-100306597D01*
X190177552Y-100360128D01*
X190023211Y-100438768D01*
X189943256Y-100496859D01*
X189883072Y-100540586D01*
X189883070Y-100540588D01*
X189883069Y-100540588D01*
X189760588Y-100663069D01*
X189760588Y-100663070D01*
X189760586Y-100663072D01*
X189747701Y-100680807D01*
X189658768Y-100803211D01*
X189580128Y-100957552D01*
X189526597Y-101122302D01*
X189517629Y-101178925D01*
X189499500Y-101293389D01*
X169640500Y-101293389D01*
X169613402Y-101122299D01*
X169559873Y-100957555D01*
X169481232Y-100803212D01*
X169379414Y-100663072D01*
X169256928Y-100540586D01*
X169116788Y-100438768D01*
X168962445Y-100360127D01*
X168797701Y-100306598D01*
X168797699Y-100306597D01*
X168797698Y-100306597D01*
X168666271Y-100285781D01*
X168626611Y-100279500D01*
X167653389Y-100279500D01*
X167613728Y-100285781D01*
X167482302Y-100306597D01*
X167317552Y-100360128D01*
X167163211Y-100438768D01*
X167083256Y-100496859D01*
X167023072Y-100540586D01*
X167023070Y-100540588D01*
X167023069Y-100540588D01*
X166900588Y-100663069D01*
X166900588Y-100663070D01*
X166900586Y-100663072D01*
X166887701Y-100680807D01*
X166798768Y-100803211D01*
X166720128Y-100957552D01*
X166666597Y-101122302D01*
X166657629Y-101178925D01*
X166639500Y-101293389D01*
X135503447Y-101293389D01*
X135489026Y-101202337D01*
X135428233Y-101015238D01*
X135338924Y-100839961D01*
X135312224Y-100803212D01*
X135223294Y-100680810D01*
X135084190Y-100541706D01*
X134925038Y-100426075D01*
X134749761Y-100336766D01*
X134562662Y-100275973D01*
X134368366Y-100245200D01*
X134368361Y-100245200D01*
X134171639Y-100245200D01*
X134171634Y-100245200D01*
X133977337Y-100275973D01*
X133790238Y-100336766D01*
X133614961Y-100426075D01*
X133524159Y-100492047D01*
X133455810Y-100541706D01*
X133455808Y-100541708D01*
X133455807Y-100541708D01*
X133316708Y-100680807D01*
X133316708Y-100680808D01*
X133316706Y-100680810D01*
X133267047Y-100749159D01*
X133201075Y-100839961D01*
X133111766Y-101015238D01*
X133050973Y-101202337D01*
X133020200Y-101396633D01*
X121044132Y-101396633D01*
X121043097Y-100011634D01*
X130480200Y-100011634D01*
X130480200Y-100208367D01*
X130510973Y-100402663D01*
X130571766Y-100589762D01*
X130618157Y-100680808D01*
X130661075Y-100765039D01*
X130776706Y-100924191D01*
X130915810Y-101063295D01*
X131074962Y-101178926D01*
X131120909Y-101202337D01*
X131250238Y-101268234D01*
X131250240Y-101268234D01*
X131250243Y-101268236D01*
X131327656Y-101293389D01*
X131437337Y-101329027D01*
X131631634Y-101359801D01*
X131631639Y-101359801D01*
X131828366Y-101359801D01*
X132022662Y-101329027D01*
X132209757Y-101268236D01*
X132385038Y-101178926D01*
X132544190Y-101063295D01*
X132683294Y-100924191D01*
X132798925Y-100765039D01*
X132888235Y-100589758D01*
X132949026Y-100402663D01*
X132964241Y-100306598D01*
X132979800Y-100208367D01*
X132979800Y-100011634D01*
X132949026Y-99817338D01*
X132888233Y-99630239D01*
X132798924Y-99454962D01*
X132771189Y-99416788D01*
X132683294Y-99295811D01*
X132544190Y-99156707D01*
X132385038Y-99041076D01*
X132209761Y-98951767D01*
X132022662Y-98890974D01*
X131828366Y-98860201D01*
X131828361Y-98860201D01*
X131631639Y-98860201D01*
X131631634Y-98860201D01*
X131437337Y-98890974D01*
X131250238Y-98951767D01*
X131074961Y-99041076D01*
X130984159Y-99107048D01*
X130915810Y-99156707D01*
X130915808Y-99156709D01*
X130915807Y-99156709D01*
X130776708Y-99295808D01*
X130776708Y-99295809D01*
X130776706Y-99295811D01*
X130727047Y-99364160D01*
X130661075Y-99454962D01*
X130571766Y-99630239D01*
X130510973Y-99817338D01*
X130480200Y-100011634D01*
X121043097Y-100011634D01*
X121043093Y-100006861D01*
X121042062Y-98626633D01*
X133020200Y-98626633D01*
X133020200Y-98823366D01*
X133050973Y-99017662D01*
X133111766Y-99204761D01*
X133158158Y-99295809D01*
X133201075Y-99380038D01*
X133316706Y-99539190D01*
X133455810Y-99678294D01*
X133614962Y-99793925D01*
X133660913Y-99817338D01*
X133790238Y-99883233D01*
X133790240Y-99883233D01*
X133790243Y-99883235D01*
X133883087Y-99913402D01*
X133977337Y-99944026D01*
X134171634Y-99974800D01*
X134171639Y-99974800D01*
X134368366Y-99974800D01*
X134562662Y-99944026D01*
X134573514Y-99940500D01*
X134749757Y-99883235D01*
X134925038Y-99793925D01*
X135084190Y-99678294D01*
X135223294Y-99539190D01*
X135338925Y-99380038D01*
X135428235Y-99204757D01*
X135489026Y-99017662D01*
X135503447Y-98926610D01*
X135519800Y-98823366D01*
X135519800Y-98753389D01*
X166639500Y-98753389D01*
X166639500Y-98926611D01*
X166666598Y-99097701D01*
X166720127Y-99262445D01*
X166798768Y-99416788D01*
X166900586Y-99556928D01*
X167023072Y-99679414D01*
X167163212Y-99781232D01*
X167317555Y-99859873D01*
X167482299Y-99913402D01*
X167653389Y-99940500D01*
X167653390Y-99940500D01*
X168626610Y-99940500D01*
X168626611Y-99940500D01*
X168797701Y-99913402D01*
X168962445Y-99859873D01*
X169116788Y-99781232D01*
X169256928Y-99679414D01*
X169379414Y-99556928D01*
X169481232Y-99416788D01*
X169559873Y-99262445D01*
X169613402Y-99097701D01*
X169640500Y-98926611D01*
X169640500Y-98753389D01*
X189499500Y-98753389D01*
X189499500Y-98926611D01*
X189526598Y-99097701D01*
X189580127Y-99262445D01*
X189658768Y-99416788D01*
X189760586Y-99556928D01*
X189883072Y-99679414D01*
X190023212Y-99781232D01*
X190177555Y-99859873D01*
X190342299Y-99913402D01*
X190513389Y-99940500D01*
X190513390Y-99940500D01*
X191486610Y-99940500D01*
X191486611Y-99940500D01*
X191657701Y-99913402D01*
X191822445Y-99859873D01*
X191976788Y-99781232D01*
X192116928Y-99679414D01*
X192239414Y-99556928D01*
X192341232Y-99416788D01*
X192419873Y-99262445D01*
X192473402Y-99097701D01*
X192500500Y-98926611D01*
X192500500Y-98753389D01*
X192473402Y-98582299D01*
X192419873Y-98417555D01*
X192341232Y-98263212D01*
X192239414Y-98123072D01*
X192116928Y-98000586D01*
X191976788Y-97898768D01*
X191822445Y-97820127D01*
X191657701Y-97766598D01*
X191657699Y-97766597D01*
X191657698Y-97766597D01*
X191526271Y-97745781D01*
X191486611Y-97739500D01*
X190513389Y-97739500D01*
X190473728Y-97745781D01*
X190342302Y-97766597D01*
X190177552Y-97820128D01*
X190023211Y-97898768D01*
X189943256Y-97956859D01*
X189883072Y-98000586D01*
X189883070Y-98000588D01*
X189883069Y-98000588D01*
X189760588Y-98123069D01*
X189760588Y-98123070D01*
X189760586Y-98123072D01*
X189716859Y-98183256D01*
X189658768Y-98263211D01*
X189580128Y-98417552D01*
X189526597Y-98582302D01*
X189519576Y-98626633D01*
X189499500Y-98753389D01*
X169640500Y-98753389D01*
X169613402Y-98582299D01*
X169559873Y-98417555D01*
X169481232Y-98263212D01*
X169379414Y-98123072D01*
X169256928Y-98000586D01*
X169116788Y-97898768D01*
X168962445Y-97820127D01*
X168797701Y-97766598D01*
X168797699Y-97766597D01*
X168797698Y-97766597D01*
X168666271Y-97745781D01*
X168626611Y-97739500D01*
X167653389Y-97739500D01*
X167613728Y-97745781D01*
X167482302Y-97766597D01*
X167317552Y-97820128D01*
X167163211Y-97898768D01*
X167083256Y-97956859D01*
X167023072Y-98000586D01*
X167023070Y-98000588D01*
X167023069Y-98000588D01*
X166900588Y-98123069D01*
X166900588Y-98123070D01*
X166900586Y-98123072D01*
X166856859Y-98183256D01*
X166798768Y-98263211D01*
X166720128Y-98417552D01*
X166666597Y-98582302D01*
X166659576Y-98626633D01*
X166639500Y-98753389D01*
X135519800Y-98753389D01*
X135519800Y-98626633D01*
X135489026Y-98432337D01*
X135428233Y-98245238D01*
X135338924Y-98069961D01*
X135223294Y-97910810D01*
X135084190Y-97771706D01*
X134925038Y-97656075D01*
X134749761Y-97566766D01*
X134562662Y-97505973D01*
X134368366Y-97475200D01*
X134368361Y-97475200D01*
X134171639Y-97475200D01*
X134171634Y-97475200D01*
X133977337Y-97505973D01*
X133790238Y-97566766D01*
X133614961Y-97656075D01*
X133524159Y-97722047D01*
X133455810Y-97771706D01*
X133455808Y-97771708D01*
X133455807Y-97771708D01*
X133316708Y-97910807D01*
X133316708Y-97910808D01*
X133316706Y-97910810D01*
X133267047Y-97979159D01*
X133201075Y-98069961D01*
X133111766Y-98245238D01*
X133050973Y-98432337D01*
X133020200Y-98626633D01*
X121042062Y-98626633D01*
X121041027Y-97241635D01*
X130480200Y-97241635D01*
X130480200Y-97438368D01*
X130510973Y-97632664D01*
X130571766Y-97819763D01*
X130661075Y-97995040D01*
X130776706Y-98154192D01*
X130915810Y-98293296D01*
X131074962Y-98408927D01*
X131120907Y-98432337D01*
X131250238Y-98498235D01*
X131250240Y-98498235D01*
X131250243Y-98498237D01*
X131350530Y-98530822D01*
X131437337Y-98559028D01*
X131631634Y-98589802D01*
X131631639Y-98589802D01*
X131828366Y-98589802D01*
X132022662Y-98559028D01*
X132209757Y-98498237D01*
X132385038Y-98408927D01*
X132544190Y-98293296D01*
X132683294Y-98154192D01*
X132798925Y-97995040D01*
X132888047Y-97820128D01*
X132888233Y-97819763D01*
X132888233Y-97819762D01*
X132888235Y-97819759D01*
X132949026Y-97632664D01*
X132959463Y-97566766D01*
X132979800Y-97438368D01*
X132979800Y-97241635D01*
X132949026Y-97047339D01*
X132888233Y-96860240D01*
X132841120Y-96767776D01*
X132798925Y-96684964D01*
X132683294Y-96525812D01*
X132544190Y-96386708D01*
X132385038Y-96271077D01*
X132209761Y-96181768D01*
X132022662Y-96120975D01*
X131828366Y-96090202D01*
X131828361Y-96090202D01*
X131631639Y-96090202D01*
X131631634Y-96090202D01*
X131437337Y-96120975D01*
X131250238Y-96181768D01*
X131074961Y-96271077D01*
X130984159Y-96337049D01*
X130915810Y-96386708D01*
X130915808Y-96386710D01*
X130915807Y-96386710D01*
X130776708Y-96525809D01*
X130776708Y-96525810D01*
X130776706Y-96525812D01*
X130727047Y-96594161D01*
X130661075Y-96684963D01*
X130571766Y-96860240D01*
X130510973Y-97047339D01*
X130480200Y-97241635D01*
X121041027Y-97241635D01*
X121041023Y-97236862D01*
X121040931Y-97113234D01*
X121039992Y-95856634D01*
X133020200Y-95856634D01*
X133020200Y-96053367D01*
X133050973Y-96247663D01*
X133111766Y-96434762D01*
X133158158Y-96525810D01*
X133201075Y-96610039D01*
X133316706Y-96769191D01*
X133455810Y-96908295D01*
X133614962Y-97023926D01*
X133660913Y-97047339D01*
X133790238Y-97113234D01*
X133790240Y-97113234D01*
X133790243Y-97113236D01*
X133890530Y-97145821D01*
X133977337Y-97174027D01*
X134171634Y-97204801D01*
X134171639Y-97204801D01*
X134368366Y-97204801D01*
X134562662Y-97174027D01*
X134749757Y-97113236D01*
X134925038Y-97023926D01*
X135084190Y-96908295D01*
X135223294Y-96769191D01*
X135338925Y-96610039D01*
X135428235Y-96434758D01*
X135489026Y-96247663D01*
X135494455Y-96213389D01*
X166639500Y-96213389D01*
X166639500Y-96386611D01*
X166666598Y-96557701D01*
X166720127Y-96722445D01*
X166798768Y-96876788D01*
X166900586Y-97016928D01*
X167023072Y-97139414D01*
X167163212Y-97241232D01*
X167317555Y-97319873D01*
X167482299Y-97373402D01*
X167653389Y-97400500D01*
X167653390Y-97400500D01*
X168626610Y-97400500D01*
X168626611Y-97400500D01*
X168797701Y-97373402D01*
X168962445Y-97319873D01*
X169116788Y-97241232D01*
X169256928Y-97139414D01*
X169379414Y-97016928D01*
X169481232Y-96876788D01*
X169559873Y-96722445D01*
X169613402Y-96557701D01*
X169640500Y-96386611D01*
X169640500Y-96213389D01*
X189499500Y-96213389D01*
X189499500Y-96386611D01*
X189526598Y-96557701D01*
X189580127Y-96722445D01*
X189658768Y-96876788D01*
X189760586Y-97016928D01*
X189883072Y-97139414D01*
X190023212Y-97241232D01*
X190177555Y-97319873D01*
X190342299Y-97373402D01*
X190513389Y-97400500D01*
X190513390Y-97400500D01*
X191486610Y-97400500D01*
X191486611Y-97400500D01*
X191657701Y-97373402D01*
X191822445Y-97319873D01*
X191976788Y-97241232D01*
X192116928Y-97139414D01*
X192239414Y-97016928D01*
X192341232Y-96876788D01*
X192419873Y-96722445D01*
X192473402Y-96557701D01*
X192500500Y-96386611D01*
X192500500Y-96213389D01*
X192473402Y-96042299D01*
X192419873Y-95877555D01*
X192341232Y-95723212D01*
X192239414Y-95583072D01*
X192116928Y-95460586D01*
X191976788Y-95358768D01*
X191822445Y-95280127D01*
X191657701Y-95226598D01*
X191657699Y-95226597D01*
X191657698Y-95226597D01*
X191526271Y-95205781D01*
X191486611Y-95199500D01*
X190513389Y-95199500D01*
X190473728Y-95205781D01*
X190342302Y-95226597D01*
X190177552Y-95280128D01*
X190023211Y-95358768D01*
X189943256Y-95416859D01*
X189883072Y-95460586D01*
X189883070Y-95460588D01*
X189883069Y-95460588D01*
X189760588Y-95583069D01*
X189760588Y-95583070D01*
X189760586Y-95583072D01*
X189716859Y-95643256D01*
X189658768Y-95723211D01*
X189580128Y-95877552D01*
X189526597Y-96042302D01*
X189524845Y-96053367D01*
X189499500Y-96213389D01*
X169640500Y-96213389D01*
X169613402Y-96042299D01*
X169559873Y-95877555D01*
X169481232Y-95723212D01*
X169379414Y-95583072D01*
X169256928Y-95460586D01*
X169116788Y-95358768D01*
X168962445Y-95280127D01*
X168797701Y-95226598D01*
X168797699Y-95226597D01*
X168797698Y-95226597D01*
X168666271Y-95205781D01*
X168626611Y-95199500D01*
X167653389Y-95199500D01*
X167613728Y-95205781D01*
X167482302Y-95226597D01*
X167317552Y-95280128D01*
X167163211Y-95358768D01*
X167083256Y-95416859D01*
X167023072Y-95460586D01*
X167023070Y-95460588D01*
X167023069Y-95460588D01*
X166900588Y-95583069D01*
X166900588Y-95583070D01*
X166900586Y-95583072D01*
X166856859Y-95643256D01*
X166798768Y-95723211D01*
X166720128Y-95877552D01*
X166666597Y-96042302D01*
X166664845Y-96053367D01*
X166639500Y-96213389D01*
X135494455Y-96213389D01*
X135499463Y-96181767D01*
X135519800Y-96053367D01*
X135519800Y-95856634D01*
X135489026Y-95662338D01*
X135428233Y-95475239D01*
X135381120Y-95382775D01*
X135338925Y-95299963D01*
X135223294Y-95140811D01*
X135084190Y-95001707D01*
X134925038Y-94886076D01*
X134749761Y-94796767D01*
X134562662Y-94735974D01*
X134368366Y-94705201D01*
X134368361Y-94705201D01*
X134171639Y-94705201D01*
X134171634Y-94705201D01*
X133977337Y-94735974D01*
X133790238Y-94796767D01*
X133614961Y-94886076D01*
X133524159Y-94952048D01*
X133455810Y-95001707D01*
X133455808Y-95001709D01*
X133455807Y-95001709D01*
X133316708Y-95140808D01*
X133316708Y-95140809D01*
X133316706Y-95140811D01*
X133274066Y-95199500D01*
X133201075Y-95299962D01*
X133111766Y-95475239D01*
X133050973Y-95662338D01*
X133020200Y-95856634D01*
X121039992Y-95856634D01*
X121038361Y-93673389D01*
X166639500Y-93673389D01*
X166639500Y-93846611D01*
X166666598Y-94017701D01*
X166720127Y-94182445D01*
X166798768Y-94336788D01*
X166900586Y-94476928D01*
X167023072Y-94599414D01*
X167163212Y-94701232D01*
X167317555Y-94779873D01*
X167482299Y-94833402D01*
X167653389Y-94860500D01*
X167653390Y-94860500D01*
X168626610Y-94860500D01*
X168626611Y-94860500D01*
X168797701Y-94833402D01*
X168962445Y-94779873D01*
X169116788Y-94701232D01*
X169256928Y-94599414D01*
X169379414Y-94476928D01*
X169481232Y-94336788D01*
X169559873Y-94182445D01*
X169613402Y-94017701D01*
X169640500Y-93846611D01*
X169640500Y-93673389D01*
X189499500Y-93673389D01*
X189499500Y-93846611D01*
X189526598Y-94017701D01*
X189580127Y-94182445D01*
X189658768Y-94336788D01*
X189760586Y-94476928D01*
X189883072Y-94599414D01*
X190023212Y-94701232D01*
X190177555Y-94779873D01*
X190342299Y-94833402D01*
X190513389Y-94860500D01*
X190513390Y-94860500D01*
X191486610Y-94860500D01*
X191486611Y-94860500D01*
X191657701Y-94833402D01*
X191822445Y-94779873D01*
X191976788Y-94701232D01*
X192116928Y-94599414D01*
X192239414Y-94476928D01*
X192341232Y-94336788D01*
X192419873Y-94182445D01*
X192473402Y-94017701D01*
X192500500Y-93846611D01*
X192500500Y-93673389D01*
X192473402Y-93502299D01*
X192419873Y-93337555D01*
X192341232Y-93183212D01*
X192239414Y-93043072D01*
X192116928Y-92920586D01*
X191976788Y-92818768D01*
X191822445Y-92740127D01*
X191657701Y-92686598D01*
X191657699Y-92686597D01*
X191657698Y-92686597D01*
X191526271Y-92665781D01*
X191486611Y-92659500D01*
X190513389Y-92659500D01*
X190473728Y-92665781D01*
X190342302Y-92686597D01*
X190177552Y-92740128D01*
X190023211Y-92818768D01*
X189943256Y-92876859D01*
X189883072Y-92920586D01*
X189883070Y-92920588D01*
X189883069Y-92920588D01*
X189760588Y-93043069D01*
X189760588Y-93043070D01*
X189760586Y-93043072D01*
X189716859Y-93103256D01*
X189658768Y-93183211D01*
X189580128Y-93337552D01*
X189526597Y-93502302D01*
X189500257Y-93668610D01*
X189499500Y-93673389D01*
X169640500Y-93673389D01*
X169613402Y-93502299D01*
X169559873Y-93337555D01*
X169481232Y-93183212D01*
X169379414Y-93043072D01*
X169256928Y-92920586D01*
X169116788Y-92818768D01*
X168962445Y-92740127D01*
X168797701Y-92686598D01*
X168797699Y-92686597D01*
X168797698Y-92686597D01*
X168666271Y-92665781D01*
X168626611Y-92659500D01*
X167653389Y-92659500D01*
X167613728Y-92665781D01*
X167482302Y-92686597D01*
X167317552Y-92740128D01*
X167163211Y-92818768D01*
X167083256Y-92876859D01*
X167023072Y-92920586D01*
X167023070Y-92920588D01*
X167023069Y-92920588D01*
X166900588Y-93043069D01*
X166900588Y-93043070D01*
X166900586Y-93043072D01*
X166856859Y-93103256D01*
X166798768Y-93183211D01*
X166720128Y-93337552D01*
X166666597Y-93502302D01*
X166640257Y-93668610D01*
X166639500Y-93673389D01*
X121038361Y-93673389D01*
X121036463Y-91133389D01*
X166639500Y-91133389D01*
X166639500Y-91306611D01*
X166666598Y-91477701D01*
X166720127Y-91642445D01*
X166798768Y-91796788D01*
X166900586Y-91936928D01*
X167023072Y-92059414D01*
X167163212Y-92161232D01*
X167317555Y-92239873D01*
X167482299Y-92293402D01*
X167653389Y-92320500D01*
X167653390Y-92320500D01*
X168626610Y-92320500D01*
X168626611Y-92320500D01*
X168797701Y-92293402D01*
X168962445Y-92239873D01*
X169116788Y-92161232D01*
X169256928Y-92059414D01*
X169379414Y-91936928D01*
X169481232Y-91796788D01*
X169559873Y-91642445D01*
X169613402Y-91477701D01*
X169640500Y-91306611D01*
X169640500Y-91133389D01*
X189499500Y-91133389D01*
X189499500Y-91306611D01*
X189526598Y-91477701D01*
X189580127Y-91642445D01*
X189658768Y-91796788D01*
X189760586Y-91936928D01*
X189883072Y-92059414D01*
X190023212Y-92161232D01*
X190177555Y-92239873D01*
X190342299Y-92293402D01*
X190513389Y-92320500D01*
X190513390Y-92320500D01*
X191486610Y-92320500D01*
X191486611Y-92320500D01*
X191657701Y-92293402D01*
X191822445Y-92239873D01*
X191976788Y-92161232D01*
X192116928Y-92059414D01*
X192239414Y-91936928D01*
X192341232Y-91796788D01*
X192419873Y-91642445D01*
X192473402Y-91477701D01*
X192500500Y-91306611D01*
X192500500Y-91133389D01*
X192473402Y-90962299D01*
X192419873Y-90797555D01*
X192341232Y-90643212D01*
X192239414Y-90503072D01*
X192116928Y-90380586D01*
X191976788Y-90278768D01*
X191822445Y-90200127D01*
X191657701Y-90146598D01*
X191657699Y-90146597D01*
X191657698Y-90146597D01*
X191526271Y-90125781D01*
X191486611Y-90119500D01*
X190513389Y-90119500D01*
X190473728Y-90125781D01*
X190342302Y-90146597D01*
X190177552Y-90200128D01*
X190023211Y-90278768D01*
X189943256Y-90336859D01*
X189883072Y-90380586D01*
X189883070Y-90380588D01*
X189883069Y-90380588D01*
X189760588Y-90503069D01*
X189760588Y-90503070D01*
X189760586Y-90503072D01*
X189740656Y-90530503D01*
X189658768Y-90643211D01*
X189580128Y-90797552D01*
X189526597Y-90962302D01*
X189500257Y-91128610D01*
X189499500Y-91133389D01*
X169640500Y-91133389D01*
X169613402Y-90962299D01*
X169559873Y-90797555D01*
X169481232Y-90643212D01*
X169379414Y-90503072D01*
X169256928Y-90380586D01*
X169116788Y-90278768D01*
X168962445Y-90200127D01*
X168797701Y-90146598D01*
X168797699Y-90146597D01*
X168797698Y-90146597D01*
X168666271Y-90125781D01*
X168626611Y-90119500D01*
X167653389Y-90119500D01*
X167613728Y-90125781D01*
X167482302Y-90146597D01*
X167317552Y-90200128D01*
X167163211Y-90278768D01*
X167083256Y-90336859D01*
X167023072Y-90380586D01*
X167023070Y-90380588D01*
X167023069Y-90380588D01*
X166900588Y-90503069D01*
X166900588Y-90503070D01*
X166900586Y-90503072D01*
X166880656Y-90530503D01*
X166798768Y-90643211D01*
X166720128Y-90797552D01*
X166666597Y-90962302D01*
X166640257Y-91128610D01*
X166639500Y-91133389D01*
X121036463Y-91133389D01*
X121034772Y-88870018D01*
X131348500Y-88870018D01*
X131348500Y-89129981D01*
X131389164Y-89386727D01*
X131469496Y-89633960D01*
X131530355Y-89753402D01*
X131587510Y-89865575D01*
X131740306Y-90075880D01*
X131924120Y-90259694D01*
X132134425Y-90412490D01*
X132243857Y-90468248D01*
X132366039Y-90530503D01*
X132366041Y-90530503D01*
X132366044Y-90530505D01*
X132498564Y-90573563D01*
X132613272Y-90610835D01*
X132870019Y-90651500D01*
X132870024Y-90651500D01*
X133129981Y-90651500D01*
X133386727Y-90610835D01*
X133633956Y-90530505D01*
X133865575Y-90412490D01*
X134075880Y-90259694D01*
X134259694Y-90075880D01*
X134412490Y-89865575D01*
X134530505Y-89633956D01*
X134610835Y-89386727D01*
X134651500Y-89129981D01*
X134651500Y-88870018D01*
X134610835Y-88613274D01*
X134610834Y-88613270D01*
X134604374Y-88593389D01*
X166639500Y-88593389D01*
X166639500Y-88766611D01*
X166666598Y-88937701D01*
X166720127Y-89102445D01*
X166798768Y-89256788D01*
X166900586Y-89396928D01*
X167023072Y-89519414D01*
X167163212Y-89621232D01*
X167317555Y-89699873D01*
X167482299Y-89753402D01*
X167653389Y-89780500D01*
X167653390Y-89780500D01*
X168626610Y-89780500D01*
X168626611Y-89780500D01*
X168797701Y-89753402D01*
X168962445Y-89699873D01*
X169116788Y-89621232D01*
X169256928Y-89519414D01*
X169379414Y-89396928D01*
X169481232Y-89256788D01*
X169559873Y-89102445D01*
X169613402Y-88937701D01*
X169640500Y-88766611D01*
X169640500Y-88593389D01*
X189499500Y-88593389D01*
X189499500Y-88766611D01*
X189526598Y-88937701D01*
X189580127Y-89102445D01*
X189658768Y-89256788D01*
X189760586Y-89396928D01*
X189883072Y-89519414D01*
X190023212Y-89621232D01*
X190177555Y-89699873D01*
X190342299Y-89753402D01*
X190513389Y-89780500D01*
X190513390Y-89780500D01*
X191486610Y-89780500D01*
X191486611Y-89780500D01*
X191657701Y-89753402D01*
X191822445Y-89699873D01*
X191976788Y-89621232D01*
X192116928Y-89519414D01*
X192239414Y-89396928D01*
X192341232Y-89256788D01*
X192419873Y-89102445D01*
X192473402Y-88937701D01*
X192500500Y-88766611D01*
X192500500Y-88593389D01*
X192473402Y-88422299D01*
X192419873Y-88257555D01*
X192341232Y-88103212D01*
X192239414Y-87963072D01*
X192116928Y-87840586D01*
X191976788Y-87738768D01*
X191822445Y-87660127D01*
X191657701Y-87606598D01*
X191657699Y-87606597D01*
X191657698Y-87606597D01*
X191526271Y-87585781D01*
X191486611Y-87579500D01*
X190513389Y-87579500D01*
X190473728Y-87585781D01*
X190342302Y-87606597D01*
X190177552Y-87660128D01*
X190023211Y-87738768D01*
X189943256Y-87796859D01*
X189883072Y-87840586D01*
X189883070Y-87840588D01*
X189883069Y-87840588D01*
X189760588Y-87963069D01*
X189760588Y-87963070D01*
X189760586Y-87963072D01*
X189716859Y-88023256D01*
X189658768Y-88103211D01*
X189580128Y-88257552D01*
X189526597Y-88422302D01*
X189499500Y-88593389D01*
X169640500Y-88593389D01*
X169613402Y-88422299D01*
X169559873Y-88257555D01*
X169481232Y-88103212D01*
X169379414Y-87963072D01*
X169256928Y-87840586D01*
X169116788Y-87738768D01*
X168962445Y-87660127D01*
X168797701Y-87606598D01*
X168797699Y-87606597D01*
X168797698Y-87606597D01*
X168666271Y-87585781D01*
X168626611Y-87579500D01*
X167653389Y-87579500D01*
X167613728Y-87585781D01*
X167482302Y-87606597D01*
X167317552Y-87660128D01*
X167163211Y-87738768D01*
X167083256Y-87796859D01*
X167023072Y-87840586D01*
X167023070Y-87840588D01*
X167023069Y-87840588D01*
X166900588Y-87963069D01*
X166900588Y-87963070D01*
X166900586Y-87963072D01*
X166856859Y-88023256D01*
X166798768Y-88103211D01*
X166720128Y-88257552D01*
X166666597Y-88422302D01*
X166639500Y-88593389D01*
X134604374Y-88593389D01*
X134530503Y-88366039D01*
X134412489Y-88134424D01*
X134389812Y-88103212D01*
X134259694Y-87924120D01*
X134075880Y-87740306D01*
X133865575Y-87587510D01*
X133633960Y-87469496D01*
X133386727Y-87389164D01*
X133129981Y-87348500D01*
X133129976Y-87348500D01*
X132870024Y-87348500D01*
X132870019Y-87348500D01*
X132613272Y-87389164D01*
X132366039Y-87469496D01*
X132134424Y-87587510D01*
X132034475Y-87660128D01*
X131924120Y-87740306D01*
X131924118Y-87740308D01*
X131924117Y-87740308D01*
X131740308Y-87924117D01*
X131740308Y-87924118D01*
X131740306Y-87924120D01*
X131712008Y-87963069D01*
X131587510Y-88134424D01*
X131469496Y-88366039D01*
X131389164Y-88613272D01*
X131348500Y-88870018D01*
X121034772Y-88870018D01*
X121032797Y-86226610D01*
X121032668Y-86053389D01*
X166639500Y-86053389D01*
X166639500Y-86226611D01*
X166666598Y-86397701D01*
X166720127Y-86562445D01*
X166798768Y-86716788D01*
X166900586Y-86856928D01*
X167023072Y-86979414D01*
X167163212Y-87081232D01*
X167317555Y-87159873D01*
X167482299Y-87213402D01*
X167653389Y-87240500D01*
X167653390Y-87240500D01*
X168626610Y-87240500D01*
X168626611Y-87240500D01*
X168797701Y-87213402D01*
X168962445Y-87159873D01*
X169116788Y-87081232D01*
X169256928Y-86979414D01*
X169379414Y-86856928D01*
X169481232Y-86716788D01*
X169559873Y-86562445D01*
X169613402Y-86397701D01*
X169640500Y-86226611D01*
X169640500Y-86053389D01*
X189499500Y-86053389D01*
X189499500Y-86226611D01*
X189526598Y-86397701D01*
X189580127Y-86562445D01*
X189658768Y-86716788D01*
X189760586Y-86856928D01*
X189883072Y-86979414D01*
X190023212Y-87081232D01*
X190177555Y-87159873D01*
X190342299Y-87213402D01*
X190513389Y-87240500D01*
X190513390Y-87240500D01*
X191486610Y-87240500D01*
X191486611Y-87240500D01*
X191657701Y-87213402D01*
X191822445Y-87159873D01*
X191976788Y-87081232D01*
X192116928Y-86979414D01*
X192239414Y-86856928D01*
X192341232Y-86716788D01*
X192419873Y-86562445D01*
X192473402Y-86397701D01*
X192500500Y-86226611D01*
X192500500Y-86053389D01*
X192473402Y-85882299D01*
X192419873Y-85717555D01*
X192341232Y-85563212D01*
X192239414Y-85423072D01*
X192116928Y-85300586D01*
X191976788Y-85198768D01*
X191822445Y-85120127D01*
X191657701Y-85066598D01*
X191657699Y-85066597D01*
X191657698Y-85066597D01*
X191526271Y-85045781D01*
X191486611Y-85039500D01*
X190513389Y-85039500D01*
X190473728Y-85045781D01*
X190342302Y-85066597D01*
X190177552Y-85120128D01*
X190023211Y-85198768D01*
X189943256Y-85256859D01*
X189883072Y-85300586D01*
X189883070Y-85300588D01*
X189883069Y-85300588D01*
X189760588Y-85423069D01*
X189760588Y-85423070D01*
X189760586Y-85423072D01*
X189716859Y-85483256D01*
X189658768Y-85563211D01*
X189580128Y-85717552D01*
X189526597Y-85882302D01*
X189500257Y-86048610D01*
X189499500Y-86053389D01*
X169640500Y-86053389D01*
X169613402Y-85882299D01*
X169559873Y-85717555D01*
X169481232Y-85563212D01*
X169379414Y-85423072D01*
X169256928Y-85300586D01*
X169116788Y-85198768D01*
X168962445Y-85120127D01*
X168797701Y-85066598D01*
X168797699Y-85066597D01*
X168797698Y-85066597D01*
X168666271Y-85045781D01*
X168626611Y-85039500D01*
X167653389Y-85039500D01*
X167613728Y-85045781D01*
X167482302Y-85066597D01*
X167317552Y-85120128D01*
X167163211Y-85198768D01*
X167083256Y-85256859D01*
X167023072Y-85300586D01*
X167023070Y-85300588D01*
X167023069Y-85300588D01*
X166900588Y-85423069D01*
X166900588Y-85423070D01*
X166900586Y-85423072D01*
X166856859Y-85483256D01*
X166798768Y-85563211D01*
X166720128Y-85717552D01*
X166666597Y-85882302D01*
X166640257Y-86048610D01*
X166639500Y-86053389D01*
X121032668Y-86053389D01*
X121032664Y-86048610D01*
X121030770Y-83513389D01*
X166639500Y-83513389D01*
X166639500Y-83686611D01*
X166666598Y-83857701D01*
X166720127Y-84022445D01*
X166798768Y-84176788D01*
X166900586Y-84316928D01*
X167023072Y-84439414D01*
X167163212Y-84541232D01*
X167317555Y-84619873D01*
X167482299Y-84673402D01*
X167653389Y-84700500D01*
X167653390Y-84700500D01*
X168626610Y-84700500D01*
X168626611Y-84700500D01*
X168797701Y-84673402D01*
X168962445Y-84619873D01*
X169116788Y-84541232D01*
X169256928Y-84439414D01*
X169379414Y-84316928D01*
X169481232Y-84176788D01*
X169559873Y-84022445D01*
X169613402Y-83857701D01*
X169640500Y-83686611D01*
X169640500Y-83513389D01*
X189499500Y-83513389D01*
X189499500Y-83686611D01*
X189526598Y-83857701D01*
X189580127Y-84022445D01*
X189658768Y-84176788D01*
X189760586Y-84316928D01*
X189883072Y-84439414D01*
X190023212Y-84541232D01*
X190177555Y-84619873D01*
X190342299Y-84673402D01*
X190513389Y-84700500D01*
X190513390Y-84700500D01*
X191486610Y-84700500D01*
X191486611Y-84700500D01*
X191657701Y-84673402D01*
X191822445Y-84619873D01*
X191976788Y-84541232D01*
X192116928Y-84439414D01*
X192239414Y-84316928D01*
X192341232Y-84176788D01*
X192419873Y-84022445D01*
X192473402Y-83857701D01*
X192500500Y-83686611D01*
X192500500Y-83513389D01*
X192473402Y-83342299D01*
X192419873Y-83177555D01*
X192341232Y-83023212D01*
X192239414Y-82883072D01*
X192116928Y-82760586D01*
X191976788Y-82658768D01*
X191822445Y-82580127D01*
X191657701Y-82526598D01*
X191657699Y-82526597D01*
X191657698Y-82526597D01*
X191526271Y-82505781D01*
X191486611Y-82499500D01*
X190513389Y-82499500D01*
X190473728Y-82505781D01*
X190342302Y-82526597D01*
X190177552Y-82580128D01*
X190023211Y-82658768D01*
X189943256Y-82716859D01*
X189883072Y-82760586D01*
X189883070Y-82760588D01*
X189883069Y-82760588D01*
X189760588Y-82883069D01*
X189760588Y-82883070D01*
X189760586Y-82883072D01*
X189716859Y-82943256D01*
X189658768Y-83023211D01*
X189580128Y-83177552D01*
X189526597Y-83342302D01*
X189500257Y-83508610D01*
X189499500Y-83513389D01*
X169640500Y-83513389D01*
X169613402Y-83342299D01*
X169559873Y-83177555D01*
X169481232Y-83023212D01*
X169379414Y-82883072D01*
X169256928Y-82760586D01*
X169116788Y-82658768D01*
X168962445Y-82580127D01*
X168797701Y-82526598D01*
X168797699Y-82526597D01*
X168797698Y-82526597D01*
X168666271Y-82505781D01*
X168626611Y-82499500D01*
X167653389Y-82499500D01*
X167613728Y-82505781D01*
X167482302Y-82526597D01*
X167317552Y-82580128D01*
X167163211Y-82658768D01*
X167083256Y-82716859D01*
X167023072Y-82760586D01*
X167023070Y-82760588D01*
X167023069Y-82760588D01*
X166900588Y-82883069D01*
X166900588Y-82883070D01*
X166900586Y-82883072D01*
X166856859Y-82943256D01*
X166798768Y-83023211D01*
X166720128Y-83177552D01*
X166666597Y-83342302D01*
X166640257Y-83508610D01*
X166639500Y-83513389D01*
X121030770Y-83513389D01*
X121030766Y-83508610D01*
X121028873Y-80973389D01*
X166639500Y-80973389D01*
X166639500Y-81146611D01*
X166666598Y-81317701D01*
X166720127Y-81482445D01*
X166798768Y-81636788D01*
X166900586Y-81776928D01*
X167023072Y-81899414D01*
X167163212Y-82001232D01*
X167317555Y-82079873D01*
X167482299Y-82133402D01*
X167653389Y-82160500D01*
X167653390Y-82160500D01*
X168626610Y-82160500D01*
X168626611Y-82160500D01*
X168797701Y-82133402D01*
X168962445Y-82079873D01*
X169116788Y-82001232D01*
X169256928Y-81899414D01*
X169379414Y-81776928D01*
X169481232Y-81636788D01*
X169559873Y-81482445D01*
X169613402Y-81317701D01*
X169640500Y-81146611D01*
X169640500Y-80973389D01*
X189499500Y-80973389D01*
X189499500Y-81146611D01*
X189526598Y-81317701D01*
X189580127Y-81482445D01*
X189658768Y-81636788D01*
X189760586Y-81776928D01*
X189883072Y-81899414D01*
X190023212Y-82001232D01*
X190177555Y-82079873D01*
X190342299Y-82133402D01*
X190513389Y-82160500D01*
X190513390Y-82160500D01*
X191486610Y-82160500D01*
X191486611Y-82160500D01*
X191657701Y-82133402D01*
X191822445Y-82079873D01*
X191976788Y-82001232D01*
X192116928Y-81899414D01*
X192239414Y-81776928D01*
X192341232Y-81636788D01*
X192419873Y-81482445D01*
X192473402Y-81317701D01*
X192500500Y-81146611D01*
X192500500Y-80973389D01*
X192473402Y-80802299D01*
X192419873Y-80637555D01*
X192341232Y-80483212D01*
X192239414Y-80343072D01*
X192116928Y-80220586D01*
X191976788Y-80118768D01*
X191822445Y-80040127D01*
X191657701Y-79986598D01*
X191657699Y-79986597D01*
X191657698Y-79986597D01*
X191526271Y-79965781D01*
X191486611Y-79959500D01*
X190513389Y-79959500D01*
X190473728Y-79965781D01*
X190342302Y-79986597D01*
X190177552Y-80040128D01*
X190023211Y-80118768D01*
X189943256Y-80176859D01*
X189883072Y-80220586D01*
X189883070Y-80220588D01*
X189883069Y-80220588D01*
X189760588Y-80343069D01*
X189760588Y-80343070D01*
X189760586Y-80343072D01*
X189716859Y-80403256D01*
X189658768Y-80483211D01*
X189580128Y-80637552D01*
X189526597Y-80802302D01*
X189500257Y-80968610D01*
X189499500Y-80973389D01*
X169640500Y-80973389D01*
X169613402Y-80802299D01*
X169559873Y-80637555D01*
X169481232Y-80483212D01*
X169379414Y-80343072D01*
X169256928Y-80220586D01*
X169116788Y-80118768D01*
X168962445Y-80040127D01*
X168797701Y-79986598D01*
X168797699Y-79986597D01*
X168797698Y-79986597D01*
X168666271Y-79965781D01*
X168626611Y-79959500D01*
X167653389Y-79959500D01*
X167613728Y-79965781D01*
X167482302Y-79986597D01*
X167317552Y-80040128D01*
X167163211Y-80118768D01*
X167083256Y-80176859D01*
X167023072Y-80220586D01*
X167023070Y-80220588D01*
X167023069Y-80220588D01*
X166900588Y-80343069D01*
X166900588Y-80343070D01*
X166900586Y-80343072D01*
X166856859Y-80403256D01*
X166798768Y-80483211D01*
X166720128Y-80637552D01*
X166666597Y-80802302D01*
X166640257Y-80968610D01*
X166639500Y-80973389D01*
X121028873Y-80973389D01*
X121028869Y-80968610D01*
X121025807Y-76870018D01*
X131348500Y-76870018D01*
X131348500Y-77129981D01*
X131389164Y-77386727D01*
X131469496Y-77633960D01*
X131555662Y-77803069D01*
X131587510Y-77865575D01*
X131740306Y-78075880D01*
X131924120Y-78259694D01*
X132134425Y-78412490D01*
X132175442Y-78433389D01*
X132366039Y-78530503D01*
X132366041Y-78530503D01*
X132366044Y-78530505D01*
X132498564Y-78573563D01*
X132613272Y-78610835D01*
X132870019Y-78651500D01*
X132870024Y-78651500D01*
X133129981Y-78651500D01*
X133386727Y-78610835D01*
X133399730Y-78606610D01*
X133633956Y-78530505D01*
X133824558Y-78433389D01*
X166639500Y-78433389D01*
X166639500Y-78606611D01*
X166666598Y-78777701D01*
X166720127Y-78942445D01*
X166798768Y-79096788D01*
X166900586Y-79236928D01*
X167023072Y-79359414D01*
X167163212Y-79461232D01*
X167317555Y-79539873D01*
X167482299Y-79593402D01*
X167653389Y-79620500D01*
X167653390Y-79620500D01*
X168626610Y-79620500D01*
X168626611Y-79620500D01*
X168797701Y-79593402D01*
X168962445Y-79539873D01*
X169116788Y-79461232D01*
X169256928Y-79359414D01*
X169379414Y-79236928D01*
X169481232Y-79096788D01*
X169559873Y-78942445D01*
X169613402Y-78777701D01*
X169640500Y-78606611D01*
X169640500Y-78433389D01*
X189499500Y-78433389D01*
X189499500Y-78606611D01*
X189526598Y-78777701D01*
X189580127Y-78942445D01*
X189658768Y-79096788D01*
X189760586Y-79236928D01*
X189883072Y-79359414D01*
X190023212Y-79461232D01*
X190177555Y-79539873D01*
X190342299Y-79593402D01*
X190513389Y-79620500D01*
X190513390Y-79620500D01*
X191486610Y-79620500D01*
X191486611Y-79620500D01*
X191657701Y-79593402D01*
X191822445Y-79539873D01*
X191976788Y-79461232D01*
X192116928Y-79359414D01*
X192239414Y-79236928D01*
X192341232Y-79096788D01*
X192419873Y-78942445D01*
X192473402Y-78777701D01*
X192500500Y-78606611D01*
X192500500Y-78433389D01*
X192473402Y-78262299D01*
X192419873Y-78097555D01*
X192341232Y-77943212D01*
X192239414Y-77803072D01*
X192116928Y-77680586D01*
X191976788Y-77578768D01*
X191822445Y-77500127D01*
X191657701Y-77446598D01*
X191657699Y-77446597D01*
X191657698Y-77446597D01*
X191526271Y-77425781D01*
X191486611Y-77419500D01*
X190513389Y-77419500D01*
X190473728Y-77425781D01*
X190342302Y-77446597D01*
X190177552Y-77500128D01*
X190023211Y-77578768D01*
X189947252Y-77633956D01*
X189883072Y-77680586D01*
X189883070Y-77680588D01*
X189883069Y-77680588D01*
X189760588Y-77803069D01*
X189760588Y-77803070D01*
X189760586Y-77803072D01*
X189716859Y-77863256D01*
X189658768Y-77943211D01*
X189580128Y-78097552D01*
X189526597Y-78262302D01*
X189516160Y-78328199D01*
X189499500Y-78433389D01*
X169640500Y-78433389D01*
X169613402Y-78262299D01*
X169559873Y-78097555D01*
X169481232Y-77943212D01*
X169379414Y-77803072D01*
X169256928Y-77680586D01*
X169116788Y-77578768D01*
X168962445Y-77500127D01*
X168797701Y-77446598D01*
X168797699Y-77446597D01*
X168797698Y-77446597D01*
X168666271Y-77425781D01*
X168626611Y-77419500D01*
X167653389Y-77419500D01*
X167613728Y-77425781D01*
X167482302Y-77446597D01*
X167317552Y-77500128D01*
X167163211Y-77578768D01*
X167087252Y-77633956D01*
X167023072Y-77680586D01*
X167023070Y-77680588D01*
X167023069Y-77680588D01*
X166900588Y-77803069D01*
X166900588Y-77803070D01*
X166900586Y-77803072D01*
X166856859Y-77863256D01*
X166798768Y-77943211D01*
X166720128Y-78097552D01*
X166666597Y-78262302D01*
X166656160Y-78328199D01*
X166639500Y-78433389D01*
X133824558Y-78433389D01*
X133865575Y-78412490D01*
X134075880Y-78259694D01*
X134259694Y-78075880D01*
X134412490Y-77865575D01*
X134530505Y-77633956D01*
X134610835Y-77386727D01*
X134651500Y-77129981D01*
X134651500Y-76870018D01*
X134610835Y-76613272D01*
X134530503Y-76366039D01*
X134412489Y-76134424D01*
X134363219Y-76066610D01*
X134259694Y-75924120D01*
X134228963Y-75893389D01*
X166639500Y-75893389D01*
X166639500Y-76066610D01*
X166650240Y-76134424D01*
X166666598Y-76237701D01*
X166720127Y-76402445D01*
X166798768Y-76556788D01*
X166900586Y-76696928D01*
X167023072Y-76819414D01*
X167163212Y-76921232D01*
X167317555Y-76999873D01*
X167482299Y-77053402D01*
X167653389Y-77080500D01*
X167653390Y-77080500D01*
X168626610Y-77080500D01*
X168626611Y-77080500D01*
X168797701Y-77053402D01*
X168962445Y-76999873D01*
X169116788Y-76921232D01*
X169256928Y-76819414D01*
X169379414Y-76696928D01*
X169481232Y-76556788D01*
X169559873Y-76402445D01*
X169613402Y-76237701D01*
X169640500Y-76066611D01*
X169640500Y-75893389D01*
X189499500Y-75893389D01*
X189499500Y-76066610D01*
X189510240Y-76134424D01*
X189526598Y-76237701D01*
X189580127Y-76402445D01*
X189658768Y-76556788D01*
X189760586Y-76696928D01*
X189883072Y-76819414D01*
X190023212Y-76921232D01*
X190177555Y-76999873D01*
X190342299Y-77053402D01*
X190513389Y-77080500D01*
X190513390Y-77080500D01*
X191486610Y-77080500D01*
X191486611Y-77080500D01*
X191657701Y-77053402D01*
X191822445Y-76999873D01*
X191976788Y-76921232D01*
X192116928Y-76819414D01*
X192239414Y-76696928D01*
X192341232Y-76556788D01*
X192419873Y-76402445D01*
X192473402Y-76237701D01*
X192500500Y-76066611D01*
X192500500Y-75893389D01*
X192473402Y-75722299D01*
X192419873Y-75557555D01*
X192341232Y-75403212D01*
X192239414Y-75263072D01*
X192116928Y-75140586D01*
X191976788Y-75038768D01*
X191822445Y-74960127D01*
X191657701Y-74906598D01*
X191657699Y-74906597D01*
X191657698Y-74906597D01*
X191526271Y-74885781D01*
X191486611Y-74879500D01*
X190513389Y-74879500D01*
X190473728Y-74885781D01*
X190342302Y-74906597D01*
X190177552Y-74960128D01*
X190023211Y-75038768D01*
X189943256Y-75096859D01*
X189883072Y-75140586D01*
X189883070Y-75140588D01*
X189883069Y-75140588D01*
X189760588Y-75263069D01*
X189760588Y-75263070D01*
X189760586Y-75263072D01*
X189716859Y-75323256D01*
X189658768Y-75403211D01*
X189580128Y-75557552D01*
X189526597Y-75722302D01*
X189499500Y-75893389D01*
X169640500Y-75893389D01*
X169613402Y-75722299D01*
X169559873Y-75557555D01*
X169481232Y-75403212D01*
X169379414Y-75263072D01*
X169256928Y-75140586D01*
X169116788Y-75038768D01*
X168962445Y-74960127D01*
X168797701Y-74906598D01*
X168797699Y-74906597D01*
X168797698Y-74906597D01*
X168666271Y-74885781D01*
X168626611Y-74879500D01*
X167653389Y-74879500D01*
X167613728Y-74885781D01*
X167482302Y-74906597D01*
X167317552Y-74960128D01*
X167163211Y-75038768D01*
X167083256Y-75096859D01*
X167023072Y-75140586D01*
X167023070Y-75140588D01*
X167023069Y-75140588D01*
X166900588Y-75263069D01*
X166900588Y-75263070D01*
X166900586Y-75263072D01*
X166856859Y-75323256D01*
X166798768Y-75403211D01*
X166720128Y-75557552D01*
X166666597Y-75722302D01*
X166639500Y-75893389D01*
X134228963Y-75893389D01*
X134075880Y-75740306D01*
X133865575Y-75587510D01*
X133806779Y-75557552D01*
X133633960Y-75469496D01*
X133386727Y-75389164D01*
X133129981Y-75348500D01*
X133129976Y-75348500D01*
X132870024Y-75348500D01*
X132870019Y-75348500D01*
X132613272Y-75389164D01*
X132366039Y-75469496D01*
X132134424Y-75587510D01*
X132014438Y-75674685D01*
X131924120Y-75740306D01*
X131924118Y-75740308D01*
X131924117Y-75740308D01*
X131740308Y-75924117D01*
X131740308Y-75924118D01*
X131740306Y-75924120D01*
X131674685Y-76014438D01*
X131587510Y-76134424D01*
X131469496Y-76366039D01*
X131389164Y-76613272D01*
X131348500Y-76870018D01*
X121025807Y-76870018D01*
X121025803Y-76865245D01*
X121023180Y-73353389D01*
X166639500Y-73353389D01*
X166639500Y-73526611D01*
X166666598Y-73697701D01*
X166720127Y-73862445D01*
X166798768Y-74016788D01*
X166900586Y-74156928D01*
X167023072Y-74279414D01*
X167163212Y-74381232D01*
X167317555Y-74459873D01*
X167482299Y-74513402D01*
X167653389Y-74540500D01*
X167653390Y-74540500D01*
X168626610Y-74540500D01*
X168626611Y-74540500D01*
X168797701Y-74513402D01*
X168962445Y-74459873D01*
X169116788Y-74381232D01*
X169256928Y-74279414D01*
X169379414Y-74156928D01*
X169481232Y-74016788D01*
X169559873Y-73862445D01*
X169613402Y-73697701D01*
X169640500Y-73526611D01*
X169640500Y-73353389D01*
X189499500Y-73353389D01*
X189499500Y-73526611D01*
X189526598Y-73697701D01*
X189580127Y-73862445D01*
X189658768Y-74016788D01*
X189760586Y-74156928D01*
X189883072Y-74279414D01*
X190023212Y-74381232D01*
X190177555Y-74459873D01*
X190342299Y-74513402D01*
X190513389Y-74540500D01*
X190513390Y-74540500D01*
X191486610Y-74540500D01*
X191486611Y-74540500D01*
X191657701Y-74513402D01*
X191822445Y-74459873D01*
X191976788Y-74381232D01*
X192116928Y-74279414D01*
X192239414Y-74156928D01*
X192341232Y-74016788D01*
X192419873Y-73862445D01*
X192473402Y-73697701D01*
X192500500Y-73526611D01*
X192500500Y-73353389D01*
X192473402Y-73182299D01*
X192419873Y-73017555D01*
X192341232Y-72863212D01*
X192239414Y-72723072D01*
X192116928Y-72600586D01*
X191976788Y-72498768D01*
X191822445Y-72420127D01*
X191657701Y-72366598D01*
X191657699Y-72366597D01*
X191657698Y-72366597D01*
X191526271Y-72345781D01*
X191486611Y-72339500D01*
X190513389Y-72339500D01*
X190473728Y-72345781D01*
X190342302Y-72366597D01*
X190177552Y-72420128D01*
X190023211Y-72498768D01*
X189943256Y-72556859D01*
X189883072Y-72600586D01*
X189883070Y-72600588D01*
X189883069Y-72600588D01*
X189760588Y-72723069D01*
X189760588Y-72723070D01*
X189760586Y-72723072D01*
X189716859Y-72783256D01*
X189658768Y-72863211D01*
X189580128Y-73017552D01*
X189526597Y-73182302D01*
X189500257Y-73348610D01*
X189499500Y-73353389D01*
X169640500Y-73353389D01*
X169613402Y-73182299D01*
X169559873Y-73017555D01*
X169481232Y-72863212D01*
X169379414Y-72723072D01*
X169256928Y-72600586D01*
X169116788Y-72498768D01*
X168962445Y-72420127D01*
X168797701Y-72366598D01*
X168797699Y-72366597D01*
X168797698Y-72366597D01*
X168666271Y-72345781D01*
X168626611Y-72339500D01*
X167653389Y-72339500D01*
X167613728Y-72345781D01*
X167482302Y-72366597D01*
X167317552Y-72420128D01*
X167163211Y-72498768D01*
X167083256Y-72556859D01*
X167023072Y-72600586D01*
X167023070Y-72600588D01*
X167023069Y-72600588D01*
X166900588Y-72723069D01*
X166900588Y-72723070D01*
X166900586Y-72723072D01*
X166856859Y-72783256D01*
X166798768Y-72863211D01*
X166720128Y-73017552D01*
X166666597Y-73182302D01*
X166640257Y-73348610D01*
X166639500Y-73353389D01*
X121023180Y-73353389D01*
X121023176Y-73348610D01*
X121020635Y-69946632D01*
X133020200Y-69946632D01*
X133020200Y-70143365D01*
X133050973Y-70337661D01*
X133111766Y-70524760D01*
X133201075Y-70700037D01*
X133316706Y-70859189D01*
X133455810Y-70998293D01*
X133614962Y-71113924D01*
X133697774Y-71156119D01*
X133790238Y-71203232D01*
X133790240Y-71203232D01*
X133790243Y-71203234D01*
X133890530Y-71235819D01*
X133977337Y-71264025D01*
X134171634Y-71294799D01*
X134171639Y-71294799D01*
X134368366Y-71294799D01*
X134562662Y-71264025D01*
X134749757Y-71203234D01*
X134925038Y-71113924D01*
X135084190Y-70998293D01*
X135223294Y-70859189D01*
X135256570Y-70813389D01*
X166639500Y-70813389D01*
X166639500Y-70986611D01*
X166666598Y-71157701D01*
X166720127Y-71322445D01*
X166798768Y-71476788D01*
X166900586Y-71616928D01*
X167023072Y-71739414D01*
X167163212Y-71841232D01*
X167317555Y-71919873D01*
X167482299Y-71973402D01*
X167653389Y-72000500D01*
X167653390Y-72000500D01*
X168626610Y-72000500D01*
X168626611Y-72000500D01*
X168797701Y-71973402D01*
X168962445Y-71919873D01*
X169116788Y-71841232D01*
X169256928Y-71739414D01*
X169379414Y-71616928D01*
X169481232Y-71476788D01*
X169559873Y-71322445D01*
X169613402Y-71157701D01*
X169640500Y-70986611D01*
X169640500Y-70813389D01*
X189499500Y-70813389D01*
X189499500Y-70986611D01*
X189526598Y-71157701D01*
X189580127Y-71322445D01*
X189658768Y-71476788D01*
X189760586Y-71616928D01*
X189883072Y-71739414D01*
X190023212Y-71841232D01*
X190177555Y-71919873D01*
X190342299Y-71973402D01*
X190513389Y-72000500D01*
X190513390Y-72000500D01*
X191486610Y-72000500D01*
X191486611Y-72000500D01*
X191657701Y-71973402D01*
X191822445Y-71919873D01*
X191976788Y-71841232D01*
X192116928Y-71739414D01*
X192239414Y-71616928D01*
X192341232Y-71476788D01*
X192419873Y-71322445D01*
X192473402Y-71157701D01*
X192500500Y-70986611D01*
X192500500Y-70813389D01*
X192473402Y-70642299D01*
X192419873Y-70477555D01*
X192341232Y-70323212D01*
X192239414Y-70183072D01*
X192116928Y-70060586D01*
X191976788Y-69958768D01*
X191822445Y-69880127D01*
X191657701Y-69826598D01*
X191657699Y-69826597D01*
X191657698Y-69826597D01*
X191526271Y-69805781D01*
X191486611Y-69799500D01*
X190513389Y-69799500D01*
X190473728Y-69805781D01*
X190342302Y-69826597D01*
X190177552Y-69880128D01*
X190023211Y-69958768D01*
X189943256Y-70016859D01*
X189883072Y-70060586D01*
X189883070Y-70060588D01*
X189883069Y-70060588D01*
X189760588Y-70183069D01*
X189760588Y-70183070D01*
X189760586Y-70183072D01*
X189716859Y-70243256D01*
X189658768Y-70323211D01*
X189580128Y-70477552D01*
X189526597Y-70642302D01*
X189499500Y-70813389D01*
X169640500Y-70813389D01*
X169613402Y-70642299D01*
X169559873Y-70477555D01*
X169481232Y-70323212D01*
X169379414Y-70183072D01*
X169256928Y-70060586D01*
X169116788Y-69958768D01*
X168962445Y-69880127D01*
X168797701Y-69826598D01*
X168797699Y-69826597D01*
X168797698Y-69826597D01*
X168666271Y-69805781D01*
X168626611Y-69799500D01*
X167653389Y-69799500D01*
X167613728Y-69805781D01*
X167482302Y-69826597D01*
X167317552Y-69880128D01*
X167163211Y-69958768D01*
X167083256Y-70016859D01*
X167023072Y-70060586D01*
X167023070Y-70060588D01*
X167023069Y-70060588D01*
X166900588Y-70183069D01*
X166900588Y-70183070D01*
X166900586Y-70183072D01*
X166856859Y-70243256D01*
X166798768Y-70323211D01*
X166720128Y-70477552D01*
X166666597Y-70642302D01*
X166639500Y-70813389D01*
X135256570Y-70813389D01*
X135338925Y-70700037D01*
X135428235Y-70524756D01*
X135489026Y-70337661D01*
X135519800Y-70143365D01*
X135519800Y-69946632D01*
X135489026Y-69752336D01*
X135428233Y-69565237D01*
X135338924Y-69389960D01*
X135223294Y-69230809D01*
X135084190Y-69091705D01*
X134925038Y-68976074D01*
X134749761Y-68886765D01*
X134562662Y-68825972D01*
X134368366Y-68795199D01*
X134368361Y-68795199D01*
X134171639Y-68795199D01*
X134171634Y-68795199D01*
X133977337Y-68825972D01*
X133790238Y-68886765D01*
X133614961Y-68976074D01*
X133524159Y-69042046D01*
X133455810Y-69091705D01*
X133455808Y-69091707D01*
X133455807Y-69091707D01*
X133316708Y-69230806D01*
X133316708Y-69230807D01*
X133316706Y-69230809D01*
X133267047Y-69299158D01*
X133201075Y-69389960D01*
X133111766Y-69565237D01*
X133050973Y-69752336D01*
X133020200Y-69946632D01*
X121020635Y-69946632D01*
X121019600Y-68561634D01*
X130480200Y-68561634D01*
X130480200Y-68758367D01*
X130510973Y-68952663D01*
X130571766Y-69139762D01*
X130654039Y-69301231D01*
X130661075Y-69315039D01*
X130776706Y-69474191D01*
X130915810Y-69613295D01*
X131074962Y-69728926D01*
X131120907Y-69752336D01*
X131250238Y-69818234D01*
X131250240Y-69818234D01*
X131250243Y-69818236D01*
X131275979Y-69826598D01*
X131437337Y-69879027D01*
X131631634Y-69909801D01*
X131631639Y-69909801D01*
X131828366Y-69909801D01*
X132022662Y-69879027D01*
X132209757Y-69818236D01*
X132385038Y-69728926D01*
X132544190Y-69613295D01*
X132683294Y-69474191D01*
X132798925Y-69315039D01*
X132888235Y-69139758D01*
X132949026Y-68952663D01*
X132959463Y-68886765D01*
X132979800Y-68758367D01*
X132979800Y-68561634D01*
X132949026Y-68367338D01*
X132888233Y-68180239D01*
X132798924Y-68004962D01*
X132683294Y-67845811D01*
X132544190Y-67706707D01*
X132385038Y-67591076D01*
X132209761Y-67501767D01*
X132022662Y-67440974D01*
X131828366Y-67410201D01*
X131828361Y-67410201D01*
X131631639Y-67410201D01*
X131631634Y-67410201D01*
X131437337Y-67440974D01*
X131250238Y-67501767D01*
X131074961Y-67591076D01*
X131003396Y-67643072D01*
X130915810Y-67706707D01*
X130915808Y-67706709D01*
X130915807Y-67706709D01*
X130776708Y-67845808D01*
X130776708Y-67845809D01*
X130776706Y-67845811D01*
X130727047Y-67914160D01*
X130661075Y-68004962D01*
X130571766Y-68180239D01*
X130510973Y-68367338D01*
X130480200Y-68561634D01*
X121019600Y-68561634D01*
X121019596Y-68556861D01*
X121018565Y-67176632D01*
X133020200Y-67176632D01*
X133020200Y-67373365D01*
X133050973Y-67567661D01*
X133111766Y-67754760D01*
X133201075Y-67930037D01*
X133316706Y-68089189D01*
X133455810Y-68228293D01*
X133614962Y-68343924D01*
X133660915Y-68367338D01*
X133790238Y-68433232D01*
X133790240Y-68433232D01*
X133790243Y-68433234D01*
X133890530Y-68465819D01*
X133977337Y-68494025D01*
X134171634Y-68524799D01*
X134171639Y-68524799D01*
X134368366Y-68524799D01*
X134562662Y-68494025D01*
X134749757Y-68433234D01*
X134925038Y-68343924D01*
X135022121Y-68273389D01*
X166639500Y-68273389D01*
X166639500Y-68446611D01*
X166666598Y-68617701D01*
X166720127Y-68782445D01*
X166798768Y-68936788D01*
X166900586Y-69076928D01*
X167023072Y-69199414D01*
X167163212Y-69301232D01*
X167317555Y-69379873D01*
X167482299Y-69433402D01*
X167653389Y-69460500D01*
X167653390Y-69460500D01*
X168626610Y-69460500D01*
X168626611Y-69460500D01*
X168797701Y-69433402D01*
X168962445Y-69379873D01*
X169116788Y-69301232D01*
X169256928Y-69199414D01*
X169379414Y-69076928D01*
X169481232Y-68936788D01*
X169559873Y-68782445D01*
X169613402Y-68617701D01*
X169640500Y-68446611D01*
X169640500Y-68273389D01*
X189499500Y-68273389D01*
X189499500Y-68446611D01*
X189526598Y-68617701D01*
X189580127Y-68782445D01*
X189658768Y-68936788D01*
X189760586Y-69076928D01*
X189883072Y-69199414D01*
X190023212Y-69301232D01*
X190177555Y-69379873D01*
X190342299Y-69433402D01*
X190513389Y-69460500D01*
X190513390Y-69460500D01*
X191486610Y-69460500D01*
X191486611Y-69460500D01*
X191657701Y-69433402D01*
X191822445Y-69379873D01*
X191976788Y-69301232D01*
X192116928Y-69199414D01*
X192239414Y-69076928D01*
X192341232Y-68936788D01*
X192419873Y-68782445D01*
X192473402Y-68617701D01*
X192500500Y-68446611D01*
X192500500Y-68273389D01*
X192473402Y-68102299D01*
X192419873Y-67937555D01*
X192341232Y-67783212D01*
X192239414Y-67643072D01*
X192116928Y-67520586D01*
X191976788Y-67418768D01*
X191822445Y-67340127D01*
X191657701Y-67286598D01*
X191657699Y-67286597D01*
X191657698Y-67286597D01*
X191526271Y-67265781D01*
X191486611Y-67259500D01*
X190513389Y-67259500D01*
X190473728Y-67265781D01*
X190342302Y-67286597D01*
X190177552Y-67340128D01*
X190023211Y-67418768D01*
X189943256Y-67476859D01*
X189883072Y-67520586D01*
X189883070Y-67520588D01*
X189883069Y-67520588D01*
X189760588Y-67643069D01*
X189760588Y-67643070D01*
X189760586Y-67643072D01*
X189716859Y-67703256D01*
X189658768Y-67783211D01*
X189580128Y-67937552D01*
X189526597Y-68102302D01*
X189499500Y-68273389D01*
X169640500Y-68273389D01*
X169613402Y-68102299D01*
X169559873Y-67937555D01*
X169481232Y-67783212D01*
X169379414Y-67643072D01*
X169256928Y-67520586D01*
X169116788Y-67418768D01*
X168962445Y-67340127D01*
X168797701Y-67286598D01*
X168797699Y-67286597D01*
X168797698Y-67286597D01*
X168666271Y-67265781D01*
X168626611Y-67259500D01*
X167653389Y-67259500D01*
X167613728Y-67265781D01*
X167482302Y-67286597D01*
X167317552Y-67340128D01*
X167163211Y-67418768D01*
X167083256Y-67476859D01*
X167023072Y-67520586D01*
X167023070Y-67520588D01*
X167023069Y-67520588D01*
X166900588Y-67643069D01*
X166900588Y-67643070D01*
X166900586Y-67643072D01*
X166856859Y-67703256D01*
X166798768Y-67783211D01*
X166720128Y-67937552D01*
X166666597Y-68102302D01*
X166639500Y-68273389D01*
X135022121Y-68273389D01*
X135084190Y-68228293D01*
X135223294Y-68089189D01*
X135338925Y-67930037D01*
X135428235Y-67754756D01*
X135489026Y-67567661D01*
X135496482Y-67520586D01*
X135519800Y-67373365D01*
X135519800Y-67176632D01*
X135489026Y-66982336D01*
X135443847Y-66843292D01*
X135428235Y-66795242D01*
X135428233Y-66795239D01*
X135428233Y-66795237D01*
X135359027Y-66659414D01*
X135338925Y-66619961D01*
X135223294Y-66460809D01*
X135084190Y-66321705D01*
X134925038Y-66206074D01*
X134749761Y-66116765D01*
X134562662Y-66055972D01*
X134368366Y-66025199D01*
X134368361Y-66025199D01*
X134171639Y-66025199D01*
X134171634Y-66025199D01*
X133977337Y-66055972D01*
X133790238Y-66116765D01*
X133614961Y-66206074D01*
X133564899Y-66242447D01*
X133455810Y-66321705D01*
X133455808Y-66321707D01*
X133455807Y-66321707D01*
X133316708Y-66460806D01*
X133316708Y-66460807D01*
X133316706Y-66460809D01*
X133267047Y-66529158D01*
X133201075Y-66619960D01*
X133111766Y-66795237D01*
X133050973Y-66982336D01*
X133020200Y-67176632D01*
X121018565Y-67176632D01*
X121017530Y-65791634D01*
X130480200Y-65791634D01*
X130480200Y-65988367D01*
X130510973Y-66182663D01*
X130571766Y-66369762D01*
X130656942Y-66536928D01*
X130661075Y-66545039D01*
X130776706Y-66704191D01*
X130915810Y-66843295D01*
X131074962Y-66958926D01*
X131120907Y-66982336D01*
X131250238Y-67048234D01*
X131250240Y-67048234D01*
X131250243Y-67048236D01*
X131350530Y-67080821D01*
X131437337Y-67109027D01*
X131631634Y-67139801D01*
X131631639Y-67139801D01*
X131828366Y-67139801D01*
X132022662Y-67109027D01*
X132209757Y-67048236D01*
X132385038Y-66958926D01*
X132544190Y-66843295D01*
X132683294Y-66704191D01*
X132798925Y-66545039D01*
X132888235Y-66369758D01*
X132949026Y-66182663D01*
X132959463Y-66116765D01*
X132979800Y-65988367D01*
X132979800Y-65791634D01*
X132949026Y-65597338D01*
X132888233Y-65410239D01*
X132803128Y-65243212D01*
X132798925Y-65234963D01*
X132683294Y-65075811D01*
X132544190Y-64936707D01*
X132385038Y-64821076D01*
X132209761Y-64731767D01*
X132022662Y-64670974D01*
X131828366Y-64640201D01*
X131828361Y-64640201D01*
X131631639Y-64640201D01*
X131631634Y-64640201D01*
X131437337Y-64670974D01*
X131250238Y-64731767D01*
X131074961Y-64821076D01*
X130995556Y-64878768D01*
X130915810Y-64936707D01*
X130915808Y-64936709D01*
X130915807Y-64936709D01*
X130776708Y-65075808D01*
X130776708Y-65075809D01*
X130776706Y-65075811D01*
X130756902Y-65103069D01*
X130661075Y-65234962D01*
X130571766Y-65410239D01*
X130510973Y-65597338D01*
X130480200Y-65791634D01*
X121017530Y-65791634D01*
X121016495Y-64406633D01*
X133020200Y-64406633D01*
X133020200Y-64603366D01*
X133050973Y-64797662D01*
X133111766Y-64984761D01*
X133158158Y-65075809D01*
X133201075Y-65160038D01*
X133316706Y-65319190D01*
X133455810Y-65458294D01*
X133614962Y-65573925D01*
X133660913Y-65597338D01*
X133790238Y-65663233D01*
X133790240Y-65663233D01*
X133790243Y-65663235D01*
X133890530Y-65695820D01*
X133977337Y-65724026D01*
X134171634Y-65754800D01*
X134171639Y-65754800D01*
X134368366Y-65754800D01*
X134503547Y-65733389D01*
X166639500Y-65733389D01*
X166639500Y-65906610D01*
X166663156Y-66055973D01*
X166666598Y-66077701D01*
X166720127Y-66242445D01*
X166798768Y-66396788D01*
X166900586Y-66536928D01*
X167023072Y-66659414D01*
X167163212Y-66761232D01*
X167317555Y-66839873D01*
X167482299Y-66893402D01*
X167653389Y-66920500D01*
X167653390Y-66920500D01*
X168626610Y-66920500D01*
X168626611Y-66920500D01*
X168797701Y-66893402D01*
X168962445Y-66839873D01*
X169116788Y-66761232D01*
X169256928Y-66659414D01*
X169379414Y-66536928D01*
X169481232Y-66396788D01*
X169559873Y-66242445D01*
X169613402Y-66077701D01*
X169640500Y-65906611D01*
X169640500Y-65733389D01*
X189499500Y-65733389D01*
X189499500Y-65906610D01*
X189523156Y-66055973D01*
X189526598Y-66077701D01*
X189580127Y-66242445D01*
X189658768Y-66396788D01*
X189760586Y-66536928D01*
X189883072Y-66659414D01*
X190023212Y-66761232D01*
X190177555Y-66839873D01*
X190342299Y-66893402D01*
X190513389Y-66920500D01*
X190513390Y-66920500D01*
X191486610Y-66920500D01*
X191486611Y-66920500D01*
X191657701Y-66893402D01*
X191822445Y-66839873D01*
X191976788Y-66761232D01*
X192116928Y-66659414D01*
X192239414Y-66536928D01*
X192341232Y-66396788D01*
X192419873Y-66242445D01*
X192473402Y-66077701D01*
X192500500Y-65906611D01*
X192500500Y-65733389D01*
X192473402Y-65562299D01*
X192419873Y-65397555D01*
X192341232Y-65243212D01*
X192239414Y-65103072D01*
X192116928Y-64980586D01*
X191976788Y-64878768D01*
X191822445Y-64800127D01*
X191657701Y-64746598D01*
X191657699Y-64746597D01*
X191657698Y-64746597D01*
X191526271Y-64725781D01*
X191486611Y-64719500D01*
X190513389Y-64719500D01*
X190473728Y-64725781D01*
X190342302Y-64746597D01*
X190177552Y-64800128D01*
X190023211Y-64878768D01*
X189943466Y-64936707D01*
X189883072Y-64980586D01*
X189883070Y-64980588D01*
X189883069Y-64980588D01*
X189760588Y-65103069D01*
X189760588Y-65103070D01*
X189760586Y-65103072D01*
X189719198Y-65160038D01*
X189658768Y-65243211D01*
X189580128Y-65397552D01*
X189526597Y-65562302D01*
X189499500Y-65733389D01*
X169640500Y-65733389D01*
X169613402Y-65562299D01*
X169559873Y-65397555D01*
X169481232Y-65243212D01*
X169379414Y-65103072D01*
X169256928Y-64980586D01*
X169116788Y-64878768D01*
X168962445Y-64800127D01*
X168797701Y-64746598D01*
X168797699Y-64746597D01*
X168797698Y-64746597D01*
X168666271Y-64725781D01*
X168626611Y-64719500D01*
X167653389Y-64719500D01*
X167613728Y-64725781D01*
X167482302Y-64746597D01*
X167317552Y-64800128D01*
X167163211Y-64878768D01*
X167083466Y-64936707D01*
X167023072Y-64980586D01*
X167023070Y-64980588D01*
X167023069Y-64980588D01*
X166900588Y-65103069D01*
X166900588Y-65103070D01*
X166900586Y-65103072D01*
X166859198Y-65160038D01*
X166798768Y-65243211D01*
X166720128Y-65397552D01*
X166666597Y-65562302D01*
X166639500Y-65733389D01*
X134503547Y-65733389D01*
X134562662Y-65724026D01*
X134749757Y-65663235D01*
X134925038Y-65573925D01*
X135084190Y-65458294D01*
X135223294Y-65319190D01*
X135338925Y-65160038D01*
X135428235Y-64984757D01*
X135489026Y-64797662D01*
X135501406Y-64719500D01*
X135519800Y-64603366D01*
X135519800Y-64406633D01*
X135489026Y-64212337D01*
X135428233Y-64025238D01*
X135338924Y-63849961D01*
X135223294Y-63690810D01*
X135084190Y-63551706D01*
X134925038Y-63436075D01*
X134749761Y-63346766D01*
X134625674Y-63306448D01*
X134562662Y-63285973D01*
X134368366Y-63255200D01*
X134368361Y-63255200D01*
X134171639Y-63255200D01*
X134171634Y-63255200D01*
X133977337Y-63285973D01*
X133790238Y-63346766D01*
X133614961Y-63436075D01*
X133524159Y-63502047D01*
X133455810Y-63551706D01*
X133455808Y-63551708D01*
X133455807Y-63551708D01*
X133316708Y-63690807D01*
X133316708Y-63690808D01*
X133316706Y-63690810D01*
X133267047Y-63759159D01*
X133201075Y-63849961D01*
X133111766Y-64025238D01*
X133050973Y-64212337D01*
X133020200Y-64406633D01*
X121016495Y-64406633D01*
X121015460Y-63021634D01*
X130480200Y-63021634D01*
X130480200Y-63218367D01*
X130510973Y-63412663D01*
X130571766Y-63599762D01*
X130661075Y-63775039D01*
X130776706Y-63934191D01*
X130915810Y-64073295D01*
X131074962Y-64188926D01*
X131120909Y-64212337D01*
X131250238Y-64278234D01*
X131250240Y-64278234D01*
X131250243Y-64278236D01*
X131316829Y-64299871D01*
X131437337Y-64339027D01*
X131631634Y-64369801D01*
X131631639Y-64369801D01*
X131828366Y-64369801D01*
X132022662Y-64339027D01*
X132209757Y-64278236D01*
X132385038Y-64188926D01*
X132544190Y-64073295D01*
X132683294Y-63934191D01*
X132798925Y-63775039D01*
X132888235Y-63599758D01*
X132949026Y-63412663D01*
X132965849Y-63306448D01*
X132979800Y-63218367D01*
X132979800Y-63193389D01*
X166639500Y-63193389D01*
X166639500Y-63366610D01*
X166666597Y-63537697D01*
X166720128Y-63702447D01*
X166795290Y-63849962D01*
X166798768Y-63856788D01*
X166900586Y-63996928D01*
X167023072Y-64119414D01*
X167163212Y-64221232D01*
X167317555Y-64299873D01*
X167482299Y-64353402D01*
X167653389Y-64380500D01*
X167653390Y-64380500D01*
X168626610Y-64380500D01*
X168626611Y-64380500D01*
X168797701Y-64353402D01*
X168962445Y-64299873D01*
X169116788Y-64221232D01*
X169256928Y-64119414D01*
X169379414Y-63996928D01*
X169481232Y-63856788D01*
X169559873Y-63702445D01*
X169613402Y-63537701D01*
X169640500Y-63366611D01*
X169640500Y-63193389D01*
X189499500Y-63193389D01*
X189499500Y-63366610D01*
X189526597Y-63537697D01*
X189580128Y-63702447D01*
X189655290Y-63849962D01*
X189658768Y-63856788D01*
X189760586Y-63996928D01*
X189883072Y-64119414D01*
X190023212Y-64221232D01*
X190177555Y-64299873D01*
X190342299Y-64353402D01*
X190513389Y-64380500D01*
X190513390Y-64380500D01*
X191486610Y-64380500D01*
X191486611Y-64380500D01*
X191657701Y-64353402D01*
X191822445Y-64299873D01*
X191976788Y-64221232D01*
X192116928Y-64119414D01*
X192239414Y-63996928D01*
X192341232Y-63856788D01*
X192419873Y-63702445D01*
X192473402Y-63537701D01*
X192500500Y-63366611D01*
X192500500Y-63193389D01*
X192473402Y-63022299D01*
X192419873Y-62857555D01*
X192341232Y-62703212D01*
X192239414Y-62563072D01*
X192116928Y-62440586D01*
X191976788Y-62338768D01*
X191822445Y-62260127D01*
X191657701Y-62206598D01*
X191657699Y-62206597D01*
X191657698Y-62206597D01*
X191526271Y-62185781D01*
X191486611Y-62179500D01*
X190513389Y-62179500D01*
X190473728Y-62185781D01*
X190342302Y-62206597D01*
X190177552Y-62260128D01*
X190023211Y-62338768D01*
X189952645Y-62390038D01*
X189883072Y-62440586D01*
X189883070Y-62440588D01*
X189883069Y-62440588D01*
X189760588Y-62563069D01*
X189760588Y-62563070D01*
X189760586Y-62563072D01*
X189716859Y-62623256D01*
X189658768Y-62703211D01*
X189580128Y-62857552D01*
X189526597Y-63022302D01*
X189499500Y-63193389D01*
X169640500Y-63193389D01*
X169613402Y-63022299D01*
X169559873Y-62857555D01*
X169481232Y-62703212D01*
X169379414Y-62563072D01*
X169256928Y-62440586D01*
X169116788Y-62338768D01*
X168962445Y-62260127D01*
X168797701Y-62206598D01*
X168797699Y-62206597D01*
X168797698Y-62206597D01*
X168666271Y-62185781D01*
X168626611Y-62179500D01*
X167653389Y-62179500D01*
X167613728Y-62185781D01*
X167482302Y-62206597D01*
X167317552Y-62260128D01*
X167163211Y-62338768D01*
X167092645Y-62390038D01*
X167023072Y-62440586D01*
X167023070Y-62440588D01*
X167023069Y-62440588D01*
X166900588Y-62563069D01*
X166900588Y-62563070D01*
X166900586Y-62563072D01*
X166856859Y-62623256D01*
X166798768Y-62703211D01*
X166720128Y-62857552D01*
X166666597Y-63022302D01*
X166639500Y-63193389D01*
X132979800Y-63193389D01*
X132979800Y-63021634D01*
X132949026Y-62827338D01*
X132920820Y-62740531D01*
X132888235Y-62640244D01*
X132888233Y-62640241D01*
X132888233Y-62640239D01*
X132798924Y-62464962D01*
X132781214Y-62440586D01*
X132683294Y-62305811D01*
X132544190Y-62166707D01*
X132385038Y-62051076D01*
X132209761Y-61961767D01*
X132022662Y-61900974D01*
X131828366Y-61870201D01*
X131828361Y-61870201D01*
X131631639Y-61870201D01*
X131631634Y-61870201D01*
X131437337Y-61900974D01*
X131250238Y-61961767D01*
X131074961Y-62051076D01*
X130984159Y-62117048D01*
X130915810Y-62166707D01*
X130915808Y-62166709D01*
X130915807Y-62166709D01*
X130776708Y-62305808D01*
X130776708Y-62305809D01*
X130776706Y-62305811D01*
X130727047Y-62374160D01*
X130661075Y-62464962D01*
X130571766Y-62640239D01*
X130510973Y-62827338D01*
X130480200Y-63021634D01*
X121015460Y-63021634D01*
X121015456Y-63016861D01*
X121014425Y-61636633D01*
X133020200Y-61636633D01*
X133020200Y-61833366D01*
X133050973Y-62027662D01*
X133111766Y-62214761D01*
X133201075Y-62390038D01*
X133316706Y-62549190D01*
X133455810Y-62688294D01*
X133614962Y-62803925D01*
X133660913Y-62827338D01*
X133790238Y-62893233D01*
X133790240Y-62893233D01*
X133790243Y-62893235D01*
X133890530Y-62925820D01*
X133977337Y-62954026D01*
X134171634Y-62984800D01*
X134171639Y-62984800D01*
X134368366Y-62984800D01*
X134562662Y-62954026D01*
X134749757Y-62893235D01*
X134925038Y-62803925D01*
X135084190Y-62688294D01*
X135223294Y-62549190D01*
X135338925Y-62390038D01*
X135428235Y-62214757D01*
X135489026Y-62027662D01*
X135499463Y-61961766D01*
X135519800Y-61833366D01*
X135519800Y-61636633D01*
X135489026Y-61442337D01*
X135428233Y-61255238D01*
X135338924Y-61079961D01*
X135223294Y-60920810D01*
X135084190Y-60781706D01*
X134925038Y-60666075D01*
X134900141Y-60653389D01*
X166639500Y-60653389D01*
X166639500Y-60826611D01*
X166666598Y-60997701D01*
X166720127Y-61162445D01*
X166798768Y-61316788D01*
X166900586Y-61456928D01*
X167023072Y-61579414D01*
X167163212Y-61681232D01*
X167317555Y-61759873D01*
X167482299Y-61813402D01*
X167653389Y-61840500D01*
X167653390Y-61840500D01*
X168626610Y-61840500D01*
X168626611Y-61840500D01*
X168797701Y-61813402D01*
X168962445Y-61759873D01*
X169116788Y-61681232D01*
X169256928Y-61579414D01*
X169379414Y-61456928D01*
X169481232Y-61316788D01*
X169559873Y-61162445D01*
X169613402Y-60997701D01*
X169640500Y-60826611D01*
X169640500Y-60653389D01*
X189499500Y-60653389D01*
X189499500Y-60826611D01*
X189526598Y-60997701D01*
X189580127Y-61162445D01*
X189658768Y-61316788D01*
X189760586Y-61456928D01*
X189883072Y-61579414D01*
X190023212Y-61681232D01*
X190177555Y-61759873D01*
X190342299Y-61813402D01*
X190513389Y-61840500D01*
X190513390Y-61840500D01*
X191486610Y-61840500D01*
X191486611Y-61840500D01*
X191657701Y-61813402D01*
X191822445Y-61759873D01*
X191976788Y-61681232D01*
X192116928Y-61579414D01*
X192239414Y-61456928D01*
X192341232Y-61316788D01*
X192419873Y-61162445D01*
X192473402Y-60997701D01*
X192500500Y-60826611D01*
X192500500Y-60653389D01*
X192473402Y-60482299D01*
X192419873Y-60317555D01*
X192341232Y-60163212D01*
X192239414Y-60023072D01*
X192116928Y-59900586D01*
X191976788Y-59798768D01*
X191822445Y-59720127D01*
X191657701Y-59666598D01*
X191657699Y-59666597D01*
X191657698Y-59666597D01*
X191526271Y-59645781D01*
X191486611Y-59639500D01*
X190513389Y-59639500D01*
X190473728Y-59645781D01*
X190342302Y-59666597D01*
X190177552Y-59720128D01*
X190023211Y-59798768D01*
X189943256Y-59856859D01*
X189883072Y-59900586D01*
X189883070Y-59900588D01*
X189883069Y-59900588D01*
X189760588Y-60023069D01*
X189760588Y-60023070D01*
X189760586Y-60023072D01*
X189735689Y-60057340D01*
X189658768Y-60163211D01*
X189580128Y-60317552D01*
X189526597Y-60482302D01*
X189521264Y-60515974D01*
X189499500Y-60653389D01*
X169640500Y-60653389D01*
X169613402Y-60482299D01*
X169559873Y-60317555D01*
X169481232Y-60163212D01*
X169379414Y-60023072D01*
X169256928Y-59900586D01*
X169116788Y-59798768D01*
X168962445Y-59720127D01*
X168797701Y-59666598D01*
X168797699Y-59666597D01*
X168797698Y-59666597D01*
X168666271Y-59645781D01*
X168626611Y-59639500D01*
X167653389Y-59639500D01*
X167613728Y-59645781D01*
X167482302Y-59666597D01*
X167317552Y-59720128D01*
X167163211Y-59798768D01*
X167083256Y-59856859D01*
X167023072Y-59900586D01*
X167023070Y-59900588D01*
X167023069Y-59900588D01*
X166900588Y-60023069D01*
X166900588Y-60023070D01*
X166900586Y-60023072D01*
X166875689Y-60057340D01*
X166798768Y-60163211D01*
X166720128Y-60317552D01*
X166666597Y-60482302D01*
X166661264Y-60515974D01*
X166639500Y-60653389D01*
X134900141Y-60653389D01*
X134749761Y-60576766D01*
X134562662Y-60515973D01*
X134368366Y-60485200D01*
X134368361Y-60485200D01*
X134171639Y-60485200D01*
X134171634Y-60485200D01*
X133977337Y-60515973D01*
X133790238Y-60576766D01*
X133614961Y-60666075D01*
X133524159Y-60732047D01*
X133455810Y-60781706D01*
X133455808Y-60781708D01*
X133455807Y-60781708D01*
X133316708Y-60920807D01*
X133316708Y-60920808D01*
X133316706Y-60920810D01*
X133267047Y-60989159D01*
X133201075Y-61079961D01*
X133111766Y-61255238D01*
X133050973Y-61442337D01*
X133020200Y-61636633D01*
X121014425Y-61636633D01*
X121013390Y-60251635D01*
X130480200Y-60251635D01*
X130480200Y-60448368D01*
X130510973Y-60642664D01*
X130571766Y-60829763D01*
X130657334Y-60997697D01*
X130661075Y-61005040D01*
X130776706Y-61164192D01*
X130915810Y-61303296D01*
X131074962Y-61418927D01*
X131120907Y-61442337D01*
X131250238Y-61508235D01*
X131250240Y-61508235D01*
X131250243Y-61508237D01*
X131350530Y-61540822D01*
X131437337Y-61569028D01*
X131631634Y-61599802D01*
X131631639Y-61599802D01*
X131828366Y-61599802D01*
X132022662Y-61569028D01*
X132209757Y-61508237D01*
X132385038Y-61418927D01*
X132544190Y-61303296D01*
X132683294Y-61164192D01*
X132798925Y-61005040D01*
X132888235Y-60829759D01*
X132949026Y-60642664D01*
X132959463Y-60576766D01*
X132979800Y-60448368D01*
X132979800Y-60251635D01*
X132949026Y-60057339D01*
X132888233Y-59870240D01*
X132841120Y-59777776D01*
X132798925Y-59694964D01*
X132683294Y-59535812D01*
X132544190Y-59396708D01*
X132385038Y-59281077D01*
X132369975Y-59273402D01*
X132209761Y-59191768D01*
X132022662Y-59130975D01*
X131828366Y-59100202D01*
X131828361Y-59100202D01*
X131631639Y-59100202D01*
X131631634Y-59100202D01*
X131437337Y-59130975D01*
X131250238Y-59191768D01*
X131074961Y-59281077D01*
X130984159Y-59347049D01*
X130915810Y-59396708D01*
X130915808Y-59396710D01*
X130915807Y-59396710D01*
X130776708Y-59535809D01*
X130776708Y-59535810D01*
X130776706Y-59535812D01*
X130727047Y-59604161D01*
X130661075Y-59694963D01*
X130571766Y-59870240D01*
X130510973Y-60057339D01*
X130480200Y-60251635D01*
X121013390Y-60251635D01*
X121013386Y-60246862D01*
X121013339Y-60184027D01*
X121012355Y-58866634D01*
X133020200Y-58866634D01*
X133020200Y-59063367D01*
X133050973Y-59257663D01*
X133111766Y-59444762D01*
X133158158Y-59535810D01*
X133201075Y-59620039D01*
X133316706Y-59779191D01*
X133455810Y-59918295D01*
X133614962Y-60033926D01*
X133660913Y-60057339D01*
X133790238Y-60123234D01*
X133790240Y-60123234D01*
X133790243Y-60123236D01*
X133890530Y-60155821D01*
X133977337Y-60184027D01*
X134171634Y-60214801D01*
X134171639Y-60214801D01*
X134368366Y-60214801D01*
X134562662Y-60184027D01*
X134749757Y-60123236D01*
X134925038Y-60033926D01*
X135084190Y-59918295D01*
X135223294Y-59779191D01*
X135338925Y-59620039D01*
X135428235Y-59444758D01*
X135489026Y-59257663D01*
X135507467Y-59141231D01*
X135519800Y-59063367D01*
X135519800Y-58866634D01*
X135489026Y-58672338D01*
X135428233Y-58485239D01*
X135338924Y-58309962D01*
X135223294Y-58150811D01*
X135185872Y-58113389D01*
X166639500Y-58113389D01*
X166639500Y-58286611D01*
X166666598Y-58457701D01*
X166720127Y-58622445D01*
X166798768Y-58776788D01*
X166900586Y-58916928D01*
X167023072Y-59039414D01*
X167163212Y-59141232D01*
X167317555Y-59219873D01*
X167482299Y-59273402D01*
X167653389Y-59300500D01*
X167653390Y-59300500D01*
X168626610Y-59300500D01*
X168626611Y-59300500D01*
X168797701Y-59273402D01*
X168962445Y-59219873D01*
X169116788Y-59141232D01*
X169256928Y-59039414D01*
X169379414Y-58916928D01*
X169481232Y-58776788D01*
X169559873Y-58622445D01*
X169613402Y-58457701D01*
X169640500Y-58286611D01*
X169640500Y-58113389D01*
X189499500Y-58113389D01*
X189499500Y-58286611D01*
X189526598Y-58457701D01*
X189580127Y-58622445D01*
X189658768Y-58776788D01*
X189760586Y-58916928D01*
X189883072Y-59039414D01*
X190023212Y-59141232D01*
X190177555Y-59219873D01*
X190342299Y-59273402D01*
X190513389Y-59300500D01*
X190513390Y-59300500D01*
X191486610Y-59300500D01*
X191486611Y-59300500D01*
X191657701Y-59273402D01*
X191822445Y-59219873D01*
X191976788Y-59141232D01*
X192116928Y-59039414D01*
X192239414Y-58916928D01*
X192341232Y-58776788D01*
X192419873Y-58622445D01*
X192473402Y-58457701D01*
X192500500Y-58286611D01*
X192500500Y-58113389D01*
X192473402Y-57942299D01*
X192419873Y-57777555D01*
X192341232Y-57623212D01*
X192239414Y-57483072D01*
X192116928Y-57360586D01*
X191976788Y-57258768D01*
X191822445Y-57180127D01*
X191657701Y-57126598D01*
X191657699Y-57126597D01*
X191657698Y-57126597D01*
X191526271Y-57105781D01*
X191486611Y-57099500D01*
X190513389Y-57099500D01*
X190473728Y-57105781D01*
X190342302Y-57126597D01*
X190177552Y-57180128D01*
X190023211Y-57258768D01*
X189943256Y-57316859D01*
X189883072Y-57360586D01*
X189883070Y-57360588D01*
X189883069Y-57360588D01*
X189760588Y-57483069D01*
X189760588Y-57483070D01*
X189760586Y-57483072D01*
X189716859Y-57543256D01*
X189658768Y-57623211D01*
X189580128Y-57777552D01*
X189526597Y-57942302D01*
X189499500Y-58113389D01*
X169640500Y-58113389D01*
X169613402Y-57942299D01*
X169559873Y-57777555D01*
X169481232Y-57623212D01*
X169379414Y-57483072D01*
X169256928Y-57360586D01*
X169116788Y-57258768D01*
X168962445Y-57180127D01*
X168797701Y-57126598D01*
X168797699Y-57126597D01*
X168797698Y-57126597D01*
X168666271Y-57105781D01*
X168626611Y-57099500D01*
X167653389Y-57099500D01*
X167613728Y-57105781D01*
X167482302Y-57126597D01*
X167317552Y-57180128D01*
X167163211Y-57258768D01*
X167083256Y-57316859D01*
X167023072Y-57360586D01*
X167023070Y-57360588D01*
X167023069Y-57360588D01*
X166900588Y-57483069D01*
X166900588Y-57483070D01*
X166900586Y-57483072D01*
X166856859Y-57543256D01*
X166798768Y-57623211D01*
X166720128Y-57777552D01*
X166666597Y-57942302D01*
X166639500Y-58113389D01*
X135185872Y-58113389D01*
X135084190Y-58011707D01*
X134925038Y-57896076D01*
X134749761Y-57806767D01*
X134562662Y-57745974D01*
X134368366Y-57715201D01*
X134368361Y-57715201D01*
X134171639Y-57715201D01*
X134171634Y-57715201D01*
X133977337Y-57745974D01*
X133790238Y-57806767D01*
X133614961Y-57896076D01*
X133524159Y-57962048D01*
X133455810Y-58011707D01*
X133455808Y-58011709D01*
X133455807Y-58011709D01*
X133316708Y-58150808D01*
X133316708Y-58150809D01*
X133316706Y-58150811D01*
X133294480Y-58181403D01*
X133201075Y-58309962D01*
X133111766Y-58485239D01*
X133050973Y-58672338D01*
X133020200Y-58866634D01*
X121012355Y-58866634D01*
X121009475Y-55012135D01*
X166639500Y-55012135D01*
X166639500Y-56307870D01*
X166639501Y-56307876D01*
X166645908Y-56367483D01*
X166696202Y-56502328D01*
X166696206Y-56502335D01*
X166782452Y-56617544D01*
X166782455Y-56617547D01*
X166897664Y-56703793D01*
X166897671Y-56703797D01*
X167032517Y-56754091D01*
X167032516Y-56754091D01*
X167039444Y-56754835D01*
X167092127Y-56760500D01*
X169187872Y-56760499D01*
X169247483Y-56754091D01*
X169382331Y-56703796D01*
X169497546Y-56617546D01*
X169583796Y-56502331D01*
X169634091Y-56367483D01*
X169640500Y-56307873D01*
X169640499Y-55409999D01*
X189525884Y-55409999D01*
X189525885Y-55410000D01*
X190684314Y-55410000D01*
X190679920Y-55414394D01*
X190627259Y-55505606D01*
X190600000Y-55607339D01*
X190600000Y-55712661D01*
X190627259Y-55814394D01*
X190679920Y-55905606D01*
X190684314Y-55910000D01*
X189525885Y-55910000D01*
X189527085Y-55917584D01*
X189580591Y-56082255D01*
X189659195Y-56236524D01*
X189760967Y-56376602D01*
X189883397Y-56499032D01*
X190023475Y-56600804D01*
X190177742Y-56679408D01*
X190342415Y-56732914D01*
X190513429Y-56760000D01*
X190750000Y-56760000D01*
X190750000Y-55975686D01*
X190754394Y-55980080D01*
X190845606Y-56032741D01*
X190947339Y-56060000D01*
X191052661Y-56060000D01*
X191154394Y-56032741D01*
X191245606Y-55980080D01*
X191250000Y-55975686D01*
X191250000Y-56760000D01*
X191486571Y-56760000D01*
X191657584Y-56732914D01*
X191822257Y-56679408D01*
X191976524Y-56600804D01*
X192116602Y-56499032D01*
X192239032Y-56376602D01*
X192340804Y-56236524D01*
X192419408Y-56082255D01*
X192472914Y-55917584D01*
X192474115Y-55910000D01*
X191315686Y-55910000D01*
X191320080Y-55905606D01*
X191372741Y-55814394D01*
X191400000Y-55712661D01*
X191400000Y-55607339D01*
X191372741Y-55505606D01*
X191320080Y-55414394D01*
X191315686Y-55410000D01*
X192474115Y-55410000D01*
X192474115Y-55409999D01*
X192472914Y-55402415D01*
X192419408Y-55237744D01*
X192340804Y-55083475D01*
X192239032Y-54943397D01*
X192116602Y-54820967D01*
X191976524Y-54719195D01*
X191822257Y-54640591D01*
X191657584Y-54587085D01*
X191486571Y-54560000D01*
X191250000Y-54560000D01*
X191250000Y-55344314D01*
X191245606Y-55339920D01*
X191154394Y-55287259D01*
X191052661Y-55260000D01*
X190947339Y-55260000D01*
X190845606Y-55287259D01*
X190754394Y-55339920D01*
X190750000Y-55344314D01*
X190750000Y-54560000D01*
X190513429Y-54560000D01*
X190342415Y-54587085D01*
X190177742Y-54640591D01*
X190023475Y-54719195D01*
X189883397Y-54820967D01*
X189760967Y-54943397D01*
X189659195Y-55083475D01*
X189580591Y-55237744D01*
X189527085Y-55402415D01*
X189525884Y-55409999D01*
X169640499Y-55409999D01*
X169640499Y-55012128D01*
X169634091Y-54952517D01*
X169630689Y-54943397D01*
X169583797Y-54817671D01*
X169583793Y-54817664D01*
X169497547Y-54702455D01*
X169497544Y-54702452D01*
X169382335Y-54616206D01*
X169382328Y-54616202D01*
X169247482Y-54565908D01*
X169247483Y-54565908D01*
X169187883Y-54559501D01*
X169187881Y-54559500D01*
X169187873Y-54559500D01*
X169187864Y-54559500D01*
X167092129Y-54559500D01*
X167092123Y-54559501D01*
X167032516Y-54565908D01*
X166897671Y-54616202D01*
X166897664Y-54616206D01*
X166782455Y-54702452D01*
X166782452Y-54702455D01*
X166696206Y-54817664D01*
X166696202Y-54817671D01*
X166645908Y-54952517D01*
X166639847Y-55008899D01*
X166639501Y-55012123D01*
X166639500Y-55012135D01*
X121009475Y-55012135D01*
X121007135Y-51880018D01*
X131348500Y-51880018D01*
X131348500Y-52139981D01*
X131389164Y-52396727D01*
X131469496Y-52643960D01*
X131587510Y-52875575D01*
X131740306Y-53085880D01*
X131924120Y-53269694D01*
X132134425Y-53422490D01*
X132243857Y-53478248D01*
X132366039Y-53540503D01*
X132366041Y-53540503D01*
X132366044Y-53540505D01*
X132498564Y-53583563D01*
X132613272Y-53620835D01*
X132870019Y-53661500D01*
X132870024Y-53661500D01*
X133129981Y-53661500D01*
X133386727Y-53620835D01*
X133633956Y-53540505D01*
X133865575Y-53422490D01*
X134075880Y-53269694D01*
X134259694Y-53085880D01*
X134412490Y-52875575D01*
X134530505Y-52643956D01*
X134610835Y-52396727D01*
X134651500Y-52139981D01*
X134651500Y-51880018D01*
X134610835Y-51623272D01*
X134530503Y-51376039D01*
X134412489Y-51144424D01*
X134259694Y-50934120D01*
X134075880Y-50750306D01*
X133865575Y-50597510D01*
X133633960Y-50479496D01*
X133386727Y-50399164D01*
X133129981Y-50358500D01*
X133129976Y-50358500D01*
X132870024Y-50358500D01*
X132870019Y-50358500D01*
X132613272Y-50399164D01*
X132366039Y-50479496D01*
X132134424Y-50597510D01*
X132014438Y-50684685D01*
X131924120Y-50750306D01*
X131924118Y-50750308D01*
X131924117Y-50750308D01*
X131740308Y-50934117D01*
X131740308Y-50934118D01*
X131740306Y-50934120D01*
X131674685Y-51024438D01*
X131587510Y-51144424D01*
X131469496Y-51376039D01*
X131389164Y-51623272D01*
X131348500Y-51880018D01*
X121007135Y-51880018D01*
X121000502Y-43002705D01*
X121000616Y-42997294D01*
X121006892Y-42851146D01*
X128349500Y-42851146D01*
X128349500Y-43148853D01*
X128382830Y-43444662D01*
X128382832Y-43444674D01*
X128449076Y-43734912D01*
X128449079Y-43734920D01*
X128547400Y-44015904D01*
X128676563Y-44284114D01*
X128676565Y-44284117D01*
X128834950Y-44536185D01*
X129020562Y-44768934D01*
X129231066Y-44979438D01*
X129463815Y-45165050D01*
X129715883Y-45323435D01*
X129984099Y-45452601D01*
X130195135Y-45526445D01*
X130265079Y-45550920D01*
X130265087Y-45550923D01*
X130265090Y-45550923D01*
X130265091Y-45550924D01*
X130555325Y-45617168D01*
X130851147Y-45650499D01*
X130851148Y-45650500D01*
X130851151Y-45650500D01*
X131148852Y-45650500D01*
X131148852Y-45650499D01*
X131444675Y-45617168D01*
X131734909Y-45550924D01*
X132015901Y-45452601D01*
X132284117Y-45323435D01*
X132536185Y-45165050D01*
X132768934Y-44979438D01*
X132979438Y-44768934D01*
X133165050Y-44536185D01*
X133323435Y-44284117D01*
X133452601Y-44015901D01*
X133550924Y-43734909D01*
X133617168Y-43444675D01*
X133650500Y-43148849D01*
X133650500Y-42851151D01*
X133650499Y-42851146D01*
X189349500Y-42851146D01*
X189349500Y-43148853D01*
X189382830Y-43444662D01*
X189382832Y-43444674D01*
X189449076Y-43734912D01*
X189449079Y-43734920D01*
X189547400Y-44015904D01*
X189676563Y-44284114D01*
X189676565Y-44284117D01*
X189834950Y-44536185D01*
X190020562Y-44768934D01*
X190231066Y-44979438D01*
X190463815Y-45165050D01*
X190715883Y-45323435D01*
X190984099Y-45452601D01*
X191195135Y-45526445D01*
X191265079Y-45550920D01*
X191265087Y-45550923D01*
X191265090Y-45550923D01*
X191265091Y-45550924D01*
X191555325Y-45617168D01*
X191851147Y-45650499D01*
X191851148Y-45650500D01*
X191851151Y-45650500D01*
X192148852Y-45650500D01*
X192148852Y-45650499D01*
X192444675Y-45617168D01*
X192734909Y-45550924D01*
X193015901Y-45452601D01*
X193284117Y-45323435D01*
X193536185Y-45165050D01*
X193768934Y-44979438D01*
X193979438Y-44768934D01*
X194165050Y-44536185D01*
X194323435Y-44284117D01*
X194452601Y-44015901D01*
X194550924Y-43734909D01*
X194617168Y-43444675D01*
X194650500Y-43148849D01*
X194650500Y-42851151D01*
X194617168Y-42555325D01*
X194550924Y-42265091D01*
X194452601Y-41984099D01*
X194323435Y-41715883D01*
X194165050Y-41463815D01*
X193979438Y-41231066D01*
X193768934Y-41020562D01*
X193536185Y-40834950D01*
X193284117Y-40676565D01*
X193284114Y-40676563D01*
X193015904Y-40547400D01*
X192734920Y-40449079D01*
X192734912Y-40449076D01*
X192517233Y-40399393D01*
X192444675Y-40382832D01*
X192444671Y-40382831D01*
X192444662Y-40382830D01*
X192148853Y-40349500D01*
X192148849Y-40349500D01*
X191851151Y-40349500D01*
X191851146Y-40349500D01*
X191555337Y-40382830D01*
X191555325Y-40382832D01*
X191265087Y-40449076D01*
X191265079Y-40449079D01*
X190984095Y-40547400D01*
X190715885Y-40676563D01*
X190463816Y-40834949D01*
X190231066Y-41020561D01*
X190020561Y-41231066D01*
X189834949Y-41463816D01*
X189676563Y-41715885D01*
X189547400Y-41984095D01*
X189449079Y-42265079D01*
X189449076Y-42265087D01*
X189382832Y-42555325D01*
X189382830Y-42555337D01*
X189349500Y-42851146D01*
X133650499Y-42851146D01*
X133617168Y-42555325D01*
X133550924Y-42265091D01*
X133452601Y-41984099D01*
X133323435Y-41715883D01*
X133165050Y-41463815D01*
X132979438Y-41231066D01*
X132768934Y-41020562D01*
X132536185Y-40834950D01*
X132284117Y-40676565D01*
X132284114Y-40676563D01*
X132015904Y-40547400D01*
X131734920Y-40449079D01*
X131734908Y-40449075D01*
X131707084Y-40442725D01*
X131707083Y-40442725D01*
X131444675Y-40382832D01*
X131444671Y-40382831D01*
X131444662Y-40382830D01*
X131148853Y-40349500D01*
X131148849Y-40349500D01*
X130851151Y-40349500D01*
X130851146Y-40349500D01*
X130555337Y-40382830D01*
X130555325Y-40382832D01*
X130265087Y-40449076D01*
X130265079Y-40449079D01*
X129984095Y-40547400D01*
X129715885Y-40676563D01*
X129463816Y-40834949D01*
X129231066Y-41020561D01*
X129020561Y-41231066D01*
X128834949Y-41463816D01*
X128676563Y-41715885D01*
X128547400Y-41984095D01*
X128449079Y-42265079D01*
X128449076Y-42265087D01*
X128382832Y-42555325D01*
X128382830Y-42555337D01*
X128349500Y-42851146D01*
X121006892Y-42851146D01*
X121007270Y-42842352D01*
X121009722Y-42785252D01*
X121017024Y-42615225D01*
X121017422Y-42609301D01*
X121025566Y-42520604D01*
X121026066Y-42516086D01*
X121069445Y-42181041D01*
X121070484Y-42174434D01*
X121085449Y-42093626D01*
X121086180Y-42090002D01*
X121159836Y-41752049D01*
X121161620Y-41744903D01*
X121180275Y-41678705D01*
X121181127Y-41675825D01*
X121287685Y-41331875D01*
X121290333Y-41324231D01*
X121306225Y-41282795D01*
X121307066Y-41280666D01*
X121451937Y-40924455D01*
X121456343Y-40914828D01*
X121646618Y-40542192D01*
X121651846Y-40532954D01*
X121781639Y-40324983D01*
X153899500Y-40324983D01*
X153899500Y-41675001D01*
X153899501Y-41675018D01*
X153910000Y-41777796D01*
X153910001Y-41777799D01*
X153965185Y-41944331D01*
X153965187Y-41944336D01*
X153984842Y-41976202D01*
X154057288Y-42093656D01*
X154181344Y-42217712D01*
X154330666Y-42309814D01*
X154497203Y-42364999D01*
X154599991Y-42375500D01*
X155400008Y-42375499D01*
X155400016Y-42375498D01*
X155400019Y-42375498D01*
X155456302Y-42369748D01*
X155502797Y-42364999D01*
X155669334Y-42309814D01*
X155818656Y-42217712D01*
X155942712Y-42093656D01*
X155982310Y-42029456D01*
X156034258Y-41982732D01*
X156103220Y-41971509D01*
X156167303Y-41999352D01*
X156175530Y-42006872D01*
X156283072Y-42114414D01*
X156423212Y-42216232D01*
X156577555Y-42294873D01*
X156742299Y-42348402D01*
X156913389Y-42375500D01*
X156913390Y-42375500D01*
X157086610Y-42375500D01*
X157086611Y-42375500D01*
X157257701Y-42348402D01*
X157422445Y-42294873D01*
X157576788Y-42216232D01*
X157716928Y-42114414D01*
X157839414Y-41991928D01*
X157899682Y-41908975D01*
X157955012Y-41866311D01*
X158024626Y-41860332D01*
X158086421Y-41892938D01*
X158100315Y-41908973D01*
X158160586Y-41991928D01*
X158283072Y-42114414D01*
X158423212Y-42216232D01*
X158577555Y-42294873D01*
X158742299Y-42348402D01*
X158913389Y-42375500D01*
X158913390Y-42375500D01*
X159086610Y-42375500D01*
X159086611Y-42375500D01*
X159257701Y-42348402D01*
X159422445Y-42294873D01*
X159576788Y-42216232D01*
X159716928Y-42114414D01*
X159839414Y-41991928D01*
X159899991Y-41908550D01*
X159955321Y-41865885D01*
X160024934Y-41859906D01*
X160086729Y-41892512D01*
X160100628Y-41908551D01*
X160160967Y-41991602D01*
X160283397Y-42114032D01*
X160423475Y-42215804D01*
X160577744Y-42294408D01*
X160742415Y-42347914D01*
X160742414Y-42347914D01*
X160749999Y-42349115D01*
X160750000Y-42349114D01*
X160750000Y-41280330D01*
X160769745Y-41300075D01*
X160855255Y-41349444D01*
X160950630Y-41375000D01*
X161049370Y-41375000D01*
X161144745Y-41349444D01*
X161230255Y-41300075D01*
X161250000Y-41280330D01*
X161250000Y-42349115D01*
X161257584Y-42347914D01*
X161422255Y-42294408D01*
X161576524Y-42215804D01*
X161716602Y-42114032D01*
X161839032Y-41991602D01*
X161940804Y-41851524D01*
X162019408Y-41697257D01*
X162072914Y-41532584D01*
X162100000Y-41361571D01*
X162100000Y-41250000D01*
X161280330Y-41250000D01*
X161300075Y-41230255D01*
X161349444Y-41144745D01*
X161375000Y-41049370D01*
X161375000Y-40950630D01*
X161349444Y-40855255D01*
X161300075Y-40769745D01*
X161280330Y-40750000D01*
X162100000Y-40750000D01*
X162100000Y-40638428D01*
X162072914Y-40467415D01*
X162019408Y-40302742D01*
X161940804Y-40148475D01*
X161839032Y-40008397D01*
X161716602Y-39885967D01*
X161576524Y-39784195D01*
X161422257Y-39705591D01*
X161257589Y-39652087D01*
X161257581Y-39652085D01*
X161250000Y-39650884D01*
X161250000Y-40719670D01*
X161230255Y-40699925D01*
X161144745Y-40650556D01*
X161049370Y-40625000D01*
X160950630Y-40625000D01*
X160855255Y-40650556D01*
X160769745Y-40699925D01*
X160750000Y-40719670D01*
X160750000Y-39650884D01*
X160749999Y-39650884D01*
X160742418Y-39652085D01*
X160742410Y-39652087D01*
X160577742Y-39705591D01*
X160423475Y-39784195D01*
X160283397Y-39885967D01*
X160160965Y-40008399D01*
X160160961Y-40008404D01*
X160100627Y-40091448D01*
X160045297Y-40134114D01*
X159975684Y-40140093D01*
X159913889Y-40107488D01*
X159899991Y-40091449D01*
X159899990Y-40091448D01*
X159839414Y-40008072D01*
X159716928Y-39885586D01*
X159576788Y-39783768D01*
X159422445Y-39705127D01*
X159257701Y-39651598D01*
X159257699Y-39651597D01*
X159257698Y-39651597D01*
X159126271Y-39630781D01*
X159086611Y-39624500D01*
X158913389Y-39624500D01*
X158873728Y-39630781D01*
X158742302Y-39651597D01*
X158577552Y-39705128D01*
X158423211Y-39783768D01*
X158343256Y-39841859D01*
X158283072Y-39885586D01*
X158283070Y-39885588D01*
X158283069Y-39885588D01*
X158160588Y-40008069D01*
X158160581Y-40008078D01*
X158100317Y-40091023D01*
X158044987Y-40133689D01*
X157975374Y-40139667D01*
X157913579Y-40107061D01*
X157899683Y-40091023D01*
X157839655Y-40008404D01*
X157839414Y-40008072D01*
X157716928Y-39885586D01*
X157576788Y-39783768D01*
X157422445Y-39705127D01*
X157257701Y-39651598D01*
X157257699Y-39651597D01*
X157257698Y-39651597D01*
X157126271Y-39630781D01*
X157086611Y-39624500D01*
X156913389Y-39624500D01*
X156873728Y-39630781D01*
X156742302Y-39651597D01*
X156577552Y-39705128D01*
X156423211Y-39783768D01*
X156283073Y-39885585D01*
X156175530Y-39993128D01*
X156114207Y-40026612D01*
X156044515Y-40021628D01*
X155988582Y-39979756D01*
X155982310Y-39970543D01*
X155942712Y-39906344D01*
X155818656Y-39782288D01*
X155693559Y-39705128D01*
X155669336Y-39690187D01*
X155669331Y-39690185D01*
X155667862Y-39689698D01*
X155502797Y-39635001D01*
X155502795Y-39635000D01*
X155400010Y-39624500D01*
X154599998Y-39624500D01*
X154599980Y-39624501D01*
X154497203Y-39635000D01*
X154497200Y-39635001D01*
X154330668Y-39690185D01*
X154330663Y-39690187D01*
X154181342Y-39782289D01*
X154057289Y-39906342D01*
X153965187Y-40055663D01*
X153965185Y-40055668D01*
X153952682Y-40093400D01*
X153910001Y-40222203D01*
X153910001Y-40222204D01*
X153910000Y-40222204D01*
X153899500Y-40324983D01*
X121781639Y-40324983D01*
X121873359Y-40178017D01*
X121879362Y-40169259D01*
X122130491Y-39834616D01*
X122137210Y-39826420D01*
X122416108Y-39514533D01*
X122423511Y-39506937D01*
X122728128Y-39220103D01*
X122736154Y-39213172D01*
X123064242Y-38953509D01*
X123072803Y-38947312D01*
X123393676Y-38735402D01*
X123395618Y-38734146D01*
X123433161Y-38710418D01*
X123440088Y-38706353D01*
X123756425Y-38534428D01*
X123759119Y-38533008D01*
X123820422Y-38501708D01*
X123827056Y-38498569D01*
X124143954Y-38360085D01*
X124147360Y-38358659D01*
X124223762Y-38328098D01*
X124229986Y-38325803D01*
X124550013Y-38217560D01*
X124554332Y-38216188D01*
X124639714Y-38190806D01*
X124645437Y-38189255D01*
X125005025Y-38101137D01*
X125034357Y-38097575D01*
X195886024Y-38000520D01*
X195915396Y-38004008D01*
G37*
%TD.AperFunction*%
%TD*%
M02*
