%TF.GenerationSoftware,KiCad,Pcbnew,9.0.0*%
%TF.CreationDate,2026-02-16T12:17:51+11:00*%
%TF.ProjectId,Battery_PCB,42617474-6572-4795-9f50-43422e6b6963,rev?*%
%TF.SameCoordinates,Original*%
%TF.FileFunction,Soldermask,Top*%
%TF.FilePolarity,Negative*%
%FSLAX46Y46*%
G04 Gerber Fmt 4.6, Leading zero omitted, Abs format (unit mm)*
G04 Created by KiCad (PCBNEW 9.0.0) date 2026-02-16 12:17:51*
%MOMM*%
%LPD*%
G01*
G04 APERTURE LIST*
G04 Aperture macros list*
%AMRoundRect*
0 Rectangle with rounded corners*
0 $1 Rounding radius*
0 $2 $3 $4 $5 $6 $7 $8 $9 X,Y pos of 4 corners*
0 Add a 4 corners polygon primitive as box body*
4,1,4,$2,$3,$4,$5,$6,$7,$8,$9,$2,$3,0*
0 Add four circle primitives for the rounded corners*
1,1,$1+$1,$2,$3*
1,1,$1+$1,$4,$5*
1,1,$1+$1,$6,$7*
1,1,$1+$1,$8,$9*
0 Add four rect primitives between the rounded corners*
20,1,$1+$1,$2,$3,$4,$5,0*
20,1,$1+$1,$4,$5,$6,$7,0*
20,1,$1+$1,$6,$7,$8,$9,0*
20,1,$1+$1,$8,$9,$2,$3,0*%
G04 Aperture macros list end*
%ADD10RoundRect,0.250000X0.337500X0.475000X-0.337500X0.475000X-0.337500X-0.475000X0.337500X-0.475000X0*%
%ADD11RoundRect,0.250000X0.475000X-0.337500X0.475000X0.337500X-0.475000X0.337500X-0.475000X-0.337500X0*%
%ADD12R,2.000000X1.200000*%
%ADD13O,2.000000X1.200000*%
%ADD14C,2.600000*%
%ADD15RoundRect,0.250000X-1.050000X-1.050000X1.050000X-1.050000X1.050000X1.050000X-1.050000X1.050000X0*%
%ADD16R,1.981200X0.558800*%
%ADD17RoundRect,0.237500X-0.237500X0.250000X-0.237500X-0.250000X0.237500X-0.250000X0.237500X0.250000X0*%
%ADD18C,5.300000*%
%ADD19C,3.302000*%
%ADD20C,1.498600*%
%ADD21RoundRect,0.237500X-0.237500X0.300000X-0.237500X-0.300000X0.237500X-0.300000X0.237500X0.300000X0*%
%ADD22RoundRect,0.250000X-0.350000X-0.625000X0.350000X-0.625000X0.350000X0.625000X-0.350000X0.625000X0*%
%ADD23O,1.200000X1.750000*%
%ADD24RoundRect,0.237500X0.300000X0.237500X-0.300000X0.237500X-0.300000X-0.237500X0.300000X-0.237500X0*%
G04 APERTURE END LIST*
D10*
%TO.C,C2*%
X158500000Y-113000000D03*
X160575000Y-113000000D03*
%TD*%
D11*
%TO.C,C4*%
X158706520Y-58900000D03*
X158706520Y-56825000D03*
%TD*%
D12*
%TO.C,U1*%
X168140000Y-55660000D03*
D13*
X168140000Y-58200000D03*
X168140000Y-60740000D03*
X168140000Y-63280000D03*
X168140000Y-65820000D03*
X168140000Y-68360000D03*
X168140000Y-70900000D03*
X168140000Y-73440000D03*
X168140000Y-75980000D03*
X168140000Y-78520000D03*
X168140000Y-81060000D03*
X168140000Y-83600000D03*
X168140000Y-86140000D03*
X168140000Y-88680000D03*
X168140000Y-91220000D03*
X168140000Y-93760000D03*
X168140000Y-96300000D03*
X168140000Y-98840000D03*
X168140000Y-101380000D03*
X168136320Y-103917280D03*
X168136320Y-106457280D03*
X168136320Y-108997280D03*
X191000000Y-109000000D03*
X191000000Y-106460000D03*
X191000000Y-103920000D03*
X191000000Y-101380000D03*
X191000000Y-98840000D03*
X191000000Y-96300000D03*
X191000000Y-93760000D03*
X191000000Y-91220000D03*
X191000000Y-88680000D03*
X191000000Y-86140000D03*
X191000000Y-83600000D03*
X191000000Y-81060000D03*
X191000000Y-78520000D03*
X191000000Y-75980000D03*
X191000000Y-73440000D03*
X191000000Y-70900000D03*
X191000000Y-68360000D03*
X191000000Y-65820000D03*
X191000000Y-63280000D03*
X191000000Y-60740000D03*
X191000000Y-58200000D03*
X191000000Y-55660000D03*
%TD*%
D14*
%TO.C,J5*%
X160000000Y-122000000D03*
D15*
X154920000Y-122000000D03*
%TD*%
D16*
%TO.C,U2*%
X147061200Y-62000000D03*
X147061200Y-60730000D03*
X147061200Y-59460000D03*
X147061200Y-58190000D03*
X151988800Y-58190000D03*
X151988800Y-59460000D03*
X151988800Y-60730000D03*
X151988800Y-62000000D03*
%TD*%
D17*
%TO.C,R1*%
X144000000Y-63175000D03*
X144000000Y-65000000D03*
%TD*%
D18*
%TO.C,H2*%
X192000000Y-123000000D03*
%TD*%
D19*
%TO.C,J2*%
X133000000Y-77000000D03*
X133000000Y-52010000D03*
D20*
X134270000Y-70044999D03*
X134270000Y-67274999D03*
X134270000Y-64505000D03*
X134270000Y-61735000D03*
X134270000Y-58965001D03*
X131730000Y-68660001D03*
X131730000Y-65890001D03*
X131730000Y-63120001D03*
X131730000Y-60350002D03*
%TD*%
D18*
%TO.C,H3*%
X131000000Y-43000000D03*
%TD*%
D21*
%TO.C,C3*%
X162706520Y-57000000D03*
X162706520Y-58725000D03*
%TD*%
D18*
%TO.C,H1*%
X192000000Y-43000000D03*
%TD*%
D22*
%TO.C,J1*%
X155000000Y-41000000D03*
D23*
X157000000Y-41000000D03*
X159000000Y-41000000D03*
X161000000Y-41000000D03*
%TD*%
D18*
%TO.C,H4*%
X131000000Y-123000000D03*
%TD*%
D24*
%TO.C,C1*%
X160400000Y-108875000D03*
X158675000Y-108875000D03*
%TD*%
D19*
%TO.C,J3*%
X133000000Y-113990000D03*
X133000000Y-89000000D03*
D20*
X134270000Y-107034999D03*
X134270000Y-104264999D03*
X134270000Y-101495000D03*
X134270000Y-98725000D03*
X134270000Y-95955001D03*
X131730000Y-105650001D03*
X131730000Y-102880001D03*
X131730000Y-100110001D03*
X131730000Y-97340002D03*
%TD*%
M02*
