M48
; DRILL file {KiCad 9.0.0} date 2026-02-16T12:18:10+1100
; FORMAT={-:-/ absolute / metric / decimal}
; #@! TF.CreationDate,2026-02-16T12:18:10+11:00
; #@! TF.GenerationSoftware,Kicad,Pcbnew,9.0.0
; #@! TF.FileFunction,Plated,1,2,PTH
FMAT,2
METRIC
; #@! TA.AperFunction,Plated,PTH,ViaDrill
T1C0.508
; #@! TA.AperFunction,Plated,PTH,ComponentDrill
T2C0.750
; #@! TA.AperFunction,Plated,PTH,ComponentDrill
T3C0.800
; #@! TA.AperFunction,Plated,PTH,ComponentDrill
T4C0.991
; #@! TA.AperFunction,Plated,PTH,ComponentDrill
T5C1.300
%
G90
G05
T1
X145.2Y-65.0
X154.0Y-60.8
X156.925Y-113.0
X157.175Y-108.875
X160.5Y-58.9
X164.2Y-58.7
T2
X155.0Y-41.0
X157.0Y-41.0
X159.0Y-41.0
X161.0Y-41.0
T3
X168.136Y-103.917
X168.136Y-106.457
X168.136Y-108.997
X168.14Y-55.66
X168.14Y-58.2
X168.14Y-60.74
X168.14Y-63.28
X168.14Y-65.82
X168.14Y-68.36
X168.14Y-70.9
X168.14Y-73.44
X168.14Y-75.98
X168.14Y-78.52
X168.14Y-81.06
X168.14Y-83.6
X168.14Y-86.14
X168.14Y-88.68
X168.14Y-91.22
X168.14Y-93.76
X168.14Y-96.3
X168.14Y-98.84
X168.14Y-101.38
X191.0Y-55.66
X191.0Y-58.2
X191.0Y-60.74
X191.0Y-63.28
X191.0Y-65.82
X191.0Y-68.36
X191.0Y-70.9
X191.0Y-73.44
X191.0Y-75.98
X191.0Y-78.52
X191.0Y-81.06
X191.0Y-83.6
X191.0Y-86.14
X191.0Y-88.68
X191.0Y-91.22
X191.0Y-93.76
X191.0Y-96.3
X191.0Y-98.84
X191.0Y-101.38
X191.0Y-103.92
X191.0Y-106.46
X191.0Y-109.0
T4
X131.73Y-60.35
X131.73Y-63.12
X131.73Y-65.89
X131.73Y-68.66
X131.73Y-97.34
X131.73Y-100.11
X131.73Y-102.88
X131.73Y-105.65
X134.27Y-58.965
X134.27Y-61.735
X134.27Y-64.505
X134.27Y-67.275
X134.27Y-70.045
X134.27Y-95.955
X134.27Y-98.725
X134.27Y-101.495
X134.27Y-104.265
X134.27Y-107.035
T5
X154.92Y-122.0
X160.0Y-122.0
M30
