M48
; DRILL file {KiCad 9.0.7} date 2026-03-17T16:40:46+1100
; FORMAT={-:-/ absolute / metric / decimal}
; #@! TF.CreationDate,2026-03-17T16:40:46+11:00
; #@! TF.GenerationSoftware,Kicad,Pcbnew,9.0.7
; #@! TF.FileFunction,Plated,1,2,PTH
FMAT,2
METRIC
; #@! TA.AperFunction,Plated,PTH,ViaDrill
T1C0.300
; #@! TA.AperFunction,Plated,PTH,ComponentDrill
T2C0.800
; #@! TA.AperFunction,Plated,PTH,ComponentDrill
T3C0.900
; #@! TA.AperFunction,Plated,PTH,ComponentDrill
T4C0.991
; #@! TA.AperFunction,Plated,PTH,ComponentDrill
T5C1.000
; #@! TA.AperFunction,Plated,PTH,ComponentDrill
T6C1.200
%
G90
G05
T1
X111.354Y-132.232
X149.714Y-80.714
T2
X72.19Y-80.0
X76.38Y-125.0
X76.383Y-102.136
X78.92Y-125.0
X78.923Y-102.136
X79.81Y-80.0
X81.46Y-125.0
X81.463Y-102.136
X84.0Y-102.14
X84.0Y-125.0
X86.54Y-102.14
X86.54Y-125.0
X86.966Y-76.76
X86.966Y-79.3
X86.966Y-81.84
X86.966Y-84.38
X86.966Y-86.92
X86.966Y-89.46
X86.966Y-92.0
X86.966Y-94.54
X89.08Y-102.14
X89.08Y-125.0
X91.62Y-102.14
X91.62Y-125.0
X94.16Y-102.14
X94.16Y-125.0
X96.7Y-102.14
X96.7Y-125.0
X99.24Y-102.14
X99.24Y-125.0
X101.78Y-102.14
X101.78Y-125.0
X104.32Y-102.14
X104.32Y-125.0
X105.0Y-76.76
X105.0Y-79.3
X105.0Y-81.84
X105.0Y-84.38
X105.0Y-86.92
X105.0Y-89.46
X105.0Y-92.0
X105.0Y-94.54
X106.86Y-102.14
X106.86Y-125.0
X109.4Y-102.14
X109.4Y-125.0
X111.94Y-102.14
X111.94Y-125.0
X112.0Y-87.19
X112.0Y-94.81
X114.48Y-102.14
X114.48Y-125.0
X117.02Y-102.14
X117.02Y-125.0
X119.56Y-102.14
X119.56Y-125.0
X122.1Y-102.14
X122.1Y-125.0
X124.64Y-102.14
X124.64Y-125.0
X127.18Y-102.14
X127.18Y-125.0
X129.72Y-102.14
X129.72Y-125.0
X141.0Y-101.19
X141.0Y-108.81
T3
X68.935Y-86.0
X69.06Y-94.0
X71.475Y-86.0
X71.6Y-94.0
T4
X152.46Y-74.305
X152.46Y-77.075
X152.46Y-79.845
X152.46Y-82.615
X152.46Y-85.385
X152.46Y-108.615
X152.46Y-111.385
X152.46Y-114.155
X152.46Y-116.925
X152.46Y-119.695
X155.0Y-75.69
X155.0Y-78.46
X155.0Y-81.23
X155.0Y-84.0
X155.0Y-110.0
X155.0Y-112.77
X155.0Y-115.54
X155.0Y-118.31
T5
X141.0Y-112.46
X141.0Y-115.0
T6
X72.704Y-69.51
X72.704Y-73.01
M30
