%TF.GenerationSoftware,KiCad,Pcbnew,9.0.7*%
%TF.CreationDate,2026-03-17T16:40:41+11:00*%
%TF.ProjectId,Horn Circuit,486f726e-2043-4697-9263-7569742e6b69,rev?*%
%TF.SameCoordinates,Original*%
%TF.FileFunction,Soldermask,Bot*%
%TF.FilePolarity,Negative*%
%FSLAX46Y46*%
G04 Gerber Fmt 4.6, Leading zero omitted, Abs format (unit mm)*
G04 Created by KiCad (PCBNEW 9.0.7) date 2026-03-17 16:40:41*
%MOMM*%
%LPD*%
G01*
G04 APERTURE LIST*
G04 Aperture macros list*
%AMRoundRect*
0 Rectangle with rounded corners*
0 $1 Rounding radius*
0 $2 $3 $4 $5 $6 $7 $8 $9 X,Y pos of 4 corners*
0 Add a 4 corners polygon primitive as box body*
4,1,4,$2,$3,$4,$5,$6,$7,$8,$9,$2,$3,0*
0 Add four circle primitives for the rounded corners*
1,1,$1+$1,$2,$3*
1,1,$1+$1,$4,$5*
1,1,$1+$1,$6,$7*
1,1,$1+$1,$8,$9*
0 Add four rect primitives between the rounded corners*
20,1,$1+$1,$2,$3,$4,$5,0*
20,1,$1+$1,$4,$5,$6,$7,0*
20,1,$1+$1,$6,$7,$8,$9,0*
20,1,$1+$1,$8,$9,$2,$3,0*%
G04 Aperture macros list end*
%ADD10C,3.200000*%
%ADD11C,1.600000*%
%ADD12C,3.302000*%
%ADD13C,1.498600*%
%ADD14R,1.700000X1.700000*%
%ADD15C,1.700000*%
%ADD16RoundRect,0.102000X0.654000X0.654000X-0.654000X0.654000X-0.654000X-0.654000X0.654000X-0.654000X0*%
%ADD17C,1.512000*%
%ADD18R,1.200000X2.000000*%
%ADD19O,1.200000X2.000000*%
%ADD20R,1.800000X1.800000*%
%ADD21C,1.800000*%
%ADD22RoundRect,0.250001X-0.949999X0.949999X-0.949999X-0.949999X0.949999X-0.949999X0.949999X0.949999X0*%
%ADD23C,2.400000*%
G04 APERTURE END LIST*
D10*
%TO.C,H3*%
X161000000Y-144000000D03*
%TD*%
%TO.C,H2*%
X146000000Y-62000000D03*
%TD*%
%TO.C,H4*%
X98000000Y-144000000D03*
%TD*%
D11*
%TO.C,R2*%
X72190000Y-80000000D03*
X79810000Y-80000000D03*
%TD*%
D12*
%TO.C,J4*%
X153730000Y-67350002D03*
X153730000Y-92340002D03*
D13*
X152460000Y-74305003D03*
X152460000Y-77075003D03*
X152460000Y-79845002D03*
X152460000Y-82615002D03*
X152460000Y-85385001D03*
X155000000Y-75690001D03*
X155000000Y-78460001D03*
X155000000Y-81230001D03*
X155000000Y-84000000D03*
%TD*%
D12*
%TO.C,J2*%
X153730000Y-101660001D03*
X153730000Y-126650001D03*
D13*
X152460000Y-108615002D03*
X152460000Y-111385002D03*
X152460000Y-114155001D03*
X152460000Y-116925001D03*
X152460000Y-119695000D03*
X155000000Y-110000000D03*
X155000000Y-112770000D03*
X155000000Y-115540000D03*
X155000000Y-118309999D03*
%TD*%
D14*
%TO.C,JP1*%
X141000000Y-115000000D03*
D15*
X141000000Y-112460000D03*
%TD*%
D11*
%TO.C,R1*%
X112000000Y-94810000D03*
X112000000Y-87190000D03*
%TD*%
D16*
%TO.C,U2*%
X105000000Y-94540000D03*
D17*
X105000000Y-92000000D03*
X105000000Y-89460000D03*
X105000000Y-86920000D03*
X105000000Y-84380000D03*
X105000000Y-81840000D03*
X105000000Y-79300000D03*
X105000000Y-76760000D03*
X86966000Y-76760000D03*
X86966000Y-79300000D03*
X86966000Y-81840000D03*
X86966000Y-84380000D03*
X86966000Y-86920000D03*
X86966000Y-89460000D03*
X86966000Y-92000000D03*
X86966000Y-94540000D03*
%TD*%
D18*
%TO.C,U1*%
X129720000Y-102140000D03*
D19*
X127180000Y-102140000D03*
X124640000Y-102140000D03*
X122100000Y-102140000D03*
X119560000Y-102140000D03*
X117020000Y-102140000D03*
X114480000Y-102140000D03*
X111940000Y-102140000D03*
X109400000Y-102140000D03*
X106860000Y-102140000D03*
X104320000Y-102140000D03*
X101780000Y-102140000D03*
X99240000Y-102140000D03*
X96700000Y-102140000D03*
X94160000Y-102140000D03*
X91620000Y-102140000D03*
X89080000Y-102140000D03*
X86540000Y-102140000D03*
X84000000Y-102140000D03*
X81462720Y-102136320D03*
X78922720Y-102136320D03*
X76382720Y-102136320D03*
X76380000Y-125000000D03*
X78920000Y-125000000D03*
X81460000Y-125000000D03*
X84000000Y-125000000D03*
X86540000Y-125000000D03*
X89080000Y-125000000D03*
X91620000Y-125000000D03*
X94160000Y-125000000D03*
X96700000Y-125000000D03*
X99240000Y-125000000D03*
X101780000Y-125000000D03*
X104320000Y-125000000D03*
X106860000Y-125000000D03*
X109400000Y-125000000D03*
X111940000Y-125000000D03*
X114480000Y-125000000D03*
X117020000Y-125000000D03*
X119560000Y-125000000D03*
X122100000Y-125000000D03*
X124640000Y-125000000D03*
X127180000Y-125000000D03*
X129720000Y-125000000D03*
%TD*%
D20*
%TO.C,D2*%
X71475000Y-86000000D03*
D21*
X68935000Y-86000000D03*
%TD*%
D20*
%TO.C,D1*%
X71600000Y-94000000D03*
D21*
X69060000Y-94000000D03*
%TD*%
D11*
%TO.C,R3*%
X141000000Y-108810000D03*
X141000000Y-101190000D03*
%TD*%
D10*
%TO.C,H1*%
X71000000Y-62000000D03*
%TD*%
D22*
%TO.C,J1*%
X72704500Y-69510000D03*
D23*
X72704500Y-73010000D03*
%TD*%
M02*
