%TF.GenerationSoftware,KiCad,Pcbnew,9.0.7*%
%TF.CreationDate,2026-02-21T18:55:46+11:00*%
%TF.ProjectId,MotorControllerNode,4d6f746f-7243-46f6-9e74-726f6c6c6572,rev?*%
%TF.SameCoordinates,Original*%
%TF.FileFunction,Copper,L3,Inr*%
%TF.FilePolarity,Positive*%
%FSLAX46Y46*%
G04 Gerber Fmt 4.6, Leading zero omitted, Abs format (unit mm)*
G04 Created by KiCad (PCBNEW 9.0.7) date 2026-02-21 18:55:46*
%MOMM*%
%LPD*%
G01*
G04 APERTURE LIST*
%TA.AperFunction,ComponentPad*%
%ADD10C,1.600200*%
%TD*%
%TA.AperFunction,ComponentPad*%
%ADD11C,1.498600*%
%TD*%
%TA.AperFunction,ComponentPad*%
%ADD12R,2.000000X1.200000*%
%TD*%
%TA.AperFunction,ComponentPad*%
%ADD13O,2.000000X1.200000*%
%TD*%
%TA.AperFunction,ComponentPad*%
%ADD14C,1.600000*%
%TD*%
%TA.AperFunction,ComponentPad*%
%ADD15C,1.549400*%
%TD*%
%TA.AperFunction,ViaPad*%
%ADD16C,0.600000*%
%TD*%
%TA.AperFunction,Conductor*%
%ADD17C,1.000000*%
%TD*%
%TA.AperFunction,Conductor*%
%ADD18C,0.750000*%
%TD*%
%TA.AperFunction,Conductor*%
%ADD19C,0.250000*%
%TD*%
%TA.AperFunction,Conductor*%
%ADD20C,0.500000*%
%TD*%
G04 APERTURE END LIST*
D10*
%TO.N,Net-(IC3-B7)*%
%TO.C,J6*%
X121400000Y-110790000D03*
%TO.N,Net-(IC3-B8)*%
X121400000Y-113330000D03*
%TO.N,+5V*%
X121400000Y-115870000D03*
%TO.N,GND*%
X121400000Y-118410000D03*
%TD*%
D11*
%TO.N,/J1-M1-6*%
%TO.C,J2*%
X111960000Y-72945002D03*
%TO.N,/J1-M2-6*%
X111960000Y-75715002D03*
%TO.N,/J1-M1-14*%
X111960000Y-78485001D03*
%TO.N,/J1-M2-14*%
X111960000Y-81255001D03*
%TO.N,GND*%
X111960000Y-84025000D03*
X114500000Y-74330000D03*
X114500000Y-77100000D03*
X114500000Y-79870000D03*
%TO.N,unconnected-(J2-Pad9)*%
X114500000Y-82639999D03*
%TD*%
D12*
%TO.N,+3V3*%
%TO.C,U1*%
X45466000Y-41656000D03*
D13*
X45466000Y-44196000D03*
%TO.N,unconnected-(U1-CHIP_PU-Pad3)*%
X45466000Y-46736000D03*
%TO.N,/GPIO4*%
X45466000Y-49276000D03*
%TO.N,/GPIO5*%
X45466000Y-51816000D03*
%TO.N,/GPIO6*%
X45466000Y-54356000D03*
%TO.N,/GPIO7*%
X45466000Y-56896000D03*
%TO.N,/GPIO15*%
X45466000Y-59436000D03*
%TO.N,/GPIO16*%
X45466000Y-61976000D03*
%TO.N,/GPIO17*%
X45466000Y-64516000D03*
%TO.N,/GPIO18*%
X45466000Y-67056000D03*
%TO.N,/GPIO8*%
X45466000Y-69596000D03*
%TO.N,unconnected-(U1-GPIO3{slash}ADC1_CH2-Pad13)*%
X45466000Y-72136000D03*
%TO.N,unconnected-(U1-GPIO46-Pad14)*%
X45466000Y-74676000D03*
%TO.N,/GPIO9*%
X45466000Y-77216000D03*
%TO.N,/GPIO10*%
X45466000Y-79756000D03*
%TO.N,/GPIO11*%
X45466000Y-82296000D03*
%TO.N,/GPIO12*%
X45466000Y-84836000D03*
%TO.N,/CANRX*%
X45466000Y-87376000D03*
%TO.N,/CANTX*%
X45462320Y-89913280D03*
%TO.N,+5V*%
X45462320Y-92453280D03*
%TO.N,GND*%
X45462320Y-94993280D03*
X68326000Y-94996000D03*
X68326000Y-92456000D03*
%TO.N,unconnected-(U1-GPIO19{slash}USB_D--Pad25)*%
X68326000Y-89916000D03*
%TO.N,unconnected-(U1-GPIO20{slash}USB_D+-Pad26)*%
X68326000Y-87376000D03*
%TO.N,/GPIO21*%
X68326000Y-84836000D03*
%TO.N,/GPIO47*%
X68326000Y-82296000D03*
%TO.N,/GPIO48*%
X68326000Y-79756000D03*
%TO.N,unconnected-(U1-GPIO45-Pad30)*%
X68326000Y-77216000D03*
%TO.N,unconnected-(U1-GPIO0-Pad31)*%
X68326000Y-74676000D03*
%TO.N,unconnected-(U1-GPIO35-Pad32)*%
X68326000Y-72136000D03*
%TO.N,unconnected-(U1-GPIO36-Pad33)*%
X68326000Y-69596000D03*
%TO.N,unconnected-(U1-GPIO37-Pad34)*%
X68326000Y-67056000D03*
%TO.N,unconnected-(U1-GPIO38-Pad35)*%
X68326000Y-64516000D03*
%TO.N,unconnected-(U1-GPIO39{slash}MTCK-Pad36)*%
X68326000Y-61976000D03*
%TO.N,unconnected-(U1-GPIO40{slash}MTDO-Pad37)*%
X68326000Y-59436000D03*
%TO.N,unconnected-(U1-GPIO41{slash}MTDI-Pad38)*%
X68326000Y-56896000D03*
%TO.N,unconnected-(U1-GPIO42{slash}MTMS-Pad39)*%
X68326000Y-54356000D03*
%TO.N,/DAC_SDA*%
X68326000Y-51816000D03*
%TO.N,/DAC_SCL*%
X68326000Y-49276000D03*
%TO.N,unconnected-(U1-GPIO44{slash}U0RXD-Pad42)*%
X68326000Y-46736000D03*
%TO.N,unconnected-(U1-GPIO43{slash}U0TXD-Pad43)*%
X68326000Y-44196000D03*
%TO.N,GND*%
X68326000Y-41656000D03*
%TD*%
D11*
%TO.N,unconnected-(J5-Pad1)*%
%TO.C,J5*%
X37770000Y-80534999D03*
%TO.N,/CANL*%
X37770000Y-77764999D03*
%TO.N,GND*%
X37770000Y-74995000D03*
%TO.N,unconnected-(J5-Pad4)*%
X37770000Y-72225000D03*
%TO.N,unconnected-(J5-Pad5)*%
X37770000Y-69455001D03*
%TO.N,unconnected-(J5-Pad6)*%
X35230000Y-79150001D03*
%TO.N,/CANH*%
X35230000Y-76380001D03*
%TO.N,unconnected-(J5-Pad8)*%
X35230000Y-73610001D03*
%TO.N,+5V*%
X35230000Y-70840002D03*
%TD*%
D10*
%TO.N,/GPIO10 5V*%
%TO.C,J4*%
X121400000Y-99320000D03*
%TO.N,/GPIO11 5V*%
X121400000Y-101860000D03*
%TO.N,/GPIO12 5V*%
X121400000Y-104400000D03*
%TO.N,/GPIO48 5V*%
X121400000Y-106940000D03*
%TD*%
%TO.N,/A*%
%TO.C,J3*%
X93090000Y-28700070D03*
%TO.N,/B*%
X95630000Y-28700070D03*
%TO.N,/Z*%
X98170000Y-28700070D03*
%TO.N,GND*%
X100710000Y-28700070D03*
%TD*%
D14*
%TO.N,GND*%
%TO.C,C2*%
X35532000Y-97536000D03*
%TO.N,+5V*%
X32032000Y-97536000D03*
%TD*%
D15*
%TO.N,/J2-5*%
%TO.C,J1*%
X111060000Y-40985000D03*
X111060000Y-43275000D03*
%TO.N,/J2-6*%
X111060000Y-45565001D03*
X111060000Y-47854998D03*
%TO.N,/J2-8*%
X111060000Y-50144999D03*
X113600000Y-42130001D03*
%TO.N,/J2-9*%
X113600000Y-44419999D03*
X113600000Y-46710000D03*
%TO.N,/J2-10*%
X113600000Y-49000000D03*
X113600000Y-51290001D03*
%TO.N,GND*%
X116140000Y-40985000D03*
X116140000Y-43275000D03*
X116140000Y-45565001D03*
X116140000Y-47854998D03*
%TO.N,unconnected-(J1-Pad15)*%
X116140000Y-50144999D03*
%TD*%
D16*
%TO.N,+5V*%
X86200000Y-73300000D03*
X87555331Y-59344669D03*
X84300000Y-47200000D03*
X85600000Y-44600000D03*
X83800000Y-49999000D03*
%TO.N,GND*%
X73000000Y-59800000D03*
X38600000Y-51400000D03*
X85200000Y-67800000D03*
X34900000Y-56300000D03*
X89300000Y-60700000D03*
X87600000Y-51400000D03*
X83000000Y-44600000D03*
X76900000Y-51100000D03*
X83400000Y-82000000D03*
X82800000Y-50700000D03*
X72300000Y-73825000D03*
X40100000Y-46050000D03*
X77400000Y-82000000D03*
X87600000Y-49600000D03*
X75600000Y-67800000D03*
X89200000Y-73500000D03*
%TO.N,+3V3*%
X38600000Y-50165000D03*
X75000000Y-45600000D03*
X72850000Y-50825000D03*
X74550000Y-74025000D03*
X74500000Y-59600000D03*
X72700000Y-47875000D03*
X40100000Y-47600000D03*
%TO.N,/Z*%
X93200000Y-66400000D03*
%TO.N,/A*%
X89400000Y-66400000D03*
%TO.N,/B*%
X91200000Y-66400000D03*
%TO.N,/GPIO48*%
X74000000Y-81400000D03*
%TO.N,/GPIO47*%
X74800000Y-81800000D03*
%TD*%
D17*
%TO.N,+5V*%
X51109040Y-98100000D02*
X76100000Y-98100000D01*
D18*
X88500000Y-66013148D02*
X88500000Y-61138852D01*
X88424000Y-61062852D02*
X88424000Y-60337148D01*
D17*
X45462320Y-92453280D02*
X51109040Y-98100000D01*
D18*
X116570000Y-115870000D02*
X88700000Y-88000000D01*
X121400000Y-115870000D02*
X116570000Y-115870000D01*
X83800000Y-58200000D02*
X83800000Y-49999000D01*
X88700000Y-88000000D02*
X86200000Y-88000000D01*
X88500000Y-61138852D02*
X88424000Y-61062852D01*
D19*
X85400000Y-44600000D02*
X85600000Y-44600000D01*
D18*
X86610662Y-58400000D02*
X84000000Y-58400000D01*
X84000000Y-58400000D02*
X83800000Y-58200000D01*
X87555331Y-59344669D02*
X86610662Y-58400000D01*
D17*
X76100000Y-98100000D02*
X86200000Y-88000000D01*
D20*
X84300000Y-49499000D02*
X83800000Y-49999000D01*
D18*
X86200000Y-73300000D02*
X86200000Y-68313148D01*
D17*
X37114720Y-92453280D02*
X45462320Y-92453280D01*
D18*
X86200000Y-68313148D02*
X88500000Y-66013148D01*
X86200000Y-73300000D02*
X86200000Y-88000000D01*
D20*
X84300000Y-47200000D02*
X84300000Y-49499000D01*
D17*
X32032000Y-74038002D02*
X32032000Y-97536000D01*
D20*
X84300000Y-47200000D02*
X84300000Y-45900000D01*
D17*
X32032000Y-97536000D02*
X37114720Y-92453280D01*
D18*
X88424000Y-60337148D02*
X88485905Y-60275243D01*
D17*
X35230000Y-70840002D02*
X32032000Y-74038002D01*
D20*
X86200000Y-73300000D02*
X86200000Y-80860000D01*
D18*
X88485905Y-60275243D02*
X87555331Y-59344669D01*
D20*
X84300000Y-45900000D02*
X85600000Y-44600000D01*
%TO.N,+3V3*%
X69900000Y-47875000D02*
X72700000Y-47875000D01*
X38600000Y-50165000D02*
X40035000Y-50165000D01*
X72725000Y-47875000D02*
X72700000Y-47875000D01*
X42600000Y-47600000D02*
X45466000Y-44734000D01*
X72850000Y-50825000D02*
X69900000Y-47875000D01*
X45466000Y-44196000D02*
X45466000Y-41656000D01*
X49145000Y-47875000D02*
X69900000Y-47875000D01*
X74550000Y-59650000D02*
X74500000Y-59600000D01*
X40100000Y-47600000D02*
X42600000Y-47600000D01*
X45466000Y-44196000D02*
X49145000Y-47875000D01*
X74550000Y-74025000D02*
X74550000Y-59650000D01*
X45466000Y-44734000D02*
X45466000Y-44196000D01*
X74000000Y-51975000D02*
X74000000Y-59100000D01*
X74000000Y-59100000D02*
X74500000Y-59600000D01*
X75000000Y-45600000D02*
X72725000Y-47875000D01*
X40035000Y-50165000D02*
X42600000Y-47600000D01*
X72850000Y-50825000D02*
X74000000Y-51975000D01*
%TD*%
%TA.AperFunction,Conductor*%
%TO.N,+3V3*%
G36*
X45472155Y-44203932D02*
G01*
X45840237Y-44787526D01*
X45841752Y-44796352D01*
X45838032Y-44802585D01*
X45164749Y-45389856D01*
X45156262Y-45392712D01*
X45148785Y-45389312D01*
X44804665Y-45045192D01*
X44802068Y-45041246D01*
X44623170Y-44591628D01*
X44623295Y-44582675D01*
X44629190Y-44576656D01*
X45457410Y-44199525D01*
X45466360Y-44199216D01*
X45472155Y-44203932D01*
G37*
%TD.AperFunction*%
%TD*%
%TA.AperFunction,Conductor*%
%TO.N,+3V3*%
G36*
X46440106Y-44328193D02*
G01*
X46447840Y-44332706D01*
X46449809Y-44336694D01*
X46632797Y-45004483D01*
X46631678Y-45013368D01*
X46629786Y-45015848D01*
X46287177Y-45358457D01*
X46278904Y-45361884D01*
X46273388Y-45360502D01*
X45600309Y-45000668D01*
X45226808Y-44800991D01*
X45221129Y-44794069D01*
X45221508Y-44786214D01*
X45461848Y-44203642D01*
X45468170Y-44197303D01*
X45474242Y-44196513D01*
X46440106Y-44328193D01*
G37*
%TD.AperFunction*%
%TD*%
%TA.AperFunction,Conductor*%
%TO.N,+5V*%
G36*
X32805735Y-96068733D02*
G01*
X33499266Y-96762264D01*
X33502693Y-96770537D01*
X33500723Y-96777034D01*
X32703666Y-97970734D01*
X32696222Y-97975711D01*
X32687448Y-97973973D01*
X32033242Y-97538005D01*
X32029994Y-97534757D01*
X31594026Y-96880551D01*
X31592290Y-96871766D01*
X31597265Y-96864333D01*
X31750127Y-96762264D01*
X32790965Y-96067275D01*
X32799748Y-96065532D01*
X32805735Y-96068733D01*
G37*
%TD.AperFunction*%
%TD*%
%TA.AperFunction,Conductor*%
%TO.N,+5V*%
G36*
X34616486Y-70430047D02*
G01*
X35228756Y-70837995D01*
X35232006Y-70841245D01*
X35639954Y-71453515D01*
X35641689Y-71462300D01*
X35636935Y-71469581D01*
X34542107Y-72237403D01*
X34533366Y-72239348D01*
X34527116Y-72236097D01*
X33833904Y-71542885D01*
X33830477Y-71534612D01*
X33832598Y-71527894D01*
X33878094Y-71463022D01*
X34600421Y-70433065D01*
X34607976Y-70428260D01*
X34616486Y-70430047D01*
G37*
%TD.AperFunction*%
%TD*%
%TA.AperFunction,Conductor*%
%TO.N,+3V3*%
G36*
X45717306Y-42999427D02*
G01*
X45719320Y-43002126D01*
X46061670Y-43633895D01*
X46062598Y-43642801D01*
X46059329Y-43648057D01*
X45473946Y-44189648D01*
X45465546Y-44192751D01*
X45458054Y-44189648D01*
X44872670Y-43648057D01*
X44868925Y-43639923D01*
X44870328Y-43633899D01*
X45212680Y-43002125D01*
X45219635Y-42996485D01*
X45222967Y-42996000D01*
X45709033Y-42996000D01*
X45717306Y-42999427D01*
G37*
%TD.AperFunction*%
%TD*%
%TA.AperFunction,Conductor*%
%TO.N,+5V*%
G36*
X32530675Y-95954799D02*
G01*
X32533876Y-95960786D01*
X32814343Y-97368464D01*
X32812599Y-97377247D01*
X32805166Y-97382222D01*
X32034297Y-97536540D01*
X32029703Y-97536540D01*
X31258833Y-97382222D01*
X31251394Y-97377238D01*
X31249656Y-97368464D01*
X31530124Y-95960786D01*
X31535101Y-95953342D01*
X31541598Y-95951372D01*
X32522402Y-95951372D01*
X32530675Y-95954799D01*
G37*
%TD.AperFunction*%
%TD*%
M02*
