%TF.GenerationSoftware,KiCad,Pcbnew,9.0.7*%
%TF.CreationDate,2026-02-21T18:55:46+11:00*%
%TF.ProjectId,MotorControllerNode,4d6f746f-7243-46f6-9e74-726f6c6c6572,rev?*%
%TF.SameCoordinates,Original*%
%TF.FileFunction,Copper,L1,Top*%
%TF.FilePolarity,Positive*%
%FSLAX46Y46*%
G04 Gerber Fmt 4.6, Leading zero omitted, Abs format (unit mm)*
G04 Created by KiCad (PCBNEW 9.0.7) date 2026-02-21 18:55:46*
%MOMM*%
%LPD*%
G01*
G04 APERTURE LIST*
G04 Aperture macros list*
%AMRoundRect*
0 Rectangle with rounded corners*
0 $1 Rounding radius*
0 $2 $3 $4 $5 $6 $7 $8 $9 X,Y pos of 4 corners*
0 Add a 4 corners polygon primitive as box body*
4,1,4,$2,$3,$4,$5,$6,$7,$8,$9,$2,$3,0*
0 Add four circle primitives for the rounded corners*
1,1,$1+$1,$2,$3*
1,1,$1+$1,$4,$5*
1,1,$1+$1,$6,$7*
1,1,$1+$1,$8,$9*
0 Add four rect primitives between the rounded corners*
20,1,$1+$1,$2,$3,$4,$5,0*
20,1,$1+$1,$4,$5,$6,$7,0*
20,1,$1+$1,$6,$7,$8,$9,0*
20,1,$1+$1,$8,$9,$2,$3,0*%
G04 Aperture macros list end*
%TA.AperFunction,SMDPad,CuDef*%
%ADD10RoundRect,0.200000X0.200000X0.275000X-0.200000X0.275000X-0.200000X-0.275000X0.200000X-0.275000X0*%
%TD*%
%TA.AperFunction,SMDPad,CuDef*%
%ADD11RoundRect,0.225000X0.225000X0.250000X-0.225000X0.250000X-0.225000X-0.250000X0.225000X-0.250000X0*%
%TD*%
%TA.AperFunction,ComponentPad*%
%ADD12C,1.600200*%
%TD*%
%TA.AperFunction,SMDPad,CuDef*%
%ADD13RoundRect,0.200000X0.275000X-0.200000X0.275000X0.200000X-0.275000X0.200000X-0.275000X-0.200000X0*%
%TD*%
%TA.AperFunction,SMDPad,CuDef*%
%ADD14RoundRect,0.225000X0.250000X-0.225000X0.250000X0.225000X-0.250000X0.225000X-0.250000X-0.225000X0*%
%TD*%
%TA.AperFunction,SMDPad,CuDef*%
%ADD15RoundRect,0.225000X-0.225000X-0.250000X0.225000X-0.250000X0.225000X0.250000X-0.225000X0.250000X0*%
%TD*%
%TA.AperFunction,SMDPad,CuDef*%
%ADD16RoundRect,0.062500X-0.062500X0.375000X-0.062500X-0.375000X0.062500X-0.375000X0.062500X0.375000X0*%
%TD*%
%TA.AperFunction,SMDPad,CuDef*%
%ADD17RoundRect,0.062500X-0.375000X0.062500X-0.375000X-0.062500X0.375000X-0.062500X0.375000X0.062500X0*%
%TD*%
%TA.AperFunction,HeatsinkPad*%
%ADD18R,0.800000X0.800000*%
%TD*%
%TA.AperFunction,ComponentPad*%
%ADD19C,1.498600*%
%TD*%
%TA.AperFunction,ComponentPad*%
%ADD20R,2.000000X1.200000*%
%TD*%
%TA.AperFunction,ComponentPad*%
%ADD21O,2.000000X1.200000*%
%TD*%
%TA.AperFunction,SMDPad,CuDef*%
%ADD22RoundRect,0.150000X0.825000X0.150000X-0.825000X0.150000X-0.825000X-0.150000X0.825000X-0.150000X0*%
%TD*%
%TA.AperFunction,SMDPad,CuDef*%
%ADD23R,1.475000X0.450000*%
%TD*%
%TA.AperFunction,ComponentPad*%
%ADD24C,1.600000*%
%TD*%
%TA.AperFunction,ComponentPad*%
%ADD25C,1.549400*%
%TD*%
%TA.AperFunction,SMDPad,CuDef*%
%ADD26RoundRect,0.225000X-0.250000X0.225000X-0.250000X-0.225000X0.250000X-0.225000X0.250000X0.225000X0*%
%TD*%
%TA.AperFunction,ViaPad*%
%ADD27C,0.600000*%
%TD*%
%TA.AperFunction,Conductor*%
%ADD28C,0.250000*%
%TD*%
%TA.AperFunction,Conductor*%
%ADD29C,0.500000*%
%TD*%
G04 APERTURE END LIST*
D10*
%TO.P,R5,1*%
%TO.N,GND*%
X33725000Y-56300000D03*
%TO.P,R5,2*%
%TO.N,Net-(U2-Rs)*%
X32075000Y-56300000D03*
%TD*%
D11*
%TO.P,C8,1*%
%TO.N,GND*%
X87800000Y-74600000D03*
%TO.P,C8,2*%
%TO.N,+5V*%
X86250000Y-74600000D03*
%TD*%
D12*
%TO.P,J6,1,1*%
%TO.N,Net-(IC3-B7)*%
X121400000Y-110790000D03*
%TO.P,J6,2,2*%
%TO.N,Net-(IC3-B8)*%
X121400000Y-113330000D03*
%TO.P,J6,3,3*%
%TO.N,+5V*%
X121400000Y-115870000D03*
%TO.P,J6,4,4*%
%TO.N,GND*%
X121400000Y-118410000D03*
%TD*%
D13*
%TO.P,R2,1*%
%TO.N,Net-(IC1-VREF)*%
X85600000Y-47200000D03*
%TO.P,R2,2*%
%TO.N,+5V*%
X85600000Y-45550000D03*
%TD*%
D14*
%TO.P,C1,1*%
%TO.N,+5V*%
X83000000Y-47150000D03*
%TO.P,C1,2*%
%TO.N,GND*%
X83000000Y-45600000D03*
%TD*%
D15*
%TO.P,C3,1*%
%TO.N,Net-(IC1-VREF)*%
X85050000Y-49600000D03*
%TO.P,C3,2*%
%TO.N,GND*%
X86600000Y-49600000D03*
%TD*%
D11*
%TO.P,C5,1*%
%TO.N,+3V3*%
X74550000Y-60800000D03*
%TO.P,C5,2*%
%TO.N,GND*%
X73000000Y-60800000D03*
%TD*%
D16*
%TO.P,IC1,1,FB0*%
%TO.N,/J2-5*%
X80950000Y-48862500D03*
%TO.P,IC1,2,OUT0*%
X80450000Y-48862500D03*
%TO.P,IC1,3,NC_1*%
%TO.N,unconnected-(IC1-NC_1-Pad3)*%
X79950000Y-48862500D03*
%TO.P,IC1,4,NC_2*%
%TO.N,unconnected-(IC1-NC_2-Pad4)*%
X79450000Y-48862500D03*
D17*
%TO.P,IC1,5,GPIO/SDO*%
%TO.N,Net-(IC1-GPIO{slash}SDO)*%
X78762500Y-49550000D03*
%TO.P,IC1,6,SCL/~{SYNC}*%
%TO.N,/DAC_SCL*%
X78762500Y-50050000D03*
%TO.P,IC1,7,A0/SDI*%
%TO.N,GND*%
X78762500Y-50550000D03*
%TO.P,IC1,8,SDA/SCLK*%
%TO.N,/DAC_SDA*%
X78762500Y-51050000D03*
D16*
%TO.P,IC1,9,NC_3*%
%TO.N,unconnected-(IC1-NC_3-Pad9)*%
X79450000Y-51737500D03*
%TO.P,IC1,10,NC_4*%
%TO.N,unconnected-(IC1-NC_4-Pad10)*%
X79950000Y-51737500D03*
%TO.P,IC1,11,OUT1*%
%TO.N,/J2-6*%
X80450000Y-51737500D03*
%TO.P,IC1,12,FB1*%
X80950000Y-51737500D03*
D17*
%TO.P,IC1,13,CAP*%
%TO.N,Net-(IC1-CAP)*%
X81637500Y-51050000D03*
%TO.P,IC1,14,AGND*%
%TO.N,GND*%
X81637500Y-50550000D03*
%TO.P,IC1,15,VDD*%
%TO.N,+5V*%
X81637500Y-50050000D03*
%TO.P,IC1,16,VREF*%
%TO.N,Net-(IC1-VREF)*%
X81637500Y-49550000D03*
D18*
%TO.P,IC1,17,GND*%
%TO.N,GND*%
X80200000Y-50300000D03*
%TD*%
D19*
%TO.P,J2,1,1*%
%TO.N,/J1-M1-6*%
X111960000Y-72945002D03*
%TO.P,J2,2,2*%
%TO.N,/J1-M2-6*%
X111960000Y-75715002D03*
%TO.P,J2,3,3*%
%TO.N,/J1-M1-14*%
X111960000Y-78485001D03*
%TO.P,J2,4,4*%
%TO.N,/J1-M2-14*%
X111960000Y-81255001D03*
%TO.P,J2,5,5*%
%TO.N,GND*%
X111960000Y-84025000D03*
%TO.P,J2,6,6*%
X114500000Y-74330000D03*
%TO.P,J2,7,7*%
X114500000Y-77100000D03*
%TO.P,J2,8,8*%
X114500000Y-79870000D03*
%TO.P,J2,9,9*%
%TO.N,unconnected-(J2-Pad9)*%
X114500000Y-82639999D03*
%TD*%
D11*
%TO.P,C6,1*%
%TO.N,GND*%
X87950000Y-60800000D03*
%TO.P,C6,2*%
%TO.N,+5V*%
X86400000Y-60800000D03*
%TD*%
D13*
%TO.P,R3,1*%
%TO.N,/DAC_SCL*%
X73975000Y-49525000D03*
%TO.P,R3,2*%
%TO.N,+3V3*%
X73975000Y-47875000D03*
%TD*%
D20*
%TO.P,U1,1,3V3*%
%TO.N,+3V3*%
X45466000Y-41656000D03*
D21*
%TO.P,U1,2,3V3*%
X45466000Y-44196000D03*
%TO.P,U1,3,CHIP_PU*%
%TO.N,unconnected-(U1-CHIP_PU-Pad3)*%
X45466000Y-46736000D03*
%TO.P,U1,4,GPIO4/ADC1_CH3*%
%TO.N,/GPIO4*%
X45466000Y-49276000D03*
%TO.P,U1,5,GPIO5/ADC1_CH4*%
%TO.N,/GPIO5*%
X45466000Y-51816000D03*
%TO.P,U1,6,GPIO6/ADC1_CH5*%
%TO.N,/GPIO6*%
X45466000Y-54356000D03*
%TO.P,U1,7,GPIO7/ADC1_CH6*%
%TO.N,/GPIO7*%
X45466000Y-56896000D03*
%TO.P,U1,8,GPIO15/ADC2_CH4/32K_P*%
%TO.N,/GPIO15*%
X45466000Y-59436000D03*
%TO.P,U1,9,GPIO16/ADC2_CH5/32K_N*%
%TO.N,/GPIO16*%
X45466000Y-61976000D03*
%TO.P,U1,10,GPIO17/ADC2_CH6*%
%TO.N,/GPIO17*%
X45466000Y-64516000D03*
%TO.P,U1,11,GPIO18/ADC2_CH7*%
%TO.N,/GPIO18*%
X45466000Y-67056000D03*
%TO.P,U1,12,GPIO8/ADC1_CH7*%
%TO.N,/GPIO8*%
X45466000Y-69596000D03*
%TO.P,U1,13,GPIO3/ADC1_CH2*%
%TO.N,unconnected-(U1-GPIO3{slash}ADC1_CH2-Pad13)*%
X45466000Y-72136000D03*
%TO.P,U1,14,GPIO46*%
%TO.N,unconnected-(U1-GPIO46-Pad14)*%
X45466000Y-74676000D03*
%TO.P,U1,15,GPIO9/ADC1_CH8*%
%TO.N,/GPIO9*%
X45466000Y-77216000D03*
%TO.P,U1,16,GPIO10/ADC1_CH9*%
%TO.N,/GPIO10*%
X45466000Y-79756000D03*
%TO.P,U1,17,GPIO11/ADC2_CH0*%
%TO.N,/GPIO11*%
X45466000Y-82296000D03*
%TO.P,U1,18,GPIO12/ADC2_CH1*%
%TO.N,/GPIO12*%
X45466000Y-84836000D03*
%TO.P,U1,19,GPIO13/ADC2_CH2*%
%TO.N,/CANRX*%
X45466000Y-87376000D03*
%TO.P,U1,20,GPIO14/ADC2_CH3*%
%TO.N,/CANTX*%
X45462320Y-89913280D03*
%TO.P,U1,21,5V*%
%TO.N,+5V*%
X45462320Y-92453280D03*
%TO.P,U1,22,GND*%
%TO.N,GND*%
X45462320Y-94993280D03*
%TO.P,U1,23,GND*%
X68326000Y-94996000D03*
%TO.P,U1,24,GND*%
X68326000Y-92456000D03*
%TO.P,U1,25,GPIO19/USB_D-*%
%TO.N,unconnected-(U1-GPIO19{slash}USB_D--Pad25)*%
X68326000Y-89916000D03*
%TO.P,U1,26,GPIO20/USB_D+*%
%TO.N,unconnected-(U1-GPIO20{slash}USB_D+-Pad26)*%
X68326000Y-87376000D03*
%TO.P,U1,27,GPIO21*%
%TO.N,/GPIO21*%
X68326000Y-84836000D03*
%TO.P,U1,28,GPIO47*%
%TO.N,/GPIO47*%
X68326000Y-82296000D03*
%TO.P,U1,29,GPIO48*%
%TO.N,/GPIO48*%
X68326000Y-79756000D03*
%TO.P,U1,30,GPIO45*%
%TO.N,unconnected-(U1-GPIO45-Pad30)*%
X68326000Y-77216000D03*
%TO.P,U1,31,GPIO0*%
%TO.N,unconnected-(U1-GPIO0-Pad31)*%
X68326000Y-74676000D03*
%TO.P,U1,32,GPIO35*%
%TO.N,unconnected-(U1-GPIO35-Pad32)*%
X68326000Y-72136000D03*
%TO.P,U1,33,GPIO36*%
%TO.N,unconnected-(U1-GPIO36-Pad33)*%
X68326000Y-69596000D03*
%TO.P,U1,34,GPIO37*%
%TO.N,unconnected-(U1-GPIO37-Pad34)*%
X68326000Y-67056000D03*
%TO.P,U1,35,GPIO38*%
%TO.N,unconnected-(U1-GPIO38-Pad35)*%
X68326000Y-64516000D03*
%TO.P,U1,36,GPIO39/MTCK*%
%TO.N,unconnected-(U1-GPIO39{slash}MTCK-Pad36)*%
X68326000Y-61976000D03*
%TO.P,U1,37,GPIO40/MTDO*%
%TO.N,unconnected-(U1-GPIO40{slash}MTDO-Pad37)*%
X68326000Y-59436000D03*
%TO.P,U1,38,GPIO41/MTDI*%
%TO.N,unconnected-(U1-GPIO41{slash}MTDI-Pad38)*%
X68326000Y-56896000D03*
%TO.P,U1,39,GPIO42/MTMS*%
%TO.N,unconnected-(U1-GPIO42{slash}MTMS-Pad39)*%
X68326000Y-54356000D03*
%TO.P,U1,40,GPIO2/ADC1_CH1*%
%TO.N,/DAC_SDA*%
X68326000Y-51816000D03*
%TO.P,U1,41,GPIO1/ADC1_CH0*%
%TO.N,/DAC_SCL*%
X68326000Y-49276000D03*
%TO.P,U1,42,GPIO44/U0RXD*%
%TO.N,unconnected-(U1-GPIO44{slash}U0RXD-Pad42)*%
X68326000Y-46736000D03*
%TO.P,U1,43,GPIO43/U0TXD*%
%TO.N,unconnected-(U1-GPIO43{slash}U0TXD-Pad43)*%
X68326000Y-44196000D03*
%TO.P,U1,44,GND*%
%TO.N,GND*%
X68326000Y-41656000D03*
%TD*%
D19*
%TO.P,J5,1,1*%
%TO.N,unconnected-(J5-Pad1)*%
X37770000Y-80534999D03*
%TO.P,J5,2,2*%
%TO.N,/CANL*%
X37770000Y-77764999D03*
%TO.P,J5,3,3*%
%TO.N,GND*%
X37770000Y-74995000D03*
%TO.P,J5,4,4*%
%TO.N,unconnected-(J5-Pad4)*%
X37770000Y-72225000D03*
%TO.P,J5,5,5*%
%TO.N,unconnected-(J5-Pad5)*%
X37770000Y-69455001D03*
%TO.P,J5,6,6*%
%TO.N,unconnected-(J5-Pad6)*%
X35230000Y-79150001D03*
%TO.P,J5,7,7*%
%TO.N,/CANH*%
X35230000Y-76380001D03*
%TO.P,J5,8,8*%
%TO.N,unconnected-(J5-Pad8)*%
X35230000Y-73610001D03*
%TO.P,J5,9,9*%
%TO.N,+5V*%
X35230000Y-70840002D03*
%TD*%
D22*
%TO.P,U2,1,D*%
%TO.N,/CANTX*%
X36511000Y-52705000D03*
%TO.P,U2,2,GND*%
%TO.N,GND*%
X36511000Y-51435000D03*
%TO.P,U2,3,VCC*%
%TO.N,+3V3*%
X36511000Y-50165000D03*
%TO.P,U2,4,R*%
%TO.N,/CANRX*%
X36511000Y-48895000D03*
%TO.P,U2,5,Vref*%
%TO.N,unconnected-(U2-Vref-Pad5)*%
X31561000Y-48895000D03*
%TO.P,U2,6,CANL*%
%TO.N,/CANL*%
X31561000Y-50165000D03*
%TO.P,U2,7,CANH*%
%TO.N,/CANH*%
X31561000Y-51435000D03*
%TO.P,U2,8,Rs*%
%TO.N,Net-(U2-Rs)*%
X31561000Y-52705000D03*
%TD*%
D12*
%TO.P,J4,1,1*%
%TO.N,/GPIO10 5V*%
X121400000Y-99320000D03*
%TO.P,J4,2,2*%
%TO.N,/GPIO11 5V*%
X121400000Y-101860000D03*
%TO.P,J4,3,3*%
%TO.N,/GPIO12 5V*%
X121400000Y-104400000D03*
%TO.P,J4,4,4*%
%TO.N,/GPIO48 5V*%
X121400000Y-106940000D03*
%TD*%
%TO.P,J3,1,1*%
%TO.N,/A*%
X93090000Y-28700070D03*
%TO.P,J3,2,2*%
%TO.N,/B*%
X95630000Y-28700070D03*
%TO.P,J3,3,3*%
%TO.N,/Z*%
X98170000Y-28700070D03*
%TO.P,J3,4,4*%
%TO.N,GND*%
X100710000Y-28700070D03*
%TD*%
D15*
%TO.P,C4,1*%
%TO.N,Net-(IC1-CAP)*%
X85000000Y-51400000D03*
%TO.P,C4,2*%
%TO.N,GND*%
X86550000Y-51400000D03*
%TD*%
D11*
%TO.P,C7,1*%
%TO.N,+3V3*%
X73900000Y-75000000D03*
%TO.P,C7,2*%
%TO.N,GND*%
X72350000Y-75000000D03*
%TD*%
D13*
%TO.P,R1,1*%
%TO.N,Net-(IC1-GPIO{slash}SDO)*%
X76600000Y-46700000D03*
%TO.P,R1,2*%
%TO.N,+3V3*%
X76600000Y-45050000D03*
%TD*%
D23*
%TO.P,IC2,1,A1*%
%TO.N,/GPIO4*%
X77449500Y-60175000D03*
%TO.P,IC2,2,VCCA*%
%TO.N,+3V3*%
X77449500Y-60825000D03*
%TO.P,IC2,3,A2*%
%TO.N,/GPIO5*%
X77449500Y-61475000D03*
%TO.P,IC2,4,A3*%
%TO.N,/GPIO6*%
X77449500Y-62125000D03*
%TO.P,IC2,5,A4*%
%TO.N,/GPIO7*%
X77449500Y-62775000D03*
%TO.P,IC2,6,A5*%
%TO.N,/GPIO15*%
X77449500Y-63425000D03*
%TO.P,IC2,7,A6*%
%TO.N,/GPIO16*%
X77449500Y-64075000D03*
%TO.P,IC2,8,A7*%
%TO.N,/GPIO17*%
X77449500Y-64725000D03*
%TO.P,IC2,9,A8*%
%TO.N,/GPIO18*%
X77449500Y-65375000D03*
%TO.P,IC2,10,OE*%
%TO.N,GND*%
X77449500Y-66025000D03*
%TO.P,IC2,11,GND*%
X83325500Y-66025000D03*
%TO.P,IC2,12,B8*%
%TO.N,/A*%
X83325500Y-65375000D03*
%TO.P,IC2,13,B7*%
%TO.N,/J1-M2-14*%
X83325500Y-64725000D03*
%TO.P,IC2,14,B6*%
%TO.N,/J1-M1-14*%
X83325500Y-64075000D03*
%TO.P,IC2,15,B5*%
%TO.N,/J1-M2-6*%
X83325500Y-63425000D03*
%TO.P,IC2,16,B4*%
%TO.N,/J1-M1-6*%
X83325500Y-62775000D03*
%TO.P,IC2,17,B3*%
%TO.N,/J2-10*%
X83325500Y-62125000D03*
%TO.P,IC2,18,B2*%
%TO.N,/J2-9*%
X83325500Y-61475000D03*
%TO.P,IC2,19,VCCB*%
%TO.N,+5V*%
X83325500Y-60825000D03*
%TO.P,IC2,20,B1*%
%TO.N,/J2-8*%
X83325500Y-60175000D03*
%TD*%
D24*
%TO.P,C2,1*%
%TO.N,GND*%
X35532000Y-97536000D03*
%TO.P,C2,2*%
%TO.N,+5V*%
X32032000Y-97536000D03*
%TD*%
D23*
%TO.P,IC3,1,A1*%
%TO.N,/GPIO8*%
X77462000Y-73875000D03*
%TO.P,IC3,2,VCCA*%
%TO.N,+3V3*%
X77462000Y-74525000D03*
%TO.P,IC3,3,A2*%
%TO.N,/GPIO9*%
X77462000Y-75175000D03*
%TO.P,IC3,4,A3*%
%TO.N,/GPIO10*%
X77462000Y-75825000D03*
%TO.P,IC3,5,A4*%
%TO.N,/GPIO11*%
X77462000Y-76475000D03*
%TO.P,IC3,6,A5*%
%TO.N,/GPIO12*%
X77462000Y-77125000D03*
%TO.P,IC3,7,A6*%
%TO.N,/GPIO48*%
X77462000Y-77775000D03*
%TO.P,IC3,8,A7*%
%TO.N,/GPIO47*%
X77462000Y-78425000D03*
%TO.P,IC3,9,A8*%
%TO.N,/GPIO21*%
X77462000Y-79075000D03*
%TO.P,IC3,10,OE*%
%TO.N,GND*%
X77462000Y-79725000D03*
%TO.P,IC3,11,GND*%
X83338000Y-79725000D03*
%TO.P,IC3,12,B8*%
%TO.N,Net-(IC3-B8)*%
X83338000Y-79075000D03*
%TO.P,IC3,13,B7*%
%TO.N,Net-(IC3-B7)*%
X83338000Y-78425000D03*
%TO.P,IC3,14,B6*%
%TO.N,/GPIO48 5V*%
X83338000Y-77775000D03*
%TO.P,IC3,15,B5*%
%TO.N,/GPIO12 5V*%
X83338000Y-77125000D03*
%TO.P,IC3,16,B4*%
%TO.N,/GPIO11 5V*%
X83338000Y-76475000D03*
%TO.P,IC3,17,B3*%
%TO.N,/GPIO10 5V*%
X83338000Y-75825000D03*
%TO.P,IC3,18,B2*%
%TO.N,/Z*%
X83338000Y-75175000D03*
%TO.P,IC3,19,VCCB*%
%TO.N,+5V*%
X83338000Y-74525000D03*
%TO.P,IC3,20,B1*%
%TO.N,/B*%
X83338000Y-73875000D03*
%TD*%
D13*
%TO.P,R4,1*%
%TO.N,/DAC_SDA*%
X74000000Y-52625000D03*
%TO.P,R4,2*%
%TO.N,+3V3*%
X74000000Y-50975000D03*
%TD*%
D25*
%TO.P,J1,1,1*%
%TO.N,/J2-5*%
X111060000Y-40985000D03*
%TO.P,J1,2,2*%
X111060000Y-43275000D03*
%TO.P,J1,3,3*%
%TO.N,/J2-6*%
X111060000Y-45565001D03*
%TO.P,J1,4,4*%
X111060000Y-47854998D03*
%TO.P,J1,5,5*%
%TO.N,/J2-8*%
X111060000Y-50144999D03*
%TO.P,J1,6,6*%
X113600000Y-42130001D03*
%TO.P,J1,7,7*%
%TO.N,/J2-9*%
X113600000Y-44419999D03*
%TO.P,J1,8,8*%
X113600000Y-46710000D03*
%TO.P,J1,9,9*%
%TO.N,/J2-10*%
X113600000Y-49000000D03*
%TO.P,J1,10,10*%
X113600000Y-51290001D03*
%TO.P,J1,11,11*%
%TO.N,GND*%
X116140000Y-40985000D03*
%TO.P,J1,12,12*%
X116140000Y-43275000D03*
%TO.P,J1,13,13*%
X116140000Y-45565001D03*
%TO.P,J1,14,14*%
X116140000Y-47854998D03*
%TO.P,J1,15,15*%
%TO.N,unconnected-(J1-Pad15)*%
X116140000Y-50144999D03*
%TD*%
D26*
%TO.P,C9,1*%
%TO.N,GND*%
X38800000Y-46050000D03*
%TO.P,C9,2*%
%TO.N,+3V3*%
X38800000Y-47600000D03*
%TD*%
D27*
%TO.N,+5V*%
X86200000Y-73300000D03*
X87555331Y-59344669D03*
X84300000Y-47200000D03*
X85600000Y-44600000D03*
X83800000Y-49999000D03*
%TO.N,GND*%
X73000000Y-59800000D03*
X38600000Y-51400000D03*
X85200000Y-67800000D03*
X34900000Y-56300000D03*
X89300000Y-60700000D03*
X87600000Y-51400000D03*
X83000000Y-44600000D03*
X76900000Y-51100000D03*
X83400000Y-82000000D03*
X82800000Y-50700000D03*
X72300000Y-73825000D03*
X40100000Y-46050000D03*
X77400000Y-82000000D03*
X87600000Y-49600000D03*
X75600000Y-67800000D03*
X89200000Y-73500000D03*
%TO.N,+3V3*%
X38600000Y-50165000D03*
X75000000Y-45600000D03*
X72850000Y-50825000D03*
X74550000Y-74025000D03*
X74500000Y-59600000D03*
X72700000Y-47875000D03*
X40100000Y-47600000D03*
%TO.N,/Z*%
X93200000Y-66400000D03*
%TO.N,/A*%
X89400000Y-66400000D03*
%TO.N,/B*%
X91200000Y-66400000D03*
%TO.N,/GPIO48*%
X74000000Y-81400000D03*
%TO.N,/GPIO47*%
X74800000Y-81800000D03*
%TD*%
D28*
%TO.N,+5V*%
X82175154Y-50001000D02*
X81686500Y-50001000D01*
X82177154Y-49999000D02*
X82175154Y-50001000D01*
X86300000Y-73400000D02*
X86300000Y-74350000D01*
X86125000Y-74525000D02*
X83300000Y-74525000D01*
X83474000Y-60726000D02*
X83375000Y-60825000D01*
D29*
X85600000Y-44600000D02*
X85600000Y-45550000D01*
D28*
X81686500Y-50001000D02*
X81637500Y-50050000D01*
X86400000Y-60800000D02*
X86400000Y-60500000D01*
X83800000Y-49999000D02*
X82177154Y-49999000D01*
D29*
X84300000Y-47200000D02*
X83050000Y-47200000D01*
D28*
X83375000Y-60825000D02*
X83287500Y-60825000D01*
X86200000Y-73300000D02*
X86300000Y-73400000D01*
X86375000Y-60825000D02*
X86400000Y-60800000D01*
D29*
X83050000Y-47200000D02*
X83000000Y-47150000D01*
D28*
X86300000Y-74350000D02*
X86125000Y-74525000D01*
X86400000Y-60500000D02*
X87555331Y-59344669D01*
X83325500Y-60825000D02*
X86375000Y-60825000D01*
D29*
%TO.N,GND*%
X38800000Y-46050000D02*
X40100000Y-46050000D01*
D28*
X77500000Y-79725000D02*
X77500000Y-81900000D01*
D29*
X86600000Y-49600000D02*
X87600000Y-49600000D01*
D28*
X77400000Y-82000000D02*
X77500000Y-81900000D01*
X83287500Y-66025000D02*
X85062500Y-67800000D01*
X83300000Y-79725000D02*
X83300000Y-81900000D01*
D29*
X83000000Y-45600000D02*
X83000000Y-44600000D01*
D28*
X77487500Y-66025000D02*
X75712500Y-67800000D01*
X87800000Y-74600000D02*
X88100000Y-74600000D01*
X82650000Y-50550000D02*
X82800000Y-50700000D01*
X88100000Y-74600000D02*
X89200000Y-73500000D01*
X78762500Y-50550000D02*
X77450000Y-50550000D01*
D29*
X38565000Y-51435000D02*
X38600000Y-51400000D01*
D28*
X83300000Y-81900000D02*
X83400000Y-82000000D01*
X77487500Y-66025000D02*
X83287500Y-66025000D01*
X77450000Y-50550000D02*
X76900000Y-51100000D01*
X89200000Y-60800000D02*
X89300000Y-60700000D01*
X72400000Y-73925000D02*
X72400000Y-74950000D01*
D29*
X86550000Y-51400000D02*
X87600000Y-51400000D01*
D28*
X81637500Y-50550000D02*
X82650000Y-50550000D01*
X77500000Y-79725000D02*
X83300000Y-79725000D01*
X72400000Y-74950000D02*
X72350000Y-75000000D01*
X75712500Y-67800000D02*
X75600000Y-67800000D01*
X73000000Y-60800000D02*
X73000000Y-59800000D01*
X87950000Y-60800000D02*
X89200000Y-60800000D01*
X81637500Y-50550000D02*
X80450000Y-50550000D01*
X85062500Y-67800000D02*
X85200000Y-67800000D01*
D29*
X36511000Y-51435000D02*
X38565000Y-51435000D01*
D28*
X80450000Y-50550000D02*
X80200000Y-50300000D01*
D29*
X33725000Y-56300000D02*
X34900000Y-56300000D01*
D28*
X72300000Y-73825000D02*
X72400000Y-73925000D01*
%TO.N,/DAC_SDA*%
X77187500Y-52625000D02*
X78762500Y-51050000D01*
X73191000Y-51816000D02*
X74000000Y-52625000D01*
X68326000Y-51816000D02*
X73191000Y-51816000D01*
X74000000Y-52625000D02*
X77187500Y-52625000D01*
%TO.N,/J2-6*%
X111120000Y-45620002D02*
X111120000Y-47909999D01*
D29*
X105814998Y-53100000D02*
X111060000Y-47854998D01*
X82312500Y-53100000D02*
X105814998Y-53100000D01*
X80950000Y-51737500D02*
X82312500Y-53100000D01*
D28*
X80450000Y-51737500D02*
X80950000Y-51737500D01*
D29*
%TO.N,/J2-5*%
X82915000Y-40985000D02*
X111060000Y-40985000D01*
X80950000Y-48862500D02*
X80950000Y-42950000D01*
D28*
X111120000Y-41040001D02*
X111120000Y-43330001D01*
D29*
X80950000Y-42950000D02*
X82915000Y-40985000D01*
D28*
X80450000Y-48862500D02*
X80950000Y-48862500D01*
%TO.N,/DAC_SCL*%
X73726000Y-49276000D02*
X73975000Y-49525000D01*
X73975000Y-49525000D02*
X74500000Y-50050000D01*
X68326000Y-49276000D02*
X73726000Y-49276000D01*
X74500000Y-50050000D02*
X78762500Y-50050000D01*
%TO.N,/GPIO6*%
X72400000Y-63000000D02*
X75200000Y-63000000D01*
X70800000Y-59600000D02*
X70800000Y-61400000D01*
X49310000Y-58200000D02*
X69400000Y-58200000D01*
X76000000Y-62200000D02*
X76689250Y-62200000D01*
X70800000Y-61400000D02*
X72400000Y-63000000D01*
X75200000Y-63000000D02*
X76000000Y-62200000D01*
X45466000Y-54356000D02*
X49310000Y-58200000D01*
X76764250Y-62125000D02*
X77487500Y-62125000D01*
X76689250Y-62200000D02*
X76764250Y-62125000D01*
X69400000Y-58200000D02*
X70800000Y-59600000D01*
%TO.N,/GPIO9*%
X75625000Y-75175000D02*
X77500000Y-75175000D01*
X74800000Y-76000000D02*
X75625000Y-75175000D01*
X45466000Y-77216000D02*
X46682000Y-76000000D01*
X46682000Y-76000000D02*
X74800000Y-76000000D01*
%TO.N,/GPIO8*%
X49070000Y-73200000D02*
X76825000Y-73200000D01*
X45466000Y-69596000D02*
X49070000Y-73200000D01*
X76825000Y-73200000D02*
X77500000Y-73875000D01*
%TO.N,/GPIO4*%
X70800000Y-53000000D02*
X77415700Y-59615700D01*
X49190000Y-53000000D02*
X70800000Y-53000000D01*
X45466000Y-49276000D02*
X49190000Y-53000000D01*
X77415700Y-59615700D02*
X77415700Y-60175000D01*
%TO.N,/J2-8*%
X85243905Y-60175000D02*
X90618905Y-54800000D01*
X112200000Y-43645002D02*
X113660000Y-42185002D01*
X112200000Y-48386624D02*
X112220700Y-48365924D01*
X112220700Y-47454074D02*
X112200000Y-47433374D01*
X112200000Y-46096627D02*
X112220700Y-46075927D01*
X90618905Y-54800000D02*
X106520000Y-54800000D01*
X112220700Y-48365924D02*
X112220700Y-47454074D01*
X111120000Y-50200000D02*
X112200000Y-49120000D01*
X83325500Y-60175000D02*
X85243905Y-60175000D01*
X112200000Y-45143377D02*
X112200000Y-43645002D01*
X112220700Y-46075927D02*
X112220700Y-45164077D01*
X112220700Y-45164077D02*
X112200000Y-45143377D01*
X112200000Y-49120000D02*
X112200000Y-48386624D01*
X112200000Y-47433374D02*
X112200000Y-46096627D01*
X106520000Y-54800000D02*
X111120000Y-50200000D01*
%TO.N,/GPIO5*%
X71400000Y-57400000D02*
X71400000Y-61000000D01*
X69600000Y-55600000D02*
X71400000Y-57400000D01*
X49250000Y-55600000D02*
X69600000Y-55600000D01*
X45466000Y-51816000D02*
X49250000Y-55600000D01*
X71400000Y-61000000D02*
X72600000Y-62200000D01*
X75200000Y-62200000D02*
X75925000Y-61475000D01*
X75925000Y-61475000D02*
X77487500Y-61475000D01*
X72600000Y-62200000D02*
X75200000Y-62200000D01*
D29*
%TO.N,+3V3*%
X72700000Y-47875000D02*
X73975000Y-47875000D01*
D28*
X74550000Y-60800000D02*
X74550000Y-59650000D01*
X74550000Y-74025000D02*
X75125000Y-74600000D01*
X73900000Y-75000000D02*
X73900000Y-74675000D01*
X74925000Y-60825000D02*
X77415700Y-60825001D01*
D29*
X36511000Y-50165000D02*
X38600000Y-50165000D01*
D28*
X74900000Y-60800000D02*
X74925000Y-60825000D01*
X75125000Y-74600000D02*
X77425000Y-74600000D01*
X74550000Y-59650000D02*
X74500000Y-59600000D01*
D29*
X75400000Y-45200000D02*
X76450000Y-45200000D01*
X76450000Y-45200000D02*
X76600000Y-45050000D01*
X73000000Y-50975000D02*
X72850000Y-50825000D01*
D28*
X73900000Y-74675000D02*
X74550000Y-74025000D01*
D29*
X40100000Y-47600000D02*
X38800000Y-47600000D01*
X74000000Y-50975000D02*
X73000000Y-50975000D01*
D28*
X77425000Y-74600000D02*
X77500000Y-74525000D01*
D29*
X75000000Y-45600000D02*
X75400000Y-45200000D01*
D28*
%TO.N,/J2-9*%
X113660000Y-46765001D02*
X113660000Y-44475000D01*
X95800000Y-56900000D02*
X106300000Y-56900000D01*
X85400000Y-61600000D02*
X91100000Y-61600000D01*
X114760700Y-49510926D02*
X114760700Y-47865701D01*
X114115925Y-50155701D02*
X114760700Y-49510926D01*
X85275000Y-61475000D02*
X85400000Y-61600000D01*
X83325500Y-61475000D02*
X85275000Y-61475000D01*
X113044299Y-50155701D02*
X114115925Y-50155701D01*
X114760700Y-47865701D02*
X113660000Y-46765001D01*
X106300000Y-56900000D02*
X113044299Y-50155701D01*
X91100000Y-61600000D02*
X95800000Y-56900000D01*
%TO.N,/J1-M2-6*%
X84839570Y-62953000D02*
X99197998Y-62953000D01*
X84389000Y-63326000D02*
X84389000Y-63127000D01*
X84575810Y-63127000D02*
X84794690Y-62908120D01*
X84794690Y-62908120D02*
X84839570Y-62953000D01*
X83424500Y-63326000D02*
X84389000Y-63326000D01*
X83325500Y-63425000D02*
X83424500Y-63326000D01*
X84389000Y-63127000D02*
X84575810Y-63127000D01*
X99197998Y-62953000D02*
X111960000Y-75715002D01*
%TO.N,/GPIO7*%
X69400000Y-60800000D02*
X72400000Y-63800000D01*
X45466000Y-56896000D02*
X49370000Y-60800000D01*
X49370000Y-60800000D02*
X69400000Y-60800000D01*
X72400000Y-63800000D02*
X75200000Y-63800000D01*
X75200000Y-63800000D02*
X76225000Y-62775000D01*
X76225000Y-62775000D02*
X77487500Y-62775000D01*
%TO.N,/J1-M1-14*%
X96875000Y-64075000D02*
X111245002Y-78445002D01*
X83325500Y-64075000D02*
X96875000Y-64075000D01*
X111245002Y-78445002D02*
X112060000Y-78445002D01*
%TO.N,/GPIO10*%
X72600000Y-76800000D02*
X74800000Y-76800000D01*
X75775000Y-75825000D02*
X77500000Y-75825000D01*
X71000000Y-78400000D02*
X72600000Y-76800000D01*
X46822000Y-78400000D02*
X71000000Y-78400000D01*
X74800000Y-76800000D02*
X75775000Y-75825000D01*
X45466000Y-79756000D02*
X46822000Y-78400000D01*
%TO.N,/J1-M1-6*%
X84389000Y-62477000D02*
X84575810Y-62477000D01*
X94098000Y-62502000D02*
X96200000Y-60400000D01*
X83325500Y-62775000D02*
X83424500Y-62676000D01*
X85026380Y-62502000D02*
X94098000Y-62502000D01*
X112060000Y-72060000D02*
X112060000Y-72905003D01*
X83424500Y-62676000D02*
X84389000Y-62676000D01*
X96200000Y-60400000D02*
X100400000Y-60400000D01*
X84575810Y-62477000D02*
X84675810Y-62377000D01*
X84389000Y-62676000D02*
X84389000Y-62477000D01*
X84901380Y-62377000D02*
X85026380Y-62502000D01*
X100400000Y-60400000D02*
X112060000Y-72060000D01*
X84675810Y-62377000D02*
X84901380Y-62377000D01*
%TO.N,/J2-10*%
X84389000Y-61926000D02*
X85088190Y-61926000D01*
X85088190Y-61926000D02*
X85213190Y-62051000D01*
X92649000Y-62051000D02*
X95900000Y-58800000D01*
X113660000Y-52740000D02*
X113660000Y-51345002D01*
X95900000Y-58800000D02*
X107600000Y-58800000D01*
X107600000Y-58800000D02*
X113660000Y-52740000D01*
X83325500Y-62125000D02*
X83424500Y-62026000D01*
X84389000Y-62026000D02*
X84389000Y-61926000D01*
X83424500Y-62026000D02*
X84389000Y-62026000D01*
X85213190Y-62051000D02*
X92649000Y-62051000D01*
%TO.N,/GPIO12 5V*%
X83338000Y-77125000D02*
X88125000Y-77125000D01*
X88125000Y-77125000D02*
X115400000Y-104400000D01*
X115400000Y-104400000D02*
X121200000Y-104400000D01*
%TO.N,/GPIO10 5V*%
X91525000Y-75825000D02*
X115020000Y-99320000D01*
X83338000Y-75825000D02*
X84387190Y-75825000D01*
X84414190Y-75852000D02*
X88446276Y-75852000D01*
X115020000Y-99320000D02*
X121200000Y-99320000D01*
X88446276Y-75852000D02*
X88473276Y-75825000D01*
X84387190Y-75825000D02*
X84414190Y-75852000D01*
X88473276Y-75825000D02*
X91525000Y-75825000D01*
%TO.N,/GPIO11 5V*%
X89975000Y-76475000D02*
X115360000Y-101860000D01*
X83338000Y-76475000D02*
X89975000Y-76475000D01*
X115360000Y-101860000D02*
X121200000Y-101860000D01*
%TO.N,/Z*%
X93200000Y-70460466D02*
X93200000Y-66400000D01*
X84375000Y-75175000D02*
X84601000Y-75401000D01*
X83338000Y-75175000D02*
X84375000Y-75175000D01*
X88259466Y-75401000D02*
X93200000Y-70460466D01*
X84601000Y-75401000D02*
X88259466Y-75401000D01*
%TO.N,/GPIO48 5V*%
X115840000Y-106940000D02*
X121200000Y-106940000D01*
X83338000Y-77775000D02*
X86675000Y-77775000D01*
X86675000Y-77775000D02*
X115840000Y-106940000D01*
%TO.N,/J1-M2-14*%
X93425000Y-64725000D02*
X109915002Y-81215002D01*
X83325500Y-64725000D02*
X93425000Y-64725000D01*
X109915002Y-81215002D02*
X112060000Y-81215002D01*
%TO.N,/A*%
X88375000Y-65375000D02*
X89400000Y-66400000D01*
X83325500Y-65375000D02*
X88375000Y-65375000D01*
%TO.N,/B*%
X83725000Y-73875000D02*
X91200000Y-66400000D01*
X83338000Y-73875000D02*
X83725000Y-73875000D01*
%TO.N,/GPIO12*%
X69652000Y-82679562D02*
X69652000Y-82548000D01*
X69652000Y-82548000D02*
X73800000Y-78400000D01*
X68978000Y-83222000D02*
X69109562Y-83222000D01*
X73800000Y-78400000D02*
X74800000Y-78400000D01*
X46702000Y-83600000D02*
X68600000Y-83600000D01*
X68600000Y-83600000D02*
X68978000Y-83222000D01*
X45466000Y-84836000D02*
X46702000Y-83600000D01*
X76075000Y-77125000D02*
X77500000Y-77125000D01*
X74800000Y-78400000D02*
X76075000Y-77125000D01*
X69109562Y-83222000D02*
X69652000Y-82679562D01*
%TO.N,/GPIO21*%
X76000000Y-79600000D02*
X76000000Y-81800000D01*
X76000000Y-81800000D02*
X72964000Y-84836000D01*
X77500000Y-79075000D02*
X76525000Y-79075000D01*
X76525000Y-79075000D02*
X76000000Y-79600000D01*
X72964000Y-84836000D02*
X68326000Y-84836000D01*
%TO.N,/GPIO18*%
X76462810Y-65375000D02*
X77487500Y-65375000D01*
X71400000Y-70800000D02*
X75135810Y-67064190D01*
X75135810Y-66702000D02*
X76462810Y-65375000D01*
X45466000Y-67056000D02*
X49210000Y-70800000D01*
X75135810Y-67064190D02*
X75135810Y-66702000D01*
X49210000Y-70800000D02*
X71400000Y-70800000D01*
%TO.N,/GPIO17*%
X45466000Y-64516000D02*
X49350000Y-68400000D01*
X49350000Y-68400000D02*
X72000000Y-68400000D01*
X72000000Y-68400000D02*
X74149000Y-66251000D01*
X74949000Y-66251000D02*
X76475000Y-64725000D01*
X76475000Y-64725000D02*
X77487500Y-64725000D01*
X74149000Y-66251000D02*
X74949000Y-66251000D01*
%TO.N,/GPIO11*%
X75925000Y-76475000D02*
X77500000Y-76475000D01*
X46762000Y-81000000D02*
X69800000Y-81000000D01*
X45466000Y-82296000D02*
X46762000Y-81000000D01*
X73200000Y-77600000D02*
X74800000Y-77600000D01*
X74800000Y-77600000D02*
X75925000Y-76475000D01*
X69800000Y-81000000D02*
X73200000Y-77600000D01*
%TO.N,/CANTX*%
X42100000Y-58294000D02*
X42100000Y-86550960D01*
X36511000Y-52705000D02*
X42100000Y-58294000D01*
X42100000Y-86550960D02*
X45462320Y-89913280D01*
%TO.N,/CANRX*%
X44140000Y-55549001D02*
X44140000Y-86050000D01*
X39895000Y-48895000D02*
X41300000Y-50300000D01*
X36511000Y-48895000D02*
X39895000Y-48895000D01*
X41300000Y-50300000D02*
X41300000Y-52709001D01*
X41300000Y-52709001D02*
X44140000Y-55549001D01*
X44140000Y-86050000D02*
X45466000Y-87376000D01*
%TO.N,Net-(U2-Rs)*%
X31561000Y-52705000D02*
X32075000Y-53219000D01*
X32075000Y-53219000D02*
X32075000Y-56300000D01*
%TO.N,/CANL*%
X29800000Y-71200000D02*
X29809000Y-71209000D01*
X31561000Y-50165000D02*
X30586001Y-50165000D01*
X29800000Y-50951001D02*
X29800000Y-71200000D01*
X34154700Y-76825405D02*
X34784596Y-77455301D01*
X35865353Y-77265353D02*
X36364999Y-77764999D01*
X30586001Y-50165000D02*
X29800000Y-50951001D01*
X35675404Y-77455301D02*
X35865353Y-77265353D01*
X29809000Y-71596811D02*
X34154700Y-75942511D01*
X36364999Y-77764999D02*
X37770000Y-77764999D01*
X29809000Y-71209000D02*
X29809000Y-71596811D01*
X34784596Y-77455301D02*
X35675404Y-77455301D01*
X34154700Y-75942511D02*
X34154700Y-76825405D01*
%TO.N,/CANH*%
X30260000Y-71410001D02*
X35230000Y-76380001D01*
X30586001Y-51435000D02*
X30260000Y-51761001D01*
X31561000Y-51435000D02*
X30586001Y-51435000D01*
X30260000Y-51761001D02*
X30260000Y-71410001D01*
%TO.N,/GPIO48*%
X77500000Y-77775000D02*
X76225000Y-77775000D01*
X76225000Y-77775000D02*
X75149000Y-78851000D01*
X75149000Y-78851000D02*
X74749000Y-78851000D01*
X74749000Y-78851000D02*
X74000000Y-79600000D01*
X74000000Y-79600000D02*
X74000000Y-81400000D01*
%TO.N,/GPIO47*%
X77500000Y-78425000D02*
X76375000Y-78425000D01*
X74800000Y-80000000D02*
X74800000Y-81800000D01*
X76375000Y-78425000D02*
X74800000Y-80000000D01*
%TO.N,/GPIO16*%
X74706250Y-65800000D02*
X76431250Y-64075000D01*
X49290000Y-65800000D02*
X74706250Y-65800000D01*
X76431250Y-64075000D02*
X77487500Y-64075000D01*
X45466000Y-61976000D02*
X49290000Y-65800000D01*
%TO.N,/GPIO15*%
X76764250Y-63425000D02*
X76758155Y-63418905D01*
X75200000Y-64600000D02*
X70800000Y-64600000D01*
X76375000Y-63425000D02*
X75200000Y-64600000D01*
X77449500Y-63425000D02*
X76375000Y-63425000D01*
X49230000Y-63200000D02*
X45466000Y-59436000D01*
X70800000Y-64600000D02*
X69400000Y-63200000D01*
X77487500Y-63425000D02*
X76764250Y-63425000D01*
X69400000Y-63200000D02*
X49230000Y-63200000D01*
%TO.N,Net-(IC1-VREF)*%
X81813500Y-49374000D02*
X81637500Y-49550000D01*
X85050000Y-49600000D02*
X85050000Y-47750000D01*
X84824000Y-49374000D02*
X81813500Y-49374000D01*
X85050000Y-47750000D02*
X85600000Y-47200000D01*
X85050000Y-49600000D02*
X84824000Y-49374000D01*
%TO.N,Net-(IC1-CAP)*%
X84900000Y-51500000D02*
X85000000Y-51400000D01*
X81637500Y-51050000D02*
X82087500Y-51500000D01*
X82087500Y-51500000D02*
X84900000Y-51500000D01*
%TO.N,Net-(IC1-GPIO{slash}SDO)*%
X76600000Y-46700000D02*
X76600000Y-47387500D01*
X76600000Y-47387500D02*
X78762500Y-49550000D01*
%TO.N,Net-(IC3-B8)*%
X83338000Y-79075000D02*
X83975000Y-79075000D01*
X117420000Y-113320000D02*
X121200000Y-113320000D01*
X84401500Y-79174000D02*
X84401500Y-80301500D01*
X83975000Y-79075000D02*
X84074000Y-79174000D01*
X84074000Y-79174000D02*
X84401500Y-79174000D01*
X84401500Y-80301500D02*
X117420000Y-113320000D01*
%TO.N,Net-(IC3-B7)*%
X117380000Y-110780000D02*
X121200000Y-110780000D01*
X85025000Y-78425000D02*
X117380000Y-110780000D01*
X83338000Y-78425000D02*
X85025000Y-78425000D01*
%TD*%
%TA.AperFunction,Conductor*%
%TO.N,+3V3*%
G36*
X74676187Y-59878427D02*
G01*
X74678283Y-59881279D01*
X74978349Y-60455243D01*
X74979145Y-60464163D01*
X74975169Y-60469895D01*
X74557189Y-60795401D01*
X74548556Y-60797781D01*
X74542811Y-60795401D01*
X74124830Y-60469895D01*
X74120408Y-60462108D01*
X74121649Y-60455245D01*
X74421717Y-59881278D01*
X74428587Y-59875535D01*
X74432086Y-59875000D01*
X74667914Y-59875000D01*
X74676187Y-59878427D01*
G37*
%TD.AperFunction*%
%TD*%
%TA.AperFunction,Conductor*%
%TO.N,GND*%
G36*
X83249945Y-44703427D02*
G01*
X83252727Y-44707869D01*
X83447145Y-45268877D01*
X83446616Y-45277816D01*
X83442925Y-45282204D01*
X83006835Y-45596080D01*
X82998118Y-45598132D01*
X82993165Y-45596080D01*
X82557074Y-45282204D01*
X82552361Y-45274590D01*
X82552854Y-45268877D01*
X82747273Y-44707869D01*
X82753220Y-44701174D01*
X82758328Y-44700000D01*
X83241672Y-44700000D01*
X83249945Y-44703427D01*
G37*
%TD.AperFunction*%
%TD*%
%TA.AperFunction,Conductor*%
%TO.N,GND*%
G36*
X86881122Y-50952854D02*
G01*
X87442132Y-51147273D01*
X87448826Y-51153219D01*
X87450000Y-51158327D01*
X87450000Y-51641672D01*
X87446573Y-51649945D01*
X87442131Y-51652727D01*
X86881122Y-51847145D01*
X86872183Y-51846616D01*
X86867795Y-51842925D01*
X86553919Y-51406835D01*
X86551867Y-51398118D01*
X86553919Y-51393165D01*
X86867795Y-50957073D01*
X86875409Y-50952361D01*
X86881122Y-50952854D01*
G37*
%TD.AperFunction*%
%TD*%
%TA.AperFunction,Conductor*%
%TO.N,/CANL*%
G36*
X30591105Y-50035023D02*
G01*
X31552300Y-50163040D01*
X31560048Y-50167529D01*
X31562422Y-50173757D01*
X31583475Y-50452424D01*
X31580681Y-50460931D01*
X31572689Y-50464972D01*
X31571813Y-50465005D01*
X30467105Y-50465518D01*
X30458831Y-50462095D01*
X30294469Y-50297733D01*
X30291042Y-50289460D01*
X30294469Y-50281187D01*
X30295169Y-50280541D01*
X30582041Y-50037694D01*
X30590567Y-50034966D01*
X30591105Y-50035023D01*
G37*
%TD.AperFunction*%
%TD*%
%TA.AperFunction,Conductor*%
%TO.N,/DAC_SDA*%
G36*
X73441514Y-51885787D02*
G01*
X74155581Y-52220267D01*
X74161619Y-52226879D01*
X74161437Y-52235316D01*
X74003121Y-52619843D01*
X73996802Y-52626189D01*
X73994476Y-52626885D01*
X73534397Y-52713907D01*
X73525632Y-52712078D01*
X73521389Y-52706828D01*
X73324950Y-52225000D01*
X73260240Y-52066278D01*
X73260290Y-52057324D01*
X73262798Y-52053592D01*
X73428281Y-51888109D01*
X73436553Y-51884683D01*
X73441514Y-51885787D01*
G37*
%TD.AperFunction*%
%TD*%
%TA.AperFunction,Conductor*%
%TO.N,Net-(U2-Rs)*%
G36*
X32201018Y-55428427D02*
G01*
X32203225Y-55431499D01*
X32455863Y-55940579D01*
X32456471Y-55949513D01*
X32453287Y-55954407D01*
X32082904Y-56293758D01*
X32074489Y-56296820D01*
X32067096Y-56293758D01*
X31696712Y-55954407D01*
X31692927Y-55946291D01*
X31694135Y-55940580D01*
X31946775Y-55431499D01*
X31953522Y-55425612D01*
X31957255Y-55425000D01*
X32192745Y-55425000D01*
X32201018Y-55428427D01*
G37*
%TD.AperFunction*%
%TD*%
%TA.AperFunction,Conductor*%
%TO.N,/DAC_SCL*%
G36*
X73701947Y-49128344D02*
G01*
X73703676Y-49130328D01*
X73969059Y-49514941D01*
X73970937Y-49523697D01*
X73966074Y-49531216D01*
X73965649Y-49531496D01*
X73529067Y-49805517D01*
X73520238Y-49807012D01*
X73514594Y-49803900D01*
X73113194Y-49404430D01*
X73109747Y-49396165D01*
X73109747Y-49162196D01*
X73113174Y-49153923D01*
X73120931Y-49150507D01*
X73693533Y-49125284D01*
X73701947Y-49128344D01*
G37*
%TD.AperFunction*%
%TD*%
%TA.AperFunction,Conductor*%
%TO.N,+5V*%
G36*
X83344921Y-46720797D02*
G01*
X83917600Y-46947076D01*
X83924034Y-46953302D01*
X83925000Y-46957956D01*
X83925000Y-47440645D01*
X83921573Y-47448918D01*
X83915875Y-47452058D01*
X83343347Y-47581238D01*
X83334523Y-47579716D01*
X83331541Y-47577014D01*
X83234230Y-47452058D01*
X83004606Y-47157199D01*
X83002227Y-47148567D01*
X83004618Y-47142808D01*
X83149017Y-46957956D01*
X83331404Y-46724473D01*
X83339195Y-46720065D01*
X83344921Y-46720797D01*
G37*
%TD.AperFunction*%
%TD*%
%TA.AperFunction,Conductor*%
%TO.N,Net-(IC1-VREF)*%
G36*
X85176187Y-48678427D02*
G01*
X85178283Y-48681279D01*
X85478349Y-49255243D01*
X85479145Y-49264163D01*
X85475169Y-49269895D01*
X85057189Y-49595401D01*
X85048556Y-49597781D01*
X85042811Y-49595401D01*
X84624830Y-49269895D01*
X84620408Y-49262108D01*
X84621649Y-49255245D01*
X84921717Y-48681278D01*
X84928587Y-48675535D01*
X84932086Y-48675000D01*
X85167914Y-48675000D01*
X85176187Y-48678427D01*
G37*
%TD.AperFunction*%
%TD*%
%TA.AperFunction,Conductor*%
%TO.N,GND*%
G36*
X34084741Y-55902462D02*
G01*
X34517018Y-56047325D01*
X34523773Y-56053203D01*
X34525000Y-56058419D01*
X34525000Y-56541580D01*
X34521573Y-56549853D01*
X34517018Y-56552674D01*
X34084745Y-56697536D01*
X34075811Y-56696915D01*
X34072259Y-56694189D01*
X33947233Y-56552674D01*
X33730843Y-56307746D01*
X33727934Y-56299278D01*
X33730844Y-56292253D01*
X34072260Y-55905809D01*
X34080305Y-55901879D01*
X34084741Y-55902462D01*
G37*
%TD.AperFunction*%
%TD*%
%TA.AperFunction,Conductor*%
%TO.N,Net-(IC1-VREF)*%
G36*
X84824931Y-49128496D02*
G01*
X84828854Y-49133101D01*
X85047154Y-49591917D01*
X85047614Y-49600860D01*
X85044205Y-49605826D01*
X84640416Y-49952050D01*
X84631905Y-49954834D01*
X84624726Y-49951636D01*
X84153626Y-49502457D01*
X84150003Y-49494268D01*
X84150000Y-49493989D01*
X84150000Y-49258746D01*
X84153427Y-49250473D01*
X84159586Y-49247239D01*
X84816175Y-49126621D01*
X84824931Y-49128496D01*
G37*
%TD.AperFunction*%
%TD*%
%TA.AperFunction,Conductor*%
%TO.N,GND*%
G36*
X88482839Y-74046537D02*
G01*
X88483763Y-74047368D01*
X88649916Y-74213521D01*
X88653343Y-74221794D01*
X88651483Y-74228123D01*
X88255297Y-74844063D01*
X88247939Y-74849168D01*
X88239730Y-74847937D01*
X87804121Y-74603417D01*
X87798584Y-74596379D01*
X87798327Y-74595254D01*
X87717244Y-74137342D01*
X87719176Y-74128600D01*
X87726725Y-74123783D01*
X87727518Y-74123670D01*
X88474249Y-74044007D01*
X88482839Y-74046537D01*
G37*
%TD.AperFunction*%
%TD*%
%TA.AperFunction,Conductor*%
%TO.N,GND*%
G36*
X72525624Y-74078427D02*
G01*
X72528068Y-74082007D01*
X72779223Y-74655561D01*
X72779403Y-74664514D01*
X72775695Y-74669485D01*
X72357200Y-74995392D01*
X72348567Y-74997772D01*
X72342808Y-74995381D01*
X71925781Y-74669616D01*
X71921371Y-74661823D01*
X71922984Y-74654322D01*
X72189970Y-74214934D01*
X72271583Y-74080624D01*
X72278808Y-74075334D01*
X72281582Y-74075000D01*
X72517351Y-74075000D01*
X72525624Y-74078427D01*
G37*
%TD.AperFunction*%
%TD*%
%TA.AperFunction,Conductor*%
%TO.N,Net-(IC1-VREF)*%
G36*
X85593401Y-47198398D02*
G01*
X85601328Y-47202563D01*
X85602877Y-47204968D01*
X85788283Y-47589451D01*
X85788789Y-47598391D01*
X85782826Y-47605072D01*
X85782817Y-47605076D01*
X85177405Y-47896352D01*
X85172332Y-47897509D01*
X84940273Y-47897509D01*
X84932000Y-47894082D01*
X84928573Y-47885809D01*
X84928976Y-47882763D01*
X85005209Y-47600000D01*
X85122439Y-47165169D01*
X85127901Y-47158077D01*
X85134795Y-47156566D01*
X85593401Y-47198398D01*
G37*
%TD.AperFunction*%
%TD*%
%TA.AperFunction,Conductor*%
%TO.N,/DAC_SCL*%
G36*
X74448865Y-49383707D02*
G01*
X74454126Y-49389439D01*
X74681924Y-49922799D01*
X74682864Y-49927394D01*
X74682864Y-50159315D01*
X74679437Y-50167588D01*
X74671164Y-50171015D01*
X74667830Y-50170530D01*
X73853559Y-49928435D01*
X73846605Y-49922792D01*
X73845678Y-49913886D01*
X73845763Y-49913614D01*
X73972100Y-49530754D01*
X73977947Y-49523973D01*
X73979792Y-49523232D01*
X74439953Y-49382843D01*
X74448865Y-49383707D01*
G37*
%TD.AperFunction*%
%TD*%
%TA.AperFunction,Conductor*%
%TO.N,+5V*%
G36*
X86069725Y-60367517D02*
G01*
X86395855Y-60793284D01*
X86398166Y-60801936D01*
X86396235Y-60806989D01*
X86094759Y-61249270D01*
X86087267Y-61254176D01*
X86079670Y-61253049D01*
X85506279Y-60953282D01*
X85500535Y-60946412D01*
X85500000Y-60942913D01*
X85500000Y-60706596D01*
X85503427Y-60698323D01*
X85505640Y-60696587D01*
X86054382Y-60364620D01*
X86063233Y-60363271D01*
X86069725Y-60367517D01*
G37*
%TD.AperFunction*%
%TD*%
%TA.AperFunction,Conductor*%
%TO.N,GND*%
G36*
X86931122Y-49152854D02*
G01*
X87492132Y-49347273D01*
X87498826Y-49353219D01*
X87500000Y-49358327D01*
X87500000Y-49841672D01*
X87496573Y-49849945D01*
X87492131Y-49852727D01*
X86931122Y-50047145D01*
X86922183Y-50046616D01*
X86917795Y-50042925D01*
X86603919Y-49606835D01*
X86601867Y-49598118D01*
X86603919Y-49593165D01*
X86917795Y-49157073D01*
X86925409Y-49152361D01*
X86931122Y-49152854D01*
G37*
%TD.AperFunction*%
%TD*%
%TA.AperFunction,Conductor*%
%TO.N,+5V*%
G36*
X86811452Y-59925057D02*
G01*
X86977372Y-60090977D01*
X86980799Y-60099250D01*
X86980656Y-60101076D01*
X86852056Y-60915105D01*
X86847380Y-60922742D01*
X86838673Y-60924836D01*
X86837316Y-60924538D01*
X86404280Y-60802116D01*
X86397251Y-60796567D01*
X86396986Y-60796066D01*
X86329159Y-60659637D01*
X86168569Y-60336624D01*
X86167956Y-60327692D01*
X86172753Y-60321555D01*
X86796888Y-59923465D01*
X86805705Y-59921906D01*
X86811452Y-59925057D01*
G37*
%TD.AperFunction*%
%TD*%
%TA.AperFunction,Conductor*%
%TO.N,GND*%
G36*
X73126187Y-59878427D02*
G01*
X73128283Y-59881279D01*
X73428349Y-60455243D01*
X73429145Y-60464163D01*
X73425169Y-60469895D01*
X73007189Y-60795401D01*
X72998556Y-60797781D01*
X72992811Y-60795401D01*
X72574830Y-60469895D01*
X72570408Y-60462108D01*
X72571649Y-60455245D01*
X72871717Y-59881278D01*
X72878587Y-59875535D01*
X72882086Y-59875000D01*
X73117914Y-59875000D01*
X73126187Y-59878427D01*
G37*
%TD.AperFunction*%
%TD*%
%TA.AperFunction,Conductor*%
%TO.N,/J2-5*%
G36*
X111066508Y-40988359D02*
G01*
X111696160Y-41410055D01*
X111701127Y-41417506D01*
X111700452Y-41424268D01*
X111247997Y-42512306D01*
X111241656Y-42518630D01*
X111237194Y-42519514D01*
X111002075Y-42519514D01*
X110993802Y-42516087D01*
X110991714Y-42513249D01*
X110420742Y-41424707D01*
X110419934Y-41415788D01*
X110424590Y-41409552D01*
X111053490Y-40988359D01*
X111062270Y-40986603D01*
X111066508Y-40988359D01*
G37*
%TD.AperFunction*%
%TD*%
%TA.AperFunction,Conductor*%
%TO.N,+5V*%
G36*
X85944363Y-74150148D02*
G01*
X86245706Y-74592234D01*
X86247534Y-74601000D01*
X86244557Y-74606843D01*
X85872819Y-75001748D01*
X85864653Y-75005424D01*
X85857616Y-75003332D01*
X85355016Y-74653491D01*
X85350183Y-74645952D01*
X85350000Y-74643888D01*
X85350000Y-74407648D01*
X85353427Y-74399375D01*
X85357004Y-74396932D01*
X85930003Y-74146020D01*
X85938955Y-74145841D01*
X85944363Y-74150148D01*
G37*
%TD.AperFunction*%
%TD*%
%TA.AperFunction,Conductor*%
%TO.N,+3V3*%
G36*
X74286546Y-74125151D02*
G01*
X74452520Y-74291125D01*
X74455947Y-74299398D01*
X74455851Y-74300893D01*
X74351713Y-75109182D01*
X74347257Y-75116949D01*
X74338614Y-75119291D01*
X74337057Y-75118982D01*
X73904267Y-75002050D01*
X73897174Y-74996584D01*
X73896926Y-74996129D01*
X73660160Y-74538275D01*
X73659404Y-74529352D01*
X73664124Y-74523125D01*
X74271848Y-74123646D01*
X74280642Y-74121966D01*
X74286546Y-74125151D01*
G37*
%TD.AperFunction*%
%TD*%
%TA.AperFunction,Conductor*%
%TO.N,Net-(IC1-GPIO{slash}SDO)*%
G36*
X76607656Y-46706152D02*
G01*
X77007833Y-47034377D01*
X77012056Y-47042273D01*
X77009832Y-47050363D01*
X76768460Y-47377951D01*
X76767314Y-47379284D01*
X76600757Y-47545841D01*
X76592484Y-47549268D01*
X76584211Y-47545841D01*
X76583086Y-47544537D01*
X76242462Y-47084776D01*
X76240291Y-47076089D01*
X76243425Y-47069708D01*
X76591801Y-46707091D01*
X76600002Y-46703500D01*
X76607656Y-46706152D01*
G37*
%TD.AperFunction*%
%TD*%
%TA.AperFunction,Conductor*%
%TO.N,+3V3*%
G36*
X73625528Y-47493229D02*
G01*
X73628203Y-47495397D01*
X73744874Y-47622738D01*
X73968758Y-47867096D01*
X73971820Y-47875511D01*
X73968758Y-47882904D01*
X73628206Y-48254599D01*
X73620090Y-48258384D01*
X73616662Y-48258025D01*
X73108783Y-48127261D01*
X73101625Y-48121880D01*
X73100000Y-48115931D01*
X73100000Y-47634068D01*
X73103427Y-47625795D01*
X73108780Y-47622739D01*
X73616664Y-47491974D01*
X73625528Y-47493229D01*
G37*
%TD.AperFunction*%
%TD*%
%TA.AperFunction,Conductor*%
%TO.N,+3V3*%
G36*
X37775593Y-49913843D02*
G01*
X37783436Y-49918162D01*
X37786000Y-49925471D01*
X37786000Y-50404528D01*
X37782573Y-50412801D01*
X37775592Y-50416156D01*
X37338717Y-50464698D01*
X37333431Y-50464067D01*
X36540278Y-50175997D01*
X36533672Y-50169952D01*
X36533275Y-50161006D01*
X36539320Y-50154400D01*
X36540278Y-50154003D01*
X37333435Y-49865931D01*
X37338713Y-49865301D01*
X37775593Y-49913843D01*
G37*
%TD.AperFunction*%
%TD*%
%TA.AperFunction,Conductor*%
%TO.N,+3V3*%
G36*
X74895618Y-60364621D02*
G01*
X75444355Y-60696586D01*
X75449660Y-60703801D01*
X75449999Y-60706597D01*
X75449999Y-60942913D01*
X75446572Y-60951186D01*
X75443720Y-60953282D01*
X74870329Y-61253049D01*
X74861409Y-61253845D01*
X74855240Y-61249270D01*
X74553765Y-60806989D01*
X74551937Y-60798223D01*
X74554145Y-60793284D01*
X74620546Y-60706597D01*
X74880274Y-60367516D01*
X74888025Y-60363033D01*
X74895618Y-60364621D01*
G37*
%TD.AperFunction*%
%TD*%
%TA.AperFunction,Conductor*%
%TO.N,+5V*%
G36*
X86425624Y-73678427D02*
G01*
X86428068Y-73682007D01*
X86679223Y-74255561D01*
X86679403Y-74264514D01*
X86675695Y-74269485D01*
X86257200Y-74595392D01*
X86248567Y-74597772D01*
X86242808Y-74595381D01*
X85825781Y-74269616D01*
X85821371Y-74261823D01*
X85822984Y-74254322D01*
X86089970Y-73814934D01*
X86171583Y-73680624D01*
X86178808Y-73675334D01*
X86181582Y-73675000D01*
X86417351Y-73675000D01*
X86425624Y-73678427D01*
G37*
%TD.AperFunction*%
%TD*%
%TA.AperFunction,Conductor*%
%TO.N,GND*%
G36*
X88282006Y-60355135D02*
G01*
X88287974Y-60358496D01*
X88844041Y-60671644D01*
X88849568Y-60678690D01*
X88850000Y-60681839D01*
X88850000Y-60918160D01*
X88846573Y-60926433D01*
X88844041Y-60928355D01*
X88282008Y-61244863D01*
X88273118Y-61245936D01*
X88266771Y-61241503D01*
X88040000Y-60926433D01*
X87953918Y-60806834D01*
X87951867Y-60798118D01*
X87953919Y-60793165D01*
X88034046Y-60681839D01*
X88266772Y-60358494D01*
X88274385Y-60353783D01*
X88282006Y-60355135D01*
G37*
%TD.AperFunction*%
%TD*%
%TA.AperFunction,Conductor*%
%TO.N,/J2-6*%
G36*
X111066508Y-45568360D02*
G01*
X111696160Y-45990056D01*
X111701127Y-45997507D01*
X111700452Y-46004269D01*
X111247997Y-47092307D01*
X111241656Y-47098631D01*
X111237194Y-47099515D01*
X111002075Y-47099515D01*
X110993802Y-47096088D01*
X110991714Y-47093250D01*
X110420742Y-46004708D01*
X110419934Y-45995789D01*
X110424590Y-45989553D01*
X111053490Y-45568360D01*
X111062270Y-45566604D01*
X111066508Y-45568360D01*
G37*
%TD.AperFunction*%
%TD*%
%TA.AperFunction,Conductor*%
%TO.N,/J2-5*%
G36*
X111245467Y-41743913D02*
G01*
X111247997Y-41747694D01*
X111700452Y-42835731D01*
X111700465Y-42844685D01*
X111696160Y-42849944D01*
X111066511Y-43271639D01*
X111057730Y-43273396D01*
X111053489Y-43271639D01*
X110424592Y-42850448D01*
X110419625Y-42842997D01*
X110420742Y-42835292D01*
X110991714Y-41746751D01*
X110998591Y-41741017D01*
X111002075Y-41740486D01*
X111237194Y-41740486D01*
X111245467Y-41743913D01*
G37*
%TD.AperFunction*%
%TD*%
%TA.AperFunction,Conductor*%
%TO.N,/DAC_SDA*%
G36*
X74359419Y-52244135D02*
G01*
X74868502Y-52496775D01*
X74874388Y-52503521D01*
X74875000Y-52507254D01*
X74875000Y-52742745D01*
X74871573Y-52751018D01*
X74868501Y-52753225D01*
X74359420Y-53005863D01*
X74350486Y-53006471D01*
X74345592Y-53003287D01*
X74114459Y-52751018D01*
X74006240Y-52632902D01*
X74003179Y-52624489D01*
X74006240Y-52617097D01*
X74345593Y-52246711D01*
X74353708Y-52242927D01*
X74359419Y-52244135D01*
G37*
%TD.AperFunction*%
%TD*%
%TA.AperFunction,Conductor*%
%TO.N,+3V3*%
G36*
X76184150Y-44721229D02*
G01*
X76597016Y-45046858D01*
X76601390Y-45054672D01*
X76601429Y-45055054D01*
X76633922Y-45437309D01*
X76631208Y-45445843D01*
X76623255Y-45449958D01*
X76622264Y-45450000D01*
X75736700Y-45450000D01*
X75728427Y-45446573D01*
X75725000Y-45438300D01*
X75725000Y-44957135D01*
X75728427Y-44948862D01*
X75731343Y-44946733D01*
X76171549Y-44720013D01*
X76180472Y-44719273D01*
X76184150Y-44721229D01*
G37*
%TD.AperFunction*%
%TD*%
%TA.AperFunction,Conductor*%
%TO.N,+3V3*%
G36*
X73650528Y-50593229D02*
G01*
X73653203Y-50595397D01*
X73769874Y-50722738D01*
X73993758Y-50967096D01*
X73996820Y-50975511D01*
X73993758Y-50982904D01*
X73653206Y-51354599D01*
X73645090Y-51358384D01*
X73641662Y-51358025D01*
X73133783Y-51227261D01*
X73126625Y-51221880D01*
X73125000Y-51215931D01*
X73125000Y-50734068D01*
X73128427Y-50725795D01*
X73133780Y-50722739D01*
X73641664Y-50591974D01*
X73650528Y-50593229D01*
G37*
%TD.AperFunction*%
%TD*%
%TA.AperFunction,Conductor*%
%TO.N,Net-(IC1-CAP)*%
G36*
X84623046Y-50998491D02*
G01*
X84994557Y-51393156D01*
X84997733Y-51401528D01*
X84995706Y-51407765D01*
X84694165Y-51850142D01*
X84686673Y-51855048D01*
X84680195Y-51854432D01*
X84107398Y-51627925D01*
X84100964Y-51621696D01*
X84100000Y-51617045D01*
X84100000Y-51380876D01*
X84103427Y-51372603D01*
X84104713Y-51371491D01*
X84607541Y-50997124D01*
X84616222Y-50994933D01*
X84623046Y-50998491D01*
G37*
%TD.AperFunction*%
%TD*%
%TA.AperFunction,Conductor*%
%TO.N,/J2-5*%
G36*
X110904979Y-40230269D02*
G01*
X110911055Y-40236847D01*
X110911549Y-40238596D01*
X111060540Y-40982703D01*
X111060540Y-40987297D01*
X110911549Y-41731403D01*
X110906565Y-41738842D01*
X110897780Y-41740578D01*
X110896031Y-41740084D01*
X109533140Y-41237820D01*
X109526562Y-41231744D01*
X109525486Y-41226842D01*
X109525486Y-40743157D01*
X109528913Y-40734884D01*
X109533138Y-40732179D01*
X110896031Y-40229915D01*
X110904979Y-40230269D01*
G37*
%TD.AperFunction*%
%TD*%
%TA.AperFunction,Conductor*%
%TO.N,+5V*%
G36*
X85849854Y-44753427D02*
G01*
X85852675Y-44757982D01*
X85997536Y-45190253D01*
X85996915Y-45199187D01*
X85994189Y-45202739D01*
X85607747Y-45544155D01*
X85599278Y-45547065D01*
X85592253Y-45544155D01*
X85205810Y-45202739D01*
X85201879Y-45194693D01*
X85202462Y-45190258D01*
X85347325Y-44757981D01*
X85353203Y-44751227D01*
X85358419Y-44750000D01*
X85841581Y-44750000D01*
X85849854Y-44753427D01*
G37*
%TD.AperFunction*%
%TD*%
%TA.AperFunction,Conductor*%
%TO.N,/CANH*%
G36*
X30591105Y-51305023D02*
G01*
X31552300Y-51433040D01*
X31560048Y-51437529D01*
X31562422Y-51443757D01*
X31583475Y-51722424D01*
X31580681Y-51730931D01*
X31572689Y-51734972D01*
X31571813Y-51735005D01*
X30467105Y-51735518D01*
X30458831Y-51732095D01*
X30294469Y-51567733D01*
X30291042Y-51559460D01*
X30294469Y-51551187D01*
X30295169Y-51550541D01*
X30582041Y-51307694D01*
X30590567Y-51304966D01*
X30591105Y-51305023D01*
G37*
%TD.AperFunction*%
%TD*%
M02*
