M48
; DRILL file {KiCad 9.0.7} date 2026-02-21T18:55:50+1100
; FORMAT={-:-/ absolute / metric / decimal}
; #@! TF.CreationDate,2026-02-21T18:55:50+11:00
; #@! TF.GenerationSoftware,Kicad,Pcbnew,9.0.7
; #@! TF.FileFunction,Plated,1,4,PTH
FMAT,2
METRIC
; #@! TA.AperFunction,Plated,PTH,ViaDrill
T1C0.300
; #@! TA.AperFunction,Plated,PTH,ComponentDrill
T2C0.800
; #@! TA.AperFunction,Plated,PTH,ComponentDrill
T3C0.991
; #@! TA.AperFunction,Plated,PTH,ComponentDrill
T4C1.041
; #@! TA.AperFunction,Plated,PTH,ComponentDrill
T5C1.092
%
G90
G05
T1
X34.9Y-56.3
X38.6Y-50.165
X38.6Y-51.4
X40.1Y-46.05
X40.1Y-47.6
X72.3Y-73.825
X72.7Y-47.875
X72.85Y-50.825
X73.0Y-59.8
X74.0Y-81.4
X74.5Y-59.6
X74.55Y-74.025
X74.8Y-81.8
X75.0Y-45.6
X75.6Y-67.8
X76.9Y-51.1
X77.4Y-82.0
X82.8Y-50.7
X83.0Y-44.6
X83.4Y-82.0
X83.8Y-49.999
X84.3Y-47.2
X85.2Y-67.8
X85.6Y-44.6
X86.2Y-73.3
X87.555Y-59.345
X87.6Y-49.6
X87.6Y-51.4
X89.2Y-73.5
X89.3Y-60.7
X89.4Y-66.4
X91.2Y-66.4
X93.2Y-66.4
T2
X32.032Y-97.536
X35.532Y-97.536
X45.462Y-89.913
X45.462Y-92.453
X45.462Y-94.993
X45.466Y-41.656
X45.466Y-44.196
X45.466Y-46.736
X45.466Y-49.276
X45.466Y-51.816
X45.466Y-54.356
X45.466Y-56.896
X45.466Y-59.436
X45.466Y-61.976
X45.466Y-64.516
X45.466Y-67.056
X45.466Y-69.596
X45.466Y-72.136
X45.466Y-74.676
X45.466Y-77.216
X45.466Y-79.756
X45.466Y-82.296
X45.466Y-84.836
X45.466Y-87.376
X68.326Y-41.656
X68.326Y-44.196
X68.326Y-46.736
X68.326Y-49.276
X68.326Y-51.816
X68.326Y-54.356
X68.326Y-56.896
X68.326Y-59.436
X68.326Y-61.976
X68.326Y-64.516
X68.326Y-67.056
X68.326Y-69.596
X68.326Y-72.136
X68.326Y-74.676
X68.326Y-77.216
X68.326Y-79.756
X68.326Y-82.296
X68.326Y-84.836
X68.326Y-87.376
X68.326Y-89.916
X68.326Y-92.456
X68.326Y-94.996
T3
X35.23Y-70.84
X35.23Y-73.61
X35.23Y-76.38
X35.23Y-79.15
X37.77Y-69.455
X37.77Y-72.225
X37.77Y-74.995
X37.77Y-77.765
X37.77Y-80.535
X111.96Y-72.945
X111.96Y-75.715
X111.96Y-78.485
X111.96Y-81.255
X111.96Y-84.025
X114.5Y-74.33
X114.5Y-77.1
X114.5Y-79.87
X114.5Y-82.64
T4
X111.06Y-40.985
X111.06Y-43.275
X111.06Y-45.565
X111.06Y-47.855
X111.06Y-50.145
X113.6Y-42.13
X113.6Y-44.42
X113.6Y-46.71
X113.6Y-49.0
X113.6Y-51.29
X116.14Y-40.985
X116.14Y-43.275
X116.14Y-45.565
X116.14Y-47.855
X116.14Y-50.145
T5
X93.09Y-28.7
X95.63Y-28.7
X98.17Y-28.7
X100.71Y-28.7
X121.4Y-99.32
X121.4Y-101.86
X121.4Y-104.4
X121.4Y-106.94
X121.4Y-110.79
X121.4Y-113.33
X121.4Y-115.87
X121.4Y-118.41
M30
