%TF.GenerationSoftware,KiCad,Pcbnew,9.0.7*%
%TF.CreationDate,2026-02-21T18:55:46+11:00*%
%TF.ProjectId,MotorControllerNode,4d6f746f-7243-46f6-9e74-726f6c6c6572,rev?*%
%TF.SameCoordinates,Original*%
%TF.FileFunction,Copper,L4,Bot*%
%TF.FilePolarity,Positive*%
%FSLAX46Y46*%
G04 Gerber Fmt 4.6, Leading zero omitted, Abs format (unit mm)*
G04 Created by KiCad (PCBNEW 9.0.7) date 2026-02-21 18:55:46*
%MOMM*%
%LPD*%
G01*
G04 APERTURE LIST*
%TA.AperFunction,ComponentPad*%
%ADD10C,1.600200*%
%TD*%
%TA.AperFunction,ComponentPad*%
%ADD11C,1.498600*%
%TD*%
%TA.AperFunction,ComponentPad*%
%ADD12R,2.000000X1.200000*%
%TD*%
%TA.AperFunction,ComponentPad*%
%ADD13O,2.000000X1.200000*%
%TD*%
%TA.AperFunction,ComponentPad*%
%ADD14C,1.600000*%
%TD*%
%TA.AperFunction,ComponentPad*%
%ADD15C,1.549400*%
%TD*%
%TA.AperFunction,ViaPad*%
%ADD16C,0.600000*%
%TD*%
%TA.AperFunction,Conductor*%
%ADD17C,0.250000*%
%TD*%
G04 APERTURE END LIST*
D10*
%TO.P,J6,1,1*%
%TO.N,Net-(IC3-B7)*%
X121400000Y-110790000D03*
%TO.P,J6,2,2*%
%TO.N,Net-(IC3-B8)*%
X121400000Y-113330000D03*
%TO.P,J6,3,3*%
%TO.N,+5V*%
X121400000Y-115870000D03*
%TO.P,J6,4,4*%
%TO.N,GND*%
X121400000Y-118410000D03*
%TD*%
D11*
%TO.P,J2,1,1*%
%TO.N,/J1-M1-6*%
X111960000Y-72945002D03*
%TO.P,J2,2,2*%
%TO.N,/J1-M2-6*%
X111960000Y-75715002D03*
%TO.P,J2,3,3*%
%TO.N,/J1-M1-14*%
X111960000Y-78485001D03*
%TO.P,J2,4,4*%
%TO.N,/J1-M2-14*%
X111960000Y-81255001D03*
%TO.P,J2,5,5*%
%TO.N,GND*%
X111960000Y-84025000D03*
%TO.P,J2,6,6*%
X114500000Y-74330000D03*
%TO.P,J2,7,7*%
X114500000Y-77100000D03*
%TO.P,J2,8,8*%
X114500000Y-79870000D03*
%TO.P,J2,9,9*%
%TO.N,unconnected-(J2-Pad9)*%
X114500000Y-82639999D03*
%TD*%
D12*
%TO.P,U1,1,3V3*%
%TO.N,+3V3*%
X45466000Y-41656000D03*
D13*
%TO.P,U1,2,3V3*%
X45466000Y-44196000D03*
%TO.P,U1,3,CHIP_PU*%
%TO.N,unconnected-(U1-CHIP_PU-Pad3)*%
X45466000Y-46736000D03*
%TO.P,U1,4,GPIO4/ADC1_CH3*%
%TO.N,/GPIO4*%
X45466000Y-49276000D03*
%TO.P,U1,5,GPIO5/ADC1_CH4*%
%TO.N,/GPIO5*%
X45466000Y-51816000D03*
%TO.P,U1,6,GPIO6/ADC1_CH5*%
%TO.N,/GPIO6*%
X45466000Y-54356000D03*
%TO.P,U1,7,GPIO7/ADC1_CH6*%
%TO.N,/GPIO7*%
X45466000Y-56896000D03*
%TO.P,U1,8,GPIO15/ADC2_CH4/32K_P*%
%TO.N,/GPIO15*%
X45466000Y-59436000D03*
%TO.P,U1,9,GPIO16/ADC2_CH5/32K_N*%
%TO.N,/GPIO16*%
X45466000Y-61976000D03*
%TO.P,U1,10,GPIO17/ADC2_CH6*%
%TO.N,/GPIO17*%
X45466000Y-64516000D03*
%TO.P,U1,11,GPIO18/ADC2_CH7*%
%TO.N,/GPIO18*%
X45466000Y-67056000D03*
%TO.P,U1,12,GPIO8/ADC1_CH7*%
%TO.N,/GPIO8*%
X45466000Y-69596000D03*
%TO.P,U1,13,GPIO3/ADC1_CH2*%
%TO.N,unconnected-(U1-GPIO3{slash}ADC1_CH2-Pad13)*%
X45466000Y-72136000D03*
%TO.P,U1,14,GPIO46*%
%TO.N,unconnected-(U1-GPIO46-Pad14)*%
X45466000Y-74676000D03*
%TO.P,U1,15,GPIO9/ADC1_CH8*%
%TO.N,/GPIO9*%
X45466000Y-77216000D03*
%TO.P,U1,16,GPIO10/ADC1_CH9*%
%TO.N,/GPIO10*%
X45466000Y-79756000D03*
%TO.P,U1,17,GPIO11/ADC2_CH0*%
%TO.N,/GPIO11*%
X45466000Y-82296000D03*
%TO.P,U1,18,GPIO12/ADC2_CH1*%
%TO.N,/GPIO12*%
X45466000Y-84836000D03*
%TO.P,U1,19,GPIO13/ADC2_CH2*%
%TO.N,/CANRX*%
X45466000Y-87376000D03*
%TO.P,U1,20,GPIO14/ADC2_CH3*%
%TO.N,/CANTX*%
X45462320Y-89913280D03*
%TO.P,U1,21,5V*%
%TO.N,+5V*%
X45462320Y-92453280D03*
%TO.P,U1,22,GND*%
%TO.N,GND*%
X45462320Y-94993280D03*
%TO.P,U1,23,GND*%
X68326000Y-94996000D03*
%TO.P,U1,24,GND*%
X68326000Y-92456000D03*
%TO.P,U1,25,GPIO19/USB_D-*%
%TO.N,unconnected-(U1-GPIO19{slash}USB_D--Pad25)*%
X68326000Y-89916000D03*
%TO.P,U1,26,GPIO20/USB_D+*%
%TO.N,unconnected-(U1-GPIO20{slash}USB_D+-Pad26)*%
X68326000Y-87376000D03*
%TO.P,U1,27,GPIO21*%
%TO.N,/GPIO21*%
X68326000Y-84836000D03*
%TO.P,U1,28,GPIO47*%
%TO.N,/GPIO47*%
X68326000Y-82296000D03*
%TO.P,U1,29,GPIO48*%
%TO.N,/GPIO48*%
X68326000Y-79756000D03*
%TO.P,U1,30,GPIO45*%
%TO.N,unconnected-(U1-GPIO45-Pad30)*%
X68326000Y-77216000D03*
%TO.P,U1,31,GPIO0*%
%TO.N,unconnected-(U1-GPIO0-Pad31)*%
X68326000Y-74676000D03*
%TO.P,U1,32,GPIO35*%
%TO.N,unconnected-(U1-GPIO35-Pad32)*%
X68326000Y-72136000D03*
%TO.P,U1,33,GPIO36*%
%TO.N,unconnected-(U1-GPIO36-Pad33)*%
X68326000Y-69596000D03*
%TO.P,U1,34,GPIO37*%
%TO.N,unconnected-(U1-GPIO37-Pad34)*%
X68326000Y-67056000D03*
%TO.P,U1,35,GPIO38*%
%TO.N,unconnected-(U1-GPIO38-Pad35)*%
X68326000Y-64516000D03*
%TO.P,U1,36,GPIO39/MTCK*%
%TO.N,unconnected-(U1-GPIO39{slash}MTCK-Pad36)*%
X68326000Y-61976000D03*
%TO.P,U1,37,GPIO40/MTDO*%
%TO.N,unconnected-(U1-GPIO40{slash}MTDO-Pad37)*%
X68326000Y-59436000D03*
%TO.P,U1,38,GPIO41/MTDI*%
%TO.N,unconnected-(U1-GPIO41{slash}MTDI-Pad38)*%
X68326000Y-56896000D03*
%TO.P,U1,39,GPIO42/MTMS*%
%TO.N,unconnected-(U1-GPIO42{slash}MTMS-Pad39)*%
X68326000Y-54356000D03*
%TO.P,U1,40,GPIO2/ADC1_CH1*%
%TO.N,/DAC_SDA*%
X68326000Y-51816000D03*
%TO.P,U1,41,GPIO1/ADC1_CH0*%
%TO.N,/DAC_SCL*%
X68326000Y-49276000D03*
%TO.P,U1,42,GPIO44/U0RXD*%
%TO.N,unconnected-(U1-GPIO44{slash}U0RXD-Pad42)*%
X68326000Y-46736000D03*
%TO.P,U1,43,GPIO43/U0TXD*%
%TO.N,unconnected-(U1-GPIO43{slash}U0TXD-Pad43)*%
X68326000Y-44196000D03*
%TO.P,U1,44,GND*%
%TO.N,GND*%
X68326000Y-41656000D03*
%TD*%
D11*
%TO.P,J5,1,1*%
%TO.N,unconnected-(J5-Pad1)*%
X37770000Y-80534999D03*
%TO.P,J5,2,2*%
%TO.N,/CANL*%
X37770000Y-77764999D03*
%TO.P,J5,3,3*%
%TO.N,GND*%
X37770000Y-74995000D03*
%TO.P,J5,4,4*%
%TO.N,unconnected-(J5-Pad4)*%
X37770000Y-72225000D03*
%TO.P,J5,5,5*%
%TO.N,unconnected-(J5-Pad5)*%
X37770000Y-69455001D03*
%TO.P,J5,6,6*%
%TO.N,unconnected-(J5-Pad6)*%
X35230000Y-79150001D03*
%TO.P,J5,7,7*%
%TO.N,/CANH*%
X35230000Y-76380001D03*
%TO.P,J5,8,8*%
%TO.N,unconnected-(J5-Pad8)*%
X35230000Y-73610001D03*
%TO.P,J5,9,9*%
%TO.N,+5V*%
X35230000Y-70840002D03*
%TD*%
D10*
%TO.P,J4,1,1*%
%TO.N,/GPIO10 5V*%
X121400000Y-99320000D03*
%TO.P,J4,2,2*%
%TO.N,/GPIO11 5V*%
X121400000Y-101860000D03*
%TO.P,J4,3,3*%
%TO.N,/GPIO12 5V*%
X121400000Y-104400000D03*
%TO.P,J4,4,4*%
%TO.N,/GPIO48 5V*%
X121400000Y-106940000D03*
%TD*%
%TO.P,J3,1,1*%
%TO.N,/A*%
X93090000Y-28700070D03*
%TO.P,J3,2,2*%
%TO.N,/B*%
X95630000Y-28700070D03*
%TO.P,J3,3,3*%
%TO.N,/Z*%
X98170000Y-28700070D03*
%TO.P,J3,4,4*%
%TO.N,GND*%
X100710000Y-28700070D03*
%TD*%
D14*
%TO.P,C2,1*%
%TO.N,GND*%
X35532000Y-97536000D03*
%TO.P,C2,2*%
%TO.N,+5V*%
X32032000Y-97536000D03*
%TD*%
D15*
%TO.P,J1,1,1*%
%TO.N,/J2-5*%
X111060000Y-40985000D03*
%TO.P,J1,2,2*%
X111060000Y-43275000D03*
%TO.P,J1,3,3*%
%TO.N,/J2-6*%
X111060000Y-45565001D03*
%TO.P,J1,4,4*%
X111060000Y-47854998D03*
%TO.P,J1,5,5*%
%TO.N,/J2-8*%
X111060000Y-50144999D03*
%TO.P,J1,6,6*%
X113600000Y-42130001D03*
%TO.P,J1,7,7*%
%TO.N,/J2-9*%
X113600000Y-44419999D03*
%TO.P,J1,8,8*%
X113600000Y-46710000D03*
%TO.P,J1,9,9*%
%TO.N,/J2-10*%
X113600000Y-49000000D03*
%TO.P,J1,10,10*%
X113600000Y-51290001D03*
%TO.P,J1,11,11*%
%TO.N,GND*%
X116140000Y-40985000D03*
%TO.P,J1,12,12*%
X116140000Y-43275000D03*
%TO.P,J1,13,13*%
X116140000Y-45565001D03*
%TO.P,J1,14,14*%
X116140000Y-47854998D03*
%TO.P,J1,15,15*%
%TO.N,unconnected-(J1-Pad15)*%
X116140000Y-50144999D03*
%TD*%
D16*
%TO.N,+5V*%
X86200000Y-73300000D03*
X87555331Y-59344669D03*
X84300000Y-47200000D03*
X85600000Y-44600000D03*
X83800000Y-49999000D03*
%TO.N,GND*%
X73000000Y-59800000D03*
X38600000Y-51400000D03*
X85200000Y-67800000D03*
X34900000Y-56300000D03*
X89300000Y-60700000D03*
X87600000Y-51400000D03*
X83000000Y-44600000D03*
X76900000Y-51100000D03*
X83400000Y-82000000D03*
X82800000Y-50700000D03*
X72300000Y-73825000D03*
X40100000Y-46050000D03*
X77400000Y-82000000D03*
X87600000Y-49600000D03*
X75600000Y-67800000D03*
X89200000Y-73500000D03*
%TO.N,+3V3*%
X38600000Y-50165000D03*
X75000000Y-45600000D03*
X72850000Y-50825000D03*
X74550000Y-74025000D03*
X74500000Y-59600000D03*
X72700000Y-47875000D03*
X40100000Y-47600000D03*
%TO.N,/Z*%
X93200000Y-66400000D03*
%TO.N,/A*%
X89400000Y-66400000D03*
%TO.N,/B*%
X91200000Y-66400000D03*
%TO.N,/GPIO48*%
X74000000Y-81400000D03*
%TO.N,/GPIO47*%
X74800000Y-81800000D03*
%TD*%
D17*
%TO.N,/J2-10*%
X113660000Y-51345002D02*
X113660000Y-49055001D01*
%TO.N,/Z*%
X93200000Y-66400000D02*
X98200000Y-61400000D01*
X98200000Y-61400000D02*
X98200000Y-28400000D01*
%TO.N,/A*%
X89400000Y-66400000D02*
X93120000Y-62680000D01*
X93120000Y-62680000D02*
X93120000Y-28400000D01*
%TO.N,/B*%
X91200000Y-66400000D02*
X95660000Y-61940000D01*
X95660000Y-61940000D02*
X95660000Y-28400000D01*
%TO.N,/GPIO48*%
X68326000Y-79756000D02*
X72356000Y-79756000D01*
X72356000Y-79756000D02*
X74000000Y-81400000D01*
%TO.N,/GPIO47*%
X74304000Y-82296000D02*
X74800000Y-81800000D01*
X68326000Y-82296000D02*
X74304000Y-82296000D01*
%TD*%
M02*
