%TF.GenerationSoftware,KiCad,Pcbnew,9.0.7*%
%TF.CreationDate,2026-02-21T18:55:46+11:00*%
%TF.ProjectId,MotorControllerNode,4d6f746f-7243-46f6-9e74-726f6c6c6572,rev?*%
%TF.SameCoordinates,Original*%
%TF.FileFunction,Paste,Top*%
%TF.FilePolarity,Positive*%
%FSLAX46Y46*%
G04 Gerber Fmt 4.6, Leading zero omitted, Abs format (unit mm)*
G04 Created by KiCad (PCBNEW 9.0.7) date 2026-02-21 18:55:46*
%MOMM*%
%LPD*%
G01*
G04 APERTURE LIST*
G04 Aperture macros list*
%AMRoundRect*
0 Rectangle with rounded corners*
0 $1 Rounding radius*
0 $2 $3 $4 $5 $6 $7 $8 $9 X,Y pos of 4 corners*
0 Add a 4 corners polygon primitive as box body*
4,1,4,$2,$3,$4,$5,$6,$7,$8,$9,$2,$3,0*
0 Add four circle primitives for the rounded corners*
1,1,$1+$1,$2,$3*
1,1,$1+$1,$4,$5*
1,1,$1+$1,$6,$7*
1,1,$1+$1,$8,$9*
0 Add four rect primitives between the rounded corners*
20,1,$1+$1,$2,$3,$4,$5,0*
20,1,$1+$1,$4,$5,$6,$7,0*
20,1,$1+$1,$6,$7,$8,$9,0*
20,1,$1+$1,$8,$9,$2,$3,0*%
G04 Aperture macros list end*
%ADD10RoundRect,0.200000X0.200000X0.275000X-0.200000X0.275000X-0.200000X-0.275000X0.200000X-0.275000X0*%
%ADD11RoundRect,0.225000X0.225000X0.250000X-0.225000X0.250000X-0.225000X-0.250000X0.225000X-0.250000X0*%
%ADD12RoundRect,0.200000X0.275000X-0.200000X0.275000X0.200000X-0.275000X0.200000X-0.275000X-0.200000X0*%
%ADD13RoundRect,0.225000X0.250000X-0.225000X0.250000X0.225000X-0.250000X0.225000X-0.250000X-0.225000X0*%
%ADD14RoundRect,0.225000X-0.225000X-0.250000X0.225000X-0.250000X0.225000X0.250000X-0.225000X0.250000X0*%
%ADD15RoundRect,0.080000X-0.080000X0.080000X-0.080000X-0.080000X0.080000X-0.080000X0.080000X0.080000X0*%
%ADD16RoundRect,0.062500X-0.062500X0.375000X-0.062500X-0.375000X0.062500X-0.375000X0.062500X0.375000X0*%
%ADD17RoundRect,0.062500X-0.375000X0.062500X-0.375000X-0.062500X0.375000X-0.062500X0.375000X0.062500X0*%
%ADD18RoundRect,0.150000X0.825000X0.150000X-0.825000X0.150000X-0.825000X-0.150000X0.825000X-0.150000X0*%
%ADD19R,1.475000X0.450000*%
%ADD20RoundRect,0.225000X-0.250000X0.225000X-0.250000X-0.225000X0.250000X-0.225000X0.250000X0.225000X0*%
G04 APERTURE END LIST*
D10*
%TO.C,R5*%
X33725000Y-56300000D03*
X32075000Y-56300000D03*
%TD*%
D11*
%TO.C,C8*%
X87800000Y-74600000D03*
X86250000Y-74600000D03*
%TD*%
D12*
%TO.C,R2*%
X85600000Y-47200000D03*
X85600000Y-45550000D03*
%TD*%
D13*
%TO.C,C1*%
X83000000Y-47150000D03*
X83000000Y-45600000D03*
%TD*%
D14*
%TO.C,C3*%
X85050000Y-49600000D03*
X86600000Y-49600000D03*
%TD*%
D11*
%TO.C,C5*%
X74550000Y-60800000D03*
X73000000Y-60800000D03*
%TD*%
D15*
%TO.C,IC1*%
X80400000Y-50100000D03*
X80000000Y-50100000D03*
X80400000Y-50500000D03*
X80000000Y-50500000D03*
D16*
X80950000Y-48862500D03*
X80450000Y-48862500D03*
X79950000Y-48862500D03*
X79450000Y-48862500D03*
D17*
X78762500Y-49550000D03*
X78762500Y-50050000D03*
X78762500Y-50550000D03*
X78762500Y-51050000D03*
D16*
X79450000Y-51737500D03*
X79950000Y-51737500D03*
X80450000Y-51737500D03*
X80950000Y-51737500D03*
D17*
X81637500Y-51050000D03*
X81637500Y-50550000D03*
X81637500Y-50050000D03*
X81637500Y-49550000D03*
%TD*%
D11*
%TO.C,C6*%
X87950000Y-60800000D03*
X86400000Y-60800000D03*
%TD*%
D12*
%TO.C,R3*%
X73975000Y-49525000D03*
X73975000Y-47875000D03*
%TD*%
D18*
%TO.C,U2*%
X36511000Y-52705000D03*
X36511000Y-51435000D03*
X36511000Y-50165000D03*
X36511000Y-48895000D03*
X31561000Y-48895000D03*
X31561000Y-50165000D03*
X31561000Y-51435000D03*
X31561000Y-52705000D03*
%TD*%
D14*
%TO.C,C4*%
X85000000Y-51400000D03*
X86550000Y-51400000D03*
%TD*%
D11*
%TO.C,C7*%
X73900000Y-75000000D03*
X72350000Y-75000000D03*
%TD*%
D12*
%TO.C,R1*%
X76600000Y-46700000D03*
X76600000Y-45050000D03*
%TD*%
D19*
%TO.C,IC2*%
X77449500Y-60175000D03*
X77449500Y-60825000D03*
X77449500Y-61475000D03*
X77449500Y-62125000D03*
X77449500Y-62775000D03*
X77449500Y-63425000D03*
X77449500Y-64075000D03*
X77449500Y-64725000D03*
X77449500Y-65375000D03*
X77449500Y-66025000D03*
X83325500Y-66025000D03*
X83325500Y-65375000D03*
X83325500Y-64725000D03*
X83325500Y-64075000D03*
X83325500Y-63425000D03*
X83325500Y-62775000D03*
X83325500Y-62125000D03*
X83325500Y-61475000D03*
X83325500Y-60825000D03*
X83325500Y-60175000D03*
%TD*%
%TO.C,IC3*%
X77462000Y-73875000D03*
X77462000Y-74525000D03*
X77462000Y-75175000D03*
X77462000Y-75825000D03*
X77462000Y-76475000D03*
X77462000Y-77125000D03*
X77462000Y-77775000D03*
X77462000Y-78425000D03*
X77462000Y-79075000D03*
X77462000Y-79725000D03*
X83338000Y-79725000D03*
X83338000Y-79075000D03*
X83338000Y-78425000D03*
X83338000Y-77775000D03*
X83338000Y-77125000D03*
X83338000Y-76475000D03*
X83338000Y-75825000D03*
X83338000Y-75175000D03*
X83338000Y-74525000D03*
X83338000Y-73875000D03*
%TD*%
D12*
%TO.C,R4*%
X74000000Y-52625000D03*
X74000000Y-50975000D03*
%TD*%
D20*
%TO.C,C9*%
X38800000Y-46050000D03*
X38800000Y-47600000D03*
%TD*%
M02*
