%TF.GenerationSoftware,KiCad,Pcbnew,9.0.7*%
%TF.CreationDate,2026-02-21T18:55:46+11:00*%
%TF.ProjectId,MotorControllerNode,4d6f746f-7243-46f6-9e74-726f6c6c6572,rev?*%
%TF.SameCoordinates,Original*%
%TF.FileFunction,Soldermask,Top*%
%TF.FilePolarity,Negative*%
%FSLAX46Y46*%
G04 Gerber Fmt 4.6, Leading zero omitted, Abs format (unit mm)*
G04 Created by KiCad (PCBNEW 9.0.7) date 2026-02-21 18:55:46*
%MOMM*%
%LPD*%
G01*
G04 APERTURE LIST*
G04 Aperture macros list*
%AMRoundRect*
0 Rectangle with rounded corners*
0 $1 Rounding radius*
0 $2 $3 $4 $5 $6 $7 $8 $9 X,Y pos of 4 corners*
0 Add a 4 corners polygon primitive as box body*
4,1,4,$2,$3,$4,$5,$6,$7,$8,$9,$2,$3,0*
0 Add four circle primitives for the rounded corners*
1,1,$1+$1,$2,$3*
1,1,$1+$1,$4,$5*
1,1,$1+$1,$6,$7*
1,1,$1+$1,$8,$9*
0 Add four rect primitives between the rounded corners*
20,1,$1+$1,$2,$3,$4,$5,0*
20,1,$1+$1,$4,$5,$6,$7,0*
20,1,$1+$1,$6,$7,$8,$9,0*
20,1,$1+$1,$8,$9,$2,$3,0*%
G04 Aperture macros list end*
%ADD10RoundRect,0.200000X0.200000X0.275000X-0.200000X0.275000X-0.200000X-0.275000X0.200000X-0.275000X0*%
%ADD11RoundRect,0.225000X0.225000X0.250000X-0.225000X0.250000X-0.225000X-0.250000X0.225000X-0.250000X0*%
%ADD12C,1.600200*%
%ADD13RoundRect,0.200000X0.275000X-0.200000X0.275000X0.200000X-0.275000X0.200000X-0.275000X-0.200000X0*%
%ADD14RoundRect,0.225000X0.250000X-0.225000X0.250000X0.225000X-0.250000X0.225000X-0.250000X-0.225000X0*%
%ADD15RoundRect,0.225000X-0.225000X-0.250000X0.225000X-0.250000X0.225000X0.250000X-0.225000X0.250000X0*%
%ADD16RoundRect,0.062500X-0.062500X0.375000X-0.062500X-0.375000X0.062500X-0.375000X0.062500X0.375000X0*%
%ADD17RoundRect,0.062500X-0.375000X0.062500X-0.375000X-0.062500X0.375000X-0.062500X0.375000X0.062500X0*%
%ADD18R,0.800000X0.800000*%
%ADD19C,3.302000*%
%ADD20C,1.498600*%
%ADD21R,2.000000X1.200000*%
%ADD22O,2.000000X1.200000*%
%ADD23RoundRect,0.150000X0.825000X0.150000X-0.825000X0.150000X-0.825000X-0.150000X0.825000X-0.150000X0*%
%ADD24R,1.475000X0.450000*%
%ADD25C,1.600000*%
%ADD26C,1.549400*%
%ADD27RoundRect,0.225000X-0.250000X0.225000X-0.250000X-0.225000X0.250000X-0.225000X0.250000X0.225000X0*%
G04 APERTURE END LIST*
D10*
%TO.C,R5*%
X33725000Y-56300000D03*
X32075000Y-56300000D03*
%TD*%
D11*
%TO.C,C8*%
X87800000Y-74600000D03*
X86250000Y-74600000D03*
%TD*%
D12*
%TO.C,J6*%
X121400000Y-110790000D03*
X121400000Y-113330000D03*
X121400000Y-115870000D03*
X121400000Y-118410000D03*
%TD*%
D13*
%TO.C,R2*%
X85600000Y-47200000D03*
X85600000Y-45550000D03*
%TD*%
D14*
%TO.C,C1*%
X83000000Y-47150000D03*
X83000000Y-45600000D03*
%TD*%
D15*
%TO.C,C3*%
X85050000Y-49600000D03*
X86600000Y-49600000D03*
%TD*%
D11*
%TO.C,C5*%
X74550000Y-60800000D03*
X73000000Y-60800000D03*
%TD*%
D16*
%TO.C,IC1*%
X80950000Y-48862500D03*
X80450000Y-48862500D03*
X79950000Y-48862500D03*
X79450000Y-48862500D03*
D17*
X78762500Y-49550000D03*
X78762500Y-50050000D03*
X78762500Y-50550000D03*
X78762500Y-51050000D03*
D16*
X79450000Y-51737500D03*
X79950000Y-51737500D03*
X80450000Y-51737500D03*
X80950000Y-51737500D03*
D17*
X81637500Y-51050000D03*
X81637500Y-50550000D03*
X81637500Y-50050000D03*
X81637500Y-49550000D03*
D18*
X80200000Y-50300000D03*
%TD*%
D19*
%TO.C,J2*%
X113230000Y-65990001D03*
X113230000Y-90980001D03*
D20*
X111960000Y-72945002D03*
X111960000Y-75715002D03*
X111960000Y-78485001D03*
X111960000Y-81255001D03*
X111960000Y-84025000D03*
X114500000Y-74330000D03*
X114500000Y-77100000D03*
X114500000Y-79870000D03*
X114500000Y-82639999D03*
%TD*%
D11*
%TO.C,C6*%
X87950000Y-60800000D03*
X86400000Y-60800000D03*
%TD*%
D13*
%TO.C,R3*%
X73975000Y-49525000D03*
X73975000Y-47875000D03*
%TD*%
D21*
%TO.C,U1*%
X45466000Y-41656000D03*
D22*
X45466000Y-44196000D03*
X45466000Y-46736000D03*
X45466000Y-49276000D03*
X45466000Y-51816000D03*
X45466000Y-54356000D03*
X45466000Y-56896000D03*
X45466000Y-59436000D03*
X45466000Y-61976000D03*
X45466000Y-64516000D03*
X45466000Y-67056000D03*
X45466000Y-69596000D03*
X45466000Y-72136000D03*
X45466000Y-74676000D03*
X45466000Y-77216000D03*
X45466000Y-79756000D03*
X45466000Y-82296000D03*
X45466000Y-84836000D03*
X45466000Y-87376000D03*
X45462320Y-89913280D03*
X45462320Y-92453280D03*
X45462320Y-94993280D03*
X68326000Y-94996000D03*
X68326000Y-92456000D03*
X68326000Y-89916000D03*
X68326000Y-87376000D03*
X68326000Y-84836000D03*
X68326000Y-82296000D03*
X68326000Y-79756000D03*
X68326000Y-77216000D03*
X68326000Y-74676000D03*
X68326000Y-72136000D03*
X68326000Y-69596000D03*
X68326000Y-67056000D03*
X68326000Y-64516000D03*
X68326000Y-61976000D03*
X68326000Y-59436000D03*
X68326000Y-56896000D03*
X68326000Y-54356000D03*
X68326000Y-51816000D03*
X68326000Y-49276000D03*
X68326000Y-46736000D03*
X68326000Y-44196000D03*
X68326000Y-41656000D03*
%TD*%
D19*
%TO.C,J5*%
X36500000Y-87490000D03*
X36500000Y-62500000D03*
D20*
X37770000Y-80534999D03*
X37770000Y-77764999D03*
X37770000Y-74995000D03*
X37770000Y-72225000D03*
X37770000Y-69455001D03*
X35230000Y-79150001D03*
X35230000Y-76380001D03*
X35230000Y-73610001D03*
X35230000Y-70840002D03*
%TD*%
D23*
%TO.C,U2*%
X36511000Y-52705000D03*
X36511000Y-51435000D03*
X36511000Y-50165000D03*
X36511000Y-48895000D03*
X31561000Y-48895000D03*
X31561000Y-50165000D03*
X31561000Y-51435000D03*
X31561000Y-52705000D03*
%TD*%
D12*
%TO.C,J4*%
X121400000Y-99320000D03*
X121400000Y-101860000D03*
X121400000Y-104400000D03*
X121400000Y-106940000D03*
%TD*%
%TO.C,J3*%
X93090000Y-28700070D03*
X95630000Y-28700070D03*
X98170000Y-28700070D03*
X100710000Y-28700070D03*
%TD*%
D15*
%TO.C,C4*%
X85000000Y-51400000D03*
X86550000Y-51400000D03*
%TD*%
D11*
%TO.C,C7*%
X73900000Y-75000000D03*
X72350000Y-75000000D03*
%TD*%
D13*
%TO.C,R1*%
X76600000Y-46700000D03*
X76600000Y-45050000D03*
%TD*%
D24*
%TO.C,IC2*%
X77449500Y-60175000D03*
X77449500Y-60825000D03*
X77449500Y-61475000D03*
X77449500Y-62125000D03*
X77449500Y-62775000D03*
X77449500Y-63425000D03*
X77449500Y-64075000D03*
X77449500Y-64725000D03*
X77449500Y-65375000D03*
X77449500Y-66025000D03*
X83325500Y-66025000D03*
X83325500Y-65375000D03*
X83325500Y-64725000D03*
X83325500Y-64075000D03*
X83325500Y-63425000D03*
X83325500Y-62775000D03*
X83325500Y-62125000D03*
X83325500Y-61475000D03*
X83325500Y-60825000D03*
X83325500Y-60175000D03*
%TD*%
D25*
%TO.C,C2*%
X35532000Y-97536000D03*
X32032000Y-97536000D03*
%TD*%
D24*
%TO.C,IC3*%
X77462000Y-73875000D03*
X77462000Y-74525000D03*
X77462000Y-75175000D03*
X77462000Y-75825000D03*
X77462000Y-76475000D03*
X77462000Y-77125000D03*
X77462000Y-77775000D03*
X77462000Y-78425000D03*
X77462000Y-79075000D03*
X77462000Y-79725000D03*
X83338000Y-79725000D03*
X83338000Y-79075000D03*
X83338000Y-78425000D03*
X83338000Y-77775000D03*
X83338000Y-77125000D03*
X83338000Y-76475000D03*
X83338000Y-75825000D03*
X83338000Y-75175000D03*
X83338000Y-74525000D03*
X83338000Y-73875000D03*
%TD*%
D13*
%TO.C,R4*%
X74000000Y-52625000D03*
X74000000Y-50975000D03*
%TD*%
D19*
%TO.C,J1*%
X113600000Y-33340000D03*
X113600000Y-58330000D03*
D26*
X111060000Y-40985000D03*
X111060000Y-43275000D03*
X111060000Y-45565001D03*
X111060000Y-47854998D03*
X111060000Y-50144999D03*
X113600000Y-42130001D03*
X113600000Y-44419999D03*
X113600000Y-46710000D03*
X113600000Y-49000000D03*
X113600000Y-51290001D03*
X116140000Y-40985000D03*
X116140000Y-43275000D03*
X116140000Y-45565001D03*
X116140000Y-47854998D03*
X116140000Y-50144999D03*
%TD*%
D27*
%TO.C,C9*%
X38800000Y-46050000D03*
X38800000Y-47600000D03*
%TD*%
M02*
