%TF.GenerationSoftware,KiCad,Pcbnew,9.0.7*%
%TF.CreationDate,2026-02-21T18:55:46+11:00*%
%TF.ProjectId,MotorControllerNode,4d6f746f-7243-46f6-9e74-726f6c6c6572,rev?*%
%TF.SameCoordinates,Original*%
%TF.FileFunction,Soldermask,Bot*%
%TF.FilePolarity,Negative*%
%FSLAX46Y46*%
G04 Gerber Fmt 4.6, Leading zero omitted, Abs format (unit mm)*
G04 Created by KiCad (PCBNEW 9.0.7) date 2026-02-21 18:55:46*
%MOMM*%
%LPD*%
G01*
G04 APERTURE LIST*
%ADD10C,1.600200*%
%ADD11C,3.302000*%
%ADD12C,1.498600*%
%ADD13R,2.000000X1.200000*%
%ADD14O,2.000000X1.200000*%
%ADD15C,1.600000*%
%ADD16C,1.549400*%
G04 APERTURE END LIST*
D10*
%TO.C,J6*%
X121400000Y-110790000D03*
X121400000Y-113330000D03*
X121400000Y-115870000D03*
X121400000Y-118410000D03*
%TD*%
D11*
%TO.C,J2*%
X113230000Y-65990001D03*
X113230000Y-90980001D03*
D12*
X111960000Y-72945002D03*
X111960000Y-75715002D03*
X111960000Y-78485001D03*
X111960000Y-81255001D03*
X111960000Y-84025000D03*
X114500000Y-74330000D03*
X114500000Y-77100000D03*
X114500000Y-79870000D03*
X114500000Y-82639999D03*
%TD*%
D13*
%TO.C,U1*%
X45466000Y-41656000D03*
D14*
X45466000Y-44196000D03*
X45466000Y-46736000D03*
X45466000Y-49276000D03*
X45466000Y-51816000D03*
X45466000Y-54356000D03*
X45466000Y-56896000D03*
X45466000Y-59436000D03*
X45466000Y-61976000D03*
X45466000Y-64516000D03*
X45466000Y-67056000D03*
X45466000Y-69596000D03*
X45466000Y-72136000D03*
X45466000Y-74676000D03*
X45466000Y-77216000D03*
X45466000Y-79756000D03*
X45466000Y-82296000D03*
X45466000Y-84836000D03*
X45466000Y-87376000D03*
X45462320Y-89913280D03*
X45462320Y-92453280D03*
X45462320Y-94993280D03*
X68326000Y-94996000D03*
X68326000Y-92456000D03*
X68326000Y-89916000D03*
X68326000Y-87376000D03*
X68326000Y-84836000D03*
X68326000Y-82296000D03*
X68326000Y-79756000D03*
X68326000Y-77216000D03*
X68326000Y-74676000D03*
X68326000Y-72136000D03*
X68326000Y-69596000D03*
X68326000Y-67056000D03*
X68326000Y-64516000D03*
X68326000Y-61976000D03*
X68326000Y-59436000D03*
X68326000Y-56896000D03*
X68326000Y-54356000D03*
X68326000Y-51816000D03*
X68326000Y-49276000D03*
X68326000Y-46736000D03*
X68326000Y-44196000D03*
X68326000Y-41656000D03*
%TD*%
D11*
%TO.C,J5*%
X36500000Y-87490000D03*
X36500000Y-62500000D03*
D12*
X37770000Y-80534999D03*
X37770000Y-77764999D03*
X37770000Y-74995000D03*
X37770000Y-72225000D03*
X37770000Y-69455001D03*
X35230000Y-79150001D03*
X35230000Y-76380001D03*
X35230000Y-73610001D03*
X35230000Y-70840002D03*
%TD*%
D10*
%TO.C,J4*%
X121400000Y-99320000D03*
X121400000Y-101860000D03*
X121400000Y-104400000D03*
X121400000Y-106940000D03*
%TD*%
%TO.C,J3*%
X93090000Y-28700070D03*
X95630000Y-28700070D03*
X98170000Y-28700070D03*
X100710000Y-28700070D03*
%TD*%
D15*
%TO.C,C2*%
X35532000Y-97536000D03*
X32032000Y-97536000D03*
%TD*%
D11*
%TO.C,J1*%
X113600000Y-33340000D03*
X113600000Y-58330000D03*
D16*
X111060000Y-40985000D03*
X111060000Y-43275000D03*
X111060000Y-45565001D03*
X111060000Y-47854998D03*
X111060000Y-50144999D03*
X113600000Y-42130001D03*
X113600000Y-44419999D03*
X113600000Y-46710000D03*
X113600000Y-49000000D03*
X113600000Y-51290001D03*
X116140000Y-40985000D03*
X116140000Y-43275000D03*
X116140000Y-45565001D03*
X116140000Y-47854998D03*
X116140000Y-50144999D03*
%TD*%
M02*
