<?xml version="1.0" standalone="no"?>
 <!DOCTYPE svg PUBLIC "-//W3C//DTD SVG 1.1//EN" 
 "http://www.w3.org/Graphics/SVG/1.1/DTD/svg11.dtd"> 
<svg
  xmlns:svg="http://www.w3.org/2000/svg"
  xmlns="http://www.w3.org/2000/svg"
  xmlns:xlink="http://www.w3.org/1999/xlink"
  version="1.1"
  width="297.0022mm" height="210.0072mm" viewBox="0.0000 0.0000 297.0022 210.0072">
<title>SVG Image created as Driver_Control_PCB-F_Paste.svg date 2026/03/26 21:32:26 </title>
  <desc>Image generated by PCBNEW </desc>
<g style="fill:#000000; fill-opacity:1.0000;stroke:#000000; stroke-opacity:1.0000;
stroke-linecap:round; stroke-linejoin:round;"
 transform="translate(0 0) scale(1 1)">
<path style="fill:#000000; fill-opacity:1.0000; stroke:none;fill-rule:evenodd;"
d="M 159.6750,89.8500
159.7707,89.8690
159.8518,89.9232
159.9060,90.0043
159.9250,90.1000
159.9250,90.6000
159.9060,90.6957
159.8518,90.7768
159.7707,90.8310
159.6750,90.8500
158.7250,90.8500
158.6293,90.8310
158.5482,90.7768
158.4940,90.6957
158.4750,90.6000
158.4750,90.1000
158.4940,90.0043
158.5482,89.9232
158.6293,89.8690
158.7250,89.8500
Z" /> 
<path style="fill:#000000; fill-opacity:1.0000; stroke:none;fill-rule:evenodd;"
d="M 159.6750,91.7500
159.7707,91.7690
159.8518,91.8232
159.9060,91.9043
159.9250,92.0000
159.9250,92.5000
159.9060,92.5957
159.8518,92.6768
159.7707,92.7310
159.6750,92.7500
158.7250,92.7500
158.6293,92.7310
158.5482,92.6768
158.4940,92.5957
158.4750,92.5000
158.4750,92.0000
158.4940,91.9043
158.5482,91.8232
158.6293,91.7690
158.7250,91.7500
Z" /> 
<path style="fill:#000000; fill-opacity:1.0000; stroke:none;fill-rule:evenodd;"
d="M 159.8493,81.2000
159.8607,81.1426
159.8932,81.0939
159.9419,81.0614
159.9993,81.0500
161.6493,81.0500
161.7067,81.0614
161.7554,81.0939
161.7879,81.1426
161.7993,81.2000
161.7993,81.5000
161.7879,81.5574
161.7554,81.6061
161.7067,81.6386
161.6493,81.6500
159.9993,81.6500
159.9419,81.6386
159.8932,81.6061
159.8607,81.5574
159.8493,81.5000
Z" /> 
<path style="fill:#000000; fill-opacity:1.0000; stroke:none;fill-rule:evenodd;"
d="M 159.8493,82.4700
159.8607,82.4126
159.8932,82.3639
159.9419,82.3314
159.9993,82.3200
161.6493,82.3200
161.7067,82.3314
161.7554,82.3639
161.7879,82.4126
161.7993,82.4700
161.7993,82.7700
161.7879,82.8274
161.7554,82.8761
161.7067,82.9086
161.6493,82.9200
159.9993,82.9200
159.9419,82.9086
159.8932,82.8761
159.8607,82.8274
159.8493,82.7700
Z" /> 
<path style="fill:#000000; fill-opacity:1.0000; stroke:none;fill-rule:evenodd;"
d="M 159.8493,83.7400
159.8607,83.6826
159.8932,83.6339
159.9419,83.6014
159.9993,83.5900
161.6493,83.5900
161.7067,83.6014
161.7554,83.6339
161.7879,83.6826
161.7993,83.7400
161.7993,84.0400
161.7879,84.0974
161.7554,84.1461
161.7067,84.1786
161.6493,84.1900
159.9993,84.1900
159.9419,84.1786
159.8932,84.1461
159.8607,84.0974
159.8493,84.0400
Z" /> 
<path style="fill:#000000; fill-opacity:1.0000; stroke:none;fill-rule:evenodd;"
d="M 159.8493,85.0100
159.8607,84.9526
159.8932,84.9039
159.9419,84.8714
159.9993,84.8600
161.6493,84.8600
161.7067,84.8714
161.7554,84.9039
161.7879,84.9526
161.7993,85.0100
161.7993,85.3100
161.7879,85.3674
161.7554,85.4161
161.7067,85.4486
161.6493,85.4600
159.9993,85.4600
159.9419,85.4486
159.8932,85.4161
159.8607,85.3674
159.8493,85.3100
Z" /> 
<path style="fill:#000000; fill-opacity:1.0000; stroke:none;fill-rule:evenodd;"
d="M 164.7993,85.0100
164.8107,84.9526
164.8432,84.9039
164.8919,84.8714
164.9493,84.8600
166.5993,84.8600
166.6567,84.8714
166.7054,84.9039
166.7379,84.9526
166.7493,85.0100
166.7493,85.3100
166.7379,85.3674
166.7054,85.4161
166.6567,85.4486
166.5993,85.4600
164.9493,85.4600
164.8919,85.4486
164.8432,85.4161
164.8107,85.3674
164.7993,85.3100
Z" /> 
<path style="fill:#000000; fill-opacity:1.0000; stroke:none;fill-rule:evenodd;"
d="M 164.7993,83.7400
164.8107,83.6826
164.8432,83.6339
164.8919,83.6014
164.9493,83.5900
166.5993,83.5900
166.6567,83.6014
166.7054,83.6339
166.7379,83.6826
166.7493,83.7400
166.7493,84.0400
166.7379,84.0974
166.7054,84.1461
166.6567,84.1786
166.5993,84.1900
164.9493,84.1900
164.8919,84.1786
164.8432,84.1461
164.8107,84.0974
164.7993,84.0400
Z" /> 
<path style="fill:#000000; fill-opacity:1.0000; stroke:none;fill-rule:evenodd;"
d="M 164.7993,82.4700
164.8107,82.4126
164.8432,82.3639
164.8919,82.3314
164.9493,82.3200
166.5993,82.3200
166.6567,82.3314
166.7054,82.3639
166.7379,82.4126
166.7493,82.4700
166.7493,82.7700
166.7379,82.8274
166.7054,82.8761
166.6567,82.9086
166.5993,82.9200
164.9493,82.9200
164.8919,82.9086
164.8432,82.8761
164.8107,82.8274
164.7993,82.7700
Z" /> 
<path style="fill:#000000; fill-opacity:1.0000; stroke:none;fill-rule:evenodd;"
d="M 164.7993,81.2000
164.8107,81.1426
164.8432,81.0939
164.8919,81.0614
164.9493,81.0500
166.5993,81.0500
166.6567,81.0614
166.7054,81.0939
166.7379,81.1426
166.7493,81.2000
166.7493,81.5000
166.7379,81.5574
166.7054,81.6061
166.6567,81.6386
166.5993,81.6500
164.9493,81.6500
164.8919,81.6386
164.8432,81.6061
164.8107,81.5574
164.7993,81.5000
Z" /> 
</g> 
</svg>
